<svg width="122" height="122" viewBox="0 0 122 122" fill="none" xmlns="http://www.w3.org/2000/svg">
<path d="M122 61C122 64.645 121.681 68.213 121.069 71.6812C120.377 75.5926 119.313 79.3746 117.914 82.9924C109.09 105.814 86.9362 122 61 122C53.8966 122 47.077 120.785 40.7356 118.554C35.4224 116.684 30.4452 114.097 25.9214 110.911C23.479 109.193 21.1684 107.298 19.0098 105.246C13.8113 100.312 9.48145 94.468 6.27442 87.9722C2.25581 79.8402 0 70.6828 0 61C0 56.0054 0.599992 51.1504 1.73278 46.5044C2.04159 45.242 2.38758 43.9972 2.77359 42.7698C3.05739 41.856 3.36358 40.9548 3.68979 40.061C4.1978 38.6669 4.758 37.2975 5.363 35.9528C5.87578 34.8124 6.42359 33.692 7.00618 32.5916C7.53898 31.5782 8.1018 30.5824 8.69179 29.6038C8.80878 29.4072 8.9284 29.2104 9.05278 29.0162C9.72998 27.9108 10.447 26.8302 11.1966 25.7744C11.8016 24.918 12.429 24.0764 13.0788 23.2548C13.4024 22.844 13.7312 22.4406 14.0648 22.0398C25.2516 8.57479 42.1248 0 61 0C79.9374 0 96.8606 8.62959 108.047 22.1716C112.673 27.7686 116.318 34.2048 118.721 41.2186C120.148 45.379 121.134 49.7412 121.629 54.2526C121.876 56.4686 122 58.7194 122 61Z" fill="#E03535"/>
<path d="M59.815 43.2304C60.3876 43.8056 60.7436 44.5998 60.7436 45.4762C60.7436 47.229 59.3244 48.6506 57.5692 48.6506H57.258C56.3816 48.6506 55.5874 49.0066 55.0146 49.5792C54.4394 50.1544 54.0834 50.9486 54.0834 51.825C54.0834 53.5778 52.6618 54.9994 50.909 54.9994H5.18903C4.31263 54.9994 3.51844 54.6434 2.94323 54.0708C2.37064 53.4956 2.01465 52.7014 2.01465 51.825C2.01465 50.0722 3.43623 48.6506 5.18903 48.6506H14.8394C15.7158 48.6506 16.51 48.2946 17.0852 47.722C17.6578 47.1468 18.0138 46.3526 18.0138 45.4762C18.0138 43.7234 16.5922 42.3018 14.8394 42.3018H12.1454C11.269 42.3018 10.4748 41.9459 9.89961 41.3733C9.32702 40.7981 8.97103 40.0039 8.97103 39.1275C8.97103 37.3747 10.3926 35.9531 12.1454 35.9531H21.0614C21.9378 35.9531 22.732 35.5971 23.3048 35.0245C23.8801 34.4493 24.236 33.6551 24.236 32.7787C24.236 31.0259 22.8145 29.6043 21.0617 29.6043H8.692C10.0216 27.3933 11.488 25.2721 13.079 23.2553H50.162C51.0384 23.2553 51.8326 23.6113 52.4054 24.1839C52.9806 24.7591 53.3366 25.5533 53.3366 26.4297C53.3366 28.1825 54.7582 29.6041 56.511 29.6041H57.5692C59.3246 29.6041 60.7436 31.0257 60.7436 32.7785C60.7436 34.5313 59.3244 35.9528 57.5692 35.9528H51.7506C50.8742 35.9528 50.08 36.3088 49.5072 36.8814C48.932 37.4566 48.576 38.2508 48.576 39.1272C48.576 40.88 49.9976 42.3016 51.7504 42.3016H57.569C58.4456 42.3016 59.24 42.6576 59.815 43.2304Z" fill="#1A1A1A"/>
<path d="M118.722 41.2186H106.457C105.58 41.2186 104.786 40.8626 104.213 40.2874C103.638 39.7148 103.282 38.9206 103.282 38.044C103.282 36.2912 104.704 34.8696 106.456 34.8696H107.338C108.214 34.8696 109.008 34.5136 109.581 33.9384C110.156 33.3658 110.512 32.5716 110.512 31.695C110.512 29.9422 109.091 28.5206 107.338 28.5206H98.6861C97.8097 28.5206 97.0155 28.1646 96.4403 27.5894C95.8677 27.0168 95.5117 26.2226 95.5117 25.346C95.5117 23.5932 96.9309 22.1716 98.6861 22.1716H108.048C112.674 27.7686 116.319 34.2048 118.722 41.2186Z" fill="#1A1A1A"/>
<path d="M122 61C122 64.645 121.682 68.213 121.069 71.6812C120.81 71.2206 120.661 70.6902 120.661 70.125C120.661 68.3722 119.239 66.9506 117.486 66.9506H102.316C101.44 66.9506 100.645 66.5946 100.07 66.022C99.4976 65.4468 99.1416 64.6526 99.1416 63.7762C99.1416 62.0234 100.563 60.6018 102.316 60.6018H112.547C113.423 60.6018 114.217 60.2458 114.79 59.6733C115.365 59.098 115.721 58.3038 115.721 57.4275C115.721 55.6747 117.143 54.2531 118.896 54.2531H121.629C121.876 56.4686 122 58.7194 122 61Z" fill="#1A1A1A"/>
<path d="M117.914 82.9924C109.09 105.814 86.9362 122 61 122C53.8966 122 47.077 120.785 40.7356 118.554C35.4224 116.684 30.4452 114.097 25.9214 110.911C23.479 109.193 21.1684 107.298 19.0098 105.246C13.8112 100.312 9.48144 94.468 6.27441 87.9723H6.6478C7.60879 87.9723 8.39059 87.1928 8.39059 86.2295V75.7723C8.39059 74.8113 9.17001 74.0295 10.1334 74.0295H14.615C15.576 74.0295 16.3578 73.25 16.3578 72.2867V69.7969C16.3578 68.8359 17.1372 68.0541 18.1005 68.0541H19.5943C20.5553 68.0541 21.3371 68.8359 21.3371 69.7969V72.5357C21.3371 73.5093 22.1339 74.2959 23.1123 74.2785C24.0609 74.2611 24.8227 75.0727 24.8227 76.0213V79.0091C24.8227 79.9727 25.6021 80.7519 26.5655 80.7519H30.3001C31.2611 80.7519 32.0429 81.5337 32.0429 82.4946V86.2292C32.0429 87.1928 32.8223 87.972 33.7857 87.972H41.0061C41.967 87.972 42.7488 87.1926 42.7488 86.2292V72.2864C42.7488 71.3254 43.5283 70.5436 44.4916 70.5436H46.4834C47.4444 70.5436 48.2262 71.3254 48.2262 72.2864V86.772C48.2262 87.8476 49.0976 88.719 50.1732 88.719H53.99C55.0656 88.719 55.937 87.8476 55.937 86.772V74.5272C55.937 73.5662 56.7188 72.7844 57.6798 72.7844H62.9084C63.872 72.7844 64.6512 73.5662 64.6512 74.5272V86.9762C64.6512 87.9398 65.433 88.719 66.394 88.719H70.3776C71.3412 88.719 72.1203 87.9396 72.1203 86.9762V80.2538C72.1203 79.2929 72.9021 78.5111 73.8631 78.5111H84.5693C85.533 78.5111 86.3121 77.7316 86.3121 76.7683V67.0581C86.3121 66.0971 87.0939 65.3153 88.0549 65.3153H93.2835C94.2471 65.3153 95.0263 66.0971 95.0263 67.0581V84.4867C95.0263 85.4503 95.8081 86.2295 96.7691 86.2295H100.504C101.467 86.2295 102.246 85.45 102.246 84.4867V80.2541C102.246 79.2931 103.028 78.5113 103.989 78.5113H111.957C112.92 78.5113 113.699 79.2931 113.699 80.2541V81.2501C113.699 82.2137 114.481 82.9929 115.442 82.9929H117.914V82.9924Z" fill="#AD2424"/>
<path d="M31.0875 31.471H15.0283V37.0727H31.0875V31.471Z" fill="#D6C8B0"/>
<path d="M19.6964 22.0396V46.5044H1.73242C2.04123 45.242 2.38722 43.9972 2.77323 42.7698C3.05703 41.856 3.36322 40.9548 3.68943 40.061C4.19744 38.6668 4.75764 37.2974 5.36264 35.9528C5.87542 34.8124 6.42323 33.692 7.00582 32.5916C7.53862 31.5782 8.10144 30.5824 8.69143 29.6038C8.80842 29.4072 8.92804 29.2104 9.05242 29.0162C9.72962 27.9108 10.4466 26.8302 11.1962 25.7744C11.8012 24.918 12.4286 24.0764 13.0784 23.2548C13.402 22.844 13.7308 22.4406 14.0644 22.0398C14.0644 22.0396 19.6964 22.0396 19.6964 22.0396Z" fill="#EDBB4C"/>
<path d="M15.9618 25.7744V42.7698H2.77344C3.05723 41.856 3.36342 40.9548 3.68963 40.061C4.19764 38.6669 4.75784 37.2975 5.36284 35.9528C5.87562 34.8124 6.42343 33.692 7.00603 32.5916C7.53882 31.5782 8.10164 30.5825 8.69163 29.6038C8.80863 29.4072 8.92824 29.2104 9.05263 29.0162C9.72982 27.9108 10.4468 26.8302 11.1964 25.7744C11.1964 25.7744 15.9618 25.7744 15.9618 25.7744Z" fill="#FFD15C"/>
<path d="M9.05246 29.016V32.5914H7.00586C7.53866 31.578 8.10148 30.5822 8.69146 29.6036C8.80846 29.407 8.92807 29.2102 9.05246 29.016Z" fill="#5C5E70"/>
<path d="M9.05245 35.9526V40.0608H3.68945C4.19747 38.6666 4.75767 37.2972 5.36266 35.9526H9.05245Z" fill="#5C5E70"/>
<path d="M44.3434 45.4762H28.2842V51.078H44.3434V45.4762Z" fill="#D6C8B0"/>
<path d="M44.3434 12.6134H28.2842V18.2152H44.3434V12.6134Z" fill="#D6C8B0"/>
<path d="M40.7358 118.554C32.5544 115.674 25.172 111.097 19.0098 105.246L20.1128 89.6152C20.2274 87.9968 21.5744 86.7444 23.1952 86.7444H35.6118C37.2352 86.7444 38.5796 87.9968 38.6942 89.6152L40.7358 118.554Z" fill="#F4A14E"/>
<path d="M27.403 86.7444C26.8776 86.7444 26.4444 87.9968 26.407 89.6152L25.9214 110.91C23.479 109.192 21.1684 107.298 19.0098 105.246L20.1152 89.6152C20.2298 87.9968 21.5741 86.7444 23.1949 86.7444H27.403Z" fill="#E28D40"/>
<path d="M33.1391 0H25.6699V86.742H33.1391V0Z" fill="#E8DBC4"/>
<path d="M29.4043 0H25.6699V86.742H29.4043V0Z" fill="#D6C8B0"/>
<path d="M88.1538 27.6475H39.6738V3.18105H88.1538L101.293 15.4144L88.1538 27.6475Z" fill="#EDBB4C"/>
<path d="M43.4082 23.9127V6.91563H86.6841L95.812 15.4144L86.6841 23.9127H43.4082Z" fill="#FFD15C"/>
<path d="M88.1538 60.5113H39.6738V36.0446H88.1538L101.293 48.2779L88.1538 60.5113Z" fill="#EDBB4C"/>
<path d="M43.4082 56.7765V39.7794H86.6841L95.812 48.2779L86.6841 56.7765H43.4082Z" fill="#FFD15C"/>
<path d="M83.5526 42.4884H50.3164V46.5964H83.5526V42.4884Z" fill="#5C5E70"/>
<path d="M83.5526 49.9578H50.3164V54.0658H83.5526V49.9578Z" fill="#5C5E70"/>
<path d="M83.5526 13.3602H50.3164V17.4682H83.5526V13.3602Z" fill="#5C5E70"/>
</svg>
