<svg width="122" height="122" viewBox="0 0 122 122" fill="none" xmlns="http://www.w3.org/2000/svg">
<path d="M61.0002 0C43.7401 0 31.357 7.16382 26.0032 10.9577L20.5762 27.9444C20.5762 61.6081 48.9644 88.8911 82.6282 88.8911C95.5911 88.8911 110.014 82.6781 119.666 75.2081C119.882 75.041 120.567 73.9183 120.567 73.9183C120.61 73.6587 121.953 68.3065 121.953 60.9536C121.954 27.2897 94.6637 0 61.0002 0V0Z" fill="#E03535"/>
<path d="M107.943 99.8326C114.04 92.4816 118.457 83.6567 120.567 73.9181C110.155 82.2115 96.9687 87.1703 82.6227 87.1703C48.959 87.1703 21.6693 59.8806 21.6693 26.2169L11.9335 24.7889C4.46396 34.9055 0.046875 47.4139 0.046875 60.9534C0.046875 75.7316 5.30727 89.2805 14.0564 99.8326H107.943Z" fill="#AD2424"/>
<path d="M14.0508 99.8261C15.4467 101.51 16.9314 103.118 18.4977 104.642L22.5568 105.579L24.5015 109.774C34.676 117.393 47.311 121.907 61.0004 121.907C79.7753 121.907 96.7172 113.369 107.948 99.8261H14.0508Z" fill="#191919"/>
<path d="M100.057 119.012C104.592 119.012 108.268 115.336 108.268 110.802C108.268 106.267 104.592 102.591 100.057 102.591C95.5227 102.591 91.8467 106.267 91.8467 110.802C91.8467 115.336 95.5227 119.012 100.057 119.012Z" fill="#20396B"/>
<path d="M34.7753 20.4466C34.3027 22.8745 31.9222 24.7743 29.4508 24.7743H12.5146C14.7035 49.3409 35.3373 68.6008 60.473 68.6008C87.0678 68.6008 108.627 47.0414 108.627 20.4466H34.7753Z" fill="#26447E"/>
<path d="M42.9561 55.1867C41.0395 54.3955 38.8452 55.3091 38.0547 57.2254L18.4971 104.643C20.384 106.479 22.3895 108.194 24.5011 109.775L44.9951 60.0879C45.7853 58.1713 44.8727 55.9772 42.9561 55.1867Z" fill="#20396B"/>
<path d="M96.9747 107.319C95.4997 107.319 94.1009 106.444 93.5033 104.995L74.9809 60.0878C74.1904 58.1713 75.1032 55.9772 77.0196 55.1867C78.9364 54.3967 81.1302 55.3091 81.9209 57.2254L100.443 102.133C101.234 104.049 100.321 106.243 98.4046 107.034C97.9364 107.227 97.4514 107.319 96.9747 107.319Z" fill="#20396B"/>
<path d="M101.17 15.1083C92.6319 12.1945 77.5963 10.2602 60.4731 10.2602C44.8526 10.2602 30.9693 11.8699 22.1712 14.3644L16.8556 18.9278C16.2018 19.6143 15.5639 20.3161 14.9424 21.0323L15.5765 24.4564C22.5644 28.3455 40.0313 31.102 60.4731 31.102C84.6102 31.102 104.599 27.2588 108.088 22.2458C105.979 19.6832 103.664 17.2955 101.17 15.1083Z" fill="#AD2424"/>
<path d="M15.5771 24.4555C22.5643 28.345 40.03 31.102 60.4733 31.102C80.9165 31.102 98.3822 28.345 105.369 24.4555C98.3822 21.0547 80.9165 18.6438 60.4733 18.6438C40.03 18.6438 22.5643 21.0547 15.5771 24.4555Z" fill="#191919"/>
<path d="M100.057 122C93.8819 122 88.8584 116.976 88.8584 110.802C88.8584 104.627 93.8819 99.6031 100.057 99.6031C106.232 99.6031 111.255 104.627 111.255 110.802C111.255 116.976 106.232 122 100.057 122ZM100.057 105.579C97.1772 105.579 94.8342 107.922 94.8342 110.802C94.8342 113.681 97.177 116.024 100.057 116.024C102.937 116.024 105.279 113.681 105.279 110.802C105.279 107.922 102.936 105.579 100.057 105.579Z" fill="#191919"/>
<path d="M66.685 49.6445H53.9278C49.4512 49.6445 45.8096 46.0028 45.8096 41.5262V36.8672H51.7854V41.5262C51.7854 42.7075 52.7465 43.6687 53.9278 43.6687H66.685C67.8666 43.6687 68.8277 42.7075 68.8277 41.5262V36.8672H74.8035V41.5262C74.8035 46.0028 71.1616 49.6445 66.685 49.6445Z" fill="#817DDB"/>
<path d="M25.9177 30.3861C35.174 32.3892 47.446 33.4923 60.4733 33.4923C73.5006 33.4923 85.7728 32.3892 95.0291 30.3861C102.576 28.7528 107.402 26.7033 109.612 24.1748C105.862 19.2261 101.373 14.8676 96.3105 11.2635C95.8925 11.1662 95.4653 11.0706 95.0291 10.9762C85.7728 8.97306 73.5008 7.86992 60.4733 7.86992C47.4859 7.86992 35.2493 8.96636 26.0031 10.9577C24.0812 12.3198 23.0649 13.2474 23.0544 13.2532C20.8598 15.0015 18.7886 16.8982 16.8555 18.9278C18.6201 17.9595 21.8076 16.7153 27.5374 15.5195C36.401 13.6696 48.0978 12.6506 60.473 12.6506C72.8483 12.6506 84.5451 13.6696 93.4089 15.5195C104.865 17.9103 106.158 20.4942 106.234 20.6814C106.158 20.8688 104.863 23.4527 93.4084 25.8433C84.5446 27.6932 72.848 28.7119 60.473 28.7119C48.0981 28.7119 36.4015 27.6932 27.5379 25.8433C18.2297 23.9004 15.6305 21.8302 14.9425 21.0325C13.8918 22.2437 12.8878 23.4969 11.9336 24.7891C14.3569 27.0377 18.9915 28.8874 25.9177 30.3861Z" fill="#20396B"/>
<path d="M95.029 10.9762C94.0731 10.7694 93.0832 10.5727 92.0654 10.3853V15.2505C92.5194 15.3383 92.9687 15.4277 93.4088 15.5194C104.864 17.9103 106.158 20.4942 106.234 20.6814C106.158 20.8688 104.863 23.4527 93.4083 25.8433C92.9683 25.9351 92.5191 26.0242 92.0654 26.1122V30.9775C93.0832 30.7901 94.0731 30.5933 95.029 30.3866C105.788 28.0584 111.018 24.8838 111.018 20.6816C111.018 16.4794 105.788 13.3043 95.029 10.9762Z" fill="#20396B"/>
<path d="M34.3008 28.0916L64.5963 8.48444L67.1922 12.4954L36.8967 32.1026L34.3008 28.0916Z" fill="#20396B"/>
<path d="M21.3174 24.3222L45.801 8.47646L48.3969 12.4874L23.9133 28.3332L21.3174 24.3222Z" fill="#20396B"/>
<path d="M73.2356 32.4822C72.4521 32.4822 71.6845 32.0976 71.2268 31.3908C70.5095 30.2826 70.8262 28.8027 71.9343 28.0852L95.6751 12.7151C96.783 11.9978 98.2631 12.3143 98.9807 13.4227C99.698 14.5308 99.3813 16.0107 98.2731 16.7282L74.5324 32.0983C74.131 32.3579 73.6809 32.4822 73.2356 32.4822Z" fill="#20396B"/>
<path d="M54.43 32.4822C53.6464 32.4822 52.8789 32.0976 52.4211 31.3908C51.7038 30.2826 52.0205 28.8027 53.1287 28.0852L81.8647 9.481C82.9726 8.7639 84.4527 9.08014 85.1703 10.1885C85.8876 11.2967 85.5709 12.7765 84.4628 13.4941L55.7267 32.0983C55.3254 32.3579 54.875 32.4822 54.43 32.4822Z" fill="#20396B"/>
</svg>
