<svg width="30" height="30" viewBox="0 0 30 30" fill="none" xmlns="http://www.w3.org/2000/svg">
<path d="M15.1999 8.42253L20.5499 13.7725H6.16992V16.2725H20.3699L15.1999 21.435L16.9674 23.2025L24.3574 15.81V14.0425L16.9699 6.65503L15.2024 8.42253H15.1999Z" fill="#E03535"/>
<path d="M15 30C13.0302 30 11.0796 29.612 9.25975 28.8582C7.43986 28.1044 5.78628 26.9995 4.3934 25.6066C3.00052 24.2137 1.89563 22.5601 1.14181 20.7403C0.387987 18.9204 0 16.9698 0 15C0 13.0302 0.387987 11.0796 1.14181 9.25975C1.89563 7.43986 3.00052 5.78628 4.3934 4.3934C5.78628 3.00052 7.43986 1.89563 9.25975 1.14181C11.0796 0.387986 13.0302 -2.93527e-08 15 0C18.9782 5.92805e-08 22.7936 1.58035 25.6066 4.3934C28.4196 7.20644 30 11.0218 30 15C30 18.9782 28.4196 22.7936 25.6066 25.6066C22.7936 28.4196 18.9782 30 15 30ZM15 27.5C18.3152 27.5 21.4946 26.183 23.8388 23.8388C26.183 21.4946 27.5 18.3152 27.5 15C27.5 11.6848 26.183 8.50537 23.8388 6.16117C21.4946 3.81696 18.3152 2.5 15 2.5C11.6848 2.5 8.50537 3.81696 6.16117 6.16117C3.81696 8.50537 2.5 11.6848 2.5 15C2.5 18.3152 3.81696 21.4946 6.16117 23.8388C8.50537 26.183 11.6848 27.5 15 27.5Z" fill="#E03535"/>
</svg>
