<svg width="26" height="52" viewBox="0 0 26 52" fill="none" xmlns="http://www.w3.org/2000/svg">
<path fill-rule="evenodd" clip-rule="evenodd" d="M19.4852 45.5C19.4852 47.2239 18.7987 48.8772 17.5768 50.0962C16.355 51.3152 14.6978 52 12.9698 52C11.2418 52 9.5846 51.3152 8.36273 50.0962C7.14086 48.8772 6.45442 47.2239 6.45442 45.5C6.45442 43.7761 7.14086 42.1228 8.36273 40.9038C9.5846 39.6848 11.2418 39 12.9698 39C14.6978 39 16.355 39.6848 17.5768 40.9038C18.7987 42.1228 19.4852 43.7761 19.4852 45.5ZM25.2838 16.7668C24.8257 16.3103 24.2047 16.0539 23.5573 16.0539C22.9098 16.0539 22.2888 16.3103 21.8307 16.7668L15.4131 23.1693V2.4375C15.4131 1.79103 15.1556 1.17105 14.6974 0.713927C14.2392 0.256807 13.6178 0 12.9698 0C12.3218 0 11.7003 0.256807 11.2421 0.713927C10.7839 1.17105 10.5265 1.79103 10.5265 2.4375V23.1693L4.10889 16.7668C3.64573 16.3362 3.03313 16.1018 2.40016 16.1129C1.76719 16.1241 1.16326 16.3799 0.715615 16.8265C0.267967 17.2731 0.0115487 17.8756 0.000380652 18.5071C-0.0107874 19.1385 0.224166 19.7497 0.655744 20.2118L11.2432 30.7743L12.9698 32.5L14.6964 30.7775L25.2838 20.215C25.5109 19.9886 25.691 19.7199 25.8139 19.424C25.9368 19.1282 26 18.8111 26 18.4909C26 18.1706 25.9368 17.8536 25.8139 17.5577C25.691 17.2619 25.5109 16.9931 25.2838 16.7668Z" fill="white"/>
</svg>
