<svg width="122" height="122" viewBox="0 0 122 122" fill="none" xmlns="http://www.w3.org/2000/svg">
<path d="M122 61C122 77.7066 115.285 92.847 104.402 103.862C98.25 110.094 90.7656 115.006 82.4098 118.136C79.8926 119.082 77.2932 119.864 74.6292 120.471C70.247 121.472 65.6858 122 61 122C55.6196 122 50.4034 121.303 45.4362 119.996C35.843 117.474 27.1736 112.671 20.0402 106.202C7.7308 95.043 0 78.924 0 61C0 27.3106 27.3106 0 61 0C94.6894 0 122 27.3106 122 61Z" fill="#AD2424"/>
<path d="M108.589 47.5888C108.589 60.6223 103.35 72.4339 94.86 81.0273C90.0605 85.8892 84.2216 89.7215 77.7028 92.1631C75.7391 92.9013 73.7111 93.5111 71.6328 93.9853C68.2144 94.7661 64.6557 95.1779 61.0002 95.1779C56.8026 95.1779 52.7333 94.6341 48.8581 93.6143C41.3739 91.6465 34.6108 87.8996 29.0455 82.8535C19.4423 74.1476 13.4111 61.5723 13.4111 47.5893C13.4111 21.3062 34.7175 0 60.9999 0C87.2824 0 108.589 21.3062 108.589 47.5888Z" fill="#E03535"/>
<path d="M45.4361 56.4636V119.996C35.8429 117.474 27.1735 112.671 20.04 106.202V56.4636H45.4361Z" fill="#191919"/>
<path d="M44.3157 4.23521V22.479C44.3157 28.8728 39.1324 34.0561 32.7386 34.0561C26.3448 34.0561 21.1615 28.8728 21.1615 22.479V4.23521C10.2003 8.78019 2.48926 19.5829 2.48926 32.1882C2.48926 48.8946 16.0325 62.4378 32.7388 62.4378C49.4452 62.4378 62.9884 48.8946 62.9884 32.1882C62.9884 19.5829 55.2774 8.78019 44.3157 4.23521Z" fill="#191919"/>
<path d="M23.8173 109.369V59.7004L20.041 59.6044V106.202" fill="#353535"/>
<path d="M23.8662 59.6718C13.4771 54.8831 6.26554 44.3785 6.26554 32.1882C6.26554 21.0872 12.2476 11.3865 21.1619 6.12454V4.23497C10.2003 8.78019 2.48926 19.5829 2.48926 32.1882C2.48926 45.7891 11.4653 57.2933 23.8166 61.1006L23.8662 59.6718Z" fill="#353535"/>
<path d="M96.4767 42.324H86.3936V96.4746H96.4767V42.324Z" fill="#191919"/>
<path d="M90.0905 42.324H86.3936V96.4746H90.0905V42.324Z" fill="#353535"/>
<path d="M102.453 30.4976L95.108 5.85004H87.7635L80.4189 30.4976L86.3941 43.0698H96.4774L102.453 30.4976Z" fill="#191919"/>
<path d="M104.402 103.862C96.3947 111.971 86.1317 117.847 74.6289 120.471V112.663C74.6289 106.03 80.0069 100.655 86.6371 100.655H96.2327C99.3873 100.655 102.258 101.872 104.402 103.862Z" fill="#FF4F6F"/>
<path d="M94.4177 100.655C87.7849 100.655 82.4095 106.03 82.4095 112.663V118.136C79.8923 119.082 77.2929 119.864 74.6289 120.471V112.663C74.6289 106.03 80.0069 100.655 86.6371 100.655H94.4177Z" fill="#E33958"/>
<path d="M90.091 43.0698L82.7439 30.1938L88.6366 8.03461H95.759L95.108 5.85004H87.7635L80.4189 30.4976L86.3941 43.0698L88.6644 44.4964L90.091 43.0698Z" fill="#353535"/>
<path d="M104.507 101.9H78.3645C76.3019 101.9 74.6299 100.228 74.6299 98.1652C74.6299 96.1026 76.3021 94.4306 78.3645 94.4306H104.507C106.57 94.4306 108.242 96.1029 108.242 98.1652C108.242 100.228 106.57 101.9 104.507 101.9Z" fill="#FF4F6F"/>
<path d="M82.598 98.1652C82.598 96.1026 84.2703 94.4306 86.3326 94.4306H78.3645C76.3019 94.4306 74.6299 96.1029 74.6299 98.1652C74.6299 100.228 76.3021 101.9 78.3645 101.9H86.3326C84.27 101.9 82.598 100.228 82.598 98.1652Z" fill="#E33958"/>
</svg>
