<svg width="60" height="60" viewBox="0 0 60 60" fill="none" xmlns="http://www.w3.org/2000/svg">
<g id="arrow / circle_right">
<path id="coolicon" d="M30 55C16.1992 54.9849 5.01516 43.8009 5 30V29.5C5.27483 15.7614 16.5865 4.81994 30.3267 5.00225C44.0669 5.18456 55.0842 16.4223 54.9945 30.1634C54.9047 43.9045 43.7414 54.9973 30 55ZM30 10C18.9543 10 10 18.9544 10 30C10 41.0457 18.9543 50 30 50C41.0457 50 50 41.0457 50 30C49.9876 18.9595 41.0406 10.0124 30 10ZM30 42.5L26.475 38.975L32.925 32.5H17.5V27.5H32.925L26.475 21.025L30 17.5L42.5 30L30 42.5Z" fill="#E03535"/>
</g>
</svg>
