<svg width="216" height="192" viewBox="0 0 216 192" fill="none" xmlns="http://www.w3.org/2000/svg">
<path opacity="0.4" d="M191.753 96C191.771 102.338 194.299 108.412 198.782 112.893C203.266 117.375 209.341 119.902 215.682 119.921V155.801C216.378 160.675 215.929 165.644 214.371 170.314C212.813 174.985 210.189 179.229 206.706 182.71C203.224 186.191 198.979 188.814 194.306 190.371C189.634 191.929 184.664 192.377 179.788 191.682H36.2121C31.3364 192.377 26.3658 191.929 21.6936 190.371C17.0215 188.814 12.7761 186.191 9.29358 182.71C5.81106 179.229 3.18702 174.985 1.62918 170.314C0.0713372 165.644 -0.377525 160.675 0.318122 155.801V119.921C6.66457 119.921 12.7511 117.4 17.2387 112.914C21.7263 108.428 24.2474 102.344 24.2474 96C24.2474 89.6559 21.7263 83.5716 17.2387 79.0857C12.7511 74.5997 6.66457 72.0795 0.318122 72.0795V36.1988C-0.377525 31.3249 0.0713372 26.3561 1.62918 21.6856C3.18702 17.0152 5.81106 12.7714 9.29358 9.29016C12.7761 5.80892 17.0215 3.18585 21.6936 1.62858C26.3658 0.0713131 31.3364 -0.377387 36.2121 0.318004H179.788C184.664 -0.377387 189.634 0.0713131 194.306 1.62858C198.979 3.18585 203.224 5.80892 206.706 9.29016C210.189 12.7714 212.813 17.0152 214.371 21.6856C215.929 26.3561 216.378 31.3249 215.682 36.1988V72.0795C209.341 72.0984 203.266 74.6247 198.782 79.1066C194.299 83.5884 191.771 89.6617 191.753 96Z" fill="#494949"/>
</svg>
