<svg width="24" height="19" viewBox="0 0 24 19" fill="none" xmlns="http://www.w3.org/2000/svg">
<path d="M20.3178 1.51754C18.7615 0.803343 17.1194 0.293607 15.4323 0.00104193C15.417 -0.00153229 15.4013 0.000690973 15.3873 0.00740609C15.3733 0.0141212 15.3618 0.0249984 15.3543 0.0385419C15.1428 0.413542 14.9088 0.904042 14.7453 1.28804C12.9267 1.01205 11.0768 1.01205 9.25825 1.28804C9.07587 0.860272 8.86954 0.443111 8.64025 0.0385419C8.63256 0.0251467 8.62099 0.0143949 8.60707 0.00770131C8.59314 0.00100778 8.57752 -0.00131379 8.56225 0.00104193C6.87475 0.292042 5.23225 0.802042 3.67675 1.51754C3.66344 1.52262 3.65231 1.53216 3.64525 1.54454C0.534253 6.19304 -0.319247 10.7275 0.0992533 15.205C0.100753 15.226 0.114253 15.247 0.130753 15.2605C1.94234 16.6025 3.96864 17.627 6.12325 18.2905C6.13847 18.2953 6.15481 18.2952 6.16992 18.29C6.18502 18.2849 6.1981 18.2751 6.20725 18.262C6.66925 17.632 7.08025 16.9675 7.43425 16.2685C7.44163 16.2541 7.44416 16.2377 7.44145 16.2218C7.43875 16.2059 7.43096 16.1912 7.41925 16.18C7.4115 16.1727 7.4023 16.1671 7.39225 16.1635C6.74599 15.9152 6.1201 15.6168 5.52025 15.271C5.5035 15.2615 5.49104 15.246 5.48545 15.2275C5.47987 15.2091 5.48159 15.1892 5.49025 15.172C5.49536 15.1609 5.50307 15.1511 5.51275 15.1435C5.63875 15.049 5.76475 14.95 5.88475 14.851C5.89535 14.8425 5.90807 14.837 5.92155 14.8352C5.93502 14.8333 5.94875 14.8352 5.96125 14.8405C9.88975 16.6345 14.1423 16.6345 18.0228 14.8405C18.0357 14.8349 18.05 14.8329 18.064 14.8348C18.078 14.8366 18.0912 14.8423 18.1023 14.851C18.2223 14.95 18.3483 15.049 18.4743 15.1435C18.4845 15.151 18.4927 15.1609 18.4981 15.1723C18.5036 15.1837 18.5061 15.1963 18.5055 15.2089C18.5049 15.2215 18.5012 15.2338 18.4947 15.2447C18.4882 15.2555 18.4791 15.2646 18.4683 15.271C17.8698 15.6199 17.2431 15.918 16.5948 16.162C16.5844 16.1658 16.575 16.1718 16.5672 16.1795C16.5595 16.1873 16.5535 16.1967 16.5498 16.207C16.5463 16.2171 16.5449 16.2277 16.5457 16.2383C16.5464 16.2488 16.5494 16.2591 16.5543 16.2685C16.9143 16.966 17.3268 17.632 17.7798 18.262C17.7889 18.2751 17.802 18.2849 17.8171 18.29C17.8322 18.2952 17.8485 18.2953 17.8638 18.2905C20.022 17.6291 22.0516 16.6044 23.8653 15.2605C23.8743 15.2543 23.8819 15.246 23.8873 15.2364C23.8928 15.2268 23.896 15.2161 23.8968 15.205C24.3978 10.0285 23.0583 5.53154 20.3478 1.54604C20.345 1.53946 20.3409 1.53352 20.3358 1.52861C20.3306 1.5237 20.3245 1.51993 20.3178 1.51754V1.51754ZM8.02075 12.478C6.83725 12.478 5.86375 11.392 5.86375 10.06C5.86375 8.72654 6.81925 7.64054 8.02075 7.64054C9.23125 7.64054 10.1958 8.73554 10.1778 10.06C10.1778 11.392 9.22225 12.478 8.02075 12.478ZM15.9948 12.478C14.8128 12.478 13.8378 11.392 13.8378 10.06C13.8378 8.72654 14.7933 7.64054 15.9948 7.64054C17.2053 7.64054 18.1713 8.73554 18.1518 10.06C18.1518 11.392 17.2053 12.478 15.9948 12.478Z" fill="white"/>
</svg>
