<svg width="221" height="598" viewBox="0 0 221 598" fill="none" xmlns="http://www.w3.org/2000/svg">
<path fill-rule="evenodd" clip-rule="evenodd" d="M25.1011 2.521C22.7331 3.826 20.1571 4.649 19.3771 4.35C17.3631 3.577 15.2001 6.092 12.3661 12.499C9.27011 19.499 9.2761 22.095 12.3941 25.801L14.8801 28.756L11.7691 29.378C10.0581 29.72 7.3641 30 5.7831 30C1.9191 30 1.7981 32.969 5.6581 33.076C8.3111 33.149 8.2851 33.197 4.9341 34.407C0.957103 35.843 0.155109 37.76 0.00810865 46.191C-0.0918913 51.868 0.706103 53.384 3.9081 53.602C4.7331 53.658 7.0961 53.771 9.1581 53.852L12.9081 54L12.9281 67.75C12.9381 75.313 13.6091 87.35 14.4181 94.5C15.2261 101.65 15.8931 107.803 15.8981 108.173C15.9041 108.544 17.0111 110.158 18.3601 111.761C21.6781 115.704 22.8911 123.969 22.9001 142.691C22.9051 151.046 23.3181 158.135 23.8181 158.444C24.3191 158.754 26.3441 161.946 28.3181 165.538C32.6691 173.453 33.2111 180.201 29.8101 184.097C25.9671 188.5 23.7981 194.073 21.3501 205.839C17.6171 223.781 18.2561 232 23.3831 232C25.1481 232 25.9081 232.542 25.9081 233.8C25.9081 236.531 27.9391 238 31.7151 238C34.5681 238 35.0051 238.284 34.4001 239.75C33.6821 241.489 32.2931 246.319 31.1951 250.888C30.6541 253.142 30.8181 253.239 34.1141 252.621L37.6061 251.966L37.2221 259.088C36.9741 263.667 37.2631 266.723 38.0301 267.647C38.9771 268.788 38.7791 269.684 37.0651 272.001C35.8791 273.606 34.9081 275.765 34.9081 276.799C34.9081 278.629 38.5701 281 41.3961 281C43.9671 281 44.1621 283.165 41.8711 286.265C39.9891 288.809 39.7731 289.804 40.6161 292.038C41.2181 293.633 41.2771 295.377 40.7591 296.302C40.2431 297.224 40.2701 298.105 40.8241 298.448C41.3461 298.771 40.2961 302.245 38.4611 306.265C34.0731 315.877 33.1331 320.848 32.5341 337.611C32.0191 352.034 32.4091 353.961 35.8581 354.032C36.7101 354.049 38.5981 355.112 40.0531 356.393L42.6971 358.723L40.4131 368.111C39.1561 373.275 37.1791 380.298 36.0181 383.718C32.5921 393.816 33.1021 398.787 38.6581 409.414L43.4081 418.5L43.4111 433C43.4131 442.19 43.8591 448.498 44.6281 450.226C45.6571 452.541 45.4691 454.091 43.3741 460.507C40.2551 470.062 40.1401 476.232 43.0261 479.118C45.0181 481.11 45.0791 481.663 44.0511 488.368C43.3811 492.739 43.0781 507.31 43.2671 526.007L43.5761 556.514L46.1911 560.657C47.6301 562.935 49.3751 564.989 50.0691 565.22C52.6881 566.093 47.0081 580.187 41.3951 586.744L37.9951 590.716L22.7011 591.432C14.2901 591.826 7.08509 592.46 6.69109 592.841C6.29609 593.223 6.2271 594.504 6.5371 595.69C7.0721 597.735 7.59811 597.832 16.7541 597.573C23.4891 597.383 27.7691 596.726 30.9081 595.4C35.1481 593.61 38.4951 593.504 88.9081 593.572C140.919 593.642 161.907 594.599 164.319 597.011C165.807 598.499 167.908 598.2 167.908 596.5C167.908 595.675 168.583 595 169.408 595C170.233 595 170.908 595.675 170.908 596.5C170.908 598.616 173.882 598.378 174.026 596.25C174.092 595.288 174.031 594.05 173.891 593.5C172.863 589.451 168.504 567.434 166.875 558.06C165.554 550.459 165.222 546.286 165.884 545.624C166.546 544.962 166.338 544.027 165.262 542.839C163.172 540.529 164.659 536.593 169.509 531.599C173.307 527.689 173.592 526.422 171.384 523.27C169.273 520.256 168.116 502.659 169.889 500.523C170.66 499.594 170.95 497.645 170.619 495.608C170.151 492.72 170.564 491.757 173.49 488.921C176.93 485.587 178.108 480.86 175.848 479.463C174.349 478.536 175.831 467.777 177.64 466.454C179.188 465.322 179.198 465.855 177.032 434.59C176.027 420.084 175.189 412.009 173.316 398.801C172.669 394.232 172.729 394.085 175.529 393.462C182.825 391.837 185.044 390.613 188.723 386.185C190.864 383.608 193.16 380.464 193.825 379.197C194.49 377.931 195.572 369.831 196.229 361.197L197.424 345.5L203.123 344.5C206.257 343.95 209.225 343.05 209.717 342.5C210.729 341.371 213.716 326.826 213.722 323C213.724 321.625 213.282 318.403 212.739 315.84C211.789 311.357 211.944 310.807 216.81 301.396C222.774 289.862 223.019 290.552 210.714 284.208C204.995 281.26 201.624 278.799 199.943 276.347C196.523 271.355 193.585 269.559 191.241 271.028C190.233 271.661 187.386 275.513 184.914 279.589C180.565 286.761 178.908 288.439 178.908 285.674C178.908 283.773 174.843 280.222 171.223 278.96C168.386 277.971 168.063 277.397 167.414 272.19C166.676 266.263 164.01 258.181 162.026 255.852C159.832 253.278 156.015 247.486 154.278 244.095C153.318 242.222 150.625 239.522 148.293 238.095C145.961 236.668 143.855 234.776 143.611 233.892C143.368 233.007 141.8 231.677 140.126 230.936C136.775 229.453 133.908 224.487 133.908 220.166C133.908 218.645 133.49 216.972 132.979 216.45C132.41 215.868 132.406 213.619 132.97 210.639C133.475 207.966 133.577 205.274 133.196 204.657C131.937 202.62 131.506 188.339 132.48 180.926L133.081 176.352L142.245 174.16C147.285 172.954 153.04 171.975 155.036 171.984C158.502 171.999 161.941 169.7 160.543 168.302C159.712 167.47 142.495 167.594 136.073 168.477C131.627 169.089 131.129 168.954 130.62 167.005C129.932 164.377 134.341 161.351 147.228 155.609C152.002 153.482 155.908 151.419 155.908 151.026C155.908 150.632 155.038 149.522 153.974 148.56C152.223 146.975 151.772 146.95 149.224 148.296C147.675 149.114 141.246 151.604 134.936 153.83C126.581 156.777 123.117 157.588 122.186 156.816C121.483 156.232 120.908 155.39 120.908 154.943C120.908 154.085 131.137 141.078 134.833 137.237C136.868 135.121 136.882 132.28 134.85 133.536C134.345 133.848 134.181 133.451 134.488 132.653C136.389 127.698 127.902 133.439 111.571 148.155C110.155 149.431 109.025 149.607 106.639 148.923C104.936 148.434 103.206 147.69 102.794 147.267C101.935 146.387 98.9081 126.803 98.9081 122.122C98.9081 118.858 97.2751 118.033 95.1081 120.2C94.1751 121.133 93.9081 121.133 93.9081 120.2C93.9081 119.54 93.2851 119 92.5251 119C90.1731 119 89.9901 124.096 91.9911 133.86C94.6661 146.92 94.6281 147.189 89.8031 149.216C85.7341 150.926 85.6941 150.921 79.9071 147.999C76.4211 146.24 72.6101 143.253 70.3821 140.533C67.5401 137.065 65.9901 136 63.7881 136C58.5951 136 60.1911 139.47 69.9221 149.341C74.8801 154.37 78.7371 159.002 78.4951 159.634C78.2021 160.398 74.6601 160.776 67.9461 160.76C58.2271 160.737 55.2501 161.322 57.5411 162.804C58.2491 163.263 57.9831 164.157 56.7621 165.425C54.9371 167.32 54.9081 167.312 54.8911 164.925C54.8221 155.383 52.5701 143.143 49.0811 133.346C43.9491 118.94 43.1201 115.078 41.4951 98C40.0461 82.773 37.9901 75.346 33.3141 68.457C31.3581 65.574 30.8741 63.75 31.1081 60.144C31.4031 55.609 31.4801 55.513 35.3461 54.889C41.3041 53.928 42.9081 51.263 42.9081 42.323C42.9081 38.223 42.4441 34.001 41.8761 32.941C41.2901 31.845 38.9161 30.527 36.3761 29.888C33.9191 29.269 31.9081 28.573 31.9081 28.341C31.9081 28.109 32.8041 26.7 33.8991 25.21C34.9951 23.719 36.2751 20.426 36.7441 17.891C37.2131 15.356 38.3421 12.218 39.2531 10.918C42.1341 6.804 40.9651 0 37.3771 0C36.7551 0 35.6441 1.125 34.9081 2.5C34.1721 3.875 33.2451 5 32.8471 5C32.4501 5 31.8421 3.875 31.4971 2.5C30.7451 -0.497 30.5791 -0.496 25.1011 2.521ZM33.9221 12.133C32.0961 14.405 30.3161 17.667 29.9681 19.382C29.3621 22.363 29.0721 22.526 23.3711 23.094C16.7811 23.749 14.9081 22.667 14.9081 18.203C14.9081 15.619 19.6041 9.311 21.1741 9.785C21.6941 9.942 22.7061 9.583 23.4241 8.987C24.2861 8.272 24.9411 8.245 25.3511 8.908C25.6931 9.46 26.6331 9.659 27.4401 9.349C28.2471 9.04 28.9081 9.284 28.9081 9.893C28.9081 11.635 31.3831 11.19 33.9151 8.994C37.5621 5.831 37.5661 7.598 33.9221 12.133ZM27.6641 27.25C27.2191 28.606 21.6241 29.489 19.2491 28.578C16.4881 27.518 19.0211 26 23.5501 26C26.7221 26 27.9521 26.374 27.6641 27.25ZM14.1771 32.656C13.5001 32.93 12.1501 32.947 11.1771 32.693C10.2041 32.439 10.7581 32.215 12.4081 32.195C14.0581 32.175 14.8541 32.382 14.1771 32.656ZM26.6581 32.716C25.1461 32.945 22.6701 32.945 21.1581 32.716C19.6461 32.487 20.8831 32.3 23.9081 32.3C26.9331 32.3 28.1701 32.487 26.6581 32.716ZM34.6371 32.604C34.3051 32.936 33.4421 32.972 32.7211 32.683C31.9231 32.364 32.1601 32.127 33.3251 32.079C34.3791 32.036 34.9691 32.272 34.6371 32.604ZM39.0311 41C39.3741 43.475 39.2791 46.224 38.8211 47.109C36.8251 50.967 17.8521 52.826 8.1581 50.112C4.0071 48.951 3.9081 48.823 3.9081 44.653C3.9081 40.295 5.2291 37.662 7.9081 36.681C8.7331 36.378 15.9331 36.214 23.9081 36.316L38.4081 36.5L39.0311 41ZM27.0731 61.75C27.5161 70.667 25.5761 107.154 24.5741 108.75C23.0721 111.144 21.2151 109.972 19.8231 105.75C18.7841 102.6 18.4201 95.485 18.4151 78.252L18.4081 55.003L22.5731 55.002L26.7371 55L27.0731 61.75ZM33.8281 77.37C36.7371 82.078 37.8611 88.941 38.8451 108L39.6961 124.5L44.9251 138.5C49.5471 150.874 50.2491 153.778 50.9731 163.5C51.4241 169.55 51.8191 176.637 51.8501 179.25C51.8931 182.78 52.2931 184 53.4081 184C54.3411 184 54.9081 183.056 54.9081 181.5C54.9081 178.982 56.2691 178.156 57.4011 179.988C58.3461 181.517 54.8301 188.628 47.2901 200.435L40.4081 211.212L39.7471 205.856C39.3841 202.91 38.5731 195.347 37.9461 189.048C36.5111 174.657 34.3831 166.705 30.4731 161.13L27.4081 156.76L27.6681 138.13C27.8101 127.884 27.5641 118.192 27.1211 116.593C26.5271 114.453 26.8451 112.612 28.3291 109.614C30.0241 106.188 30.4081 103.034 30.7461 89.77C30.9661 81.097 31.2811 74 31.4461 74C31.6101 74 32.6821 75.517 33.8281 77.37ZM117.408 151C117.068 151.55 116.029 151.993 115.099 151.985C113.642 151.971 113.615 151.835 114.908 151C116.866 149.734 118.19 149.734 117.408 151ZM109.908 154.076C122.268 156.896 130.218 169.641 125.744 179.461C124.869 181.38 124.863 182.576 125.718 184.259C126.344 185.491 127.041 191.972 127.267 198.66C127.494 205.348 128.013 211.36 128.421 212.022C128.83 212.683 128.615 213.563 127.944 213.978C127.066 214.52 127.012 215.261 127.751 216.616C128.316 217.652 129.212 219.85 129.741 221.5C130.27 223.15 131.001 225.232 131.366 226.127C131.882 227.396 131.233 227.904 128.426 228.431C125.614 228.958 124.465 229.862 123.181 232.553C122.087 234.849 120.848 235.996 119.473 235.988C115.699 235.967 97.7741 231.106 94.5721 229.236C90.5591 226.892 88.6861 222.263 91.1851 220.865C92.1331 220.335 92.9151 219.135 92.9231 218.2C92.9321 217.265 93.3351 215.874 93.8201 215.108C94.5441 213.965 95.2611 214.115 97.8401 215.952C101.084 218.261 105.417 218.109 103.075 215.767C102.433 215.125 101.908 213.79 101.908 212.8C101.908 211.681 101.169 211 99.9551 211C95.1211 211 90.9651 206.974 90.8761 202.203C90.8591 201.266 90.1841 199.626 89.3761 198.559C88.5691 197.491 87.9081 195.576 87.9081 194.302C87.9081 193.029 86.8171 191.038 85.4831 189.879C82.6731 187.435 83.0731 185.484 86.7791 183.564C88.2251 182.814 91.5611 180.303 94.1931 177.984L98.9791 173.768L107.484 177.634C120.147 183.389 120.31 183.608 119.533 193.715C119.141 198.816 118.248 203.077 117.254 204.595C115.889 206.679 115.808 207.722 116.763 210.911C117.393 213.013 117.908 216.637 117.908 218.965C117.908 223.201 120.406 230 121.963 230C123.664 230 123.774 228.205 122.362 223.512C120.67 217.893 120.434 205.754 121.96 202.902C123.533 199.964 124.103 188.44 122.898 183.962C121.749 179.697 120.299 178.602 112.877 176.398C106.734 174.574 101.908 170.62 101.908 167.411C101.908 164.782 101.817 164.714 99.4901 165.607C98.6201 165.941 97.9081 167.04 97.9081 168.051C97.9081 169.061 96.0571 171.375 93.7951 173.194C80.4751 183.902 78.4771 187.183 81.4571 193.462C82.3801 195.408 83.4761 197 83.8921 197C84.3081 197 84.8801 199.059 85.1641 201.576C85.5091 204.637 86.5311 207.041 88.2511 208.836C90.0681 210.733 90.5571 211.949 89.9191 212.982C89.1571 214.215 88.9061 214.159 88.3191 212.628C87.9351 211.629 85.6061 209.349 83.1421 207.56L78.6611 204.309L78.8831 193.405C79.4301 166.541 80.3441 161.257 85.0511 157.742C90.9271 153.356 100.539 151.938 109.908 154.076ZM130.467 160.532C128.245 162.212 126.908 162.416 126.908 161.073C126.908 160.564 127.696 159.941 128.658 159.689C131.928 158.835 132.412 159.061 130.467 160.532ZM75.9081 165.872C75.9081 167.283 74.9231 167.902 71.9081 168.384C69.4831 168.772 67.9081 169.567 67.9081 170.403C67.9081 171.546 62.9621 173.753 62.5401 172.799C62.4671 172.634 61.8461 171.494 61.1581 170.264C59.4771 167.257 59.5501 167.013 62.1581 166.92C63.3951 166.875 66.4331 166.259 68.9081 165.55C75.2531 163.733 75.9081 163.763 75.9081 165.872ZM75.6961 187C75.6741 195.25 75.5061 202 75.3211 202C73.7781 202 70.9081 197.022 70.9081 194.347C70.9081 191.967 70.2921 190.746 68.6581 189.885C65.4141 188.177 64.9401 187.099 64.9231 181.375L64.9081 176.251L70.1581 174.237C73.0461 173.13 75.4821 172.173 75.5721 172.112C75.6621 172.05 75.7181 178.75 75.6961 187ZM135.637 172.604C135.305 172.936 134.442 172.972 133.721 172.683C132.923 172.364 133.16 172.127 134.325 172.079C135.379 172.036 135.969 172.272 135.637 172.604ZM57.9081 174.559C57.9081 175.416 57.4581 175.84 56.9081 175.5C56.3581 175.16 55.9081 174.459 55.9081 173.941C55.9081 173.423 56.3581 173 56.9081 173C57.4581 173 57.9081 173.702 57.9081 174.559ZM129.908 181.059C129.908 182.191 129.478 182.852 128.952 182.527C128.426 182.202 128.249 181.275 128.559 180.468C129.352 178.401 129.908 178.644 129.908 181.059ZM61.9081 185.621C61.9081 186.448 63.0051 189.458 64.3461 192.312C65.6871 195.165 66.9251 199.29 67.0961 201.477C67.3141 204.258 68.0151 205.762 69.4271 206.477C70.5371 207.04 72.4491 208.512 73.6771 209.75C74.9041 210.988 76.6961 212.014 77.6581 212.032C81.8411 212.107 86.0901 218.261 87.4801 226.259C87.8401 228.326 89.0601 231.195 90.1921 232.634C92.6431 235.75 101.271 239.976 105.209 239.99L108.01 240L105.286 243.571C102.179 247.644 97.4361 251.078 87.4081 256.513C76.3431 262.511 75.0751 263.531 62.7421 276.363C52.6211 286.893 50.8331 288.354 49.2421 287.398C48.2331 286.792 47.2541 285.25 47.0651 283.971C46.8771 282.693 46.0271 280.584 45.1761 279.286C43.7391 277.092 43.7871 276.757 45.8681 274.543C47.0991 273.232 48.3291 270.504 48.6021 268.48C49.0871 264.88 49.0361 264.813 46.2531 265.412C43.9031 265.918 43.2141 265.603 42.2921 263.597C41.3121 261.464 41.5881 260.702 44.5601 257.334C48.6571 252.693 55.3921 239.592 54.4581 238.081C53.3211 236.241 50.3041 238.607 46.7331 244.141L43.4081 249.291L43.0861 246.033C42.8681 243.823 42.1441 242.613 40.8361 242.271C38.2931 241.606 38.3841 238.782 41.0241 236.405C44.1241 233.615 48.6921 226.709 49.4591 223.654C50.5121 219.459 48.1341 220.389 40.9081 227C34.2271 233.112 31.5891 234.218 30.4951 231.365C30.0681 230.253 31.4541 228.098 34.8361 224.615C47.0241 212.065 57.8101 195.37 59.4801 186.468C60.1021 183.151 61.9081 182.521 61.9081 185.621ZM32.9081 195.059C32.9081 198.585 33.3021 200 34.2831 200C35.6581 200 36.9081 204.122 36.9081 208.656C36.9081 209.98 37.5841 211.322 38.4111 211.64C39.6861 212.129 39.5721 212.826 37.6631 216.223C34.4411 221.955 29.3201 226.184 26.0581 225.807C23.7171 225.536 23.3721 225.009 23.1021 221.279C22.9341 218.958 23.2741 214.473 23.8581 211.314C25.2191 203.949 30.8911 188.871 32.0341 189.578C32.5151 189.875 32.9081 192.341 32.9081 195.059ZM71.4081 203C71.7481 203.55 71.5491 204 70.9671 204C70.3851 204 69.9081 203.55 69.9081 203C69.9081 202.45 70.1061 202 70.3491 202C70.5921 202 71.0681 202.45 71.4081 203ZM78.9081 208.57C78.9081 208.845 78.0081 208.589 76.9081 208C75.8081 207.411 74.9081 206.705 74.9081 206.43C74.9081 206.155 75.8081 206.411 76.9081 207C78.0081 207.589 78.9081 208.295 78.9081 208.57ZM39.9121 233.496C38.6221 234.869 37.3461 235.772 37.0771 235.502C36.5891 235.015 40.7431 231 41.7351 231C42.0221 231 41.2011 232.123 39.9121 233.496ZM128.908 234.481C128.908 235.979 130.95 236.727 136.408 237.226C140.287 237.58 140.482 240.376 136.658 240.816C131.809 241.374 133.477 243.706 139.158 244.312C148.276 245.284 150.041 245.705 151.618 247.282C153.228 248.891 154.757 259.784 154.854 270.333C154.925 278.019 152.652 277.576 151.797 269.738C151.461 266.658 150.21 262.481 149.015 260.457C147.701 258.23 147.091 255.998 147.47 254.803C148.224 252.429 145.067 248.723 140.777 246.946C137.072 245.411 135.721 246.616 138.563 248.92C139.748 249.881 142.61 254.43 144.922 259.028C148.546 266.237 149.045 267.984 148.536 271.695C147.97 275.825 148.098 276.095 151.692 278.363L155.437 280.728L157.297 293.614C158.32 300.701 159.669 312.864 160.295 320.643L161.432 334.786L155.637 329.765C152.45 327.004 149.426 323.968 148.918 323.019C148.411 322.071 147.312 316.729 146.478 311.149C144.397 297.231 141.95 292.975 135.205 291.542C130.879 290.623 125.102 293.38 124.251 296.77C123.901 298.163 124.131 300.728 124.762 302.472C125.392 304.215 125.902 306.96 125.895 308.571C125.888 310.182 126.639 314.737 127.565 318.693C129.022 324.926 129.057 326.115 127.827 327.6C125.592 330.299 110.802 339.63 106.661 340.955C102.323 342.342 99.9081 345.287 99.9081 349.187C99.9081 351.812 103.292 354.949 104.654 353.587C104.971 353.271 105.72 353.85 106.319 354.874C106.918 355.898 108.207 357.859 109.184 359.232C110.85 361.574 110.866 362.31 109.438 371.114C108.601 376.276 107.914 382.109 107.912 384.076C107.909 386.642 107.17 388.336 105.297 390.076C99.5671 395.395 90.4031 411.328 84.9241 425.5C82.3961 432.039 80.7821 433.959 73.7731 438.761C65.3951 444.503 61.7461 450.269 60.4281 459.853C59.5161 466.482 57.4241 468.964 50.9751 471.067C44.3501 473.226 43.9311 472.402 47.0221 463.286C49.0171 457.4 49.3231 454.511 49.3281 441.5L49.3341 426.5L45.2571 415C43.0151 408.675 40.3971 401.475 39.4401 399C37.9271 395.091 37.8521 393.648 38.8721 388.011C39.5181 384.441 41.4371 378.366 43.1381 374.511C45.3571 369.479 46.4441 365.101 46.9881 359C47.6771 351.27 48.5871 347.181 50.8801 341.5C51.3241 340.4 52.2381 337.475 52.9111 335C54.5121 329.115 59.1651 319.928 64.1831 312.747C66.9711 308.756 70.2261 305.727 74.8051 302.86C82.6091 297.975 83.2511 297.35 88.6721 289.356C90.9631 285.977 99.4111 276.527 107.443 268.356C126.195 249.282 129.705 245.111 127.93 244.013C126.836 243.338 126.908 242.857 128.31 241.455C129.58 240.185 129.742 239.434 128.921 238.614C127.733 237.428 118.795 246.095 107.897 259C104.878 262.575 102.157 265.725 101.851 266C101.544 266.275 98.5611 270.1 95.2221 274.5C91.8821 278.9 84.0621 287.225 77.8441 293C64.1101 305.755 59.4951 311.87 51.8241 327.481C48.5751 334.091 44.2501 341.75 42.2131 344.5L38.5081 349.5L37.1791 345C36.1201 341.414 36.0851 339.078 37.0061 333.5C41.3441 307.241 52.9131 291.865 88.6731 264.837C109.371 249.193 115.235 242.892 110.158 241.754C109.196 241.539 111.163 241.018 114.531 240.598C121.151 239.771 126.908 236.942 126.908 234.515C126.908 233.682 127.358 233 127.908 233C128.458 233 128.908 233.666 128.908 234.481ZM104.908 236C106.918 236.644 107.016 236.806 105.408 236.83C104.308 236.846 102.508 236.473 101.408 236C98.8601 234.905 101.489 234.905 104.908 236ZM146.467 240.555C148.297 242.022 148.265 242.042 145.908 240.92C142.847 239.462 142.28 239 143.55 239C144.087 239 145.399 239.7 146.467 240.555ZM125.908 244.378C125.908 244.585 125.12 245.373 124.158 246.128C122.572 247.371 122.537 247.336 123.78 245.75C125.087 244.084 125.908 243.555 125.908 244.378ZM39.7211 246.75C39.5381 247.713 38.3451 248.648 37.0701 248.83C35.0051 249.124 34.8741 248.933 35.8651 247.08C37.2311 244.527 40.1931 244.274 39.7211 246.75ZM115.9 255.287L109.484 261.5L115.446 254.969C118.725 251.378 121.612 248.582 121.861 248.756C122.111 248.931 119.428 251.869 115.9 255.287ZM134.431 249.962C134.036 250.602 134.401 251.887 135.243 252.818C136.085 253.748 137.101 256.982 137.5 260.005C138.4 266.815 140.598 272.283 142.2 271.694C142.865 271.45 143.227 270.631 143.007 269.875C142.786 269.119 141.805 264.944 140.827 260.598C139.055 252.725 135.933 247.533 134.431 249.962ZM159.38 266C159.778 270.125 160.96 275.47 162.006 277.877C163.052 280.285 163.908 283.295 163.908 284.568C163.908 287.572 165.888 288.792 166.564 286.206C167.028 284.434 167.497 284.318 170.747 285.172C172.761 285.7 175.193 287.05 176.153 288.171C177.813 290.11 177.813 290.353 176.153 293.172C173.555 297.583 164.953 308 163.908 308C163.408 308 162.73 306.313 162.401 304.25C162.072 302.188 161.359 298.543 160.816 296.15C160.101 293 160.154 291.409 161.006 290.381C161.927 289.273 161.825 288.566 160.544 287.15C159.642 286.153 159.192 285.05 159.544 284.698C159.896 284.345 159.698 282.132 159.103 279.779C157.828 274.728 156.698 253.584 157.86 256.5C158.298 257.6 158.982 261.875 159.38 266ZM92.9081 257.378C92.9081 257.586 88.5201 261.039 83.1581 265.051C77.7961 269.064 73.1831 272.616 72.9081 272.945C72.6331 273.275 69.7081 275.785 66.4081 278.522L60.4081 283.5L66.7741 276.236C73.7761 268.244 75.4321 266.906 85.5271 261.077C92.9351 256.8 92.9081 256.814 92.9081 257.378ZM164.719 274.5L164.767 276.5L163.908 274.5C163.435 273.4 163.07 271.15 163.097 269.5L163.145 266.5L163.908 269.5C164.328 271.15 164.693 273.4 164.719 274.5ZM204.5 286.715C208.071 290.091 211.229 292.157 213.461 292.576C215.357 292.932 216.904 293.51 216.899 293.861C216.881 295.034 210.965 304.847 209.866 305.526C209.27 305.894 207.987 305.477 207.016 304.598C205.321 303.064 201.908 302.381 201.908 303.576C201.908 303.892 203.708 307.233 205.908 311C208.116 314.781 209.887 319.115 209.86 320.674C209.834 322.229 208.372 327.1 206.61 331.5C203.41 339.495 203.406 339.5 199.408 339.817C197.208 339.991 195.016 340.518 194.537 340.988C194.057 341.458 193.504 345.141 193.306 349.171C192.511 365.407 192.137 368.744 190.468 374.5C188.294 381.998 186.553 384 182.208 384C177.562 384 173.908 380.278 173.908 375.545C173.908 372.935 173.478 372 172.278 372C170.926 372 170.739 372.806 171.18 376.718C171.587 380.334 172.427 382.074 174.775 384.172L177.838 386.91L175.147 389.026L172.456 391.143L171.679 388.322C171.251 386.77 170.609 380.875 170.251 375.222C169.658 365.852 169.749 365.002 171.282 365.59C172.207 365.945 173.443 367.131 174.028 368.225C174.807 369.68 175.391 369.917 176.201 369.107C176.81 368.498 178.005 367.998 178.858 367.996C179.876 367.994 181.581 365.006 183.827 359.289C185.708 354.502 189.509 346.8 192.274 342.173C197.098 334.103 197.224 333.705 195.395 332.367C194.347 331.6 193.037 331.124 192.485 331.308C191.932 331.492 189.889 335.66 187.944 340.571C184.233 349.943 177.073 363 175.645 363C175.185 363 173.551 362.35 172.013 361.554L169.218 360.109L168.617 345.804C168.286 337.937 167.128 327.14 166.043 321.811L164.072 312.122L168.74 307.261C174.157 301.62 179.908 294.899 179.908 294.209C179.908 293.947 182.472 289.567 185.606 284.475L191.303 275.219L195.145 278.359C197.258 280.087 201.468 283.847 204.5 286.715ZM59.9081 284.378C59.9081 284.585 59.1201 285.373 58.1581 286.128C56.5721 287.371 56.5371 287.336 57.7801 285.75C59.0871 284.084 59.9081 283.555 59.9081 284.378ZM214.825 289.635C216.197 290.836 212.942 289.721 211.349 288.445C209.519 286.978 209.551 286.958 211.908 288.08C213.283 288.735 214.596 289.435 214.825 289.635ZM47.2611 289.838C48.8171 291.557 48.8001 291.788 46.9961 293.421C45.1521 295.089 45.0161 295.071 43.9111 293.005C42.7201 290.78 43.1711 288 44.7221 288C45.2041 288 46.3461 288.827 47.2611 289.838ZM54.8301 289.75C54.1031 290.712 52.4971 292.625 51.2621 294C50.0261 295.375 46.7411 300.284 43.9621 304.91C38.5151 313.974 37.3891 314.814 41.4061 306.817C44.3871 300.882 45.0961 299.856 50.8451 293.165C55.0811 288.234 57.6211 286.058 54.8301 289.75ZM136.235 295.103C138.501 296.135 142.908 302.531 142.908 304.786C142.908 305.344 141.328 304.22 139.396 302.288C135.829 298.721 133.61 298.355 128.57 300.499C125.608 301.76 126.877 296.818 129.908 295.29C132.981 293.74 133.228 293.733 136.235 295.103ZM137.137 303.75C139.55 306.495 142.492 312.882 144.814 320.416C146.404 325.574 148.086 328.551 151.427 332.124C155.513 336.492 155.908 337.36 155.908 341.972C155.908 346.406 155.468 347.489 152.338 350.765L148.769 354.5L149.381 349.5C149.717 346.75 150.496 342.135 151.111 339.244C151.726 336.353 151.924 333.683 151.552 333.311C150.086 331.845 148.715 335.113 147.228 343.613C144.973 356.507 145.897 375.736 149.93 399.861C152.297 414.013 152.859 419.412 152.02 419.931C148.525 422.091 148.911 430.19 152.957 439.6C158.74 453.051 153.886 459.864 133.408 467.043C128.458 468.778 120.151 472.383 114.948 475.055C109.745 477.727 105.303 479.728 105.076 479.502C104.85 479.275 105.191 472.207 105.834 463.795C108.531 428.504 111.051 398.741 112.294 387.5C113.061 380.566 113.252 375.026 112.747 374.376C112.019 373.44 113.824 362.18 116.615 350.25C116.981 348.684 116.686 348 115.643 348C114.698 348 113.719 349.694 112.989 352.591C112.017 356.453 111.601 356.99 110.371 355.969C108.265 354.222 108.54 347.737 110.844 344.808C112.122 343.184 114.593 341.941 118.112 341.154C125.701 339.455 129.465 336.871 130.963 332.332C131.657 330.23 133.279 326.528 134.566 324.106C138.178 317.313 137.315 311.394 132.014 306.596C130.409 305.144 130.179 304.379 131.034 303.348C132.582 301.483 135.301 301.662 137.137 303.75ZM133.519 314.75C134.203 317.292 133.275 322 132.089 322C131.335 322 128.885 311.871 128.93 308.94C128.96 307.018 132.72 311.778 133.519 314.75ZM197.435 310.956C197.11 311.482 198.007 312.674 199.427 313.605C200.848 314.535 202.674 316.58 203.485 318.148C205.18 321.426 206.908 321.892 206.908 319.071C206.908 317.003 200.879 310 199.099 310C198.509 310 197.76 310.43 197.435 310.956ZM193.597 314.644C193.243 314.998 194.293 316.814 195.931 318.679C197.568 320.544 198.908 322.927 198.908 323.976C198.908 326.087 200.413 327.424 201.814 326.558C203.229 325.684 200.842 319.206 198.09 316.455C195.538 313.903 194.683 313.558 193.597 314.644ZM190.681 319.561C190.35 319.892 191.165 321.764 192.493 323.721C193.821 325.678 194.908 328.116 194.908 329.14C194.908 330.19 195.615 331 196.533 331C197.83 331 198.03 330.344 197.521 327.75C196.55 322.789 192.409 317.832 190.681 319.561ZM164.591 333.188C164.272 333.985 164.035 333.748 163.987 332.583C163.944 331.529 164.18 330.939 164.512 331.271C164.844 331.603 164.88 332.466 164.591 333.188ZM126.908 333.515C126.908 334.239 120.619 337.993 119.408 337.991C118.858 337.99 120.208 336.881 122.408 335.526C126.805 332.818 126.908 332.772 126.908 333.515ZM207.993 338.105C207.466 339.422 207.006 339.974 206.971 339.332C206.887 337.771 208.052 334.81 208.553 335.312C208.772 335.531 208.52 336.787 207.993 338.105ZM160.128 344.25C159.176 346.226 159.043 345.951 159.043 342C159.043 338.049 159.176 337.774 160.128 339.75C160.909 341.368 160.909 342.632 160.128 344.25ZM165.591 340.188C165.272 340.985 165.035 340.748 164.987 339.583C164.944 338.529 165.18 337.939 165.512 338.271C165.844 338.603 165.88 339.466 165.591 340.188ZM106.298 346.75C105.42 350.476 104.125 351.728 103.32 349.63C102.932 348.62 103.389 347.126 104.442 345.963C106.794 343.364 107.069 343.48 106.298 346.75ZM44.4831 351.453C43.7731 355.237 42.8401 355.828 41.0251 353.641C40.1631 352.602 40.3961 351.65 42.0171 349.589C44.6261 346.272 45.3521 346.821 44.4831 351.453ZM168.487 389.248C170.919 405.609 172.887 422.034 172.861 425.748L172.815 432.5L170.437 428C166.394 420.35 162.698 416.667 159.064 416.667C155.316 416.667 155.811 418.129 152.397 397C149.644 379.964 148.056 359 149.518 359C150.022 359 152.165 362.901 154.281 367.669C158.488 377.148 159.788 385.156 158.107 391.242C157.022 395.17 158.095 397.213 160.158 395.15C161.979 393.329 162.294 379.042 160.62 374.239C159.803 371.896 159.533 369.731 160.021 369.43C162.587 367.844 160.024 359.935 156.298 357.941C152.965 356.157 153.255 355.036 158.143 350.82L162.408 347.14L163.237 353.32C163.693 356.719 166.055 372.886 168.487 389.248ZM186.6 362.391C185.549 373.65 181.973 379.178 178.042 375.621C175.861 373.648 174.908 373.564 174.908 375.345C174.908 377.453 178.308 380 181.122 380C184.371 380 186.474 376.857 188.489 368.989C190.155 362.488 190.074 356.872 188.306 356.293C187.618 356.068 186.977 358.359 186.6 362.391ZM87.1531 364.696C79.7811 381.991 67.2191 426.645 69.1761 428.601C70.2981 429.723 71.7531 427.985 72.4091 424.739C75.5621 409.155 80.4881 391.901 87.1321 373.171C89.7421 365.813 90.8091 361.501 90.1751 360.867C89.5421 360.234 88.4831 361.576 87.1531 364.696ZM157.908 365.67C157.908 368.006 156.196 366.275 155.021 362.752L153.937 359.5L155.923 361.861C157.015 363.159 157.908 364.873 157.908 365.67ZM103.339 398.813L99.5611 402.5L102.959 397.673C104.828 395.019 106.528 393.359 106.737 393.986C106.945 394.612 105.416 396.784 103.339 398.813ZM103.973 441.719C102.36 470.8 101.382 482.214 100.337 484.154C97.2021 489.977 98.9031 492.321 108.509 495.418C111.315 496.322 114.423 497.656 115.417 498.383C117.1 499.614 116.928 500.023 112.873 504.422C107.458 510.297 102.752 513.014 91.9081 516.524C76.2631 521.589 74.9611 522.616 68.6151 534.888C64.4811 542.881 53.4621 558 51.7701 558C51.2961 558 50.9081 557.155 50.9081 556.122C50.9081 555.089 50.2591 552.691 49.4661 550.794C48.0601 547.428 48.1001 547.277 51.0931 544.65C54.1361 541.981 54.1561 541.895 53.4861 534.729C52.5791 525.034 50.2371 511.611 48.4031 505.591C46.3291 498.781 46.4961 491.823 48.8311 487.807C49.8881 485.988 51.0621 482.475 51.4381 480C52.0611 475.905 52.6171 475.185 57.6171 472C66.5811 466.291 75.9911 453.982 82.2511 439.778C83.6381 436.632 86.0841 432.132 87.6861 429.778C89.2881 427.425 92.5221 421.781 94.8721 417.237C99.5871 408.117 104.746 400.504 105.618 401.376C105.927 401.686 105.187 419.84 103.973 441.719ZM165.387 425.534C172.976 436.968 173.425 438.733 173.256 456.5C173.172 465.3 172.715 473.504 172.24 474.732C171.384 476.947 171.354 476.95 168.337 475.115C166.13 473.772 164.422 471.182 162.102 465.656C159.349 459.097 158.903 456.834 158.87 449.273C158.85 444.448 158.265 435.895 157.571 430.266C156.701 423.21 156.635 419.923 157.359 419.679C159.781 418.863 162.064 420.528 165.387 425.534ZM154.678 433.5C154.402 436.166 154.242 435.965 153.246 431.692C152.63 429.047 152.389 425.897 152.711 424.692C153.189 422.898 153.449 423.226 154.142 426.5C154.608 428.7 154.849 431.85 154.678 433.5ZM46.6241 443.75C46.3951 445.262 46.2081 444.025 46.2081 441C46.2081 437.975 46.3951 436.738 46.6241 438.25C46.8531 439.762 46.8531 442.238 46.6241 443.75ZM88.4041 437.25C86.3601 443.044 80.2261 473.683 80.9611 474.433C81.4631 474.947 82.0871 475.154 82.3471 474.895C83.0441 474.197 90.9081 440.291 90.9081 437.979C90.9081 435.797 89.1021 435.271 88.4041 437.25ZM75.4511 446.624C71.1201 454.502 63.5681 464.48 63.0691 462.983C62.3681 460.881 65.1361 452.079 67.5171 448.838C69.8801 445.62 78.0221 438.929 78.7761 439.584C78.9791 439.759 77.4821 442.928 75.4511 446.624ZM157.796 463.021C158.459 465.232 158.716 467.502 158.368 468.064C158.02 468.627 158.18 469.63 158.722 470.294C159.348 471.059 159.399 474.426 158.862 479.5C158.397 483.9 157.992 492.045 157.962 497.601C157.932 503.156 157.406 509.142 156.792 510.903C155.888 513.497 156.01 514.978 157.434 518.707C158.4 521.238 159.523 527.177 159.927 531.905C160.728 541.264 162.32 551.005 167.021 575.33C168.704 584.037 169.882 591.359 169.64 591.601C169.398 591.843 166.925 591.554 164.146 590.958L159.091 589.874L158.024 583.687C154.936 565.796 153.751 554.284 153.849 543.128C153.937 533.067 153.67 530.546 152.42 529.628C151.134 528.684 150.778 524.14 150.235 501.75C149.717 480.386 149.317 475 148.247 475C147.182 475 146.908 478.388 146.908 491.558C146.908 500.666 146.376 511.353 145.726 515.308C144.056 525.468 144.004 561.185 145.658 561.744C146.626 562.071 146.908 558.269 146.908 544.883C146.908 523.221 148.566 523.305 149.524 545.016C149.9 553.532 150.517 560.725 150.895 561C151.273 561.275 152.329 566.379 153.241 572.343L154.899 583.186L152.654 585.06C147.796 589.112 146.55 586.911 143.847 569.5C141.88 556.826 141.51 550.547 141.464 529C141.429 513.057 141.033 503.313 140.408 503C139.773 502.683 139.225 508.159 138.908 518L138.408 533.5L137.408 525.5C135.966 513.962 136.179 490.02 137.821 479.125L139.234 469.749L143.821 466.93C146.344 465.38 149.943 462.961 151.819 461.556C153.695 460.15 155.536 459 155.911 459C156.285 459 157.133 460.809 157.796 463.021ZM73.6201 460.663C73.3381 461.123 71.8861 467.35 70.3941 474.5C68.9021 481.65 65.9321 494.611 63.7941 503.303C61.6571 511.994 59.9081 519.307 59.9081 519.553C59.9081 519.799 60.5341 520 61.2981 520C62.7491 520 64.7101 513.603 69.2711 494C74.0841 473.314 76.1081 461.8 75.1071 460.799C74.5721 460.264 73.9031 460.202 73.6201 460.663ZM128.358 472.888C127.836 473.376 122.12 477.189 115.658 481.361C106.416 487.326 103.908 488.557 103.908 487.128C103.908 484.502 106.19 482.813 117.408 477.135C127.015 472.273 130.435 470.946 128.358 472.888ZM134.758 478.671C132.6 488.17 133.103 518.502 135.726 537C136.935 545.525 138.358 554.75 138.89 557.5C140.272 564.654 142.908 581.705 142.908 583.489C142.908 584.587 141.806 585 138.876 585C136.658 585 133.21 585.683 131.214 586.517L127.584 588.033L128.237 549.267C128.597 527.945 129.188 502.589 129.551 492.92C130.211 475.342 130.211 475.34 132.809 473.831C134.239 473.001 135.56 472.438 135.745 472.581C135.931 472.724 135.487 475.465 134.758 478.671ZM166.012 489.704C165.825 497.888 165.381 500.923 164.181 502.25C163.311 503.212 162.218 504 161.753 504C160.746 504 160.651 493.345 161.561 482.581L162.213 474.861L164.237 476.884C166.053 478.701 166.235 480.01 166.012 489.704ZM48.9081 477.441C48.9081 478.496 46.9891 478.94 46.4181 478.016C46.0731 477.457 46.4921 477 47.3491 477C48.2061 477 48.9081 477.198 48.9081 477.441ZM125.972 513.144C125.391 532.04 124.913 556.275 124.911 567L124.906 586.5L122.834 582.313C120.281 577.155 117.504 576.349 109.481 578.439C103.334 580.04 100.908 581.463 100.908 583.467C100.908 584.14 100.073 585.446 99.0511 586.37C96.1851 588.964 94.7991 586.43 95.0871 579.124C95.2711 574.481 94.9411 572.726 93.7061 571.764C92.4451 570.781 91.6161 565.942 89.9771 550C88.8181 538.725 87.6491 528.122 87.3791 526.439C86.9141 523.539 87.1921 523.238 92.6481 520.748C113.606 511.18 117.753 509.011 120.658 506.102C123.851 502.903 124.597 500.588 123.143 498.39C122.283 497.09 116.498 494 114.926 494C114.331 494 112.171 493.3 110.126 492.444L106.408 490.888L116.348 484.467C121.815 480.936 126.455 478.213 126.659 478.417C126.863 478.621 126.554 494.248 125.972 513.144ZM171.408 480C171.748 480.55 171.549 481 170.967 481C170.385 481 169.908 480.55 169.908 480C169.908 479.45 170.106 479 170.349 479C170.592 479 171.068 479.45 171.408 480ZM170.893 487.25C170.901 487.663 170.458 488 169.908 488C169.358 488 168.915 486.988 168.923 485.75C168.936 483.931 169.124 483.787 169.908 485C170.441 485.825 170.884 486.837 170.893 487.25ZM118.982 503.278L116.667 505.5L118.423 502.719C119.389 501.189 120.43 500.189 120.738 500.497C121.045 500.804 120.255 502.056 118.982 503.278ZM166.373 513.268L167.082 521.036L164.613 519.911C161.043 518.285 160.149 510.494 163.161 507.254C164.31 506.019 165.343 505.119 165.457 505.254C165.571 505.389 165.984 508.996 166.373 513.268ZM48.7541 521.5C51.1521 537.132 51.2101 540.417 49.1201 542.308C47.2411 544.009 47.1701 543.928 46.5481 539.389C45.5921 532.412 45.8141 511.228 46.8241 513C47.2951 513.825 48.1631 517.65 48.7541 521.5ZM165.408 526C166.149 528.334 165.191 532 163.841 532C163.328 532 162.908 530.912 162.908 529.582C162.908 528.252 162.635 526.452 162.301 525.582C161.909 524.562 162.241 524 163.234 524C164.08 524 165.059 524.9 165.408 526ZM84.7561 537.25C84.7541 549.594 83.5271 561.628 81.4441 569.75C80.5951 573.062 80.4571 575.221 81.0701 575.6C82.6741 576.591 83.1781 575.397 85.4461 565.234L87.6191 555.5L88.3471 563.228C89.0121 570.288 88.8521 571.425 86.4991 576.399C85.0831 579.393 82.6831 582.82 81.1661 584.016L78.4081 586.189L78.0741 577.845C77.8911 573.255 78.2781 565.768 78.9341 561.207C80.2271 552.225 79.5971 543.548 77.3381 539.218C74.9791 534.695 75.5361 531.438 79.1581 528.584C84.4801 524.389 84.7581 524.82 84.7561 537.25ZM73.3121 538.442C73.6011 540.035 74.1301 551.545 74.4871 564.019C75.2141 589.367 75.4211 588.603 68.2791 586.946C66.1501 586.452 62.9461 586.037 61.1581 586.024C59.3701 586.011 57.9091 585.663 57.9091 585.25C57.9101 584.837 58.5851 580.675 59.4081 576C60.2311 571.325 60.9061 564.981 60.9071 561.902C60.9081 557.196 61.5431 555.203 64.8941 549.402C67.0871 545.606 69.6731 540.849 70.6421 538.831C71.6111 536.813 72.4901 535.248 72.5951 535.354C72.7001 535.459 73.0231 536.849 73.3121 538.442ZM69.8641 550.25C69.8401 554.801 69.1741 560.294 68.3791 562.5C66.5981 567.444 66.5331 569.292 68.1581 568.751C72.5131 567.302 75.0131 542 70.8011 542C70.3101 542 69.8881 545.712 69.8641 550.25ZM57.5121 566.75C55.6211 585.737 53.7361 590 47.2321 590H43.9341L49.0081 582.447C51.9541 578.062 53.8391 574.263 53.5041 573.389C52.3761 570.451 55.6271 560 57.6691 560C57.9521 560 57.8821 563.038 57.5121 566.75ZM101.158 566.713C98.3861 566.975 96.9081 567.599 96.9081 568.507C96.9081 569.627 98.9071 569.833 107.158 569.562C119.125 569.168 118.572 569.247 117.358 568.114C116.16 566.997 106.758 566.184 101.158 566.713ZM102.158 572.119C99.9081 572.769 98.9081 573.664 98.9081 575.029C98.9081 577.426 100.181 577.522 103.459 575.374C105.746 573.876 111.848 573.76 116.783 575.121C117.539 575.329 118.363 574.94 118.614 574.256C119.647 571.441 109.203 570.085 102.158 572.119ZM90.8341 587.75C90.9031 589.854 90.5041 589.998 84.6581 589.968C78.9331 589.939 78.5761 589.814 80.4081 588.48C84.5351 585.475 87.9911 581.522 88.6511 579.053C89.2501 576.812 89.4211 577.05 90.0471 581C90.4391 583.475 90.7931 586.513 90.8341 587.75ZM119.004 581.616C119.742 582.505 120.869 584.755 121.509 586.616L122.672 590H111.764H100.857L102.316 587.177C103.119 585.625 104.515 583.741 105.418 582.991C106.809 581.837 107.197 581.848 107.951 583.064C108.69 584.255 109.226 584.117 111.097 582.25C113.744 579.609 117.115 579.339 119.004 581.616ZM143.908 589.5C143.908 590.703 142.472 590.984 136.658 590.919C129.694 590.841 129.526 590.783 132.408 589.464C136.635 587.528 143.908 587.551 143.908 589.5ZM64.1721 589.704C62.9421 589.941 60.6921 589.947 59.1721 589.718C57.6521 589.488 58.6581 589.294 61.4081 589.286C64.1581 589.279 65.4021 589.467 64.1721 589.704ZM152.818 590.146C153.403 589.199 153.902 589.288 154.924 590.519C156.126 591.968 155.818 592.1 151.913 591.816C149.521 591.642 147.376 590.929 147.146 590.231C146.812 589.216 147.262 589.204 149.39 590.174C151.489 591.13 152.213 591.124 152.818 590.146ZM179.381 594.044C178.293 595.803 180.983 598 184.225 598H187.297L183.908 595.5C179.997 592.615 180.22 592.686 179.381 594.044Z" fill="white"/>
</svg>
