<svg width="127" height="384" viewBox="0 0 127 384" fill="none" xmlns="http://www.w3.org/2000/svg">
<path d="M50.459 26.8797L50.1541 26.4835L49.9274 26.6579L49.9628 26.9417C50.0142 27.3524 50.0555 28.5432 50.0939 30.1702C50.1171 31.1554 50.139 32.2846 50.162 33.4706C50.1767 34.2252 50.1918 35.0027 50.2079 35.7808C50.2494 37.7789 50.2979 39.7779 50.3638 41.3822C50.3968 42.184 50.4342 42.8913 50.4777 43.4525C50.5199 43.9977 50.5705 44.448 50.6396 44.7071C50.8798 45.6075 51.3811 46.5426 51.8529 47.3476C52.0096 47.6149 52.1605 47.8641 52.3 48.0946C52.6002 48.5905 52.8479 48.9997 52.9886 49.3164L52.9886 49.3165C53.236 49.8729 54.1248 51.2674 55.1972 52.6183C55.7385 53.3002 56.3384 53.9862 56.9429 54.5619C57.5401 55.1308 58.1732 55.6227 58.7823 55.8792C59.8754 56.3394 61.3899 56.8073 63.272 56.7197C65.1573 56.632 67.3749 55.9888 69.877 54.2828C72.2957 52.6337 74.2958 51.267 75.7735 49.488C77.2144 47.7533 78.1412 45.6526 78.5621 42.5703C78.6416 42.5517 78.7313 42.5286 78.8298 42.4999C79.2216 42.3858 79.7549 42.1824 80.3381 41.8235C81.5128 41.1005 82.8624 39.7631 83.6752 37.3246C84.0772 36.1186 84.2303 35.0507 84.1752 34.1728C84.1207 33.3046 83.8574 32.5668 83.3643 32.1016C82.8437 31.6106 82.1465 31.4979 81.4332 31.7481C80.8272 31.9606 80.2103 32.43 79.6153 33.1342C79.5109 33.0757 79.3962 32.9946 79.2942 32.885C79.0625 32.6361 78.8024 32.1428 79.14 31.1301L79.14 31.1301C79.3542 30.4876 79.3757 29.9577 79.1565 29.5084C78.949 29.083 78.5668 28.8307 78.2704 28.6421C78.2304 28.6166 78.1909 28.5917 78.1521 28.5673C77.8747 28.3924 77.6283 28.237 77.4055 28.0092C77.1664 27.7646 76.9496 27.4269 76.8315 26.8836C76.5678 25.6704 76.5391 24.3353 76.5798 23.2897C76.6 22.7698 76.6371 22.3277 76.6691 22.0164C76.6851 21.8609 76.6997 21.7383 76.7103 21.6553C76.7155 21.6139 76.7198 21.5823 76.7226 21.5615L76.7259 21.5385L76.7266 21.5332L76.7268 21.5322L76.7268 21.5322L76.7268 21.5321L76.7268 21.5321L76.8191 20.909L76.1911 20.9607L76.2322 21.459C76.1911 20.9607 76.1911 20.9607 76.191 20.9607L76.1906 20.9607L76.1893 20.9608L76.184 20.9613L76.1634 20.963L76.0828 20.9698C76.0119 20.9758 75.9072 20.9847 75.7716 20.9965C75.5005 21.0201 75.1059 21.0552 74.6114 21.1011C73.6226 21.1929 72.2338 21.3279 70.6338 21.5011C67.4363 21.8471 63.385 22.3463 59.9936 22.9578L59.9936 22.9578C56.5795 23.5738 54.1343 24.4435 52.5346 25.1656C51.7349 25.5266 51.147 25.8505 50.7553 26.087C50.5595 26.2052 50.4128 26.3016 50.3132 26.3698C50.2634 26.4039 50.2255 26.4309 50.199 26.4501C50.1858 26.4597 50.1755 26.4674 50.168 26.4729L50.1589 26.4798L50.156 26.482L50.1549 26.4828L50.1545 26.4832C50.1543 26.4833 50.1541 26.4835 50.459 26.8797Z" fill="#171717" stroke="white"/>
<path d="M77.1177 21.3491L77.1248 20.8492L76.6177 20.8419V21.3491C76.6177 21.5112 76.5895 21.7831 76.5509 22.1565C76.538 22.2804 76.524 22.4155 76.5095 22.5614C76.4539 23.1219 76.3965 23.7987 76.3965 24.4741C76.3965 25.144 76.4525 25.8456 76.6406 26.4454C76.8285 27.0443 77.1736 27.6161 77.8022 27.891C78.7042 28.2856 79.2309 28.5781 79.4905 28.8794C79.6043 29.0113 79.6548 29.133 79.6667 29.2664C79.6796 29.41 79.6511 29.6095 79.532 29.8952L79.532 29.8953C79.2225 30.6383 79.1602 31.3202 79.1758 31.8178C79.1836 32.0668 79.2109 32.2712 79.2371 32.4164C79.2503 32.4892 79.2632 32.5474 79.2734 32.5893C79.2785 32.6103 79.2829 32.6272 79.2864 32.6398L79.2908 32.6556L79.2924 32.6611L79.293 32.6632L79.2932 32.664L79.2934 32.6645C79.2934 32.6646 79.2935 32.6648 79.7724 32.5211L79.2935 32.6648L79.6025 33.6946L80.1904 32.7955L80.1905 32.7953L80.1905 32.7952L80.1907 32.795L80.1909 32.7948L80.1929 32.7918L80.2052 32.7737C80.2168 32.7569 80.235 32.7311 80.2594 32.6981C80.3082 32.6318 80.3811 32.5375 80.4743 32.4294C80.6632 32.2102 80.9236 31.949 81.225 31.748C81.5283 31.5458 81.8388 31.4272 82.1406 31.4343C82.4259 31.441 82.7751 31.5615 83.1699 31.9795L83.6854 32.5254L83.9903 31.8393L83.5334 31.6362C83.9903 31.8393 83.9904 31.8392 83.9904 31.8391L83.9905 31.8388L83.9909 31.838L83.9921 31.8352L83.9965 31.8253L84.0123 31.7888C84.026 31.7572 84.0457 31.711 84.0705 31.6516C84.12 31.5329 84.19 31.3609 84.2731 31.1454C84.439 30.7146 84.6577 30.1078 84.8696 29.4017C85.2895 28.002 85.6979 26.1619 85.5808 24.5212C85.5087 23.5113 84.8211 22.8029 83.9981 22.3181C83.1727 21.8319 82.1229 21.5141 81.1203 21.3023C80.1106 21.089 79.1131 20.9761 78.3712 20.9164C77.9993 20.8864 77.6897 20.8697 77.4722 20.8604C77.3634 20.8557 77.2776 20.8529 77.2185 20.8513L77.1503 20.8496L77.132 20.8493L77.127 20.8492L77.1256 20.8492L77.1251 20.8492C77.125 20.8492 77.1248 20.8492 77.1177 21.3491Z" fill="#171717" stroke="white"/>
<path d="M49.7704 32.4679L50.3502 32.4964L50.2925 31.9187L49.7679 26.6725C49.8524 26.6153 49.9647 26.5426 50.1078 26.4566C50.5149 26.2121 51.1713 25.8595 52.1471 25.4462C54.0989 24.6194 57.3261 23.5502 62.3853 22.6153C67.4721 21.6753 73.1509 20.8274 77.6564 20.9503C79.9129 21.0119 81.8262 21.3164 83.213 21.9417C84.5803 22.5581 85.3925 23.4611 85.5821 24.7411L85.7029 25.5565L86.3702 25.0727L86.0767 24.6679C86.3702 25.0727 86.3703 25.0726 86.3705 25.0725L86.3708 25.0723L86.3717 25.0716L86.3748 25.0693L86.3857 25.0613L86.4257 25.0317C86.446 25.0165 86.4718 24.9971 86.5024 24.9738C86.5235 24.9577 86.5469 24.9398 86.5726 24.92C86.6981 24.8231 86.8764 24.6821 87.09 24.5039C87.5167 24.1481 88.0881 23.6406 88.6648 23.0355C89.24 22.4318 89.83 21.7209 90.2859 20.9575C90.7395 20.1978 91.0796 19.354 91.1116 18.4918C91.1391 17.748 91.1028 17.0865 90.8354 16.6019C90.5267 16.0424 89.9856 15.8274 89.3309 15.8028C88.7038 15.7793 87.8773 15.9229 86.8278 16.1663C85.9729 16.3646 84.9323 16.6388 83.6801 16.9687C83.5202 17.0108 83.3568 17.0539 83.19 17.0978C83.1717 17.0458 83.1518 16.9897 83.1304 16.9296C82.9924 16.5419 82.7899 15.9873 82.5315 15.3173C82.015 13.9781 81.2732 12.174 80.3734 10.3187C79.4751 8.46634 78.4119 6.54761 77.2497 4.98744C76.1014 3.44595 74.7973 2.17239 73.3935 1.73567C68.2596 0.138461 63.3764 1.50865 61.2364 2.29693C60.8127 2.45301 60.3563 2.45998 59.7694 2.4392C59.7065 2.43697 59.6421 2.43442 59.5764 2.43182C59.0505 2.41103 58.4374 2.38679 57.7759 2.4937C56.2328 2.74314 54.5237 3.68012 52.4834 6.57069C50.4166 9.49864 49.4936 13.753 49.077 17.211C48.8673 18.9513 48.7836 20.5122 48.7521 21.6383C48.7364 22.2016 48.7338 22.6568 48.7351 22.972C48.7351 22.9841 48.7352 22.9959 48.7353 23.0076C48.5299 23.0322 48.2619 23.0647 47.9474 23.1039C47.197 23.1975 46.1809 23.3293 45.1191 23.482C44.0582 23.6345 42.9471 23.8086 42.0083 23.9869C41.0935 24.1607 40.2766 24.3497 39.8511 24.546C39.4516 24.7303 39.2947 25.1041 39.2892 25.4687C39.2841 25.8078 39.4015 26.1786 39.5758 26.5394C39.9296 27.272 40.6052 28.1406 41.5208 28.9775C43.3567 30.6555 46.2559 32.295 49.7704 32.4679Z" fill="#171717" stroke="white"/>
<path d="M54.7594 51.8421L54.7594 51.842L54.7593 51.8419L54.7592 51.8418L53.8601 50.3536L53.8315 52.0924L53.7208 58.84L53.7188 58.9612L53.7725 59.0699L54.2207 58.8482C53.7725 59.0699 53.7726 59.07 53.7726 59.0701L53.7728 59.0705L53.7736 59.0721L53.7766 59.0781L53.7879 59.1009L53.8319 59.1885C53.8703 59.265 53.9269 59.3768 53.9998 59.519C54.1455 59.8033 54.3566 60.2092 54.6184 60.6972C55.1416 61.6723 55.8693 62.9782 56.6853 64.2964C57.4995 65.6116 58.4104 66.9536 59.3008 67.9932C59.7456 68.5127 60.196 68.9693 60.6365 69.3108C61.0689 69.646 61.5372 69.9064 62.0147 69.9637C62.4723 70.0186 63.0296 69.907 63.6159 69.7086C64.2153 69.5058 64.8985 69.1936 65.6289 68.7947C67.0907 67.9966 68.7779 66.832 70.4178 65.4373C73.6747 62.6676 76.8543 58.8969 77.6081 55.1867L77.619 55.1331L77.618 55.0784L77.5073 48.7734L77.4844 47.4693L76.6297 48.4545L76.6297 48.4546L76.6296 48.4547L76.6288 48.4556L76.6251 48.4599L76.6091 48.4781C76.5946 48.4945 76.5727 48.5193 76.5435 48.5519C76.4853 48.617 76.3982 48.7133 76.2844 48.8362C76.0568 49.082 75.7228 49.434 75.2995 49.8556C74.4522 50.6994 73.2508 51.8187 71.833 52.923C68.9678 55.1546 65.3363 57.2306 61.9948 57.0217L61.9854 57.0211L61.9761 57.0209C59.9565 56.9703 58.1652 55.7252 56.8402 54.4138C56.1853 53.7656 55.6626 53.1192 55.3036 52.6344C55.1245 52.3924 54.9868 52.1918 54.8947 52.0528C54.8487 51.9833 54.814 51.9293 54.7913 51.8933L54.7662 51.8532L54.7605 51.8439L54.7594 51.8421Z" fill="#171717" stroke="white"/>
<path d="M53.2301 58.4012L52.4032 56.7626L52.2847 58.5942L52.7837 58.6265C52.2847 58.5942 52.2847 58.5943 52.2847 58.5944L52.2846 58.5951L52.2845 58.5978L52.2838 58.6082L52.2812 58.649L52.2714 58.8076C52.2629 58.9464 52.2507 59.1501 52.2359 59.4098C52.2062 59.9293 52.1659 60.6733 52.1235 61.5722C52.0386 63.3695 51.9451 65.7882 51.9104 68.2706C51.8758 70.7506 51.8997 73.3048 52.0517 75.3695C52.1276 76.4006 52.2363 77.3232 52.3895 78.0588C52.466 78.4266 52.5559 78.7585 52.663 79.0389C52.7675 79.3127 52.9015 79.5723 53.0839 79.7655L53.4563 80.1598L53.8191 79.7567L61.7834 70.9075L62.5807 70.0216L61.4239 70.072C61.4208 70.0713 61.4171 70.0704 61.4127 70.0693C61.3752 70.0599 61.2899 70.033 61.1546 69.9608C60.882 69.8153 60.4158 69.491 59.7427 68.778C58.394 67.3491 56.2625 64.4111 53.2301 58.4012Z" fill="#171717" stroke="white"/>
<path d="M64.1973 69.5616L63.4671 69.8788L64.0699 70.3988L75.3526 80.1329L75.8768 80.5852L76.1413 79.9453L75.6792 79.7543C76.1413 79.9453 76.1414 79.9452 76.1414 79.9451L76.1417 79.9444L76.1427 79.942L76.1465 79.9327L76.1614 79.8965L76.219 79.7558C76.2692 79.6325 76.3426 79.4516 76.4356 79.2201C76.6214 78.757 76.8854 78.0917 77.1983 77.2813C77.8238 75.6611 78.6458 73.459 79.4301 71.134C80.2136 68.8112 80.963 66.3554 81.4405 64.2308C81.6791 63.1689 81.8521 62.1792 81.9259 61.3242C81.9986 60.4814 81.9798 59.7196 81.7978 59.1405C81.1682 57.1374 80.3288 55.9071 79.6213 55.1696C79.2684 54.8017 78.9513 54.5595 78.7146 54.4063C78.5963 54.3297 78.4984 54.2756 78.4264 54.2392C78.3904 54.221 78.3609 54.2072 78.3386 54.1973C78.3275 54.1924 78.3181 54.1884 78.3107 54.1853L78.3009 54.1813L78.2971 54.1797L78.2955 54.1791L78.2947 54.1788C78.2944 54.1787 78.294 54.1785 78.1128 54.6445L78.294 54.1785L77.6295 53.9201L77.6129 54.6319L77.6129 54.632L77.6129 54.6323L77.6129 54.6329L77.6129 54.6343L77.6122 54.6492C77.6116 54.6636 77.6104 54.6867 77.6082 54.7183C77.6038 54.7815 77.5956 54.8783 77.5804 55.0055C77.5501 55.26 77.4918 55.6359 77.3807 56.1079C77.1584 57.0519 76.7246 58.3797 75.8791 59.8896C74.1921 62.902 70.8479 66.6724 64.1973 69.5616Z" fill="#171717" stroke="white"/>
<path d="M59.59 73.458L59.3626 73.7268L59.5384 74.0304C59.5384 74.0304 59.5386 74.0307 59.5386 74.0307C59.5386 74.0308 59.5387 74.0309 59.5388 74.031C59.5388 74.0311 59.5387 74.031 59.5388 74.0311C59.5389 74.0312 59.5389 74.0313 59.539 74.0314L59.5434 74.0393C59.5478 74.0472 59.5549 74.0604 59.5645 74.0786C59.5838 74.1151 59.6128 74.1719 59.6487 74.2479C59.7205 74.4 59.8198 74.6285 59.9242 74.9243C60.1332 75.5164 60.3613 76.3746 60.4314 77.4274C60.4978 78.4232 60.3086 79.0411 59.891 80.1489C59.8482 80.2624 59.8032 80.3804 59.7563 80.5038C59.3378 81.6027 58.7566 83.1291 58.087 85.6736C57.8928 86.4113 57.6519 87.9641 57.3787 90.0772C57.1037 92.2038 56.7922 94.9319 56.4602 98.0445C55.7961 104.27 55.0492 112.044 54.3485 119.64C53.6479 127.237 52.9933 134.658 52.5139 140.18C52.2742 142.941 52.0783 145.228 51.9423 146.824C51.8743 147.622 51.8213 148.247 51.7853 148.673L51.7443 149.159L51.7338 149.284L51.7312 149.315L51.7305 149.323L51.7303 149.325C51.7303 149.326 51.7303 149.326 52.2285 149.368L51.7303 149.326L51.7101 149.566L51.8848 149.731L60.144 157.548L60.5093 157.894L60.8528 157.526L69.4072 148.382L69.5493 148.23L69.5418 148.022L69.0421 148.041C69.5418 148.022 69.5418 148.022 69.5417 148.022L69.5417 148.021L69.5415 148.016L69.5409 147.998L69.5383 147.926L69.5282 147.644C69.5193 147.396 69.5063 147.03 69.4899 146.559C69.4571 145.615 69.4105 144.249 69.3552 142.557C69.2446 139.173 69.0994 134.489 68.9612 129.287C68.6846 118.88 68.436 106.408 68.5464 98.1229C68.6575 89.7903 67.7968 84.3511 66.8979 80.9804C66.4484 79.2948 65.9893 78.1263 65.6373 77.3719C65.462 76.9962 65.3133 76.7234 65.2056 76.5407L66.9252 73.7085L67.1382 73.3578L66.8357 73.0805L64.181 70.647L64.0537 70.5303L63.8815 70.517L62.4437 70.4063L62.1887 70.3866L62.0236 70.5818L59.59 73.458Z" fill="#171717" stroke="white"/>
<path d="M51.9887 60.4815L52.0827 59.5145L51.2411 60L51.491 60.4331L51.2411 60L51.241 60.0001L51.2404 60.0004L51.2383 60.0016L51.23 60.0064L51.1976 60.0251L51.0737 60.0967C50.9664 60.1587 50.8119 60.2481 50.6228 60.3577C50.2445 60.5768 49.7279 60.8766 49.1742 61.1996C48.0702 61.8437 46.8092 62.5853 46.2115 62.959C46.0348 63.0694 45.8895 63.2674 45.7788 63.4372C45.6531 63.6299 45.5149 63.879 45.3672 64.1739C45.0711 64.7653 44.7197 65.5755 44.3353 66.564C43.5655 68.5429 42.6525 71.2646 41.7729 74.4401C40.015 80.787 38.3815 88.9817 38.3071 96.7104L38.807 96.7152L38.3071 96.7104C38.2332 104.398 38.8241 118.166 39.4323 129.999C39.7366 135.919 40.0455 141.359 40.2783 145.319C40.3947 147.299 40.492 148.909 40.5603 150.024C40.5945 150.582 40.6214 151.015 40.6397 151.31L40.6528 151.52C40.6116 151.559 40.5654 151.604 40.516 151.653C40.3388 151.831 40.1062 152.082 39.9237 152.35C39.8325 152.484 39.744 152.637 39.6834 152.798C39.6244 152.954 39.5772 153.158 39.6173 153.375C39.6615 153.613 39.8011 153.811 40.0102 153.943C40.2019 154.065 40.4349 154.121 40.679 154.143C41.4908 154.217 45.2155 154.549 48.7365 154.862L53.4769 155.284L55.0028 155.42L55.4268 155.458L55.5382 155.468L55.5667 155.47L55.5739 155.471L55.5757 155.471L55.5762 155.471C55.5762 155.471 55.5763 155.471 55.5863 155.358L55.5763 155.471L56.9476 155.593L55.9741 154.619L51.1254 149.771L51.1673 149.316C51.2086 148.866 51.2695 148.207 51.3474 147.366C51.5032 145.684 51.7273 143.276 52.0004 140.372C52.5465 134.566 53.2885 126.777 54.0719 118.851C54.8554 110.924 55.6801 102.861 56.3919 96.5038C56.7478 93.3249 57.0751 90.5751 57.3547 88.4832C57.6372 86.3701 57.8652 84.9763 58.0171 84.4702C58.3393 83.3959 58.7065 82.5443 59.0537 81.8001C59.1388 81.6175 59.2243 81.4385 59.3083 81.2624C59.5606 80.734 59.8 80.2325 59.9801 79.7425C60.2273 79.0701 60.3783 78.3846 60.3397 77.5825C60.3014 76.7865 60.0779 75.9061 59.6201 74.8377L59.3214 74.1407L58.7984 74.6898L53.2476 80.5184C53.2148 80.475 53.1796 80.4256 53.1424 80.3693C52.8727 79.9611 52.4979 79.1965 52.1712 77.8226C51.5165 75.0695 51.0693 69.933 51.9887 60.4815Z" fill="#171717" stroke="white"/>
<path d="M82.7843 58.302L82.5383 58.7373L82.7844 58.302L82.7845 58.3021L82.7851 58.3025L82.7878 58.304L82.7985 58.31L82.8411 58.334C82.8787 58.3551 82.9343 58.3863 83.0063 58.4265C83.1502 58.5068 83.3592 58.6229 83.6191 58.7658C84.1391 59.0516 84.8621 59.4442 85.6745 59.871C87.3059 60.7282 89.2741 61.7113 90.6821 62.2528L91.1962 62.4505L82.7843 58.302ZM82.7843 58.302L82.0324 57.877L82.0383 58.7407C82.0746 64.0723 80.494 69.7399 78.8887 74.0967C78.0879 76.2704 77.2846 78.108 76.6819 79.4014C76.3884 80.0313 76.1426 80.5318 75.9681 80.8787M82.7843 58.302L75.9681 80.8787M90.9499 62.9431L90.9499 62.943L90.9499 62.9431ZM90.9499 62.9431L90.9497 62.9434L90.9485 62.9457L90.9431 62.9567L90.9205 63.0031C90.9004 63.045 90.8702 63.1082 90.8314 63.1921C90.7536 63.3598 90.6409 63.6097 90.5032 63.9344C90.2277 64.584 89.8523 65.5326 89.456 66.7215C88.6629 69.1006 87.7888 72.4348 87.4613 76.2573C87.1271 80.1571 83.913 99.1603 80.7912 117.145C79.2287 126.147 77.6868 134.907 76.5357 141.416C75.9601 144.671 75.4821 147.363 75.1481 149.242C74.9811 150.181 74.85 150.917 74.7607 151.418L74.6588 151.989L74.6327 152.135L74.6261 152.172L74.6245 152.182L74.624 152.184C74.6239 152.185 74.6239 152.185 74.1317 152.097M90.9499 62.9431L75.9681 80.8787M75.9681 80.8787L67.8943 73.9187L67.39 73.4839L67.1131 74.0896L65.9334 76.6705L65.834 76.8881L65.9409 77.102C66.9027 79.0255 67.5703 81.6077 68.0234 84.522C68.4756 87.4299 68.7096 90.6369 68.8198 93.7924C68.9751 98.236 68.8848 102.537 68.8173 105.751C68.7888 107.112 68.7643 108.278 68.7643 109.178C68.7643 112.176 69.0967 122.144 69.4284 131.347C69.5943 135.952 69.7603 140.37 69.8847 143.637C69.947 145.27 69.9988 146.616 70.0351 147.553L70.0773 148.638L70.084 148.812L64.4734 154.854L63.6106 155.783L64.8755 155.693C66.5088 155.576 68.8976 154.773 70.8272 154.029C71.8032 153.653 72.6809 153.284 73.3145 153.008C73.6314 152.871 73.8876 152.757 74.0649 152.677C74.1536 152.637 74.2225 152.605 74.2695 152.584L74.3232 152.559L74.3372 152.553L74.3408 152.551L74.3418 152.551L74.3421 152.551C74.3422 152.551 74.3422 152.55 74.1317 152.097M74.1317 152.097L74.3422 152.55L74.5782 152.441L74.6239 152.185L74.1317 152.097Z" fill="#171717" stroke="white"/>
<path d="M91.663 62.7789L91.2409 62.5913L91.0205 62.9973C89.5778 65.6547 88.7193 69.1523 88.1272 72.7977C87.6695 75.616 87.3659 78.5593 87.0823 81.3091C86.9987 82.1198 86.9168 82.9138 86.8333 83.6827C86.4668 87.0539 83.5216 104.285 80.6617 120.707C79.2329 128.911 77.8273 136.902 76.7788 142.843C76.2545 145.813 75.8196 148.271 75.5157 149.986C75.3637 150.843 75.2445 151.515 75.1634 151.973L75.0707 152.495L75.047 152.628L75.041 152.662L75.0395 152.67L75.0391 152.673C75.039 152.673 75.039 152.673 75.5312 152.761L75.039 152.673L74.9527 153.159L75.4368 153.252L79.2716 153.989L79.7625 154.084L79.857 153.593L79.366 153.498C79.857 153.593 79.857 153.592 79.8571 153.592L79.8575 153.59L79.8589 153.583L79.8646 153.553L79.8871 153.436L79.975 152.977C80.0521 152.575 80.1654 151.982 80.31 151.222C80.5993 149.703 81.0142 147.514 81.5166 144.838C82.5216 139.486 83.8768 132.184 85.2783 124.384C88.0791 108.795 91.0705 91.1832 91.8104 83.1928C92.5459 75.2499 93.5732 70.7558 94.4047 68.261C94.8202 67.0146 95.1843 66.2747 95.4338 65.8561C95.5583 65.6472 95.6534 65.5197 95.711 65.4497C95.7398 65.4148 95.7592 65.3943 95.768 65.3853C95.7691 65.3842 95.77 65.3833 95.7708 65.3825L96.3796 64.8751L95.6452 64.5487L91.663 62.7789Z" fill="#171717" stroke="white"/>
<path d="M96.9182 65.3003L97.0555 64.8195L96.8863 64.7712L96.7241 64.8395C96.2122 65.0551 95.8089 65.563 95.4764 66.1655C95.1335 66.787 94.8169 67.601 94.5208 68.5586C93.9276 70.4762 93.3932 73.0467 92.9036 75.9845C91.9237 81.8638 91.111 89.2902 90.374 96.0706C89.6392 102.831 87.0627 117.004 84.6648 129.51C83.4668 135.758 82.3148 141.583 81.4623 145.845C81.0361 147.976 80.6847 149.717 80.44 150.925C80.3176 151.529 80.2218 151.999 80.1567 152.319L80.0824 152.683L80.0634 152.776L80.0586 152.799L80.0574 152.805L80.0571 152.807C80.0571 152.807 80.057 152.807 80.5469 152.907L80.057 152.807L79.9403 153.377L80.5215 153.407L89.2233 153.849L89.5728 153.867L89.7092 153.545L91.289 149.811C96.21 145.291 98.8753 138.659 100.314 133.198C101.04 130.444 101.458 127.971 101.695 126.186C101.736 125.881 101.771 125.596 101.802 125.334C102.195 126.282 102.704 127.495 103.243 128.751C103.834 130.126 104.463 131.556 105.019 132.745C105.567 133.915 106.067 134.903 106.395 135.356L106.395 135.356C106.935 136.097 106.988 136.568 106.966 136.802C106.954 136.923 106.921 137.002 106.899 137.044C106.89 137.06 106.883 137.071 106.878 137.077C106.129 137.793 105.719 138.534 105.55 139.257C105.381 139.985 105.463 140.658 105.641 141.222C105.818 141.783 106.091 142.245 106.315 142.563C106.324 142.576 106.333 142.588 106.342 142.6C105.904 142.885 105.567 143.173 105.305 143.474C104.944 143.889 104.744 144.309 104.609 144.737C104.519 145.021 104.452 145.33 104.387 145.631C104.36 145.756 104.333 145.879 104.306 145.998C104.206 146.424 104.078 146.876 103.839 147.387C103.286 148.572 103.022 150.154 102.892 151.399C102.826 152.03 102.793 152.589 102.777 152.991C102.769 153.184 102.765 153.341 102.763 153.453C101.383 155.039 100.992 156.537 100.972 157.674C100.962 158.254 101.048 158.73 101.139 159.065C101.168 159.173 101.198 159.266 101.226 159.344C100.227 160.933 98.5383 164.104 97.0826 166.91C96.3166 168.387 95.6107 169.771 95.0963 170.786C94.8391 171.293 94.6297 171.709 94.4846 171.997L94.3173 172.33L94.2736 172.418L94.2624 172.44L94.2595 172.446L94.2588 172.447L94.2586 172.447C94.2586 172.447 94.2586 172.447 94.7058 172.671L94.2586 172.447L93.9177 173.129L94.6788 173.17C100.02 173.459 102.16 175.283 103.103 176.921C103.587 177.76 103.781 178.593 103.9 179.251C103.919 179.357 103.937 179.465 103.954 179.57C103.988 179.771 104.02 179.962 104.053 180.106C104.079 180.219 104.116 180.353 104.179 180.471C104.24 180.586 104.376 180.779 104.637 180.831C104.839 180.871 105.024 180.804 105.123 180.762C105.245 180.711 105.373 180.638 105.5 180.555C105.756 180.388 106.064 180.147 106.401 179.857C107.076 179.274 107.906 178.457 108.737 177.543C109.568 176.628 110.408 175.606 111.098 174.611C111.783 173.625 112.346 172.631 112.59 171.776C113.02 170.271 114.699 166.25 116.546 162.224C117.466 160.219 118.421 158.225 119.274 156.56C120.133 154.885 120.872 153.573 121.361 152.909C122.439 151.447 123.233 149.547 123.754 148.038C124.017 147.279 124.213 146.609 124.345 146.128C124.41 145.888 124.46 145.695 124.493 145.56C124.495 145.551 124.498 145.541 124.5 145.532C125.105 145.047 125.524 144.24 125.817 143.356C126.142 142.373 126.341 141.202 126.435 140.024C126.529 138.844 126.52 137.64 126.42 136.584C126.322 135.542 126.131 134.597 125.836 133.965C125.73 133.738 125.577 133.245 125.382 132.484C125.191 131.737 124.97 130.77 124.722 129.622C124.228 127.325 123.634 124.32 122.98 120.937C122.673 119.352 122.353 117.683 122.024 115.967C120.949 110.364 119.776 104.248 118.646 98.8254C115.691 84.6413 112.433 76.3252 110.036 72.1317C109.388 70.9979 108.223 69.9868 106.9 69.114C105.568 68.2351 104.027 67.4662 102.575 66.8331C101.121 66.1991 99.7426 65.6964 98.7289 65.3523C98.2217 65.1801 97.8048 65.0473 97.5141 64.9574C97.3687 64.9125 97.2549 64.8782 97.177 64.8551L97.0876 64.8288L97.0642 64.822L97.058 64.8202L97.0563 64.8198L97.0558 64.8196C97.0557 64.8196 97.0555 64.8195 96.9182 65.3003Z" fill="#171717" stroke="white"/>
<path d="M37.0392 153.498C36.9977 153.996 36.998 153.996 36.9983 153.996L36.999 153.996L37.0005 153.997L37.004 153.997L37.013 153.997C37.0199 153.998 37.0286 153.998 37.0388 153.999C37.0594 154 37.0866 154 37.1199 154C37.1863 154 37.2771 153.996 37.3869 153.983C37.6059 153.958 37.904 153.897 38.2335 153.754C38.906 153.462 39.666 152.849 40.1581 151.619L40.2002 151.513L40.1928 151.4L39.6939 151.433C40.1928 151.4 40.1928 151.4 40.1928 151.4L40.1927 151.398L40.1922 151.392L40.1906 151.366L40.184 151.265L40.1583 150.868C40.136 150.52 40.1033 150.007 40.0621 149.35C39.9798 148.036 39.8634 146.145 39.7275 143.838C39.4556 139.223 39.1055 132.943 38.7922 126.281C38.1647 112.937 37.6886 98.1216 38.2743 92.0446C39.0813 83.9733 40.806 76.9268 42.3293 71.8981C43.0908 69.3842 43.8015 67.376 44.3212 65.9978C44.581 65.3088 44.7931 64.7773 44.9398 64.419C45.0131 64.2399 45.0701 64.104 45.1086 64.0134C45.1278 63.9681 45.1424 63.9341 45.1521 63.9116L45.1629 63.8867L45.1655 63.8807L45.1661 63.8794L45.1662 63.8792L45.1662 63.8792L45.5759 62.9459L44.5871 63.1932L41.0475 64.078L40.8378 64.1305L40.7323 64.3192L41.1688 64.5631C40.7323 64.3192 40.7322 64.3194 40.732 64.3197L40.7316 64.3205L40.7304 64.3227L40.7264 64.3299L40.7125 64.3555C40.7007 64.3775 40.6837 64.4094 40.6619 64.4514C40.6183 64.5354 40.5555 64.6597 40.476 64.8253C40.3171 65.1564 40.0917 65.6528 39.8204 66.3228C39.2779 67.6627 38.5523 69.6966 37.8096 72.4912C36.324 78.0807 34.7703 86.711 34.4744 98.9156C34.1789 111.103 34.6959 124.761 35.2862 135.366C35.5814 140.67 35.8951 145.213 36.135 148.431C36.2549 150.039 36.3564 151.317 36.4279 152.192C36.4637 152.63 36.492 152.967 36.5113 153.195L36.5335 153.454L36.5392 153.519L36.5406 153.536L36.541 153.54L36.5411 153.541C36.5411 153.542 36.5411 153.542 37.0392 153.498ZM37.0392 153.498L36.9977 153.996L36.578 153.961L36.5411 153.542L37.0392 153.498Z" fill="#171717" stroke="white"/>
<path d="M40.276 64.3429L39.5353 64.358L39.5455 64.8579C39.5353 64.358 39.5351 64.358 39.5349 64.358L39.5344 64.358L39.5329 64.3581L39.5279 64.3582L39.5101 64.3587C39.4948 64.3591 39.4728 64.3598 39.4442 64.3609C39.3872 64.3631 39.3042 64.3667 39.1977 64.3728C38.9848 64.385 38.6778 64.4069 38.2965 64.4457C37.5343 64.5234 36.4721 64.6691 35.2685 64.9418C32.8719 65.4847 29.8632 66.5424 27.5593 68.6158C26.7423 69.3511 26.107 69.8851 25.5914 70.3185C25.4129 70.4685 25.2487 70.6065 25.0963 70.7366C24.5105 71.2367 24.0836 71.6324 23.7392 72.1334C23.3939 72.6356 23.1504 73.2155 22.876 74.0596C22.6742 74.6806 22.448 75.4705 22.1513 76.5065C22.0466 76.8719 21.9331 77.2679 21.8089 77.698C21.2783 79.5348 20.3521 83.0328 19.2504 87.1932C18.3594 90.5579 17.3537 94.356 16.3497 98.0591C15.2254 102.206 14.1023 106.238 13.1411 109.425C12.6604 111.019 12.2215 112.397 11.8442 113.471C11.461 114.561 11.1567 115.291 10.95 115.625L10.9499 115.625C9.95842 117.227 8.90679 119.788 8.34307 122.305C8.06072 123.567 7.89632 124.836 7.93017 125.983C7.96229 127.072 8.17434 128.095 8.67743 128.892L8.69113 129.028C8.70786 129.194 8.73207 129.434 8.76205 129.729C8.822 130.319 8.90502 131.131 8.99726 132.016C9.18154 133.785 9.40327 135.855 9.55144 137.041C9.67752 138.05 10.1075 139.163 10.491 140.156C10.5846 140.398 10.6754 140.633 10.7584 140.858C10.9784 141.453 11.1466 141.979 11.2122 142.424C11.2785 142.873 11.2272 143.157 11.1065 143.338L11.5225 143.616L11.1065 143.338C10.8302 143.753 10.6305 144.374 10.4888 145.066C10.3442 145.773 10.2496 146.607 10.2119 147.484C10.1367 149.233 10.2849 151.21 10.7488 152.756C10.9488 153.423 10.9857 154.075 10.9812 154.752C10.98 154.936 10.9754 155.127 10.9707 155.322C10.9587 155.82 10.946 156.345 10.9875 156.856C11.0471 157.592 11.2187 158.35 11.6656 159.126C12.0834 159.851 12.7266 160.565 13.6937 161.285L14.416 172.408L14.4282 172.596L14.5614 172.729L14.915 172.376L14.5615 172.729L14.5616 172.73L14.5619 172.73L14.5629 172.731L14.5665 172.734L14.58 172.748L14.6302 172.797C14.6736 172.84 14.7363 172.901 14.814 172.975C14.9694 173.123 15.1862 173.326 15.4318 173.543C15.9081 173.964 16.5428 174.486 17.0513 174.74L17.7748 175.102V174.293V170.459C17.881 170.404 18.02 170.335 18.1879 170.26C18.6156 170.067 19.2263 169.829 19.9545 169.654C21.4145 169.302 23.3085 169.207 25.1564 170.165L25.4813 170.333L25.7401 170.074L28.5425 167.272L28.6757 167.139L28.6879 166.951L29.1236 160.274C29.1403 160.242 29.1607 160.202 29.1843 160.156C29.2543 160.017 29.3529 159.817 29.4688 159.564C29.7004 159.058 30.0025 158.34 30.2858 157.49C30.8489 155.801 31.3548 153.539 31.0438 151.362C30.7567 149.353 30.8633 145.242 31.03 140.832C31.0579 140.096 31.0873 139.352 31.1167 138.61C31.2619 134.945 31.4054 131.325 31.3435 128.855C31.2709 125.957 31.6694 123.569 32.0845 121.909C32.1915 121.481 32.2995 121.102 32.4008 120.775C32.5151 121.241 32.6381 121.793 32.7485 122.394C33.0779 124.188 33.281 126.348 32.8658 128.008C32.4164 129.806 31.934 132.631 31.6008 135.445C31.2685 138.252 31.0784 141.096 31.2303 142.92C31.3256 144.064 31.2792 145.474 31.2308 146.946C31.2055 147.714 31.1797 148.499 31.1732 149.271C31.1639 150.375 31.1957 151.445 31.3383 152.351C31.4777 153.237 31.7365 154.065 32.2599 154.588L32.4451 154.774L32.7029 154.727L35.9476 154.137L36.3894 154.056L36.3568 153.608L35.8581 153.645C36.3568 153.608 36.3568 153.608 36.3568 153.608L36.3567 153.607L36.3563 153.601L36.3547 153.579L36.3484 153.492L36.324 153.15C36.3027 152.849 36.2715 152.406 36.2322 151.835C36.1536 150.695 36.0425 149.047 35.9123 147.017C35.652 142.958 35.3157 137.375 35.0117 131.275C34.4031 119.066 33.9257 104.825 34.44 96.5983C35.4708 80.1092 37.2348 72.3467 40.0129 65.0355L40.276 64.3429Z" fill="#171717" stroke="white"/>
<path d="M19.1911 179.309C18.6913 179.323 18.6913 179.323 18.6913 179.323L18.6913 179.324L18.6914 179.326L18.6916 179.334L18.6925 179.367L18.6961 179.497C18.6993 179.611 18.7038 179.779 18.7094 179.994C18.7206 180.423 18.7362 181.041 18.7535 181.793C18.788 183.296 18.8295 185.336 18.8571 187.482C18.9127 191.796 18.9108 196.471 18.6953 198.122C18.4688 199.858 18.3961 203.356 18.433 206.507C18.4515 208.089 18.4978 209.595 18.5675 210.765C18.6024 211.349 18.6434 211.855 18.6906 212.247C18.7142 212.442 18.74 212.616 18.7688 212.76C18.795 212.891 18.8316 213.04 18.8913 213.159L18.8913 213.159C18.9232 213.223 18.9432 213.302 18.88 213.545C18.8473 213.671 18.7986 213.818 18.7329 214.012L18.7129 214.07C18.653 214.247 18.5832 214.452 18.5106 214.687C18.1826 215.748 17.8062 217.383 17.8062 220.163C17.8062 221.805 17.9524 225.495 18.1289 229.951C18.2468 232.926 18.3782 236.242 18.4886 239.519C18.6268 243.619 18.7326 247.664 18.7395 250.922C18.743 252.551 18.7217 253.978 18.6678 255.114C18.6132 256.266 18.5266 257.074 18.4134 257.494C17.8777 259.484 17.6957 262.754 17.7141 266.531C17.7326 270.326 17.9547 274.689 18.25 278.898C18.8408 287.315 20.9066 306.353 21.3511 309.463C21.4562 310.198 21.5395 312.774 21.6021 316.285C21.6643 319.774 21.7057 324.136 21.7334 328.403C21.761 332.67 21.7749 336.841 21.7818 339.945C21.7852 341.496 21.787 342.781 21.7878 343.679C21.7883 344.127 21.7885 344.479 21.7886 344.718L21.7887 344.991L21.7887 345.031L21.7737 345.1C21.7565 345.18 21.7315 345.298 21.7003 345.449C21.6378 345.751 21.5502 346.188 21.4493 346.726C21.2476 347.801 20.9925 349.285 20.779 350.919C20.5656 352.552 20.3928 354.341 20.3578 356.025C20.3229 357.701 20.4232 359.308 20.7751 360.559L20.9306 361.112L21.456 360.882L21.4561 360.882L21.4563 360.882L21.4565 360.882L21.4568 360.881L21.4588 360.881L21.4738 360.874C21.488 360.868 21.5104 360.859 21.5401 360.848C21.5998 360.825 21.6888 360.793 21.8009 360.757C22.0261 360.684 22.3391 360.6 22.6914 360.55C23.4149 360.446 24.202 360.5 24.7788 360.961C24.8186 360.993 24.8596 361.026 24.9016 361.06C26.4097 362.27 29.3502 364.629 33.7628 363.564C35.8733 363.055 38.3582 362.689 40.3244 362.45C41.3056 362.331 42.1538 362.243 42.7565 362.186C43.0578 362.158 43.2976 362.136 43.4618 362.122C43.5438 362.115 43.607 362.11 43.6495 362.107L43.6975 362.103L43.7095 362.102L43.7124 362.102L43.713 362.102L43.7132 362.102L43.9053 362.087L44.0378 361.947L43.6748 361.603C44.0378 361.947 44.0379 361.947 44.0379 361.947L44.0382 361.947L44.0391 361.946L44.0422 361.942L44.0543 361.93L44.1 361.881C44.1398 361.838 44.198 361.775 44.2718 361.695C44.4195 361.534 44.6303 361.302 44.8839 361.014C45.3908 360.44 46.0707 359.644 46.761 358.758C47.45 357.873 48.1559 356.891 48.7105 355.945C49.2565 355.014 49.6911 354.061 49.7766 353.249C49.9287 351.803 49.9262 348.745 49.6486 345.339C49.373 341.957 48.8221 338.181 47.858 335.257L47.848 335.066L47.8093 334.33C47.7756 333.692 47.7266 332.774 47.6656 331.652C47.5434 329.41 47.3728 326.353 47.1792 323.098C46.7924 316.595 46.3123 309.279 45.9416 306.091C45.6645 303.707 45.2625 300.762 44.8613 297.822C44.7278 296.844 44.5943 295.866 44.4656 294.909C43.9481 291.065 43.5099 287.59 43.4373 285.775C43.4024 284.903 43.516 283.808 43.7018 282.574C43.8271 281.742 43.9819 280.867 44.1407 279.968C44.2175 279.534 44.2951 279.095 44.3708 278.653C44.6017 277.304 44.8126 275.939 44.9089 274.675C44.9992 273.49 44.9919 272.363 44.7914 271.403C44.8086 271.367 44.8285 271.326 44.8508 271.279C44.9377 271.095 45.0616 270.828 45.2109 270.491C45.5095 269.817 45.9104 268.861 46.3206 267.733C47.1382 265.485 48.0053 262.518 48.1566 259.717C48.2966 257.126 49.2878 252.064 50.2726 247.035C50.308 246.855 50.3434 246.674 50.3787 246.493C50.8854 243.904 51.3799 241.358 51.7385 239.219C52.083 237.163 52.3112 235.433 52.2895 234.4L58.2702 217.409C58.4167 217.846 58.5944 218.383 58.7986 219.013C59.4169 220.92 60.2769 223.68 61.2429 227.084C63.1752 233.893 65.5301 243.276 67.2222 253.576C68.5774 261.825 69.6278 266.975 70.3802 270.664C70.5704 271.596 70.7416 272.436 70.8938 273.208C71.6451 277.019 71.9336 279.19 71.7882 282.974C71.6395 286.841 72.0109 293.063 72.4162 298.37C72.6192 301.027 72.8314 303.463 72.9928 305.271C73.0327 305.717 73.0693 306.124 73.102 306.487C73.1356 306.86 73.165 307.186 73.1893 307.46C73.2131 307.729 73.2319 307.946 73.2446 308.103C73.2474 308.138 73.2499 308.169 73.252 308.197C73.2548 308.234 73.2571 308.265 73.2588 308.291C73.2612 308.326 73.2621 308.346 73.2625 308.355C73.2619 308.358 73.2596 308.387 73.2512 308.459C73.2418 308.541 73.2275 308.656 73.2085 308.802C73.1706 309.095 73.1146 309.509 73.0425 310.029C72.8984 311.069 72.6906 312.527 72.4361 314.276C71.927 317.772 71.2313 322.426 70.485 327.199C69.7386 331.972 68.9419 336.863 68.2308 340.835C67.8752 342.821 67.5415 344.575 67.2466 345.968C66.9494 347.373 66.6978 348.381 66.5091 348.895C65.6496 351.239 65.8942 354.046 66.2814 356.591C66.379 357.232 66.4869 357.863 66.5908 358.47L66.5925 358.48C66.6961 359.086 66.7954 359.666 66.8781 360.217C67.0459 361.334 67.1384 362.287 67.0706 363.033L67.028 363.502L67.493 363.573L67.5685 363.078C67.493 363.573 67.4931 363.573 67.4933 363.573L67.4942 363.573L67.4976 363.573L67.5106 363.575L67.5612 363.583C67.6058 363.59 67.6717 363.599 67.7578 363.612C67.9299 363.637 68.1826 363.673 68.5059 363.718C69.1524 363.807 70.0814 363.929 71.213 364.063C73.4756 364.332 76.5512 364.646 79.8 364.831C83.0461 365.016 86.4786 365.073 89.4504 364.821C90.9364 364.695 92.3184 364.491 93.51 364.183C94.6958 363.877 95.7261 363.46 96.4829 362.887L96.6877 362.732L96.681 362.475L96.681 362.475L96.681 362.474L96.6808 362.468L96.6802 362.443L96.678 362.348C96.6761 362.265 96.6735 362.141 96.6704 361.981C96.6644 361.663 96.657 361.202 96.6512 360.633C96.6397 359.495 96.6352 357.928 96.6627 356.21C96.7182 352.757 96.9031 348.748 97.4078 346.369C97.5472 345.711 97.6514 344.316 97.7327 342.418C97.8148 340.502 97.8748 338.029 97.9164 335.183C97.9994 329.491 98.0086 322.297 97.9718 315.069C97.8981 300.623 97.6402 286.001 97.4173 282.956C96.9735 276.893 94.4729 239.939 96.235 223.324C96.7865 219.587 96.5092 213.68 96.2324 207.786C96.2097 207.301 96.1869 206.816 96.1646 206.332C96.017 203.132 95.8886 199.978 95.907 197.193C95.9254 194.399 96.0919 192.017 96.5182 190.347L96.5349 190.282L96.5337 190.214L96.0338 190.223C96.5337 190.214 96.5337 190.214 96.5337 190.214L96.5337 190.213L96.5336 190.212L96.5335 190.207L96.5331 190.188L96.5311 190.117C96.5292 190.055 96.5261 189.963 96.5209 189.845C96.5107 189.609 96.4925 189.264 96.461 188.828C96.3981 187.956 96.2817 186.718 96.0677 185.247C95.644 182.337 94.8355 178.501 93.2924 174.793C93.2943 174.733 93.2969 174.65 93.2998 174.546C93.3062 174.318 93.3143 173.99 93.3212 173.589C93.3351 172.788 93.3444 171.695 93.3258 170.526C93.3073 169.359 93.2609 168.11 93.1626 167.001C93.0657 165.907 92.9145 164.897 92.6672 164.238C92.6145 164.097 92.5593 163.951 92.5022 163.799C92.0769 162.67 91.5416 161.249 91.0915 159.786C90.5781 158.118 90.1918 156.444 90.1918 155.121V154.661L89.7326 154.623L80.736 153.886L80.6187 153.876L80.5126 153.918L80.5123 153.919L80.5114 153.919L80.5032 153.922C80.4928 153.925 80.474 153.932 80.447 153.94C80.3929 153.956 80.3059 153.98 80.1868 154.005C79.9486 154.054 79.5813 154.105 79.0912 154.105C78.1128 154.105 76.6332 153.9 74.7036 153.042L74.5119 152.957L74.3168 153.034L74.3167 153.034L74.3166 153.034L74.316 153.034L74.3129 153.036L74.2999 153.041L74.2475 153.061C74.2009 153.079 74.1315 153.106 74.0411 153.14C73.8603 153.209 73.5956 153.307 73.2621 153.427C72.5948 153.667 71.6528 153.992 70.5554 154.33C68.3538 155.009 65.5545 155.734 63.1001 155.951L62.9271 155.966L62.8008 156.085L60.4909 158.267L57.737 155.644L57.6008 155.515L57.413 155.507L57.3921 156.006C57.413 155.507 57.4129 155.507 57.4128 155.507L57.4124 155.507L57.4105 155.507L57.4029 155.506L57.3727 155.505L57.2539 155.5C57.1496 155.495 56.996 155.489 56.7992 155.48C56.4055 155.462 55.8388 155.435 55.1471 155.401C53.7637 155.332 51.8812 155.231 49.884 155.102C45.8657 154.842 41.4549 154.475 39.663 154.045L39.5943 154.029L39.5237 154.032C37.8831 154.106 36.0257 154.292 34.5833 154.458C33.861 154.541 33.2407 154.62 32.8007 154.678C32.5807 154.707 32.4057 154.73 32.2855 154.747L32.1476 154.766L32.1118 154.771L32.1025 154.772L32.1001 154.773L32.0995 154.773L32.0993 154.773L32.1699 155.268L32.0992 154.773L31.6624 154.835L31.67 155.276L31.8143 163.648C31.7997 163.666 31.7839 163.685 31.7668 163.706C31.6614 163.835 31.5075 164.021 31.3139 164.253C30.9267 164.715 30.3812 165.357 29.7489 166.072C28.4795 167.507 26.8772 169.217 25.5058 170.372C24.0506 171.597 22.3591 173.784 21.051 175.627C20.3919 176.555 19.8212 177.409 19.4154 178.03C19.2124 178.341 19.0505 178.594 18.9391 178.77C18.8834 178.858 18.8403 178.926 18.8111 178.973L18.7777 179.026L18.7691 179.04L18.7668 179.044L18.7662 179.045L18.766 179.045C18.766 179.045 18.766 179.045 19.1911 179.309ZM19.1911 179.309L18.6913 179.323L18.687 179.173L18.766 179.045L19.1911 179.309Z" fill="#171717" stroke="white"/>
<path d="M18.2811 170.667L18.1655 170.764L18.1232 170.909L18.6032 171.049C18.1232 170.909 18.1231 170.909 18.1231 170.909L18.123 170.91L18.1226 170.911L18.1217 170.914L18.1189 170.924L18.1091 170.96C18.101 170.99 18.0897 171.033 18.0761 171.089C18.0489 171.2 18.0125 171.36 17.9739 171.561C17.8967 171.964 17.8105 172.534 17.7722 173.215C17.6958 174.571 17.8084 176.389 18.5873 178.18L18.9766 179.076L19.4756 178.237L19.4756 178.237L19.476 178.236L19.4776 178.233L19.4843 178.222L19.5112 178.177C19.5351 178.138 19.5705 178.079 19.6165 178.003C19.7085 177.852 19.8427 177.634 20.0107 177.367C20.347 176.832 20.8179 176.1 21.357 175.314C22.449 173.723 23.7752 171.977 24.8152 171.145L25.3492 170.718L24.7802 170.338L24.5029 170.754C24.7802 170.338 24.78 170.338 24.7798 170.338L24.7793 170.338L24.7781 170.337L24.7749 170.335L24.7649 170.328C24.7568 170.323 24.7457 170.316 24.7317 170.307C24.7036 170.29 24.664 170.266 24.6136 170.237C24.5129 170.179 24.3686 170.101 24.1874 170.016C23.8263 169.846 23.3122 169.647 22.7003 169.526C21.4679 169.284 19.8266 169.365 18.2811 170.667Z" fill="#171717" stroke="white"/>
<path d="M103.8 181.208L103.914 181.092L103.938 180.931L103.443 180.857C103.938 180.931 103.938 180.931 103.938 180.93L103.938 180.929L103.938 180.927L103.939 180.92L103.942 180.9C103.944 180.883 103.947 180.86 103.949 180.831C103.955 180.773 103.962 180.692 103.966 180.59C103.973 180.387 103.972 180.101 103.935 179.758C103.862 179.073 103.648 178.152 103.084 177.212C101.938 175.302 99.4361 173.45 94.1782 173.168L93.9555 173.156L93.7978 173.313L94.1514 173.667C93.7978 173.313 93.7976 173.314 93.7974 173.314L93.7971 173.314L93.7963 173.315L93.7945 173.317L93.7903 173.321L93.779 173.333C93.7703 173.342 93.7593 173.354 93.7464 173.369C93.7207 173.399 93.6872 173.439 93.6496 173.491C93.5749 173.593 93.4815 173.74 93.4014 173.926C93.2391 174.305 93.1329 174.848 93.3451 175.485C93.3951 175.634 93.5004 175.901 93.6378 176.248C93.7402 176.507 93.8604 176.811 93.9887 177.146C94.2974 177.95 94.6734 178.979 95.0284 180.133C95.742 182.452 96.3565 185.23 96.1967 187.683L96.1093 189.024L97.052 188.066L103.8 181.208Z" fill="#171717" stroke="white"/>
<path d="M48.5415 371.337L49.0409 371.361L49.0409 371.361L49.0409 371.36L49.0411 371.357L49.0417 371.344L49.0443 371.294L49.0543 371.101C49.0632 370.935 49.0764 370.696 49.0936 370.405C49.128 369.824 49.1785 369.039 49.2427 368.223C49.307 367.406 49.3846 366.562 49.4731 365.861C49.5173 365.511 49.5636 365.201 49.6113 364.952C49.661 364.691 49.7061 364.53 49.7385 364.454C49.8819 364.12 49.9697 363.62 50.019 363.071C50.0697 362.507 50.0836 361.84 50.0552 361.14C49.9988 359.75 49.7734 358.174 49.3006 356.992L48.9761 356.181L48.4412 356.871L44.0055 362.595C43.985 362.596 43.9631 362.598 43.94 362.6C43.7538 362.614 43.4843 362.635 43.1494 362.664C42.48 362.722 41.5487 362.81 40.5014 362.931C38.4152 363.171 35.8372 363.543 33.9526 364.071C32.2466 364.548 30.072 364.248 28.1168 363.633C27.1481 363.328 26.2531 362.951 25.5236 362.573C24.7844 362.19 24.2475 361.822 23.9693 361.544C23.091 360.665 21.9834 360.854 21.2348 361.158C20.8511 361.313 20.5199 361.513 20.2873 361.671C20.17 361.75 20.0755 361.82 20.0092 361.872C19.9761 361.898 19.9498 361.919 19.9313 361.934L19.9092 361.952L19.9025 361.958L19.9004 361.96L19.8996 361.96L19.8993 361.961C19.8991 361.961 19.899 361.961 20.2172 362.332L19.8989 361.961L19.8914 361.967L19.8914 361.967L19.8913 361.967L19.8909 361.968L19.8889 361.97L19.8805 361.977L19.8464 362.007C19.8161 362.034 19.7708 362.074 19.7118 362.125C19.5937 362.228 19.4205 362.377 19.2014 362.562C18.763 362.932 18.1417 363.444 17.4108 364.01C15.9433 365.147 14.0568 366.488 12.3313 367.35L12.3313 367.35C10.8999 368.066 9.95116 368.719 9.22801 369.217C9.03923 369.347 8.86581 369.467 8.7032 369.574C8.3082 369.834 7.99122 370.013 7.66538 370.124C7.34761 370.232 7.00017 370.281 6.54337 370.249C5.49616 370.174 4.2626 370.198 3.26056 370.752C2.20681 371.335 1.51539 372.439 1.43602 374.265L1.42105 374.609L1.7375 374.746L1.93555 374.287C1.7375 374.746 1.73756 374.746 1.73766 374.746L1.73799 374.746L1.73917 374.747L1.74357 374.749L1.76043 374.756L1.82549 374.784C1.88247 374.808 1.96622 374.843 2.07406 374.888C2.28974 374.978 2.60189 375.107 2.98917 375.263C3.76347 375.573 4.83941 375.991 6.04587 376.417C8.44117 377.265 11.4117 378.172 13.5516 378.325C15.6526 378.475 18.3777 378.4 20.9704 378.064C23.5484 377.73 26.0624 377.131 27.699 376.196C28.8858 375.517 29.9018 374.658 30.7722 373.922C31.0701 373.67 31.3509 373.432 31.6156 373.221C32.7186 372.343 33.4681 371.983 34.2148 372.25C36.2865 372.99 39.3289 373.293 40.8361 373.443C40.8822 373.448 40.9269 373.452 40.97 373.457C41.421 373.502 42.1445 373.403 42.9094 373.259C43.6978 373.111 44.6027 372.901 45.455 372.688C46.3084 372.475 47.1147 372.257 47.7073 372.093C48.0037 372.01 48.2469 371.942 48.4163 371.893C48.5009 371.869 48.5671 371.85 48.6123 371.837L48.6639 371.822L48.6772 371.818L48.6807 371.817L48.6816 371.817L48.6818 371.817C48.6819 371.817 48.6819 371.817 48.5415 371.337ZM48.5415 371.337L49.0409 371.361L49.0236 371.717L48.6819 371.817L48.5415 371.337Z" fill="#171717" stroke="white"/>
<path d="M94.4109 374.286C94.8751 374.472 94.8752 374.472 94.8753 374.471L94.8755 374.471L94.876 374.47L94.8774 374.466L94.8817 374.455C94.8852 374.446 94.8901 374.433 94.8961 374.417C94.9082 374.384 94.925 374.337 94.9456 374.277C94.9866 374.155 95.0425 373.979 95.1052 373.75C95.2304 373.292 95.3826 372.625 95.4964 371.771C95.7241 370.063 95.798 367.611 95.196 364.601L95.0767 364.005L94.5152 364.237L94.5151 364.237L94.515 364.237L94.5145 364.237L94.5126 364.238L94.4981 364.244C94.4843 364.249 94.462 364.258 94.4313 364.269C94.3698 364.292 94.2745 364.326 94.1447 364.369C93.8852 364.454 93.488 364.573 92.9486 364.705C91.87 364.968 90.2225 365.282 87.9712 365.473C83.4692 365.856 76.5488 365.749 66.9318 363.767L66.6074 363.7L66.4193 363.973L66.4193 363.973L66.4193 363.973L66.419 363.973L66.4176 363.975L66.4116 363.984L66.3873 364.019C66.3657 364.05 66.3334 364.096 66.2912 364.155C66.2067 364.274 66.0827 364.447 65.9254 364.662C65.6107 365.09 65.1637 365.683 64.6347 366.34C63.5703 367.661 62.1989 369.209 60.9194 370.204C60.0486 370.882 59.2998 371.544 58.6387 372.129C58.2897 372.438 57.9652 372.725 57.6601 372.981C56.7539 373.743 55.9712 374.277 55.0418 374.543C54.7471 374.627 54.4576 374.696 54.1523 374.769C53.9156 374.826 53.6695 374.885 53.4041 374.955C52.8335 375.105 52.2372 375.293 51.7123 375.581C51.1816 375.872 50.7042 376.277 50.3998 376.869C50.0953 377.461 49.9908 378.187 50.1116 379.073L50.1413 379.291L50.3218 379.416L50.607 379.006C50.3218 379.416 50.322 379.417 50.3223 379.417L50.3229 379.417L50.3244 379.418L50.3289 379.421L50.3438 379.431C50.3563 379.44 50.3741 379.452 50.3971 379.467C50.443 379.496 50.5097 379.539 50.5972 379.591C50.7722 379.697 51.0302 379.844 51.3706 380.018C52.0515 380.366 53.0623 380.819 54.3982 381.251C57.0712 382.117 61.0414 382.901 66.269 382.602C66.961 382.563 67.6238 382.526 68.2598 382.492C72.34 382.269 75.316 382.106 77.8037 381.52C80.7045 380.838 82.9465 379.583 85.5572 377.06C86.2773 376.719 86.8415 376.747 87.4827 376.862C87.6123 376.885 87.7487 376.913 87.8921 376.942C88.4804 377.064 89.1863 377.209 90.0244 377.145C91.1206 377.06 92.3196 376.404 93.1927 375.828C93.641 375.533 94.0262 375.242 94.2994 375.026C94.4362 374.918 94.5455 374.828 94.6211 374.764C94.6589 374.732 94.6884 374.707 94.7088 374.69L94.7323 374.669L94.7388 374.664L94.7407 374.662L94.7413 374.661L94.7415 374.661C94.7416 374.661 94.7417 374.661 94.4109 374.286ZM94.4109 374.286L94.8751 374.472L94.8309 374.582L94.7417 374.661L94.4109 374.286Z" fill="#171717" stroke="white"/>
</svg>
