<svg width="191" height="364" viewBox="0 0 191 364" fill="none" xmlns="http://www.w3.org/2000/svg">
<mask id="path-1-outside-1_1136_1102" maskUnits="userSpaceOnUse" x="20.3086" y="32.6313" width="38" height="48" fill="black">
<rect fill="white" x="20.3086" y="32.6313" width="38" height="48"/>
<path d="M26.568 53.9087C26.781 51.8874 26.036 46.3551 26.8871 44.2273C27.7382 42.0996 27.4191 39.1208 28.3767 38.3759C29.3343 37.6313 34.3343 34.2269 39.3347 33.801C44.3351 33.3755 48.0585 33.5881 49.3351 36.3543C50.6117 39.1205 53.4841 46.3547 54.3355 48.376C55.1866 50.3972 55.5056 50.1846 56.0377 51.5677C56.5697 52.9508 58.0589 60.7171 55.5056 60.5041C55.5056 60.5041 55.7186 63.3765 53.8035 64.5469C53.8035 64.5469 53.4844 67.6322 54.3355 72.4197C54.3355 72.4197 51.1437 79.2283 47.8459 79.5478C44.548 79.8668 32.6325 73.4837 32.6325 73.4837C32.6325 73.4837 30.3983 65.079 29.3346 63.9088C29.3346 63.9088 26.8878 64.8663 25.1856 61.9937C23.4834 59.1214 21.6748 56.7807 22.5259 54.653C23.3766 52.5256 26.568 53.9087 26.568 53.9087Z"/>
</mask>
<path d="M26.568 53.9087C26.781 51.8874 26.036 46.3551 26.8871 44.2273C27.7382 42.0996 27.4191 39.1208 28.3767 38.3759C29.3343 37.6313 34.3343 34.2269 39.3347 33.801C44.3351 33.3755 48.0585 33.5881 49.3351 36.3543C50.6117 39.1205 53.4841 46.3547 54.3355 48.376C55.1866 50.3972 55.5056 50.1846 56.0377 51.5677C56.5697 52.9508 58.0589 60.7171 55.5056 60.5041C55.5056 60.5041 55.7186 63.3765 53.8035 64.5469C53.8035 64.5469 53.4844 67.6322 54.3355 72.4197C54.3355 72.4197 51.1437 79.2283 47.8459 79.5478C44.548 79.8668 32.6325 73.4837 32.6325 73.4837C32.6325 73.4837 30.3983 65.079 29.3346 63.9088C29.3346 63.9088 26.8878 64.8663 25.1856 61.9937C23.4834 59.1214 21.6748 56.7807 22.5259 54.653C23.3766 52.5256 26.568 53.9087 26.568 53.9087Z" fill="#171717"/>
<path d="M26.568 53.9087L26.1704 54.8262L27.4199 55.3677L27.5625 54.0135L26.568 53.9087ZM28.3767 38.3759L27.7628 37.5865L27.7627 37.5866L28.3767 38.3759ZM39.3347 33.801L39.2499 32.8046L39.2498 32.8046L39.3347 33.801ZM54.3355 48.376L55.2571 47.9879L55.2571 47.9878L54.3355 48.376ZM55.5056 60.5041L55.5888 59.5076L54.4218 59.4103L54.5084 60.5781L55.5056 60.5041ZM53.8035 64.5469L53.282 63.6937L52.8597 63.9518L52.8088 64.4441L53.8035 64.5469ZM54.3355 72.4197L55.2409 72.8441L55.3756 72.5569L55.32 72.2446L54.3355 72.4197ZM47.8459 79.5478L47.9422 80.5431L47.9423 80.5431L47.8459 79.5478ZM32.6325 73.4837L31.666 73.7406L31.7776 74.1602L32.1602 74.3652L32.6325 73.4837ZM29.3346 63.9088L30.0745 63.2362L29.6114 62.7266L28.9701 62.9776L29.3346 63.9088ZM25.1856 61.9937L26.0459 61.4839L26.0459 61.4839L25.1856 61.9937ZM22.5259 54.653L23.4544 55.0244L23.4544 55.0243L22.5259 54.653ZM27.5625 54.0135C27.624 53.4304 27.6139 52.6401 27.5875 51.8107C27.5595 50.9289 27.5151 50.0502 27.4879 49.08C27.4615 48.1382 27.4559 47.2198 27.5062 46.4159C27.5578 45.5914 27.6641 44.9776 27.8156 44.5987L25.9587 43.8559C25.6847 44.5409 25.5649 45.4165 25.5101 46.291C25.4541 47.186 25.4618 48.176 25.4887 49.1359C25.5148 50.0674 25.5634 51.0837 25.5886 51.8743C25.6154 52.7171 25.6186 53.3764 25.5736 53.8039L27.5625 54.0135ZM27.8156 44.5987C28.2992 43.3898 28.4449 41.9589 28.5833 40.9145C28.6571 40.358 28.726 39.9164 28.8219 39.5774C28.925 39.2129 29.0119 39.1487 28.9907 39.1652L27.7627 37.5866C27.2627 37.9755 27.0304 38.563 26.8974 39.033C26.7572 39.5286 26.6732 40.1044 26.6007 40.6517C26.4465 41.8148 26.3262 42.9372 25.9587 43.8559L27.8156 44.5987ZM28.9906 39.1653C29.4185 38.8325 30.8523 37.8307 32.7868 36.8634C34.7274 35.893 37.0978 34.9952 39.4195 34.7974L39.2498 32.8046C36.5711 33.0328 33.9413 34.05 31.8924 35.0745C29.8375 36.102 28.2924 37.1747 27.7628 37.5865L28.9906 39.1653ZM39.4195 34.7974C41.9112 34.5854 43.9688 34.5457 45.5337 34.8611C47.0682 35.1703 47.9703 35.7835 48.4271 36.7733L50.2431 35.9353C49.4233 34.1589 47.8254 33.2827 45.9289 32.9005C44.0628 32.5244 41.7585 32.5912 39.2499 32.8046L39.4195 34.7974ZM48.4271 36.7733C49.6962 39.5231 52.5411 46.6922 53.4139 48.7642L55.2571 47.9878C54.427 46.0173 51.5273 38.7179 50.2431 35.9353L48.4271 36.7733ZM53.4139 48.764C53.8686 49.8441 54.1947 50.354 54.4787 50.7726C54.7221 51.1314 54.8811 51.3465 55.1043 51.9267L56.971 51.2087C56.6622 50.4059 56.3956 50.0357 56.1337 49.6497C55.9124 49.3235 55.6534 48.9291 55.2571 47.9879L53.4139 48.764ZM55.1043 51.9267C55.3222 52.4931 55.8145 54.6714 55.9303 56.6916C55.9884 57.7061 55.9427 58.5601 55.7812 59.1107C55.701 59.3841 55.6181 59.4904 55.5905 59.517C55.5827 59.5244 55.5887 59.517 55.606 59.5109C55.623 59.5049 55.6222 59.5104 55.5888 59.5076L55.4225 61.5007C56.0244 61.5509 56.564 61.3552 56.9763 60.959C57.3538 60.5962 57.5694 60.1199 57.7003 59.6736C57.9611 58.7846 57.9885 57.6506 57.927 56.5772C57.8035 54.4218 57.2851 52.0254 56.971 51.2087L55.1043 51.9267ZM55.5056 60.5041C54.5084 60.5781 54.5084 60.5777 54.5083 60.5774C54.5083 60.5773 54.5083 60.577 54.5083 60.5768C54.5083 60.5765 54.5082 60.5761 54.5082 60.5759C54.5082 60.5753 54.5082 60.5749 54.5081 60.5747C54.5081 60.5742 54.5081 60.5744 54.5082 60.5752C54.5083 60.5769 54.5085 60.5812 54.5089 60.5878C54.5096 60.6011 54.5106 60.6241 54.5114 60.6556C54.513 60.7187 54.5138 60.8152 54.5096 60.9366C54.5011 61.1816 54.4727 61.516 54.3951 61.8761C54.2342 62.6232 53.901 63.3154 53.282 63.6937L54.325 65.4002C55.621 64.6081 56.1389 63.2788 56.3503 62.2971C56.4589 61.7928 56.497 61.3359 56.5084 61.0058C56.5141 60.8396 56.5133 60.7026 56.5107 60.6041C56.5095 60.5547 56.5078 60.5148 56.5063 60.4855C56.5055 60.4709 56.5048 60.4588 56.5042 60.4496C56.5039 60.4449 56.5037 60.441 56.5034 60.4377C56.5033 60.4361 56.5032 60.4347 56.5031 60.4334C56.5031 60.4328 56.5031 60.4322 56.503 60.4317C56.503 60.4314 56.503 60.431 56.503 60.4309C56.5029 60.4305 56.5029 60.4302 55.5056 60.5041ZM53.8035 64.5469C52.8088 64.4441 52.8088 64.4443 52.8087 64.4445C52.8087 64.4446 52.8087 64.4449 52.8087 64.4451C52.8086 64.4454 52.8086 64.4459 52.8085 64.4463C52.8084 64.4473 52.8083 64.4484 52.8082 64.4497C52.8079 64.4523 52.8076 64.4557 52.8072 64.4598C52.8064 64.4681 52.8054 64.4793 52.8041 64.4935C52.8015 64.5219 52.7981 64.5621 52.7942 64.6137C52.7865 64.717 52.7767 64.866 52.768 65.0582C52.7504 65.4426 52.7368 65.9996 52.7505 66.7074C52.778 68.1229 52.9152 70.1436 53.3509 72.5947L55.32 72.2446C54.9047 69.9083 54.7759 67.9926 54.7501 66.6686C54.7373 66.0067 54.7502 65.4932 54.7659 65.1494C54.7737 64.9776 54.7822 64.8482 54.7886 64.764C54.7918 64.7219 54.7944 64.6911 54.7961 64.672C54.797 64.6624 54.7976 64.6558 54.798 64.652C54.7981 64.6502 54.7982 64.6491 54.7983 64.6487C54.7983 64.6485 54.7983 64.6485 54.7983 64.6487C54.7983 64.6488 54.7983 64.6489 54.7982 64.6491C54.7982 64.6492 54.7982 64.6494 54.7982 64.6494C54.7982 64.6496 54.7982 64.6498 53.8035 64.5469ZM54.3355 72.4197C53.43 71.9952 53.4301 71.9951 53.4302 71.9949C53.4302 71.9949 53.4302 71.9949 53.4302 71.9948C53.4302 71.9948 53.4302 71.9949 53.4301 71.9951C53.4299 71.9955 53.4295 71.9962 53.429 71.9974C53.4279 71.9998 53.426 72.0037 53.4234 72.0092C53.4181 72.0202 53.4099 72.0374 53.3988 72.0604C53.3765 72.1064 53.3427 72.1755 53.2981 72.2644C53.2088 72.4424 53.0765 72.6994 52.9073 73.0098C52.5678 73.6325 52.0846 74.4607 51.5061 75.2934C50.9239 76.1315 50.2664 76.9433 49.5841 77.5543C48.8859 78.1795 48.2638 78.5026 47.7495 78.5524L47.9423 80.5431C49.0769 80.4332 50.0905 79.7855 50.9183 79.0442C51.7619 78.2887 52.5207 77.3384 53.1487 76.4344C53.7804 75.5251 54.3012 74.6311 54.6632 73.9672C54.8447 73.6343 54.9876 73.3569 55.0857 73.1613C55.1348 73.0634 55.1728 72.9859 55.1989 72.932C55.2119 72.905 55.222 72.8839 55.2291 72.8692C55.2326 72.8618 55.2354 72.8559 55.2373 72.8518C55.2383 72.8497 55.2391 72.848 55.2397 72.8467C55.24 72.8461 55.2403 72.8455 55.2405 72.8451C55.2406 72.8449 55.2407 72.8446 55.2407 72.8445C55.2408 72.8443 55.2409 72.8441 54.3355 72.4197ZM47.7496 78.5524C47.496 78.5769 47.0721 78.5395 46.4644 78.4031C45.874 78.2705 45.1776 78.0605 44.408 77.791C42.8694 77.2523 41.1028 76.4988 39.4195 75.7265C37.7397 74.9557 36.1597 74.1741 34.9986 73.5844C34.4184 73.2898 33.9438 73.0436 33.6146 72.8714C33.4501 72.7852 33.322 72.7176 33.2353 72.6717C33.192 72.6487 33.159 72.6312 33.137 72.6195C33.126 72.6136 33.1178 72.6092 33.1124 72.6063C33.1097 72.6049 33.1077 72.6038 33.1064 72.6031C33.1057 72.6028 33.1053 72.6025 33.105 72.6024C33.1048 72.6023 33.1048 72.6022 33.1047 72.6022C33.1047 72.6022 33.1047 72.6022 32.6325 73.4837C32.1602 74.3652 32.1604 74.3652 32.1605 74.3653C32.1606 74.3654 32.1608 74.3655 32.161 74.3656C32.1615 74.3658 32.1621 74.3662 32.1629 74.3666C32.1645 74.3674 32.1668 74.3687 32.1698 74.3703C32.1759 74.3735 32.1848 74.3783 32.1965 74.3845C32.2198 74.3969 32.2541 74.4152 32.2988 74.4389C32.3883 74.4863 32.5194 74.5555 32.6871 74.6433C33.0225 74.8189 33.5046 75.0689 34.093 75.3677C35.2691 75.9649 36.8741 76.7591 38.5854 77.5443C40.2933 78.3278 42.1239 79.1103 43.747 79.6787C44.5582 79.9627 45.3338 80.199 46.0263 80.3545C46.7014 80.5061 47.3713 80.5983 47.9422 80.5431L47.7496 78.5524ZM32.6325 73.4837C33.5989 73.2268 33.5989 73.2267 33.5988 73.2266C33.5988 73.2265 33.5988 73.2264 33.5988 73.2262C33.5987 73.2259 33.5986 73.2255 33.5984 73.2249C33.5981 73.2238 33.5977 73.2222 33.5971 73.22C33.596 73.2158 33.5943 73.2095 33.5921 73.2013C33.5877 73.1849 33.5813 73.1608 33.5728 73.1294C33.556 73.0666 33.5312 72.9748 33.4993 72.8576C33.4355 72.6234 33.3434 72.2881 33.2296 71.8822C33.0021 71.0709 32.6872 69.9752 32.3382 68.841C31.99 67.7095 31.6041 66.5266 31.2343 65.5458C31.0498 65.0562 30.8641 64.6031 30.6844 64.226C30.5172 63.8751 30.3139 63.4994 30.0745 63.2362L28.5946 64.5814C28.5937 64.5804 28.6025 64.5901 28.6204 64.6156C28.6379 64.6404 28.6603 64.6747 28.6873 64.7201C28.7418 64.8119 28.806 64.9334 28.8789 65.0864C29.025 65.3928 29.1884 65.7883 29.3629 66.2513C29.7112 67.1754 30.0832 68.3131 30.4266 69.4291C30.7691 70.5423 31.0792 71.6209 31.3039 72.4222C31.4161 72.8225 31.5069 73.1529 31.5695 73.3829C31.6008 73.4978 31.625 73.5877 31.6414 73.6486C31.6496 73.679 31.6558 73.7022 31.6599 73.7177C31.662 73.7255 31.6635 73.7313 31.6646 73.7351C31.6651 73.737 31.6655 73.7385 31.6657 73.7394C31.6658 73.7398 31.6659 73.7402 31.666 73.7404C31.666 73.7405 31.666 73.7405 31.666 73.7406C31.666 73.7406 31.666 73.7406 32.6325 73.4837ZM29.3346 63.9088C28.9701 62.9776 28.9707 62.9773 28.9713 62.9771C28.9714 62.9771 28.972 62.9769 28.9723 62.9767C28.973 62.9764 28.9737 62.9762 28.9743 62.976C28.9755 62.9755 28.9767 62.975 28.9776 62.9747C28.9796 62.9739 28.981 62.9734 28.9819 62.9731C28.9837 62.9724 28.9834 62.9725 28.9812 62.9733C28.9767 62.9749 28.9644 62.979 28.945 62.9847C28.906 62.9961 28.8401 63.0133 28.753 63.0286C28.5767 63.0595 28.327 63.0802 28.0421 63.0389C27.5174 62.9627 26.7433 62.6608 26.0459 61.4839L24.3253 62.5035C25.3301 64.1992 26.6305 64.8549 27.7547 65.0181C28.2943 65.0964 28.7626 65.0574 29.0984 64.9985C29.2672 64.9689 29.4057 64.9337 29.5072 64.904C29.5581 64.8891 29.6 64.8755 29.6322 64.8644C29.6483 64.8589 29.6619 64.854 29.6731 64.8498C29.6787 64.8478 29.6836 64.8459 29.688 64.8443C29.6901 64.8435 29.6921 64.8427 29.694 64.842C29.6949 64.8416 29.6958 64.8413 29.6966 64.841C29.697 64.8408 29.6976 64.8406 29.6978 64.8405C29.6984 64.8403 29.699 64.84 29.3346 63.9088ZM26.0459 61.4839C25.1496 59.9715 24.3364 58.7737 23.8062 57.625C23.2883 56.5029 23.182 55.7052 23.4544 55.0244L21.5974 54.2816C21.0186 55.7285 21.3911 57.165 21.9903 58.4632C22.5773 59.7348 23.5194 61.1436 24.3253 62.5035L26.0459 61.4839ZM23.4544 55.0243C23.5603 54.7596 23.7105 54.6394 23.8915 54.5662C24.1081 54.4785 24.4105 54.4467 24.778 54.4792C25.1367 54.5109 25.4893 54.5975 25.7612 54.6814C25.8947 54.7225 26.0027 54.7612 26.0752 54.7887C26.1113 54.8023 26.1382 54.8131 26.1546 54.8197C26.1628 54.8231 26.1683 54.8254 26.171 54.8265C26.1723 54.8271 26.173 54.8273 26.1729 54.8273C26.1728 54.8273 26.1726 54.8272 26.1722 54.827C26.172 54.8269 26.1717 54.8268 26.1714 54.8267C26.1713 54.8266 26.171 54.8265 26.171 54.8265C26.1707 54.8264 26.1704 54.8262 26.568 53.9087C26.9657 52.9912 26.9654 52.991 26.9651 52.9909C26.9649 52.9908 26.9646 52.9907 26.9644 52.9906C26.9639 52.9904 26.9633 52.9901 26.9627 52.9899C26.9615 52.9894 26.9602 52.9888 26.9586 52.9881C26.9554 52.9867 26.9515 52.9851 26.9467 52.9831C26.9373 52.9791 26.9248 52.9739 26.9094 52.9676C26.8786 52.9551 26.8361 52.9382 26.7833 52.9182C26.6779 52.8783 26.53 52.8255 26.351 52.7703C25.9979 52.6613 25.4995 52.5351 24.954 52.4869C24.4173 52.4396 23.7624 52.4609 23.1412 52.7122C22.4846 52.978 21.9169 53.4827 21.5974 54.2817L23.4544 55.0243Z" fill="white" mask="url(#path-1-outside-1_1136_1102)"/>
<path d="M25.7242 53.2788L25.7245 53.2789L25.7247 53.2789L25.7249 53.279L25.7251 53.2791L26.4998 53.5608L26.3907 52.7428C26.3327 52.3077 26.2861 51.3508 26.234 50.2822C26.2256 50.1108 26.2171 49.9364 26.2084 49.7608C26.1473 48.5293 26.0754 47.2267 25.961 46.6167C25.9262 46.431 25.9447 46.1201 26.03 45.6596C26.1128 45.2126 26.2457 44.6865 26.3973 44.0932C26.4056 44.0609 26.4139 44.0285 26.4222 43.9959C26.7164 42.8461 27.0663 41.478 27.1738 40.1531L27.1738 40.1531C27.2643 39.0359 27.8553 37.989 29.469 36.9215C31.1022 35.8413 33.7318 34.7773 37.7916 33.647C41.4301 32.8172 44.2014 33.081 46.0502 33.5411C46.9768 33.7717 47.6745 34.0523 48.1358 34.272C48.3664 34.3818 48.5379 34.4764 48.6493 34.5418C48.705 34.5745 48.7457 34.5999 48.7712 34.6163C48.7839 34.6245 48.7928 34.6304 48.798 34.6338L48.802 34.6365L48.8024 34.6368L48.8027 34.637L48.8028 34.6371L48.8031 34.6373L49.2764 34.9669L49.5349 34.4498C49.9527 33.6141 49.6874 32.79 49.2033 32.1108C48.7239 31.4381 47.9733 30.8158 47.2011 30.2784C46.4214 29.7358 45.581 29.2538 44.8916 28.8718C44.7249 28.7794 44.571 28.695 44.4284 28.6168C44.2694 28.5297 44.1245 28.4502 43.9914 28.3759C43.7352 28.2328 43.5755 28.1372 43.5009 28.0812C43.2191 27.8698 42.7859 27.6761 42.2337 27.5165C41.6725 27.3543 40.9576 27.2185 40.0892 27.1408C38.3519 26.9854 35.9822 27.0605 32.965 27.6352L32.965 27.6352C29.854 28.228 27.3381 30.0008 25.485 31.8902C23.6333 33.7782 22.4113 35.815 21.8908 37.0046L21.8908 37.0046C21.3678 38.2002 20.8812 40.2554 20.6127 42.1254C20.4778 43.0655 20.395 43.979 20.3926 44.7338C20.3915 45.1107 20.4103 45.4593 20.4564 45.7575C20.5005 46.0429 20.5772 46.3362 20.727 46.5609C20.8616 46.7628 21.056 47.2357 21.2785 47.8998C21.4937 48.5423 21.717 49.306 21.9199 50.0425C22.1225 50.7779 22.3032 51.4809 22.4334 52.0005C22.4984 52.2601 22.5508 52.4736 22.5868 52.6221C22.6048 52.6963 22.6188 52.7543 22.6282 52.7935L22.6388 52.8382L22.6415 52.8494L22.6422 52.8522L22.6423 52.8529L22.6424 52.853L23.1289 52.7378L22.6424 52.853L22.7774 53.4232L23.3192 53.2002C23.8001 53.0023 24.386 53.0073 24.8912 53.0819C25.1372 53.1182 25.3496 53.1687 25.4998 53.2101C25.5746 53.2307 25.6332 53.2487 25.672 53.2613C25.6914 53.2675 25.7057 53.2724 25.7146 53.2754L25.7237 53.2786L25.7242 53.2788Z" fill="#171717" stroke="white"/>
<path d="M49.3115 34.7292L48.9101 34.99L49.1533 35.4024L49.1533 35.4024L49.1533 35.4024L49.1534 35.4026L49.1542 35.4039L49.1573 35.4093L49.1704 35.4317C49.1821 35.4516 49.1994 35.4815 49.2218 35.5205C49.2667 35.5986 49.3318 35.713 49.412 35.8571C49.5726 36.1455 49.7935 36.5523 50.0339 37.0244C50.518 37.975 51.0688 39.1663 51.3746 40.186L51.3746 40.186C51.6974 41.2617 52.0698 42.1565 52.4079 42.6484C52.4937 42.7732 52.5935 42.8964 52.7081 42.9909C52.8115 43.0761 53.008 43.2044 53.2639 43.1714C53.547 43.1349 53.7045 42.9317 53.7785 42.7854C53.8523 42.6394 53.8893 42.4687 53.91 42.3031C53.9879 41.6802 53.788 41.131 53.6195 40.6678C53.595 40.6006 53.5712 40.5351 53.549 40.4716C53.3661 39.9476 53.2172 39.4008 53.3402 38.6321L53.3402 38.6321C53.5143 37.5438 52.9583 36.3159 52.2243 35.5046C51.8499 35.0908 51.3929 34.7429 50.8966 34.5699C50.3878 34.3927 49.8216 34.3977 49.3115 34.7292Z" fill="#171717" stroke="white"/>
<path d="M46.0964 80.5413C46.0671 80.5226 46.0353 80.5027 46.0011 80.4818C45.7865 80.3509 45.4743 80.1796 45.0723 80.0094C44.2682 79.6688 43.1025 79.3315 41.6415 79.3315C40.5246 79.3315 39.6819 79.0229 38.9168 78.7427C38.8066 78.7023 38.698 78.6625 38.5904 78.6244C38.1783 78.4781 37.7378 78.3397 37.2979 78.344C36.8243 78.3486 36.3856 78.5162 35.9787 78.9006C35.4862 79.3657 35.3872 80.1438 35.4283 80.8865C35.4715 81.6677 35.6799 82.5851 35.9898 83.51C36.606 85.3498 37.6665 87.3444 38.8054 88.4833C39.8737 89.5516 40.8008 90.305 41.5884 90.6382C41.989 90.8077 42.4004 90.8888 42.7963 90.8026C43.2066 90.7131 43.5256 90.4605 43.7597 90.1092C43.8999 89.8989 44.1469 89.6464 44.4788 89.3433C44.6261 89.2087 44.7826 89.0708 44.946 88.9268C44.9626 88.9122 44.9792 88.8975 44.9959 88.8828C45.1759 88.7242 45.3628 88.5588 45.545 88.3903C45.9062 88.0562 46.2685 87.692 46.5424 87.3111C46.8128 86.935 47.0354 86.4903 47.0354 86.002C47.0354 85.4033 47.178 84.8412 47.3261 84.4218C47.3873 84.2484 47.4484 84.1024 47.4983 83.9921L49.2693 83.8309C49.3339 83.9211 49.4161 84.0327 49.5151 84.1612C49.7841 84.5107 50.1784 84.9874 50.6827 85.501C51.6858 86.5222 53.1521 87.7176 54.9596 88.32C55.8854 88.6287 56.69 88.6424 57.3535 88.366C58.0215 88.0876 58.4662 87.5486 58.7343 86.9145C59.2585 85.6745 59.1604 83.9649 58.7162 82.5211C58.5195 81.8818 58.43 81.1932 58.3767 80.4966C58.3529 80.1847 58.3367 79.8768 58.3206 79.5718C58.3187 79.5365 58.3169 79.5013 58.315 79.4661C58.2972 79.1297 58.2785 78.7959 58.2485 78.4805C58.1902 77.8654 58.0844 77.2447 57.8027 76.7612C57.4945 76.2321 56.9972 75.9027 56.2846 75.8567C53.8978 75.7028 51.2158 77.4001 49.1396 80.2868C49.1257 80.2852 49.1114 80.2836 49.0966 80.2819C48.877 80.2573 48.5698 80.2315 48.2174 80.2268C47.6059 80.2187 46.8104 80.2729 46.0964 80.5413Z" fill="#171717" stroke="white"/>
<path d="M34.8093 85.3007L35.7525 85.0068C35.668 84.4362 35.5836 83.9131 35.5059 83.4318C35.3164 82.2573 35.1671 81.3323 35.155 80.5772C35.1467 80.0583 35.2068 79.6776 35.3355 79.3894C35.4578 79.1155 35.6559 78.8934 35.9926 78.711C36.6926 78.332 37.2565 78.3851 37.8133 78.5475C38.0049 78.6034 38.1718 78.664 38.3499 78.7287C38.4615 78.7692 38.5775 78.8113 38.7067 78.8549C39.0121 78.9578 39.3587 79.055 39.7263 79.055C39.8037 79.055 39.9799 79.0519 40.1368 78.9538C40.2358 78.8919 40.3439 78.7806 40.383 78.6117C40.419 78.4561 40.3787 78.3261 40.3455 78.2519C40.2852 78.1174 40.1818 78.0189 40.1218 77.9653C40.0481 77.8994 39.9594 77.8327 39.8646 77.7671C39.4914 77.5088 38.8587 77.1545 38.1003 76.7488C37.5422 76.4503 36.9087 76.12 36.2368 75.7698C35.0501 75.1512 33.7437 74.4702 32.522 73.7914L32.0931 73.5532L31.8467 73.9775L32.2791 74.2285C31.8467 73.9775 31.8463 73.9781 31.8459 73.9788L31.8451 73.9802L31.8434 73.9832L31.8398 73.9898L31.8314 74.0056C31.8253 74.0173 31.8185 74.0313 31.8109 74.0478C31.7959 74.0807 31.7784 74.1234 31.76 74.1767C31.7231 74.2834 31.683 74.432 31.6521 74.6303C31.5904 75.0264 31.5656 75.6201 31.6769 76.4742C31.8993 78.1786 32.6676 80.9459 34.8093 85.3007ZM39.4762 78.7311C39.4761 78.7311 39.4748 78.7298 39.4727 78.7272C39.4752 78.7298 39.4763 78.7311 39.4762 78.7311ZM39.7494 78.0538C39.7496 78.0541 39.7458 78.0546 39.7371 78.0549C39.7447 78.0538 39.7491 78.0536 39.7494 78.0538Z" fill="#171717" stroke="white"/>
<mask id="path-7-outside-2_1136_1102" maskUnits="userSpaceOnUse" x="49.2715" y="70.0229" width="9" height="9" fill="black">
<rect fill="white" x="49.2715" y="70.0229" width="9" height="9"/>
<path d="M54.9029 73.0229C54.9029 73.0229 54.4063 74.7251 53.2715 76.0018C53.2715 76.0018 55.2574 75.3633 56.1795 75.4344L54.9029 73.0229Z"/>
</mask>
<path d="M54.9029 73.0229C54.9029 73.0229 54.4063 74.7251 53.2715 76.0018C53.2715 76.0018 55.2574 75.3633 56.1795 75.4344L54.9029 73.0229Z" fill="#171717"/>
<path d="M54.9029 73.0229L55.7867 72.5551L54.6333 70.3765L53.9429 72.7429L54.9029 73.0229ZM53.2715 76.0018L52.5241 75.3374L50.0908 78.0748L53.5776 76.9538L53.2715 76.0018ZM56.1795 75.4344L56.1027 76.4314L57.9127 76.5709L57.0633 74.9665L56.1795 75.4344ZM54.9029 73.0229C53.9429 72.7429 53.943 72.7427 53.943 72.7425C53.943 72.7424 53.9431 72.7423 53.9431 72.7422C53.9432 72.742 53.9432 72.7418 53.9433 72.7416C53.9434 72.7413 53.9434 72.7411 53.9435 72.741C53.9435 72.7408 53.9435 72.7409 53.9433 72.7415C53.943 72.7426 53.9422 72.7453 53.9409 72.7495C53.9383 72.7579 53.9339 72.7722 53.9275 72.792C53.9147 72.8316 53.8944 72.8928 53.8661 72.9717C53.8095 73.1299 53.7221 73.3564 53.6024 73.6198C53.3591 74.1549 53.0004 74.8016 52.5241 75.3374L54.0189 76.6661C54.6774 75.9253 55.1343 75.0826 55.4231 74.4475C55.5694 74.1257 55.6771 73.8469 55.749 73.646C55.7851 73.5454 55.8123 73.4637 55.8312 73.4052C55.8406 73.3759 55.8479 73.3525 55.8532 73.3353C55.8558 73.3267 55.8579 73.3196 55.8596 73.3143C55.8604 73.3116 55.861 73.3093 55.8616 73.3074C55.8619 73.3065 55.8621 73.3056 55.8623 73.3049C55.8624 73.3045 55.8625 73.3042 55.8626 73.3039C55.8627 73.3037 55.8627 73.3035 55.8628 73.3034C55.8628 73.3032 55.8629 73.303 54.9029 73.0229ZM53.2715 76.0018C53.5776 76.9538 53.5775 76.9538 53.5774 76.9538C53.5774 76.9538 53.5774 76.9538 53.5773 76.9538C53.5773 76.9538 53.5773 76.9539 53.5773 76.9538C53.5773 76.9538 53.5775 76.9538 53.5777 76.9537C53.5783 76.9535 53.5793 76.9532 53.5807 76.9528C53.5836 76.9518 53.5884 76.9503 53.5948 76.9483C53.6078 76.9442 53.6276 76.938 53.6536 76.93C53.7056 76.9139 53.7821 76.8906 53.8773 76.8628C54.0682 76.8069 54.3308 76.7334 54.6189 76.6624C55.2471 76.5076 55.8244 76.41 56.1027 76.4314L56.2564 74.4373C55.6124 74.3877 54.7358 74.5738 54.1404 74.7204C53.8169 74.8002 53.5254 74.8818 53.3151 74.9434C53.2096 74.9743 53.1238 75.0004 53.0636 75.019C53.0335 75.0283 53.0098 75.0357 52.9932 75.0409C52.9849 75.0435 52.9783 75.0456 52.9737 75.0471C52.9714 75.0478 52.9695 75.0484 52.9681 75.0489C52.9674 75.0491 52.9668 75.0493 52.9664 75.0494C52.9662 75.0495 52.966 75.0496 52.9658 75.0496C52.9657 75.0496 52.9656 75.0497 52.9656 75.0497C52.9655 75.0497 52.9654 75.0498 53.2715 76.0018ZM57.0633 74.9665L55.7867 72.5551L54.0191 73.4908L55.2957 75.9022L57.0633 74.9665Z" fill="white" mask="url(#path-7-outside-2_1136_1102)"/>
<path d="M36.6028 155.668L37.1024 155.65C36.6028 155.668 36.6028 155.668 36.6027 155.667L36.6027 155.667L36.6026 155.665L36.6024 155.658L36.6018 155.633C36.6013 155.612 36.6007 155.582 36.6003 155.543C36.5994 155.465 36.5991 155.352 36.6014 155.208C36.606 154.92 36.6208 154.506 36.6617 154C36.7433 152.987 36.9292 151.596 37.3474 150.082C38.1815 147.063 39.9604 143.488 43.7517 141.518L43.8572 141.463L43.9761 141.462L43.9822 141.962L43.9762 141.462L43.9765 141.462L43.9773 141.462L43.9806 141.462L43.9933 141.461L44.0426 141.461L44.2299 141.459C44.3917 141.458 44.6238 141.456 44.9056 141.455C45.469 141.453 46.2319 141.453 47.0287 141.462C47.8247 141.471 48.6583 141.489 49.3621 141.522C50.0432 141.555 50.6632 141.604 50.9908 141.691C51.0568 141.709 51.1936 141.724 51.4188 141.723C51.6346 141.721 51.8988 141.704 52.2012 141.676C52.806 141.618 53.5322 141.516 54.2722 141.405C54.4906 141.373 54.7105 141.339 54.9283 141.306C55.4427 141.228 55.9456 141.151 56.3901 141.091C57.0063 141.007 57.5721 140.945 57.9147 140.966L36.6028 155.668ZM36.6028 155.668L36.6263 156.327L37.2548 156.126L37.2548 156.126L37.2549 156.126L37.2553 156.126L37.257 156.126L37.2642 156.123L37.2931 156.114L37.4053 156.079C37.5026 156.049 37.6431 156.005 37.8148 155.954C38.1583 155.851 38.625 155.715 39.1191 155.584C39.6147 155.452 40.1309 155.327 40.5755 155.244C41.0457 155.156 41.3601 155.131 41.4948 155.151C41.6222 155.171 41.7809 155.238 41.9838 155.378C42.1858 155.517 42.404 155.71 42.6509 155.948C42.7909 156.083 42.9411 156.234 43.1003 156.395C43.4796 156.777 43.9096 157.21 44.3713 157.595C44.7979 157.95 45.4754 158.149 46.1475 158.273C46.845 158.402 47.6379 158.468 48.376 158.499C49.1165 158.531 49.8145 158.528 50.3266 158.518C50.583 158.513 50.7935 158.506 50.9404 158.5C50.9797 158.499 51.0145 158.497 51.0443 158.496C51.1105 158.528 51.2051 158.575 51.3215 158.635C51.5636 158.761 51.8981 158.943 52.2665 159.17C53.0155 159.632 53.8552 160.249 54.3652 160.918C55.6198 162.565 57.6971 163.162 58.96 163.31C59.8159 163.411 60.5096 162.882 60.883 162.306C61.0744 162.01 61.2065 161.67 61.2413 161.328C61.2759 160.988 61.2151 160.61 60.9692 160.303C60.9099 160.229 60.8659 160.166 60.8337 160.113C60.8705 160.114 60.9121 160.116 60.9589 160.12C61.311 160.152 61.6229 160.02 61.8727 159.844C62.1218 159.669 62.3441 159.427 62.5382 159.17C62.9272 158.655 63.2647 157.993 63.5193 157.411L63.5193 157.411C63.6867 157.029 63.7257 156.57 63.715 156.143C63.7041 155.707 63.6392 155.252 63.5609 154.846C63.5128 154.598 63.4589 154.363 63.4072 154.158C63.4292 154.166 63.4512 154.175 63.4734 154.184C63.6431 154.25 63.8042 154.321 63.9238 154.376C63.9805 154.402 64.0273 154.424 64.0603 154.44C64.909 155.166 65.8762 155.69 66.6786 155.896C67.079 155.998 67.5035 156.039 67.8639 155.921C68.0531 155.86 68.2356 155.751 68.3739 155.576C68.5131 155.401 68.5815 155.192 68.5959 154.975C68.6127 154.721 68.6011 154.444 68.5915 154.214C68.5902 154.184 68.589 154.155 68.5879 154.127C68.7033 154.24 68.8396 154.384 68.9999 154.564C69.8885 155.564 70.7702 156.158 71.6164 156.359C72.4865 156.566 73.2699 156.344 73.8837 155.818C74.2808 155.477 74.4023 155.009 74.3895 154.566C74.3769 154.133 74.2379 153.681 74.062 153.272C73.7095 152.453 73.1456 151.663 72.7951 151.274C72.5051 150.952 71.8484 150.291 71.2105 149.659C71.7379 149.873 72.3209 150.13 72.9091 150.424C73.9095 150.924 74.8841 151.316 75.7179 151.397C76.1417 151.437 76.5621 151.401 76.9398 151.23C77.3271 151.054 77.6293 150.755 77.8354 150.342C78.212 149.589 78.2334 148.881 77.95 148.255C77.6783 147.655 77.1569 147.198 76.5814 146.853C76.3236 146.698 75.9318 146.472 75.4745 146.207C74.9955 145.93 74.4447 145.612 73.9008 145.291C72.8143 144.649 71.7416 143.991 71.1666 143.551C70.4813 143.027 69.4786 142.67 68.5828 142.444C67.6803 142.216 66.8038 142.1 66.3237 142.1C65.9309 142.1 64.6526 141.98 63.4316 141.855C62.8301 141.793 62.255 141.731 61.8301 141.684C61.6177 141.661 61.443 141.642 61.3213 141.628L61.1807 141.613L61.1695 141.611M36.6028 155.668L61.1695 141.611M61.1695 141.611L61.1142 141.596C61.0544 141.58 60.9681 141.557 60.8611 141.53C60.6474 141.475 60.3504 141.4 60.017 141.324C59.3605 141.173 58.5272 141.005 57.9149 140.966L61.1695 141.611ZM60.7575 159.95C60.7575 159.95 60.7576 159.951 60.7578 159.952L60.7575 159.95ZM68.2059 153.814C68.2058 153.814 68.2081 153.815 68.2128 153.817C68.2083 153.816 68.2059 153.815 68.2059 153.814Z" fill="#171717" stroke="white"/>
<path d="M104.977 87.4737L105.043 87.9693L105.266 87.9395L105.392 87.7528L104.977 87.4737ZM104.977 87.4737L105.043 87.9693L105.043 87.9694L105.042 87.9695L105.039 87.9699L105.026 87.9716L104.976 87.9783L104.784 88.0035C104.619 88.0252 104.382 88.056 104.095 88.0926C103.522 88.1659 102.747 88.2625 101.943 88.3558C101.14 88.4491 100.305 88.5394 99.6127 88.5998C99.2667 88.63 98.9524 88.6531 98.6934 88.6652C98.4453 88.6768 98.2158 88.6802 98.0573 88.6616C97.8022 88.6316 97.5629 88.5782 97.346 88.4626C97.1201 88.3423 96.956 88.175 96.8193 87.9767C96.6902 87.7892 96.5768 87.5602 96.4584 87.3076C96.4163 87.2179 96.3733 87.1245 96.3277 87.0253C96.2383 86.8313 96.1388 86.6151 96.0162 86.3611C95.8549 86.0271 95.5378 85.5671 95.1276 85.0458C94.7232 84.5318 94.2492 83.9841 93.7944 83.4799C93.3403 82.9763 92.9086 82.52 92.5904 82.1893C92.4313 82.0241 92.3009 81.8906 92.2103 81.7985C92.2039 81.7919 92.1977 81.7856 92.1917 81.7795C91.3486 81.6655 90.5719 81.3416 90.0065 81.0492C89.7001 80.8907 89.4482 80.7375 89.2719 80.6232C89.232 80.5973 89.1959 80.5734 89.1638 80.5518C87.4268 80.8132 86.2452 80.6792 85.3257 80.4597C84.9792 80.3769 84.6653 80.2803 84.3922 80.1963C84.3004 80.1681 84.2133 80.1413 84.1311 80.1169C83.7917 80.0163 83.5218 79.9518 83.2544 79.9411C82.4852 79.9104 81.6353 79.5795 80.9479 79.2821C80.7622 79.2017 80.6023 79.13 80.4524 79.0629C80.2952 78.9924 80.1492 78.927 79.9962 78.8617C79.7075 78.7386 79.5232 78.6747 79.4214 78.659C79.2848 78.638 78.9359 78.6183 78.4503 78.6031C77.9787 78.5882 77.4122 78.5783 76.8649 78.5717C76.3181 78.565 75.7925 78.5617 75.4035 78.56C75.209 78.5592 75.0488 78.5588 74.9373 78.5586L74.8083 78.5584L74.7745 78.5584L74.766 78.5584H74.7638H74.7633H74.7632L74.7631 78.0584V78.5584H74.3341L74.2689 78.1344L74.0317 76.592M104.977 87.4737C105.392 87.7528 105.392 87.7528 105.392 87.7527L105.392 87.7525L105.392 87.752L105.394 87.75L105.398 87.7431L105.416 87.717C105.431 87.6943 105.453 87.6614 105.48 87.6193C105.535 87.5352 105.613 87.4146 105.705 87.2671C105.889 86.9725 106.134 86.568 106.373 86.1311C106.611 85.6966 106.849 85.2181 107.016 84.778C107.099 84.558 107.168 84.3366 107.209 84.1279C107.248 83.9261 107.269 83.6981 107.221 83.4821L107.221 83.4819C107.173 83.2695 107.034 83.0157 106.888 82.7793C106.729 82.5227 106.518 82.2172 106.271 81.8811C105.778 81.2077 105.126 80.3867 104.432 79.5426C103.044 77.8539 101.469 76.052 100.612 75.1143C98.8499 73.1871 96.9258 71.8243 92.5408 69.632L74.0317 76.592M77.2436 70.3065L76.0292 69.2563C75.776 69.345 75.4418 69.4846 75.056 69.6602C74.5393 69.8953 73.9597 70.1809 73.4143 70.4585C72.8696 70.7359 72.3624 71.0035 71.9911 71.202C71.8056 71.3011 71.6542 71.3829 71.5494 71.4398L71.4563 71.4905C69.2805 73.8004 67.6328 73.8558 66.72 73.399C66.3963 73.237 66.2327 72.9514 66.1603 72.6756C66.0909 72.4114 66.0949 72.1251 66.1207 71.8706C66.1605 71.4787 66.2683 71.0463 66.347 70.7308C66.3687 70.6434 66.3883 70.565 66.4036 70.4988C66.4124 70.4604 66.4246 70.3614 66.4328 70.1847C66.4406 70.0179 66.4439 69.8095 66.4439 69.5698C66.4439 69.0904 66.4308 68.5065 66.4174 67.9164L66.4172 67.9061C66.404 67.3228 66.3907 66.7339 66.3907 66.2503C66.3907 66.0071 66.394 65.7851 66.4029 65.6005C66.4111 65.428 66.4255 65.2503 66.4587 65.1175L66.4588 65.1173C66.4916 64.9864 66.5631 64.8725 66.6145 64.7981C66.6737 64.7123 66.7475 64.6213 66.8286 64.5291C66.9915 64.344 67.208 64.1266 67.4566 63.8937C67.9554 63.4266 68.6093 62.8729 69.2842 62.3499C69.9577 61.8279 70.6643 61.327 71.2678 60.9706C71.5682 60.7932 71.8571 60.6432 72.1119 60.5455C72.2394 60.4967 72.3707 60.4562 72.4987 60.4344C72.6213 60.4137 72.7779 60.4036 72.9364 60.4502C73.2204 60.5338 73.7185 60.7815 74.2748 61.073C74.6927 61.2919 75.1768 61.5539 75.6849 61.8288C75.8775 61.933 76.0735 62.0391 76.2707 62.1454C77.7332 62.934 79.2253 63.7153 80.0191 63.9634C80.906 64.2406 82.9581 65.1199 85.3032 66.1864C87.6619 67.2591 90.3537 68.5384 92.5408 69.632L77.2436 70.3065ZM77.2436 70.3065C76.9883 70.4457 76.6766 70.6144 76.35 70.7884C75.5234 71.2288 74.6583 71.6719 74.329 71.7894C74.2141 71.8305 74.0747 71.8797 73.917 71.9354C73.0698 72.2344 71.6938 72.7202 70.7363 73.1304C70.0276 73.4341 69.4739 74.1377 69.3924 74.8713C69.3498 75.2548 69.437 75.6612 69.7199 75.9984C69.9986 76.3305 70.422 76.542 70.9528 76.6357C71.9213 76.8065 72.8257 76.7631 73.4834 76.6791C73.6913 76.6526 73.8759 76.6219 74.0317 76.592M77.2436 70.3065L74.0317 76.592M106.733 83.5905C106.52 82.6329 101.945 77.3134 100.243 75.4517C98.5408 73.59 96.6791 72.26 92.3172 70.0792L106.733 83.5905Z" fill="#171717" stroke="white"/>
<path d="M47.1017 140.508C47.5993 140.46 47.5993 140.46 47.5993 140.46L47.5992 140.459L47.5988 140.455L47.5973 140.439L47.5912 140.377L47.5669 140.136C47.5455 139.924 47.5134 139.611 47.4709 139.209C47.386 138.404 47.2595 137.24 47.093 135.8C46.7602 132.921 46.2675 128.939 45.6283 124.532C44.3518 115.729 42.4848 105.181 40.1274 98.3226C38.0724 92.3442 36.2198 88.2411 34.7748 85.0408C34.568 84.5826 34.3695 84.143 34.1799 83.719C32.6639 80.3279 31.7458 77.9867 31.6433 75.1679L31.5736 73.2498L30.6986 74.9581L31.1437 75.186L30.6986 74.9581L30.6986 74.9582L30.6983 74.9587L30.6972 74.9609L30.6925 74.97L30.674 75.006C30.6576 75.0378 30.6333 75.0848 30.6019 75.1451C30.539 75.2658 30.4478 75.44 30.3347 75.653C30.1083 76.0794 29.7945 76.6607 29.4448 77.281C28.7625 78.491 27.9777 79.7865 27.4392 80.4097L27.3797 80.4355L26.9229 80.6339C26.5282 80.8054 25.9619 81.052 25.275 81.3522C23.9014 81.9525 22.0452 82.7675 20.1156 83.6259C16.2761 85.3338 12.0906 87.2374 10.8884 87.9477C8.57745 89.3133 4.56313 91.1101 3.59905 91.5386C3.43199 91.6128 3.30422 91.7447 3.21493 91.8528C3.11694 91.9715 3.02099 92.1171 2.92791 92.2787C2.74117 92.6028 2.54222 93.0331 2.3426 93.5416C1.94235 94.561 1.52282 95.9372 1.18553 97.5021C0.51311 100.622 0.152497 104.563 0.97547 107.965C1.67705 110.865 1.94127 114.611 2.22793 118.675C2.26219 119.16 2.29677 119.651 2.33246 120.145C2.66469 124.743 3.09233 129.629 4.27723 133.938L4.75933 133.806L4.27723 133.938C5.3443 137.818 5.19356 140.237 5.06055 142.371C5.0506 142.531 5.04075 142.689 5.03151 142.846C4.96465 143.983 4.92791 145.087 5.13406 146.307C5.34095 147.53 5.78806 148.847 6.66221 150.431C8.39385 153.57 10.2017 155.583 12.431 156.995C14.648 158.4 17.2452 159.186 20.4994 159.933C23.7347 160.675 27.7966 161.737 31.0535 162.614C32.6811 163.053 34.1062 163.445 35.1243 163.727C35.6333 163.868 36.0406 163.982 36.3205 164.06L36.6417 164.151L36.7247 164.174L36.7457 164.18L36.751 164.181L36.7523 164.182L36.7526 164.182C36.7527 164.182 36.7527 164.182 36.8887 163.701M47.1017 140.508C47.036 141.004 47.036 141.004 47.0359 141.004L47.0356 141.004L47.0344 141.004L47.0295 141.003L47.0105 141.001L46.9361 140.991L46.6522 140.953C46.4068 140.92 46.0541 140.873 45.6249 140.814C44.7666 140.698 43.602 140.538 42.3774 140.365C39.9407 140.021 37.2298 139.619 36.2482 139.401L36.3567 138.913L36.2482 139.401C35.2519 139.179 33.3834 138.528 31.7961 137.946C30.9954 137.652 30.255 137.372 29.715 137.166C29.4449 137.062 29.2247 136.977 29.072 136.918L28.8956 136.849L28.8494 136.831L28.8375 136.827L28.8345 136.825L28.8337 136.825L28.8335 136.825L29.0159 136.359L28.8334 136.825L28.5159 136.7V136.359C28.5159 135.634 28.297 135.087 27.8825 134.396C27.7218 134.128 27.5383 133.849 27.3287 133.53C27.2607 133.427 27.19 133.319 27.1163 133.207C26.8195 132.752 26.4872 132.23 26.1339 131.605L26.5692 131.359L26.1339 131.605C25.3978 130.303 24.9074 128.313 24.5492 126.495C24.384 125.657 24.244 124.839 24.1212 124.121C24.1095 124.053 24.0979 123.985 24.0864 123.918C23.9539 123.145 23.8442 122.521 23.7434 122.118C23.6541 121.761 23.4628 121.36 23.2348 121.016C23.1312 120.86 23.0244 120.721 22.9229 120.609C22.9282 120.651 22.9348 120.697 22.9429 120.746C22.9882 121.022 23.0749 121.385 23.2171 121.851L22.7389 121.997L23.2171 121.851C23.6134 123.148 23.9287 124.519 24.2355 125.854C24.3852 126.505 24.5329 127.147 24.687 127.768C25.1642 129.69 25.7077 131.431 26.5664 132.795L26.1433 133.061L26.5664 132.795C27.4956 134.271 27.9427 135.434 28.1562 136.245C28.2562 136.626 28.3047 136.928 28.3275 137.147C28.3523 137.154 28.3784 137.161 28.4057 137.169C28.6829 137.25 29.0882 137.37 29.6034 137.531C30.6338 137.852 32.1041 138.333 33.8678 138.975C35.5692 139.593 37.944 140.014 39.9207 140.279C40.9035 140.411 41.7778 140.503 42.4063 140.563C42.7204 140.592 42.9729 140.614 43.1464 140.628C43.2331 140.635 43.3001 140.64 43.3452 140.643L43.3962 140.647L43.4088 140.648L43.4119 140.648L43.4126 140.648L43.4127 140.648L44.8829 140.749L43.6545 141.564C39.2154 144.506 37.5477 148.363 36.9817 151.489C36.6979 153.056 36.6915 154.441 36.7559 155.432C36.7856 155.887 36.8301 156.259 36.8692 156.525C36.9021 156.519 36.9365 156.513 36.9721 156.507C37.3359 156.44 37.8315 156.348 38.3598 156.242C39.4389 156.026 40.5847 155.769 41.0649 155.577C41.5725 155.374 42.0616 155.596 42.4017 155.834C42.7586 156.084 43.0928 156.446 43.3699 156.792C43.6512 157.144 43.8948 157.506 44.0668 157.778C44.1532 157.915 44.2226 158.03 44.2706 158.112C44.2946 158.152 44.3134 158.185 44.3264 158.208L44.3414 158.234L44.3455 158.242L44.3467 158.244L44.3471 158.244L44.3473 158.245C44.3473 158.245 44.3474 158.245 43.9103 158.488L44.3474 158.245L44.4596 158.447L44.3784 158.663C44.0945 159.42 43.4588 160.132 42.7363 160.757C42.0033 161.392 41.1289 161.98 40.2981 162.48C39.4654 162.981 38.6648 163.4 38.0732 163.693C37.7771 163.84 37.5325 163.956 37.3613 164.035C37.2758 164.075 37.2085 164.105 37.1623 164.126L37.1091 164.15L37.095 164.156L37.0911 164.158L37.09 164.158L37.0897 164.158C37.0896 164.159 37.0895 164.159 36.8887 163.701M47.1017 140.508L47.5993 140.46L47.6604 141.087L47.036 141.004L47.1017 140.508ZM36.8887 163.701L37.0895 164.159L36.9253 164.231L36.7527 164.182L36.8887 163.701ZM22.9181 120.193C22.9181 120.193 22.9178 120.194 22.917 120.196C22.9177 120.194 22.9181 120.193 22.9181 120.193ZM22.6148 120.345C22.6095 120.343 22.6066 120.342 22.6065 120.342C22.6064 120.341 22.609 120.342 22.6148 120.345Z" fill="#171717" stroke="white"/>
<path d="M58.056 12.4189C58.0116 12.1752 57.9729 11.8628 57.9772 11.5239C57.9861 10.8299 58.1829 9.93019 58.9835 9.35589C58.9734 9.2568 58.9619 9.13753 58.9499 9.0023C58.9139 8.59618 58.8732 8.04308 58.8551 7.45873C58.8371 6.87701 58.8409 6.25124 58.8975 5.70405C58.9257 5.43047 58.9682 5.16553 59.0319 4.93006C59.0939 4.70121 59.1851 4.46445 59.3311 4.27471L58.056 12.4189ZM58.056 12.4189C57.987 12.4373 57.9144 12.4587 57.8404 12.4834C57.6429 12.5492 57.4153 12.6448 57.2128 12.7843C57.0117 12.9228 56.7993 13.1301 56.6995 13.4292L56.6951 13.4424L56.6915 13.4558C56.2135 15.2085 57.0704 16.6337 57.302 17.0189C57.3056 17.0249 57.3091 17.0306 57.3124 17.0361L58.056 12.4189ZM61.0604 18.0505C61.0829 18.0994 61.1078 18.1508 61.1353 18.2044C61.3274 18.5785 61.6491 19.0604 62.1703 19.5014L62.1703 19.5014C62.5269 19.8032 62.9817 19.8895 63.3872 19.8934C63.7989 19.8972 64.2263 19.8171 64.5987 19.7181C64.8271 19.6574 65.0428 19.5874 65.2322 19.5195L65.1749 21.37C63.7007 22.516 61.194 24.5249 60.3384 28.4287C59.9008 30.4256 59.8081 32.824 59.8215 34.7032C59.8282 35.6469 59.8617 36.4679 59.8936 37.0532C59.9096 37.3461 59.9251 37.5802 59.9367 37.7417C59.9425 37.8224 59.9474 37.885 59.9508 37.9277L59.9547 37.9765L59.9558 37.9893L59.9561 37.9928L59.9562 37.9937L59.9562 37.994C59.9562 37.9941 59.9562 37.9942 60.4544 37.9511L59.9562 37.9942L60.1179 39.8629L60.9054 38.1669C60.9055 38.1668 60.9056 38.1666 60.9056 38.1665L61.0604 18.0505ZM75.5854 37.03C76.2732 37.8554 77.2258 37.9247 77.8701 37.7292C78.1716 37.6376 78.4977 37.4603 78.6694 37.1814C78.7638 37.028 78.8326 36.8012 78.743 36.5564C78.6576 36.3233 78.4693 36.1879 78.3041 36.1128C78.0263 35.9865 77.7557 35.7312 77.5364 35.4671C77.6271 35.4392 77.7124 35.4141 77.7815 35.3941C78.1281 35.5157 78.4646 35.497 78.7656 35.3852C79.1026 35.26 79.3705 35.0284 79.5674 34.8108C79.7674 34.5897 79.9204 34.3537 80.0219 34.178C80.0349 34.1782 80.0481 34.1784 80.0616 34.1785C80.2827 34.1797 80.5924 34.1631 80.8975 34.0799C81.1962 33.9985 81.5577 33.8344 81.7893 33.4896C82.0338 33.1258 82.0625 32.6702 81.9091 32.1663L81.9091 32.1663C81.7615 31.6816 81.53 31.3164 81.2222 31.0394C80.9206 30.768 80.5726 30.6058 80.2336 30.4847C80.0325 30.4129 79.7997 30.3449 79.5761 30.2796C79.4473 30.242 79.3216 30.2053 79.2066 30.1693C78.866 30.0624 78.5317 29.9376 78.2034 29.7501C77.6038 29.4075 77.2478 28.8663 77.0772 28.1221C76.9028 27.3609 76.9284 26.4051 77.1016 25.2967C77.2059 24.6301 77.0986 23.8872 76.9076 23.1789C76.7148 22.4636 76.4255 21.744 76.1303 21.1082C75.8344 20.4708 75.5278 19.9078 75.2956 19.5044C75.1792 19.3025 75.0811 19.1398 75.0117 19.027C74.9956 19.0009 74.9811 18.9775 74.9682 18.9568C74.8402 17.535 74.335 16.4231 73.9698 15.6192C73.9515 15.5788 73.9335 15.5393 73.916 15.5005C73.7169 15.0608 73.5991 14.7766 73.5682 14.5684C73.5546 14.4762 73.5646 14.4349 73.57 14.4201C73.5731 14.4117 73.5821 14.3877 73.6358 14.3493C73.9173 14.1483 74.1296 13.9436 74.2841 13.7142C74.441 13.4811 74.5207 13.2484 74.5699 13.0188C74.6042 12.859 74.6267 12.6809 74.648 12.5123C74.6548 12.4582 74.6616 12.4051 74.6685 12.3538C74.699 12.1288 74.7396 11.8828 74.8199 11.5937C75.0284 10.8425 74.9292 10.249 74.7551 9.83137C74.6976 9.69335 74.6332 9.57726 74.5718 9.483C74.7404 9.00185 74.6398 8.47402 74.4662 8.03222C74.2423 7.4624 73.8476 6.89694 73.4298 6.44091C73.1724 6.16 72.8824 5.99332 72.5816 5.9219C72.2858 5.85165 72.0107 5.88073 71.7871 5.94116C71.6754 5.97134 71.5736 6.01011 71.4839 6.05087C71.061 5.58274 70.5638 5.33686 70.1489 5.20988C69.8991 5.13342 69.6765 5.09899 69.5119 5.08373C69.5048 5.073 69.4975 5.06194 69.4899 5.05054C69.3809 4.88708 69.2202 4.65524 69.0099 4.37632C68.5897 3.81909 67.9691 3.07061 67.1651 2.3031C66.2671 1.44585 65.2782 1.24552 64.437 1.36263C63.6269 1.47542 62.9471 1.88344 62.6137 2.26435L62.6136 2.26448C62.5588 2.32712 62.4164 2.42786 62.1419 2.56898C61.9552 2.66496 61.7465 2.76093 61.5169 2.86653C61.4237 2.90938 61.3271 2.9538 61.2271 3.00046C60.8917 3.15698 60.5306 3.33325 60.2043 3.53432C59.8816 3.73315 59.5618 3.97476 59.3312 4.27463L75.5854 37.03Z" fill="#171717" stroke="white"/>
<path d="M63.7229 35.9449L63.7229 35.9449C64.2986 35.7088 65.6496 35.2873 67.0088 35.0444C67.6893 34.9229 68.393 34.8421 69.0142 34.8579C69.6112 34.8732 70.2377 34.9787 70.6657 35.3289L70.6658 35.329C71.0111 35.6115 71.253 35.9372 71.3418 36.3005C71.434 36.6779 71.3451 37.034 71.1436 37.3203C70.8604 37.7228 70.3732 37.9761 69.8394 38.0787L72.3352 59.969L72.3707 60.2808L72.1054 60.4484L72.1053 60.4484L72.1047 60.4488L72.1022 60.4504L72.0919 60.4569L72.0505 60.4832C72.0141 60.5065 71.9603 60.541 71.8913 60.5856C71.7534 60.6747 71.5552 60.804 71.315 60.9638C70.8343 61.2838 70.1872 61.7251 69.5198 62.2117C68.8509 62.6993 68.169 63.2271 67.6154 63.7203C67.0412 64.2317 66.6712 64.6495 66.5469 64.9171L63.7229 35.9449ZM63.7229 35.9449C62.7472 36.345 61.8424 37.0741 61.1856 37.8513C60.8555 38.2419 60.5785 38.6558 60.3844 39.0617C60.1932 39.4615 60.0669 39.886 60.0789 40.2877L60.0789 40.288C60.1054 41.1562 60.7328 41.6102 61.2131 41.8243C61.4056 41.9101 61.5939 41.9676 61.7502 42.0059M63.7229 35.9449L60.5787 40.2727M72.7068 150.685L72.8876 150.219L71.1106 149.53L72.3205 151.003L72.7068 150.685ZM72.7068 150.685L72.8877 150.219L72.8879 150.219L72.8888 150.22L72.8925 150.221L72.9071 150.227L72.9646 150.249L73.1823 150.333C73.3695 150.404 73.6357 150.506 73.9518 150.625C74.5842 150.864 75.4142 151.173 76.2079 151.455C76.4375 151.537 76.7389 151.509 77.0727 151.331C77.4044 151.155 77.7264 150.849 77.9561 150.465C78.4063 149.711 78.4762 148.715 77.6314 147.841C76.6479 146.824 75.9216 146.374 75.1001 145.924C74.9804 145.859 74.8581 145.793 74.7324 145.726C73.9758 145.319 73.096 144.847 71.9105 143.958C70.6095 142.982 69.5466 142.531 68.8265 142.322C68.4659 142.218 68.1894 142.173 68.0097 142.155C67.9198 142.145 67.854 142.143 67.8139 142.142C67.7938 142.141 67.7802 142.141 67.7731 142.142L67.77 142.142L67.7685 142.142L67.7683 142.142L67.7675 142.142L67.2706 142.172L67.2429 141.67L61.7502 42.0059M72.7068 150.685L61.7502 42.0059M60.5787 40.2727C60.5436 39.1026 62.1393 37.1347 63.9126 36.4075L60.5787 40.2727ZM60.5787 40.2727C60.6144 41.4429 62.2278 41.5848 62.2278 41.5848M62.2278 41.5848L61.7286 41.6123L61.7502 42.0059M62.2278 41.5848C62.184 42.0828 62.1838 42.0828 62.1836 42.0828L62.1832 42.0828L62.1823 42.0827L62.18 42.0825L62.1736 42.0818L62.154 42.0798C62.138 42.078 62.1162 42.0753 62.0893 42.0716C62.0357 42.0641 61.9615 42.0522 61.8733 42.0338C61.8352 42.0259 61.794 42.0167 61.7502 42.0059M62.2278 41.5848L61.7502 42.0059M69.2314 174.942C68.7315 174.953 68.7315 174.952 68.7315 174.952L68.7315 174.952L68.7314 174.949L68.7312 174.939L68.7304 174.9L68.7271 174.746L68.7147 174.161L68.6706 172.067C68.634 170.329 68.5852 168.002 68.5364 165.643C68.439 160.932 68.3412 156.083 68.3412 155.579C68.3412 155.442 68.3482 155.307 68.3714 155.186C68.392 155.078 68.4395 154.902 68.5822 154.763C68.7616 154.588 68.9873 154.566 69.161 154.604C69.307 154.636 69.4324 154.711 69.5219 154.772C69.7068 154.898 69.9284 155.1 70.172 155.33C70.2601 155.414 70.3528 155.502 70.4517 155.596C70.6409 155.777 70.8525 155.979 71.0966 156.206C71.6337 156.704 72.4543 156.712 73.2482 156.359C73.635 156.187 73.9763 155.943 74.2186 155.68C74.4674 155.41 74.5742 155.163 74.5836 154.985C74.5944 154.779 74.5026 154.436 74.2888 153.979C74.0838 153.541 73.7991 153.065 73.5042 152.619C73.2107 152.174 72.914 151.769 72.69 151.474C72.5783 151.327 72.4852 151.209 72.4203 151.127C72.3879 151.086 72.3625 151.055 72.3455 151.033L72.3263 151.01L72.3217 151.004L72.3206 151.003L72.3205 151.003L69.2314 174.942ZM69.2314 174.942L68.7315 174.953L68.7591 176.25L69.6092 175.269C72.2804 172.187 76.0333 170.627 79.1587 169.842C80.7166 169.45 82.1055 169.254 83.104 169.156C83.6029 169.107 84.0034 169.083 84.2777 169.071C84.4149 169.065 84.5204 169.062 84.5908 169.06C84.626 169.059 84.6524 169.059 84.6696 169.059L84.6885 169.059L84.6926 169.059H84.6931H84.6933L69.2314 174.942ZM69.5378 74.032L69.5371 74.033L69.5361 74.0347C69.5332 74.0391 69.5278 74.0476 69.5205 74.06C69.5057 74.0849 69.4834 74.1247 69.4584 74.1771C69.4077 74.283 69.3489 74.4336 69.3152 74.6115C69.2503 74.9546 69.2744 75.4056 69.6679 75.875C70.2124 76.5241 71.1213 76.72 72.0074 76.7137C72.4374 76.7106 72.8307 76.6598 73.1175 76.6091C73.2602 76.5839 73.375 76.559 73.4528 76.5408C73.4916 76.5317 73.5211 76.5243 73.5402 76.5194L73.5607 76.5139L73.5646 76.5129L73.5648 76.5128L73.5649 76.5128L73.5651 76.5128L73.5653 76.5127L74.1266 76.3551L74.1962 76.9347L85.1896 168.499L85.2568 169.059L69.5378 74.032ZM69.5378 74.032L69.5379 74.0319M69.5378 74.032L69.5379 74.0319M69.5379 74.0319L69.5383 74.0313M69.5379 74.0319L69.5383 74.0313M69.5383 74.0313L70.3035 72.9281M69.5383 74.0313L70.3035 72.9281M70.3035 72.9281L69 73.2654M70.3035 72.9281L69 73.2654M69 73.2654C67.8979 73.5506 67.2068 73.571 66.7885 73.4736C66.4119 73.3858 66.2664 73.2088 66.1927 72.9987C66.1025 72.7417 66.1047 72.3793 66.1778 71.9296C66.2298 71.61 66.3073 71.2974 66.3838 70.9889C66.4145 70.8647 66.4451 70.7413 66.4738 70.6183C66.5831 70.1504 66.5901 69.6259 66.5627 69.1085M69 73.2654L66.5627 69.1085M66.5627 69.1085C66.5414 68.7056 66.497 68.2794 66.4539 67.8654M66.5627 69.1085L66.4539 67.8654M66.4539 67.8654C66.4417 67.7477 66.4295 67.631 66.418 67.5161M66.4539 67.8654L66.418 67.5161M66.418 67.5161C66.365 66.9858 66.3248 66.4845 66.3372 66.0301M66.418 67.5161L66.3372 66.0301M66.3372 66.0301C66.3496 65.5733 66.4148 65.2017 66.5469 64.9172L66.3372 66.0301Z" fill="#171717" stroke="white"/>
<path d="M58.0605 76.2495L58.0759 75.7497L57.0366 75.7177L57.6583 76.5465C57.6584 76.5466 57.6584 76.5467 57.6585 76.5467C57.6601 76.549 57.6639 76.5546 57.6697 76.5635C57.6813 76.5812 57.7008 76.6123 57.7258 76.6569C57.7759 76.7463 57.8486 76.8905 57.926 77.093C58.0806 77.4973 58.2557 78.138 58.3059 79.0434L58.3059 79.0435C58.3137 79.1827 58.3209 79.3164 58.3278 79.446C58.4175 81.1134 58.47 82.0894 59.1693 85.0869L59.1693 85.087C59.5086 86.5407 59.139 87.3923 58.7481 87.8782C58.5447 88.1311 58.3215 88.302 58.1499 88.4091C58.0646 88.4624 57.9935 88.4989 57.9463 88.5211C57.9228 88.5322 57.9055 88.5396 57.8956 88.5437L57.8868 88.5473L57.8865 88.5474C57.886 88.5476 57.886 88.5476 57.8865 88.5474L57.5395 88.6736L57.5614 89.0455C57.7238 91.8073 59.2205 99.168 60.661 105.783C61.3838 109.103 62.0967 112.252 62.6288 114.572C62.8948 115.732 63.1157 116.684 63.2701 117.347C63.3473 117.678 63.4079 117.937 63.4492 118.113L63.4963 118.314L63.5084 118.365L63.5115 118.378L63.5122 118.381L63.5124 118.382C63.5125 118.382 63.5125 118.382 63.9991 118.268L63.5125 118.382L63.7549 119.41L64.3963 118.571L65.7794 116.763L65.8922 116.615L65.8814 116.43L63.6131 77.4971L63.5995 77.2621L63.4097 77.1229C62.5081 76.4618 61.1397 76.1295 60.0691 75.9555C59.5207 75.8664 59.0248 75.8151 58.6661 75.7861C58.4865 75.7715 58.3405 75.7625 58.2388 75.7571C58.1879 75.7544 58.148 75.7526 58.1205 75.7514L58.0885 75.7502L58.0797 75.7499L58.0772 75.7498L58.0764 75.7498L58.0761 75.7498C58.076 75.7498 58.0759 75.7497 58.0605 76.2495Z" fill="#171717" stroke="white"/>
<path d="M49.7731 84.2157L49.6051 83.9881L49.3235 84.0149L47.8339 84.1568L47.5229 84.1864L47.4132 84.4789L47.8813 84.6545C47.4132 84.4789 47.4132 84.479 47.4131 84.4791L47.4131 84.4793L47.4129 84.4797L47.4124 84.4811L47.4107 84.4857L47.4046 84.5022C47.3995 84.5162 47.3922 84.5364 47.383 84.5621C47.3648 84.6134 47.3392 84.6869 47.3092 84.7777C47.2491 84.9588 47.1705 85.2108 47.0962 85.494C46.9546 86.0335 46.8022 86.7807 46.8905 87.3549C46.8905 87.3547 46.8905 87.3549 46.8904 87.3553C46.8899 87.3635 46.8831 87.4703 46.671 87.7239C46.4676 87.9669 46.1647 88.2417 45.7985 88.5588C45.7258 88.6217 45.6508 88.6862 45.5743 88.752C45.2777 89.0068 44.9587 89.2809 44.6659 89.56C44.2982 89.9107 43.9408 90.2974 43.6935 90.7097C43.6104 90.8481 43.4338 90.9646 43.0386 90.9504C42.6409 90.9361 42.1185 90.7849 41.5416 90.5006C40.3876 89.9319 39.1749 88.9112 38.5245 87.8054C38.1628 87.1905 37.834 86.7735 37.5189 86.5545C37.3564 86.4416 37.1526 86.35 36.9217 86.3614C36.6739 86.3737 36.4847 86.4999 36.3607 86.6497C36.145 86.9104 36.0877 87.2803 36.0778 87.5522C36.0671 87.8478 36.108 88.1755 36.2051 88.4427C36.2421 88.5445 36.3434 88.7818 36.4966 89.1408C37.5938 91.7122 41.356 100.529 43.2763 110.565L43.7674 110.471L43.2763 110.565C45.4728 122.043 47.5256 138.405 47.6657 140.646L47.6931 141.085L48.1325 141.114L50.3313 141.255L50.6737 141.278L50.8175 140.966L50.8176 140.966L50.818 140.965L50.8201 140.96L50.829 140.941L50.8655 140.864C50.8981 140.795 50.9474 140.691 51.0134 140.555C51.1454 140.282 51.3442 139.879 51.6102 139.357C52.1423 138.312 52.9433 136.794 54.0165 134.904C56.163 131.123 59.3975 125.856 63.7462 119.916L63.8827 119.73L63.8291 119.505L63.3427 119.621C63.8291 119.505 63.829 119.505 63.829 119.505L63.8288 119.504L63.8281 119.501L63.8253 119.489L63.814 119.442L63.77 119.256C63.7313 119.093 63.6743 118.853 63.6015 118.545C63.4557 117.928 63.2461 117.037 62.9908 115.942C62.4801 113.752 61.7867 110.746 61.0557 107.481C59.592 100.943 57.983 93.3909 57.3833 89.2639L57.1832 89.293C57.1279 89.0163 56.9304 88.8376 56.9264 88.8373L56.9209 88.8369L56.9185 88.8367L56.917 88.8366L56.9117 88.8363L56.8851 88.8342C56.86 88.832 56.8203 88.8281 56.7672 88.8214C56.6608 88.8082 56.5005 88.784 56.2955 88.741C55.8854 88.6551 55.2975 88.4939 54.6052 88.1941C53.2234 87.5959 51.4175 86.4425 49.7731 84.2157Z" fill="#171717" stroke="white"/>
<path d="M88.4774 216.393L88.2728 215.937L88.4773 216.393L88.4772 216.393L88.4767 216.393L88.4749 216.394L88.4679 216.397L88.4412 216.409L88.3386 216.455C88.2495 216.494 88.1201 216.551 87.9587 216.621C87.636 216.762 87.1845 216.956 86.6694 217.17C85.6432 217.596 84.3496 218.109 83.3169 218.435M88.4774 216.393L80.8895 217.282C81.0362 217.674 81.0963 217.951 81.1348 218.145C81.1377 218.16 81.1407 218.175 81.1439 218.191C81.159 218.269 81.1764 218.358 81.1963 218.429C81.216 218.498 81.2737 218.698 81.4658 218.826C81.6748 218.965 81.8933 218.926 81.9852 218.906C82.0871 218.882 82.2011 218.839 82.3013 218.8C82.3292 218.789 82.3586 218.778 82.3897 218.765C82.6017 218.682 82.8919 218.569 83.3169 218.435M88.4774 216.393L88.8101 216.244L88.7698 215.881L88.5569 213.966L88.5074 213.522H88.0602H88.0601H88.0601H88.0599L88.0591 213.522L88.0533 213.522L88.0276 213.521C88.0045 213.521 87.9696 213.52 87.9247 213.519C87.8348 213.516 87.7054 213.511 87.5503 213.5C87.2379 213.477 86.8316 213.433 86.438 213.347C86.0341 213.259 85.6922 213.136 85.4743 212.984C85.2858 212.852 85.2427 212.743 85.2547 212.622C85.2596 212.614 85.2693 212.601 85.287 212.581C85.3356 212.527 85.4201 212.456 85.5529 212.369C85.8184 212.197 86.212 212.008 86.7162 211.813C87.7196 211.425 89.0794 211.042 90.5231 210.719C91.9643 210.397 93.4724 210.137 94.7669 209.992C96.0852 209.843 97.1132 209.822 97.635 209.935C98.8863 210.207 100.505 210.423 101.955 210.543C103.383 210.662 104.724 210.697 105.384 210.577C106.002 210.465 106.96 210.19 107.741 209.952C108.137 209.831 108.495 209.717 108.755 209.633C108.884 209.592 108.99 209.557 109.062 209.533L109.147 209.505L109.169 209.498L109.174 209.496L109.176 209.496L109.176 209.496L109.176 209.496L109.018 209.021L109.177 209.496L109.595 209.356L109.509 208.923L108.658 204.668L108.555 204.157L108.049 204.28L108.049 204.28L108.049 204.28L108.048 204.28L108.041 204.282L108.013 204.288C107.988 204.294 107.951 204.303 107.904 204.314C107.808 204.335 107.67 204.366 107.501 204.401C107.161 204.471 106.7 204.559 106.207 204.63C105.713 204.702 105.198 204.755 104.751 204.759C104.281 204.764 103.967 204.713 103.816 204.638C103.634 204.547 103.544 204.451 103.465 204.347C103.442 204.318 103.421 204.288 103.396 204.252L103.386 204.238C103.364 204.208 103.339 204.172 103.314 204.138C103.253 204.056 103.174 203.958 103.065 203.866C102.833 203.668 102.539 203.559 102.14 203.524C101.755 203.491 101.243 203.525 100.538 203.633M88.4774 216.393L100.538 203.633M83.3169 218.435L83.1663 217.958L83.3169 218.435C83.3169 218.435 83.3169 218.435 83.3169 218.435ZM100.538 203.633C99.1557 203.846 98.0928 204.005 97.3756 204.112C97.0798 204.155 96.8428 204.19 96.6664 204.216C96.5928 204.1 96.4918 203.976 96.3541 203.856C95.9279 203.486 95.2099 203.202 94.0178 203.202C93.337 203.202 92.664 203.172 91.9956 203.143C91.5685 203.125 91.1433 203.106 90.7191 203.096C89.6681 203.069 88.6418 203.092 87.8164 203.327C87.5239 203.411 86.9435 203.552 86.1537 203.743C85.9726 203.787 85.7805 203.833 85.5784 203.883C84.5035 204.144 83.1628 204.474 81.7345 204.854C78.889 205.612 75.657 206.58 73.4834 207.612C72.4153 208.119 71.5574 208.561 70.9149 208.958C70.29 209.345 69.7999 209.729 69.5472 210.144C69.4128 210.365 69.3318 210.617 69.3557 210.889C69.3794 211.161 69.5014 211.393 69.6652 211.588C69.9751 211.955 70.5045 212.266 71.1489 212.561L71.1489 212.561C72.0549 212.976 72.6057 213.322 73.0614 213.608C73.2349 213.717 73.3946 213.818 73.5549 213.91C73.8444 214.076 74.1355 214.213 74.4868 214.287C74.6701 214.325 74.8613 214.344 75.068 214.345C75.0667 214.48 75.0718 214.63 75.0893 214.783C75.12 215.052 75.1932 215.375 75.3727 215.652C75.5658 215.949 75.8745 216.178 76.3075 216.221L76.3075 216.221C76.5479 216.245 76.885 216.245 77.2399 216.245C77.3246 216.245 77.4103 216.245 77.4959 216.245C77.9615 216.247 78.4702 216.257 78.9598 216.314C79.4532 216.371 79.8955 216.472 80.2388 216.638C80.5747 216.8 80.7873 217.01 80.8895 217.282L100.538 203.633Z" fill="#171717" stroke="white"/>
<path d="M75.2288 78.7331L75.2949 79.2287C75.2288 78.7331 75.2289 78.7331 75.229 78.7331L75.2292 78.733L75.2298 78.7329L75.2318 78.7327L75.2394 78.7317L75.2678 78.728C75.2924 78.7249 75.3283 78.7204 75.3741 78.7148C75.4657 78.7038 75.5971 78.6885 75.7579 78.6716C76.0791 78.6378 76.5196 78.5971 76.9952 78.5699C77.4694 78.5428 77.9866 78.5287 78.4589 78.5496C78.9163 78.57 79.387 78.6248 79.736 78.7644L75.2288 78.7331ZM75.2288 78.7331L74.7449 78.7976L74.7979 79.283L76.1806 91.9438L76.1927 92.054L76.2502 92.1489L76.6777 91.8895C76.2502 92.1489 76.2503 92.1489 76.2503 92.149L76.2505 92.1494L76.2514 92.1508L76.2546 92.1561L76.2672 92.1768L76.3163 92.2572C76.3593 92.3275 76.4226 92.4306 76.5039 92.5623C76.6665 92.8257 76.9013 93.2036 77.1907 93.6623C77.7693 94.5794 78.5668 95.8208 79.4417 97.1163C80.3158 98.4107 81.2707 99.7647 82.1636 100.905C83.0437 102.029 83.9029 102.997 84.5839 103.471C85.7467 104.279 86.7474 105.404 87.4642 106.342C87.8205 106.809 88.1023 107.223 88.2944 107.521C88.3904 107.669 88.4638 107.788 88.5128 107.869C88.5373 107.909 88.5556 107.94 88.5676 107.961L88.5808 107.983L88.5838 107.988L88.5843 107.989M75.2288 78.7331L88.5843 107.989M83.6993 80.6118L83.8475 80.1343L83.8474 80.1342L83.847 80.1341L83.8454 80.1336L83.8389 80.1316L83.8131 80.1235L83.7138 80.0926C83.6277 80.0657 83.5035 80.0267 83.351 79.9787C83.046 79.8825 82.6284 79.7499 82.1778 79.6041C81.2697 79.3103 80.2494 78.9698 79.7361 78.7645L83.6993 80.6118ZM83.6993 80.6118C84.0529 80.2582 84.0529 80.2583 84.053 80.2584L84.0531 80.2585L84.0535 80.2589L84.0547 80.2601L84.0586 80.264L84.072 80.2776C84.0834 80.2892 84.0996 80.3059 84.12 80.3272C84.1607 80.3697 84.2182 80.4307 84.2872 80.5067C84.4248 80.6582 84.6102 80.8715 84.8001 81.1176C84.9889 81.3625 85.1884 81.6477 85.3498 81.9427C85.464 82.1514 85.5695 82.3833 85.6331 82.6218C85.6534 82.6334 85.6749 82.6457 85.6974 82.6588C85.8691 82.7593 86.1023 82.9087 86.3509 83.1061C86.8388 83.4936 87.4326 84.1032 87.688 84.9331C87.765 85.1833 87.8734 85.3169 88.0009 85.4179C88.145 85.5321 88.3208 85.6134 88.5924 85.7392C88.6049 85.745 88.6176 85.7509 88.6305 85.7568C89.2136 86.027 89.9556 86.3991 90.6156 87.4792C90.8536 87.8688 91.4145 88.3916 92.1965 88.9793C92.9608 89.5538 93.8795 90.1493 94.7704 90.6904C95.6599 91.2307 96.5142 91.7123 97.1466 92.059C97.4627 92.2323 97.7228 92.3717 97.9037 92.4675C97.9941 92.5155 98.0646 92.5525 98.1124 92.5775L98.1667 92.6058L98.1803 92.6128L98.1836 92.6145L98.1843 92.6149L98.1845 92.615L97.9552 93.0593M83.6993 80.6118L84.0529 80.2582L83.9655 80.1709L83.8475 80.1343L83.6993 80.6118ZM83.6993 80.6118L96.6782 88.4848M88.5843 107.989L88.5844 107.989L88.5844 107.989L88.5844 107.989L88.6926 108.179L88.9051 108.228C101.213 111.093 110.833 115.437 113.533 117.202C114.883 118.085 116.055 119.1 116.893 119.898C117.311 120.297 117.643 120.639 117.871 120.881C117.984 121.002 118.072 121.098 118.13 121.163C118.143 121.177 118.154 121.19 118.164 121.201C118.177 121.215 118.187 121.227 118.195 121.237L118.211 121.255L118.215 121.259L118.216 121.26L118.216 121.26L118.216 121.26L118.39 121.462L118.655 121.429L118.594 120.933C118.655 121.429 118.655 121.429 118.655 121.429L118.656 121.429L118.657 121.429L118.661 121.428L118.674 121.427L118.721 121.42C118.762 121.415 118.822 121.406 118.897 121.395C119.048 121.371 119.263 121.335 119.524 121.284C120.044 121.181 120.754 121.017 121.504 120.769C122.251 120.522 123.055 120.187 123.756 119.738C124.454 119.29 125.085 118.707 125.432 117.949C126.684 115.216 126.528 111.762 124.593 106.711L124.126 106.89L124.593 106.711C123.62 104.169 121.446 100.122 119.306 96.4133C117.164 92.7002 115.027 89.2792 114.108 87.9829C113.184 86.6776 111.775 85.0785 110.546 83.9996C109.941 83.4689 109.334 83.0225 108.825 82.8241C108.578 82.7277 108.261 82.6527 107.958 82.7554C107.602 82.8755 107.422 83.1769 107.359 83.4929C107.291 83.8295 107.114 84.2896 106.864 84.8138C106.618 85.3302 106.316 85.8788 106.021 86.3841C105.726 86.8885 105.441 87.3444 105.229 87.6745C105.129 87.8308 105.045 87.9585 104.985 88.0494C101.735 88.8927 99.7096 88.877 98.5191 88.6704C97.9138 88.5654 97.5233 88.411 97.2951 88.2941C97.1807 88.2355 97.106 88.1859 97.0645 88.1555C97.0437 88.1403 97.0311 88.1298 97.026 88.1254C97.0251 88.1246 97.0244 88.124 97.0239 88.1236M88.5843 107.989L97.0236 88.1234C97.023 88.1228 97.0231 88.1229 97.0239 88.1236M97.0239 88.1236L97.0264 88.126L97.0288 88.1283L97.0302 88.1297L97.031 88.1305C97.0311 88.1306 97.0311 88.1306 97.0276 88.1343M97.0239 88.1236L97.0276 88.1343M96.6782 88.4848L96.2351 88.7164L96.2352 88.7166L96.2357 88.7176L96.2377 88.7213L96.2456 88.7365L96.2766 88.7962L96.3957 89.0256C96.4986 89.2244 96.6466 89.5113 96.8266 89.8629C97.1866 90.5663 97.6742 91.5281 98.1848 92.5626C98.1964 92.5861 98.208 92.6096 98.2196 92.6331L98.1845 92.615L97.9552 93.0593M96.6782 88.4848L96.235 88.7163L97.0276 88.1343M96.6782 88.4848L97.0276 88.1343M97.9552 93.0593L98.3458 92.8896C98.3458 92.8896 98.3458 92.8895 98.3457 92.8895L97.9552 93.0593ZM99.5197 95.445C99.3656 95.0795 99.2144 94.7237 99.0757 94.3988C99.7874 95.8956 100.415 97.3041 100.67 98.1048L100.67 98.1049C100.887 98.7876 101.108 99.2896 101.336 99.6901C101.313 99.658 101.291 99.6258 101.269 99.5936C101.067 99.2955 100.938 99.0621 100.881 98.8733C100.712 98.3088 100.086 96.7877 99.5197 95.445ZM103.132 103.104C103.015 102.167 102.515 101.344 102.041 100.668C102.125 100.764 102.206 100.853 102.284 100.939C102.548 101.229 102.787 101.493 103.061 101.939C103.232 102.216 103.37 102.619 103.501 103.141C103.587 103.484 103.662 103.849 103.743 104.238C103.785 104.441 103.829 104.651 103.876 104.868C104.141 106.086 104.505 107.475 105.335 108.484C105.519 108.708 105.672 109.032 105.765 109.366C105.809 109.524 105.838 109.675 105.85 109.808C105.845 109.802 105.84 109.796 105.834 109.791C105.687 109.63 105.506 109.395 105.289 109.063C103.543 106.393 103.341 104.777 103.134 103.117L103.132 103.104L103.132 103.104ZM105.835 110.155C105.835 110.155 105.836 110.153 105.837 110.149C105.836 110.153 105.835 110.155 105.835 110.155Z" fill="#171717" stroke="white"/>
<path d="M6.44266 209.674L6.16086 209.685L6.02389 209.931C5.7988 210.336 5.67555 210.887 5.68619 211.364C5.69154 211.605 5.73136 211.865 5.83939 212.093C5.95117 212.33 6.1546 212.563 6.48154 212.645C6.52733 212.656 6.57078 212.66 6.58258 212.661L6.58404 212.661C6.60462 212.663 6.62702 212.664 6.64908 212.665C6.69378 212.668 6.75163 212.67 6.82016 212.671C6.95799 212.675 7.15119 212.677 7.39456 212.679C7.88193 212.683 8.57863 212.685 9.45366 212.685C11.2041 212.685 13.673 212.678 16.6188 212.664C22.5106 212.638 30.3128 212.589 38.0969 212.536C45.8811 212.482 53.6475 212.425 59.4679 212.38C62.3781 212.358 64.8017 212.339 66.4979 212.326L68.4663 212.311L68.9848 212.307L69.1177 212.305L69.1513 212.305L69.1598 212.305L69.1619 212.305C69.1624 212.305 69.1626 212.305 69.1586 211.805L69.1626 212.305L69.9856 212.299L69.6024 211.575C69.6025 211.575 69.6023 211.575 69.602 211.574C69.6018 211.574 69.6015 211.573 69.6011 211.572C69.5993 211.568 69.5956 211.561 69.5905 211.549C69.5804 211.526 69.5653 211.49 69.549 211.442C69.516 211.345 69.4812 211.209 69.4714 211.055C69.4526 210.762 69.5204 210.394 69.9116 210.055L70.9544 209.152L69.5749 209.177L54.3437 209.461L28.4237 208.115L28.3672 208.108C28.3169 208.101 28.2432 208.091 28.1488 208.079C27.96 208.056 27.6885 208.023 27.356 207.986C26.6915 207.912 25.7813 207.822 24.8006 207.76C23.8213 207.697 22.7636 207.661 21.8064 207.695C20.8644 207.728 19.9636 207.831 19.3308 208.076C18.765 208.295 18.3664 208.491 18.0901 208.67C17.8292 208.839 17.6168 209.031 17.5173 209.269L6.44266 209.674Z" fill="#171717" stroke="white"/>
<path d="M167.707 207.534L167.32 207.852C167.707 207.534 167.707 207.535 167.707 207.535L167.709 207.537L167.714 207.543L167.733 207.567C167.75 207.587 167.775 207.618 167.807 207.658C167.872 207.739 167.968 207.86 168.092 208.017C168.34 208.333 168.7 208.799 169.152 209.404C170.057 210.614 171.33 212.381 172.807 214.61C175.76 219.069 179.533 225.384 182.805 232.811C189.341 247.643 193.927 267.01 185.865 284.863C180.895 296.738 168.945 304.837 158.335 309.955C153.016 312.521 148.007 314.351 144.328 315.54C142.488 316.134 140.979 316.568 139.93 316.854C139.447 316.986 139.062 317.086 138.785 317.156C138.804 317.224 138.823 317.298 138.844 317.378C138.879 317.508 138.917 317.653 138.957 317.811C139.138 318.505 139.374 319.44 139.597 320.403C139.819 321.365 140.031 322.362 140.16 323.178C140.224 323.584 140.27 323.957 140.285 324.262C140.292 324.415 140.292 324.561 140.281 324.691C140.27 324.812 140.246 324.964 140.177 325.102C139.944 325.568 139.706 325.889 139.517 326.099C139.486 326.134 139.456 326.165 139.428 326.194L140.078 329.315L140.154 329.681L139.825 329.857L138.326 330.665L146.172 361.209L146.281 361.635L145.873 361.798L143.746 362.649L143.226 362.857L143.078 362.317L134.692 331.709C134.432 331.757 134.084 331.805 133.714 331.814C133.329 331.824 132.888 331.792 132.488 331.651C132.08 331.506 131.684 331.234 131.471 330.755C131.184 330.11 130.828 329.253 130.544 328.561C130.401 328.214 130.277 327.907 130.188 327.687C130.181 327.671 130.175 327.655 130.169 327.64C129.944 327.583 129.708 327.444 129.465 327.2C128.963 326.698 128.337 325.664 127.605 323.552C127.542 323.553 127.474 323.552 127.401 323.549C127.043 323.537 126.554 323.484 126.043 323.313C125.53 323.143 124.984 322.85 124.534 322.352C124.179 321.96 123.898 321.456 123.737 320.821C123.401 320.908 122.91 321.032 122.281 321.177C121.01 321.47 119.177 321.853 116.915 322.211C112.394 322.929 106.156 323.554 99.2932 323.179C85.5744 322.43 69.2811 317.677 59.3016 301.595L59.2971 301.588C52.4913 290.196 50.2201 273.704 49.6344 260.128C49.3411 253.327 49.47 247.234 49.6722 242.842C49.7733 240.645 49.8927 238.873 49.987 237.649C50.0341 237.037 50.075 236.562 50.1041 236.24C50.1186 236.079 50.1303 235.955 50.1383 235.872L50.1475 235.778L50.1499 235.754L50.1505 235.748L50.1507 235.746C50.1507 235.746 50.1507 235.746 50.6482 235.796L50.1507 235.746L50.185 235.411L167.707 207.534ZM167.707 207.534L167.631 207.442L167.522 207.394C164.894 206.238 161.301 204.178 158.35 202.397C156.877 201.508 155.57 200.692 154.632 200.098C154.162 199.801 153.785 199.56 153.525 199.393C153.474 199.36 153.427 199.33 153.386 199.303C153.321 199.262 153.268 199.228 153.227 199.201L153.15 199.151L153.131 199.138L153.126 199.135L153.125 199.134L153.124 199.134L152.852 199.553L153.124 199.134L152.944 199.017L152.735 199.067L147.801 200.251C140.131 184.881 140.442 176.701 142.504 172.401C143.542 170.237 145.042 169.011 146.279 168.323C146.899 167.979 147.453 167.77 147.849 167.647C148.046 167.586 148.204 167.547 148.31 167.523C148.363 167.511 148.403 167.503 148.428 167.498L148.455 167.494L148.459 167.493L148.46 167.493L148.46 167.493L148.46 167.493L148.929 167.421L148.881 166.948C147.438 152.893 143.851 144.665 140.185 139.552C138.353 136.996 136.509 135.23 134.924 133.91C134.212 133.317 133.55 132.813 132.973 132.373C132.91 132.325 132.848 132.277 132.787 132.231C132.16 131.752 131.657 131.361 131.283 130.999L130.936 131.359L131.283 130.999C129.934 129.695 128.104 128.465 126.051 127.086C125.615 126.793 125.168 126.493 124.714 126.184C122.103 124.408 119.181 122.301 116.289 119.409C114.76 117.88 112.271 116.447 109.442 115.154C106.601 113.855 103.367 112.674 100.306 111.668C97.244 110.66 94.3468 109.823 92.1783 109.213C91.6982 109.077 91.2554 108.954 90.8545 108.842C90.3472 108.7 89.907 108.577 89.5433 108.473C89.2182 108.38 88.961 108.305 88.7767 108.246C88.6841 108.217 88.6151 108.194 88.5673 108.176C88.5536 108.171 88.5434 108.167 88.5362 108.164C88.5124 108.144 88.4696 108.102 88.4054 108.023C88.3271 107.927 88.2372 107.801 88.1291 107.642C88.0698 107.555 88.0053 107.458 87.936 107.354C87.761 107.092 87.5549 106.782 87.3222 106.462C86.664 105.557 85.738 104.485 84.3772 103.692C83.8194 103.366 83.1083 102.667 82.3341 101.744C81.5709 100.834 80.7833 99.7518 80.0699 98.7081C79.3573 97.6655 78.7232 96.6682 78.2671 95.9311C78.0391 95.5628 77.8559 95.2598 77.7298 95.0493C77.6668 94.944 77.6181 94.8619 77.5852 94.8062L77.548 94.7431L77.5387 94.7272L77.5364 94.7233L77.5359 94.7224L77.5358 94.7222L77.1039 94.9741M167.707 207.534L50.5072 235.317L50.5076 235.317L50.5079 235.317L50.5134 235.315L50.5397 235.307C50.5638 235.299 50.601 235.287 50.6504 235.271C50.7492 235.237 50.8967 235.185 51.0854 235.112C51.463 234.965 52.0049 234.734 52.6521 234.398C53.9472 233.726 55.658 232.64 57.3165 230.983C60.6187 227.685 63.7541 222.09 62.9168 212.88L62.8674 212.336L63.4135 212.335L70.0803 212.317L70.2503 212.316L70.3852 212.42L70.3852 212.42L70.3853 212.42L70.3861 212.42L70.3902 212.423L70.4085 212.437C70.4153 212.442 70.4235 212.448 70.433 212.455C70.4469 212.466 70.4638 212.478 70.4834 212.492C70.5496 212.541 70.6471 212.61 70.7703 212.695C71.0171 212.865 71.3646 213.092 71.7669 213.323C72.5907 213.796 73.572 214.242 74.3754 214.304L74.8668 214.342L74.8362 214.832L74.8362 214.832L74.8361 214.833L74.8361 214.833L74.8361 214.834L74.8358 214.843C74.8355 214.853 74.8351 214.872 74.8354 214.896C74.8358 214.944 74.8384 215.017 74.8477 215.106C74.8664 215.285 74.9106 215.515 75.0079 215.737C75.1041 215.957 75.247 216.159 75.4604 216.307C75.6709 216.454 75.9844 216.572 76.4648 216.572C76.7393 216.572 77.0107 216.564 77.2837 216.555L77.2855 216.555C77.5549 216.546 77.8278 216.538 78.0915 216.539C78.6142 216.541 79.153 216.581 79.638 216.764C80.1433 216.955 80.5721 217.295 80.8738 217.851C81.0925 218.255 81.2363 218.756 81.3104 219.371L89.1156 216.728L88.7739 213.653C88.7372 213.644 88.6986 213.634 88.6587 213.623C88.4036 213.555 88.0475 213.444 87.7738 213.284C87.6426 213.207 87.4701 213.086 87.3606 212.901C87.3012 212.801 87.2564 212.675 87.2564 212.53C87.2564 212.383 87.3018 212.252 87.3694 212.142C87.4939 211.94 87.7017 211.796 87.9144 211.685C88.1392 211.568 88.4336 211.456 88.804 211.345L88.9477 211.824L88.804 211.345C89.0221 211.279 89.2395 211.211 89.4595 211.143C90.6482 210.772 91.9125 210.378 93.7606 210.209C95.9327 210.009 98.8982 210.119 103.551 210.89L110.175 209.591L108.624 203.624C108.611 203.631 108.598 203.637 108.585 203.643C108.21 203.824 107.687 204.048 107.102 204.218C105.983 204.543 104.411 204.73 103.347 203.666C103.036 203.355 102.519 203.155 101.833 203.068C101.158 202.982 100.387 203.014 99.6447 203.1C98.9061 203.186 98.216 203.324 97.709 203.441C97.4561 203.499 97.2502 203.552 97.1082 203.59C97.0711 203.6 97.0384 203.609 97.0104 203.616C96.9849 203.623 96.9632 203.63 96.9457 203.634L96.9046 203.646L96.8948 203.649L96.8927 203.65L96.8925 203.65L96.8923 203.65L96.7646 203.688L96.6347 203.657L96.6346 203.657L96.634 203.657L96.6313 203.656L96.6201 203.654L96.5756 203.643C96.5362 203.634 96.4779 203.621 96.4027 203.603C96.2524 203.569 96.0346 203.52 95.7661 203.462C95.2288 203.345 94.4893 203.191 93.6801 203.042C92.0396 202.738 90.1845 202.468 89.1211 202.535C88.8878 202.549 88.4363 202.636 87.7872 202.795C87.1507 202.951 86.358 203.168 85.4615 203.429C83.6692 203.95 81.4763 204.64 79.3161 205.348C77.1562 206.056 75.0329 206.781 73.3801 207.374C72.5534 207.67 71.8471 207.932 71.314 208.141C70.7594 208.358 70.4409 208.5 70.3469 208.559C70.1368 208.691 69.8575 208.783 69.5726 208.854C69.2775 208.928 68.9326 208.989 68.5638 209.04C67.8257 209.143 66.9588 209.21 66.1373 209.255C65.3141 209.3 64.5277 209.322 63.9478 209.333C63.6576 209.339 63.4186 209.342 63.252 209.343C63.189 209.344 63.1363 209.344 63.0951 209.344L63.0587 209.344L63.0076 209.344L62.9944 209.344H62.9909H62.99H62.9897C62.9896 209.344 62.9896 209.344 62.9896 208.844V209.344H62.5208L62.4906 208.877L62.4906 208.876L62.4905 208.875L62.49 208.868L62.4882 208.841C62.4865 208.817 62.4839 208.78 62.4804 208.732C62.4733 208.637 62.4624 208.495 62.447 208.314C62.4163 207.95 62.3679 207.427 62.2975 206.789C62.1566 205.512 61.9279 203.78 61.5765 201.953C61.2247 200.123 60.7525 198.213 60.1286 196.575C59.4984 194.921 58.7402 193.618 57.8578 192.925C55.9577 191.432 53.7028 190.709 51.9019 190.363C51.0046 190.19 50.2283 190.113 49.6779 190.078C49.4029 190.061 49.1849 190.055 49.037 190.053C48.9631 190.052 48.9068 190.052 48.8697 190.052L48.8288 190.052L48.8195 190.053L48.8179 190.053L48.8177 190.053H48.8176L48.4754 190.062L48.3434 189.745L48.8048 189.553C48.3434 189.745 48.3433 189.745 48.3432 189.745L48.3429 189.744L48.3419 189.742L48.3385 189.734L48.3261 189.703C48.3153 189.677 48.2997 189.638 48.2796 189.587C48.2394 189.484 48.1813 189.334 48.1087 189.137C47.9634 188.742 47.7597 188.162 47.5233 187.411C47.0506 185.91 46.4472 183.729 45.9201 180.995C44.8661 175.528 44.1159 167.847 45.3306 158.987L45.3961 158.509L45.876 158.558L45.876 158.558L45.8764 158.558L45.878 158.558L45.8849 158.559L45.9125 158.561L46.0198 158.572C46.1134 158.58 46.2492 158.593 46.4173 158.607C46.7536 158.636 47.2183 158.673 47.732 158.705C48.7716 158.769 49.9707 158.81 50.7232 158.735C51.2662 158.681 51.7983 158.868 52.2608 159.128C52.7289 159.392 53.1737 159.757 53.5604 160.129C54.3023 160.844 54.903 161.661 55.0888 162.013C55.091 162.015 55.0938 162.018 55.097 162.021C55.121 162.044 55.161 162.078 55.2204 162.121C55.339 162.208 55.5085 162.314 55.7213 162.43C56.1457 162.661 56.7102 162.913 57.3135 163.113C57.9196 163.314 58.543 163.455 59.0906 163.478C59.6487 163.502 60.0538 163.4 60.3031 163.203C60.9663 162.677 61.2198 162.071 61.3138 161.601C61.3615 161.363 61.3682 161.158 61.3634 161.015C61.3611 160.944 61.3559 160.889 61.3517 160.855C61.3496 160.837 61.3478 160.825 61.3468 160.819L61.3465 160.817L61.3464 160.816L61.3463 160.816L61.3462 160.815L61.346 160.814L61.3459 160.813L61.286 160.504L61.5428 160.318L61.5429 160.318L61.5432 160.317L61.5435 160.317L61.5438 160.317L61.5457 160.316L61.5623 160.303C61.5779 160.291 61.6025 160.271 61.6347 160.245C61.6992 160.192 61.7937 160.11 61.907 160.001C62.1342 159.782 62.4339 159.456 62.7194 159.033C63.2891 158.187 63.7941 156.967 63.5765 155.419L63.4067 154.211L64.3748 154.952L64.3748 154.952L64.375 154.952L64.3752 154.952L64.3754 154.952L64.3769 154.953L64.3885 154.962C64.3995 154.97 64.417 154.983 64.4404 154.999C64.4873 155.032 64.5581 155.08 64.649 155.138C64.8314 155.253 65.0921 155.404 65.4025 155.546C66.0362 155.834 66.815 156.054 67.5461 155.921L68.1389 155.813L68.1355 156.416L67.6355 156.413C68.1355 156.416 68.1355 156.416 68.1355 156.416L68.1355 156.417L68.1355 156.419L68.1354 156.429L68.1352 156.469L68.1345 156.626C68.134 156.763 68.1334 156.965 68.1329 157.222C68.1319 157.736 68.1317 158.473 68.1346 159.363C68.1404 161.142 68.1587 163.531 68.2085 165.971C68.2583 168.412 68.3395 170.898 68.4709 172.874C68.5367 173.863 68.6144 174.716 68.7058 175.368C68.7515 175.694 68.7996 175.963 68.8491 176.169C68.8758 176.28 68.9004 176.362 68.9208 176.419C69.0339 176.34 69.1985 176.194 69.4373 175.957C69.561 175.834 69.6975 175.694 69.8475 175.54C70.4304 174.942 71.2168 174.136 72.244 173.317C74.78 171.295 78.8027 169.171 85.2732 169.35C84.8517 165.29 82.7948 147.637 80.7896 130.546C79.7291 121.506 78.6835 112.628 77.9031 106.01C77.5129 102.701 77.1889 99.9563 76.9625 98.0393L76.7001 95.8172L76.631 95.233L76.6133 95.0834L76.6088 95.0455L76.6077 95.036L76.6074 95.0336C76.6074 95.0331 76.6073 95.0328 77.1039 94.9741M77.1039 94.9741L76.6073 95.0328L77.5358 94.7222L77.1039 94.9741ZM109.985 211.696C111.132 211.721 112.412 211.751 113.705 211.785C115.758 211.838 117.846 211.9 119.489 211.967C120.31 212 121.023 212.035 121.565 212.07C121.836 212.087 122.068 212.106 122.251 212.124C122.422 212.141 122.584 212.162 122.695 212.192C122.774 212.212 122.965 212.237 123.286 212.257C123.594 212.277 123.983 212.289 124.431 212.298C125.326 212.314 126.438 212.312 127.565 212.308C127.719 212.307 127.875 212.306 128.029 212.306C128.999 212.302 129.957 212.298 130.769 212.304C131.693 212.312 132.476 212.333 132.858 212.394C133.405 212.48 133.983 212.312 134.294 212.052C134.444 211.927 134.497 211.811 134.507 211.725C134.516 211.648 134.499 211.508 134.319 211.302L109.985 211.696ZM109.985 211.696C110.209 211.658 110.407 211.629 110.564 211.611C111.319 211.527 111.804 211.225 112.1 210.904C112.191 210.805 112.262 210.708 112.316 210.62L112.601 210.618C112.984 210.616 113.532 210.612 114.193 210.608C115.515 210.599 117.291 210.586 119.105 210.568C120.919 210.55 122.771 210.528 124.246 210.502C125.702 210.475 126.831 210.444 127.164 210.405L127.164 210.405C127.721 210.34 129.332 210.32 130.937 210.46C131.735 210.53 132.511 210.638 133.14 210.793C133.454 210.871 133.72 210.957 133.928 211.051C134.142 211.147 134.262 211.237 134.319 211.302L109.985 211.696ZM55.1036 162.041L55.1035 162.041L55.1036 162.041Z" fill="#171717" stroke="white"/>
<path d="M61.3571 208.277C61.8547 208.229 61.8547 208.228 61.8547 208.228L61.8547 208.228L61.8545 208.226L61.8539 208.22L61.8515 208.196L61.8419 208.102C61.8334 208.02 61.8207 207.899 61.8038 207.746C61.7699 207.438 61.7188 206.996 61.6503 206.457C61.5133 205.379 61.3059 203.91 61.0247 202.35C60.7438 200.792 60.3875 199.132 59.9511 197.676C59.5201 196.237 58.9924 194.931 58.3403 194.131C57.6862 193.328 56.6993 192.699 55.6355 192.205C54.5646 191.707 53.374 191.327 52.2711 191.041C51.1664 190.755 50.1379 190.56 49.3862 190.437C49.0099 190.376 48.7021 190.332 48.4876 190.303C48.4775 190.302 48.4677 190.301 48.458 190.3C45.0687 181.024 44.5353 172.919 44.631 167.433C44.6687 165.278 44.8028 163.534 44.9003 162.266C44.9285 161.9 44.9536 161.574 44.9724 161.289C44.9934 160.972 45.0071 160.699 45.0075 160.479C45.0078 160.278 44.9988 160.055 44.9405 159.882C44.9131 159.8 44.8413 159.624 44.6527 159.519C44.427 159.393 44.2088 159.458 44.0905 159.52C43.9804 159.578 43.8949 159.662 43.8357 159.727C43.771 159.798 43.7064 159.882 43.6422 159.973L43.6422 159.973C42.7915 161.184 41.0744 162.343 39.4996 163.219C38.7241 163.65 38.0042 164.002 37.4782 164.245C37.2153 164.367 37.0015 164.461 36.8539 164.525C36.8268 164.537 36.8019 164.547 36.7793 164.557L20.0629 160.202L19.4763 160.049L19.4379 160.654L19.9369 160.686C19.4379 160.654 19.4379 160.655 19.4379 160.655L19.4378 160.656L19.4375 160.661L19.4362 160.681L19.4312 160.759L19.4118 161.063C19.3948 161.33 19.3696 161.721 19.3374 162.221C19.2729 163.221 19.18 164.653 19.0661 166.382C18.8384 169.841 18.527 174.489 18.1924 179.247C17.8577 184.004 17.4999 188.87 17.1793 192.766C16.8569 196.683 16.5756 199.568 16.3979 200.407C16.0306 202.138 15.8658 203.553 16.5092 204.647C17.1596 205.753 18.533 206.371 20.7161 206.85L20.7446 206.856L20.7736 206.859C35.1481 208.297 45.2951 208.776 51.8528 208.896C55.1317 208.956 57.5133 208.926 59.0775 208.881C59.8596 208.859 60.4373 208.832 60.8206 208.812C61.0123 208.801 61.1554 208.792 61.2511 208.786C61.299 208.783 61.335 208.78 61.3593 208.778L61.3871 208.776L61.3945 208.775L61.3965 208.775L61.3971 208.775C61.3973 208.775 61.3975 208.775 61.3571 208.277ZM61.3571 208.277L61.8547 208.229L61.9038 208.734L61.3975 208.775L61.3571 208.277Z" fill="#171717" stroke="white"/>
<path d="M25.1312 212.99L24.2493 212.993L24.7046 213.748C24.949 214.154 25.2524 215.014 25.591 216.283C25.9241 217.533 26.2775 219.123 26.6373 220.945C27.3567 224.588 28.0972 229.132 28.7493 233.673C29.4012 238.213 29.9638 242.744 30.3278 246.359C30.5099 248.167 30.6419 249.742 30.7107 250.972C30.7807 252.223 30.7818 253.067 30.7209 253.448C30.5663 254.414 30.6565 255.604 30.8486 256.897C31.0107 257.988 31.252 259.192 31.5027 260.443C31.5504 260.681 31.5983 260.92 31.6462 261.161C32.2508 264.201 32.8366 267.465 32.5608 270.36C32.413 271.912 32.6163 274.456 32.9903 277.397C33.3664 280.354 33.922 283.763 34.4987 287.072C34.8908 289.323 35.2936 291.532 35.6566 293.523C35.8273 294.459 35.9892 295.347 36.1371 296.169C36.6039 298.762 36.923 300.652 36.9564 301.355C36.994 302.144 37.2242 303.467 37.5441 305.06C37.815 306.409 38.1564 307.98 38.516 309.635C38.5843 309.949 38.6533 310.267 38.7226 310.586C39.5935 314.603 40.5079 318.933 40.7881 321.806C41.0756 324.753 41.7924 327.938 42.4334 330.378C42.7545 331.6 43.0577 332.639 43.2808 333.373C43.3924 333.74 43.484 334.031 43.5478 334.231C43.5705 334.301 43.5896 334.361 43.6049 334.408C43.4414 335.202 43.4612 336.11 43.571 337.007C43.6881 337.964 43.9118 338.943 44.1552 339.818C44.399 340.694 44.665 341.473 44.8699 342.034C44.9724 342.315 45.0599 342.541 45.122 342.698C45.1531 342.776 45.1778 342.837 45.195 342.879L45.2148 342.927L45.2201 342.94L45.2216 342.944L45.222 342.945L45.2221 342.945C45.2222 342.945 45.2222 342.945 45.683 342.751L45.2222 342.945L45.7195 344.126L46.152 342.925L46.1523 342.924C46.1532 342.922 46.1554 342.916 46.1591 342.907C46.1665 342.89 46.1798 342.86 46.2004 342.819C46.2415 342.737 46.3116 342.61 46.4211 342.448C46.6398 342.124 47.0173 341.657 47.6384 341.128C48.8795 340.072 51.1083 338.755 55.0165 337.848C58.8248 336.964 61.1153 338.05 62.5661 339.237C63.2125 339.766 63.6966 340.318 64.0936 340.77C64.1522 340.837 64.2089 340.902 64.264 340.964C64.4644 341.19 64.6758 341.421 64.8802 341.564C64.9849 341.637 65.132 341.72 65.3113 341.741C65.5157 341.765 65.7085 341.703 65.8625 341.575C66.1981 341.295 66.4176 340.794 66.5733 340.272C66.7378 339.722 66.8619 339.038 66.9437 338.284C67.1075 336.774 67.1072 334.926 66.8896 333.185C66.6754 331.471 66.1061 327.915 65.5924 324.797C65.3352 323.236 65.0913 321.781 64.9117 320.717C64.8219 320.185 64.7482 319.75 64.6969 319.448L64.6376 319.1L64.6266 319.036C64.6373 318.78 64.591 318.402 64.5243 317.985C64.4468 317.5 64.3291 316.892 64.1854 316.211C63.8978 314.847 63.5018 313.165 63.1024 311.532C62.7029 309.898 62.2989 308.309 61.995 307.129C61.843 306.538 61.716 306.05 61.6269 305.709C61.5824 305.539 61.5473 305.405 61.5234 305.315L61.4961 305.211L61.489 305.184L61.4873 305.177L61.4868 305.176L61.4867 305.175C61.4867 305.175 61.4866 305.175 61.0032 305.303L61.4866 305.175L61.4623 305.083L61.4058 305.006C54.1527 295.163 52.9975 288.106 50.9659 275.695C50.7955 274.653 50.6189 273.574 50.432 272.453C49.2344 265.268 49.1045 255.838 49.2772 248.184C49.3635 244.361 49.525 240.989 49.6649 238.573C49.7348 237.365 49.7994 236.397 49.8464 235.73C49.8663 235.45 49.883 235.222 49.8957 235.054C52.241 234.404 54.2338 233.277 55.6545 232.301C56.4013 231.787 56.9941 231.312 57.4016 230.965C57.6054 230.791 57.7631 230.649 57.8707 230.549C57.9246 230.499 57.9659 230.46 57.9943 230.432L58.027 230.401L58.036 230.392L58.0386 230.389L58.0395 230.388L58.0398 230.388C58.0399 230.388 58.04 230.388 57.6874 230.033L58.04 230.388L58.1827 230.246L58.1872 230.045L58.5597 213.395L58.5712 212.882L58.0582 212.884L25.1312 212.99Z" fill="#171717" stroke="white"/>
<path d="M65.1176 342.822C65.4939 342.492 65.4939 342.492 65.4938 342.492L65.4937 342.492L65.4933 342.492L65.4919 342.49L65.4871 342.485L65.4689 342.464C65.453 342.446 65.4299 342.42 65.3998 342.387C65.3397 342.32 65.252 342.224 65.1403 342.103C64.917 341.863 64.5973 341.528 64.2102 341.145C63.4388 340.383 62.3877 339.421 61.2908 338.653L61.2907 338.653C60.6414 338.198 59.7186 338.01 58.7422 337.965C57.7498 337.918 56.627 338.016 55.5155 338.197C53.3026 338.556 51.0462 339.26 49.8468 339.898C48.6309 340.544 47.5544 341.609 46.7956 342.486C46.4124 342.928 46.1025 343.331 45.8879 343.625C45.7805 343.772 45.6967 343.891 45.6393 343.975C45.6105 344.017 45.5884 344.05 45.5732 344.072L45.5556 344.099L45.5508 344.106L45.5494 344.108L45.5489 344.109L45.5487 344.109C45.5487 344.109 45.5486 344.11 45.9678 344.382L45.5486 344.11L45.4945 344.193L45.4763 344.291C45.1874 345.843 45.0086 347.709 44.9019 349.178C44.8484 349.914 44.8128 350.554 44.7905 351.01C44.7794 351.239 44.7715 351.421 44.7665 351.547C44.765 351.584 44.7637 351.617 44.7627 351.644C43.7342 353.995 43.8189 355.665 44.2313 356.781C44.4377 357.34 44.7194 357.741 44.9555 358.006C45.0374 358.097 45.1137 358.173 45.1797 358.233C45.1842 358.97 45.3673 359.618 45.8169 360.15C46.3073 360.73 47.0567 361.101 48.0257 361.348C49.9472 361.838 53.0161 361.904 57.5367 361.833C62.1107 361.762 64.4884 360.872 65.6837 359.737C66.9195 358.563 66.7931 357.232 66.6719 356.625C66.6502 356.516 66.6209 356.376 66.5861 356.21C66.4469 355.544 66.2201 354.458 66.0374 353.278C65.8066 351.786 65.6608 350.226 65.8242 349.214L65.8242 349.214C66.0117 348.051 65.9532 346.42 65.8556 345.116C65.8062 344.457 65.7457 343.867 65.6975 343.442C65.6734 343.23 65.6524 343.059 65.6373 342.94C65.6298 342.88 65.6237 342.834 65.6196 342.803L65.6147 342.767L65.6134 342.757L65.6131 342.754L65.613 342.754L65.6129 342.754C65.6129 342.753 65.6129 342.753 65.1176 342.822ZM65.1176 342.822L65.4939 342.492L65.5925 342.605L65.6129 342.753L65.1176 342.822Z" fill="#171717" stroke="white"/>
<path d="M91.6254 341.048C91.6136 341.548 91.6136 341.548 91.6137 341.548L91.614 341.548L91.6151 341.548L91.6191 341.548L91.6343 341.549L91.693 341.55C91.7443 341.551 91.8196 341.552 91.9165 341.553C92.1103 341.556 92.3906 341.558 92.7381 341.558C93.4328 341.557 94.397 341.545 95.4756 341.502C97.619 341.415 100.263 341.201 102.133 340.679C103.112 340.405 104.244 339.793 105.368 339.059C106.501 338.321 107.659 337.436 108.698 336.589C109.737 335.74 110.661 334.925 111.326 334.322C111.658 334.02 111.926 333.771 112.111 333.597C112.203 333.51 112.275 333.442 112.324 333.395L112.38 333.342L112.394 333.328L112.398 333.324L112.399 333.323L112.399 333.323C112.399 333.323 112.399 333.323 112.052 332.963L112.399 333.323L112.617 333.112L112.531 332.822C112.126 331.444 111.574 329.977 111.126 328.861C110.902 328.301 110.702 327.827 110.559 327.493C110.49 327.333 110.434 327.205 110.395 327.114C110.608 326.101 110.507 325.192 110.35 324.53C110.267 324.179 110.168 323.895 110.088 323.695C110.048 323.595 110.012 323.516 109.986 323.461C109.973 323.433 109.962 323.411 109.954 323.395L109.945 323.376L109.941 323.37L109.94 323.367L109.94 323.367L109.94 323.366C109.939 323.366 109.939 323.366 109.498 323.601L109.939 323.366L109.78 323.067L109.443 323.104C104.231 323.684 98.9542 323.329 94.9724 322.826C92.9835 322.575 91.322 322.287 90.1589 322.063C89.5774 321.951 89.1207 321.855 88.8101 321.786C88.6549 321.752 88.5362 321.725 88.4567 321.707L88.3672 321.686L88.3452 321.681L88.3399 321.679L88.3388 321.679L88.3386 321.679L88.3385 321.679L87.6879 321.521L87.7213 322.19C87.8052 323.867 88.2675 325.122 88.7173 325.964C88.9417 326.385 89.1626 326.701 89.3306 326.916C89.4138 327.022 89.4841 327.104 89.5356 327.161C89.5517 327.214 89.5735 327.291 89.5981 327.39C89.6541 327.617 89.725 327.96 89.7789 328.414C89.8867 329.321 89.9269 330.67 89.6424 332.403L90.1358 332.484L89.6424 332.403C89.3356 334.272 89.583 335.404 89.9335 336.247C90.0371 336.496 90.1644 336.748 90.2698 336.956C90.3238 337.063 90.372 337.159 90.4084 337.237C90.5316 337.5 90.5934 337.698 90.5934 337.91C90.5934 338.603 90.7357 339.43 90.8703 340.062C90.9386 340.383 91.0067 340.662 91.0579 340.862C91.0835 340.962 91.1049 341.042 91.1201 341.097L91.1378 341.162L91.1427 341.179L91.144 341.184L91.1444 341.185L91.1445 341.186L91.1446 341.186C91.1446 341.186 91.1446 341.186 91.6254 341.048ZM91.6254 341.048L91.6136 341.548L91.2457 341.54L91.1446 341.186L91.6254 341.048Z" fill="#171717" stroke="white"/>
<path d="M92.0508 342.06L91.5535 342.112L91.4918 341.52L92.0855 341.561L92.0855 341.561L92.0857 341.561L92.0866 341.561L92.0908 341.561L92.108 341.563L92.1771 341.567C92.2382 341.571 92.3287 341.576 92.4453 341.583C92.6785 341.595 93.0159 341.612 93.4309 341.627C94.2614 341.656 95.4001 341.679 96.6348 341.653C97.8708 341.627 99.1947 341.551 100.398 341.385C101.612 341.218 102.658 340.964 103.367 340.604C104.877 339.836 107.043 338.132 108.862 336.586C109.765 335.819 110.57 335.101 111.15 334.575C111.44 334.312 111.673 334.097 111.833 333.948C111.914 333.874 111.976 333.816 112.018 333.777L112.065 333.732L112.077 333.721L112.08 333.718L112.081 333.718L112.081 333.717L112.424 334.081M92.0508 342.06L118.595 341.209M92.0508 342.06L91.5535 342.112L91.5535 342.112L91.5535 342.112L91.5537 342.114L91.5543 342.119L91.5566 342.141L91.5655 342.225C91.5732 342.297 91.5845 342.401 91.5988 342.528C91.6272 342.783 91.6673 343.133 91.7142 343.511C91.8066 344.256 91.9294 345.149 92.0433 345.632L92.5301 345.518M92.0508 342.06C92.0161 342.559 92.0161 342.559 92.0163 342.559L92.0167 342.559L92.018 342.559L92.023 342.559L92.042 342.56L92.1059 342.565C92.1951 343.356 92.3763 344.866 92.5301 345.518M92.0508 342.06L92.5481 342.008L92.5481 342.008L92.5481 342.008L92.5483 342.01L92.5488 342.015L92.551 342.036L92.5567 342.089L92.0508 342.06ZM112.424 334.081C112.779 333.729 112.78 333.729 112.78 333.729L112.78 333.73L112.781 333.73L112.783 333.733L112.795 333.745L112.838 333.788C112.875 333.826 112.93 333.883 113.001 333.955C113.142 334.099 113.345 334.308 113.591 334.564C114.084 335.076 114.754 335.781 115.459 336.549C116.163 337.317 116.906 338.152 117.545 338.924C118.177 339.688 118.728 340.418 119.032 340.967M112.424 334.081L112.081 333.717L112.436 333.382L112.779 333.729L112.424 334.081ZM119.032 340.967L118.595 341.209M119.032 340.967C119.032 340.967 119.032 340.967 119.032 340.967L118.595 341.209M119.032 340.967C119.269 341.396 119.7 341.869 120.265 342.35C120.824 342.827 121.488 343.289 122.161 343.702C122.833 344.114 123.507 344.473 124.081 344.744C124.667 345.02 125.118 345.189 125.355 345.243C125.463 345.268 125.654 345.301 125.91 345.345C126.86 345.508 128.699 345.824 130.467 346.435C131.6 346.826 132.751 347.351 133.68 348.064C134.583 348.758 135.302 349.652 135.554 350.795M118.595 341.209C119.712 343.23 124.074 345.465 125.244 345.731C125.375 345.76 125.591 345.798 125.872 345.846C128.092 346.229 134.376 347.313 135.085 350.997M135.554 350.795C135.549 350.788 135.544 350.781 135.54 350.775C135.533 350.765 135.526 350.755 135.521 350.747C135.514 350.738 135.509 350.73 135.504 350.723L135.493 350.708L135.49 350.704L135.489 350.703L135.489 350.702L135.489 350.702C135.488 350.702 135.488 350.702 135.085 350.997M135.554 350.795C135.582 350.837 135.618 350.892 135.66 350.958C135.755 351.11 135.879 351.324 135.991 351.565C136.101 351.803 136.207 352.088 136.252 352.379C136.296 352.666 136.289 353.019 136.096 353.333C135.999 353.491 135.844 353.589 135.747 353.644C135.631 353.71 135.492 353.771 135.343 353.828C135.044 353.944 134.652 354.063 134.203 354.183C133.302 354.423 132.126 354.678 130.899 354.918C128.444 355.399 125.744 355.827 124.556 355.962C123.352 356.099 120.492 356.205 117.74 356.078C116.363 356.014 114.996 355.891 113.867 355.68C113.303 355.574 112.786 355.444 112.352 355.283C111.927 355.125 111.536 354.921 111.267 354.642C110.519 353.869 109.668 353.16 108.902 352.65C108.519 352.394 108.165 352.193 107.862 352.059C107.549 351.919 107.333 351.869 107.211 351.869C107.045 351.869 106.734 351.917 106.322 352.007C105.922 352.094 105.468 352.211 105.037 352.33C104.606 352.448 104.203 352.567 103.907 352.656C103.759 352.7 103.638 352.737 103.555 352.763L103.459 352.793L103.434 352.801L103.428 352.803L103.426 352.803L103.426 352.803L103.426 352.803L103.36 352.824L103.291 352.826L103.275 352.327M135.554 350.795C135.561 350.831 135.569 350.866 135.576 350.902L135.085 350.997M135.085 350.997L92.8491 350.731M92.5301 345.518C92.7427 346.422 92.8491 350.731 92.8491 350.731M92.5301 345.518L92.0434 345.633M92.8491 350.731L92.3493 350.743L92.3542 350.943L92.4956 351.085C93.0717 351.661 94.0853 352.016 95.155 352.254C96.2543 352.498 97.5271 352.642 98.7253 352.726C99.9263 352.81 101.066 352.835 101.905 352.839C102.325 352.841 102.67 352.838 102.911 352.834C103.031 352.833 103.126 352.831 103.19 352.829L103.264 352.827L103.284 352.827L103.289 352.826L103.29 352.826L103.29 352.826C103.291 352.826 103.291 352.826 103.275 352.327M92.8491 350.731L92.0434 345.633M92.8491 350.731L92.3493 350.743L92.3493 350.743L92.3493 350.743L92.3492 350.74L92.349 350.731L92.3481 350.695L92.3443 350.558C92.341 350.439 92.3361 350.268 92.3294 350.059C92.3162 349.643 92.2963 349.078 92.2698 348.486C92.2433 347.893 92.2103 347.275 92.171 346.751C92.1306 346.213 92.086 345.814 92.0434 345.633M92.8491 350.731L92.0434 345.633M92.8491 350.731C94.7108 352.593 103.275 352.327 103.275 352.327M92.8491 350.731L103.275 352.327" fill="#171717" stroke="white"/>
<path d="M50.9868 140.69L50.6614 141.352L51.3972 141.409L51.4355 140.91C51.3972 141.409 51.3973 141.409 51.3974 141.409L51.3976 141.409L51.3984 141.409L51.401 141.409L51.4107 141.41L51.447 141.413C51.4785 141.415 51.5245 141.418 51.5834 141.421C51.7012 141.429 51.871 141.438 52.0806 141.447C52.4996 141.465 53.0797 141.481 53.7243 141.473C54.9907 141.457 56.5865 141.35 57.6771 140.941L57.6772 140.941C58.0737 140.792 58.5029 140.772 59.0224 140.843C59.5219 140.912 60.0676 141.059 60.7222 141.236C60.7618 141.246 60.8018 141.257 60.8422 141.268C62.2436 141.646 64.012 142.102 66.3468 141.972L66.8317 141.945L66.8189 141.46L66.1935 117.697L66.1544 116.211L65.2875 117.418L65.6937 117.71C65.2875 117.418 65.2875 117.418 65.2874 117.419L65.287 117.419L65.2857 117.421L65.2806 117.428L65.2608 117.456L65.1832 117.564C65.1151 117.66 65.0148 117.802 64.8853 117.985C64.6263 118.353 64.2509 118.889 63.7842 119.565C62.851 120.917 61.5528 122.83 60.092 125.074C57.1726 129.559 53.5952 135.379 50.9868 140.69Z" fill="#171717" stroke="white"/>
</svg>
