<svg width="249" height="333" viewBox="0 0 249 333" fill="none" xmlns="http://www.w3.org/2000/svg">
<path d="M45.1579 147.804L45.3048 147.813L45.3073 147.812L45.3363 147.815C45.3363 147.815 45.3363 147.815 45.3363 147.815C49.9187 148.415 54.1455 149.075 58.1109 149.803L59.707 150.096L58.5526 148.955C56.664 147.09 55.4306 145.219 54.9385 143.544L54.8459 143.229L54.52 143.189C52.9535 142.995 46.6639 142.294 41.5004 142.806C37.4364 143.208 35.6644 145.022 34.9494 146.163L34.4775 146.916L35.3659 146.928C36.6082 146.946 37.9601 147.097 39.4318 147.431L39.4706 147.439L39.5103 147.442L45.1579 147.804Z" fill="#171717" stroke="white"/>
<path d="M14.7508 152.634L14.7508 152.634C14.3765 153.054 13.9306 153.358 13.4678 153.492C13.0003 153.627 12.4925 153.589 12.0764 153.281C11.3844 152.769 11.1784 151.749 11.3475 150.557C11.5217 149.329 12.108 147.756 13.2322 145.901L13.2387 145.89L13.2456 145.88C13.4817 145.531 13.8138 144.979 14.2278 144.291L14.252 144.251L14.2522 144.251L14.2573 144.242C14.988 143.026 16.1245 141.134 17.327 139.497C17.9292 138.677 18.5583 137.906 19.1708 137.311C19.7663 136.733 20.4135 136.253 21.0555 136.128L21.0572 136.128C21.4453 136.054 21.8005 136.122 22.1246 136.367C22.465 136.623 22.5979 137.025 22.6383 137.435L14.7508 152.634ZM14.7508 152.634C15.8186 151.437 17.8601 148.519 19.5908 145.501M14.7508 152.634L19.5908 145.501M19.5908 145.501C20.4581 143.988 21.2564 142.434 21.8189 141.044M19.5908 145.501L21.8189 141.044M21.8189 141.044C22.3714 139.678 22.7322 138.387 22.6383 137.435L21.8189 141.044Z" fill="#171717" stroke="white"/>
<path d="M37.2265 161.164L36.4812 161.187C35.4197 161.22 33.4826 161.164 31.487 160.517C29.486 159.868 27.3954 158.612 26.0997 156.23C25.118 154.425 25.3614 152.295 26.6815 150.555L37.2265 161.164ZM37.2265 161.164L36.9222 160.483M37.2265 161.164L36.9222 160.483M36.9222 160.483C35.4128 157.106 35.4189 154.436 35.98 152.427C36.544 150.408 37.6818 149.012 38.5029 148.219L39.2127 147.533M36.9222 160.483L39.2127 147.533M39.2127 147.533L38.24 147.366M39.2127 147.533L38.24 147.366M38.24 147.366C32.3904 146.364 28.4508 148.222 26.6816 150.555L38.24 147.366Z" fill="#171717" stroke="white"/>
<path d="M98.7086 135.779L98.9338 136.033L99.2533 135.918C99.4294 135.854 99.5936 135.796 99.7419 135.753L99.8144 135.731L99.8772 135.689C102.448 133.977 104.784 132.095 106.878 130.191L107.074 130.012L107.036 129.75C106.412 125.42 106.022 120.731 105.802 116.002L105.771 115.353L105.151 115.549C104.444 115.772 103.3 116.306 102.241 117.554C101.181 118.804 100.233 120.738 99.8678 123.719L99.8314 124.016L100.076 124.189C102.566 125.945 103.337 127.844 103.358 127.898C103.375 127.941 103.353 127.991 103.31 128.008L103.31 128.008L103.307 128.009C103.299 128.013 103.29 128.015 103.278 128.015C103.244 128.015 103.211 127.993 103.198 127.959L103.198 127.959C103.133 127.8 102.328 126.03 100.038 124.386L99.7376 124.171L99.4435 124.395C98.596 125.04 96.2739 126.878 93.4852 129.664L93.4082 129.721C93.2745 129.794 93.1533 129.856 93.0276 129.921C92.9366 129.968 92.8433 130.016 92.7412 130.07L91.8383 130.547L92.7684 130.968C94.0062 131.528 96.0977 132.828 98.7086 135.779Z" fill="#171717" stroke="white"/>
<path d="M68.1722 149.992L68.4053 150.378L68.8129 150.186C75.4917 147.043 83.996 147.095 85.0251 147.113L85.105 147.115L85.1814 147.091C87.7736 146.292 89.9213 146.18 90.9295 146.181L91.4434 146.181L91.4299 145.668C91.3647 143.197 92.4117 141.136 93.8909 139.517L93.9215 139.484L93.9456 139.446C93.9543 139.432 93.9594 139.425 93.9611 139.423L94.2757 139.163L94.081 138.802C92.0766 135.086 88.7185 132.983 87.8578 132.489L87.6615 132.377L87.4473 132.45C85.4843 133.121 83.9832 133.321 82.8574 133.114L82.8567 133.114C81.7153 132.907 80.4755 133.146 79.4494 133.496C78.424 133.847 77.5373 134.335 77.0905 134.7L76.6842 135.032L77.0355 135.422C77.8601 136.337 79.8335 138.978 79.6375 143.156C79.6354 143.202 79.5982 143.237 79.5546 143.238L79.5474 143.238C79.5002 143.236 79.464 143.196 79.4663 143.149L79.4663 143.148C79.6704 138.802 77.4352 136.097 76.7749 135.396L76.6092 135.22L76.3684 135.24C74.8769 135.367 67.249 136.275 61.2621 141.932L60.7676 142.399L61.3611 142.731C62.6305 143.442 65.3975 145.405 68.1722 149.992Z" fill="#171717" stroke="white"/>
<path d="M110.868 75.9257C110.933 75.647 110.996 75.3545 111.054 75.0465L111.056 75.039L111.058 75.0315C111.093 74.8707 112.065 70.5809 114.338 65.5835C116.605 60.6018 120.205 54.8277 125.544 51.8017C129.855 49.3575 134.729 49.0404 139.988 50.81C139.988 50.8101 139.988 50.8102 139.989 50.8103L140.112 50.8511L140.12 50.8539L140.12 50.854C141.39 51.3001 152.571 55.6716 162.4 73.7673L161.961 74.0059L162.4 73.7673C168.523 85.0407 169.144 89.3144 169.55 92.1714C169.692 93.1663 169.803 93.9296 170.119 94.7403C170.433 95.545 170.962 96.4226 171.974 97.5933C171.973 97.5922 171.976 97.5962 171.987 97.6071C171.997 97.6174 172.01 97.6305 172.027 97.6471C172.054 97.6727 172.084 97.702 172.121 97.7368C172.132 97.7479 172.145 97.7596 172.157 97.7719C172.261 97.8709 172.393 97.9989 172.532 98.1433C172.799 98.4214 173.13 98.8026 173.313 99.1951C174.134 100.957 174.583 101.712 175.45 103.171C175.575 103.381 175.708 103.606 175.853 103.85L176.446 104.852L175.311 104.592C164.936 102.217 157.304 104.75 154.752 105.812L153.974 106.136L154.063 105.298C154.54 100.788 154.74 93.1963 152.092 86.4262L152.062 86.3491L152.059 86.2664C151.725 78.7896 149.026 72.5036 146.389 68.0666C145.07 65.8495 143.77 64.0986 142.795 62.8973C142.307 62.2968 141.901 61.834 141.615 61.5194C141.472 61.362 141.359 61.2418 141.28 61.16C141.241 61.1191 141.211 61.0877 141.19 61.0662L141.165 61.0414L110.868 75.9257ZM110.868 75.9257L110.774 76.2883C110.49 77.3945 110.156 78.2276 109.781 78.8156C109.408 79.4006 109.014 79.7147 108.611 79.8444M110.868 75.9257L111.26 76.4132L111.259 76.4129L110.856 76.7091C110.904 76.7752 110.996 76.8599 111.126 76.896C110.554 78.8633 109.776 79.9941 108.765 80.3202M141.156 61.0326C141.123 60.9994 141.068 61.001 141.037 61.0329L141.036 61.0341C141.003 61.0674 141.003 61.1219 141.037 61.1553C141.173 61.2903 149.79 69.9659 151.591 83.0552L150.659 83.3674C149.297 80.9321 147.472 78.7049 145.035 76.8971L145.034 76.8961C144.999 76.8704 144.945 76.8749 144.914 76.9162L144.513 76.6169M141.156 61.0326L135.946 97.382M141.156 61.0326L141.157 61.0326C141.157 61.0326 141.157 61.0326 141.156 61.0326ZM144.513 76.6169L144.915 76.9149C144.887 76.953 144.895 77.0064 144.932 77.0344L144.933 77.0348C150.621 81.2554 152.962 87.7582 153.794 93.7571C154.626 99.7604 153.959 105.334 153.561 107.805L153.385 108.892L152.682 108.045C150.948 105.954 148.249 104.08 145.405 102.478C142.57 100.88 139.635 99.5763 137.455 98.609L137.455 98.609L137.356 98.5651C136.735 98.2894 136.184 98.0447 135.734 97.835M144.513 76.6169C144.32 76.8769 144.375 77.2439 144.635 77.4363L140.685 61.5107C140.775 61.5995 148.734 69.601 150.887 81.7947C151.112 82.1516 151.327 82.5133 151.532 82.8793L151.095 83.1233L150.6 83.1915C150.544 82.7828 150.481 82.3786 150.411 81.9788C149.107 79.935 147.445 78.0624 145.333 76.4955C145.074 76.302 144.707 76.3579 144.513 76.6169ZM135.734 97.835L135.946 97.382M135.734 97.835C135.735 97.835 135.735 97.8351 135.735 97.8351L135.946 97.382M135.734 97.835C134.74 97.3713 133.286 97.4092 131.521 97.8485C129.776 98.2826 127.823 99.0844 125.898 100.028C122.052 101.913 118.398 104.326 116.896 105.353L116.269 105.782L116.123 105.037C116.023 104.529 116.009 103.821 116.059 103.167C116.108 102.528 116.225 101.838 116.446 101.407L116.446 101.407L116.475 101.353M135.946 97.382C131.532 95.323 120.666 102.209 117.071 104.63C117.08 104.707 117.091 104.779 117.104 104.845L116.613 104.941L116.331 104.528C116.398 104.482 116.47 104.433 116.546 104.382C116.486 103.45 116.609 102.185 116.891 101.636L117.081 101.266M116.475 101.353L116.588 101.472L116.603 101.488L116.603 101.488L116.719 101.61L116.762 101.569L117.081 101.266M116.475 101.353L116.453 101.33L116.45 101.134C116.425 99.2725 116.675 85.9184 128.31 73.7861L128.31 73.7859C128.343 73.7515 128.341 73.6975 128.307 73.6652C128.272 73.6314 128.217 73.6352 128.188 73.6664L128.186 73.6676C118.032 84.2563 116.516 95.829 116.31 99.8844L116.245 101.148L115.429 100.182C108.491 91.9769 110.58 83.8401 110.622 83.685L110.622 83.6845C110.635 83.638 110.607 83.591 110.563 83.5785C110.516 83.5661 110.47 83.594 110.457 83.6381M116.475 101.353L116.588 101.133L116.637 101.037L116.816 101.129L116.902 101.173L117.081 101.266M117.081 101.266L116.95 101.128C116.926 99.3284 117.165 86.1296 128.67 74.1322C128.894 73.8989 128.887 73.528 128.653 73.3041C128.42 73.0814 128.049 73.0874 127.826 73.3215C118.109 83.4535 116.211 94.4813 115.857 99.1306C115.966 99.2657 116.078 99.4009 116.192 99.5361L115.81 99.859L115.311 99.8335C115.32 99.6646 115.33 99.4833 115.344 99.2901C109.122 91.4644 111.083 83.8972 111.105 83.8162C111.19 83.5045 111.007 83.1819 110.695 83.0963C110.384 83.0115 110.062 83.1934 109.975 83.5042C109.872 83.8793 107.549 92.7042 115.69 101.499C115.323 102.633 115.173 104.818 115.727 105.888C115.355 107.04 114.376 111.366 118.652 115.394C117.724 116.903 114.039 122.612 108.038 128.419C108.054 128.54 108.07 128.661 108.086 128.781L107.591 128.848L107.246 128.486C107.334 128.402 107.422 128.318 107.509 128.234C105.239 110.72 106.594 87.3648 107.523 80.8107C107.498 80.8035 107.473 80.7961 107.449 80.7886L107.598 80.3112L108.092 80.3905C108.091 80.3964 108.09 80.4023 108.089 80.4083C108.121 80.4103 108.154 80.4113 108.187 80.4113C108.372 80.4113 108.566 80.3843 108.765 80.3202M153.067 107.725C152.929 107.56 152.786 107.395 152.638 107.233C152.616 107.379 152.594 107.517 152.573 107.646L153.067 107.725ZM153.067 107.725L153.452 107.406C153.359 107.295 153.264 107.184 153.167 107.073C153.132 107.31 153.099 107.528 153.067 107.725ZM108.765 80.3202L108.611 79.8443C108.611 79.8444 108.611 79.8444 108.611 79.8444M108.765 80.3202L110.457 83.6381M108.611 79.8444C108.465 79.8916 108.323 79.9113 108.187 79.9113C108.043 79.9113 107.902 79.8823 107.747 79.8338L107.196 79.6623L107.104 80.232C106.16 86.1124 104.639 110.808 107.095 128.915L107.227 129.884L107.935 129.211C114.244 123.217 118.115 117.222 119.078 115.656L119.291 115.309L118.994 115.03C114.918 111.189 115.861 107.101 116.203 106.042L116.267 105.843L116.171 105.658C115.953 105.236 115.85 104.525 115.863 103.726C115.877 102.942 116.001 102.163 116.166 101.652L116.256 101.374L116.057 101.159C108.092 92.555 110.371 83.9501 110.457 83.6381M108.611 79.8444L110.457 83.6381" fill="#171717" stroke="white"/>
<path d="M113.16 51.5672L113.15 51.5702C108.771 52.785 104.92 53.7436 102.975 53.8823C101.171 54.0132 99.5685 53.5002 98.2607 52.3518C95.8549 50.2402 94.4291 45.9661 94.1062 40.4665M113.16 51.5672L85.9584 20.4349C86.384 21.42 86.2072 22.5207 85.4971 23.3179C84.986 23.8918 84.2848 24.198 83.5588 24.198C83.3047 24.198 83.0473 24.1607 82.792 24.0833L82.7913 24.0831C79.4061 23.0623 76.2285 22.7799 75.0997 22.7079L74.7668 22.6866L74.6193 22.9858C74.0429 24.155 73.649 25.1011 73.4215 25.6981L73.1746 26.3458L73.8671 26.3757C78.1119 26.5592 81.397 27.1763 84.1497 28.2825C86.8971 29.3865 89.1393 30.9877 91.2858 33.1741C92.0534 33.956 92.727 35.1698 93.2277 36.5174C93.7264 37.8593 94.0367 39.2879 94.1062 40.4665M113.16 51.5672L113.17 51.5641M113.16 51.5672L113.17 51.5641M94.1062 40.4665L94.6053 40.4372M94.1062 40.4665C94.1062 40.4665 94.1062 40.4666 94.1062 40.4666L94.6053 40.4372M94.6053 40.4372C94.9263 45.9039 96.3417 50.0022 98.5905 51.976M94.6053 40.4372L98.5905 51.976M98.5905 51.976C99.7919 53.031 101.26 53.5056 102.939 53.3835L98.5905 51.976ZM113.17 51.5641L113.178 51.5623L113.192 51.5585C116.315 50.6917 119.734 49.686 122.979 48.7315L123.132 48.6866L123.132 48.6865C128.887 46.9931 133.002 45.794 135.317 45.2887L136.588 45.0116L135.459 44.3662C130.427 41.4885 125.954 37.9164 122.172 34.3924L121.912 34.1505L121.598 34.3158C116.823 36.8285 112.758 38.0677 109.441 38.0677C107.728 38.0677 106.217 37.7401 104.905 37.0965L104.905 37.0965C101.172 35.2665 99.7319 31.2332 99.1945 28.052C99.0596 27.2503 99.2929 26.4453 99.8363 25.839L99.8363 25.839C100.38 25.2319 101.156 24.9127 101.968 24.9606L101.968 24.9606C105.785 25.1846 109.967 24.6492 111.822 24.3675L112.683 24.2367L112.136 23.5589C111.395 22.643 110.769 21.8465 110.298 21.2441L110.279 21.2201C109.766 20.5629 109.322 19.9945 109.129 19.8016L109.129 19.8013C109.096 19.7679 109.096 19.7138 109.129 19.6804L109.13 19.6797C109.162 19.6474 109.216 19.646 109.251 19.6807C109.44 19.87 109.792 20.3187 110.433 21.1381L110.433 21.1383L110.44 21.1471C113.647 25.2488 123.421 37.7479 136.903 44.9693L137.013 45.0285H137.022L137.034 45.0377L137.134 45.0617C137.558 45.1633 139.258 45.52 140.884 45.0683C141.309 44.9502 141.643 44.6276 141.787 44.214L141.787 44.2135C141.926 43.8113 141.871 43.3719 141.615 43.0238C140.933 42.0936 140.396 40.9498 140.019 39.8669C139.641 38.781 139.435 37.7917 139.394 37.183L139.391 37.1385L139.38 37.0953C139.213 36.432 139.125 35.2571 138.999 33.5443L138.997 33.5187C138.638 28.6519 138.031 20.4248 134.483 13.4086C132.701 9.8849 130.17 6.65114 126.544 4.3002C122.917 1.94788 118.226 0.5 112.159 0.5C100.893 0.5 92.6289 3.99325 86.6855 8.42567L86.3983 8.63983L86.5088 8.98061C86.6986 9.56657 87.0465 10.8171 87.1057 12.2533C87.165 13.6934 86.9323 15.2662 86.0187 16.5514L86.0186 16.5516C85.6401 17.0846 85.443 17.6649 85.4413 18.3248C85.4395 18.9709 85.625 19.6644 85.9583 20.4347L113.17 51.5641Z" fill="#171717" stroke="white"/>
<path d="M67.742 34.3063L67.7424 34.3065C71.3165 35.9884 80.6082 39.2501 90.4575 33.7364L91.0104 33.4269L90.5808 32.9611C87.2925 29.3956 81.5898 26.7843 73.3106 26.5344L73.1009 26.5281L72.9494 26.6733C72.2143 27.3784 69.3852 30.0988 67.3685 32.1086L67.3682 32.1089C67.0502 32.4264 66.9084 32.8686 66.9854 33.3125L66.9854 33.3127C67.0616 33.7512 67.3397 34.1165 67.742 34.3063Z" fill="#171717" stroke="white"/>
<path d="M86.277 59.1896L86.2768 59.1893C85.7923 58.4279 85.5946 57.5735 85.5645 56.8117C85.5348 56.0571 85.668 55.3495 85.8928 54.8681C85.8929 54.8679 85.893 54.8678 85.8931 54.8676L85.9169 54.8164L85.8777 54.7737L85.8776 54.7736C85.5668 54.4343 85.3314 54.1441 85.1697 53.886C85.0087 53.6292 84.8977 53.3683 84.8839 53.0942C84.8693 52.8047 84.9661 52.568 85.0938 52.3731C85.2061 52.2018 85.3595 52.0391 85.4947 51.8957C85.5003 51.8898 85.5059 51.8839 85.5115 51.878L85.5135 51.8758C85.6037 51.7799 85.6886 51.6896 85.7705 51.5957L85.7714 51.5946L85.8281 51.5299L85.6346 51.3778C85.2605 51.1043 84.9588 50.8393 84.7768 50.5735C84.6825 50.4358 84.6023 50.272 84.5783 50.0858C84.5528 49.8882 84.5954 49.6982 84.6963 49.5324C85.1429 48.7956 85.6673 47.5941 85.7302 46.6209L86.277 59.1896ZM86.277 59.1896C87.2608 60.733 89.0794 61.4401 91.493 61.4401C97.5605 61.4401 99.5385 63.3223 99.7559 63.549L99.7763 63.5703M86.277 59.1896L99.7763 63.5703M99.7763 63.5703L99.799 63.589M99.7763 63.5703L99.799 63.589M99.799 63.589C99.9233 63.6914 100.886 64.493 102.839 66.2092L103.447 66.7429M99.799 63.589L103.447 66.7429M103.447 66.7429L103.653 65.9611M103.447 66.7429L103.653 65.9611M103.653 65.9611C104.616 62.3099 107.618 56.9812 111.368 53.1987L112.666 51.8893M103.653 65.9611L112.666 51.8893M112.666 51.8893L110.884 52.3635M112.666 51.8893L110.884 52.3635M110.884 52.3635C107.412 53.2876 104.55 53.9414 102.989 54.0533M110.884 52.3635L102.989 54.0533M91.1032 33.5564L91.369 33.9004C92.9417 35.9362 93.8012 38.2088 93.9347 40.4766M91.1032 33.5564L98.1479 52.4808C96.654 51.1692 95.6553 49.2047 95.0014 47.0228C94.3493 44.8465 94.0539 42.5 93.9347 40.4766M91.1032 33.5564L90.7257 33.7717M91.1032 33.5564L90.7257 33.7717M93.9347 40.4766L93.4355 40.506L93.9347 40.4766ZM90.7257 33.7717C89.7646 34.3195 88.8121 34.7955 87.8735 35.1838L87.7468 35.2362M90.7257 33.7717L87.7468 35.2362M87.7468 35.2362L87.6645 35.346M87.7468 35.2362L87.6645 35.346M87.6645 35.346C86.9897 36.2467 83.2943 41.1589 81.9413 42.5506C81.7446 42.7518 81.6321 43.0702 81.7416 43.3831L81.7416 43.3832M87.6645 35.346L81.7416 43.3832M81.7416 43.3832C81.947 43.9698 82.6592 45.0783 84.9631 45.613L84.9632 45.6131M81.7416 43.3832L84.9632 45.6131M84.9632 45.6131C85.4339 45.7222 85.7596 46.1641 85.7302 46.6209L84.9632 45.6131ZM102.989 54.0533C101.108 54.1843 99.4872 53.656 98.148 52.4808L102.989 54.0533Z" fill="#171717" stroke="white"/>
<path d="M14.8788 152.748C13.9147 153.829 12.7293 153.978 11.9751 153.419L11.9749 153.419C11.4796 153.053 11.0784 152.335 11.1185 151.133C11.1589 149.922 11.6505 148.252 12.9194 146.091L13.0737 145.828L12.9109 145.57C11.799 143.812 9.49699 142.906 6.55833 142.842L6.55833 142.842L6.54547 142.842C4.95307 142.849 3.75191 143.827 3.06289 144.614L3.06261 144.614C1.11065 146.847 0.132684 150.693 0.627193 153.993L14.8788 152.748ZM14.8788 152.748C15.6073 151.932 17.3297 149.586 18.9945 146.862L19.1162 146.663L19.3469 146.629C20.3187 146.483 23.8866 146.144 27.9771 148.137L28.7172 148.498L28.0558 148.988C27.4378 149.446 26.9303 149.944 26.545 150.451C25.1502 152.29 24.9482 154.473 25.9489 156.311L25.9491 156.311C26.2062 156.785 26.4989 157.208 26.8136 157.605L27.2648 158.173L26.573 158.392C24.2681 159.122 17.2648 160.868 10.8894 157.509L10.8894 157.509L10.8501 157.489L10.8107 157.509M14.8788 152.748L10.8107 157.509M10.8107 157.509C9.96929 157.937 8.67636 158.25 7.30618 158.308C5.93338 158.365 4.41885 158.169 3.15159 157.516L3.15145 157.516C1.72389 156.781 0.865012 155.582 0.627206 153.993L10.8107 157.509Z" fill="#171717" stroke="white"/>
<path d="M234.796 275.953L234.663 275.676L234.355 275.669C215.209 275.277 201.223 285.871 198.928 287.724L198.624 287.97L198.789 288.325C199.018 288.815 199.246 289.306 199.474 289.799L199.744 290.38L200.243 289.977C202.949 287.788 215.066 278.931 234.896 277.768L235.635 277.725L235.319 277.056L235.314 277.044C235.14 276.676 234.966 276.307 234.796 275.953Z" fill="#171717" stroke="white"/>
<path d="M231.326 269.211L231.479 269.466C231.502 269.505 231.528 269.547 231.554 269.591C231.634 269.722 231.723 269.868 231.797 270.006L231.326 269.211ZM231.326 269.211L231.029 269.223M231.326 269.211L231.029 269.223M231.029 269.223C210.627 270.07 198.224 280 196.116 281.821L195.827 282.071M231.029 269.223L195.827 282.071M195.827 282.071L195.993 282.416M195.827 282.071L195.993 282.416M195.993 282.416C196.247 282.945 196.503 283.48 196.763 284.024L197.043 284.612M195.993 282.416L197.043 284.612M197.043 284.612L197.538 284.19M197.043 284.612L197.538 284.19M197.538 284.19C200.304 281.833 212.86 272.156 232.1 272.157L232.922 272.157M197.538 284.19L232.922 272.157M232.922 272.157L232.544 271.427M232.922 272.157L232.544 271.427M232.544 271.427C232.279 270.915 232.024 270.429 231.797 270.006L232.544 271.427Z" fill="#171717" stroke="white"/>
<path d="M57.3302 164.25L55.6647 164.883C54.0336 165.502 51.4638 166.365 48.6361 166.883C45.8168 167.399 42.6924 167.581 39.9762 166.797L39.9762 166.797C36.1187 165.683 34.7333 164.33 34.3352 163.204L34.8066 163.038M57.3302 164.25L34.3469 161.665C34.2185 162.006 34.1059 162.558 34.3354 163.205L34.8066 163.038M57.3302 164.25L55.5787 163.924C51.6529 163.192 47.4188 162.529 42.7816 161.922C42.3492 161.865 41.9075 161.801 41.462 161.737C40.7942 161.641 40.1182 161.544 39.4531 161.467L39.3957 161.964M57.3302 164.25L34.8147 161.842M34.8066 163.038C34.6275 162.533 34.7149 162.106 34.8147 161.842M34.8066 163.038C35.1204 163.924 36.2962 165.214 40.1149 166.317C44.878 167.692 51.0659 165.993 54.5645 164.754C54.8431 164.805 55.1201 164.856 55.3956 164.907L55.4872 164.415L55.3096 163.948C55.0673 164.04 54.8042 164.137 54.5225 164.238C50.8792 163.578 46.9686 162.974 42.7166 162.417C42.2695 162.359 41.8232 162.295 41.3768 162.23C40.7172 162.135 40.0577 162.04 39.3957 161.964M34.8147 161.842C34.8236 161.818 35.2666 161.84 35.6186 161.857C35.8166 161.867 35.9857 161.875 36.0329 161.873M34.8147 161.842L34.3469 161.665C34.395 161.538 34.4802 161.466 34.5249 161.434C34.5726 161.4 34.6162 161.381 34.6398 161.372C34.6874 161.354 34.7281 161.346 34.745 161.343C34.7837 161.337 34.8199 161.335 34.8412 161.333C34.8888 161.331 34.9455 161.331 35.0003 161.332C35.1131 161.334 35.2592 161.34 35.4026 161.346C35.4815 161.35 35.5665 161.354 35.6457 161.358C35.7065 161.361 35.7639 161.364 35.8124 161.366C35.8716 161.369 35.9217 161.371 35.9604 161.372C35.9885 161.373 36.0038 161.373 36.0101 161.373C36.0139 161.373 36.0144 161.373 36.0124 161.374C37.1676 161.326 38.2802 161.331 39.4531 161.467M39.3957 161.964C38.2577 161.832 37.1733 161.826 36.0329 161.873M39.3957 161.964L39.4531 161.467M36.0329 161.873L39.4531 161.467M36.0329 161.873L36.0123 161.374C36.0123 161.374 36.0122 161.374 36.0122 161.374L36.0329 161.873ZM36.0329 161.873L39.4531 161.467" fill="#171717" stroke="white"/>
<path d="M72.413 154.612L71.9628 154.83C71.9829 154.871 71.9658 154.923 71.9221 154.944L71.9126 154.948L71.9032 154.953C71.7336 155.044 68.855 156.692 66.8937 164.228C65.9486 167.859 66.4602 169.324 67.1258 169.92L67.1263 169.921C67.732 170.461 68.551 170.373 68.9507 170.293L69.3363 170.216L69.3523 169.823C69.3532 169.803 69.3539 169.784 69.3547 169.765C69.3585 169.666 69.3619 169.582 69.3703 169.489L71.8466 154.79M72.413 154.612L71.9628 154.83C71.9412 154.785 71.8899 154.769 71.8495 154.789L71.8466 154.79M72.413 154.612C72.5537 154.903 72.431 155.254 72.1392 155.394L72.413 154.612ZM71.8466 154.79L71.8464 154.791L71.8464 154.79C71.8203 154.803 68.7769 156.311 66.7271 164.185C66.3917 165.476 66.2275 166.549 66.209 167.437L66.2019 167.777L65.8832 167.896C65.6314 167.989 65.3085 168.081 64.9841 168.114C64.6764 168.145 64.2757 168.132 63.9469 167.917L63.946 167.917C63.5866 167.68 63.4433 167.28 63.3807 166.965C63.315 166.635 63.3152 166.28 63.3327 165.994L63.3327 165.993C63.5575 162.375 65.5754 157.79 68.443 154.273L68.8305 154.589L68.4428 154.273C68.473 154.236 68.4673 154.182 68.4306 154.153L68.4301 154.152C68.3952 154.124 68.3403 154.127 68.3087 154.166C66.4611 156.432 64.9746 159.142 64.077 161.747L64.0679 161.774L64.0559 161.799C64.0462 161.819 64.0362 161.837 64.0272 161.852C63.8052 162.385 63.4995 162.794 63.1553 163.062C62.8094 163.331 62.3793 163.488 61.9617 163.391C61.9616 163.391 61.9615 163.391 61.9615 163.391L62.0744 162.904L71.8466 154.79ZM69.6408 171.163C69.8004 171.748 70.1799 172.373 70.9902 172.512L75.1896 157.802C72.2979 159.816 70.5654 163.768 70.0391 169.55L69.5412 169.505C69.5412 169.505 69.5412 169.505 69.5412 169.505C69.5009 169.946 69.4835 170.588 69.6408 171.163ZM60.9351 161.142L60.9306 161.226L60.9351 161.141C60.9351 161.141 60.9351 161.142 60.9351 161.142ZM63.9878 161.908L63.9879 161.908L63.9878 161.908Z" fill="#171717" stroke="white"/>
<path d="M157.326 223.024C155.156 222.006 153.039 220.925 150.961 219.798L150.326 220.542C151.996 222.714 153.506 224.561 154.695 225.926C155.289 226.608 155.806 227.173 156.226 227.6C156.632 228.013 156.98 228.332 157.227 228.485L157.228 228.485L157.26 228.506L157.267 228.543C158.708 236.698 163.024 242.04 168.865 249.269L168.906 249.319L168.906 249.32C170.394 251.161 171.929 253.061 173.554 255.174L173.951 254.87L173.554 255.174C177.185 259.895 180.282 263.474 182.879 265.935C184.178 267.165 185.36 268.125 186.431 268.809C187.497 269.49 188.478 269.915 189.37 270.042L189.37 270.042L189.403 270.047L189.424 270.072L189.424 270.072C189.904 270.644 190.724 272.026 191.786 274.017C192.838 275.989 194.103 278.513 195.467 281.328L195.747 281.905L196.239 281.493C198.928 279.237 210.981 270.092 230.337 269.087L231.242 269.041L230.72 268.3C229.329 266.327 227.32 264.104 225.246 261.812C221.634 257.822 217.605 253.366 215.276 248.706L214.844 248.922L215.276 248.706C212.662 243.478 209.757 239.496 207.724 237.016L207.597 236.861L207.397 236.837C189.723 234.733 172.217 230.01 157.326 223.024ZM157.326 223.024L157.114 223.477M157.326 223.024L157.114 223.477M157.114 223.477C172.059 230.489 189.619 235.224 207.338 237.333L157.714 228.198L157.491 228.06C156.792 227.628 154.453 225.018 151.477 221.21C151.145 221.033 150.814 220.856 150.484 220.677L150.723 220.237L151.119 219.933C151.351 220.234 151.58 220.53 151.805 220.818C153.543 221.741 155.31 222.631 157.114 223.477Z" fill="#171717" stroke="white"/>
<path d="M180.462 114.941L180.453 115.386C180.406 117.743 179.758 120.121 178.277 121.936L178.277 121.936L178.251 121.968L178.259 122.008C178.259 122.008 178.259 122.009 178.259 122.009C178.448 122.913 178.814 123.611 179.321 124.115C179.826 124.618 180.499 124.956 181.349 125.097L181.365 125.1L181.38 125.104C181.538 125.14 181.7 125.23 181.835 125.316C181.984 125.411 182.152 125.536 182.331 125.685C182.688 125.984 183.109 126.394 183.53 126.893C184.371 127.886 185.248 129.263 185.63 130.84C186.226 133.3 185.428 135.504 183.391 137.352L182.957 137.745L182.636 137.255C180.511 134.007 180.606 131.652 180.615 131.509L180.615 131.499L180.615 131.499C180.619 131.451 180.584 131.411 180.538 131.407L180.53 131.406L180.53 131.406C180.518 131.405 180.498 131.408 180.477 131.426C180.457 131.443 180.447 131.464 180.445 131.485L180.445 131.485C180.437 131.571 179.981 137.219 188.497 143.384C192.872 146.55 193.61 151.725 193.349 155.876L193.287 156.852L192.532 156.23C189.416 153.663 184.815 151.678 180.701 150.277C176.599 148.881 173.036 148.083 172.034 147.87L171.808 147.822L171.698 147.618C171.187 146.671 169.329 142.886 169.144 137.643L169.144 137.643C169.008 133.772 167.285 131.871 165.973 130.423L165.973 130.423L165.973 130.423L165.959 130.407C165.596 130.006 165.243 129.617 164.972 129.231C164.695 128.836 164.476 128.406 164.416 127.918L180.462 114.941ZM180.462 114.941L180.022 114.88M180.462 114.941L180.022 114.88M180.022 114.88C175.207 114.213 170.579 114.221 166.615 114.51L166.417 114.524M180.022 114.88L166.417 114.524M166.417 114.524L166.282 114.671M166.417 114.524L166.282 114.671M166.282 114.671C165.995 114.985 165.352 115.729 164.904 116.564C164.681 116.981 164.49 117.451 164.432 117.922C164.373 118.402 164.451 118.913 164.805 119.344L164.805 119.345M166.282 114.671L164.805 119.345M164.805 119.345C165.237 119.869 165.388 120.582 165.351 121.475M164.805 119.345L165.351 121.475M165.351 121.475C165.315 122.371 165.095 123.365 164.864 124.398M165.351 121.475L164.864 124.398M164.864 124.398C164.864 124.398 164.864 124.398 164.864 124.398M164.864 124.398L164.864 124.398M164.864 124.398L164.863 124.404C164.729 125.003 164.589 125.631 164.497 126.223C164.405 126.812 164.354 127.402 164.416 127.918L164.864 124.398Z" fill="#171717" stroke="white"/>
<path d="M99.7231 63.7478L100.106 64.0712C100.633 64.5163 101.651 65.3889 103.218 66.7722L103.428 66.9576L103.427 66.9642L103.472 66.9952C104.88 67.9661 106.513 69.6908 107.87 71.2693C109.236 72.8586 110.358 74.342 110.746 74.8626L110.879 75.0417L110.834 75.2607C110.166 78.552 109.215 79.4601 108.572 79.6762M99.7231 63.7478L96.2087 70.7752C96.437 70.9795 96.7523 71.1551 97.0795 71.3133C97.4092 71.4727 97.7944 71.6342 98.1902 71.8002L98.2068 71.8071L98.2071 71.8072C100.642 72.8269 104.232 74.334 107.179 79.2843L107.227 79.364L107.3 79.4213C107.423 79.5185 107.935 79.891 108.572 79.6762M99.7231 63.7478L99.4005 64.1312M99.7231 63.7478L99.4005 64.1312M108.572 79.6762L108.413 79.2023L108.573 79.676C108.573 79.6761 108.573 79.6762 108.572 79.6762ZM103.188 67.4068L103.286 67.2649M103.188 67.4068L103.404 67.0933L103.316 67.2223L103.286 67.2648M103.188 67.4068L103.286 67.2648M103.188 67.4068L102.879 67.1934L103.286 67.2648M103.286 67.2649L103.372 67.2799L103.38 67.2336L103.404 67.0938L103.316 67.2223L103.286 67.2649ZM103.286 67.2649L103.286 67.2648M99.4005 64.1312C98.2514 65.4969 97.2833 66.8887 96.6681 68.0137M99.4005 64.1312L96.6681 68.0137M96.6681 68.0137C96.3624 68.5728 96.1317 69.0879 96.0158 69.5128M96.6681 68.0137L96.0158 69.5128M96.0158 69.5128C95.9582 69.7238 95.9212 69.9398 95.9314 70.1415M96.0158 69.5128L95.9314 70.1415M95.9314 70.1415C95.9415 70.3412 96.0026 70.5907 96.2086 70.7751L95.9314 70.1415Z" fill="#171717" stroke="white"/>
<path d="M54.9852 143.101L54.9852 143.101C54.9852 143.101 54.9852 143.101 54.9852 143.101ZM54.9963 143.15C55.3129 144.496 56.4049 147.014 60.0531 150.105L60.1526 150.189L60.2806 150.214C62.331 150.614 64.315 151.033 66.2311 151.476L66.4389 151.524L66.6174 151.407C66.9862 151.166 67.375 150.932 67.7903 150.707L68.2524 150.457L67.9792 150.008C64.4925 144.278 61.0265 142.72 60.6205 142.556L60.5782 142.539L60.5336 142.53C60.1859 142.458 57.7491 141.971 55.8242 142.026L55.8239 142.026C55.5575 142.034 55.3049 142.157 55.1368 142.371L55.1368 142.371L55.1358 142.373C55.0333 142.504 54.9079 142.748 54.9763 143.065C54.9781 143.074 54.9799 143.081 54.9812 143.087L54.9851 143.103L54.9869 143.11L54.9953 143.147L54.9963 143.15Z" fill="#171717" stroke="white"/>
<path d="M62.6953 165.227L63.2197 165.348L63.3021 164.816C63.3404 164.57 63.3932 164.316 63.4496 164.045L63.6404 163.13L62.7733 163.479C62.5851 163.555 62.3991 163.593 62.2198 163.593C62.1214 163.593 62.0226 163.582 61.9241 163.559C61.6313 163.492 61.3235 163.306 61.0962 162.952C60.868 162.597 60.7018 162.041 60.7607 161.211L60.7608 161.211L60.7613 161.2C60.8505 159.401 61.5167 155.446 65.4025 152.295L66.2041 151.645L65.1971 151.419C59.3145 150.098 52.8648 148.979 45.52 148.013L45.3386 147.989L45.1847 148.088C44.5059 148.523 41.8726 150.383 41.0599 153.6L41.0599 153.6C40.4331 156.084 41.0258 158.768 42.7192 161.552L42.8437 161.756L43.0811 161.788C50.5397 162.771 56.9618 163.9 62.6953 165.227Z" fill="#171717" stroke="white"/>
<path d="M44.9332 147.961L43.9943 148.762C42.9052 149.69 41.4738 151.278 40.8975 153.544L44.9332 147.961ZM44.9332 147.961L43.7018 147.882M44.9332 147.961L43.7018 147.882M43.7018 147.882L39.6646 147.624L39.4856 147.612M43.7018 147.882L39.4856 147.612M39.4856 147.612L39.3401 147.717M39.4856 147.612L39.3401 147.717M39.3401 147.717C38.8261 148.088 37.3246 149.309 36.4464 151.485C35.5597 153.682 35.3357 156.786 37.2798 160.852L37.4113 161.127M39.3401 147.717L37.4113 161.127M37.4113 161.127L37.7159 161.136M37.4113 161.127L37.7159 161.136M37.7159 161.136C38.9395 161.173 40.5061 161.383 41.5883 161.55L42.5773 161.702M37.7159 161.136L42.5773 161.702M42.5773 161.702L42.1054 160.82M42.5773 161.702L42.1054 160.82M42.1054 160.82C40.7139 158.218 40.3283 155.782 40.8975 153.544L42.1054 160.82Z" fill="#171717" stroke="white"/>
<path d="M123.183 48.8504L123.181 48.851C123.181 48.851 123.181 48.851 123.181 48.8511C119.922 49.8101 116.487 50.8207 113.338 51.6956L113.235 51.7242L113.153 51.7923C110.798 53.7425 108.654 56.395 106.992 59.0659C105.332 61.7326 104.127 64.4569 103.679 66.5645L103.612 66.8778L103.869 67.0692C106.169 68.7841 108.969 72.2526 110.301 73.9878L110.921 74.7951L111.181 73.8111C111.716 71.7884 112.999 67.5345 115.302 63.1358C117.608 58.7297 120.91 54.2317 125.456 51.6535C129.536 49.3398 134.111 48.8931 139.104 50.352L139.949 50.5989L139.728 49.7467C139.433 48.6078 138.723 46.6244 137.118 45.3213L136.962 45.1944L136.761 45.2112C135.883 45.2847 133.981 45.7592 131.594 46.4186C129.185 47.0842 126.222 47.9562 123.183 48.8504Z" fill="#171717" stroke="white"/>
<path d="M85.3688 23.204L85.3689 23.2039C86.0323 22.4591 86.1984 21.4203 85.8009 20.5026C85.2689 19.274 84.8878 17.8467 85.8794 16.4522L85.8794 16.4521C86.7133 15.2788 86.9472 13.8643 86.9369 12.6039C86.9266 11.3394 86.6702 10.1792 86.4722 9.46505L86.2699 8.73553L85.6784 9.20792C80.375 13.4427 77.0735 18.353 75.2077 21.8374L74.8471 22.5107L75.6084 22.5718C77.023 22.6853 79.8258 23.0103 82.8407 23.919C83.7709 24.2005 84.7229 23.9292 85.3688 23.204Z" fill="#171717" stroke="white"/>
<path d="M136.768 162.912C140.014 163.782 142.713 164.833 144.386 166.082C144.973 166.52 145.594 166.995 146.256 167.5L146.333 167.559C154.275 173.629 167.626 183.833 191.356 185.255L191.379 185.256L191.402 185.255C194.715 185.145 197.075 184.023 198.19 181.77C198.951 180.232 198.98 178.46 198.761 177.002C198.651 176.268 198.476 175.598 198.289 175.054C198.106 174.522 197.899 174.077 197.711 173.813L197.693 173.787L197.696 173.756L197.696 173.755C198.352 166.971 193.076 163.681 192.16 163.162L192.009 163.076L191.838 163.102C191.1 163.215 190.314 163.276 189.472 163.276C185.952 163.276 181.592 162.348 176.914 160.984C172.243 159.621 167.297 157.837 162.607 156.145L162.602 156.143C159.021 154.851 155.623 153.625 152.731 152.736L152.585 153.212L152.731 152.736C143.73 149.967 132.626 151.014 127.926 151.458L127.91 151.459C127.91 151.459 127.91 151.459 127.91 151.459C126.779 151.566 126.221 151.616 125.91 151.614L125.756 151.613L125.628 151.699C124.822 152.24 124.034 152.739 123.263 153.199L123.243 153.212L123.224 153.226C123.214 153.233 123.207 153.238 123.201 153.242C123.199 153.243 123.198 153.244 123.197 153.245L123.17 153.255L123.132 153.278C117.447 156.653 112.737 157.922 109.144 158.23L108.88 158.253L108.751 158.483L108.743 158.497L108.743 158.498C108.739 158.504 108.733 158.514 108.726 158.526L108.33 159.23L109.138 159.27C111.694 159.396 118.805 159.814 126.146 160.853C129.818 161.372 133.537 162.046 136.768 162.912Z" fill="#171717" stroke="white"/>
<path d="M93.9612 224.242L94.7993 224.757L94.7214 223.776C94.6679 223.103 94.6073 222.433 94.5332 221.777L94.5064 221.54L94.3055 221.412C87.4348 217.022 79.0161 215.019 71.9641 214.129C64.9046 213.238 59.1681 213.456 57.6302 213.54L57.266 213.56L57.1737 213.913C57.0506 214.383 56.9224 214.871 56.7882 215.377L56.6088 216.053L57.307 216.004C61.3069 215.719 79.0486 215.078 93.9612 224.242Z" fill="#171717" stroke="white"/>
<path d="M86.385 173.523L86.1969 173.433L86.0003 173.503C84.966 173.872 80.6177 175.471 75.6587 177.945C70.7129 180.412 65.1006 183.776 61.5842 187.695L61.5842 187.695C58.4986 191.133 57.2224 193.299 57.0317 195.248L57.0268 195.298L57.032 195.348C57.0465 195.488 57.0709 195.629 57.1067 195.769C57.0854 195.877 57.0672 195.981 57.0501 196.079C57.0456 196.104 57.0412 196.129 57.0369 196.154L57.0251 196.221L57.0315 196.288C57.1432 197.47 57.6183 198.597 58.1646 199.884L58.1647 199.884C58.6442 201.013 59.1773 202.27 59.6472 203.863L59.6476 203.864C59.6505 203.874 59.6507 203.882 59.6479 203.893C59.6446 203.905 59.6365 203.922 59.6203 203.94L59.4992 204.071L59.489 204.25C59.4878 204.272 59.4879 204.292 59.4884 204.308C59.4093 204.697 58.8369 207.456 57.4806 212.727L57.312 213.382L57.9877 213.351C59.988 213.26 65.5943 213.127 72.355 214.014C79.1215 214.902 87.0059 216.807 93.5876 220.767L94.4898 221.31L94.3403 220.268C93.9576 217.6 93.3739 215.15 92.5204 213.134C91.6686 211.122 90.5292 209.499 89.0079 208.549L89.0079 208.549C88.9674 208.523 88.9554 208.471 88.9805 208.43L88.9809 208.43C89.0048 208.391 89.0579 208.378 89.0989 208.403C90.732 209.424 91.9844 211.295 92.9205 213.784L92.9605 213.891L93.0424 213.969C93.2456 214.164 93.509 214.274 93.7783 214.337C94.0504 214.4 94.3625 214.422 94.7009 214.416C95.377 214.402 96.2247 214.272 97.2017 214.05C99.16 213.606 101.721 212.774 104.635 211.675C110.467 209.474 117.772 206.175 124.617 202.668L125.302 202.318L124.703 201.834C119.302 197.472 114.097 192.958 108.95 188.488C101.812 182.288 94.4473 177.394 86.385 173.523ZM59.4985 204.258L59.4979 204.26L59.4985 204.258Z" fill="#171717" stroke="white"/>
<path d="M56.0624 219.363L55.703 219.382L55.6069 219.729C55.4522 220.287 55.2934 220.858 55.128 221.448L54.9457 222.097L55.62 222.083C57.7443 222.037 63.9236 222.039 71.3102 223.245C78.7033 224.453 87.263 226.86 94.1784 231.6L94.953 232.131L94.961 231.192C94.9662 230.589 94.9653 229.986 94.9595 229.385L94.9572 229.142L94.7646 228.993C87.9052 223.711 79.0102 221.27 71.4702 220.163C63.9213 219.056 57.6732 219.278 56.0624 219.363Z" fill="#171717" stroke="white"/>
<path d="M122.372 153.533L123.024 153.159L122.427 152.702C110.39 143.492 107.118 134.663 106.343 131.849L106.134 131.09L105.536 131.602C103.809 133.081 101.94 134.524 99.9289 135.861L99.8357 135.904C99.7125 135.94 99.5748 135.986 99.4282 136.039L99.0102 136.191L99.1117 136.624C99.5174 138.353 100.374 140.166 101.118 141.535C101.493 142.223 101.843 142.807 102.101 143.222C102.231 143.429 102.338 143.595 102.413 143.71C102.451 143.768 102.481 143.813 102.502 143.845L102.527 143.882L102.534 143.892L102.536 143.895L102.536 143.896L102.536 143.896L102.539 143.9L102.569 143.944L102.543 143.99C102.543 143.99 102.543 143.99 102.543 143.99C102.507 144.052 101.276 146.152 98.4335 146.639L98.4331 146.639L98.4075 146.643L98.3834 146.632L98.3828 146.632C97.9895 146.449 97.5756 146.104 97.1566 145.624C96.7411 145.148 96.3423 144.565 95.9731 143.942C95.2344 142.696 94.6382 141.33 94.2784 140.433L93.9548 139.627L93.4202 140.312C92.2229 141.847 91.398 143.8 91.6119 146.175L91.6196 146.261L91.6553 146.339C92.5169 148.219 94.0146 150.648 95.912 152.787C97.8031 154.918 100.136 156.812 102.681 157.539L102.681 157.539C105.827 158.438 112.615 159.124 122.372 153.533Z" fill="#171717" stroke="white"/>
<path d="M200.334 221.02L199.238 220.828C186.441 218.586 174.086 214.725 162.472 209.276L162.685 208.824L162.472 209.276C143.769 200.502 128.686 187.402 114.157 174.784L114.136 174.766L114.136 174.766C110.329 171.459 106.331 168.511 102.12 165.856L101.642 165.555L101.999 165.117C102.155 164.926 102.305 164.739 102.454 164.553C103.78 162.903 104.976 161.414 108.227 159.482L108.356 159.406L108.506 159.413C110.089 159.486 117.23 159.857 124.856 160.865C128.669 161.369 132.613 162.034 136.049 162.903C139.468 163.767 142.448 164.85 144.283 166.219C144.283 166.219 144.283 166.219 144.283 166.219L143.983 166.62C144.563 167.052 145.176 167.521 145.826 168.017L200.334 221.02ZM200.334 221.02L199.75 220.073C199.332 219.396 198.95 218.863 198.617 218.462C198.291 218.07 197.991 217.78 197.734 217.617C197.734 217.617 197.734 217.617 197.734 217.617M200.334 221.02L197.734 217.617M197.734 217.617L197.698 217.595L197.695 217.552L197.694 217.552C197.124 210.9 193.857 203.043 192.117 198.858L192.103 198.825L192.103 198.825C191.861 198.244 191.645 197.725 191.464 197.279C190.867 195.801 190.689 193.945 190.711 192.084C190.734 190.23 190.953 188.42 191.12 187.044L191.12 187.044C191.156 186.745 191.19 186.468 191.218 186.213L191.304 185.455L190.575 185.679C165.778 193.294 147.789 194.716 147.475 194.74C147.469 194.74 147.466 194.741 147.464 194.741C147.421 194.741 147.383 194.706 147.38 194.661L146.881 194.698M197.734 217.617L147.422 194.07M146.881 194.698C146.857 194.375 147.099 194.094 147.422 194.07M146.881 194.698L147.38 194.661C147.376 194.614 147.412 194.573 147.459 194.569L147.422 194.07M146.881 194.698C146.904 195.005 147.16 195.241 147.464 195.241C147.479 195.241 147.494 195.24 147.509 195.239C147.688 195.226 165.516 193.84 190.2 186.316C190.208 186.243 190.217 186.171 190.225 186.101L147.422 194.07" fill="#171717" stroke="white"/>
<path d="M99.0243 163.982L99.2578 164.118L99.4991 163.997C100.961 163.264 101.737 162.028 102.142 160.867C102.546 159.712 102.595 158.599 102.588 158.037L102.584 157.682L102.247 157.569C99.8999 156.783 97.6861 155.001 95.8227 152.915C93.964 150.834 92.4898 148.49 91.6123 146.642L91.4794 146.362L91.1694 146.356C90.3658 146.342 88.256 146.39 85.6661 147.126L85.1996 147.258L85.3178 147.728C85.7466 149.434 87.4683 154.96 92.7802 160.596L92.8425 160.662L92.9239 160.702C95.0122 161.726 97.0357 162.829 99.0243 163.982Z" fill="#171717" stroke="white"/>
<path d="M98.2579 146.371L98.4235 146.469L98.6118 146.43C100.588 146.025 101.713 144.83 102.16 144.246L102.375 143.966L102.182 143.67C101.534 142.672 99.7028 139.687 98.9882 136.853L98.8384 136.259L98.2865 136.525C97.1126 137.09 95.6197 138.006 94.3366 139.283L94.1071 139.512L94.2219 139.815C94.5593 140.705 95.143 142.079 95.8392 143.35C96.1872 143.985 96.5685 144.604 96.9667 145.126C97.3594 145.642 97.7942 146.098 98.2579 146.371Z" fill="#171717" stroke="white"/>
<path d="M150.878 127.835L150.878 127.835L150.865 127.841C150.456 128.061 150.038 128.286 149.674 128.539L149.674 128.539C148.993 129.013 148.14 129.859 147.211 130.869C146.278 131.884 145.236 133.099 144.173 134.34L144.163 134.353L144.162 134.353L144.157 134.36C142.213 136.628 140.031 139.175 137.916 141.225L137.911 141.23L137.906 141.235C136.521 142.659 135.17 143.964 133.852 145.169L132.454 146.446L134.301 146.025C142.035 144.263 152.926 144.622 159.167 145.568L160.034 145.699L159.706 144.886C158.752 142.522 157.943 139.365 158.015 136.834C158.037 136.076 157.994 135.548 157.799 135.118C157.61 134.7 157.297 134.427 156.973 134.146C156.96 134.134 156.947 134.123 156.934 134.112L156.934 134.112C156.482 133.718 155.884 133.198 155.176 132.195L155.176 132.195C154.045 130.594 153.761 128.437 153.726 126.912L153.702 125.854L152.901 126.544C152.277 127.08 151.582 127.457 150.878 127.835Z" fill="#171717" stroke="white"/>
<path d="M154.837 113.274L154.556 113.365L154.5 113.656C154.432 114.017 154.338 114.373 154.198 114.731L154.142 114.874L154.177 115.024C154.234 115.278 154.286 115.524 154.338 115.772L154.445 116.282L154.951 116.154C156.468 115.768 160.734 114.788 166.359 114.357L166.372 114.356L166.386 114.355L166.393 114.354L166.399 114.353L166.41 114.352L166.412 114.351L166.431 114.353L166.466 114.35C170.43 114.053 175.053 114.035 179.859 114.685L180.465 114.767L180.424 114.156C180.383 113.535 180.301 112.921 180.183 112.32L180.112 111.966L179.754 111.921C165.557 110.151 156.616 112.697 154.837 113.274Z" fill="#171717" stroke="white"/>
<path d="M155.314 132.096L155.314 132.096C154.479 130.913 154.127 129.428 153.985 128.178C153.842 126.92 153.905 125.844 153.939 125.439L153.948 125.325L154.006 125.226C154.874 123.752 155.337 121.324 154.557 116.909L154.476 116.453L154.925 116.338C156.239 116 159.962 115.128 164.974 114.649L166.088 114.542L165.424 115.443C164.99 116.031 164.549 116.765 164.351 117.499C164.157 118.222 164.209 118.89 164.674 119.454L164.674 119.454C165.168 120.054 165.23 120.907 165.167 121.717C165.103 122.542 164.895 123.472 164.701 124.342L164.697 124.361C164.697 124.361 164.697 124.361 164.697 124.362C164.399 125.694 164.126 126.949 164.246 127.939C164.359 128.873 164.968 129.569 165.847 130.538L165.847 130.538C167.146 131.973 168.839 133.842 168.973 137.649C169.188 143.763 171.601 147.806 171.685 147.946L155.314 132.096ZM155.314 132.096C156.011 133.081 156.594 133.589 157.045 133.982C157.496 134.375 157.763 134.637 157.936 135.001C158.11 135.366 158.213 135.891 158.186 136.839C158.103 139.748 159.22 143.512 160.283 145.789L160.283 145.789L160.353 145.938L160.19 145.909C160.19 145.909 160.19 145.909 160.19 145.909C156.903 145.323 151.916 144.902 146.743 144.945C141.577 144.989 136.178 145.496 132.086 146.79L131.989 146.82L131.911 146.887C130.521 148.08 129.171 149.155 127.863 150.122C127.855 150.127 127.849 150.132 127.843 150.136C127.747 150.207 127.652 150.276 127.556 150.346C127.535 150.361 127.514 150.377 127.493 150.392L126.032 151.455L127.832 151.294L127.863 151.291L127.891 151.289L127.893 151.289C132.683 150.837 143.767 149.799 152.78 152.573C155.672 153.462 159.061 154.684 162.664 155.985L162.664 155.985C167.811 157.841 173.317 159.827 178.39 161.225C183.447 162.619 188.148 163.452 191.665 162.95L191.973 162.906L192.07 162.61C192.322 161.837 192.913 159.838 193.215 157.341L193.245 157.086L193.056 156.912C189.817 153.949 184.495 151.729 180.028 150.25C175.539 148.766 171.826 148.002 171.743 147.985L171.741 147.985L171.705 147.978M155.314 132.096L171.705 147.978M171.705 147.978L171.685 147.946L171.705 147.978ZM127.81 150.164C127.81 150.164 127.811 150.164 127.812 150.163L127.811 150.164L127.811 150.164L127.81 150.164Z" fill="#171717" stroke="white"/>
<path d="M154.188 106.249L153.937 106.364L153.901 106.638C153.75 107.772 153.603 108.584 153.529 108.962L153.492 109.152L153.592 109.317C153.605 109.339 153.616 109.357 153.627 109.375C153.646 109.407 153.663 109.434 153.681 109.464L153.925 109.885L154.352 109.652C156.136 108.682 162.697 105.992 177.645 108.253L178.797 108.427L178.129 107.472C177.713 106.877 177.226 106.119 176.698 105.259L176.593 105.087L176.397 105.036C164.5 101.956 155.804 105.509 154.188 106.249Z" fill="#171717" stroke="white"/>
<path d="M143.622 127.444L143.623 127.446C143.639 127.464 143.661 127.475 143.687 127.475C143.706 127.475 143.726 127.468 143.742 127.454L143.622 127.444ZM143.622 127.444C137.36 120.132 132.452 116.834 128.641 115.484C124.807 114.125 122.138 114.759 120.449 115.16L120.448 115.16M143.622 127.444L120.448 115.16M120.448 115.16C120.156 115.229 119.902 115.286 119.666 115.331L119.448 115.374M120.448 115.16L119.448 115.374M119.448 115.374L119.333 115.563M119.448 115.374L119.333 115.563M119.333 115.563C118.624 116.734 115.075 122.378 109.142 128.273L108.913 128.5M119.333 115.563L108.913 128.5M108.913 128.5L109.025 128.802M108.913 128.5L109.025 128.802M109.025 128.802C109.707 130.64 113.613 139.622 127.585 149.687L127.884 149.902M109.025 128.802L127.884 149.902M127.884 149.902L128.178 149.681M127.884 149.902L128.178 149.681M128.178 149.681C131.17 147.429 134.378 144.615 137.789 141.108C139.912 139.051 142.1 136.496 144.015 134.26L144.032 134.241L144.032 134.241L144.038 134.234C145.178 132.902 146.233 131.672 147.174 130.653C148.123 129.627 148.931 128.846 149.576 128.398C149.943 128.142 150.342 127.927 150.796 127.683C150.796 127.683 150.797 127.683 150.797 127.683L150.824 127.668C152.016 127.029 153.434 126.269 154.207 124.389C154.973 122.529 155.074 119.662 153.968 114.883L153.968 114.882M128.178 149.681L153.968 114.882M153.968 114.882L153.961 114.856L153.972 114.831L153.972 114.831M153.968 114.882L153.972 114.831M153.972 114.831C154.773 112.93 154.427 111.097 153.42 109.426C152.423 107.773 150.768 106.254 148.882 104.9C145.115 102.196 140.27 100.046 137.398 98.772L137.384 98.7655L137.384 98.7654M153.972 114.831L137.384 98.7654M137.384 98.7654C136.711 98.467 136.129 98.2086 135.661 97.9899L135.661 97.9898M137.384 98.7654L135.661 97.9898M135.661 97.9898C134.566 97.4785 133.043 97.6161 131.428 98.0449C129.784 98.4816 127.923 99.2547 126.069 100.161C122.36 101.976 118.612 104.361 116.566 105.789L116.436 105.879M135.661 97.9898L116.436 105.879M116.436 105.879L116.382 106.029M116.436 105.879L116.382 106.029M116.382 106.029C116.063 106.91 114.893 111.074 119.235 115.039L119.421 115.21M116.382 106.029L119.421 115.21M119.421 115.21L119.669 115.16M119.421 115.21L119.669 115.16M119.669 115.16C119.882 115.118 120.113 115.063 120.352 115.006C120.371 115.002 120.39 114.997 120.409 114.993L120.409 114.993M119.669 115.16L120.409 114.993M120.409 114.993C121.838 114.653 123.827 114.182 126.545 114.715L126.786 114.762M120.409 114.993L126.786 114.762M126.786 114.762L126.97 114.601M126.786 114.762L126.97 114.601M126.97 114.601C128.221 113.508 134.55 108.62 145.004 111.326L145.005 111.326M126.97 114.601L145.005 111.326M145.005 111.326C145.05 111.338 145.078 111.384 145.066 111.43L145.066 111.431M145.005 111.326L145.066 111.431M145.066 111.431C145.059 111.458 145.044 111.475 145.027 111.484C145.012 111.494 144.99 111.5 144.959 111.492L144.835 111.976L144.961 111.492C135.968 109.165 129.959 112.591 127.786 114.181L126.975 114.774M145.066 111.431L126.975 114.774M126.975 114.774L127.937 115.063M126.975 114.774L127.937 115.063M127.937 115.063C131.789 116.223 136.978 119.422 143.751 127.333L143.752 127.333M127.937 115.063L143.752 127.333M143.752 127.333C143.782 127.369 143.778 127.423 143.742 127.454L143.752 127.333Z" fill="#171717" stroke="white"/>
<path d="M54.8943 222.274L55.2602 222.263C56.8876 222.213 63.1678 222.127 70.8257 223.332C78.4756 224.537 87.5506 227.037 94.7305 232.193L94.9444 232.346L94.9388 232.61C94.7904 239.57 94.0113 246.254 93.3915 249.955L54.8943 222.274ZM54.8943 222.274L54.7945 222.626M54.8943 222.274L54.7945 222.626M54.7945 222.626C53.351 227.722 51.516 233.904 49.2031 241.232L49.1155 241.509M54.7945 222.626L49.1155 241.509M49.1155 241.509L49.3134 241.722M49.1155 241.509L49.3134 241.722M49.3134 241.722L49.6799 241.382M49.3134 241.722L49.6799 241.382M49.6799 241.382C49.3134 241.722 49.3135 241.722 49.3136 241.722L49.3137 241.723L49.3142 241.723L49.3156 241.725L49.3202 241.729L49.3368 241.747C49.3511 241.762 49.372 241.784 49.3993 241.812C49.4541 241.869 49.5349 241.951 49.6416 242.056C49.8549 242.265 50.1715 242.567 50.5897 242.938C51.3912 243.65 52.5663 244.619 54.1017 245.694M49.6799 241.382L54.1017 245.694M52.6143 272.149C55.1544 271.328 56.8226 268.231 56.4565 265.634L52.6143 272.149ZM52.6143 272.149C49.2531 273.235 45.2128 272.823 41.7816 272.366L52.6143 272.149ZM54.1017 245.694C54.4046 251.026 55.137 259.853 55.9614 265.703L55.9614 265.704C56.1267 266.877 55.8332 268.189 55.1914 269.308C54.5497 270.428 53.5867 271.309 52.4606 271.673L52.4605 271.673C49.2219 272.72 45.2909 272.329 41.8478 271.871C39.2349 271.52 37.0325 271.954 35.3651 273.232L35.3649 273.232C33.4197 274.724 32.2498 277.301 31.7977 280.768C31.488 283.138 33.0073 285.413 35.322 286.073L35.3222 286.073C39.9928 287.402 47.0468 287.67 53.7979 287.532C60.5666 287.394 67.0958 286.846 70.7474 286.519C71.8207 286.423 72.5927 286.354 73.1386 286.314C73.7025 286.272 73.9787 286.264 74.0934 286.276L74.0969 286.276C77.4646 286.599 80.4048 286.552 82.6466 286.157L82.6717 286.153L82.6963 286.146C82.7059 286.143 82.7224 286.14 82.7707 286.133L82.7808 286.131L82.7908 286.129C84.4549 285.821 85.8009 285.303 86.6023 284.523L86.6023 284.523L86.6065 284.519C87.1665 283.961 87.4965 283.191 87.6761 282.336C87.8564 281.478 87.8935 280.497 87.8374 279.471C87.7253 277.42 87.2359 275.116 86.6849 273.113C86.5171 272.503 86.3175 271.822 86.112 271.121C85.787 270.013 85.4473 268.854 85.1951 267.844C84.463 263.392 83.9459 258.479 83.7991 253.082C84.1421 253.039 84.4952 252.999 84.8538 252.958C86.1028 252.816 87.4198 252.667 88.6186 252.366L54.1017 245.694ZM88.914 252.294C88.7973 252.322 88.6974 252.346 88.6186 252.366L88.914 252.294ZM88.914 252.294C89.4461 252.168 90.3267 251.957 91.1393 251.674M88.914 252.294L91.1393 251.674M91.1393 251.674C91.6346 251.501 92.1344 251.291 92.5312 251.039M91.1393 251.674L92.5312 251.039M92.5312 251.039C92.9023 250.803 93.3085 250.453 93.3913 249.955L92.5312 251.039Z" fill="#171717" stroke="white"/>
<path d="M242.937 297.238L242.936 297.239C242.775 297.489 242.542 297.637 242.318 297.72C241.321 298.431 240.323 299.101 239.329 299.735C240.648 303.357 242.71 309.04 244.466 314.24C245.375 316.932 246.203 319.5 246.805 321.588C247.106 322.632 247.352 323.56 247.523 324.328C247.691 325.084 247.795 325.719 247.795 326.159C247.794 327.1 247.498 328.06 246.967 328.81C246.435 329.564 245.641 330.137 244.65 330.213C226.164 331.632 206.498 332.169 201.951 332.122M242.937 297.238L201.957 331.622M242.937 297.238C243.141 296.919 243.19 296.538 243.073 296.177L243.073 296.176C241.003 289.853 238.267 283.389 235.856 278.199L235.714 277.893L235.377 277.91C214.584 278.994 202.232 288.536 200.117 290.301L199.823 290.547L199.984 290.895C203.36 298.209 206.618 305.585 208.317 309.698C208.471 310.073 208.789 310.346 209.183 310.44M242.937 297.238L208.779 309.507C208.872 309.735 209.062 309.897 209.3 309.954M201.951 332.122L201.957 331.622M201.951 332.122C201.951 332.122 201.951 332.122 201.951 332.122L201.957 331.622M201.951 332.122C200.493 332.106 198.917 331.707 198.028 330.275M201.957 331.622C200.565 331.607 199.208 331.227 198.453 330.011M198.028 330.275C198.028 330.275 198.028 330.275 198.028 330.275L198.453 330.011M198.028 330.275C197.063 328.721 195.909 326.37 196.042 324.105C196.11 322.952 196.512 321.819 197.432 320.845C198.345 319.877 199.737 319.1 201.727 318.585C202.131 318.481 202.545 318.374 202.966 318.266C205.582 317.592 208.469 316.849 210.845 316.139C212.226 315.726 213.418 315.33 214.278 314.97C214.709 314.789 215.039 314.625 215.262 314.482C215.374 314.41 215.445 314.352 215.486 314.31C215.487 314.309 215.488 314.308 215.489 314.307M198.028 330.275L198.453 330.011M198.453 330.011L215.489 314.307M215.489 314.307C215.491 314.333 215.492 314.351 215.493 314.361C215.493 314.363 215.493 314.364 215.493 314.365M215.489 314.307C215.509 314.286 215.516 314.275 215.515 314.276C215.515 314.276 215.508 314.288 215.502 314.312M215.489 314.307C215.488 314.299 215.487 314.29 215.486 314.28C215.476 314.197 215.455 314.08 215.423 313.929C215.359 313.629 215.254 313.225 215.111 312.751C214.856 311.9 214.486 310.842 214.036 309.784M215.489 314.307L215.986 314.437C216.068 314.12 215.398 311.613 214.335 309.218M215.493 314.365C215.493 314.368 215.493 314.369 215.493 314.369C215.493 314.369 215.493 314.368 215.493 314.365ZM215.493 314.365C215.493 314.357 215.495 314.338 215.502 314.312M215.502 314.312L215.502 314.312L215.502 314.312ZM214.036 309.784C214.166 309.76 214.297 309.735 214.431 309.709L214.335 309.218M214.036 309.784C213.985 309.663 213.932 309.542 213.878 309.421L214.335 309.218M214.036 309.784C212.012 310.166 210.542 310.34 209.826 310.41M214.335 309.218C212.068 309.66 210.445 309.849 209.722 309.918M209.722 309.918L209.89 310.389C209.87 310.397 209.848 310.404 209.826 310.41M209.722 309.918C209.587 309.967 209.443 309.989 209.3 309.954M209.722 309.918L209.77 310.416C209.788 310.414 209.807 310.412 209.826 310.41M209.826 310.41C209.645 310.467 209.423 310.498 209.183 310.44M209.3 309.954L209.183 310.44M209.3 309.954L209.183 310.44C209.183 310.44 209.183 310.44 209.183 310.44" fill="#171717" stroke="white"/>
<path d="M247.793 223.244V222.718L247.268 222.745C239.966 223.119 230.45 223.313 226.029 223.313C203.654 223.313 181.977 218.616 162.401 209.432C143.685 200.652 128.635 187.585 114.024 174.895C105.455 167.453 95.9797 161.739 85.0724 157.426L84.9833 157.391L84.8875 157.391C82.0014 157.397 78.589 158.229 76.6014 161.552L76.6014 161.552C74.9903 164.247 74.2014 166.227 73.7646 167.79L73.6361 168.249L74.0891 168.399C78.3371 169.804 82.3689 171.416 86.2378 173.261L86.2457 173.265L86.2457 173.265L86.2495 173.267L86.2575 173.271C94.4065 177.16 101.844 182.09 109.062 188.359L109.062 188.359C114.421 193.013 119.857 197.731 125.516 202.273L125.518 202.274L125.518 202.275L125.519 202.276L125.533 202.286L125.533 202.287C135.224 210.063 145.586 217.328 157.398 222.87C172.335 229.877 189.88 234.609 207.571 236.699L207.604 236.703L207.638 236.702C207.642 236.702 207.647 236.702 207.658 236.705L207.687 236.712L207.717 236.715C217.992 237.921 235.262 238.233 247.32 237.581L247.793 237.555V237.082V223.244Z" fill="#171717" stroke="white"/>
</svg>
