<svg width="138" height="394" viewBox="0 0 138 394" fill="none" xmlns="http://www.w3.org/2000/svg">
<path d="M64.3458 97.9614L64.3047 96.7271L50.4916 97.1873L50.5327 98.4216L64.3458 97.9614Z" fill="#171717"/>
<path d="M71.3744 168.636C68.3563 168.473 65.1891 168.255 61.9457 167.971V176.471C61.9457 177.278 61.2896 177.935 60.4833 177.935H51.7221C50.9154 177.935 50.2596 177.278 50.2596 176.471V166.653C44.6979 165.877 39.5712 164.919 34.9254 163.795C34.8729 164.108 34.8265 164.43 34.7891 164.762C36.3118 166.154 37.3552 169.882 37.3499 174.025C37.3477 175.544 37.1639 176.858 36.8498 177.981C47.1266 180.466 59.7344 181.704 70.5402 182.312C71.4258 179.955 71.4522 172.091 71.3744 168.636Z" fill="#171717"/>
<path d="M58.8126 115.423C58.1561 115.306 56.8975 115.106 55.3676 114.863C50.3287 114.063 46.968 113.505 45.0668 113.094C44.8362 120.548 44.6545 131.573 45.0625 132.862C45.5412 133.298 50.3045 133.704 58.1136 133.465C58.3514 133.457 58.5791 133.448 58.8126 133.44V115.423Z" fill="#171717"/>
<path d="M83.4622 169.087C83.4618 169.074 83.4618 169.068 83.4614 169.056C81.2508 169.02 78.8303 168.958 76.2527 168.86C76.1695 168.935 76.0621 168.983 75.9418 168.983C75.94 168.983 75.9382 168.983 75.9353 168.983C75.8029 168.981 75.6851 168.923 75.6016 168.834C74.5286 168.79 73.4309 168.74 72.3104 168.684C72.3547 170.845 72.4593 179.229 71.5098 182.367C75.4449 182.577 79.1105 182.704 82.3135 182.78C82.9635 181.061 83.6695 177.302 83.4622 169.087Z" fill="#171717"/>
<path d="M80.901 128.824C81.2358 128.824 81.5072 128.552 81.5072 128.217C81.5072 127.883 81.2358 127.611 80.901 127.611C80.5663 127.611 80.2949 127.883 80.2949 128.217C80.2949 128.552 80.5663 128.824 80.901 128.824Z" fill="#171717"/>
<path d="M59.7503 133.405C67.2865 133.097 72.3842 132.351 72.8928 131.786C73.2755 130.543 73.157 119.973 73.0992 114.893C73.0827 113.421 73.072 112.443 73.071 111.842C69.7106 113.145 62.1552 115.334 59.75 115.506L59.7503 133.405Z" fill="#171717"/>
<path d="M80.4655 142.31C80.8002 142.31 81.0716 142.039 81.0716 141.704C81.0716 141.37 80.8002 141.098 80.4655 141.098C80.1307 141.098 79.8594 141.37 79.8594 141.704C79.8594 142.039 80.1307 142.31 80.4655 142.31Z" fill="#171717"/>
<path d="M80.4655 100.091C80.8002 100.091 81.0716 99.8198 81.0716 99.485C81.0716 99.1503 80.8002 98.8789 80.4655 98.8789C80.1307 98.8789 79.8594 99.1503 79.8594 99.485C79.8594 99.8198 80.1307 100.091 80.4655 100.091Z" fill="#171717"/>
<path d="M44.6009 112.054C44.612 112.053 44.6213 112.048 44.6327 112.048C44.7084 112.051 44.7766 112.075 44.8387 112.109C47.0843 112.601 52.3887 113.443 55.516 113.94C57.4218 114.242 58.9271 114.48 59.3804 114.579C60.4813 114.801 70.252 112.077 73.2475 110.797C73.3068 110.747 73.38 110.718 73.4585 110.704C73.6973 110.595 73.8836 110.497 73.9947 110.417C73.9818 109.668 73.5816 106.361 72.9448 101.768C72.8974 101.421 72.5986 101.127 72.2524 101.182C56.0979 101.745 44.9144 102.339 43.3045 102.716C43.0999 104.086 43.2806 111.086 43.8278 111.828C43.9284 111.885 44.2093 111.963 44.6009 112.054Z" fill="#171717"/>
<path d="M103.977 134.814C105.135 134.698 106.203 134.566 106.686 134.504C107.029 133.645 107.347 132.967 107.427 132.801L107.718 132.192L107.727 132.202C111.283 125.195 110.977 118.176 110.855 115.489C110.846 115.293 110.839 115.134 110.834 114.998C108.888 115.253 106.752 115.48 105.272 115.497C105.271 118.423 105.193 131.031 103.977 134.814Z" fill="#171717"/>
<path d="M79.8288 159.197C80.1635 159.197 80.4349 158.925 80.4349 158.59C80.4349 158.256 80.1635 157.984 79.8288 157.984C79.494 157.984 79.2227 158.256 79.2227 158.59C79.2227 158.925 79.494 159.197 79.8288 159.197Z" fill="#171717"/>
<path d="M87.2157 83.111C87.6651 82.8369 87.91 82.3389 87.8561 81.8121L87.6897 80.1786C87.6476 79.7649 87.7818 79.3519 88.0588 79.0449C88.3337 78.7408 88.7267 78.5645 89.1379 78.5634C94.7853 78.5441 97.6396 78.3924 98.5823 78.2436C98.0708 77.4643 96.3342 75.6288 95.1327 74.3591C94.9196 74.1339 94.7279 73.9304 94.5398 73.7305C92.881 71.9679 92.166 71.1529 92.0657 70.736C91.9743 70.3523 91.9907 69.8754 92.01 69.3228C92.0393 68.505 92.0546 67.5933 91.7487 66.8041C90.2095 66.6206 88.9184 66.5378 87.6751 66.4607C87.3742 66.4425 87.0908 66.4197 86.7984 66.4004C87.3296 67.3192 87.7947 68.913 86.6656 71.0451C86.2683 71.7962 85.7457 72.443 85.14 73.1912C83.2142 75.5728 80.613 78.8129 79.6992 88.7074C81.7435 86.6239 84.9854 84.4746 87.2157 83.111Z" fill="#171717"/>
<path d="M26.0601 152.587C26.4474 153.854 26.7572 154.762 27.0203 155.533C27.6 157.235 27.9605 158.297 28.427 161.039C34.6003 162.971 41.9422 164.541 50.2593 165.708V164.12C50.2593 163.313 50.9154 162.657 51.7218 162.657H60.483C61.2897 162.657 61.9454 163.313 61.9454 164.12V167.032C66.703 167.451 71.2938 167.722 75.4952 167.894C75.553 166.475 75.7761 162.614 76.6253 156.746C77.3835 151.505 77.3835 149.461 77.3817 145.748C77.3817 144.198 77.3807 142.269 77.4403 139.702C77.5042 136.967 77.5445 134.695 77.5802 132.71C77.6541 128.571 77.708 125.58 77.91 122.27C78.1631 118.144 78.0149 116.313 77.7208 112.666L77.5591 110.629C77.149 105.293 77.4067 94.9609 77.7958 91.7533C77.8543 91.2678 78.0917 90.7442 78.4519 90.2016C77.4053 88.7338 70.3097 80.2189 67.6957 79.4836C65.2737 78.8011 57.2757 77.7313 53.9492 77.3029C53.4969 77.2444 53.1032 76.9895 52.8665 76.6051C52.6299 76.2196 52.5813 75.7537 52.7341 75.3261C53.2506 73.8658 53.6429 72.5754 53.9089 71.5034C52.5406 72.2081 50.0915 72.7317 46.7611 73.2782C43.6763 73.7844 41.0191 77.7709 40.5129 78.5737C40.7492 79.7135 40.9056 80.9724 40.9052 82.3307C40.9042 85.0878 40.3323 92.3012 39.8283 98.6658C39.5431 102.254 39.2746 105.644 39.1294 107.947C38.7303 114.273 39.124 118.207 39.1276 118.246L39.1347 118.316L39.1212 118.387C39.0837 118.572 39.039 119.107 38.9869 119.725C38.7924 122.042 38.4654 125.921 37.4577 127.647C37.1836 128.118 36.5332 129.136 35.6344 130.547C32.6138 135.283 26.367 145.081 25.0566 148.952C25.2879 149.916 25.6081 151.111 26.0601 152.587ZM49.7439 96.5019C49.8809 96.3559 50.0673 96.2727 50.2672 96.2663L64.4548 95.7941C64.6676 95.7976 64.845 95.8597 64.991 95.9961C65.137 96.1332 65.2202 96.3184 65.2266 96.5187L65.2805 98.1264C65.2951 98.5376 64.9717 98.8846 64.5587 98.8992H64.5576L50.3682 99.3715C50.3607 99.3715 50.3535 99.3715 50.3464 99.3715C49.9434 99.3715 49.61 99.0517 49.5954 98.649L49.5415 97.0384C49.5365 96.8371 49.6079 96.6483 49.7439 96.5019ZM42.5854 102.034L42.5865 102.033C42.8003 101.819 43.3668 101.252 72.2194 100.246C73.0625 100.223 73.7579 100.816 73.871 101.639C74.3925 105.404 74.9983 110.025 74.9198 110.652C74.8887 110.897 74.706 111.053 74.5707 111.149C74.4518 111.233 74.2565 111.336 74.006 111.451C74.0013 111.996 74.0163 113.347 74.0335 114.883C74.1195 122.527 74.1759 130.794 73.7539 132.127C73.3031 133.55 65.173 134.112 59.4196 134.332C59.3753 134.346 59.3303 134.359 59.2814 134.359C59.2482 134.359 59.2193 134.347 59.1879 134.341C56.147 134.453 53.8243 134.47 53.7579 134.47C53.7514 134.47 53.7443 134.47 53.7379 134.47C44.5912 134.47 44.3081 133.575 44.1721 133.144C43.5981 131.333 44.0425 115.965 44.1386 112.874C43.6613 112.747 43.3547 112.636 43.2276 112.539C43.022 112.382 42.6418 112.09 42.4209 108.736C42.4162 108.675 42.0582 102.562 42.5854 102.034Z" fill="#171717"/>
<path d="M78.0498 205.097C78.2586 205.025 78.5484 204.891 78.9186 204.637C79.8671 203.986 80.9451 202.823 81.0746 201.808C81.2567 200.39 80.7752 189.562 80.4775 183.665C79.196 183.629 77.8517 183.583 76.457 183.529C76.693 186.141 77.7164 197.698 78.0498 205.097Z" fill="#171717"/>
<path d="M68.342 374.19C66.9331 374.366 62.7021 374.886 58.3411 375.357C57.3638 375.463 56.4007 375.506 55.478 375.506C52.3667 375.506 49.7142 375.014 48.4941 374.743C48.6629 375.821 48.5062 377.518 48.2592 379.8C48.07 381.547 48.3834 385.775 48.2803 386.451C48.1742 387.147 48.0739 387.805 48.5176 388.675C49.0163 389.652 49.3526 389.747 49.963 389.921C50.3906 390.042 50.9214 390.192 51.5982 390.643C53.1128 391.654 58.8848 392.839 65.7923 392.443C67.687 392.334 75.685 392.043 75.952 391.677L75.9427 386.87C75.9427 386.425 75.8267 385.988 75.6083 385.605C74.7533 384.11 72.6537 380.498 71.6271 379.266C69.5839 376.815 68.5455 375.212 68.342 374.19Z" fill="#171717"/>
<path d="M92.5122 351.348C92.3184 350.695 92.1649 350.179 92.1649 349.738C92.1649 349.103 92.4187 348.441 92.63 347.998C92.1474 347.858 91.3021 347.651 90.0264 347.476C87.1368 347.081 76.1335 342.087 73.8358 341.034C73.5285 341.746 70.0317 347.73 69.593 348.933C68.9515 350.692 68.5839 351.646 68.1934 352.039L69.2178 362.529C70.8545 364.155 73.3393 366.419 73.9764 366.579C75.229 366.892 81.0064 372.699 81.1641 373.806C81.2052 374.093 81.1695 374.555 81.122 375.195C80.9942 376.886 80.7804 379.718 81.8941 381.388C83.4655 383.746 89.1268 387.775 91.2132 388.022C94.0214 388.348 99.9451 388.265 100.521 387.639C100.572 387.385 100.74 387.07 100.936 386.703C101.497 385.655 102.345 384.07 101.957 380.764C101.406 376.087 100.851 373.975 99.7567 372.394C98.9739 371.264 93.104 356.527 93.104 354.565C93.104 353.341 92.776 352.236 92.5122 351.348Z" fill="#171717"/>
<path d="M68.0899 361.405L68.1738 361.489L67.2507 352.037C67.0037 351.74 66.9434 351.186 66.9084 350.588C66.5446 344.399 64.1512 333.603 64.409 332.277C64.4868 331.879 64.5889 331.353 64.7113 330.617C65.2514 327.38 66.5229 300.599 66.5229 297.569C66.5229 295.582 69.0901 284.198 69.0837 280.535C69.0773 277.199 69.0708 273.749 69.748 270.634C71.1176 264.333 75.6453 234.742 75.7492 234.067C75.7781 233.656 77.0385 215.613 77.2063 209.76C77.3626 204.333 75.7695 186.352 75.5118 183.491C74.0326 183.429 72.5016 183.356 70.9295 183.27C70.8963 183.277 70.72 183.277 70.6654 183.256C59.7517 182.647 46.963 181.399 36.5591 178.875C35.5485 181.548 33.7113 182.89 31.9019 183.059C33.4628 187.618 36.1025 194.76 37.5832 196.453C37.9212 196.838 38.3699 197.345 38.8832 197.926C42.3118 201.802 45.4142 205.349 45.7147 206.178C45.8921 206.665 45.8172 207.945 45.6701 210.168C45.5505 211.973 45.3502 214.994 45.6426 215.453C46.3672 216.339 47.9 218.324 48.4208 219.018C48.6885 219.376 48.6767 219.831 48.3862 220.268C47.9878 220.868 47.0258 221.46 46.2851 221.482C46.2558 221.944 46.3901 222.993 46.475 223.658C46.6028 224.664 46.7146 225.533 46.6303 225.995C46.4136 227.185 45.3724 228.085 44.2579 228.085C44.1958 228.085 44.1337 228.082 44.0716 228.076C43.1828 227.995 41.6993 227.361 41.1189 224.19C40.6684 224.675 40.1065 225.132 39.5786 225.14C39.0442 225.454 37.1038 226.481 35.3543 226.124C34.7714 226.249 32.4009 226.705 31.3768 226.145C30.7125 225.783 29.4163 224.812 28.5782 224.168C28.56 224.302 28.5414 224.435 28.5182 224.584C28.3758 225.492 28.1813 226.736 28.4679 228.364C28.7263 229.826 29.5823 230.957 30.338 231.956C31.1201 232.99 31.7951 233.883 31.6902 234.927C31.6563 235.273 29.925 244.003 30.7978 254.327C31.8165 266.384 40.0676 345.013 41.69 351.32C42.0098 352.565 43.73 359.122 44.7359 364.581C45.9317 371.073 46.7859 372.753 47.9443 373.582C47.976 373.605 47.9967 373.644 48.0257 373.671C48.0874 373.688 53.0266 374.989 58.2389 374.428C62.8173 373.933 67.2507 373.385 68.4165 373.239C68.5818 372.822 68.8716 372.578 69.1005 372.391C69.3892 372.153 69.506 372.044 69.506 371.728C69.506 370.876 68.6389 365.006 68.3048 362.815L68.0899 361.405Z" fill="#171717"/>
<path d="M126.93 128.251C117.24 135.264 112.244 136.758 110.59 137.068C111.84 140.412 114.403 147.925 114.494 149.823C114.516 150.267 114.535 150.944 114.559 151.768C114.651 154.949 114.806 160.273 115.366 163.074C115.721 164.851 117.333 169.975 118.891 174.931C120.456 179.907 121.934 184.609 122.162 185.97C122.614 188.681 122.273 192.324 121.698 194.143C121.32 195.341 119.438 198.202 118.064 200.29C117.435 201.247 116.89 202.074 116.755 202.345C116.364 203.127 116.005 204.542 115.818 206.038C115.694 207.027 115.749 209.254 115.79 210.879C115.807 211.543 115.821 212.122 115.821 212.504C115.821 213.694 115.045 215.242 114.16 215.817C114.078 215.871 113.995 215.901 113.912 215.937C113.89 216.314 113.875 217.1 113.979 218.304C114.493 218.353 116.848 220.931 116.425 221.608C116.339 221.748 116.33 221.939 116.406 222.075C116.465 222.181 116.56 222.233 116.7 222.233C117.232 222.233 117.48 222.594 117.643 222.833C117.849 223.133 118.011 223.371 118.809 223.308C120.898 223.146 125.42 222.282 126.021 221.748C126.465 221.353 127.119 221.12 127.751 220.895C128.268 220.712 128.911 220.483 129.063 220.241C129.063 220.241 132.992 213.581 133.016 213.356C132.998 213.245 132.167 194.14 132.402 193.203C132.596 192.265 133.818 172.759 133.818 168.289C133.818 161.423 133.551 144.776 131.08 138.517C128.98 133.198 127.474 129.556 126.93 128.251Z" fill="#171717"/>
<path d="M113.649 223.841C113.186 221.222 112.916 219.546 113.079 218.735C112.945 217.385 112.949 216.478 112.973 215.986C112.951 215.978 112.927 215.981 112.906 215.972C112.288 215.698 112.136 215.074 111.958 214.351C111.733 213.435 111.426 212.179 110.031 210.886C108.976 209.91 109.657 207.177 110.733 203.424C111.158 201.943 111.559 200.544 111.559 199.907C111.559 194.594 109.339 190.28 109.502 189.261C109.176 189.305 108.822 189.333 108.451 189.333C107.251 189.333 105.966 189.102 105.561 188.631C105.337 188.37 105.252 186.599 105.301 183.371L102.585 183.76C101.605 185.126 100.119 185.498 98.8179 185.498C97.4386 185.498 96.2781 185.095 96.1678 185.055C96.1664 185.055 96.1653 185.054 96.1643 185.054L95.9497 184.978C95.0427 184.662 94.4594 184.429 94.166 183.796C93.647 183.804 92.4797 183.818 90.791 183.818C88.5068 183.818 85.266 183.792 81.4155 183.692C81.5575 186.517 82.2258 200.191 82.0034 201.928C81.8345 203.257 80.5755 204.649 79.4033 205.44C79.0271 205.695 78.5452 205.959 78.0904 206.058C78.1482 207.565 78.1711 208.853 78.1443 209.789C77.9819 215.434 76.8096 232.349 76.6943 234.006C77.1523 234.818 81.298 245.661 81.298 247.952C81.298 251.229 83.3698 265.823 84.0809 268.809C84.501 270.573 85.8878 271.067 86.8052 271.393C87.3506 271.588 88.0228 277.481 87.5295 278.37C87.2318 278.904 86.8323 279.355 86.4086 279.832C85.7654 280.556 85.1004 281.305 84.6188 282.508C83.7921 284.576 82.9368 286.714 81.953 288.823C81.3344 290.149 80.844 298.488 80.5506 303.47C80.3649 306.619 80.2646 308.283 80.1686 308.713C79.9377 309.751 78.5498 311.259 77.0809 312.856C76.5648 313.417 76.0486 313.977 75.5946 314.507C74.0964 316.255 68.5885 333.802 68.4368 335.763C68.3729 336.598 70.7096 337.922 71.965 338.633C73.2047 339.335 73.7819 339.684 73.9604 340.061C75.3615 340.705 87.2935 346.159 90.1538 346.551C91.6805 346.759 92.6272 347.013 93.1055 347.164L93.606 347.37C94.0507 347.746 95.4332 348.688 96.4809 348.603C98.024 348.462 102.625 347.323 103.307 346.782C103.374 346.243 103.717 344.344 104.578 339.622C106.099 331.282 108.397 318.676 109.198 312.54C109.799 307.931 109.9 306.109 109.949 305.233C110.001 304.279 110.015 304.221 110.435 303.175C110.687 302.545 111.41 301.063 112.327 299.187C114.164 295.424 117.239 289.126 117.239 287.93C117.239 287.394 117.291 286.627 117.351 285.739C117.508 283.449 117.72 280.313 117.25 278.247C116.591 275.347 116.29 274.023 117.652 272.471C118.006 272.068 118.538 271.632 119.102 271.172C120.46 270.06 122.149 268.678 122.066 267.174C122.066 267.174 121.549 256.538 120.747 254.017C120.253 252.469 117.249 246.873 116.988 245.959C116.744 245.107 115.96 237.77 115.526 236.61C114.841 234.786 113.912 225.328 113.649 223.841Z" fill="#171717"/>
<path d="M27.3382 218.976C27.6955 220.533 28.1413 222.471 28.3548 222.767C28.3776 222.789 28.384 222.82 28.4037 222.844C28.6382 223.03 30.9327 224.836 31.8262 225.323C32.4309 225.653 34.2489 225.415 35.253 225.189L35.359 225.164L35.465 225.19C37.1202 225.586 39.196 224.28 39.217 224.267L39.3859 224.159L39.5815 224.208C39.5826 224.208 39.5833 224.208 39.5851 224.208C39.8217 224.208 40.536 223.52 41.0514 222.783L41.7739 221.75L41.8992 223.005C42.1512 225.528 42.9744 227.037 44.1577 227.144C44.8584 227.213 45.5709 226.606 45.7115 225.828C45.7701 225.508 45.6523 224.588 45.5487 223.776C45.2974 221.806 45.24 221.029 45.6383 220.676C45.79 220.54 45.9946 220.494 46.1956 220.542C46.3855 220.597 46.9841 220.37 47.4031 219.983C47.6469 219.758 47.6826 219.611 47.6791 219.586C47.1583 218.89 45.6383 216.922 44.9155 216.038C44.4397 215.456 44.5 213.699 44.7381 210.106C44.8348 208.645 44.9555 206.827 44.8377 206.497C44.5717 205.766 40.2572 200.889 38.1843 198.546C37.6693 197.964 37.2195 197.456 36.8814 197.068C34.5848 194.445 30.217 180.964 30.1731 180.828C29.6323 179.152 29.4478 177.287 29.1419 174.195C28.9298 172.052 28.6668 169.385 28.1892 165.819C27.3139 159.295 26.9448 158.211 26.1345 155.836C25.8696 155.057 25.5573 154.14 25.1654 152.861C23.5548 147.597 23.5366 145.724 23.5366 145.646C23.5366 145.388 23.745 145.18 24.0024 145.179C24.249 145.153 24.47 145.387 24.4718 145.644C24.4718 145.654 24.4821 146.151 24.7027 147.32C25.764 144.926 27.7362 141.491 29.8015 138.094C28.5297 136.9 22.798 131.663 16.3239 128.026C14.2489 126.861 12.417 125.866 10.8442 125.033L10.6161 128.803L10.6286 128.811L10.5975 129.1C10.5683 129.371 9.87292 135.77 9.33677 138.094C8.74386 140.664 8.45508 144.079 8.45508 148.536C8.45508 154.31 9.34212 163.317 11.8308 171.278C13.1937 175.641 16.3913 183.263 19.2124 189.989C21.9731 196.57 24.3576 202.254 24.5403 203.718C24.6417 204.525 24.7284 205.518 24.8209 206.575C25.0447 209.129 25.3235 212.309 25.9392 213.785C26.3979 214.885 26.8759 216.965 27.3382 218.976Z" fill="#171717"/>
<path d="M48.352 35.1233C71.7217 16.5904 84.5629 13.4274 87.2126 12.9458C86.749 10.1658 86.5673 7.45546 86.674 6.44027C86.7015 6.18183 86.7579 5.64176 87.213 5.53967C88.0443 5.35405 88.4381 4.57231 88.6994 4.05508C88.8693 3.71811 89.0164 3.42576 89.3644 3.4047C89.3644 3.4047 88.0704 1.576 85.6135 1.78696C82.4555 2.06575 73.73 6.48168 63.7794 14.1163C59.2985 17.5542 54.843 20.5084 51.2637 22.8828C46.6219 25.9616 42.9559 28.3925 42.0963 29.9692C41.3007 31.4263 41.1115 32.8388 41.5755 33.8425C41.8807 34.504 42.4415 34.9359 43.1972 35.094C44.4944 35.3635 46.0575 35.0173 46.8753 34.7863C47.0252 34.7442 47.1759 34.7242 47.324 34.7242C47.7099 34.7239 48.0668 34.8759 48.352 35.1233Z" fill="#171717"/>
<path d="M88.3455 17.6534C87.9564 16.5439 87.6337 15.2218 87.3778 13.8735C84.8976 14.3551 71.9222 17.6159 48.877 35.9021C49.2161 36.6685 49.713 37.7722 50.2513 38.9042C50.2655 38.892 50.273 38.8852 50.2884 38.8724C55.9851 34.0285 71.0212 22.3406 88.3455 17.6534Z" fill="#171717"/>
<path d="M89.4446 4.74072C89.1404 5.31614 88.6243 6.12287 87.6484 6.43271C87.4463 7.32474 87.693 10.3335 88.2238 13.2556C88.2252 13.2635 88.2302 13.2699 88.2309 13.2781C88.2313 13.2824 88.2295 13.2867 88.2298 13.2909C88.7742 16.2715 89.6138 19.1526 90.5761 19.5927C90.6472 19.5745 90.8853 19.32 91.0848 18.7031L91.0812 12.6277C91.0694 12.5499 91.0859 12.289 91.1369 11.5543C91.2308 10.2143 91.3914 7.89124 91.2472 6.40165C90.7389 6.09574 90.0464 5.49105 89.4446 4.74072Z" fill="#171717"/>
<path d="M56.8221 58.6084C56.8206 58.6227 56.8249 58.6359 56.8221 58.6498C56.8167 58.6809 56.5654 60.1772 57.9047 62.5624C60.6526 67.4574 65.2077 70.9956 69.6136 74.4167C73.6219 77.5297 77.4278 80.4914 79.3529 84.1705C80.5669 77.373 82.7372 74.6751 84.4135 72.6022C84.9882 71.8915 85.484 71.2786 85.8406 70.6061C87.1877 68.0624 85.8474 66.5593 85.5511 66.2716C85.3391 66.1752 85.1949 65.9675 85.1949 65.7222C85.1988 64.968 85.2181 63.8054 85.2927 63.0411C82.4345 62.9733 73.1629 60.8644 71.8489 60.0573C70.0045 58.9243 66.8079 54.3995 66.6726 54.2078C66.5245 53.9958 66.5748 53.7045 66.7858 53.5557C66.9978 53.4075 67.2891 53.4589 67.438 53.6688C67.4701 53.7145 70.6574 58.2282 72.3383 59.2606C73.6719 60.0794 84.0769 62.3011 85.6171 62.1137C85.8981 61.9163 86.4499 61.8267 87.5169 61.6586C89.5258 61.3424 93.2661 60.7534 93.4195 59.1078C93.553 57.6917 93.4834 56.5662 93.4277 55.6628C93.3685 54.7119 93.3264 54.0247 93.5355 53.4493C93.6369 53.1705 93.7447 52.9449 93.8397 52.7475C94.0699 52.2688 94.1392 52.1246 93.9136 51.6731C93.6037 51.0545 93.7636 50.3759 93.9053 49.7765C94.0014 49.3671 94.101 48.9445 93.9939 48.7039C93.9153 48.5276 93.794 48.323 93.6641 48.1017C93.1736 47.2686 92.5022 46.1267 93.1333 45.1343C93.4338 44.6628 93.98 44.2573 94.5593 43.8289C95.2465 43.3192 96.0257 42.7416 96.1042 42.1908C96.1528 41.8499 95.2547 40.8533 94.5986 40.1251C93.411 38.8079 92.0634 37.3134 92.077 35.9062C92.0881 34.7093 92.5732 33.2083 92.8627 32.3124C89.4006 32.7139 86.4578 32.876 83.9801 32.876C75.2896 32.876 72.2227 30.9227 71.8218 30.6368C71.6701 30.5286 71.6055 30.3459 71.6362 30.1738C60.4741 35.6867 54.0328 42.0363 52.7402 43.3788C53.2785 44.278 53.5505 45.603 53.835 46.9969C54.1795 48.6853 54.5357 50.4309 55.3642 51.4339C56.9066 53.3029 57.1326 56.8125 56.8221 58.6084Z" fill="#171717"/>
<path d="M53.7397 63.5893C53.4288 64.3143 53.8811 65.3073 54.3616 66.3582C54.6839 67.0654 55.0184 67.7953 55.1765 68.5471C55.255 68.9198 55.2365 69.432 55.1583 70.0206C55.1583 70.0224 55.1594 70.0238 55.1594 70.0253C55.1572 70.1327 55.1379 70.2359 55.1076 70.3365C54.8527 71.9068 54.2138 73.9461 53.6152 75.6381C53.5577 75.7987 53.5759 75.9725 53.6626 76.115C53.7512 76.2585 53.8982 76.3523 54.0681 76.3745C57.4146 76.8057 65.4665 77.8837 67.9488 78.5826C70.314 79.248 76.5883 86.0288 78.7364 88.9701C78.8335 87.855 78.9489 86.8094 79.0845 85.8478C77.5517 81.771 73.4174 78.5569 69.0386 75.1558C64.5595 71.6769 59.9276 68.0795 57.0884 63.021C56.4562 61.8955 56.1503 60.9496 55.9993 60.2061C55.8811 60.3196 55.7605 60.4281 55.6395 60.5327C55.0676 61.0271 54.4765 61.5386 54.1149 62.9343C54.0564 63.1599 53.9157 63.3762 53.7397 63.5893Z" fill="#171717"/>
<path d="M91.9397 23.5272L91.6191 23.3276C84.1523 24.8679 77.7017 27.2499 72.3105 29.8521C72.3284 29.8618 72.3484 29.8643 72.3652 29.8764C72.5597 30.0149 77.2969 33.2229 93.0409 31.3513V31.3142L93.4521 31.3032C96.7015 30.9248 99.6953 30.1238 99.8588 29.5894C99.7478 28.8384 95.6624 25.8492 91.9397 23.5272Z" fill="#171717"/>
<path d="M91.6455 19.8317C91.4717 20.1155 91.2507 20.3625 90.9691 20.4867C90.8402 20.5435 90.7089 20.5717 90.5764 20.5717C90.4404 20.5717 90.3034 20.5417 90.1709 20.4803C89.6094 20.2236 89.1147 19.5094 88.6863 18.5288C71.5031 23.1489 56.5526 34.7733 50.8934 39.5847C50.7992 39.6654 50.7377 39.7161 50.6699 39.7721C51.2104 40.8744 51.7565 41.9128 52.1981 42.5949C54.6682 40.0719 68.3979 27.0116 91.9279 22.3051C92.0475 21.6961 92.106 20.753 91.6455 19.8317Z" fill="#171717"/>
<path d="M105.64 173.651C105.465 173.749 105.279 173.829 105.077 173.87C104.795 175.374 103.796 180.561 103.068 182.744L105.318 182.422C105.367 180.125 105.474 177.204 105.64 173.651Z" fill="#171717"/>
<path d="M109.976 188.206C109.992 188.195 110.001 188.175 110.017 188.166C110.329 186.704 110.546 177.315 110.613 171.496L110.641 171.341C110.647 171.326 111.216 169.757 111.337 168.984C111.428 168.401 110.988 167.143 110.688 166.488L110.643 166.39L110.646 166.283L110.958 152.256C110.262 152.562 109.337 152.721 108.688 152.721C108.103 152.721 107.122 152.601 106.393 152.309L106.355 162.621C106.616 164.992 106.719 168.105 106.656 171.975C106.656 171.979 106.654 171.983 106.654 171.987C106.654 171.988 106.654 171.989 106.654 171.991C106.376 177.669 106.042 186.924 106.309 188.054C106.785 188.396 109.223 188.55 109.976 188.206Z" fill="#171717"/>
<path d="M9.71432 128.221L9.93599 124.555C6.79547 122.911 4.89002 122.021 4.50879 121.875C3.02135 121.306 2.49912 121.538 2.34277 121.664C2.13466 121.831 2.11896 122.14 2.12931 122.318C3.71599 123.971 6.66982 126.232 9.71432 128.221Z" fill="#171717"/>
<path d="M106.555 151.376C106.93 151.563 107.756 151.785 108.688 151.785C109.622 151.785 110.466 151.498 110.831 151.284C110.478 151.134 109.712 150.958 108.746 150.958C107.805 150.958 106.943 151.188 106.555 151.376Z" fill="#171717"/>
<path d="M99.6575 157.949C99.6282 157.938 99.6025 157.93 99.5789 157.925L99.429 157.935C99.4115 157.942 99.3933 157.951 99.3762 157.961C98.3713 158.556 97.8641 162.86 97.5921 165.172C97.4929 166.009 97.4118 166.687 97.3262 167.164C97.8434 167.602 99.499 168.83 101.672 168.96C101.818 163.413 100.979 158.486 99.6575 157.949Z" fill="#171717"/>
<path d="M96.2573 184.094L96.4757 184.171C96.832 184.298 97.1572 184.257 97.4963 184.046C99.7783 182.624 101.179 174.626 101.525 171.664L101.525 171.664C101.575 171.074 101.61 170.486 101.637 169.901C99.6041 169.773 97.9868 168.828 97.1411 168.208C96.8095 170.097 96.5125 171.757 96.2523 173.216C94.4229 183.454 94.4229 183.454 96.2573 184.094Z" fill="#171717"/>
<path d="M101.933 183.072C102.41 182.323 103.481 177.277 104.118 173.912H103.981C103.409 173.912 102.756 173.626 102.263 173.196C101.823 176.154 100.631 182.541 98.3691 184.534C99.586 184.614 101.091 184.396 101.933 183.072Z" fill="#171717"/>
<path d="M99.0661 69.8242C98.2701 68.9654 94.8022 67.4915 92.8008 66.9893C92.9978 67.8038 92.97 68.6448 92.9454 69.3555C92.9289 69.8206 92.9132 70.259 92.9753 70.5185C93.0831 70.7909 94.058 71.8525 95.0582 72.9169C95.1239 72.8994 95.1981 72.8784 95.2895 72.8537C96.2872 72.5749 98.6238 71.9256 100.388 73.0119C101.294 73.5709 102.341 73.9474 103.449 74.3465C104.82 74.8398 106.237 75.3506 107.571 76.2641C108.788 77.0969 109.993 77.3228 110.827 77.3671C108.078 75.2182 104.008 72.6117 101.468 71.4998C100.52 71.085 99.7122 70.5214 99.0661 69.8242Z" fill="#171717"/>
<path d="M112.24 78.578L112.229 78.5288C112.133 78.4435 112.037 78.3578 111.934 78.2693C111.774 78.2918 111.507 78.3214 111.141 78.3214C110.181 78.3214 108.619 78.1158 107.042 77.0353C105.807 76.1903 104.447 75.7006 103.13 75.2266C101.976 74.8111 100.885 74.418 99.8955 73.8087C98.588 73.0027 96.8028 73.4111 95.7841 73.6881C95.793 73.6973 95.8023 73.7073 95.8112 73.7166C98.7722 76.8457 99.6874 77.9152 99.6528 78.5109L99.641 78.713L99.4501 78.9214C99.2537 79.0849 98.7939 79.4669 89.1407 79.4997C88.9908 79.5008 88.853 79.5618 88.7534 79.6725C88.651 79.7849 88.6035 79.932 88.6192 80.0855L88.7856 81.7178C88.8759 82.5931 88.4511 83.4537 87.7029 83.9103C86.5706 84.6024 85.4134 85.3592 84.32 86.1327C84.3236 86.1655 84.3329 86.1973 84.3293 86.2316C84.3182 86.3312 83.2713 96.2525 83.6479 99.5347C83.7632 100.541 83.7657 102.93 83.7692 105.698C83.7728 109.161 83.7774 113.086 83.9959 115.546C84.3557 119.589 84.6756 125.165 83.9456 132.462C83.4494 137.423 83.4623 143.307 83.4733 148.034C83.4769 149.859 83.4808 151.474 83.4522 152.735C83.3819 155.899 82.3853 162.063 81.7895 165.745C81.6389 166.677 81.4958 167.564 81.4219 168.081C89.1782 168.255 94.776 168.107 96.216 168.06C96.2628 167.794 96.3081 167.536 96.3563 167.26L96.4612 166.657C96.5248 166.226 96.5905 165.679 96.6633 165.063C97.1191 161.192 97.6024 157.924 98.9007 157.157C99.1227 157.025 99.3647 156.972 99.605 156.986C99.9558 156.963 101.901 156.858 104.063 157.051C104.605 157.099 105.06 157.565 105.434 158.417L105.46 151.369C105.46 151.288 105.486 151.216 105.523 151.15C105.833 150.317 107.798 150.022 108.746 150.022C108.781 150.022 109.031 150.024 109.373 150.049C108.9 148.135 107.868 145.137 107.017 142.671C106.352 140.743 105.827 139.219 105.728 138.678C105.588 137.905 105.913 136.65 106.316 135.494C105.007 135.655 102.354 135.957 100.855 135.957C100.849 135.957 100.843 135.957 100.835 135.957C99.6403 135.955 92.9295 133.977 92.3055 131.332C91.7908 129.155 92.2134 114.723 92.2838 112.439C92.0235 112.286 91.8811 112.151 91.8065 112.027C91.4338 111.404 90.8638 108.357 90.1138 102.966C90.0553 102.547 90.1877 102.13 90.4754 101.82C90.7642 101.511 91.155 101.355 91.5945 101.379L111.555 102.715C111.622 101.46 111.86 97.7292 112.57 91.5006C113.44 83.8585 112.858 81.2941 112.24 78.578ZM108.063 96.0472C107.038 99.1213 103.309 100.704 103.151 100.771L102.99 100.838L102.823 100.783C102.731 100.752 100.525 99.9984 98.4731 97.6539C96.4659 95.3601 97.3568 92.856 97.7852 91.652L97.8837 91.3679C98.1011 90.7175 97.4853 89.8493 97.2919 89.5984C97.0909 89.3389 97.0973 88.9773 97.3083 88.7206L98.1022 87.7579C98.3085 87.5059 98.6587 87.4245 98.951 87.568C99.4707 87.8211 100.782 88.2841 101.741 87.1368V87.1358C101.927 86.9148 102.196 86.7777 102.48 86.7602C102.753 86.7402 103.032 86.8398 103.241 87.0333C103.791 87.5441 104.545 88.2402 106.043 87.9643C106.148 87.9343 106.532 87.6865 106.842 87.4463L106.968 87.3478H107.129C107.542 87.3478 107.849 87.7397 108.043 88.5136C108.338 89.693 107.947 89.9015 107.818 89.9696C107.61 90.0828 107.442 90.3177 107.36 90.6147C107.268 90.9427 107.307 91.2293 107.383 91.3582C108.334 92.9731 108.562 94.5505 108.063 96.0472Z" fill="#171717"/>
<path d="M0.938057 120.378C0.889867 120.63 1.05193 120.991 1.36891 121.428C1.45422 121.252 1.57451 121.081 1.75406 120.936C2.38337 120.428 3.39286 120.446 4.84282 121.001C5.54995 121.271 9.86272 123.324 16.782 127.211C23.1284 130.776 28.7587 135.844 30.2979 137.278C31.9417 134.596 33.5965 132.001 34.8448 130.043C35.7054 128.694 36.3851 127.629 36.6499 127.175C37.5505 125.63 37.8786 121.737 38.0549 119.645C38.1099 118.987 38.1481 118.531 38.1909 118.274C38.1399 117.722 37.82 113.843 38.1956 107.888C38.3416 105.577 38.6104 102.183 38.8952 98.5908C39.3978 92.2434 39.9686 85.0492 39.9696 82.3296C39.9718 77.7723 38.0981 74.2702 37.4774 73.2354C36.1213 73.829 31.1364 76.1681 28.003 79.7495C23.8519 84.4942 1.33999 118.288 0.938057 120.378Z" fill="#171717"/>
<path d="M103.981 157.983C102.824 157.88 101.733 157.868 100.93 157.876C102.393 159.947 102.738 165.189 102.59 169.443C102.59 169.447 102.592 169.452 102.592 169.456C102.592 169.464 102.589 169.47 102.588 169.477C102.56 170.282 102.516 171.054 102.456 171.759C102.44 171.942 102.538 172.158 102.73 172.367C103.054 172.72 103.58 172.976 103.981 172.976H104.681C105.245 172.976 105.711 172.52 105.72 171.96C105.875 162.477 104.927 158.067 103.981 157.983Z" fill="#171717"/>
<path d="M100.837 135.021C100.842 135.021 100.85 135.021 100.855 135.021C101.42 135.021 102.171 134.974 102.952 134.909C103.977 132.841 104.34 122.428 104.336 115.47C104.183 115.457 104.035 115.442 103.918 115.418L103.536 115.343C97.5877 114.159 94.6649 113.4 93.2064 112.856C93.024 118.805 92.8155 129.427 93.2146 131.117C93.6751 133.067 99.6716 135.019 100.837 135.021Z" fill="#171717"/>
<path d="M106.459 90.3631C106.594 89.8833 106.86 89.4935 107.217 89.244C107.214 89.0466 107.137 88.6979 107.05 88.4548C106.77 88.6476 106.446 88.8414 106.215 88.8831C104.259 89.2505 103.181 88.2528 102.605 87.7184L102.101 87.436L102.46 87.7355C101.159 89.2933 99.4263 88.7918 98.7145 88.4866L98.1455 89.1773C98.5117 89.6917 99.0911 90.7094 98.773 91.6639L98.667 91.9655C98.2429 93.1595 97.5323 95.1574 99.1778 97.0386C100.746 98.8301 102.435 99.6183 102.958 99.8321C103.662 99.5005 106.402 98.0798 107.179 95.7475C107.587 94.5206 107.385 93.2031 106.579 91.8327C106.354 91.4511 106.31 90.9021 106.459 90.3631Z" fill="#171717"/>
<path d="M113.279 111.858C112.973 109.42 112.501 105.678 112.287 104.074C112.257 103.856 112.077 103.687 111.857 103.672L91.533 102.312C91.5219 102.311 91.5112 102.311 91.5002 102.311C91.3713 102.311 91.2489 102.363 91.1614 102.458C91.1057 102.517 91.0154 102.647 91.0418 102.837C91.8557 108.687 92.3858 111.171 92.6103 111.545C92.6467 111.587 92.7285 111.647 92.8866 111.727C92.9362 111.741 92.9808 111.761 93.0222 111.79C93.8879 112.181 96.4205 112.972 103.721 114.425L104.104 114.501C105.033 114.687 107.729 114.488 111.69 113.94C112.693 113.8 113.406 112.867 113.279 111.858Z" fill="#171717"/>
<path d="M93.9545 182.863C93.8442 181.377 94.3353 178.623 95.3305 173.05C95.5458 171.845 95.7867 170.497 96.0505 169.001C94.9568 169.034 92.3542 169.099 88.6936 169.099C87.3911 169.099 85.9493 169.09 84.399 169.069C84.5622 175.579 84.1841 180.177 83.2871 182.801C88.7043 182.915 92.6298 182.881 93.9545 182.863Z" fill="#171717"/>
<path d="M51.7225 163.593C51.432 163.593 51.1953 163.829 51.1953 164.12V176.471C51.1953 176.762 51.432 176.999 51.7225 176.999H60.4837C60.7743 176.999 61.0109 176.762 61.0109 176.471V164.12C61.0109 163.829 60.7743 163.593 60.4837 163.593H51.7225Z" fill="#171717"/>
<path d="M80.901 113.849C81.2358 113.849 81.5072 113.578 81.5072 113.243C81.5072 112.908 81.2358 112.637 80.901 112.637C80.5663 112.637 80.2949 112.908 80.2949 113.243C80.2949 113.578 80.5663 113.849 80.901 113.849Z" fill="#171717"/>
<path d="M29.6196 169.776C30.2433 169.711 31.4426 169.61 33.0165 169.61C33.0218 169.61 33.0265 169.61 33.0311 169.61C33.0957 169.61 33.2481 169.321 33.2903 169.268C33.518 168.619 33.6351 167.19 33.7054 166.322C33.7807 165.395 33.8732 164.454 34.0256 163.572C32.1305 163.098 30.3175 162.596 28.5938 162.066C28.7497 163.061 28.9193 164.239 29.1146 165.695C29.318 167.211 29.4811 168.556 29.6196 169.776Z" fill="#171717"/>
<path d="M40.213 77.334C41.2953 75.7973 43.7226 72.8288 46.6086 72.3551C51.4136 71.5666 53.9598 70.8116 54.199 70.1095C54.2943 69.5073 54.3221 69.0315 54.2607 68.7395C54.1236 68.0898 53.812 67.4077 53.5107 66.748C53.1616 65.9848 52.8075 65.2052 52.7215 64.4531C51.6578 65.1488 50.0761 65.8488 48.1692 66.6848C44.6642 68.2215 40.3358 70.1238 38.2383 72.6832C38.6363 73.3289 39.5629 74.988 40.213 77.334Z" fill="#171717"/>
<path d="M78.7239 91.8665C78.3394 95.0392 78.0853 105.269 78.4918 110.558L78.6536 112.59C78.9513 116.281 79.1001 118.134 78.8434 122.326C78.6425 125.617 78.5896 128.599 78.5154 132.726C78.4797 134.712 78.4397 136.986 78.3755 139.724C78.3162 142.279 78.3169 144.122 78.3169 145.748C78.3187 149.504 78.3198 151.573 77.5513 156.88C76.706 162.718 76.4857 166.544 76.4297 167.931C77.8307 167.984 79.1818 168.025 80.4805 168.058C80.5419 167.606 80.6657 166.832 80.8656 165.595C81.4574 161.936 82.4469 155.813 82.5165 152.714C82.5447 151.459 82.5412 149.852 82.5376 148.035C82.5265 143.287 82.5137 137.377 83.0156 132.368C83.7373 125.15 83.4204 119.63 83.0641 115.627C82.8421 113.127 82.8375 109.18 82.8339 105.697C82.8303 102.958 82.8275 100.593 82.7179 99.6393C82.3866 96.7462 83.0877 89.2318 83.3254 86.8545C80.8342 88.7171 78.8777 90.5976 78.7239 91.8665ZM78.922 99.4858C78.922 98.6352 79.6134 97.9438 80.464 97.9438C81.3136 97.9438 82.0054 98.6352 82.0054 99.4858C82.0054 100.335 81.3139 101.027 80.464 101.027C79.6134 101.027 78.922 100.335 78.922 99.4858ZM79.8283 160.132C78.9777 160.132 78.2862 159.441 78.2862 158.591C78.2862 157.74 78.9777 157.049 79.8283 157.049C80.6779 157.049 81.3697 157.74 81.3697 158.591C81.3693 159.441 80.6779 160.132 79.8283 160.132ZM80.464 143.246C79.6134 143.246 78.922 142.555 78.922 141.705C78.922 140.854 79.6134 140.163 80.464 140.163C81.3136 140.163 82.0054 140.854 82.0054 141.705C82.0054 142.554 81.3136 143.246 80.464 143.246ZM80.9017 129.759C80.0521 129.759 79.3603 129.068 79.3603 128.217C79.3603 127.367 80.0517 126.676 80.9017 126.676C81.7523 126.676 82.4437 127.367 82.4437 128.217C82.4437 129.068 81.7523 129.759 80.9017 129.759ZM80.9017 114.784C80.0521 114.784 79.3603 114.093 79.3603 113.242C79.3603 112.392 80.0517 111.701 80.9017 111.701C81.7523 111.701 82.4437 112.392 82.4437 113.242C82.4437 114.093 81.7523 114.784 80.9017 114.784Z" fill="#171717"/>
<path d="M36.414 174.024C36.4183 170.329 35.6137 167.469 34.6667 166.055C34.6571 166.169 34.6471 166.284 34.6378 166.398C34.5332 167.681 34.4336 168.801 34.157 169.557C34.7074 170.786 35.0179 172.355 35.0179 174.025C35.0179 175.487 34.7877 176.824 34.3943 177.919C34.394 177.921 34.3947 177.924 34.394 177.926C34.3933 177.929 34.3901 177.93 34.3893 177.932C33.7607 179.673 32.7174 180.794 31.5115 180.794C31.3838 180.794 31.2574 180.781 31.1328 180.757C31.2645 181.163 31.4166 181.623 31.5915 182.143C33.9246 182.086 36.4065 179.543 36.414 174.024Z" fill="#171717"/>
<path d="M124.521 97.5308C123.384 95.7585 122.563 94.4777 122.266 93.9834C122.027 93.5861 121.652 92.9475 121.186 92.1536C119.078 88.5615 115.222 81.9924 113.464 79.7925C113.948 82.1994 114.24 85.1154 113.501 91.6064C112.76 98.1134 112.535 101.869 112.482 102.917C112.866 103.125 113.152 103.496 113.213 103.948L113.214 103.949C113.428 105.555 113.901 109.302 114.207 111.742C114.398 113.256 113.326 114.658 111.817 114.867C111.801 114.869 111.784 114.871 111.768 114.874C111.773 115.037 111.781 115.241 111.791 115.447C111.918 118.242 112.243 125.606 108.408 132.935C108.756 133.357 109.456 134.301 110.064 135.719C110.114 135.836 110.177 135.992 110.249 136.174C111.473 135.971 116.429 134.727 126.559 127.368L126.555 127.357L126.875 127.143C131.147 124.282 137.014 119.517 136.688 117.879C136.286 115.87 128.34 103.483 124.521 97.5308Z" fill="#171717"/>
<path d="M30.2749 176.104C31.2758 176.452 32.5644 176.895 33.6378 177.217C33.9105 176.322 34.0822 175.24 34.0822 174.025C34.0822 172.702 33.8719 171.462 33.5 170.432C33.3622 170.501 33.2105 170.546 33.0317 170.546C33.0306 170.546 33.0306 170.546 33.0306 170.546C33.0259 170.546 33.0206 170.546 33.016 170.546C31.4964 170.546 30.3245 170.644 29.7227 170.707C29.8612 171.977 29.9725 173.1 30.0714 174.102C30.1442 174.836 30.2095 175.497 30.2749 176.104Z" fill="#171717"/>
<path d="M31.5113 179.859C32.1445 179.859 32.8138 179.204 33.3111 178.096C32.3751 177.812 31.3117 177.452 30.3926 177.134C30.5082 178.079 30.6364 178.874 30.8052 179.594C31.0379 179.759 31.2743 179.859 31.5113 179.859Z" fill="#171717"/>
<path d="M137.604 117.696C137.201 115.682 131.046 105.97 125.307 97.0257C124.175 95.2605 123.356 93.9844 123.067 93.5029C122.829 93.1063 122.456 92.4705 121.992 91.6795C119.797 87.9393 115.711 80.9761 113.994 78.96C112.13 76.7701 105.542 72.2617 101.842 70.6429C101.014 70.2802 100.31 69.7905 99.7518 69.1887C98.6024 67.9489 93.9405 66.132 92.1475 65.9082C90.4473 65.6955 89.0048 65.6059 87.7323 65.5273C87.184 65.4934 86.6542 65.4606 86.1309 65.4206C86.1438 64.223 86.1902 63.241 86.2534 62.8427C86.5165 62.7648 87.1194 62.6692 87.6619 62.5842C90.2363 62.1787 94.1282 61.5647 94.3503 59.1967C94.4902 57.7075 94.4177 56.5427 94.3603 55.6064C94.3099 54.7997 94.2707 54.1629 94.4131 53.7702C94.5027 53.5253 94.5976 53.3279 94.6815 53.1545C94.9375 52.6208 95.1802 52.1175 94.749 51.2562C94.5909 50.941 94.6997 50.4805 94.814 49.9929C94.9464 49.4328 95.0824 48.8538 94.8479 48.3255C94.7576 48.1217 94.6194 47.885 94.4688 47.6295C94.0804 46.9691 93.5971 46.1477 93.9216 45.6387C94.129 45.3135 94.6305 44.9416 95.1145 44.5818C95.9898 43.9332 96.895 43.2624 97.0292 42.3254C97.1399 41.5508 96.3239 40.6463 95.2926 39.5015C94.2721 38.3685 93.0013 36.96 93.0113 35.9177C93.0213 34.8636 93.4782 33.4475 93.7513 32.6015C93.8063 32.4334 93.848 32.301 93.8809 32.1949C96.5191 31.8698 100.594 31.1387 100.784 29.7173C100.966 28.3359 95.9655 24.9541 92.7436 22.9287C92.9638 22.1419 93.2855 20.2775 92.0201 18.678L92.0147 12.5847C92.0093 12.4934 92.0404 12.0493 92.0704 11.6209C92.1685 10.2127 92.341 7.74724 92.1635 6.15663C92.175 6.06382 92.1607 5.97423 92.1218 5.89141C92.1032 5.76648 92.0872 5.63404 92.0629 5.52446C91.501 2.99648 88.922 0.566667 85.5302 0.855446C82.2405 1.14601 73.2994 5.63226 63.2085 13.3747C58.7541 16.7922 54.3131 19.7375 50.7457 22.1037C45.8108 25.376 42.244 27.7412 41.2738 29.5217C40.3218 31.2665 40.1265 32.9403 40.7248 34.2357C41.1532 35.1631 41.9627 35.7924 43.005 36.0098C44.4218 36.3039 46.0299 35.9969 47.1279 35.6874C47.4524 35.5932 47.784 35.7485 47.9172 36.0501C48.9156 38.3175 50.7446 42.3172 51.7741 43.6215C52.3342 44.3305 52.6172 45.7172 52.9171 47.1861C53.2844 48.9866 53.6645 50.8485 54.6408 52.0315C55.9833 53.656 56.1893 56.9246 55.9166 58.4349C55.9137 58.4453 55.9066 58.4531 55.9041 58.4639C55.902 58.4739 55.8941 58.5213 55.8855 58.592C55.8456 58.7715 55.7991 58.9243 55.7453 59.0321C55.5928 59.338 55.3433 59.5529 55.0281 59.8249C54.4113 60.3586 53.6442 61.0207 53.2083 62.6988C53.1812 62.803 53.1173 62.9119 53.0224 63.0247C53.0027 63.0411 52.987 63.0608 52.9703 63.0804C52.2342 63.8796 49.9839 64.8677 47.7933 65.8279C44.1209 67.4374 39.5611 69.4364 37.3669 72.2649C36.447 72.6476 30.8396 75.0878 27.2996 79.1349C23.6618 83.2917 0.521313 117.588 0.0190727 120.202C-0.108361 120.866 0.413511 121.751 1.26379 122.711C1.30341 122.793 1.36266 122.86 1.43905 122.907C3.72715 125.385 8.10132 128.299 9.63517 129.287C9.49096 130.581 8.8852 135.886 8.42473 137.883C7.8154 140.523 7.51948 144.007 7.51948 148.535C7.51948 154.379 8.41758 163.495 10.937 171.557C12.3138 175.961 15.5203 183.605 18.3496 190.351C20.9697 196.597 23.4445 202.497 23.6115 203.833C23.7111 204.631 23.7971 205.611 23.8882 206.655C24.1295 209.411 24.4032 212.534 25.074 214.145C25.5023 215.172 25.9921 217.305 26.4251 219.186C27.069 221.987 27.3442 223.078 27.6719 223.405C27.7387 223.521 27.6583 224.029 27.5941 224.439C27.4506 225.357 27.2332 226.745 27.5473 228.526C27.8443 230.21 28.8135 231.491 29.592 232.52C30.2552 233.397 30.8281 234.153 30.7603 234.833C30.7303 235.135 28.9827 243.949 29.8658 254.405C30.8853 266.474 39.1531 345.214 40.7837 351.553C41.1042 352.798 42.8162 359.325 43.815 364.75C45.0765 371.593 46.0121 373.349 47.3999 374.342C47.8693 374.696 47.517 377.95 47.3278 379.699C47.0465 382.296 47.4474 385.702 47.3542 386.311C47.2354 387.085 47.1022 387.962 47.683 389.101C48.3673 390.442 49.0177 390.625 49.7066 390.821C50.1085 390.935 50.5233 391.053 51.0777 391.422C52.6818 392.492 57.4826 393.457 63.08 393.457C63.9835 393.457 64.9091 393.431 65.8436 393.377C67.7319 393.268 76.8743 394.284 76.8765 391.703V386.87C76.8765 386.263 76.7183 385.665 76.4188 385.141C75.5511 383.624 73.4179 379.955 72.3434 378.667C69.5277 375.289 69.1844 374.165 69.2311 373.796C69.2732 373.459 69.4414 373.321 69.6945 373.112C70.0097 372.853 70.4419 372.499 70.4419 371.727C70.4419 370.903 69.7851 366.383 69.4378 364.053C70.7643 365.325 72.9021 367.276 73.7488 367.488C74.6533 367.723 79.9913 373.039 80.2369 373.937C80.2633 374.124 80.2269 374.61 80.1876 375.125C80.0516 376.937 79.8231 379.969 81.115 381.907C82.7273 384.326 88.5679 388.651 91.103 388.95C91.2008 388.961 100.93 389.797 101.4 387.928C101.451 387.724 101.594 387.456 101.761 387.145C102.339 386.063 103.308 384.252 102.885 380.655C102.307 375.744 101.734 373.608 100.525 371.863C99.8146 370.836 94.039 356.324 94.039 354.565C94.039 353.205 93.6892 352.029 93.4086 351.083C93.2433 350.525 93.0998 350.044 93.0998 349.739C93.0998 349.29 93.2915 348.785 93.4579 348.43C94.1193 348.894 95.393 349.649 96.5631 349.534C96.6398 349.527 104.229 348.331 104.229 346.936C104.247 346.639 104.826 343.465 105.496 339.79C107.019 331.439 109.32 318.82 110.124 312.66C110.73 308.017 110.832 306.172 110.881 305.285C110.927 304.456 110.927 304.456 111.301 303.522C111.54 302.924 112.294 301.382 113.166 299.596C115.905 293.986 118.173 289.236 118.173 287.929C118.173 287.426 118.224 286.673 118.283 285.802C118.442 283.454 118.662 280.238 118.161 278.039C117.484 275.06 117.349 274.234 118.355 273.087C118.657 272.742 119.16 272.33 119.694 271.895C121.215 270.649 123.109 269.1 122.998 267.122C122.998 267.122 122.476 256.369 121.637 253.733C121.118 252.101 118.12 246.518 117.886 245.701C117.665 244.927 116.878 237.552 116.4 236.28C115.762 234.581 114.836 225.184 114.569 223.679C114.273 222.003 113.943 220.137 113.959 219.242C114.349 219.285 115.733 220.952 115.632 221.113C115.365 221.54 115.348 222.096 115.588 222.53C115.813 222.937 116.218 223.17 116.721 223.17C116.752 223.188 116.824 223.293 116.871 223.362C117.123 223.729 117.543 224.352 118.88 224.24C120.17 224.141 125.626 223.35 126.642 222.447C126.95 222.173 127.516 221.971 128.065 221.777C128.819 221.509 129.532 221.255 129.856 220.736C129.856 220.736 133.995 213.676 133.946 213.28C133.836 212.398 133.176 194.295 133.31 193.429C133.501 192.668 134.754 172.838 134.754 168.289C134.754 161.368 134.481 144.582 131.95 138.173C129.744 132.583 128.187 128.83 127.716 127.703C130.067 126.107 138.145 120.399 137.604 117.696ZM132.402 193.203C132.167 194.14 132.998 213.245 133.016 213.356C132.992 213.581 129.063 220.241 129.063 220.241C128.911 220.483 128.268 220.712 127.751 220.895C127.119 221.12 126.465 221.353 126.021 221.748C125.42 222.282 120.898 223.146 118.809 223.308C118.012 223.371 117.849 223.133 117.643 222.833C117.48 222.594 117.232 222.233 116.699 222.233C116.561 222.233 116.465 222.181 116.406 222.075C116.33 221.939 116.339 221.747 116.425 221.608C116.848 220.931 114.493 218.353 113.979 218.304C113.874 217.1 113.889 216.314 113.912 215.937C113.994 215.901 114.078 215.871 114.16 215.817C115.045 215.242 115.821 213.694 115.821 212.504C115.821 212.122 115.807 211.543 115.79 210.879C115.749 209.254 115.694 207.027 115.818 206.038C116.005 204.541 116.364 203.127 116.755 202.345C116.89 202.074 117.435 201.247 118.064 200.29C119.438 198.201 121.32 195.341 121.698 194.143C122.273 192.324 122.614 188.681 122.162 185.97C121.934 184.609 120.456 179.908 118.891 174.931C117.333 169.975 115.721 164.851 115.366 163.074C114.806 160.273 114.652 154.949 114.559 151.768C114.535 150.943 114.516 150.267 114.494 149.823C114.403 147.925 111.84 140.412 110.59 137.068C112.244 136.757 117.24 135.264 126.929 128.251C127.473 129.556 128.98 133.198 131.079 138.517C133.551 144.776 133.817 161.423 133.817 168.289C133.818 172.759 132.596 192.266 132.402 193.203ZM116.987 245.958C117.248 246.871 120.253 252.467 120.746 254.016C121.548 256.536 122.065 267.173 122.065 267.173C122.148 268.677 120.459 270.059 119.102 271.17C118.538 271.631 118.006 272.067 117.652 272.469C116.29 274.022 116.59 275.346 117.25 278.246C117.719 280.311 117.507 283.447 117.351 285.738C117.29 286.626 117.238 287.393 117.238 287.928C117.238 289.124 114.163 295.422 112.326 299.185C111.41 301.062 110.686 302.543 110.434 303.174C110.015 304.22 110.001 304.277 109.948 305.232C109.899 306.107 109.798 307.93 109.197 312.538C108.397 318.675 106.098 331.28 104.577 339.621C103.716 344.342 103.373 346.241 103.306 346.78C102.624 347.321 98.0234 348.461 96.4802 348.601C95.4326 348.687 94.0501 347.744 93.6053 347.369L93.1049 347.162C92.6265 347.011 91.6799 346.758 90.1532 346.549C87.2928 346.158 75.3605 340.703 73.9597 340.06C73.7813 339.682 73.2041 339.334 71.9644 338.631C70.7093 337.92 68.3723 336.596 68.4362 335.761C68.5879 333.801 74.0957 316.253 75.5939 314.505C76.048 313.976 76.5641 313.416 77.0803 312.854C78.5492 311.257 79.937 309.749 80.168 308.712C80.264 308.281 80.3643 306.618 80.5499 303.469C80.8433 298.486 81.3338 290.147 81.9524 288.821C82.9362 286.713 83.7915 284.574 84.6182 282.507C85.0997 281.304 85.7647 280.555 86.4079 279.83C86.832 279.353 87.2311 278.903 87.5288 278.368C88.0221 277.479 87.3496 271.586 86.8045 271.392C85.8871 271.065 84.5004 270.571 84.0802 268.807C83.3695 265.822 81.2974 251.227 81.2974 247.951C81.2974 245.66 77.1517 234.817 76.6937 234.004C76.809 232.347 77.9812 215.433 78.1437 209.787C78.1708 208.851 78.1476 207.563 78.0898 206.057C78.5442 205.957 79.026 205.693 79.4026 205.439C80.5749 204.648 81.8335 203.255 82.0027 201.927C82.2251 200.189 81.5569 186.516 81.4148 183.69C85.2653 183.79 88.5058 183.817 90.7903 183.817C92.4791 183.817 93.6464 183.803 94.1654 183.795C94.4588 184.428 95.042 184.66 95.9491 184.977L96.1636 185.052C96.1647 185.053 96.1661 185.053 96.1672 185.053C96.2778 185.093 97.4383 185.496 98.8173 185.496C100.118 185.496 101.605 185.124 102.584 183.758L105.3 183.37C105.251 186.598 105.337 188.368 105.56 188.629C105.965 189.101 107.25 189.332 108.451 189.332C108.822 189.332 109.176 189.304 109.502 189.26C109.339 190.278 111.559 194.593 111.559 199.906C111.559 200.543 111.157 201.941 110.733 203.423C109.656 207.176 108.976 209.908 110.031 210.885C111.425 212.177 111.733 213.433 111.958 214.35C112.135 215.072 112.287 215.696 112.905 215.97C112.926 215.98 112.95 215.976 112.972 215.985C112.949 216.476 112.944 217.383 113.079 218.734C112.915 219.544 113.185 221.22 113.649 223.839C113.912 225.327 114.841 234.785 115.525 236.607C115.959 237.769 116.743 245.106 116.987 245.958ZM99.7568 372.394C100.851 373.975 101.406 376.087 101.957 380.764C102.345 384.07 101.497 385.655 100.936 386.703C100.741 387.07 100.572 387.385 100.521 387.639C99.9449 388.265 94.0215 388.349 91.2133 388.022C89.1269 387.775 83.4656 383.746 81.8942 381.388C80.7805 379.718 80.9943 376.886 81.1221 375.195C81.1696 374.555 81.2053 374.093 81.1642 373.806C81.0061 372.699 75.2287 366.892 73.9765 366.579C73.339 366.42 70.8546 364.155 69.2179 362.529L68.1934 352.039C68.584 351.645 68.952 350.692 69.5931 348.933C70.0314 347.73 73.5285 341.746 73.8359 341.034C76.1336 342.087 87.1372 347.081 90.0264 347.476C91.3022 347.651 92.1475 347.858 92.6301 347.998C92.4191 348.441 92.165 349.103 92.165 349.738C92.165 350.179 92.3185 350.695 92.5123 351.348C92.7764 352.237 93.1041 353.341 93.1041 354.564C93.1041 356.526 98.974 371.264 99.7568 372.394ZM75.9423 386.869L75.9516 391.676C75.6849 392.043 67.6866 392.333 65.7918 392.443C58.8843 392.839 53.1127 391.654 51.5977 390.643C50.921 390.192 50.3902 390.041 49.9625 389.921C49.3521 389.747 49.0162 389.652 48.5172 388.674C48.0731 387.805 48.1738 387.147 48.2798 386.451C48.383 385.775 48.0696 381.547 48.2588 379.799C48.5058 377.518 48.6625 375.82 48.4936 374.743C49.7137 375.013 52.3663 375.506 55.4775 375.506C56.4003 375.506 57.363 375.463 58.3407 375.357C62.7016 374.885 66.9327 374.366 68.3416 374.19C68.545 375.211 69.5834 376.815 71.6267 379.266C72.6536 380.498 74.7529 384.11 75.6078 385.605C75.8263 385.988 75.9423 386.426 75.9423 386.869ZM69.1015 372.39C68.8731 372.577 68.5829 372.821 68.4176 373.238C67.2521 373.383 62.8187 373.932 58.24 374.427C53.0277 374.988 48.0885 373.686 48.0267 373.67C47.9978 373.643 47.9771 373.603 47.9454 373.581C46.787 372.752 45.9328 371.072 44.737 364.579C43.7311 359.121 42.0109 352.564 41.6911 351.319C40.0687 345.012 31.8173 266.383 30.7989 254.326C29.9265 244.002 31.6577 235.272 31.6913 234.926C31.7962 233.882 31.1212 232.989 30.3391 231.955C29.5834 230.956 28.7274 229.825 28.469 228.363C28.182 226.735 28.3769 225.491 28.5193 224.583C28.5425 224.434 28.5611 224.301 28.5793 224.167C29.4174 224.811 30.7136 225.782 31.3778 226.144C32.402 226.704 34.7725 226.248 35.3554 226.122C37.1049 226.48 39.0453 225.453 39.5797 225.139C40.1076 225.131 40.6695 224.674 41.12 224.189C41.7 227.36 43.1835 227.994 44.0727 228.075C44.1348 228.081 44.1969 228.084 44.259 228.084C45.3735 228.084 46.4151 227.184 46.6314 225.994C46.7153 225.532 46.6039 224.663 46.4761 223.657C46.3912 222.992 46.2569 221.943 46.2862 221.481C47.0273 221.459 47.9892 220.867 48.3873 220.267C48.6778 219.831 48.6896 219.375 48.4219 219.017C47.9011 218.323 46.3683 216.338 45.6437 215.452C45.3513 214.993 45.5516 211.971 45.6712 210.167C45.8182 207.944 45.8932 206.664 45.7158 206.177C45.4152 205.348 42.3129 201.801 38.8843 197.925C38.371 197.344 37.9223 196.837 37.5843 196.452C36.1036 194.759 33.4639 187.617 31.9029 183.058C33.7124 182.889 35.5493 181.547 36.5602 178.874C46.9641 181.398 59.7524 182.646 70.6664 183.255C70.7214 183.276 70.8974 183.276 70.9306 183.269C72.5027 183.355 74.0336 183.428 75.5129 183.49C75.7706 186.35 77.3633 204.332 77.2074 209.759C77.0396 215.612 75.7792 233.655 75.7502 234.066C75.6464 234.741 71.1187 264.332 69.7491 270.633C69.0723 273.748 69.0787 277.198 69.0848 280.534C69.0912 284.197 66.5239 295.58 66.5239 297.568C66.5239 300.598 65.2521 327.379 64.7124 330.616C64.59 331.352 64.4875 331.878 64.41 332.276C64.1523 333.602 66.5461 344.398 66.9095 350.587C66.9445 351.185 67.0048 351.739 67.2518 352.036L68.1749 361.488L68.091 361.404L68.3055 362.812C68.64 365.003 69.5067 370.874 69.5067 371.725C69.5071 372.043 69.39 372.152 69.1015 372.39ZM24.54 203.717C24.3572 202.253 21.9727 196.569 19.212 189.988C16.391 183.263 13.1933 175.64 11.8305 171.277C9.3421 163.316 8.45471 154.309 8.45471 148.535C8.45471 144.079 8.74348 140.663 9.33639 138.093C9.87254 135.769 10.5679 129.37 10.5972 129.099L10.6282 128.81L10.6157 128.802L10.8438 125.032C12.4166 125.865 14.2485 126.86 16.3235 128.025C22.7973 131.662 28.5293 136.899 29.8012 138.093C27.7358 141.49 25.7636 144.925 24.7024 147.319C24.4821 146.15 24.4714 145.653 24.4714 145.643C24.4696 145.386 24.2487 145.152 24.002 145.178C23.7443 145.179 23.5362 145.387 23.5362 145.645C23.5362 145.723 23.5544 147.597 25.165 152.86C25.5569 154.139 25.8693 155.056 26.1341 155.835C26.9444 158.21 27.3135 159.293 28.1888 165.818C28.6668 169.384 28.9298 172.05 29.1415 174.194C29.4474 177.286 29.632 179.151 30.1728 180.827C30.2167 180.963 34.5844 194.444 36.8811 197.068C37.2191 197.455 37.6685 197.963 38.184 198.545C40.2568 200.888 44.5714 205.766 44.8373 206.496C44.9551 206.826 44.8344 208.644 44.7377 210.105C44.4993 213.699 44.4389 215.455 44.9151 216.037C45.6376 216.921 47.1579 218.889 47.6787 219.585C47.6823 219.61 47.6466 219.757 47.4028 219.982C46.9833 220.369 46.3851 220.596 46.1952 220.541C45.9942 220.493 45.7897 220.539 45.638 220.675C45.2396 221.028 45.2971 221.805 45.5484 223.775C45.6515 224.587 45.7693 225.507 45.7112 225.827C45.5705 226.605 44.858 227.212 44.1573 227.143C42.9743 227.036 42.1512 225.527 41.8988 223.004L41.7735 221.749L41.051 222.782C40.536 223.519 39.8213 224.207 39.5847 224.207C39.5829 224.207 39.5818 224.207 39.5811 224.207L39.3855 224.158L39.2166 224.266C39.1956 224.279 37.1199 225.585 35.4647 225.189L35.3587 225.163L35.2526 225.188C34.2485 225.414 32.4305 225.653 31.8258 225.322C30.9324 224.835 28.6378 223.029 28.4033 222.843C28.3837 222.819 28.3773 222.788 28.3544 222.766C28.1406 222.47 27.6948 220.532 27.3378 218.975C26.8755 216.964 26.3979 214.884 25.9392 213.784C25.3235 212.307 25.0447 209.127 24.8209 206.573C24.7281 205.517 24.6413 204.525 24.54 203.717ZM55.6403 60.5328C55.7613 60.4282 55.882 60.3197 56.0001 60.2062C56.1511 60.9497 56.457 61.8956 57.0892 63.0211C59.9284 68.0796 64.5603 71.677 69.0394 75.1559C73.4182 78.557 77.5525 81.7711 79.0853 85.8479C78.9493 86.8099 78.8344 87.8554 78.7373 88.9702C76.5891 86.0289 70.3149 79.2481 67.9497 78.5827C65.4674 77.8838 57.4155 76.8058 54.069 76.3746C53.8991 76.3528 53.752 76.2586 53.6635 76.1151C53.5767 75.9726 53.5585 75.7992 53.616 75.6382C54.2146 73.9458 54.8536 71.9065 55.1084 70.3366C55.1388 70.236 55.158 70.1328 55.1602 70.0254C55.1602 70.0236 55.1591 70.0222 55.1591 70.0207C55.2373 69.4321 55.2559 68.9202 55.1773 68.5472C55.0192 67.7955 54.6851 67.0655 54.3624 66.3583C53.8819 65.3078 53.4296 64.3144 53.7406 63.5894C53.9165 63.376 54.0572 63.16 54.1157 62.9344C54.4773 61.5383 55.0685 61.0268 55.6403 60.5328ZM43.1967 35.0938C42.4411 34.9357 41.8803 34.5038 41.5751 33.8423C41.111 32.8382 41.3002 31.4261 42.0959 29.969C42.9554 28.3923 46.6217 25.961 51.2633 22.8826C54.8425 20.5081 59.298 17.554 63.7789 14.1161C73.7295 6.48147 82.4546 2.06553 85.613 1.78675C88.0703 1.57579 89.3639 3.40448 89.3639 3.40448C89.0159 3.42554 88.8688 3.71789 88.6989 4.05486C88.4376 4.57209 88.0439 5.35383 87.2125 5.53945C86.7574 5.6419 86.701 6.18162 86.6735 6.44006C86.5672 7.45525 86.7485 10.1656 87.2122 12.9456C84.5625 13.4272 71.7213 16.5902 48.3516 35.1231C48.0664 34.8753 47.7094 34.7236 47.3228 34.7236C47.1747 34.7236 47.0241 34.7436 46.8741 34.7857C46.057 35.0171 44.4939 35.3633 43.1967 35.0938ZM93.4504 31.3033L93.0392 31.3143V31.3515C77.2955 33.223 72.5583 30.015 72.3634 29.8765C72.3467 29.8644 72.3267 29.8619 72.3088 29.8522C77.7003 27.25 84.1509 24.868 91.6174 23.3277L91.9379 23.5273C95.6607 25.8497 99.7461 28.8388 99.8567 29.5895C99.6936 30.1239 96.7001 30.9252 93.4504 31.3033ZM52.1978 42.5949C51.7562 41.9128 51.2101 40.8744 50.6697 39.7721C50.7375 39.7157 50.7989 39.665 50.8931 39.5847C56.5523 34.7733 71.5028 23.1489 88.6861 18.5288C89.1141 19.5097 89.6092 20.2236 90.1706 20.4803C90.3031 20.5413 90.4401 20.5717 90.5761 20.5717C90.7086 20.5717 90.8403 20.5435 90.9688 20.4867C91.2505 20.3625 91.4714 20.1155 91.6452 19.8317C92.1057 20.753 92.0472 21.6961 91.9272 22.3051C68.3976 27.0116 54.6683 40.0719 52.1978 42.5949ZM48.8759 35.902C71.9212 17.6157 84.8966 14.3549 87.3767 13.8734C87.6327 15.2216 87.9554 16.5438 88.3445 17.6532C71.0202 22.3404 55.9841 34.0283 50.2877 38.8722C50.2724 38.8851 50.2649 38.8918 50.2506 38.904C49.7119 37.7721 49.215 36.668 48.8759 35.902ZM91.2476 6.40115C91.3918 7.89073 91.2312 10.2142 91.1373 11.5538C91.0862 12.2885 91.0698 12.5498 91.0816 12.6272L91.0852 18.7026C90.8856 19.3195 90.6476 19.574 90.5765 19.5922C89.6142 19.1521 88.7746 16.271 88.2302 13.2904C88.2299 13.2862 88.2317 13.2819 88.2313 13.2776C88.2302 13.2694 88.2252 13.2633 88.2242 13.2551C87.693 10.333 87.4463 7.32424 87.6487 6.4322C88.6243 6.12236 89.1405 5.316 89.445 4.74022C90.0464 5.49126 90.7389 6.09595 91.2476 6.40115ZM52.7393 43.3799C54.0318 42.0377 60.4732 35.6878 71.6352 30.1749C71.6045 30.3473 71.6691 30.5297 71.8209 30.6379C72.2221 30.9238 75.2887 32.8771 83.9792 32.8771C86.4569 32.8771 89.3996 32.715 92.8618 32.3135C92.5723 33.2098 92.0872 34.7108 92.0761 35.9073C92.0625 37.3141 93.4101 38.8087 94.5977 40.1262C95.2537 40.8544 96.1515 41.851 96.1033 42.1919C96.0248 42.7427 95.2455 43.3203 94.5584 43.83C93.979 44.2584 93.4329 44.6642 93.1323 45.1354C92.5012 46.1274 93.1727 47.2693 93.6631 48.1028C93.7927 48.3237 93.9144 48.5286 93.993 48.705C94.0997 48.9452 94.0001 49.3682 93.9044 49.7776C93.7627 50.377 93.6028 51.0555 93.9127 51.6742C94.1382 52.1254 94.069 52.2699 93.8387 52.7486C93.7438 52.946 93.636 53.1716 93.5346 53.4504C93.3254 54.0258 93.3676 54.7129 93.4268 55.6639C93.4825 56.5673 93.5521 57.6928 93.4186 59.1089C93.2651 60.7541 89.5249 61.3434 87.5159 61.6597C86.449 61.8278 85.8971 61.9171 85.6162 62.1148C84.0756 62.3022 73.671 60.0805 72.3374 59.2617C70.6565 58.2293 67.4692 53.7156 67.437 53.6699C67.2882 53.4597 66.9966 53.4086 66.7849 53.5567C66.5739 53.7056 66.5236 53.9972 66.6717 54.2089C66.807 54.4006 70.0036 58.9258 71.848 60.0584C73.1623 60.8655 82.4339 62.974 85.2918 63.0422C85.2171 63.8064 85.1979 64.9691 85.1939 65.7233C85.1939 65.9685 85.3382 66.1763 85.5502 66.2727C85.8465 66.5604 87.1868 68.0635 85.8397 70.6072C85.4834 71.2797 84.9873 71.8926 84.4126 72.6033C82.7363 74.6762 80.566 77.3741 79.352 84.1716C77.4269 80.4925 73.621 77.5304 69.6127 74.4177C65.2068 70.9963 60.6516 67.4581 57.9038 62.5635C56.5645 60.1783 56.8158 58.682 56.8211 58.6509C56.824 58.6366 56.8197 58.6234 56.8211 58.6095C57.1317 56.814 56.9057 53.3044 55.363 51.4368C54.5345 50.4337 54.1782 48.6878 53.8337 46.9998C53.5496 45.6041 53.2776 44.2791 52.7393 43.3799ZM110.856 115.489C110.977 118.176 111.284 125.195 107.728 132.202L107.718 132.192L107.427 132.801C107.348 132.967 107.029 133.645 106.687 134.504C106.203 134.566 105.135 134.698 103.977 134.813C105.194 131.031 105.271 118.423 105.272 115.497C106.753 115.48 108.888 115.252 110.835 114.998C110.84 115.134 110.847 115.293 110.856 115.489ZM81.0736 201.809C80.944 202.823 79.866 203.986 78.9175 204.637C78.5474 204.892 78.2575 205.026 78.0487 205.097C77.7153 197.698 76.6919 186.141 76.4563 183.53C77.851 183.584 79.1953 183.629 80.4767 183.666C80.7741 189.562 81.2556 200.39 81.0736 201.809ZM71.5107 182.367C72.4602 179.229 72.3556 170.845 72.3113 168.683C73.4322 168.74 74.5298 168.79 75.6025 168.833C75.6863 168.923 75.8038 168.98 75.9362 168.982C75.9391 168.982 75.9409 168.982 75.9426 168.982C76.0629 168.982 76.1708 168.934 76.2536 168.859C78.8312 168.958 81.2513 169.02 83.4623 169.055C83.4627 169.067 83.4627 169.074 83.463 169.087C83.6701 177.302 82.9644 181.06 82.314 182.779C79.1114 182.704 75.4461 182.577 71.5107 182.367ZM36.8497 177.981C37.1638 176.858 37.3476 175.544 37.3498 174.025C37.3551 169.883 36.3114 166.155 34.7889 164.762C34.8264 164.43 34.8728 164.108 34.9253 163.795C39.5711 164.919 44.6978 165.877 50.2595 166.653V176.471C50.2595 177.278 50.9156 177.935 51.722 177.935H60.4832C61.2899 177.935 61.9456 177.278 61.9456 176.471V167.971C65.1893 168.256 68.3562 168.473 71.3743 168.636C71.4521 172.091 71.4253 179.955 70.5401 182.312C59.7342 181.704 47.1265 180.466 36.8497 177.981ZM35.6342 130.547C36.533 129.136 37.1838 128.117 37.4576 127.647C38.4653 125.92 38.7922 122.041 38.9868 119.725C39.0389 119.106 39.0835 118.572 39.121 118.386L39.1346 118.316L39.1274 118.246C39.1238 118.207 38.7301 114.273 39.1292 107.947C39.2745 105.643 39.5429 102.254 39.8281 98.6656C40.3325 92.3006 40.9043 85.0872 40.9051 82.3304C40.9058 80.9722 40.7491 79.7132 40.5128 78.5734C41.0189 77.7706 43.6761 73.7841 46.761 73.278C50.0914 72.7315 52.5405 72.2078 53.9087 71.5032C53.6428 72.5751 53.2505 73.8659 52.7339 75.3258C52.5815 75.7535 52.6297 76.2193 52.8664 76.6048C53.103 76.9893 53.4968 77.2445 53.949 77.3027C57.2752 77.731 65.2735 78.8008 67.6955 79.4833C70.3095 80.2187 77.4051 88.7336 78.4517 90.2014C78.0919 90.7443 77.8545 91.2676 77.7956 91.7531C77.4065 94.9607 77.1488 105.293 77.559 110.629L77.7207 112.665C78.0148 116.312 78.1629 118.143 77.9099 122.27C77.7078 125.581 77.6539 128.57 77.58 132.71C77.5443 134.695 77.5043 136.967 77.4401 139.702C77.3808 142.269 77.3815 144.198 77.3815 145.748C77.3833 149.461 77.3833 151.505 76.6252 156.746C75.776 162.614 75.5529 166.475 75.495 167.893C71.2936 167.722 66.7028 167.451 61.9453 167.031V164.12C61.9453 163.313 61.2892 162.657 60.4828 162.657H51.7216C50.9149 162.657 50.2592 163.313 50.2592 164.12V165.708C41.942 164.541 34.6005 162.971 28.4269 161.038C27.9603 158.297 27.5998 157.235 27.0201 155.533C26.757 154.762 26.4472 153.854 26.0599 152.587C25.608 151.111 25.2878 149.915 25.0565 148.952C26.3669 145.081 32.6136 135.283 35.6342 130.547ZM85.1397 73.1909C85.7454 72.4427 86.268 71.7959 86.6653 71.0448C87.7944 68.9131 87.3296 67.3193 86.7981 66.4001C87.0901 66.4194 87.3739 66.4422 87.6748 66.4604C88.9181 66.5379 90.2092 66.6207 91.7484 66.8038C92.0543 67.5931 92.039 68.5044 92.0097 69.3225C91.9904 69.8751 91.974 70.352 92.0654 70.7357C92.1653 71.1526 92.8807 71.9679 94.5395 73.7302C94.7276 73.9301 94.9193 74.1336 95.1324 74.3588C96.3335 75.6285 98.0705 77.464 98.582 78.2433C97.6393 78.3921 94.7854 78.5438 89.1376 78.5631C88.7264 78.5642 88.3337 78.7405 88.0585 79.0446C87.7819 79.3516 87.6473 79.7646 87.6894 80.1783L87.8558 81.8118C87.9097 82.339 87.6648 82.837 87.2154 83.1107C84.9851 84.4743 81.7432 86.6232 79.6989 88.7068C80.6127 78.8126 83.2142 75.5725 85.1397 73.1909ZM82.7181 99.6401C82.8277 100.594 82.8305 102.959 82.8341 105.698C82.8377 109.18 82.8423 113.128 83.0643 115.627C83.4206 119.631 83.7375 125.15 83.0158 132.368C82.5142 137.378 82.5271 143.287 82.5378 148.036C82.5414 149.852 82.5449 151.459 82.5167 152.714C82.4475 155.814 81.458 161.937 80.8658 165.596C80.6659 166.833 80.5421 167.606 80.4807 168.059C79.182 168.026 77.8306 167.985 76.4299 167.932C76.4859 166.544 76.7062 162.719 77.5515 156.88C78.3196 151.574 78.3189 149.504 78.3171 145.749C78.3171 144.122 78.3161 142.28 78.3757 139.725C78.4396 136.987 78.4799 134.713 78.5156 132.727C78.5895 128.599 78.6427 125.618 78.8437 122.327C79.1003 118.134 78.9515 116.282 78.6538 112.591L78.4921 110.559C78.0855 105.269 78.3396 95.0403 78.7241 91.8673C78.8779 90.5983 80.8344 88.7178 83.3256 86.8559C83.0875 89.2329 82.3868 96.7469 82.7181 99.6401ZM61.01 164.12V176.471C61.01 176.762 60.7734 176.999 60.4828 176.999H51.7216C51.431 176.999 51.1944 176.762 51.1944 176.471V164.12C51.1944 163.829 51.431 163.593 51.7216 163.593H60.4828C60.7734 163.593 61.01 163.829 61.01 164.12ZM34.0261 163.572C33.8733 164.454 33.7812 165.395 33.7059 166.322C33.6356 167.19 33.5185 168.619 33.2908 169.268C33.249 169.321 33.0962 169.61 33.0316 169.61C33.027 169.61 33.0224 169.61 33.017 169.61C31.4432 169.61 30.2438 169.711 29.6202 169.776C29.4817 168.556 29.3186 167.211 29.1151 165.695C28.9202 164.239 28.7506 163.062 28.5943 162.066C30.318 162.596 32.131 163.098 34.0261 163.572ZM33.017 170.546C33.0216 170.546 33.027 170.546 33.0316 170.546C33.0316 170.546 33.0316 170.546 33.0327 170.546C33.2115 170.546 33.3633 170.501 33.501 170.432C33.873 171.462 34.0832 172.702 34.0832 174.025C34.0832 175.24 33.9119 176.322 33.6388 177.217C32.5654 176.894 31.2768 176.451 30.2759 176.104C30.211 175.497 30.1453 174.837 30.0728 174.102C29.9739 173.1 29.8626 171.977 29.7241 170.707C30.3255 170.644 31.4971 170.546 33.017 170.546ZM33.3122 178.096C32.8146 179.204 32.1453 179.859 31.5124 179.859C31.2758 179.859 31.0391 179.759 30.8064 179.594C30.6375 178.874 30.5097 178.079 30.3937 177.134C31.3129 177.452 32.3763 177.812 33.3122 178.096ZM31.1333 180.757C31.2579 180.781 31.3843 180.794 31.5121 180.794C32.7179 180.794 33.7613 179.673 34.3899 177.932C34.3906 177.93 34.3938 177.928 34.3945 177.926C34.3952 177.923 34.3945 177.921 34.3949 177.919C34.7882 176.824 35.0185 175.487 35.0185 174.025C35.0185 172.355 34.7079 170.786 34.1575 169.557C34.4341 168.801 34.5337 167.681 34.6383 166.398C34.6476 166.285 34.6576 166.169 34.6672 166.055C35.6139 167.469 36.4188 170.329 36.4145 174.024C36.4074 179.543 33.9255 182.086 31.592 182.143C31.4171 181.623 31.2651 181.163 31.1333 180.757ZM84.399 169.069C85.9493 169.09 87.391 169.099 88.6936 169.099C92.3542 169.099 94.9567 169.035 96.0505 169.002C95.7867 170.498 95.5457 171.845 95.3305 173.051C94.3349 178.623 93.8441 181.377 93.9544 182.863C92.6297 182.882 88.7043 182.915 83.2871 182.801C84.1841 180.178 84.5621 175.58 84.399 169.069ZM105.719 171.959C105.71 172.52 105.244 172.976 104.681 172.976H103.98C103.58 172.976 103.054 172.72 102.729 172.366C102.537 172.157 102.44 171.942 102.455 171.758C102.515 171.054 102.559 170.281 102.588 169.477C102.588 169.469 102.592 169.463 102.592 169.456C102.592 169.451 102.589 169.447 102.589 169.442C102.738 165.189 102.392 159.946 100.929 157.876C101.732 157.867 102.824 157.88 103.98 157.982C104.927 158.067 105.875 162.476 105.719 171.959ZM101.672 168.96C99.499 168.831 97.8438 167.603 97.3262 167.164C97.4119 166.688 97.4933 166.009 97.5922 165.172C97.8645 162.859 98.3714 158.556 99.3762 157.961C99.3937 157.951 99.4119 157.942 99.4291 157.935L99.579 157.925C99.6029 157.93 99.6283 157.938 99.6575 157.95C100.979 158.486 101.819 163.413 101.672 168.96ZM96.2514 173.215C96.5117 171.756 96.8086 170.096 97.1403 168.207C97.9859 168.827 99.6033 169.772 101.636 169.901C101.609 170.486 101.575 171.073 101.524 171.663L101.524 171.664C101.178 174.626 99.7775 182.624 97.4954 184.046C97.1567 184.257 96.8311 184.298 96.4749 184.17L96.2564 184.094C94.4224 183.454 94.4224 183.454 96.2514 173.215ZM102.262 173.196C102.755 173.626 103.408 173.911 103.98 173.911H104.117C103.481 177.277 102.409 182.322 101.932 183.072C101.09 184.396 99.5851 184.614 98.3678 184.534C100.63 182.54 101.822 176.154 102.262 173.196ZM105.076 173.871C105.278 173.829 105.464 173.75 105.639 173.651C105.473 177.205 105.366 180.125 105.317 182.422L103.068 182.744C103.795 180.561 104.794 175.374 105.076 173.871ZM106.654 171.99C106.654 171.989 106.654 171.988 106.654 171.987C106.654 171.983 106.655 171.979 106.655 171.974C106.719 168.104 106.616 164.992 106.355 162.621L106.393 152.309C107.122 152.601 108.103 152.72 108.688 152.72C109.336 152.72 110.261 152.561 110.958 152.255L110.646 166.283L110.643 166.389L110.688 166.487C110.987 167.142 111.428 168.4 111.336 168.983C111.216 169.757 110.647 171.325 110.641 171.341L110.613 171.495C110.546 177.315 110.329 186.703 110.017 188.165C110.001 188.174 109.991 188.195 109.976 188.206C109.223 188.549 106.785 188.395 106.309 188.053C106.041 186.923 106.375 177.669 106.654 171.99ZM113.561 149.869C113.582 150.309 113.601 150.978 113.625 151.796C113.718 155.006 113.873 160.379 114.448 163.257C114.814 165.085 116.433 170.234 117.998 175.212C119.485 179.939 121.022 184.827 121.239 186.124C121.654 188.618 121.35 192.138 120.807 193.862C120.467 194.936 118.551 197.849 117.283 199.776C116.583 200.839 116.078 201.607 115.918 201.928C115.477 202.811 115.092 204.304 114.889 205.921C114.757 206.981 114.811 209.156 114.855 210.902C114.871 211.557 114.886 212.127 114.886 212.505C114.886 213.359 114.262 214.636 113.649 215.034C113.426 215.178 113.317 215.13 113.284 215.116C113.095 215.033 113.007 214.703 112.865 214.128C112.627 213.155 112.267 211.683 110.666 210.2C109.952 209.538 111.003 205.872 111.631 203.682C112.094 202.068 112.493 200.675 112.493 199.907C112.493 194.273 110.287 189.607 110.493 189.036L110.509 189.038L110.674 188.9C110.877 188.729 111.354 188.328 111.547 171.586C111.668 171.249 112.14 169.897 112.261 169.128C112.409 168.182 111.774 166.635 111.583 166.2L111.915 151.268C111.915 151.265 111.914 151.264 111.914 151.262C111.914 151.26 111.915 151.259 111.915 151.258C111.915 150.643 111.146 150.335 110.364 150.179C109.925 148.241 108.812 145.005 107.902 142.367C107.275 140.551 106.735 138.982 106.65 138.511C106.476 137.56 107.361 135.254 107.961 133.886C108.301 134.35 108.779 135.096 109.203 136.088C110.083 138.137 113.463 147.862 113.561 149.869ZM110.831 151.283C110.466 151.497 109.622 151.785 108.688 151.785C107.756 151.785 106.93 151.563 106.555 151.375C106.943 151.187 107.805 150.957 108.746 150.957C109.712 150.957 110.478 151.134 110.831 151.283ZM93.2073 112.856C94.6655 113.4 97.5886 114.159 103.537 115.342L103.919 115.418C104.036 115.442 104.184 115.456 104.337 115.469C104.34 122.428 103.978 132.841 102.953 134.908C102.172 134.974 101.42 135.021 100.856 135.021C100.85 135.021 100.843 135.021 100.838 135.021C99.6729 135.019 93.6763 133.067 93.2159 131.117C92.8164 129.426 93.0249 118.805 93.2073 112.856ZM111.689 113.94C107.728 114.488 105.032 114.687 104.103 114.501L103.72 114.425C96.4196 112.972 93.8869 112.181 93.0213 111.79C92.9799 111.762 92.9353 111.741 92.8857 111.727C92.7279 111.647 92.6458 111.587 92.6094 111.545C92.3845 111.171 91.8548 108.687 91.0409 102.837C91.0145 102.647 91.1048 102.517 91.1605 102.458C91.2483 102.363 91.3707 102.311 91.4992 102.311C91.5103 102.311 91.521 102.311 91.5321 102.312L111.856 103.673C112.076 103.687 112.256 103.856 112.286 104.074C112.5 105.678 112.972 109.42 113.278 111.858C113.405 112.866 112.693 113.8 111.689 113.94ZM111.555 102.715L91.5949 101.378C91.1555 101.355 90.7646 101.511 90.4759 101.82C90.1881 102.129 90.0557 102.547 90.1143 102.966C90.8642 108.356 91.4343 111.404 91.8069 112.027C91.8815 112.151 92.0236 112.286 92.2842 112.439C92.2139 114.723 91.7912 129.155 92.306 131.332C92.9299 133.977 99.6407 135.954 100.836 135.956C100.843 135.956 100.849 135.956 100.856 135.956C102.354 135.956 105.007 135.655 106.317 135.494C105.914 136.65 105.588 137.905 105.729 138.678C105.827 139.219 106.353 140.742 107.018 142.671C107.868 145.137 108.9 148.135 109.374 150.049C109.032 150.024 108.781 150.021 108.746 150.021C107.798 150.021 105.833 150.316 105.523 151.149C105.487 151.216 105.46 151.288 105.46 151.369L105.435 158.417C105.061 157.564 104.605 157.099 104.063 157.051C101.901 156.858 99.9559 156.963 99.6054 156.986C99.3652 156.972 99.1232 157.024 98.9011 157.157C97.6029 157.924 97.1196 161.192 96.6637 165.063C96.5909 165.678 96.5252 166.226 96.4617 166.656L96.3567 167.26C96.3085 167.536 96.2632 167.793 96.2165 168.06C94.7768 168.106 89.1787 168.255 81.4223 168.081C81.4962 167.564 81.6394 166.676 81.79 165.745C82.3858 162.063 83.3824 155.899 83.4527 152.734C83.4809 151.474 83.4773 149.858 83.4738 148.034C83.4627 143.306 83.4498 137.423 83.946 132.462C84.676 125.165 84.3562 119.589 83.9963 115.545C83.7779 113.086 83.7736 109.16 83.7697 105.697C83.7661 102.93 83.7633 100.54 83.6483 99.5344C83.2721 96.2522 84.319 86.3309 84.3298 86.2313C84.3333 86.197 84.324 86.1656 84.3205 86.1324C85.4142 85.3585 86.5711 84.6018 87.7034 83.91C88.4515 83.4531 88.8763 82.5928 88.786 81.7175L88.6197 80.0852C88.604 79.9317 88.6518 79.7846 88.7539 79.6722C88.8535 79.5615 88.9913 79.5005 89.1412 79.4994C98.7948 79.4666 99.2542 79.0846 99.4505 78.9211L99.6415 78.7127L99.6532 78.5106C99.6879 77.9149 98.7726 76.8451 95.8117 73.7163C95.8031 73.707 95.7934 73.697 95.7845 73.6878C96.8033 73.4111 98.5884 73.0024 99.896 73.8084C100.885 74.4177 101.976 74.8108 103.131 75.2262C104.447 75.7003 105.808 76.19 107.043 77.035C108.619 78.1158 110.182 78.3211 111.142 78.3211C111.508 78.3211 111.775 78.2918 111.934 78.269C112.037 78.3575 112.134 78.4432 112.23 78.5285L112.241 78.5777C112.858 81.2938 113.44 83.8582 112.569 91.5C111.861 97.7289 111.623 101.46 111.555 102.715ZM107.571 76.2639C106.237 75.3505 104.82 74.8397 103.448 74.3464C102.341 73.9473 101.294 73.5707 100.388 73.0117C98.6238 71.9255 96.2868 72.5751 95.2894 72.8536C95.1984 72.8785 95.1238 72.8992 95.0581 72.9167C94.0579 71.8523 93.0831 70.7907 92.9753 70.5183C92.9132 70.2588 92.9289 69.8205 92.9453 69.3554C92.9696 68.6447 92.9977 67.8037 92.8007 66.9891C94.8022 67.4917 98.2704 68.9652 99.066 69.8241C99.7118 70.5212 100.52 71.0848 101.468 71.4996C104.008 72.6115 108.078 75.2177 110.827 77.3669C109.993 77.323 108.787 77.0967 107.571 76.2639ZM48.1702 66.6846C50.0771 65.8486 51.6588 65.1486 52.7225 64.4529C52.8085 65.205 53.1627 65.9846 53.5118 66.7478C53.8134 67.4074 54.1247 68.0899 54.2617 68.7393C54.3231 69.0312 54.2953 69.5071 54.2 70.1093C53.9612 70.8114 51.4146 71.5667 46.6096 72.3549C43.7236 72.8286 41.2963 75.797 40.214 77.3337C39.5636 74.9878 38.6369 73.3283 38.2389 72.6829C40.3368 70.1232 44.6649 68.2209 48.1702 66.6846ZM37.4779 73.2359C38.0983 74.2703 39.9723 77.7728 39.9702 82.3301C39.9691 85.0497 39.3983 92.2439 38.8957 98.5913C38.6109 102.183 38.3421 105.577 38.1961 107.889C37.8206 113.844 38.1404 117.722 38.1915 118.275C38.1486 118.531 38.1101 118.987 38.0555 119.646C37.8791 121.738 37.5511 125.631 36.6505 127.175C36.3856 127.629 35.706 128.695 34.8453 130.044C33.5971 132.002 31.9422 134.596 30.2984 137.278C28.7596 135.845 23.1289 130.776 16.7825 127.211C9.86327 123.324 5.5505 121.271 4.84337 121.002C3.3934 120.446 2.38392 120.428 1.7546 120.936C1.57541 121.081 1.45475 121.252 1.36944 121.428C1.05246 120.992 0.890404 120.63 0.938593 120.379C1.34053 118.289 23.8525 84.4943 28.0035 79.7503C31.1365 76.1686 36.1218 73.8295 37.4779 73.2359ZM2.12906 122.318C2.1187 122.14 2.13441 121.831 2.34251 121.664C2.49886 121.538 3.02145 121.306 4.50853 121.875C4.88977 122.021 6.79521 122.911 9.93573 124.555L9.71406 128.221C6.66956 126.232 3.71574 123.971 2.12906 122.318ZM86.7092 277.914C86.4626 278.36 86.1127 278.754 85.7079 279.21C85.0436 279.958 84.2912 280.805 83.7493 282.16C82.9272 284.216 82.0766 286.341 81.1036 288.426C80.4621 289.801 80.0337 296.3 79.6154 303.414C79.4665 305.946 79.3377 308.132 79.2538 308.509C79.0785 309.301 77.6503 310.853 76.3906 312.221C75.8673 312.79 75.3437 313.359 74.8825 313.897C73.0984 315.979 67.6498 333.78 67.5038 335.69C67.3931 337.117 69.5767 338.354 71.5025 339.445C72.1089 339.789 72.851 340.21 73.0774 340.423C72.921 341.003 69.169 347.364 68.7142 348.612C68.4658 349.295 67.8501 350.634 67.8436 350.533C67.4763 344.275 65.1075 333.593 65.3285 332.455C65.407 332.051 65.5113 331.518 65.6355 330.77C66.1791 327.51 67.4599 300.609 67.4599 297.569C67.4599 295.72 67.4599 295.72 67.9878 294.192C68.2381 293.467 70.0268 284.268 70.0204 280.533C70.0139 277.246 70.0075 273.847 70.6625 270.833C71.8758 265.252 75.5454 241.552 76.4674 235.562C77.3509 237.264 80.3611 245.855 80.3611 247.951C80.3611 251.266 82.4521 266.011 83.1693 269.025C83.7065 271.283 85.517 271.927 86.4901 272.274C86.6318 272.324 87.0337 277.331 86.7092 277.914ZM126.875 127.142L126.554 127.356L126.559 127.367C116.429 134.726 111.473 135.97 110.249 136.173C110.177 135.991 110.114 135.836 110.064 135.718C109.456 134.3 108.756 133.356 108.408 132.934C112.243 125.605 111.918 118.241 111.791 115.447C111.782 115.241 111.773 115.036 111.768 114.873C111.784 114.871 111.801 114.869 111.817 114.866C113.326 114.657 114.398 113.254 114.207 111.741C113.901 109.301 113.428 105.554 113.214 103.948L113.213 103.947C113.152 103.495 112.866 103.125 112.482 102.916C112.535 101.869 112.759 98.1126 113.501 91.6056C114.24 85.1147 113.948 82.1987 113.464 79.7917C115.222 81.9917 119.078 88.5608 121.186 92.1529C121.652 92.9467 122.027 93.5853 122.265 93.9826C122.562 94.477 123.384 95.7578 124.521 97.5301C128.34 103.483 136.286 115.869 136.688 117.878C137.014 119.516 131.147 124.282 126.875 127.142Z" fill="white"/>
<path d="M43.2265 112.54C43.3536 112.637 43.6602 112.748 44.1375 112.874C44.0415 115.966 43.5971 131.333 44.1711 133.145C44.3071 133.575 44.5905 134.47 53.7368 134.47C53.7433 134.47 53.7504 134.47 53.7568 134.47C53.8232 134.47 56.1459 134.454 59.1869 134.341C59.2183 134.348 59.2472 134.36 59.2804 134.36C59.3296 134.36 59.3743 134.346 59.4185 134.332C65.172 134.113 73.3021 133.551 73.7529 132.127C74.1748 130.794 74.1184 122.528 74.0324 114.884C74.0153 113.347 73.9999 111.997 74.0049 111.452C74.2555 111.336 74.4511 111.233 74.5696 111.15C74.7049 111.054 74.8877 110.898 74.9187 110.653C74.9972 110.025 74.3915 105.405 73.87 101.639C73.7568 100.816 73.0615 100.223 72.2183 100.246C43.3654 101.253 42.7989 101.819 42.5854 102.033L42.5844 102.034C42.0571 102.562 42.4155 108.676 42.4198 108.737C42.6408 112.09 43.0209 112.382 43.2265 112.54ZM45.0627 132.862C44.6547 131.573 44.8368 120.548 45.067 113.094C46.9678 113.505 50.3289 114.063 55.3678 114.863C56.8977 115.106 58.1563 115.305 58.8128 115.423V133.439C58.5793 133.448 58.3516 133.457 58.1138 133.464C50.3047 133.704 45.5414 133.297 45.0627 132.862ZM73.0972 114.894C73.1546 119.973 73.2735 130.543 72.8908 131.786C72.3822 132.351 67.2845 133.097 59.7484 133.406V115.506C62.1535 115.335 69.7086 113.146 73.0693 111.842C73.07 112.444 73.0808 113.421 73.0972 114.894ZM43.3033 102.715C44.9128 102.339 56.0967 101.744 72.2512 101.181C72.5974 101.127 72.8962 101.421 72.9437 101.767C73.5805 106.361 73.9806 109.668 73.9935 110.417C73.8828 110.497 73.6961 110.594 73.4573 110.703C73.3788 110.718 73.3056 110.747 73.2464 110.797C70.2508 112.077 60.4801 114.8 59.3792 114.579C58.9263 114.48 57.4206 114.242 55.5148 113.939C52.3879 113.443 47.0831 112.601 44.8375 112.109C44.7754 112.075 44.7072 112.05 44.6315 112.048C44.6201 112.048 44.6108 112.053 44.5998 112.054C44.2078 111.963 43.9273 111.885 43.8266 111.828C43.2794 111.085 43.0988 104.086 43.3033 102.715Z" fill="white"/>
<path d="M80.4639 101.027C81.3135 101.027 82.0053 100.335 82.0053 99.4854C82.0053 98.6348 81.3138 97.9434 80.4639 97.9434C79.6133 97.9434 78.9219 98.6348 78.9219 99.4854C78.9219 100.335 79.6133 101.027 80.4639 101.027ZM80.4639 98.8789C80.7984 98.8789 81.0697 99.1513 81.0697 99.4854C81.0697 99.8199 80.7984 100.091 80.4639 100.091C80.1294 100.091 79.8575 99.8199 79.8575 99.4854C79.8575 99.1513 80.1294 98.8789 80.4639 98.8789Z" fill="white"/>
<path d="M80.9027 111.701C80.0531 111.701 79.3613 112.393 79.3613 113.243C79.3613 114.093 80.0528 114.785 80.9027 114.785C81.7533 114.785 82.4447 114.093 82.4447 113.243C82.4447 112.393 81.7533 111.701 80.9027 111.701ZM80.9027 113.849C80.5682 113.849 80.2969 113.577 80.2969 113.243C80.2969 112.908 80.5682 112.637 80.9027 112.637C81.2371 112.637 81.5092 112.908 81.5092 113.243C81.5092 113.577 81.2371 113.849 80.9027 113.849Z" fill="white"/>
<path d="M80.9027 126.676C80.0531 126.676 79.3613 127.368 79.3613 128.218C79.3613 129.068 80.0528 129.76 80.9027 129.76C81.7533 129.76 82.4447 129.068 82.4447 128.218C82.4447 127.368 81.7533 126.676 80.9027 126.676ZM80.9027 128.824C80.5682 128.824 80.2969 128.551 80.2969 128.217C80.2969 127.883 80.5682 127.611 80.9027 127.611C81.2371 127.611 81.5092 127.883 81.5092 128.217C81.5092 128.552 81.2371 128.824 80.9027 128.824Z" fill="white"/>
<path d="M80.4639 140.163C79.6133 140.163 78.9219 140.854 78.9219 141.705C78.9219 142.554 79.6133 143.246 80.4639 143.246C81.3135 143.246 82.0053 142.555 82.0053 141.705C82.0053 140.854 81.3135 140.163 80.4639 140.163ZM80.4639 142.31C80.1294 142.31 79.8575 142.039 79.8575 141.705C79.8575 141.37 80.1298 141.098 80.4639 141.098C80.798 141.098 81.0697 141.371 81.0697 141.705C81.0697 142.039 80.7984 142.31 80.4639 142.31Z" fill="white"/>
<path d="M79.8292 157.049C78.9785 157.049 78.2871 157.74 78.2871 158.591C78.2871 159.44 78.9785 160.132 79.8292 160.132C80.6787 160.132 81.3705 159.441 81.3705 158.591C81.3702 157.74 80.6787 157.049 79.8292 157.049ZM79.8292 159.197C79.4947 159.197 79.2227 158.925 79.2227 158.591C79.2227 158.256 79.4951 157.984 79.8292 157.984C80.1636 157.984 80.4349 158.257 80.4349 158.591C80.4349 158.925 80.1633 159.197 79.8292 159.197Z" fill="white"/>
<path d="M50.3459 99.3714C50.3534 99.3714 50.3605 99.3714 50.3677 99.3714L64.5571 98.8991H64.5582C64.9712 98.8845 65.2946 98.5375 65.2799 98.1263L65.226 96.5186C65.2196 96.3187 65.1365 96.1331 64.9905 95.996C64.8445 95.86 64.667 95.7979 64.4543 95.7939L50.2666 96.2662C50.0667 96.2726 49.88 96.3558 49.7433 96.5018C49.6073 96.6478 49.5359 96.837 49.5413 97.038L49.5952 98.6485C49.6098 99.0515 49.9432 99.3714 50.3459 99.3714ZM64.2969 96.7356L64.3379 97.97L50.524 98.4294L50.483 97.195L64.2969 96.7356Z" fill="white"/>
<path d="M107.362 90.6144C107.445 90.3174 107.613 90.0825 107.821 89.9693C107.95 89.9008 108.341 89.6927 108.046 88.5133C107.851 87.7394 107.545 87.3475 107.132 87.3475H106.971L106.845 87.446C106.535 87.6862 106.151 87.934 106.046 87.9639C104.547 88.2399 103.794 87.5438 103.244 87.033C103.035 86.8392 102.756 86.7396 102.483 86.7599C102.199 86.7774 101.929 86.9145 101.744 87.1354V87.1365C100.785 88.2838 99.4737 87.8208 98.954 87.5677C98.6616 87.4242 98.3118 87.5056 98.1051 87.7576L97.3112 88.7203C97.1003 88.977 97.0939 89.3389 97.2948 89.5981C97.4887 89.8494 98.1044 90.7172 97.8866 91.3675L97.7881 91.6517C97.3598 92.8557 96.4688 95.3598 98.476 97.6536C100.528 99.9977 102.734 100.752 102.826 100.783L102.993 100.838L103.154 100.771C103.312 100.704 107.04 99.121 108.066 96.0469C108.565 94.5505 108.337 92.9728 107.387 91.3576C107.311 91.229 107.271 90.9421 107.362 90.6144ZM107.18 95.7474C106.404 98.0798 103.663 99.5005 102.959 99.8321C102.436 99.6183 100.747 98.8298 99.1792 97.0385C97.534 95.1574 98.2447 93.1595 98.6684 91.9655L98.7744 91.6638C99.0925 90.7093 98.5131 89.6913 98.1469 89.1773L98.7159 88.4865C99.4276 88.7917 101.161 89.2933 102.461 87.7355L102.102 87.436L102.607 87.7184C103.182 88.2527 104.26 89.2504 106.216 88.8831C106.447 88.841 106.772 88.6475 107.051 88.4548C107.139 88.6978 107.216 89.0466 107.218 89.244C106.861 89.4935 106.595 89.8837 106.461 90.3631C106.311 90.9021 106.356 91.4511 106.58 91.833C107.386 93.2034 107.588 94.5206 107.18 95.7474Z" fill="white"/>
</svg>
