<svg width="192" height="363" viewBox="0 0 192 363" fill="none" xmlns="http://www.w3.org/2000/svg">
<path d="M17.808 201.937C17.4009 201.82 16.9754 201.972 16.7283 202.291C16.7847 202.346 16.8408 202.402 16.8965 202.458L16.6849 202.668L16.6846 202.668L16.5415 202.81L32.4858 207.355C32.122 207.336 31.7677 207.317 31.4485 207.278L31.5107 206.781C31.5107 206.781 31.5107 206.781 31.5106 206.781C27.228 206.244 22.9662 205.013 18.8021 203.81L18.8018 203.81L17.7076 203.494L16.9971 203.289L17.0392 202.859C17.0425 202.825 17.0434 202.795 17.0438 202.774L17.0441 202.748L17.0441 202.745M17.808 201.937L17.6696 202.417M17.808 201.937L17.6699 202.417M17.808 201.937L19.2251 202.345M17.6696 202.417C17.4088 202.343 17.1317 202.488 17.0441 202.745M17.6696 202.417C17.6697 202.417 17.6698 202.417 17.6699 202.417M17.6696 202.417L17.6699 202.417M17.0441 202.745L17.0443 202.732C17.0447 202.716 17.0457 202.737 17.0366 202.769C17.0389 202.761 17.0414 202.753 17.0441 202.745ZM17.6699 202.417L19.0863 202.826L19.2251 202.345M19.2251 202.345L19.2302 202.347C23.3116 203.526 27.5323 204.745 31.7006 205.268L19.0867 202.826L19.2251 202.345ZM55.8986 157.897L55.7938 157.779L55.6401 157.742C47.056 155.699 38.0595 158.705 29.2816 161.638C29.0411 161.719 28.8007 161.799 28.5606 161.879C19.4788 164.91 10.6508 167.712 2.41226 165.128C2.20981 165.064 2.02814 164.937 1.86852 164.761L0.980236 163.781L0.998092 165.104C1.01758 166.548 1.09322 167.989 1.21126 169.417C2.09108 180.069 4.86182 190.07 11.5362 198.683L11.9314 198.377L11.5362 198.683C12.251 199.606 13.0533 200.357 13.8518 201.059C14.0504 201.234 14.2476 201.405 14.4432 201.574C15.0431 202.093 15.6271 202.598 16.1866 203.162L16.6461 203.626L17.1796 204.288C19.0503 206.611 20.5188 209.244 21.987 211.893L22.4244 211.651L21.987 211.893C23.0909 213.885 24.3502 215.78 25.599 217.655L25.6439 217.723C26.8811 219.58 28.1062 221.42 29.1842 223.346C30.5264 225.743 32.2306 230.393 33.6315 234.57C35.0284 238.736 36.1032 242.368 36.1898 242.695C36.5068 243.894 37.025 245.221 37.5809 246.555C37.773 247.016 37.9692 247.476 38.164 247.934C38.5387 248.813 38.9088 249.682 39.2374 250.524C39.737 251.803 40.1194 252.967 40.2592 253.932C40.4014 254.914 40.2737 255.557 39.9255 255.935C39.4267 256.476 38.6883 257.272 37.8565 258.169C35.9511 260.223 33.5554 262.806 32.4235 264.067L32.7955 264.401L32.4235 264.067C25.5145 271.763 19.0427 284.542 14.5452 293.747C11.8007 299.364 9.76343 306.313 8.00597 312.308L7.85847 312.811C7.65227 313.514 7.88356 314.109 8.11334 314.582C8.17067 314.7 8.22668 314.81 8.27986 314.914C8.4571 315.261 8.60308 315.546 8.66289 315.883C8.915 317.302 9.91548 317.979 10.8322 318.504C10.9591 318.577 11.0827 318.646 11.2038 318.714C11.4813 318.869 11.7453 319.017 12.0047 319.183C12.5729 319.549 13.1045 319.926 13.644 320.309C13.9739 320.544 14.3068 320.78 14.6528 321.017C15.547 321.629 16.4885 322.216 17.5575 322.666C20.6582 323.971 24.5648 324.743 27.6987 323.612C28.7998 323.215 29.8091 322.585 30.6422 321.655C32.1456 319.977 32.6945 317.711 33.1923 315.655C33.2451 315.437 33.2974 315.221 33.3502 315.009L32.8649 314.888L33.3502 315.009C35.7913 305.179 41.2542 296.78 47.5137 288.653C49.4811 286.099 51.5313 283.567 53.589 281.026C58.0559 275.509 62.5585 269.949 66.3276 264.019C69.1982 259.502 69.7494 254.517 69.5367 250.131C69.4303 247.937 69.1323 245.884 68.8335 244.107C68.7417 243.561 68.6507 243.045 68.5651 242.56C68.3692 241.45 68.202 240.503 68.1216 239.736C67.4457 233.3 65.8186 228.546 64.2967 224.099C64.2286 223.9 64.1606 223.701 64.093 223.503C64.2557 223.617 64.4198 223.726 64.5791 223.831C64.8295 223.995 65.069 224.148 65.2879 224.287C65.681 224.537 66.0079 224.745 66.2132 224.906L66.2132 224.906C66.7705 225.341 67.3278 225.776 67.8852 226.211C68.6306 226.793 69.3761 227.375 70.1214 227.956C71.6825 229.174 72.9439 230.509 74.2786 231.921C74.7195 232.387 75.1684 232.862 75.6387 233.344C76.1935 233.913 76.7573 234.472 77.3205 235.031C78.5501 236.25 79.7768 237.467 80.9013 238.772C82.5303 240.662 83.8991 242.688 84.6609 245.055L85.1369 244.901C86.4621 249.018 85.761 253.442 85.0797 257.742C85.0182 258.13 84.9569 258.517 84.8972 258.903C83.3894 268.652 83.0063 278.574 83.7538 288.41C84.2588 295.058 85.5238 301.745 86.7798 308.384C87.3073 311.172 87.8331 313.952 88.3005 316.717L87.8074 316.8L87.8075 316.8C87.9344 317.557 88.096 318.52 88.7075 319.247C89.2923 319.943 90.1546 320.267 90.8876 320.481C91.4625 320.649 92.037 320.774 92.6093 320.87C96.0922 321.45 99.623 320.817 103.01 320.21C103.773 320.073 104.528 319.938 105.274 319.818C106.014 319.699 107.068 319.719 108.286 319.741C108.548 319.746 108.818 319.751 109.093 319.755C110.607 319.776 112.271 319.758 113.64 319.417C114.929 319.095 116.093 318.452 116.519 317.144C117.134 315.251 116.497 313.243 115.958 311.546C115.94 311.49 115.923 311.435 115.905 311.38C109.894 292.398 111.304 271.857 114.354 252.078C114.421 251.644 114.489 251.209 114.557 250.773C115.29 246.073 116.036 241.291 115.832 236.483C115.606 231.165 113.386 226.29 110.705 221.802C97.429 199.579 80.0762 182.203 63.4495 165.555C61.2638 163.366 59.0906 161.19 56.9409 159.018C56.5684 158.641 56.2276 158.269 55.8986 157.897ZM32.5272 206.856L32.5114 206.855L32.5866 205.332L32.5616 205.831C32.562 205.831 32.5625 205.831 32.5629 205.831C33.3097 205.869 34.0553 205.91 34.6777 206.144C37.5087 207.211 43.2436 209.719 48.9178 212.597C54.6135 215.486 60.1637 218.708 62.6893 221.193C62.8508 221.352 62.8799 221.603 62.7506 221.816L62.7229 221.861L62.7197 221.865C62.6958 221.896 62.6784 221.924 62.6673 221.943C62.6669 221.944 62.6665 221.944 62.6661 221.945C62.5705 222.029 62.4511 222.071 62.3298 222.071C62.1996 222.071 62.0702 222.021 61.9709 221.924L61.9707 221.923C60.7447 220.717 58.7744 219.334 56.4444 217.912C54.1062 216.485 51.3764 215 48.61 213.592C43.0795 210.777 37.3756 208.256 34.3175 207.103L34.3174 207.103C34.0517 207.003 33.7407 206.951 33.4419 206.919C33.1444 206.887 32.8247 206.871 32.5272 206.856Z" fill="#171717" stroke="white"/>
<mask id="path-2-outside-1_1136_1048" maskUnits="userSpaceOnUse" x="7.25781" y="31.1396" width="185" height="312" fill="black">
<rect fill="white" x="7.25781" y="31.1396" width="185" height="312"/>
<path d="M27.5291 323.142C27.5186 325.917 27.6996 328.692 28.0726 331.442C27.8139 331.731 27.5651 332.031 27.3195 332.312C23.4647 336.732 16.2395 337.711 11.3474 334.475C10.6975 334.046 9.9824 333.547 9.25781 333.27C9.3603 331.47 9.5024 329.673 9.68838 327.88C9.94016 325.454 9.74535 320.219 11.0809 318.07C11.4774 318.298 11.8887 318.514 12.2754 318.763C14.1142 319.945 15.7048 321.344 17.7515 322.205C20.8077 323.491 24.5701 324.21 27.5291 323.142ZM105.195 319.324C101.07 319.987 96.8539 321.07 92.692 320.376C92.8587 321.309 93.3606 322.435 93.7643 323.732C94.797 327.047 95.8297 330.363 96.8621 333.678C97.3824 335.349 98.341 337.437 99.0565 339.48C99.1409 339.486 99.2248 339.493 99.307 339.505C102.487 339.955 105.392 342.418 108.545 341.808C111.92 341.155 113.763 337.309 116.965 336.059C118.104 335.613 119.221 335.264 120.313 335.025C119.206 333.809 118.499 332.268 117.865 330.739C116.26 326.863 114.819 322.92 113.519 318.931C110.925 319.578 107.106 319.017 105.195 319.324ZM189.767 63.2102C190.673 64.8397 190.8 67.6517 188.836 68.4172C187.451 68.9565 184.655 68.0799 183.149 67.9598C182.351 67.8959 181.55 67.8481 180.75 67.8013C177.396 67.6045 174.034 67.5479 170.676 67.6464C170.363 67.6556 170.039 67.6638 169.753 67.5295C169.164 67.2538 168.952 66.5135 168.863 65.7994C168.104 65.7621 167.345 65.7248 166.586 65.6875C165.826 65.6501 165.066 65.6128 164.307 65.5755C162.758 65.4995 161.209 65.4232 159.661 65.3469C161.059 63.4868 162.408 61.4742 162.598 59.1688C162.753 57.2913 162.114 55.4486 161.472 53.6775C161.082 52.6042 160.59 51.4249 159.545 50.9648C158.5 50.5048 156.951 51.5054 157.415 52.5489C156.724 51.9222 155.568 52.1766 154.881 52.8082C154.195 53.4398 153.837 54.3389 153.403 55.165C153.123 55.6994 152.796 56.2007 152.45 56.6882L152.18 54.9201C152.098 54.39 152.017 53.8589 151.958 53.3272C151.865 52.4759 151.83 51.6085 151.794 50.77L151.497 43.6767C151.474 43.1181 151.009 42.6889 150.443 42.7075C149.884 42.7311 149.45 43.2029 149.474 43.7615L149.771 50.8548C149.806 51.6855 149.846 52.6278 149.945 53.5476C150.007 54.1101 150.092 54.669 150.178 55.2276L150.622 58.1348C150.651 58.3227 150.741 58.4802 150.855 58.6167C149.358 60.1802 147.596 61.5311 145.853 62.8356C143.87 62.9485 141.885 63.0163 139.899 63.0464L136.633 62.9512C136.613 62.9891 136.597 63.0216 136.578 63.0589C132.202 63.0232 127.828 62.7888 123.474 62.351C123.492 63.1794 123.527 64.0078 123.609 64.8361C123.629 65.0414 123.656 65.2579 123.78 65.4226C123.929 65.6203 124.183 65.6996 124.405 65.8093C125.652 66.4248 125.957 68.2017 125.334 69.4453C124.709 70.6889 123.428 71.4668 122.133 71.9763C120.45 72.639 118.634 72.9422 116.825 72.8986C117.099 72.6567 117.359 72.4 117.552 72.0919C117.805 71.6872 117.947 71.1934 117.851 70.7255C117.783 70.3991 117.495 70.0527 117.176 70.1493C117.061 70.184 116.97 70.2707 116.886 70.3572C116.481 70.7769 116.145 71.2641 115.898 71.7929C115.737 72.1361 115.6 72.5015 115.343 72.7778C114.125 72.6171 112.926 72.3044 111.797 71.8195C111.245 71.5827 110.682 71.2851 110.366 70.775C110.108 70.3575 110.048 69.8507 109.995 69.3625C109.887 68.3681 109.78 67.374 109.672 66.3796C109.597 65.6891 109.522 64.9989 109.447 64.3083C109.08 60.927 108.713 57.5454 108.345 54.1638C107.876 49.8424 107.455 45.2372 109.422 41.3615C109.661 40.8916 109.941 40.4283 110.35 40.097C110.884 39.6648 111.581 39.5004 112.255 39.3675C114.505 38.9241 116.798 38.6989 119.091 38.6959C119.836 38.6949 120.608 38.7231 121.279 39.0466C123.016 39.8838 123.279 42.1227 123.288 43.828C123.293 44.9196 123.407 46.0027 123.526 47.0891C123.675 46.9077 123.856 46.7502 124.083 46.631C126.305 45.4664 130.338 45.6871 132.827 45.3642C135.889 44.9667 138.955 44.5915 142.023 44.2382C142.611 44.1705 146.595 43.8768 149.411 43.5876C149.966 41.889 151.736 41.7426 153.539 41.1978C158.402 39.728 163.389 38.4314 168.491 38.2752C168.641 36.2137 169.214 34.4037 170.73 33.4018C171.769 32.7149 173.007 32.4952 174.216 32.3596C176.675 32.0833 179.154 32.1013 181.622 32.2283C183.203 32.3095 186.599 31.8819 187.704 33.2014C188.375 34.0026 188.621 35.0861 188.532 36.1312C188.521 36.2687 188.524 36.4079 188.5 36.5434C188.229 38.0748 187.126 38.8966 186.536 40.2148C185.85 41.7462 185.786 43.953 185.584 45.6072C185.12 49.4043 185.085 53.2542 185.485 57.0585C185.615 58.2896 185.774 59.838 186.522 60.8763C187.367 62.0491 188.62 61.6202 189.497 62.7839C189.594 62.9129 189.683 63.0582 189.767 63.2102ZM125.039 58.6547C124.599 56.0926 124.407 53.4749 124.469 50.8732C124.482 50.3146 124.04 49.8506 123.48 49.8369C122.913 49.8002 122.458 50.2671 122.444 50.8257C122.38 53.557 122.582 56.3061 123.043 58.9969C123.127 59.4903 123.555 59.8384 124.04 59.8384C124.096 59.8384 124.155 59.8334 124.212 59.8236C124.764 59.7296 125.134 59.2054 125.039 58.6547ZM168.042 58.4222C168.235 59.5833 168.484 60.8056 169.225 61.8556C169.422 62.1365 169.735 62.2858 170.053 62.2858C170.255 62.2858 170.458 62.2256 170.635 62.1008C171.093 61.7793 171.203 61.1477 170.88 60.6906C170.387 59.9886 170.194 59.0204 170.04 58.0899C169.152 52.7382 169.047 47.2964 169.728 41.9168C169.798 41.3621 169.406 40.8546 168.851 40.7846C168.296 40.7253 167.789 41.1071 167.719 41.6617C167.013 47.2361 167.121 52.8757 168.042 58.4222Z"/>
</mask>
<path d="M27.5291 323.142C27.5186 325.917 27.6996 328.692 28.0726 331.442C27.8139 331.731 27.5651 332.031 27.3195 332.312C23.4647 336.732 16.2395 337.711 11.3474 334.475C10.6975 334.046 9.9824 333.547 9.25781 333.27C9.3603 331.47 9.5024 329.673 9.68838 327.88C9.94016 325.454 9.74535 320.219 11.0809 318.07C11.4774 318.298 11.8887 318.514 12.2754 318.763C14.1142 319.945 15.7048 321.344 17.7515 322.205C20.8077 323.491 24.5701 324.21 27.5291 323.142ZM105.195 319.324C101.07 319.987 96.8539 321.07 92.692 320.376C92.8587 321.309 93.3606 322.435 93.7643 323.732C94.797 327.047 95.8297 330.363 96.8621 333.678C97.3824 335.349 98.341 337.437 99.0565 339.48C99.1409 339.486 99.2248 339.493 99.307 339.505C102.487 339.955 105.392 342.418 108.545 341.808C111.92 341.155 113.763 337.309 116.965 336.059C118.104 335.613 119.221 335.264 120.313 335.025C119.206 333.809 118.499 332.268 117.865 330.739C116.26 326.863 114.819 322.92 113.519 318.931C110.925 319.578 107.106 319.017 105.195 319.324ZM189.767 63.2102C190.673 64.8397 190.8 67.6517 188.836 68.4172C187.451 68.9565 184.655 68.0799 183.149 67.9598C182.351 67.8959 181.55 67.8481 180.75 67.8013C177.396 67.6045 174.034 67.5479 170.676 67.6464C170.363 67.6556 170.039 67.6638 169.753 67.5295C169.164 67.2538 168.952 66.5135 168.863 65.7994C168.104 65.7621 167.345 65.7248 166.586 65.6875C165.826 65.6501 165.066 65.6128 164.307 65.5755C162.758 65.4995 161.209 65.4232 159.661 65.3469C161.059 63.4868 162.408 61.4742 162.598 59.1688C162.753 57.2913 162.114 55.4486 161.472 53.6775C161.082 52.6042 160.59 51.4249 159.545 50.9648C158.5 50.5048 156.951 51.5054 157.415 52.5489C156.724 51.9222 155.568 52.1766 154.881 52.8082C154.195 53.4398 153.837 54.3389 153.403 55.165C153.123 55.6994 152.796 56.2007 152.45 56.6882L152.18 54.9201C152.098 54.39 152.017 53.8589 151.958 53.3272C151.865 52.4759 151.83 51.6085 151.794 50.77L151.497 43.6767C151.474 43.1181 151.009 42.6889 150.443 42.7075C149.884 42.7311 149.45 43.2029 149.474 43.7615L149.771 50.8548C149.806 51.6855 149.846 52.6278 149.945 53.5476C150.007 54.1101 150.092 54.669 150.178 55.2276L150.622 58.1348C150.651 58.3227 150.741 58.4802 150.855 58.6167C149.358 60.1802 147.596 61.5311 145.853 62.8356C143.87 62.9485 141.885 63.0163 139.899 63.0464L136.633 62.9512C136.613 62.9891 136.597 63.0216 136.578 63.0589C132.202 63.0232 127.828 62.7888 123.474 62.351C123.492 63.1794 123.527 64.0078 123.609 64.8361C123.629 65.0414 123.656 65.2579 123.78 65.4226C123.929 65.6203 124.183 65.6996 124.405 65.8093C125.652 66.4248 125.957 68.2017 125.334 69.4453C124.709 70.6889 123.428 71.4668 122.133 71.9763C120.45 72.639 118.634 72.9422 116.825 72.8986C117.099 72.6567 117.359 72.4 117.552 72.0919C117.805 71.6872 117.947 71.1934 117.851 70.7255C117.783 70.3991 117.495 70.0527 117.176 70.1493C117.061 70.184 116.97 70.2707 116.886 70.3572C116.481 70.7769 116.145 71.2641 115.898 71.7929C115.737 72.1361 115.6 72.5015 115.343 72.7778C114.125 72.6171 112.926 72.3044 111.797 71.8195C111.245 71.5827 110.682 71.2851 110.366 70.775C110.108 70.3575 110.048 69.8507 109.995 69.3625C109.887 68.3681 109.78 67.374 109.672 66.3796C109.597 65.6891 109.522 64.9989 109.447 64.3083C109.08 60.927 108.713 57.5454 108.345 54.1638C107.876 49.8424 107.455 45.2372 109.422 41.3615C109.661 40.8916 109.941 40.4283 110.35 40.097C110.884 39.6648 111.581 39.5004 112.255 39.3675C114.505 38.9241 116.798 38.6989 119.091 38.6959C119.836 38.6949 120.608 38.7231 121.279 39.0466C123.016 39.8838 123.279 42.1227 123.288 43.828C123.293 44.9196 123.407 46.0027 123.526 47.0891C123.675 46.9077 123.856 46.7502 124.083 46.631C126.305 45.4664 130.338 45.6871 132.827 45.3642C135.889 44.9667 138.955 44.5915 142.023 44.2382C142.611 44.1705 146.595 43.8768 149.411 43.5876C149.966 41.889 151.736 41.7426 153.539 41.1978C158.402 39.728 163.389 38.4314 168.491 38.2752C168.641 36.2137 169.214 34.4037 170.73 33.4018C171.769 32.7149 173.007 32.4952 174.216 32.3596C176.675 32.0833 179.154 32.1013 181.622 32.2283C183.203 32.3095 186.599 31.8819 187.704 33.2014C188.375 34.0026 188.621 35.0861 188.532 36.1312C188.521 36.2687 188.524 36.4079 188.5 36.5434C188.229 38.0748 187.126 38.8966 186.536 40.2148C185.85 41.7462 185.786 43.953 185.584 45.6072C185.12 49.4043 185.085 53.2542 185.485 57.0585C185.615 58.2896 185.774 59.838 186.522 60.8763C187.367 62.0491 188.62 61.6202 189.497 62.7839C189.594 62.9129 189.683 63.0582 189.767 63.2102ZM125.039 58.6547C124.599 56.0926 124.407 53.4749 124.469 50.8732C124.482 50.3146 124.04 49.8506 123.48 49.8369C122.913 49.8002 122.458 50.2671 122.444 50.8257C122.38 53.557 122.582 56.3061 123.043 58.9969C123.127 59.4903 123.555 59.8384 124.04 59.8384C124.096 59.8384 124.155 59.8334 124.212 59.8236C124.764 59.7296 125.134 59.2054 125.039 58.6547ZM168.042 58.4222C168.235 59.5833 168.484 60.8056 169.225 61.8556C169.422 62.1365 169.735 62.2858 170.053 62.2858C170.255 62.2858 170.458 62.2256 170.635 62.1008C171.093 61.7793 171.203 61.1477 170.88 60.6906C170.387 59.9886 170.194 59.0204 170.04 58.0899C169.152 52.7382 169.047 47.2964 169.728 41.9168C169.798 41.3621 169.406 40.8546 168.851 40.7846C168.296 40.7253 167.789 41.1071 167.719 41.6617C167.013 47.2361 167.121 52.8757 168.042 58.4222Z" fill="#171717"/>
<path d="M27.5291 323.142C27.5186 325.917 27.6996 328.692 28.0726 331.442C27.8139 331.731 27.5651 332.031 27.3195 332.312C23.4647 336.732 16.2395 337.711 11.3474 334.475C10.6975 334.046 9.9824 333.547 9.25781 333.27C9.3603 331.47 9.5024 329.673 9.68838 327.88C9.94016 325.454 9.74535 320.219 11.0809 318.07C11.4774 318.298 11.8887 318.514 12.2754 318.763C14.1142 319.945 15.7048 321.344 17.7515 322.205C20.8077 323.491 24.5701 324.21 27.5291 323.142ZM105.195 319.324C101.07 319.987 96.8539 321.07 92.692 320.376C92.8587 321.309 93.3606 322.435 93.7643 323.732C94.797 327.047 95.8297 330.363 96.8621 333.678C97.3824 335.349 98.341 337.437 99.0565 339.48C99.1409 339.486 99.2248 339.493 99.307 339.505C102.487 339.955 105.392 342.418 108.545 341.808C111.92 341.155 113.763 337.309 116.965 336.059C118.104 335.613 119.221 335.264 120.313 335.025C119.206 333.809 118.499 332.268 117.865 330.739C116.26 326.863 114.819 322.92 113.519 318.931C110.925 319.578 107.106 319.017 105.195 319.324ZM189.767 63.2102C190.673 64.8397 190.8 67.6517 188.836 68.4172C187.451 68.9565 184.655 68.0799 183.149 67.9598C182.351 67.8959 181.55 67.8481 180.75 67.8013C177.396 67.6045 174.034 67.5479 170.676 67.6464C170.363 67.6556 170.039 67.6638 169.753 67.5295C169.164 67.2538 168.952 66.5135 168.863 65.7994C168.104 65.7621 167.345 65.7248 166.586 65.6875C165.826 65.6501 165.066 65.6128 164.307 65.5755C162.758 65.4995 161.209 65.4232 159.661 65.3469C161.059 63.4868 162.408 61.4742 162.598 59.1688C162.753 57.2913 162.114 55.4486 161.472 53.6775C161.082 52.6042 160.59 51.4249 159.545 50.9648C158.5 50.5048 156.951 51.5054 157.415 52.5489C156.724 51.9222 155.568 52.1766 154.881 52.8082C154.195 53.4398 153.837 54.3389 153.403 55.165C153.123 55.6994 152.796 56.2007 152.45 56.6882L152.18 54.9201C152.098 54.39 152.017 53.8589 151.958 53.3272C151.865 52.4759 151.83 51.6085 151.794 50.77L151.497 43.6767C151.474 43.1181 151.009 42.6889 150.443 42.7075C149.884 42.7311 149.45 43.2029 149.474 43.7615L149.771 50.8548C149.806 51.6855 149.846 52.6278 149.945 53.5476C150.007 54.1101 150.092 54.669 150.178 55.2276L150.622 58.1348C150.651 58.3227 150.741 58.4802 150.855 58.6167C149.358 60.1802 147.596 61.5311 145.853 62.8356C143.87 62.9485 141.885 63.0163 139.899 63.0464L136.633 62.9512C136.613 62.9891 136.597 63.0216 136.578 63.0589C132.202 63.0232 127.828 62.7888 123.474 62.351C123.492 63.1794 123.527 64.0078 123.609 64.8361C123.629 65.0414 123.656 65.2579 123.78 65.4226C123.929 65.6203 124.183 65.6996 124.405 65.8093C125.652 66.4248 125.957 68.2017 125.334 69.4453C124.709 70.6889 123.428 71.4668 122.133 71.9763C120.45 72.639 118.634 72.9422 116.825 72.8986C117.099 72.6567 117.359 72.4 117.552 72.0919C117.805 71.6872 117.947 71.1934 117.851 70.7255C117.783 70.3991 117.495 70.0527 117.176 70.1493C117.061 70.184 116.97 70.2707 116.886 70.3572C116.481 70.7769 116.145 71.2641 115.898 71.7929C115.737 72.1361 115.6 72.5015 115.343 72.7778C114.125 72.6171 112.926 72.3044 111.797 71.8195C111.245 71.5827 110.682 71.2851 110.366 70.775C110.108 70.3575 110.048 69.8507 109.995 69.3625C109.887 68.3681 109.78 67.374 109.672 66.3796C109.597 65.6891 109.522 64.9989 109.447 64.3083C109.08 60.927 108.713 57.5454 108.345 54.1638C107.876 49.8424 107.455 45.2372 109.422 41.3615C109.661 40.8916 109.941 40.4283 110.35 40.097C110.884 39.6648 111.581 39.5004 112.255 39.3675C114.505 38.9241 116.798 38.6989 119.091 38.6959C119.836 38.6949 120.608 38.7231 121.279 39.0466C123.016 39.8838 123.279 42.1227 123.288 43.828C123.293 44.9196 123.407 46.0027 123.526 47.0891C123.675 46.9077 123.856 46.7502 124.083 46.631C126.305 45.4664 130.338 45.6871 132.827 45.3642C135.889 44.9667 138.955 44.5915 142.023 44.2382C142.611 44.1705 146.595 43.8768 149.411 43.5876C149.966 41.889 151.736 41.7426 153.539 41.1978C158.402 39.728 163.389 38.4314 168.491 38.2752C168.641 36.2137 169.214 34.4037 170.73 33.4018C171.769 32.7149 173.007 32.4952 174.216 32.3596C176.675 32.0833 179.154 32.1013 181.622 32.2283C183.203 32.3095 186.599 31.8819 187.704 33.2014C188.375 34.0026 188.621 35.0861 188.532 36.1312C188.521 36.2687 188.524 36.4079 188.5 36.5434C188.229 38.0748 187.126 38.8966 186.536 40.2148C185.85 41.7462 185.786 43.953 185.584 45.6072C185.12 49.4043 185.085 53.2542 185.485 57.0585C185.615 58.2896 185.774 59.838 186.522 60.8763C187.367 62.0491 188.62 61.6202 189.497 62.7839C189.594 62.9129 189.683 63.0582 189.767 63.2102ZM125.039 58.6547C124.599 56.0926 124.407 53.4749 124.469 50.8732C124.482 50.3146 124.04 49.8506 123.48 49.8369C122.913 49.8002 122.458 50.2671 122.444 50.8257C122.38 53.557 122.582 56.3061 123.043 58.9969C123.127 59.4903 123.555 59.8384 124.04 59.8384C124.096 59.8384 124.155 59.8334 124.212 59.8236C124.764 59.7296 125.134 59.2054 125.039 58.6547ZM168.042 58.4222C168.235 59.5833 168.484 60.8056 169.225 61.8556C169.422 62.1365 169.735 62.2858 170.053 62.2858C170.255 62.2858 170.458 62.2256 170.635 62.1008C171.093 61.7793 171.203 61.1477 170.88 60.6906C170.387 59.9886 170.194 59.0204 170.04 58.0899C169.152 52.7382 169.047 47.2964 169.728 41.9168C169.798 41.3621 169.406 40.8546 168.851 40.7846C168.296 40.7253 167.789 41.1071 167.719 41.6617C167.013 47.2361 167.121 52.8757 168.042 58.4222Z" stroke="white" stroke-width="2" mask="url(#path-2-outside-1_1136_1048)"/>
<path d="M82.8332 65.018C82.6432 64.4599 82.3908 63.9774 82.1201 63.536L81.6949 62.8426L81.2682 63.5351C81.2571 63.5532 81.2458 63.5714 81.2343 63.59C81.1191 63.7764 80.9874 63.9895 80.8732 64.2336L80.8732 64.2338C80.7165 64.569 80.6052 64.9326 80.5102 65.283C80.4683 65.4379 80.4312 65.5831 80.395 65.7249C80.3441 65.9239 80.295 66.1162 80.2365 66.3193C80.0417 66.9948 79.8106 67.5182 79.3982 67.8542L79.398 67.8544C79.1312 68.0719 78.7854 68.2032 78.3558 68.3494L78.3555 68.3495C75.4626 69.3358 72.3236 69.9233 69.8184 68.5896L69.5834 69.031L69.8184 68.5896C67.8103 67.5206 66.5425 65.3711 65.6895 63.1013L65.2215 63.2771C64.3558 60.974 63.8358 58.4093 64.5748 56.0624C64.7428 55.5291 64.9733 55.0154 65.2034 54.5027C65.5482 53.7342 65.8922 52.9678 66.0234 52.1401L66.5172 52.2186C66.5172 52.2185 66.5172 52.2185 66.5172 52.2184C66.5885 51.7693 66.6107 51.3258 66.6313 50.9139L66.6328 50.8839L66.6525 50.4895L66.2852 50.3824C66.2817 50.3811 66.2774 50.3796 66.2726 50.3781C66.2628 50.3748 66.2485 50.3704 66.2311 50.366L66.17 50.3507L66.107 50.3511C62.972 50.3687 60.4623 51.5189 59.1812 53.6252C57.8993 55.7327 57.9414 58.6432 59.5725 61.9782L60.0217 61.7585L59.5725 61.9782C60.8626 64.6155 63.5865 66.8422 66.5451 68.6024C69.5185 70.3715 72.8017 71.7117 75.3057 72.5473C78.8031 73.7144 82.3961 74.5725 86.032 75.1531L86.9682 75.3026L86.5628 74.4456C85.121 71.3972 83.9279 68.2221 82.8642 65.1069L82.8626 65.1026C82.8579 65.0892 82.8534 65.0764 82.8491 65.0639C82.8436 65.0482 82.8383 65.0331 82.8332 65.018ZM82.8332 65.018L82.3599 65.1791M82.8332 65.018C82.8332 65.018 82.8331 65.0179 82.8331 65.0178L82.3599 65.1791M82.3599 65.1791C82.37 65.2089 82.3805 65.2387 82.391 65.2684L78.5169 68.8227C78.9393 68.679 79.3682 68.5238 79.7139 68.2419C80.4127 67.6727 80.651 66.7413 80.8831 65.8346C81.0086 65.3438 81.1323 64.8603 81.3262 64.4454C81.3513 64.3917 81.3774 64.3397 81.4041 64.2889C81.3599 64.2115 81.3143 64.1349 81.2676 64.0588L81.6939 63.7974L82.1196 64.0597L82.0884 64.1101C82.0493 64.1735 82.0121 64.2339 81.9766 64.2931C82.1215 64.5696 82.2519 64.862 82.3599 65.1791ZM96.4536 87.807L96.4537 87.807C96.6556 87.969 96.9085 88.175 97.1133 88.4203C97.3216 88.6699 97.5095 88.9941 97.5356 89.3983C97.5356 89.3984 97.5356 89.3985 97.5356 89.3986L97.0367 89.4308C97.0377 89.4475 97.0348 89.4634 97.0319 89.4793C97.0295 89.4921 97.0271 89.5049 97.0268 89.5182L96.4536 87.807ZM96.4536 87.807C93.0237 85.0564 90.3623 81.5215 88.1996 77.6336L88.0653 77.3921L87.7894 77.3774C87.6717 77.3711 87.5525 77.3643 87.4325 77.3576C87.2659 77.3482 87.0976 77.3387 86.9295 77.3301C79.6734 76.9615 72.5303 76.0515 65.8319 73.0751C61.5258 71.1617 57.5243 68.2975 55.3167 64.2414L54.8775 64.4804L55.3167 64.2414C53.4507 60.8131 53.1436 56.4294 54.8584 53.0642L55.4329 51.937L54.243 52.367C52.6325 52.949 51.0846 53.6115 49.6979 54.3323L49.6979 54.3323C45.367 56.5838 41.0613 59.6519 37.3848 62.8398L37.7123 63.2176L37.3848 62.8398C30.8785 68.4815 25.7157 76.492 21.8354 84.0471L22.2802 84.2755L21.8354 84.0471C18.1218 91.2781 15.2936 98.9678 13.4924 106.898L13.98 107.009M96.4536 87.807L13.98 107.009M13.98 107.009L13.4924 106.898C12.8802 109.594 11.7432 112.041 10.5668 114.523C10.525 114.611 10.4832 114.699 10.4413 114.787C9.31143 117.168 8.16125 119.593 7.49255 122.239C7.26658 123.133 7.13071 124.04 6.99956 124.916C6.98052 125.043 6.96159 125.169 6.9425 125.295C6.7901 126.297 6.6264 127.258 6.32517 128.182C5.88124 129.544 5.28179 130.828 4.66924 132.14C4.34017 132.845 4.00731 133.558 3.69276 134.295C3.55827 134.611 3.41409 135.24 3.26313 136.042C3.10799 136.867 2.93586 137.933 2.75573 139.165C2.39535 141.63 2.00075 144.776 1.6439 148.018C0.932652 154.481 0.36287 161.399 0.529377 164.052L0.529381 164.052C0.56328 164.591 0.795919 165.066 1.12742 165.432L1.12744 165.432C1.37969 165.71 1.70616 165.953 2.11267 166.08L2.11277 166.08C10.7139 168.779 19.8642 165.835 28.8773 162.827C29.0747 162.761 29.2721 162.695 29.4694 162.629C38.3554 159.661 47.1073 156.738 55.4087 158.715L55.4089 158.715C55.4373 158.721 55.4642 158.726 55.4795 158.729L55.4822 158.73C55.5008 158.733 55.5056 158.734 55.5085 158.735L55.9982 158.851L56.1113 158.361C57.6208 151.814 57.1914 144.835 54.8919 138.523C54.8527 138.416 54.8136 138.31 54.7748 138.204C54.4254 137.256 54.1077 136.394 54.1019 135.495C54.0974 134.779 54.2931 134.079 54.5802 133.349C54.7237 132.985 54.8863 132.621 55.0546 132.246L55.066 132.221C55.2291 131.858 55.3973 131.483 55.5478 131.104C55.907 130.2 56.1656 129.261 56.4157 128.354C56.4418 128.259 56.4679 128.164 56.494 128.07C56.7724 127.064 57.0537 126.099 57.4678 125.192L57.4679 125.192C58.187 123.615 59.2778 122.265 60.5229 120.972C61.1454 120.325 61.8006 119.698 62.4643 119.064L62.4971 119.033C63.1477 118.411 63.8061 117.782 64.4343 117.133C66.9253 114.557 68.9849 111.57 70.5247 108.338L70.0733 108.123L13.98 107.009ZM1.49792 165.096C1.23205 164.802 1.05426 164.432 1.02839 164.021C0.701953 158.82 3.28009 136.537 4.15267 134.492C4.45287 133.788 4.77826 133.09 5.10407 132.392C5.72528 131.06 6.34801 129.725 6.80055 128.337C7.15564 127.248 7.32461 126.121 7.49433 124.988C7.62587 124.111 7.75787 123.23 7.97731 122.361L1.49792 165.096ZM1.49792 165.096L1.49783 165.096M1.49792 165.096L1.49783 165.096M1.49783 165.096L1.49775 165.096L1.49783 165.096ZM72.3071 102.552L72.069 102.768L71.7592 102.634C71.7511 102.63 71.7431 102.627 71.7357 102.624C71.7248 102.619 71.7149 102.615 71.7073 102.612C71.6985 102.609 71.6921 102.606 71.6869 102.604C71.6834 102.602 71.6804 102.601 71.6776 102.6C71.6755 102.599 71.6738 102.598 71.6726 102.598C69.1225 100.91 64.8303 97.9133 60.8859 94.4317C56.9156 90.9271 53.386 87.0058 52.2538 83.4821C52.1675 83.2134 52.3147 82.9254 52.5835 82.838C52.8586 82.7528 53.1444 82.9026 53.23 83.1688L53.23 83.1689C54.018 85.6211 56.2255 88.5691 59.4704 91.7276C62.7295 94.8998 67.0847 98.3318 72.2445 101.747L72.2449 101.747C72.4808 101.903 72.5455 102.221 72.3894 102.457L72.3891 102.457C72.3668 102.491 72.3395 102.523 72.3071 102.552Z" fill="#171717" stroke="white"/>
<mask id="path-4-outside-2_1136_1048" maskUnits="userSpaceOnUse" x="63.2227" y="19.9985" width="120" height="111" fill="black">
<rect fill="white" x="63.2227" y="19.9985" width="120" height="111"/>
<path d="M180.75 67.8016C180.591 68.017 180.43 68.2311 180.27 68.4423C178.17 71.2045 175.986 73.9372 173.335 76.1751C170.411 78.6429 166.962 80.4722 164.253 83.1735C154.428 92.9703 145.925 104.579 137.025 115.298C132.517 120.726 128.104 125.632 121.409 128.192C120.162 128.669 118.861 129.119 117.546 129.413C115.69 129.829 113.806 129.934 112.008 129.366C110.62 128.928 109.385 128.114 108.188 127.287C105.836 125.664 103.604 123.95 101.453 122.165C103.616 122.806 105.666 123.134 107.591 123.134C110.543 123.134 113.209 122.381 115.568 120.875C119.076 118.635 121.396 115.168 123.659 111.512C124.323 110.439 126.044 107.982 127.867 105.381C130.169 102.095 132.55 98.6973 133.367 97.2841C133.603 96.8755 133.506 96.3814 133.182 96.0654C139.908 91.9929 146.563 87.7341 152.439 82.48C153.474 81.5537 154.539 80.5884 155.106 79.32C155.749 77.8806 155.67 76.2399 155.703 74.6634C155.739 72.9709 155.929 71.2847 156.251 69.623C155.078 70.9782 153.837 72.2679 152.468 73.4231C149.544 75.8909 146.095 77.7202 143.386 80.4215C141.155 82.6456 139.512 85.3767 137.876 88.0688C136.279 90.6973 134.662 93.3174 133.015 95.9171C133.007 95.9125 133.003 95.9047 132.996 95.9001C132.512 95.6202 131.892 95.7855 131.612 96.2711C130.84 97.607 128.38 101.12 126.208 104.219C124.368 106.844 122.63 109.324 121.936 110.447C119.802 113.895 117.626 117.157 114.478 119.168C110.485 121.718 105.369 121.748 99.2713 119.253C93.972 117.085 90.3785 114.349 85.2094 109.742C84.7943 109.371 84.1522 109.404 83.7806 109.824C83.7239 109.887 83.6948 109.963 83.6568 110.035C82.979 109.368 82.2934 108.709 81.633 108.025C81.5914 107.982 81.5426 107.935 81.5 107.892C82.092 107.201 82.6323 106.4 83.0157 105.963C87.4818 100.872 91.9478 95.7809 96.4136 90.6898C96.7112 90.3506 97.0147 89.9606 97.0275 89.518C98.3274 90.0438 99.6092 90.6001 99.8368 90.7396C101.698 91.8823 103.523 93.0849 105.307 94.3448C105.867 94.7397 106.372 95.3474 106.931 95.8333C106.949 95.8104 106.968 95.7875 106.987 95.7649C107.055 95.8595 107.127 95.9541 107.196 96.0487C107.287 96.1182 107.383 96.1768 107.479 96.236C105.248 97.6174 103.166 99.2369 101.296 101.08C100.897 101.472 100.893 102.113 101.286 102.511C101.484 102.712 101.745 102.813 102.007 102.813C102.264 102.813 102.52 102.716 102.718 102.521C104.617 100.65 106.741 99.0106 109.031 97.6482C109.458 97.3945 109.61 96.8791 109.442 96.4292C110.754 95.9937 112.316 94.7502 113.317 94.17C120.2 90.1813 125.693 84.9874 131.573 79.729C132.608 78.8027 133.673 77.8374 134.24 76.569C134.883 75.1296 134.804 73.4889 134.838 71.9127C134.934 67.2878 134.48 67.0838 136.578 63.0591C136.598 63.0218 136.614 62.9894 136.634 62.9514L139.899 63.0467L142.587 63.1253C142.397 63.804 143.153 63.4511 144.365 63.5342C144.849 63.5673 145.285 63.2618 145.674 62.9707C145.734 62.9262 145.794 62.8804 145.853 62.8358C147.596 61.5314 149.358 60.1804 150.855 58.617C151.435 58.0112 151.968 57.3685 152.451 56.6885C152.796 56.2009 153.123 55.6996 153.404 55.1653C153.837 54.3395 154.195 53.4401 154.882 52.8085C155.568 52.1769 156.725 51.9225 157.415 52.5492C156.951 51.506 158.5 50.5051 159.545 50.9651C160.59 51.4254 161.082 52.6045 161.472 53.6778C162.115 55.4488 162.754 57.2912 162.599 59.169C162.408 61.4744 161.059 63.4871 159.661 65.3472C161.21 65.4235 162.758 65.4994 164.307 65.5757C164.475 65.9729 164.767 66.2535 165.231 66.2853C165.716 66.3186 166.151 66.0132 166.54 65.7221C166.556 65.7106 166.571 65.6992 166.586 65.6877C167.345 65.725 168.104 65.7624 168.863 65.7997C168.953 66.5138 169.164 67.2541 169.753 67.5298C170.039 67.664 170.363 67.6558 170.676 67.6467C174.033 67.5481 177.396 67.6051 180.75 67.8016ZM92.3214 24.9938C90.7219 25.3144 89.0704 25.0184 87.4664 24.7224C88.3985 25.78 87.9886 27.5739 86.897 28.4661C85.8505 29.3214 84.4017 29.4926 83.0517 29.3479C83.1198 29.7788 83.1715 30.1553 83.219 30.4104C84.0454 34.8394 85.0375 39.2295 86.5086 43.4988C87.6975 46.945 90.7144 49.642 93.9081 51.4064C94.2349 49.9563 95.1903 48.4154 95.9902 47.6866C96.7518 46.9928 97.7606 46.6506 98.7383 46.3265C100.54 45.7289 102.424 45.1232 104.303 45.3985C104.47 45.4231 104.64 45.4588 104.807 45.5053C105.396 45.6687 105.661 46.1628 105.651 46.6611C107.19 45.279 107.176 43.9844 106.244 41.8133C105.622 40.3634 105.008 38.8628 104.977 37.286C104.955 36.1776 105.223 35.0873 105.394 33.9921C105.919 30.6242 105.47 27.1296 104.199 23.969C101.36 23.5888 98.5588 22.936 95.853 21.9985C95.4781 23.5856 93.9209 24.6729 92.3214 24.9938ZM66.135 50.8502C66.135 50.8531 66.1347 50.8561 66.1344 50.859C66.1131 51.2843 66.0925 51.7113 66.0244 52.1402C65.8056 53.52 64.9956 54.7298 64.5758 56.0624C63.8368 58.4094 64.3568 60.9741 65.2225 63.2772C66.0882 65.581 67.412 67.8746 69.5844 69.031C72.2913 70.472 75.6156 69.8123 78.5179 68.8228C78.9403 68.6791 79.3692 68.5238 79.7149 68.2419C80.7918 67.3648 80.7751 65.6271 81.3272 64.4455C81.4378 64.2087 81.5672 64.0047 81.6949 63.7975C82.2819 62.845 83.0416 62.1548 84.0134 61.4623C84.2026 61.3274 84.3964 61.2046 84.5926 61.0871C84.6787 61.0353 84.7671 60.9888 84.8548 60.9404C83.6764 60.4296 82.536 59.8334 81.5921 58.9719C79.5198 57.081 78.6754 54.1329 78.7268 51.3282C78.7798 48.4361 79.9982 45.9061 80.3904 43.1154C80.7473 40.5779 80.1141 37.802 79.6792 35.3113C79.5984 34.8483 79.5191 34.3843 79.4448 33.9191C78.4452 34.7815 76.5451 34.5683 75.9771 33.3061C75.6837 32.6542 75.7279 31.8939 75.465 31.2289C74.76 29.4458 71.9612 29.2804 70.6882 30.7142C69.4152 32.148 69.5717 34.4511 70.5919 36.0745C71.6704 37.7905 73.6645 39.3193 73.2941 41.312C73.0437 42.6606 71.7716 43.5371 70.6076 44.2624C69.7655 44.7869 68.9237 45.3115 68.0816 45.8363C67.6814 46.0858 67.2735 46.3317 66.8495 46.5377C66.8049 47.348 66.6517 48.0772 66.393 48.9282C66.1999 49.5647 66.1668 50.2048 66.1347 50.8488L66.135 50.8495C66.1353 50.8502 66.135 50.8502 66.135 50.8502ZM98.0382 52.8409C99.8142 53.133 101.426 53.6631 103.05 54.4485C103.069 54.458 103.088 54.4695 103.107 54.479C103.105 53.3193 103.064 52.1418 103.219 51.5538C103.649 49.9245 103.439 48.9888 104.217 47.98C102.357 48.3827 100.599 49.1629 99.2088 50.6835C98.6489 51.2955 98.2877 52.0505 98.0382 52.8409Z"/>
</mask>
<path d="M180.75 67.8016C180.591 68.017 180.43 68.2311 180.27 68.4423C178.17 71.2045 175.986 73.9372 173.335 76.1751C170.411 78.6429 166.962 80.4722 164.253 83.1735C154.428 92.9703 145.925 104.579 137.025 115.298C132.517 120.726 128.104 125.632 121.409 128.192C120.162 128.669 118.861 129.119 117.546 129.413C115.69 129.829 113.806 129.934 112.008 129.366C110.62 128.928 109.385 128.114 108.188 127.287C105.836 125.664 103.604 123.95 101.453 122.165C103.616 122.806 105.666 123.134 107.591 123.134C110.543 123.134 113.209 122.381 115.568 120.875C119.076 118.635 121.396 115.168 123.659 111.512C124.323 110.439 126.044 107.982 127.867 105.381C130.169 102.095 132.55 98.6973 133.367 97.2841C133.603 96.8755 133.506 96.3814 133.182 96.0654C139.908 91.9929 146.563 87.7341 152.439 82.48C153.474 81.5537 154.539 80.5884 155.106 79.32C155.749 77.8806 155.67 76.2399 155.703 74.6634C155.739 72.9709 155.929 71.2847 156.251 69.623C155.078 70.9782 153.837 72.2679 152.468 73.4231C149.544 75.8909 146.095 77.7202 143.386 80.4215C141.155 82.6456 139.512 85.3767 137.876 88.0688C136.279 90.6973 134.662 93.3174 133.015 95.9171C133.007 95.9125 133.003 95.9047 132.996 95.9001C132.512 95.6202 131.892 95.7855 131.612 96.2711C130.84 97.607 128.38 101.12 126.208 104.219C124.368 106.844 122.63 109.324 121.936 110.447C119.802 113.895 117.626 117.157 114.478 119.168C110.485 121.718 105.369 121.748 99.2713 119.253C93.972 117.085 90.3785 114.349 85.2094 109.742C84.7943 109.371 84.1522 109.404 83.7806 109.824C83.7239 109.887 83.6948 109.963 83.6568 110.035C82.979 109.368 82.2934 108.709 81.633 108.025C81.5914 107.982 81.5426 107.935 81.5 107.892C82.092 107.201 82.6323 106.4 83.0157 105.963C87.4818 100.872 91.9478 95.7809 96.4136 90.6898C96.7112 90.3506 97.0147 89.9606 97.0275 89.518C98.3274 90.0438 99.6092 90.6001 99.8368 90.7396C101.698 91.8823 103.523 93.0849 105.307 94.3448C105.867 94.7397 106.372 95.3474 106.931 95.8333C106.949 95.8104 106.968 95.7875 106.987 95.7649C107.055 95.8595 107.127 95.9541 107.196 96.0487C107.287 96.1182 107.383 96.1768 107.479 96.236C105.248 97.6174 103.166 99.2369 101.296 101.08C100.897 101.472 100.893 102.113 101.286 102.511C101.484 102.712 101.745 102.813 102.007 102.813C102.264 102.813 102.52 102.716 102.718 102.521C104.617 100.65 106.741 99.0106 109.031 97.6482C109.458 97.3945 109.61 96.8791 109.442 96.4292C110.754 95.9937 112.316 94.7502 113.317 94.17C120.2 90.1813 125.693 84.9874 131.573 79.729C132.608 78.8027 133.673 77.8374 134.24 76.569C134.883 75.1296 134.804 73.4889 134.838 71.9127C134.934 67.2878 134.48 67.0838 136.578 63.0591C136.598 63.0218 136.614 62.9894 136.634 62.9514L139.899 63.0467L142.587 63.1253C142.397 63.804 143.153 63.4511 144.365 63.5342C144.849 63.5673 145.285 63.2618 145.674 62.9707C145.734 62.9262 145.794 62.8804 145.853 62.8358C147.596 61.5314 149.358 60.1804 150.855 58.617C151.435 58.0112 151.968 57.3685 152.451 56.6885C152.796 56.2009 153.123 55.6996 153.404 55.1653C153.837 54.3395 154.195 53.4401 154.882 52.8085C155.568 52.1769 156.725 51.9225 157.415 52.5492C156.951 51.506 158.5 50.5051 159.545 50.9651C160.59 51.4254 161.082 52.6045 161.472 53.6778C162.115 55.4488 162.754 57.2912 162.599 59.169C162.408 61.4744 161.059 63.4871 159.661 65.3472C161.21 65.4235 162.758 65.4994 164.307 65.5757C164.475 65.9729 164.767 66.2535 165.231 66.2853C165.716 66.3186 166.151 66.0132 166.54 65.7221C166.556 65.7106 166.571 65.6992 166.586 65.6877C167.345 65.725 168.104 65.7624 168.863 65.7997C168.953 66.5138 169.164 67.2541 169.753 67.5298C170.039 67.664 170.363 67.6558 170.676 67.6467C174.033 67.5481 177.396 67.6051 180.75 67.8016ZM92.3214 24.9938C90.7219 25.3144 89.0704 25.0184 87.4664 24.7224C88.3985 25.78 87.9886 27.5739 86.897 28.4661C85.8505 29.3214 84.4017 29.4926 83.0517 29.3479C83.1198 29.7788 83.1715 30.1553 83.219 30.4104C84.0454 34.8394 85.0375 39.2295 86.5086 43.4988C87.6975 46.945 90.7144 49.642 93.9081 51.4064C94.2349 49.9563 95.1903 48.4154 95.9902 47.6866C96.7518 46.9928 97.7606 46.6506 98.7383 46.3265C100.54 45.7289 102.424 45.1232 104.303 45.3985C104.47 45.4231 104.64 45.4588 104.807 45.5053C105.396 45.6687 105.661 46.1628 105.651 46.6611C107.19 45.279 107.176 43.9844 106.244 41.8133C105.622 40.3634 105.008 38.8628 104.977 37.286C104.955 36.1776 105.223 35.0873 105.394 33.9921C105.919 30.6242 105.47 27.1296 104.199 23.969C101.36 23.5888 98.5588 22.936 95.853 21.9985C95.4781 23.5856 93.9209 24.6729 92.3214 24.9938ZM66.135 50.8502C66.135 50.8531 66.1347 50.8561 66.1344 50.859C66.1131 51.2843 66.0925 51.7113 66.0244 52.1402C65.8056 53.52 64.9956 54.7298 64.5758 56.0624C63.8368 58.4094 64.3568 60.9741 65.2225 63.2772C66.0882 65.581 67.412 67.8746 69.5844 69.031C72.2913 70.472 75.6156 69.8123 78.5179 68.8228C78.9403 68.6791 79.3692 68.5238 79.7149 68.2419C80.7918 67.3648 80.7751 65.6271 81.3272 64.4455C81.4378 64.2087 81.5672 64.0047 81.6949 63.7975C82.2819 62.845 83.0416 62.1548 84.0134 61.4623C84.2026 61.3274 84.3964 61.2046 84.5926 61.0871C84.6787 61.0353 84.7671 60.9888 84.8548 60.9404C83.6764 60.4296 82.536 59.8334 81.5921 58.9719C79.5198 57.081 78.6754 54.1329 78.7268 51.3282C78.7798 48.4361 79.9982 45.9061 80.3904 43.1154C80.7473 40.5779 80.1141 37.802 79.6792 35.3113C79.5984 34.8483 79.5191 34.3843 79.4448 33.9191C78.4452 34.7815 76.5451 34.5683 75.9771 33.3061C75.6837 32.6542 75.7279 31.8939 75.465 31.2289C74.76 29.4458 71.9612 29.2804 70.6882 30.7142C69.4152 32.148 69.5717 34.4511 70.5919 36.0745C71.6704 37.7905 73.6645 39.3193 73.2941 41.312C73.0437 42.6606 71.7716 43.5371 70.6076 44.2624C69.7655 44.7869 68.9237 45.3115 68.0816 45.8363C67.6814 46.0858 67.2735 46.3317 66.8495 46.5377C66.8049 47.348 66.6517 48.0772 66.393 48.9282C66.1999 49.5647 66.1668 50.2048 66.1347 50.8488L66.135 50.8495C66.1353 50.8502 66.135 50.8502 66.135 50.8502ZM98.0382 52.8409C99.8142 53.133 101.426 53.6631 103.05 54.4485C103.069 54.458 103.088 54.4695 103.107 54.479C103.105 53.3193 103.064 52.1418 103.219 51.5538C103.649 49.9245 103.439 48.9888 104.217 47.98C102.357 48.3827 100.599 49.1629 99.2088 50.6835C98.6489 51.2955 98.2877 52.0505 98.0382 52.8409Z" fill="#171717"/>
<path d="M180.75 67.8016C180.591 68.017 180.43 68.2311 180.27 68.4423C178.17 71.2045 175.986 73.9372 173.335 76.1751C170.411 78.6429 166.962 80.4722 164.253 83.1735C154.428 92.9703 145.925 104.579 137.025 115.298C132.517 120.726 128.104 125.632 121.409 128.192C120.162 128.669 118.861 129.119 117.546 129.413C115.69 129.829 113.806 129.934 112.008 129.366C110.62 128.928 109.385 128.114 108.188 127.287C105.836 125.664 103.604 123.95 101.453 122.165C103.616 122.806 105.666 123.134 107.591 123.134C110.543 123.134 113.209 122.381 115.568 120.875C119.076 118.635 121.396 115.168 123.659 111.512C124.323 110.439 126.044 107.982 127.867 105.381C130.169 102.095 132.55 98.6973 133.367 97.2841C133.603 96.8755 133.506 96.3814 133.182 96.0654C139.908 91.9929 146.563 87.7341 152.439 82.48C153.474 81.5537 154.539 80.5884 155.106 79.32C155.749 77.8806 155.67 76.2399 155.703 74.6634C155.739 72.9709 155.929 71.2847 156.251 69.623C155.078 70.9782 153.837 72.2679 152.468 73.4231C149.544 75.8909 146.095 77.7202 143.386 80.4215C141.155 82.6456 139.512 85.3767 137.876 88.0688C136.279 90.6973 134.662 93.3174 133.015 95.9171C133.007 95.9125 133.003 95.9047 132.996 95.9001C132.512 95.6202 131.892 95.7855 131.612 96.2711C130.84 97.607 128.38 101.12 126.208 104.219C124.368 106.844 122.63 109.324 121.936 110.447C119.802 113.895 117.626 117.157 114.478 119.168C110.485 121.718 105.369 121.748 99.2713 119.253C93.972 117.085 90.3785 114.349 85.2094 109.742C84.7943 109.371 84.1522 109.404 83.7806 109.824C83.7239 109.887 83.6948 109.963 83.6568 110.035C82.979 109.368 82.2934 108.709 81.633 108.025C81.5914 107.982 81.5426 107.935 81.5 107.892C82.092 107.201 82.6323 106.4 83.0157 105.963C87.4818 100.872 91.9478 95.7809 96.4136 90.6898C96.7112 90.3506 97.0147 89.9606 97.0275 89.518C98.3274 90.0438 99.6092 90.6001 99.8368 90.7396C101.698 91.8823 103.523 93.0849 105.307 94.3448C105.867 94.7397 106.372 95.3474 106.931 95.8333C106.949 95.8104 106.968 95.7875 106.987 95.7649C107.055 95.8595 107.127 95.9541 107.196 96.0487C107.287 96.1182 107.383 96.1768 107.479 96.236C105.248 97.6174 103.166 99.2369 101.296 101.08C100.897 101.472 100.893 102.113 101.286 102.511C101.484 102.712 101.745 102.813 102.007 102.813C102.264 102.813 102.52 102.716 102.718 102.521C104.617 100.65 106.741 99.0106 109.031 97.6482C109.458 97.3945 109.61 96.8791 109.442 96.4292C110.754 95.9937 112.316 94.7502 113.317 94.17C120.2 90.1813 125.693 84.9874 131.573 79.729C132.608 78.8027 133.673 77.8374 134.24 76.569C134.883 75.1296 134.804 73.4889 134.838 71.9127C134.934 67.2878 134.48 67.0838 136.578 63.0591C136.598 63.0218 136.614 62.9894 136.634 62.9514L139.899 63.0467L142.587 63.1253C142.397 63.804 143.153 63.4511 144.365 63.5342C144.849 63.5673 145.285 63.2618 145.674 62.9707C145.734 62.9262 145.794 62.8804 145.853 62.8358C147.596 61.5314 149.358 60.1804 150.855 58.617C151.435 58.0112 151.968 57.3685 152.451 56.6885C152.796 56.2009 153.123 55.6996 153.404 55.1653C153.837 54.3395 154.195 53.4401 154.882 52.8085C155.568 52.1769 156.725 51.9225 157.415 52.5492C156.951 51.506 158.5 50.5051 159.545 50.9651C160.59 51.4254 161.082 52.6045 161.472 53.6778C162.115 55.4488 162.754 57.2912 162.599 59.169C162.408 61.4744 161.059 63.4871 159.661 65.3472C161.21 65.4235 162.758 65.4994 164.307 65.5757C164.475 65.9729 164.767 66.2535 165.231 66.2853C165.716 66.3186 166.151 66.0132 166.54 65.7221C166.556 65.7106 166.571 65.6992 166.586 65.6877C167.345 65.725 168.104 65.7624 168.863 65.7997C168.953 66.5138 169.164 67.2541 169.753 67.5298C170.039 67.664 170.363 67.6558 170.676 67.6467C174.033 67.5481 177.396 67.6051 180.75 67.8016ZM92.3214 24.9938C90.7219 25.3144 89.0704 25.0184 87.4664 24.7224C88.3985 25.78 87.9886 27.5739 86.897 28.4661C85.8505 29.3214 84.4017 29.4926 83.0517 29.3479C83.1198 29.7788 83.1715 30.1553 83.219 30.4104C84.0454 34.8394 85.0375 39.2295 86.5086 43.4988C87.6975 46.945 90.7144 49.642 93.9081 51.4064C94.2349 49.9563 95.1903 48.4154 95.9902 47.6866C96.7518 46.9928 97.7606 46.6506 98.7383 46.3265C100.54 45.7289 102.424 45.1232 104.303 45.3985C104.47 45.4231 104.64 45.4588 104.807 45.5053C105.396 45.6687 105.661 46.1628 105.651 46.6611C107.19 45.279 107.176 43.9844 106.244 41.8133C105.622 40.3634 105.008 38.8628 104.977 37.286C104.955 36.1776 105.223 35.0873 105.394 33.9921C105.919 30.6242 105.47 27.1296 104.199 23.969C101.36 23.5888 98.5588 22.936 95.853 21.9985C95.4781 23.5856 93.9209 24.6729 92.3214 24.9938ZM66.135 50.8502C66.135 50.8531 66.1347 50.8561 66.1344 50.859C66.1131 51.2843 66.0925 51.7113 66.0244 52.1402C65.8056 53.52 64.9956 54.7298 64.5758 56.0624C63.8368 58.4094 64.3568 60.9741 65.2225 63.2772C66.0882 65.581 67.412 67.8746 69.5844 69.031C72.2913 70.472 75.6156 69.8123 78.5179 68.8228C78.9403 68.6791 79.3692 68.5238 79.7149 68.2419C80.7918 67.3648 80.7751 65.6271 81.3272 64.4455C81.4378 64.2087 81.5672 64.0047 81.6949 63.7975C82.2819 62.845 83.0416 62.1548 84.0134 61.4623C84.2026 61.3274 84.3964 61.2046 84.5926 61.0871C84.6787 61.0353 84.7671 60.9888 84.8548 60.9404C83.6764 60.4296 82.536 59.8334 81.5921 58.9719C79.5198 57.081 78.6754 54.1329 78.7268 51.3282C78.7798 48.4361 79.9982 45.9061 80.3904 43.1154C80.7473 40.5779 80.1141 37.802 79.6792 35.3113C79.5984 34.8483 79.5191 34.3843 79.4448 33.9191C78.4452 34.7815 76.5451 34.5683 75.9771 33.3061C75.6837 32.6542 75.7279 31.8939 75.465 31.2289C74.76 29.4458 71.9612 29.2804 70.6882 30.7142C69.4152 32.148 69.5717 34.4511 70.5919 36.0745C71.6704 37.7905 73.6645 39.3193 73.2941 41.312C73.0437 42.6606 71.7716 43.5371 70.6076 44.2624C69.7655 44.7869 68.9237 45.3115 68.0816 45.8363C67.6814 46.0858 67.2735 46.3317 66.8495 46.5377C66.8049 47.348 66.6517 48.0772 66.393 48.9282C66.1999 49.5647 66.1668 50.2048 66.1347 50.8488L66.135 50.8495C66.1353 50.8502 66.135 50.8502 66.135 50.8502ZM98.0382 52.8409C99.8142 53.133 101.426 53.6631 103.05 54.4485C103.069 54.458 103.088 54.4695 103.107 54.479C103.105 53.3193 103.064 52.1418 103.219 51.5538C103.649 49.9245 103.439 48.9888 104.217 47.98C102.357 48.3827 100.599 49.1629 99.2088 50.6835C98.6489 51.2955 98.2877 52.0505 98.0382 52.8409Z" stroke="white" stroke-width="2" mask="url(#path-4-outside-2_1136_1048)"/>
<path d="M72.6432 102.923L72.9793 103.293C73.0689 103.212 73.1512 103.118 73.2225 103.011L73.2234 103.01C73.6834 102.314 73.4931 101.374 72.7958 100.913C67.6732 97.5229 63.3705 94.1292 60.1675 91.0116C56.9506 87.8803 54.8921 85.0741 54.1818 82.8639C53.9254 82.0644 53.0729 81.6368 52.2822 81.885L52.2793 81.8859L51.3015 83.7889C52.5249 87.5965 56.2496 91.6741 60.2238 95.182C64.2208 98.7101 68.5596 101.738 71.1266 103.437L71.1278 103.437C71.1879 103.477 71.2442 103.503 71.2826 103.519C71.324 103.537 71.3287 103.539 71.3321 103.54C71.3349 103.541 71.3368 103.541 71.3576 103.55L71.3587 103.551C71.5271 103.625 71.7321 103.688 71.9605 103.688C72.3321 103.688 72.6974 103.551 72.9801 103.293L72.6432 102.923ZM72.6432 102.923C72.7037 102.868 72.7587 102.805 72.8062 102.734L71.5594 103.093C71.6894 103.15 71.8239 103.188 71.9605 103.188C72.2093 103.188 72.4539 103.096 72.6432 102.923ZM98.6336 90.7322C99.1601 90.961 99.4969 91.1186 99.5738 91.1656C101.426 92.3028 103.243 93.4995 105.018 94.7532L105.018 94.7532C105.261 94.9251 105.502 95.1504 105.767 95.4112C105.818 95.4613 105.87 95.5129 105.923 95.5656C106.136 95.7775 106.365 96.0054 106.602 96.2108L106.985 96.5439L107.312 96.155C107.329 96.1347 107.347 96.1125 107.361 96.0951C107.366 96.0897 107.37 96.0848 107.373 96.0805L107.615 95.7835L107.391 95.4727C106.334 94.0039 105.387 92.5542 104.572 91.3063C104.333 90.9392 104.104 90.5895 103.888 90.2619C102.782 88.5869 101.648 86.6229 100.441 84.5236L100.297 84.2727C99.1363 82.252 97.91 80.1177 96.5903 78.0287L96.4486 77.8044L96.1834 77.796C94.115 77.7305 92.0286 77.6134 89.8786 77.4927C89.1891 77.454 88.493 77.4149 87.7888 77.3771L86.8851 77.3285L87.325 78.1194C89.5302 82.0837 92.268 85.7325 95.8272 88.5868C96.0342 88.7528 96.2124 88.9021 96.3449 89.0608C96.4606 89.1995 96.5172 89.3173 96.5331 89.426C96.5302 89.4457 96.527 89.4738 96.5262 89.5069L96.5186 89.852L96.8386 89.9814C97.4851 90.243 98.1266 90.5118 98.6336 90.7322ZM82.5441 64.7925L81.5967 64.4883L81.918 65.43C82.9872 68.5629 84.1941 71.7771 85.6584 74.8735L85.7712 75.1119L86.0316 75.1535C88.7584 75.5889 91.5097 75.8583 94.2691 75.9638L95.2763 76.0024L94.6975 75.1771C92.3722 71.8615 89.7284 68.8232 86.6115 66.7688C85.3397 65.9303 83.9866 65.2556 82.5441 64.7925Z" fill="#171717" stroke="white"/>
<mask id="path-6-outside-3_1136_1048" maskUnits="userSpaceOnUse" x="3.5332" y="0" width="188" height="363" fill="black">
<rect fill="white" x="3.5332" width="188" height="363"/>
<path d="M188.498 36.5438C188.522 36.4083 188.519 36.2691 188.531 36.1316C188.658 36.609 188.744 37.0812 188.802 37.4593C190.091 45.9779 191.314 54.7552 189.766 63.2102C189.682 63.0583 189.593 62.9129 189.496 62.7843C188.619 61.6203 187.366 62.0495 186.521 60.8767C185.773 59.8384 185.614 58.2904 185.484 57.0589C185.084 53.2543 185.119 49.4047 185.583 45.6076C185.785 43.9534 185.849 41.7466 186.535 40.2152C187.125 38.897 188.228 38.0752 188.498 36.5438ZM123.479 49.8369C122.912 49.8003 122.457 50.2672 122.443 50.8258C122.379 53.5571 122.581 56.3062 123.042 58.9969C123.126 59.4904 123.554 59.8384 124.039 59.8384C124.095 59.8384 124.153 59.8335 124.211 59.8237C124.763 59.7297 125.133 59.2055 125.038 58.6548C124.598 56.0927 124.406 53.4749 124.468 50.8732C124.481 50.3146 124.039 49.851 123.479 49.8369ZM152.448 56.6879L152.178 54.9199C152.096 54.3898 152.015 53.8587 151.956 53.3269C151.863 52.4756 151.828 51.6083 151.792 50.7698L151.495 43.6764C151.472 43.1179 151.007 42.6886 150.441 42.7073C149.882 42.7309 149.448 43.2027 149.472 43.7612L149.769 50.8546C149.804 51.6852 149.843 52.6276 149.943 53.5473C150.005 54.1098 150.09 54.6687 150.176 55.2273L150.62 58.1345C150.649 58.3224 150.739 58.4799 150.853 58.6165C151.433 58.0111 151.966 57.3683 152.448 56.6879ZM169.223 61.8557C169.42 62.1366 169.734 62.2859 170.052 62.2859C170.254 62.2859 170.456 62.2257 170.634 62.1009C171.091 61.7794 171.201 61.1478 170.879 60.6907C170.385 59.9887 170.193 59.0205 170.038 58.09C169.15 52.7382 169.046 47.2965 169.727 41.9169C169.797 41.3622 169.404 40.8547 168.85 40.7846C168.294 40.7254 167.788 41.1072 167.718 41.6618C167.012 47.2362 167.12 52.8758 168.041 58.4223C168.234 59.5834 168.483 60.8056 169.223 61.8557ZM11.3461 334.476C10.6961 334.046 9.98105 333.547 9.25646 333.271C8.63926 333.035 8.01552 332.958 7.41731 333.245C6.659 333.609 6.2589 334.442 5.96618 335.232C4.33397 339.629 4.86243 343.767 4.55891 348.323C4.50587 349.116 4.48458 350.007 5.02025 350.595C5.34243 350.948 5.81131 351.124 6.26675 351.269C15.0781 354.089 24.4908 350.181 33.7294 349.691C38.6853 349.429 43.8878 350.124 48.4288 348.122C49.7362 347.545 51.0214 346.67 51.5443 345.34C51.8357 344.599 51.8632 343.778 51.7902 342.985C51.4598 339.402 48.994 336.099 45.6536 334.763C43.578 333.933 41.5627 334.324 39.5144 333.881C37.1153 333.362 34.4992 331.556 32.2691 330.515C31.6952 330.247 31.0943 329.973 30.4611 329.992C29.4903 330.021 28.7447 330.691 28.0719 331.443C27.8132 331.732 27.5644 332.031 27.3188 332.312C23.4637 336.732 16.2381 337.711 11.3461 334.476ZM108.544 341.808C105.391 342.418 102.486 339.954 99.3059 339.505C99.2237 339.494 99.1399 339.486 99.0555 339.48C98.7372 339.457 98.413 339.486 98.1639 339.675C97.8597 339.905 97.75 340.305 97.6596 340.676C96.9455 343.597 96.2318 346.519 95.5176 349.44C94.6231 353.102 94.5445 355.453 96.0621 356.95C96.936 357.812 98.3387 358.391 100.419 358.775C106.495 359.896 112.665 360.154 118.825 360.385C121.176 360.474 123.527 360.562 125.878 360.65C131.363 360.856 136.849 361.061 142.337 361.152C144.781 361.192 147.276 361.201 149.596 360.434C151.917 359.667 154.07 357.976 154.749 355.629C155.492 353.061 154.284 350.206 152.262 348.458C150.24 346.71 147.545 345.924 144.888 345.635C142.427 345.368 139.854 345.469 137.591 344.466C134.751 343.209 132.924 340.466 130.828 338.175C127.737 334.796 124.181 334.177 120.312 335.024C119.22 335.263 118.104 335.613 116.964 336.058C113.762 337.309 111.919 341.155 108.544 341.808ZM70.6066 44.2629C71.7705 43.5376 73.0426 42.6611 73.2931 41.3124C73.6634 39.3197 71.6697 37.791 70.5908 36.075C69.5703 34.4516 69.4141 32.1485 70.6871 30.7147C71.9601 29.2809 74.7589 29.4463 75.4639 31.2294C75.7268 31.8944 75.6826 32.6547 75.976 33.3066C76.5441 34.5688 78.4441 34.782 79.4437 33.9195C79.5181 34.3848 79.5976 34.8488 79.6782 35.3117C80.1126 37.8021 80.7462 40.5784 80.3893 43.1159C79.9971 45.9065 78.7787 48.4365 78.7257 51.3287C78.6743 54.1334 79.5187 57.0815 81.591 58.9724C82.5349 59.8335 83.6754 60.4301 84.8538 60.9409C85.23 61.1039 85.6098 61.2588 85.9886 61.4101C88.3601 62.3563 90.7605 63.2312 93.1844 64.0334C94.0377 64.3156 94.9329 64.5926 95.8205 64.4515C96.9125 64.278 97.8243 63.498 98.9052 63.2643C100.03 63.021 101.266 63.3844 102.316 62.9149C103.003 62.6081 103.492 61.9935 103.955 61.4012C104.607 60.5666 105.297 59.5755 105.068 58.5418C104.977 58.1306 104.743 57.758 104.679 57.3415C104.626 56.9974 104.691 56.6444 104.648 56.299C104.545 55.4762 103.85 54.8531 103.106 54.4791C103.086 54.4693 103.068 54.4579 103.048 54.4487C101.424 53.6629 99.8125 53.1331 98.0365 52.841C98.2863 52.0506 98.6475 51.2956 99.2067 50.684C100.597 49.1634 102.355 48.3832 104.215 47.9804C104.352 47.951 104.486 47.9186 104.624 47.893C105.288 47.7692 105.638 47.2123 105.649 46.6609C105.659 46.1626 105.395 45.6685 104.806 45.5051C104.638 45.4586 104.469 45.4229 104.301 45.3984C102.423 45.123 100.539 45.7287 98.7365 46.3263C97.7589 46.6504 96.7497 46.9926 95.9885 47.6864C95.1886 48.4156 94.2331 49.9561 93.9064 51.4063C90.7127 49.6418 87.6958 46.9448 86.5069 43.4987C85.0358 39.2294 84.0437 34.8393 83.2173 30.4102C83.1698 30.1555 83.1178 29.7786 83.05 29.3477C84.4 29.4924 85.8488 29.3212 86.8952 28.466C87.9869 27.5737 88.3968 25.7798 87.4646 24.7222C89.0687 25.0182 90.7202 25.3145 92.3197 24.9936C93.9192 24.6731 95.4764 23.5854 95.8513 21.9977C98.5571 22.9351 101.359 23.588 104.197 23.9681C104.414 23.9973 104.631 24.0372 104.849 24.0631C105.827 24.1787 106.891 24.2425 107.723 23.7141C108.805 23.0261 108.423 21.6208 108.91 20.6111C109.48 19.4284 110.635 18.6642 111.137 17.344C111.864 15.4299 111.884 13.2273 111.236 11.267C110.976 10.4802 110.609 9.73207 110.137 9.05758C107.602 5.4366 102.758 3.90818 98.3806 4.52308C96.6937 2.45082 94.1038 1.14112 91.4347 1.01081C90.1656 0.948924 88.8876 1.15422 87.6951 1.59002C86.449 2.04547 85.2935 3.43538 84.0909 3.72548C81.9266 4.24739 78.027 2.13322 75.6348 1.92301C73.0004 1.69152 70.2893 1.87914 67.8241 2.83685C63.0421 4.69466 59.6732 9.39483 58.7469 14.4408C58.4185 16.2311 58.5184 17.8257 59.0134 19.5636C59.2544 20.4104 60.2056 21.4912 59.133 22.0999C56.8292 23.4076 55.051 25.7307 54.4033 28.3039C53.961 30.0605 53.6414 33.5086 55.159 34.7852C55.8581 35.3733 56.8708 35.6022 57.3645 36.3706C58.2584 37.7612 56.7866 39.4821 56.7208 41.134C56.6377 43.2334 59.5082 44.7455 61.1925 43.4895C60.8009 43.7815 62.1367 46.0398 62.492 46.3309C63.2493 46.9507 64.9388 47.1209 65.8265 46.9166C66.1824 46.8348 66.5193 46.6976 66.8474 46.5381C67.2714 46.3325 67.6794 46.0863 68.0795 45.8368C68.9226 45.3123 69.7647 44.7877 70.6066 44.2629Z"/>
</mask>
<path d="M188.498 36.5438C188.522 36.4083 188.519 36.2691 188.531 36.1316C188.658 36.609 188.744 37.0812 188.802 37.4593C190.091 45.9779 191.314 54.7552 189.766 63.2102C189.682 63.0583 189.593 62.9129 189.496 62.7843C188.619 61.6203 187.366 62.0495 186.521 60.8767C185.773 59.8384 185.614 58.2904 185.484 57.0589C185.084 53.2543 185.119 49.4047 185.583 45.6076C185.785 43.9534 185.849 41.7466 186.535 40.2152C187.125 38.897 188.228 38.0752 188.498 36.5438ZM123.479 49.8369C122.912 49.8003 122.457 50.2672 122.443 50.8258C122.379 53.5571 122.581 56.3062 123.042 58.9969C123.126 59.4904 123.554 59.8384 124.039 59.8384C124.095 59.8384 124.153 59.8335 124.211 59.8237C124.763 59.7297 125.133 59.2055 125.038 58.6548C124.598 56.0927 124.406 53.4749 124.468 50.8732C124.481 50.3146 124.039 49.851 123.479 49.8369ZM152.448 56.6879L152.178 54.9199C152.096 54.3898 152.015 53.8587 151.956 53.3269C151.863 52.4756 151.828 51.6083 151.792 50.7698L151.495 43.6764C151.472 43.1179 151.007 42.6886 150.441 42.7073C149.882 42.7309 149.448 43.2027 149.472 43.7612L149.769 50.8546C149.804 51.6852 149.843 52.6276 149.943 53.5473C150.005 54.1098 150.09 54.6687 150.176 55.2273L150.62 58.1345C150.649 58.3224 150.739 58.4799 150.853 58.6165C151.433 58.0111 151.966 57.3683 152.448 56.6879ZM169.223 61.8557C169.42 62.1366 169.734 62.2859 170.052 62.2859C170.254 62.2859 170.456 62.2257 170.634 62.1009C171.091 61.7794 171.201 61.1478 170.879 60.6907C170.385 59.9887 170.193 59.0205 170.038 58.09C169.15 52.7382 169.046 47.2965 169.727 41.9169C169.797 41.3622 169.404 40.8547 168.85 40.7846C168.294 40.7254 167.788 41.1072 167.718 41.6618C167.012 47.2362 167.12 52.8758 168.041 58.4223C168.234 59.5834 168.483 60.8056 169.223 61.8557ZM11.3461 334.476C10.6961 334.046 9.98105 333.547 9.25646 333.271C8.63926 333.035 8.01552 332.958 7.41731 333.245C6.659 333.609 6.2589 334.442 5.96618 335.232C4.33397 339.629 4.86243 343.767 4.55891 348.323C4.50587 349.116 4.48458 350.007 5.02025 350.595C5.34243 350.948 5.81131 351.124 6.26675 351.269C15.0781 354.089 24.4908 350.181 33.7294 349.691C38.6853 349.429 43.8878 350.124 48.4288 348.122C49.7362 347.545 51.0214 346.67 51.5443 345.34C51.8357 344.599 51.8632 343.778 51.7902 342.985C51.4598 339.402 48.994 336.099 45.6536 334.763C43.578 333.933 41.5627 334.324 39.5144 333.881C37.1153 333.362 34.4992 331.556 32.2691 330.515C31.6952 330.247 31.0943 329.973 30.4611 329.992C29.4903 330.021 28.7447 330.691 28.0719 331.443C27.8132 331.732 27.5644 332.031 27.3188 332.312C23.4637 336.732 16.2381 337.711 11.3461 334.476ZM108.544 341.808C105.391 342.418 102.486 339.954 99.3059 339.505C99.2237 339.494 99.1399 339.486 99.0555 339.48C98.7372 339.457 98.413 339.486 98.1639 339.675C97.8597 339.905 97.75 340.305 97.6596 340.676C96.9455 343.597 96.2318 346.519 95.5176 349.44C94.6231 353.102 94.5445 355.453 96.0621 356.95C96.936 357.812 98.3387 358.391 100.419 358.775C106.495 359.896 112.665 360.154 118.825 360.385C121.176 360.474 123.527 360.562 125.878 360.65C131.363 360.856 136.849 361.061 142.337 361.152C144.781 361.192 147.276 361.201 149.596 360.434C151.917 359.667 154.07 357.976 154.749 355.629C155.492 353.061 154.284 350.206 152.262 348.458C150.24 346.71 147.545 345.924 144.888 345.635C142.427 345.368 139.854 345.469 137.591 344.466C134.751 343.209 132.924 340.466 130.828 338.175C127.737 334.796 124.181 334.177 120.312 335.024C119.22 335.263 118.104 335.613 116.964 336.058C113.762 337.309 111.919 341.155 108.544 341.808ZM70.6066 44.2629C71.7705 43.5376 73.0426 42.6611 73.2931 41.3124C73.6634 39.3197 71.6697 37.791 70.5908 36.075C69.5703 34.4516 69.4141 32.1485 70.6871 30.7147C71.9601 29.2809 74.7589 29.4463 75.4639 31.2294C75.7268 31.8944 75.6826 32.6547 75.976 33.3066C76.5441 34.5688 78.4441 34.782 79.4437 33.9195C79.5181 34.3848 79.5976 34.8488 79.6782 35.3117C80.1126 37.8021 80.7462 40.5784 80.3893 43.1159C79.9971 45.9065 78.7787 48.4365 78.7257 51.3287C78.6743 54.1334 79.5187 57.0815 81.591 58.9724C82.5349 59.8335 83.6754 60.4301 84.8538 60.9409C85.23 61.1039 85.6098 61.2588 85.9886 61.4101C88.3601 62.3563 90.7605 63.2312 93.1844 64.0334C94.0377 64.3156 94.9329 64.5926 95.8205 64.4515C96.9125 64.278 97.8243 63.498 98.9052 63.2643C100.03 63.021 101.266 63.3844 102.316 62.9149C103.003 62.6081 103.492 61.9935 103.955 61.4012C104.607 60.5666 105.297 59.5755 105.068 58.5418C104.977 58.1306 104.743 57.758 104.679 57.3415C104.626 56.9974 104.691 56.6444 104.648 56.299C104.545 55.4762 103.85 54.8531 103.106 54.4791C103.086 54.4693 103.068 54.4579 103.048 54.4487C101.424 53.6629 99.8125 53.1331 98.0365 52.841C98.2863 52.0506 98.6475 51.2956 99.2067 50.684C100.597 49.1634 102.355 48.3832 104.215 47.9804C104.352 47.951 104.486 47.9186 104.624 47.893C105.288 47.7692 105.638 47.2123 105.649 46.6609C105.659 46.1626 105.395 45.6685 104.806 45.5051C104.638 45.4586 104.469 45.4229 104.301 45.3984C102.423 45.123 100.539 45.7287 98.7365 46.3263C97.7589 46.6504 96.7497 46.9926 95.9885 47.6864C95.1886 48.4156 94.2331 49.9561 93.9064 51.4063C90.7127 49.6418 87.6958 46.9448 86.5069 43.4987C85.0358 39.2294 84.0437 34.8393 83.2173 30.4102C83.1698 30.1555 83.1178 29.7786 83.05 29.3477C84.4 29.4924 85.8488 29.3212 86.8952 28.466C87.9869 27.5737 88.3968 25.7798 87.4646 24.7222C89.0687 25.0182 90.7202 25.3145 92.3197 24.9936C93.9192 24.6731 95.4764 23.5854 95.8513 21.9977C98.5571 22.9351 101.359 23.588 104.197 23.9681C104.414 23.9973 104.631 24.0372 104.849 24.0631C105.827 24.1787 106.891 24.2425 107.723 23.7141C108.805 23.0261 108.423 21.6208 108.91 20.6111C109.48 19.4284 110.635 18.6642 111.137 17.344C111.864 15.4299 111.884 13.2273 111.236 11.267C110.976 10.4802 110.609 9.73207 110.137 9.05758C107.602 5.4366 102.758 3.90818 98.3806 4.52308C96.6937 2.45082 94.1038 1.14112 91.4347 1.01081C90.1656 0.948924 88.8876 1.15422 87.6951 1.59002C86.449 2.04547 85.2935 3.43538 84.0909 3.72548C81.9266 4.24739 78.027 2.13322 75.6348 1.92301C73.0004 1.69152 70.2893 1.87914 67.8241 2.83685C63.0421 4.69466 59.6732 9.39483 58.7469 14.4408C58.4185 16.2311 58.5184 17.8257 59.0134 19.5636C59.2544 20.4104 60.2056 21.4912 59.133 22.0999C56.8292 23.4076 55.051 25.7307 54.4033 28.3039C53.961 30.0605 53.6414 33.5086 55.159 34.7852C55.8581 35.3733 56.8708 35.6022 57.3645 36.3706C58.2584 37.7612 56.7866 39.4821 56.7208 41.134C56.6377 43.2334 59.5082 44.7455 61.1925 43.4895C60.8009 43.7815 62.1367 46.0398 62.492 46.3309C63.2493 46.9507 64.9388 47.1209 65.8265 46.9166C66.1824 46.8348 66.5193 46.6976 66.8474 46.5381C67.2714 46.3325 67.6794 46.0863 68.0795 45.8368C68.9226 45.3123 69.7647 44.7877 70.6066 44.2629Z" fill="#171717"/>
<path d="M188.498 36.5438C188.522 36.4083 188.519 36.2691 188.531 36.1316C188.658 36.609 188.744 37.0812 188.802 37.4593C190.091 45.9779 191.314 54.7552 189.766 63.2102C189.682 63.0583 189.593 62.9129 189.496 62.7843C188.619 61.6203 187.366 62.0495 186.521 60.8767C185.773 59.8384 185.614 58.2904 185.484 57.0589C185.084 53.2543 185.119 49.4047 185.583 45.6076C185.785 43.9534 185.849 41.7466 186.535 40.2152C187.125 38.897 188.228 38.0752 188.498 36.5438ZM123.479 49.8369C122.912 49.8003 122.457 50.2672 122.443 50.8258C122.379 53.5571 122.581 56.3062 123.042 58.9969C123.126 59.4904 123.554 59.8384 124.039 59.8384C124.095 59.8384 124.153 59.8335 124.211 59.8237C124.763 59.7297 125.133 59.2055 125.038 58.6548C124.598 56.0927 124.406 53.4749 124.468 50.8732C124.481 50.3146 124.039 49.851 123.479 49.8369ZM152.448 56.6879L152.178 54.9199C152.096 54.3898 152.015 53.8587 151.956 53.3269C151.863 52.4756 151.828 51.6083 151.792 50.7698L151.495 43.6764C151.472 43.1179 151.007 42.6886 150.441 42.7073C149.882 42.7309 149.448 43.2027 149.472 43.7612L149.769 50.8546C149.804 51.6852 149.843 52.6276 149.943 53.5473C150.005 54.1098 150.09 54.6687 150.176 55.2273L150.62 58.1345C150.649 58.3224 150.739 58.4799 150.853 58.6165C151.433 58.0111 151.966 57.3683 152.448 56.6879ZM169.223 61.8557C169.42 62.1366 169.734 62.2859 170.052 62.2859C170.254 62.2859 170.456 62.2257 170.634 62.1009C171.091 61.7794 171.201 61.1478 170.879 60.6907C170.385 59.9887 170.193 59.0205 170.038 58.09C169.15 52.7382 169.046 47.2965 169.727 41.9169C169.797 41.3622 169.404 40.8547 168.85 40.7846C168.294 40.7254 167.788 41.1072 167.718 41.6618C167.012 47.2362 167.12 52.8758 168.041 58.4223C168.234 59.5834 168.483 60.8056 169.223 61.8557ZM11.3461 334.476C10.6961 334.046 9.98105 333.547 9.25646 333.271C8.63926 333.035 8.01552 332.958 7.41731 333.245C6.659 333.609 6.2589 334.442 5.96618 335.232C4.33397 339.629 4.86243 343.767 4.55891 348.323C4.50587 349.116 4.48458 350.007 5.02025 350.595C5.34243 350.948 5.81131 351.124 6.26675 351.269C15.0781 354.089 24.4908 350.181 33.7294 349.691C38.6853 349.429 43.8878 350.124 48.4288 348.122C49.7362 347.545 51.0214 346.67 51.5443 345.34C51.8357 344.599 51.8632 343.778 51.7902 342.985C51.4598 339.402 48.994 336.099 45.6536 334.763C43.578 333.933 41.5627 334.324 39.5144 333.881C37.1153 333.362 34.4992 331.556 32.2691 330.515C31.6952 330.247 31.0943 329.973 30.4611 329.992C29.4903 330.021 28.7447 330.691 28.0719 331.443C27.8132 331.732 27.5644 332.031 27.3188 332.312C23.4637 336.732 16.2381 337.711 11.3461 334.476ZM108.544 341.808C105.391 342.418 102.486 339.954 99.3059 339.505C99.2237 339.494 99.1399 339.486 99.0555 339.48C98.7372 339.457 98.413 339.486 98.1639 339.675C97.8597 339.905 97.75 340.305 97.6596 340.676C96.9455 343.597 96.2318 346.519 95.5176 349.44C94.6231 353.102 94.5445 355.453 96.0621 356.95C96.936 357.812 98.3387 358.391 100.419 358.775C106.495 359.896 112.665 360.154 118.825 360.385C121.176 360.474 123.527 360.562 125.878 360.65C131.363 360.856 136.849 361.061 142.337 361.152C144.781 361.192 147.276 361.201 149.596 360.434C151.917 359.667 154.07 357.976 154.749 355.629C155.492 353.061 154.284 350.206 152.262 348.458C150.24 346.71 147.545 345.924 144.888 345.635C142.427 345.368 139.854 345.469 137.591 344.466C134.751 343.209 132.924 340.466 130.828 338.175C127.737 334.796 124.181 334.177 120.312 335.024C119.22 335.263 118.104 335.613 116.964 336.058C113.762 337.309 111.919 341.155 108.544 341.808ZM70.6066 44.2629C71.7705 43.5376 73.0426 42.6611 73.2931 41.3124C73.6634 39.3197 71.6697 37.791 70.5908 36.075C69.5703 34.4516 69.4141 32.1485 70.6871 30.7147C71.9601 29.2809 74.7589 29.4463 75.4639 31.2294C75.7268 31.8944 75.6826 32.6547 75.976 33.3066C76.5441 34.5688 78.4441 34.782 79.4437 33.9195C79.5181 34.3848 79.5976 34.8488 79.6782 35.3117C80.1126 37.8021 80.7462 40.5784 80.3893 43.1159C79.9971 45.9065 78.7787 48.4365 78.7257 51.3287C78.6743 54.1334 79.5187 57.0815 81.591 58.9724C82.5349 59.8335 83.6754 60.4301 84.8538 60.9409C85.23 61.1039 85.6098 61.2588 85.9886 61.4101C88.3601 62.3563 90.7605 63.2312 93.1844 64.0334C94.0377 64.3156 94.9329 64.5926 95.8205 64.4515C96.9125 64.278 97.8243 63.498 98.9052 63.2643C100.03 63.021 101.266 63.3844 102.316 62.9149C103.003 62.6081 103.492 61.9935 103.955 61.4012C104.607 60.5666 105.297 59.5755 105.068 58.5418C104.977 58.1306 104.743 57.758 104.679 57.3415C104.626 56.9974 104.691 56.6444 104.648 56.299C104.545 55.4762 103.85 54.8531 103.106 54.4791C103.086 54.4693 103.068 54.4579 103.048 54.4487C101.424 53.6629 99.8125 53.1331 98.0365 52.841C98.2863 52.0506 98.6475 51.2956 99.2067 50.684C100.597 49.1634 102.355 48.3832 104.215 47.9804C104.352 47.951 104.486 47.9186 104.624 47.893C105.288 47.7692 105.638 47.2123 105.649 46.6609C105.659 46.1626 105.395 45.6685 104.806 45.5051C104.638 45.4586 104.469 45.4229 104.301 45.3984C102.423 45.123 100.539 45.7287 98.7365 46.3263C97.7589 46.6504 96.7497 46.9926 95.9885 47.6864C95.1886 48.4156 94.2331 49.9561 93.9064 51.4063C90.7127 49.6418 87.6958 46.9448 86.5069 43.4987C85.0358 39.2294 84.0437 34.8393 83.2173 30.4102C83.1698 30.1555 83.1178 29.7786 83.05 29.3477C84.4 29.4924 85.8488 29.3212 86.8952 28.466C87.9869 27.5737 88.3968 25.7798 87.4646 24.7222C89.0687 25.0182 90.7202 25.3145 92.3197 24.9936C93.9192 24.6731 95.4764 23.5854 95.8513 21.9977C98.5571 22.9351 101.359 23.588 104.197 23.9681C104.414 23.9973 104.631 24.0372 104.849 24.0631C105.827 24.1787 106.891 24.2425 107.723 23.7141C108.805 23.0261 108.423 21.6208 108.91 20.6111C109.48 19.4284 110.635 18.6642 111.137 17.344C111.864 15.4299 111.884 13.2273 111.236 11.267C110.976 10.4802 110.609 9.73207 110.137 9.05758C107.602 5.4366 102.758 3.90818 98.3806 4.52308C96.6937 2.45082 94.1038 1.14112 91.4347 1.01081C90.1656 0.948924 88.8876 1.15422 87.6951 1.59002C86.449 2.04547 85.2935 3.43538 84.0909 3.72548C81.9266 4.24739 78.027 2.13322 75.6348 1.92301C73.0004 1.69152 70.2893 1.87914 67.8241 2.83685C63.0421 4.69466 59.6732 9.39483 58.7469 14.4408C58.4185 16.2311 58.5184 17.8257 59.0134 19.5636C59.2544 20.4104 60.2056 21.4912 59.133 22.0999C56.8292 23.4076 55.051 25.7307 54.4033 28.3039C53.961 30.0605 53.6414 33.5086 55.159 34.7852C55.8581 35.3733 56.8708 35.6022 57.3645 36.3706C58.2584 37.7612 56.7866 39.4821 56.7208 41.134C56.6377 43.2334 59.5082 44.7455 61.1925 43.4895C60.8009 43.7815 62.1367 46.0398 62.492 46.3309C63.2493 46.9507 64.9388 47.1209 65.8265 46.9166C66.1824 46.8348 66.5193 46.6976 66.8474 46.5381C67.2714 46.3325 67.6794 46.0863 68.0795 45.8368C68.9226 45.3123 69.7647 44.7877 70.6066 44.2629Z" stroke="white" stroke-width="2" mask="url(#path-6-outside-3_1136_1048)"/>
<path d="M63.6053 222.336L63.6052 222.336L63.6003 222.344C63.587 222.366 63.5594 222.412 63.525 222.459L63.5229 222.463L63.522 222.464C63.5095 222.487 63.4731 222.553 63.4103 222.617L63.4096 222.618C63.1135 222.92 62.721 223.07 62.3306 223.07C61.9488 223.07 61.5641 222.926 61.2699 222.636C60.1295 221.514 58.241 220.18 55.9241 218.765C53.6152 217.356 50.9097 215.884 48.1572 214.483C42.6497 211.68 36.9805 209.175 33.9659 208.039C33.8194 207.984 33.6083 207.943 33.3353 207.913C33.0669 207.884 32.7718 207.869 32.4632 207.854L32.4617 207.854L32.461 207.854C32.1005 207.835 31.728 207.816 31.3877 207.774L31.3871 207.773C27.0204 207.226 22.6898 205.974 18.5454 204.776L18.5255 204.77L18.5252 204.77L17.4312 204.455L17.1132 204.363L63.6053 222.336ZM63.6053 222.336C63.9541 221.763 63.9135 220.994 63.392 220.479L63.3915 220.479C60.7382 217.868 55.0474 214.584 49.3709 211.705C43.6728 208.814 37.904 206.29 35.0312 205.207L35.0304 205.207C34.2481 204.913 33.355 204.869 32.6462 204.833L32.6125 204.831L32.6111 204.831C32.2969 204.816 32.0133 204.802 31.7637 204.772C27.6393 204.254 23.4551 203.046 19.3647 201.864L19.3644 201.864L17.9473 201.456L17.947 201.456M63.6053 222.336L17.947 201.456M17.947 201.456C17.1503 201.227 16.3074 201.686 16.0763 202.492C16.0497 202.584 16.0464 202.665 16.0454 202.708L16.0449 202.737L16.0447 202.755C16.0447 202.759 16.0446 202.761 16.0445 202.763C15.9766 203.458 16.384 204.154 17.1123 204.363L17.947 201.456ZM103.069 102.878L103.069 102.878C102.774 103.168 102.39 103.313 102.007 103.313C101.616 103.313 101.225 103.163 100.93 102.863L101.286 102.512L100.93 102.863C100.344 102.268 100.349 101.311 100.945 100.724C102.842 98.8538 104.954 97.2115 107.215 95.8115C107.264 95.781 107.33 95.7383 107.402 95.6917C107.513 95.6195 107.638 95.538 107.738 95.4787C107.738 95.4785 107.738 95.4784 107.739 95.4782L107.994 95.908L103.069 102.878ZM103.069 102.878C104.939 101.035 107.031 99.4201 109.287 98.0783C109.938 97.691 110.154 96.9142 109.913 96.2594M103.069 102.878L109.913 96.2594M109.913 96.2594C109.913 96.2599 109.913 96.2602 109.913 96.2602C109.913 96.2602 109.913 96.2596 109.912 96.2586L109.442 96.4296L109.911 96.255C109.911 96.2565 109.912 96.2579 109.913 96.2594ZM124.084 111.776L124.084 111.775L83.7805 109.825L83.4073 109.492C83.407 109.492 83.4066 109.493 83.4063 109.493C83.3049 109.607 83.2306 109.767 83.2167 109.797C83.2155 109.8 83.2147 109.802 83.2145 109.802L83.2142 109.803C82.9063 110.388 82.9879 111.144 83.5296 111.627C88.885 116.402 92.6661 119.28 98.3141 121.591L98.3143 121.591C99.3372 122.009 100.334 122.355 101.311 122.644C103.511 123.296 105.609 123.634 107.591 123.634C110.633 123.635 113.393 122.857 115.837 121.297L115.568 120.875L115.837 121.296C119.452 118.988 121.824 115.427 124.084 111.776ZM99.4606 118.791C94.2397 116.655 90.6966 113.963 85.5421 109.369L133.522 95.6985C133.494 95.6698 133.417 95.5896 133.324 95.5234C133.307 95.5087 133.284 95.4911 133.256 95.4737L133.256 95.4736L133.246 95.4681C132.523 95.0496 131.597 95.297 131.179 96.0221C130.42 97.3339 127.979 100.82 125.799 103.932C123.964 106.55 122.215 109.046 121.511 110.184C119.372 113.64 117.248 116.806 114.209 118.747C110.402 121.178 105.471 121.25 99.4606 118.791L99.4606 118.791ZM133.799 97.535C134.162 96.9095 134.003 96.1679 133.531 95.7079L133.367 97.2845L133.799 97.5352C133.799 97.5351 133.799 97.535 133.799 97.535Z" fill="#171717" stroke="white"/>
<path d="M65.4251 73.9893L65.4251 73.9893C61.0126 72.0286 56.7908 69.0438 54.4377 64.7198C52.4404 61.0508 52.0786 56.3158 53.9661 52.6112C54.3055 51.945 54.7115 51.3036 55.2077 50.7113L55.591 51.0324M65.4251 73.9893L60.021 61.7592C56.9416 55.463 59.8788 51.1456 65.5831 50.8659C65.6165 50.9311 65.6495 50.9976 65.6821 51.0656L65.682 51.0657L65.6863 51.0742L65.6866 51.0749L66.1091 50.8626V51.3517C66.1244 51.3517 66.1372 51.3511 66.146 51.3505L66.1481 51.3504H66.9442L66.5819 50.6294C65.9325 49.2747 65.0803 48.3465 64.0927 47.7981C63.1037 47.2488 62.0183 47.1025 60.9427 47.245C58.811 47.5276 56.6851 48.9445 55.2074 50.7117L55.591 51.0324M65.4251 73.9893C72.2925 77.0404 79.5823 77.9585 86.8781 78.3291M65.4251 73.9893L86.8781 78.3291M55.591 51.0324C55.1228 51.5913 54.7367 52.2 54.4116 52.8382L55.591 51.0324ZM60.4702 61.5395C61.6296 63.9098 64.1459 66.0125 67.0557 67.7437C69.9506 69.466 73.1638 70.7792 75.6216 71.5994C79.0636 72.7479 82.6032 73.5937 86.189 74.1663C88.8758 74.5953 91.5872 74.8605 94.3071 74.9648C96.8698 75.0631 99.4349 75.0344 101.987 74.8441L101.987 74.8441C104.326 74.6698 106.657 74.375 108.964 73.9584M60.4702 61.5395L111.974 73.5736L111.829 73.0952C111.483 73.2004 111.155 73.3125 110.836 73.4216C110.201 73.6384 109.602 73.8433 108.964 73.9584M60.4702 61.5395C58.9286 58.3876 58.9913 55.8614 60.0349 54.1454C61.0794 52.4282 63.2001 51.3681 66.112 51.3517L66.1092 50.8625L66.133 50.8505L66.1334 50.8504V50.8496L60.4702 61.5395ZM108.964 73.9584L109.053 74.4505L108.964 73.9584C108.964 73.9584 108.964 73.9584 108.964 73.9584ZM86.8781 78.3291C87.0468 78.3377 87.2086 78.3468 87.372 78.3561M86.8781 78.3291L87.372 78.3561M87.372 78.3561C87.4911 78.3628 87.6111 78.3696 87.7352 78.3762L87.372 78.3561ZM84.8475 60.6578L84.5908 60.5048L84.3345 60.6584C84.1316 60.78 83.9258 60.9102 83.7221 61.0554L84.0124 61.4625L83.7221 61.0554C82.722 61.7683 81.9042 62.5042 81.2683 63.5349L81.1069 63.7966L81.2676 64.0588C81.513 64.4589 81.7275 64.8729 81.8865 65.3402L81.8866 65.3403C81.8902 65.3509 81.8938 65.3614 81.8974 65.3718C81.9049 65.3935 81.9123 65.4146 81.9193 65.4344L82.0017 65.6687L82.2381 65.7446C83.584 66.1766 84.8555 66.809 86.0609 67.6037L86.1231 67.6447L86.1946 67.6658C88.3901 68.3137 90.6267 68.8244 92.9066 69.1329C98.6255 69.9068 104.653 69.3575 109.887 66.83L110.205 66.6766L110.167 66.3258L110.054 65.2901L109.942 64.2545L109.876 63.6472L109.293 63.8319C103.849 65.5591 97.8344 65.4857 92.2619 64.005L92.1334 64.4882L92.2618 64.005C89.5068 63.2731 87.1521 62.0308 84.8475 60.6578ZM117.952 69.9183C117.75 69.7254 117.419 69.5535 117.03 69.6711L116.824 72.8991C117.097 72.6571 117.357 72.4005 117.55 72.0923L117.973 72.358C117.973 72.3578 117.973 72.3577 117.974 72.3576C118.273 71.8792 118.468 71.2545 118.338 70.6249L118.338 70.6248C118.286 70.3697 118.15 70.1086 117.952 69.9183Z" fill="#171717" stroke="white"/>
</svg>
