<svg width="20" height="20" viewBox="0 0 20 20" fill="none" xmlns="http://www.w3.org/2000/svg">
<path d="M10.013 0.25C10.747 0.258 11.478 0.343 12.194 0.503C12.3465 0.53705 12.4846 0.617903 12.589 0.734261C12.6933 0.850618 12.7587 0.996668 12.776 1.152L12.946 2.679C12.97 2.89441 13.0442 3.10119 13.1627 3.28268C13.2812 3.46416 13.4406 3.61528 13.6282 3.72386C13.8158 3.83244 14.0262 3.89545 14.2426 3.9078C14.459 3.92016 14.6753 3.88152 14.874 3.795L16.274 3.18C16.4163 3.11735 16.5745 3.10044 16.7267 3.13161C16.879 3.16278 17.0178 3.24049 17.124 3.354C18.1359 4.43511 18.8895 5.73162 19.328 7.146C19.374 7.29464 19.3726 7.45389 19.3241 7.60171C19.2755 7.74953 19.1822 7.87858 19.057 7.971L17.815 8.887C17.6402 9.01525 17.4981 9.18287 17.4002 9.37628C17.3023 9.5697 17.2513 9.78346 17.2514 10.0003C17.2515 10.217 17.3026 10.4308 17.4007 10.6241C17.4988 10.8174 17.6411 10.9849 17.816 11.113L19.059 12.028C19.1844 12.1205 19.2778 12.2497 19.3264 12.3977C19.375 12.5458 19.3762 12.7052 19.33 12.854C18.8916 14.2682 18.1384 15.5647 17.127 16.646C17.021 16.7595 16.8824 16.8372 16.7304 16.8686C16.5783 16.8999 16.4202 16.8833 16.278 16.821L14.872 16.204C14.6736 16.1168 14.4573 16.0776 14.2409 16.0895C14.0245 16.1015 13.8139 16.1642 13.6262 16.2727C13.4386 16.3812 13.2791 16.5324 13.1607 16.714C13.0424 16.8956 12.9685 17.1025 12.945 17.318L12.776 18.844C12.759 18.9976 12.6949 19.1423 12.5925 19.2581C12.4901 19.3739 12.3544 19.4553 12.204 19.491C10.7559 19.8355 9.24714 19.8355 7.79901 19.491C7.64861 19.4553 7.51294 19.3739 7.41054 19.2581C7.30815 19.1423 7.24405 18.9976 7.22701 18.844L7.05701 17.32C7.03241 17.1054 6.95787 16.8996 6.83937 16.7191C6.72086 16.5385 6.56169 16.3883 6.37462 16.2803C6.18755 16.1724 5.9778 16.1098 5.76218 16.0976C5.54656 16.0854 5.33107 16.1239 5.13301 16.21L3.72601 16.826C3.58379 16.8883 3.42574 16.9049 3.27367 16.8736C3.1216 16.8422 2.983 16.7645 2.87701 16.651C1.86508 15.5685 1.11185 14.2706 0.674012 12.855C0.627803 12.7062 0.629069 12.5468 0.677633 12.3987C0.726197 12.2507 0.819649 12.1215 0.945012 12.029L2.18901 11.113C2.36386 10.9848 2.50605 10.8173 2.60406 10.6239C2.70207 10.4305 2.75315 10.2168 2.75315 10C2.75315 9.78321 2.70207 9.56947 2.60406 9.3761C2.50605 9.18273 2.36386 9.01517 2.18901 8.887L0.946012 7.973C0.820472 7.88065 0.726821 7.75148 0.678075 7.60345C0.629328 7.45542 0.627908 7.29588 0.674012 7.147C1.11283 5.73253 1.86674 4.43601 2.87901 3.355C2.98512 3.2417 3.12377 3.16412 3.27584 3.13296C3.4279 3.10179 3.58589 3.11858 3.72801 3.181L5.12801 3.796C5.32703 3.88227 5.54351 3.92066 5.76006 3.90809C5.97661 3.89551 6.18719 3.83232 6.37488 3.7236C6.56258 3.61487 6.72216 3.46363 6.8408 3.28204C6.95944 3.10045 7.03384 2.89356 7.05801 2.678L7.22801 1.152C7.24517 0.996355 7.31062 0.849984 7.41517 0.733414C7.51972 0.616845 7.65814 0.535924 7.81101 0.502C8.52901 0.343 9.26101 0.259 10.013 0.25ZM10.013 1.75C9.55906 1.75528 9.10614 1.79438 8.65801 1.867L8.54901 2.844C8.49909 3.29356 8.34419 3.7251 8.09682 4.10379C7.84945 4.48248 7.51653 4.79772 7.12492 5.02409C6.73331 5.25045 6.29397 5.3816 5.84236 5.40694C5.39074 5.43229 4.93949 5.35112 4.52501 5.17L3.62701 4.776C3.055 5.47012 2.59972 6.25268 2.27901 7.093L3.07701 7.68C3.44123 7.94767 3.73735 8.29728 3.94146 8.70056C4.14556 9.10385 4.25191 9.54951 4.25191 10.0015C4.25191 10.4535 4.14556 10.8991 3.94146 11.3024C3.73735 11.7057 3.44123 12.0553 3.07701 12.323L2.27901 12.911C2.59901 13.753 3.05401 14.537 3.62601 15.233L4.53201 14.836C4.9455 14.6555 5.3956 14.5745 5.84609 14.5997C6.29657 14.6249 6.73484 14.7555 7.12563 14.981C7.51642 15.2065 7.8488 15.5206 8.09603 15.898C8.34325 16.2755 8.49841 16.7057 8.54901 17.154L8.65701 18.138C9.54701 18.288 10.456 18.288 11.346 18.138L11.454 17.154C11.5035 16.7047 11.658 16.2734 11.9051 15.8949C12.1521 15.5165 12.4848 15.2014 12.8762 14.9754C13.2676 14.7493 13.7067 14.6185 14.158 14.5936C14.6093 14.5687 15.0601 14.6504 15.474 14.832L16.378 15.228C16.9497 14.5334 17.4046 13.7506 17.725 12.91L16.927 12.322C16.5626 12.0545 16.2663 11.7049 16.0621 11.3016C15.8578 10.8983 15.7514 10.4526 15.7514 10.0005C15.7514 9.54843 15.8578 9.10271 16.0621 8.69941C16.2663 8.2961 16.5626 7.94654 16.927 7.679L17.723 7.092C17.4023 6.25168 16.947 5.46912 16.375 4.775L15.479 5.168C15.0648 5.34935 14.6137 5.43075 14.1622 5.40562C13.7107 5.38049 13.2714 5.24953 12.8798 5.02333C12.4883 4.79713 12.1554 4.48203 11.908 4.10345C11.6607 3.72488 11.5059 3.29345 11.456 2.844L11.346 1.868C10.9052 1.79594 10.4596 1.75683 10.013 1.751V1.75ZM10 6.25C10.9946 6.25 11.9484 6.64509 12.6517 7.34835C13.3549 8.05161 13.75 9.00544 13.75 10C13.75 10.9946 13.3549 11.9484 12.6517 12.6517C11.9484 13.3549 10.9946 13.75 10 13.75C9.00545 13.75 8.05162 13.3549 7.34836 12.6517C6.6451 11.9484 6.25001 10.9946 6.25001 10C6.25001 9.00544 6.6451 8.05161 7.34836 7.34835C8.05162 6.64509 9.00545 6.25 10 6.25ZM10 7.75C9.40327 7.75 8.83098 7.98705 8.40902 8.40901C7.98706 8.83097 7.75001 9.40326 7.75001 10C7.75001 10.5967 7.98706 11.169 8.40902 11.591C8.83098 12.0129 9.40327 12.25 10 12.25C10.5967 12.25 11.169 12.0129 11.591 11.591C12.013 11.169 12.25 10.5967 12.25 10C12.25 9.40326 12.013 8.83097 11.591 8.40901C11.169 7.98705 10.5967 7.75 10 7.75Z" fill="white"/>
</svg>
