<svg width="151" height="377" viewBox="0 0 151 377" fill="none" xmlns="http://www.w3.org/2000/svg">
<path d="M54.875 58.9252L57.2301 68.2623C61.8368 68.7289 66.104 81.0094 66.1467 81.1375C66.2564 81.4617 66.3763 81.8078 66.5003 82.1634C67.3123 84.4967 67.8247 86.0818 67.5665 86.8429L64.3259 96.3741C64.3252 96.3761 64.3228 96.3771 64.3221 96.3792L67.8787 110.48C68.2442 110.475 68.6081 110.471 68.9657 110.468C68.9743 110.468 68.9828 110.468 68.9903 110.468C70.4443 110.468 71.6307 111.6 71.696 113.056L72.5473 152.049C92.5067 154.465 114.275 156.298 116.175 155.035C115.844 152.884 117.903 151.279 119.895 149.725C120.878 148.959 121.893 148.167 122.601 147.33C124.054 145.614 124.158 143.768 124.365 140.089C124.447 138.639 124.548 136.834 124.765 134.692C124.765 134.69 124.765 134.689 124.765 134.688C125.345 128.944 124.117 115.49 123.563 109.971C123.422 108.583 122.465 107.437 121.123 107.051L117.696 106.065C116.57 105.742 115.707 104.878 115.388 103.754C114.099 99.2057 110.345 85.9489 109.541 83.0684C109.421 82.6383 109.39 82.1959 109.449 81.7524L111.115 69.2892C109.716 68.2411 107.695 66.4428 105.101 64.0996C103.834 62.9549 102.393 61.6526 101.274 60.7064C100.432 63.8995 97.11 76.5684 96.9033 78.3233C96.876 78.5576 96.8551 78.7722 96.8391 78.9717C96.7274 80.3812 95.5563 81.4552 94.1533 81.4552C94.1222 81.4552 94.0918 81.4552 94.0607 81.4542L79.4275 80.9541C78.3886 80.9172 77.4509 80.2743 77.0358 79.3157C76.8277 78.8337 76.6764 78.3031 76.5848 77.7388L76.5698 77.6414C76.3361 76.0119 75.3082 70.3014 71.8856 64.8492C71.8172 64.7549 71.7827 64.6811 71.7656 64.6326C71.7619 64.6104 71.7551 64.5895 71.751 64.5673C71.7493 64.5588 71.7465 64.5506 71.7451 64.5417C71.038 60.7497 67.3721 57.777 66.9024 57.4097C66.3974 57.2205 61.1502 55.4106 54.875 58.9252ZM73.4676 87.3977C73.431 87.0038 73.5663 86.6147 73.8382 86.3284C74.1126 86.0401 74.5085 85.9031 74.8952 85.9031L102.031 87.1066C102.713 87.1377 103.261 87.6522 103.335 88.331L104.206 96.3939C104.25 96.7898 104.119 97.184 103.847 97.4754C103.586 97.7562 103.222 97.9141 102.841 97.9141C102.824 97.9141 102.807 97.913 102.79 97.913L75.4141 96.8817C74.7128 96.8554 74.1464 96.3078 74.0962 95.6075C73.9705 93.8129 73.6558 89.4218 73.4676 87.3977V87.3987V87.3977Z" fill="#171717"/>
<path d="M107.767 26.4456C107.054 26.3817 106.306 26.3164 105.533 26.2505C105.817 27.1575 105.972 28.3275 105.729 29.4798C105.506 30.5385 105.49 31.3809 105.477 32.0577C105.461 32.8878 105.448 33.486 105.059 33.9331C104.837 34.1883 104.658 34.3007 104.539 34.368C104.534 34.4268 104.529 34.5286 104.529 34.7045C104.529 35.096 104.614 35.3314 104.744 35.6877C104.888 36.083 105.066 36.5752 105.174 37.4272C105.333 38.6827 105.642 43.5405 105.769 45.5977C105.903 45.5444 106.035 45.5031 106.153 45.4682C106.734 45.2981 107.117 45.1857 106.951 43.4763C106.808 41.9834 106.438 40.3689 106.112 38.945C105.581 36.6251 105.161 34.792 105.67 33.775C105.956 33.2021 106.292 32.9298 106.561 32.7115C107.015 32.3439 107.407 32.0262 107.555 29.7251L107.767 26.4456Z" fill="#171717"/>
<path d="M83.4443 49.728C81.6159 43.8583 79.298 36.9515 77.9527 34.0474C77.9527 34.1731 77.9538 34.3008 77.9538 34.4283C77.9698 38.046 77.9992 44.779 76.2891 46.7518L76.3277 46.869C79.2752 48.988 82.0515 49.5702 83.4443 49.728Z" fill="#171717"/>
<path d="M64.846 49.0049C67.4645 49.517 68.6444 50.2833 69.1538 50.7656L70.8526 49.5543C71.5171 49.0825 72.3906 49.0647 73.0769 49.5051C75.0443 50.7701 80.1518 53.6742 85.0137 53.3404L85.3304 53.3186L85.477 53.6011C85.4988 53.6438 87.7327 57.858 92.6048 58.4244C96.7999 58.9153 98.7454 58.6017 99.266 58.4872C99.3521 58.4124 99.4512 58.342 99.5629 58.2703C100.29 57.8019 102.121 56.5943 102.512 54.1166C101.881 54.1586 100.842 54.2293 99.8465 54.3055C99.4854 54.3338 99.126 54.4295 98.7103 54.5398C98.0543 54.7147 97.2696 54.9238 96.1806 54.9238C95.2315 54.9238 94.0516 54.765 92.5249 54.2846C88.2 52.9253 87.4539 51.3966 87.3832 51.2265L79.5434 26.7789C79.431 26.4263 79.4819 26.0454 79.6835 25.7353C79.8847 25.4251 80.212 25.2249 80.5795 25.1842C81.628 25.0698 83.5622 24.8071 84.7466 24.3332C86.6084 23.5834 106.058 25.3178 108.314 25.5224C108.741 25.5351 109.708 25.463 110.021 25.1111C110.079 25.0448 110.135 24.9512 110.102 24.7538C110.084 24.6469 110.067 24.4361 110.045 24.1355C108.996 9.71403 100.38 1.80078 85.7629 1.80078C85.5672 1.80078 85.3724 1.80181 85.175 1.80454C60.505 2.15709 59.0425 27.5861 59.0302 27.8434C58.8014 31.4727 58.7324 37.573 59.5239 38.522C59.9133 38.989 60.2204 39.0977 60.492 39.1943C61.2672 39.4687 61.5292 39.8427 61.4506 41.3981C61.3225 43.9664 61.5931 48.3699 64.846 49.0049ZM75.5557 46.1179C77.0284 44.4201 76.9983 37.6752 76.984 34.4335C76.9744 32.1515 76.9744 32.1081 77.3424 31.9537L77.6409 31.829L77.8866 32.0634C79.2838 33.4596 82.8837 44.6773 84.3671 49.435C84.4654 49.7507 84.3975 50.0909 84.1863 50.3454C84.0012 50.5695 83.7289 50.6963 83.4433 50.6963C83.4064 50.6963 83.3695 50.6942 83.3326 50.6905C81.8466 50.5214 78.8868 49.902 75.7603 47.6559C75.5154 47.4799 75.3548 47.206 75.3196 46.9023C75.2865 46.6163 75.3722 46.3297 75.5557 46.1179Z" fill="#171717"/>
<path d="M92.8165 53.3624C95.8227 54.306 97.2862 53.9165 98.461 53.6053C98.9044 53.4871 99.3222 53.3757 99.7732 53.3416C100.881 53.2558 102.037 53.178 102.633 53.1387C102.822 51.0524 103.383 50.1099 103.887 49.2859C104.263 48.6686 104.56 48.1818 104.653 47.2543C104.685 46.9308 104.757 46.6742 104.852 46.4621C104.795 45.5178 104.395 38.9834 104.214 37.5482C104.12 36.8042 103.968 36.3864 103.834 36.0178C103.694 35.6321 103.561 35.2672 103.561 34.7046C103.561 34.077 103.605 33.7771 104.032 33.5417C104.111 33.4983 104.193 33.4529 104.329 33.2978C104.488 33.1154 104.497 32.6409 104.508 32.0386C104.522 31.3588 104.539 30.4286 104.782 29.2811C105.025 28.126 104.789 26.9639 104.464 26.1604C96.3625 25.4857 86.1764 24.8072 85.1061 25.2312C83.8801 25.7228 82.0254 25.9998 80.6856 26.1464C80.578 26.1576 80.5203 26.2249 80.4957 26.2625C80.47 26.3011 80.4331 26.3807 80.4663 26.4839L88.2917 50.8929C88.2907 50.8918 88.2907 50.8918 88.2907 50.8918C88.2986 50.8922 89.0057 52.1647 92.8165 53.3624Z" fill="#171717"/>
<path d="M75.4497 95.9134L102.826 96.9448C102.832 96.9458 102.837 96.9458 102.842 96.9458C102.994 96.9458 103.092 96.8655 103.138 96.8163C103.185 96.7661 103.261 96.6575 103.244 96.4976L102.372 88.4347C102.35 88.2352 102.189 88.0832 101.988 88.0736L74.8522 86.8711C74.8464 86.8701 74.8399 86.8701 74.8335 86.8701C74.7211 86.8701 74.6169 86.9145 74.5393 86.9958C74.459 87.0799 74.4201 87.1916 74.4317 87.3077V87.3088C74.6206 89.3414 74.9356 93.7418 75.0623 95.539C75.0763 95.7454 75.2437 95.9059 75.4497 95.9134Z" fill="#171717"/>
<path d="M2.21484 116.054C3.25029 115.912 5.05984 116.039 8.23143 117.009C9.80834 117.492 11.7112 117.959 13.7267 118.454C19.3402 119.832 25.7015 121.393 28.6281 124.137L32.0672 127.361L37.5799 118.389C40.7016 110.843 41.8891 80.4125 40.4478 73.6888C39.9883 71.5458 39.1394 70.1523 37.9246 69.549C36.4303 68.8105 34.8643 69.5043 34.8035 69.533C33.9673 70.0092 31.8154 71.8721 31.4564 72.2164C32.0972 72.3257 32.775 72.5368 33.2102 72.7029C34.5203 73.204 36.8027 74.3809 37.3585 76.6431C37.9823 79.184 31.9965 85.7517 30.7902 87.042C30.0793 87.8021 23.9517 94.2757 21.382 94.2757C21.3028 94.2757 21.2269 94.2699 21.1552 94.2569C20.5898 94.1575 20.1249 93.8477 19.7723 93.3332C18.9176 92.0863 18.9009 89.7595 19.0508 87.9537C18.6733 88.6575 18.3064 89.3697 17.9669 90.1001C15.1393 96.1806 10.0212 103.969 6.28421 109.656C4.65127 112.141 2.97665 114.691 2.21484 116.054Z" fill="#171717"/>
<path d="M77.9233 78.9322C78.1946 79.5591 78.7825 79.9625 79.4596 79.9864L94.0918 80.4865C94.9879 80.5101 95.7999 79.819 95.8737 78.8963C95.8897 78.6855 95.9123 78.4577 95.9417 78.21C96.1692 76.2737 99.8395 62.3411 100.449 60.0315C100.043 59.711 99.7302 59.492 99.5508 59.4155C99.2564 59.4862 98.5499 59.6161 97.2975 59.6499C96.9293 61.4475 94.9366 68.4664 86.3265 68.4664C85.6781 68.4664 84.9918 68.4257 84.2648 68.3417C78.4976 67.6663 75.3902 66.7986 73.7129 66.0651C76.3505 70.9301 77.2521 75.5823 77.5274 77.5049C77.6179 78.0699 77.7474 78.5236 77.9233 78.9322Z" fill="#171717"/>
<path d="M72.6812 64.2983C72.6816 64.299 72.6819 64.2993 72.6823 64.3C72.8862 64.549 74.6052 66.2363 84.3783 67.379C93.7806 68.478 95.8997 61.6651 96.3182 59.6533C95.3087 59.639 94.0577 59.5683 92.4941 59.3872C87.8013 58.8409 85.3898 55.3523 84.7742 54.3241C79.7025 54.5454 74.5615 51.6109 72.5538 50.3206C72.2023 50.0948 71.7531 50.1023 71.4145 50.3432L69.4816 51.7213L67.709 56.8175C68.7014 57.6248 71.9936 60.5504 72.6812 64.2983Z" fill="#171717"/>
<path d="M125.127 94.9255C125.677 93.3687 126.592 83.4754 127.018 78.2442C125.368 76.9509 114.657 70.8369 112.742 70.2736C112.548 70.2165 112.292 70.0782 112.007 69.9043L110.407 81.8808C110.366 82.1937 110.387 82.5056 110.471 82.8082C111.276 85.6877 115.03 98.9426 116.319 103.489C116.545 104.289 117.16 104.904 117.962 105.135L121.39 106.121C121.877 106.261 122.319 106.486 122.716 106.768C123.022 105.652 123.539 103.393 123.29 101.565C123.01 99.5134 123.724 98.0161 124.414 96.5686C124.679 96.0101 124.93 95.4833 125.127 94.9255Z" fill="#171717"/>
<path d="M116.726 191.288C116.726 189.523 116.181 186.095 115.826 184.054C115.331 185.241 114.826 186.357 114.553 186.679C112.498 189.097 108.544 189.258 107.532 189.258C107.517 189.258 107.51 189.257 107.496 189.257C105.742 190.811 99.5517 191.137 99.5261 191.137C99.1828 191.137 98.9334 190.965 98.8094 190.857C98.4531 190.544 98.1364 189.978 98.0739 188.756C95.7581 189.074 93.9048 189.128 91.6115 189.191C91.0837 189.205 90.5207 189.222 89.9331 189.241C90.3748 195.973 90.8459 203.116 91.0236 205.808C91.0519 206.234 90.9119 206.644 90.6304 206.964C90.3468 207.285 89.9543 207.476 89.5263 207.502L84.9318 207.778C84.4146 207.809 84.0101 208.255 84.03 208.772L84.2144 213.597C84.2315 214.043 84.0689 214.465 83.7577 214.785C83.4506 215.101 83.0403 215.274 82.5996 215.274C82.5938 215.274 82.5883 215.274 82.5825 215.274L81.3373 215.261C81.3326 215.261 81.3288 215.261 81.325 215.261C81.0661 215.261 80.8239 215.362 80.6425 215.546C80.458 215.734 80.36 215.982 80.3664 216.246L80.9212 237.993H82.1493C82.728 237.993 83.192 238.446 83.2063 239.024L83.4192 247.309C83.4267 247.598 83.3191 247.871 83.1158 248.078C82.9153 248.281 82.6611 248.432 82.3499 248.393L76.9076 248.33C76.7979 248.368 76.6589 248.378 76.5683 248.47C76.4785 248.563 76.4313 248.686 76.4368 248.815L77.7848 281.904C77.7961 282.216 77.6848 282.512 77.4692 282.735C77.2536 282.959 76.9643 283.082 76.6534 283.082H74.3666C73.7712 283.082 73.2748 282.616 73.2369 282.022L71.4512 252.967C71.4362 252.718 71.248 252.551 70.9784 252.531L68.9185 252.568C68.911 252.568 68.9024 252.568 68.8939 252.568C68.75 252.568 68.6107 252.546 68.4785 252.506C68.5676 254.235 68.8088 257.242 69.448 259.159C70.4445 262.149 70.849 265.075 70.5039 266.797C70.2098 268.269 70.1285 277.237 70.5873 278.767C70.7499 279.305 71.1093 280.132 71.4892 281.007C72.2417 282.739 73.0944 284.701 73.0671 285.854C73.0473 286.692 72.5509 288.659 71.9234 291.149C71.2702 293.742 70.5299 296.681 70.1179 299.152C69.7141 301.577 69.7643 302.924 69.8039 304.007C69.8446 305.088 65.5962 319.356 65.2341 321.891C64.911 324.149 65.5764 325.029 66.2805 325.962C66.4694 326.212 67.1766 328.048 66.8845 328.569C66.7 328.899 67.3289 335.38 66.5053 336.753C65.5617 338.324 64.763 341.407 65.2092 342.631C65.3544 343.029 65.5481 343.669 65.6868 344.472C66.9576 343.529 69.6854 342.291 73.0507 342.849C74.5992 343.106 77.0155 343.832 79.5746 344.6C84.0313 345.937 90.1326 347.765 91.6542 346.898C91.8284 346.77 98.1969 334.504 98.1969 333.116C98.1969 332.604 96.744 324.91 97.0729 322.718C97.3035 321.177 99.3143 315.976 99.6546 313.685C99.905 311.993 104.083 288.431 104.335 287.953C104.516 287.61 104.741 287.184 104.976 284.985C105.239 282.535 105.262 280.362 105.281 278.445C105.297 276.884 105.312 275.535 105.462 274.482C105.77 272.32 108.84 263.076 110.585 261.157C110.897 260.813 111.243 260.493 111.609 260.155C111.744 260.031 111.882 259.902 112.023 259.77C111.999 258.872 111.928 255.287 112.165 251.249C112.263 249.57 112.2 247.995 112.132 246.327C112.012 243.365 111.876 240.008 112.582 234.978C113.257 230.166 112.468 225.46 111.893 222.025C111.522 219.812 111.277 218.349 111.533 217.562C112.072 215.911 114.436 214.04 115.17 213.49C115.245 212.009 116.726 193.413 116.726 191.288Z" fill="#171717"/>
<path d="M112.453 217.862C112.269 218.422 112.537 220.018 112.846 221.864C112.891 222.136 112.939 222.429 112.987 222.716C112.987 222.717 112.988 222.719 112.989 222.721C113.2 224.003 115.246 224.7 116.524 224.971C116.437 224.195 116.35 223.335 116.26 222.452C115.982 219.71 115.668 216.601 115.327 215.665C115.24 215.424 115.194 215.095 115.169 214.718C114.168 215.537 112.786 216.836 112.453 217.862Z" fill="#171717"/>
<path d="M145.43 146.925C144.919 139.972 142.545 134.453 141.897 133.058C139.803 133.59 131.811 135.548 127.421 135.548C126.732 135.548 126.145 135.493 125.671 135.384C125.593 136.211 125.528 136.992 125.479 137.707C126.037 138.272 127.685 140.24 128.003 144.052C128.101 145.227 128.148 146.303 128.198 147.441C128.334 150.516 128.473 153.695 129.647 159.119C129.919 160.377 130.214 161.674 130.512 162.983C132 169.532 133.54 176.303 132.713 180.167C132.175 182.686 130.981 184.679 129.928 186.437C129.032 187.934 128.258 189.226 127.996 190.584C127.42 193.568 126.653 196.752 126.586 197.031C126.552 197.322 126.28 199.623 125.94 201.547C125.654 203.171 124.983 206.974 125.326 208.232C125.457 208.714 125.834 209.069 126.287 209.137C126.702 209.198 127.087 209.006 127.354 208.584C128.138 207.352 129.1 203.476 129.218 202.401C129.352 201.167 130.247 200.004 130.285 199.956L131.151 198.842V207.392C131.151 209.751 130.649 210.921 130.283 211.774C130.116 212.165 129.789 212.606 129.41 213.116C128.874 213.837 128.065 214.925 128.123 215.445C128.198 216.12 130.238 216.837 131.935 216.141L132.116 216.066C134.011 215.287 134.462 215.101 136.281 213.534L138.343 211.757L138.511 211.749C139.688 211.694 141.139 211.422 141.428 211.075C142.174 210.181 143.834 207.541 143.857 207.027C143.857 206.715 143.954 206.086 144.112 205.085C144.288 203.973 144.529 202.45 144.466 202.015C144.345 201.166 143.298 189.771 143.254 189.286C143.248 188.729 143.172 176.538 144.487 170.86C145.695 165.645 146.084 155.803 145.43 146.925Z" fill="#171717"/>
<path d="M91.5979 347.944C91.257 348.036 90.8593 348.085 90.3934 348.086C88.0478 348.086 84.1749 346.991 79.2959 345.527C76.7672 344.769 74.3783 344.051 72.8912 343.803C68.8489 343.131 66.1245 345.258 65.8276 345.617C65.8273 345.617 65.8266 345.618 65.8262 345.618C65.9198 346.927 65.8133 348.513 65.2103 350.219C65.0012 350.808 64.7792 351.415 64.5571 352.023C63.645 354.518 62.7015 357.098 62.7015 358.446C62.7015 359.391 62.3137 360.185 61.9718 360.885C61.5909 361.664 61.3667 362.165 61.5417 362.632C62.0643 364.027 62.0643 364.967 61.5417 366.361C61.4583 366.584 61.2222 367.364 61.692 368.04C62.1692 368.731 63.2282 369.095 64.7539 369.095C66.189 369.095 67.6628 368.899 69.0883 368.71C71.4148 368.404 73.611 368.113 75.5706 368.627C75.9289 368.72 76.3392 368.833 76.7939 368.957C80.3078 369.914 86.1908 371.515 91.2587 371.515C97.4837 371.515 107.923 369.52 108.545 368.473C108.836 367.146 108.528 364.011 108.525 363.98C108.521 363.951 107.881 359.453 104.996 358.587C104.102 358.32 95.1658 356.019 94.4207 355.026C93.5609 353.88 92.097 349.489 91.5979 347.944Z" fill="#171717"/>
<path d="M64.2778 245.496C63.8395 242.918 66.267 237.441 66.5837 236.741L64.3088 199.24C64.2938 198.986 64.1746 198.759 63.9911 198.633C57.8123 194.37 43.5781 198.107 39.3639 199.355C38.203 199.697 36.993 199.068 36.6036 197.922L33.0962 187.588C32.7645 186.61 33.0972 185.537 33.9243 184.917C34.0411 184.829 34.1709 184.736 34.3035 184.642C33.4761 184.439 32.647 184.2 32.0778 184.034C32.9739 190.256 33.6062 195.924 33.323 198.071C33.322 198.078 33.3179 198.083 33.3165 198.09C33.8597 200.014 33.0818 206.278 33.0063 206.633C32.7512 207.825 32.829 211.955 32.7156 212.57C32.7778 215.247 32.9302 223.338 32.6196 227.65C32.5243 228.974 32.7132 231.307 32.9524 234.261C33.638 242.729 34.6639 255.484 30.5002 262.667C30.4948 262.964 30.3168 263.358 30.0578 263.93C29.5352 265.086 28.6606 267.02 28.6606 269.131C28.6606 273.424 27.51 278.957 26.2293 284.725C25.6308 287.417 25.597 290.267 25.5611 293.282C25.5205 296.727 25.4788 300.29 24.6148 304.088C23.7762 307.778 23.6894 312.994 23.606 318.037C23.5322 322.485 23.4622 326.687 22.8374 329.109C22.271 331.3 20.9486 333.629 19.6696 335.879C18.0134 338.794 16.4488 341.546 16.8703 343.402C17.1597 344.673 17.4689 345.628 17.7418 346.47C18.2232 347.953 18.603 349.125 18.4954 350.959C18.4045 352.503 19.1814 353.396 19.7451 353.84C19.9965 352.573 20.7323 350.113 22.7089 349.574C25.1771 348.901 33.9215 347.396 44.453 355.536C44.7259 354.706 45.3538 353.706 46.0572 352.595C46.8163 351.396 47.601 350.156 47.879 349.183C48.4888 347.05 48.6692 344.535 48.3508 342.62C48.0881 341.041 50.8617 337.417 51.5576 337.01C53.0665 336.128 54.9447 335.031 56.2606 328.887C56.6651 327.002 57.1465 324.828 57.6521 322.545C59.5105 314.152 61.8229 303.707 61.5773 301.617C61.4184 300.267 60.7738 284.778 60.6122 283.726C60.3908 282.288 59.3021 274.576 59.4787 272.638C59.5515 271.834 59.9334 269.657 60.4175 266.9C61.0215 263.454 63.1938 251.038 63.6608 249.488C64.1596 247.834 64.4896 246.741 64.2778 245.496Z" fill="#171717"/>
<path d="M32.374 197.809C32.8653 193.272 25.8877 153.86 25.3736 153.391C24.486 153.11 20.8423 153.848 20.5663 154.416C20.2582 155.34 20.9349 160.868 21.7186 167.268C22.7055 175.323 27.1534 197.053 27.6317 198.07C28.3047 199.175 29.3767 199.745 30.4961 199.575C31.3546 199.445 32.0485 198.887 32.2234 198.186C32.2623 198.03 32.3149 197.911 32.374 197.809Z" fill="#171717"/>
<path d="M29.7024 262.107C33.6652 255.173 32.6595 242.658 31.9865 234.339C31.7446 231.344 31.5526 228.979 31.6527 227.581C31.9134 223.964 31.8444 217.644 31.7794 214.17C31.5977 214.386 31.3975 214.618 31.1714 214.878C29.5039 216.794 26.9835 219.69 26.2309 223.564C25.728 226.146 26.0136 228.302 26.2346 229.08C26.6589 230.574 26.661 231.368 26.4529 232.857C25.657 238.544 23.3077 257.494 26.4878 262.583C26.4878 262.582 26.4878 262.582 26.4878 262.582C26.5001 262.582 27.3773 263.457 29.0506 262.427C29.2436 262.308 29.4732 262.168 29.7024 262.107Z" fill="#171717"/>
<path d="M20.5708 92.786C20.773 93.0809 21.019 93.2503 21.3213 93.3039C22.312 93.4478 25.8269 90.9321 30.0818 86.381C34.0606 82.1241 36.7256 78.1251 36.4185 76.8738C36.0868 75.5268 34.903 74.6304 33.968 74.1163C32.4127 73.2619 30.8586 73.0487 30.5218 73.1239C27.8414 75.767 23.6669 80.2367 20.3142 85.747C20.0225 87.2976 19.5456 91.2921 20.5708 92.786Z" fill="#171717"/>
<path d="M45.3382 363.177C45.2408 362.877 44.492 358.044 44.3345 356.673C33.9411 348.385 25.3549 349.855 22.9625 350.508C21.4645 350.917 20.8209 353.166 20.6374 354.342L20.6456 354.345L20.5862 354.718C20.5578 354.894 19.849 359.042 15.6088 360.738C11.5118 362.376 10.5891 366.303 10.5891 367.549C10.5891 368.352 10.3035 369.285 10.0275 370.187C9.73162 371.154 9.36369 372.356 9.67012 372.724C10.4832 373.698 14.3079 375.914 18.9478 375.617C20.5418 375.513 22.5013 375.509 24.3976 375.503C28.0335 375.493 32.5589 375.481 33.2982 374.648C34.5553 373.234 36.328 373.298 37.5031 373.344C37.815 373.355 46.7979 372.433 46.9017 371.962C47.0114 371.464 46.7552 370.641 46.5075 369.846C46.2096 368.887 45.9005 367.897 46.0983 367.108C46.3213 366.215 45.6566 364.164 45.3382 363.177Z" fill="#171717"/>
<path d="M118.21 233.495C117.707 230.73 116.738 226.725 116.644 225.981C115.946 225.852 114.415 225.495 113.298 224.698C113.739 227.757 114.062 231.386 113.539 235.112C112.846 240.056 112.98 243.367 113.098 246.288C113.167 247.98 113.232 249.58 113.13 251.306C112.947 254.426 112.949 257.267 112.971 258.789C114.098 257.492 115.231 255.564 115.952 251.87C117.107 245.956 118.852 237.02 118.21 233.495Z" fill="#171717"/>
<path d="M109.109 184.126C108.715 184.505 108.307 184.801 107.885 184.983C107.328 185.223 106.814 185.343 106.345 185.343C105.881 185.343 105.463 185.226 105.092 184.992C104.584 184.672 104.252 184.176 104.036 183.675C103.07 186.383 102.021 188.76 101.061 190.051C103.128 189.852 106.116 189.374 106.957 188.445C107.604 187.732 108.423 185.892 109.109 184.126Z" fill="#171717"/>
<path d="M113.816 186.052C114.057 185.767 114.736 184.19 115.391 182.554C115.279 182.597 115.165 182.631 115.049 182.649C114.9 182.671 114.755 182.683 114.614 182.683C114.01 182.683 113.48 182.477 113.061 182.077C112.412 181.455 112.109 180.455 111.977 179.496C111.734 180.062 111.476 180.611 111.205 181.131C111.058 181.583 109.61 186.036 108.27 188.262C109.687 188.166 112.37 187.753 113.816 186.052Z" fill="#171717"/>
<path d="M99.7207 190.082C102.374 188.265 106.991 171.067 106.476 169.657C106.01 168.62 105.195 167.546 104.649 166.888L104.639 166.915C100.213 179.711 99.0901 185.498 99.0269 188.11C99.0279 188.116 99.0323 188.121 99.0334 188.127C99.0436 188.194 99.0392 188.26 99.0235 188.322C99.0204 189.48 99.2421 189.947 99.4495 190.129C99.4946 190.171 99.539 190.207 99.7207 190.082Z" fill="#171717"/>
<path d="M113.698 169.609C113.648 168.874 113.012 167.285 111.997 165.358C111.9 165.174 111.695 165.078 111.491 165.122L105.43 166.315C106.011 167.022 106.859 168.148 107.36 169.262C107.799 170.238 106.435 176.455 104.607 182.004C104.654 182.549 104.892 183.723 105.61 184.174C106.071 184.465 106.709 184.435 107.502 184.094C110.943 182.613 113.803 171.154 113.698 169.609Z" fill="#171717"/>
<path d="M118.45 163.575C118.299 163.506 118.123 163.491 117.954 163.534L112.812 164.853C112.824 164.873 112.843 164.887 112.853 164.908C113.494 166.125 114.583 168.345 114.665 169.543C114.724 170.416 114.064 173.754 112.895 177.124C112.807 178.104 112.802 180.49 113.731 181.377C114.03 181.663 114.412 181.763 114.903 181.692C115.347 181.624 115.78 181.187 116.194 180.494C116.201 180.474 116.209 180.452 116.217 180.432C116.241 180.367 116.278 180.312 116.323 180.265C118.002 177.2 119.333 169.959 119.737 165.888C119.873 164.531 119.112 163.881 118.45 163.575Z" fill="#171717"/>
<path d="M123.942 164.154C125.74 164.52 129.008 166.934 130.686 168.247C130.338 166.587 129.952 164.886 129.568 163.198C129.27 161.885 128.973 160.585 128.701 159.324C127.51 153.82 127.368 150.6 127.231 147.485C127.181 146.356 127.135 145.29 127.038 144.135C126.831 141.652 126.007 140.035 125.388 139.138C125.367 139.482 125.348 139.82 125.33 140.144C125.118 143.915 125.001 145.993 123.339 147.957C122.567 148.869 121.51 149.692 120.489 150.489C118.638 151.933 116.898 153.3 117.142 154.895C117.499 155.409 118.82 157.496 117.986 159.082C117.458 160.085 117.269 161.8 117.203 162.728L117.713 162.598C118.097 162.498 118.505 162.534 118.856 162.697C119.355 162.928 120.355 163.56 120.636 164.873C121.323 164.363 122.436 163.848 123.942 164.154Z" fill="#171717"/>
<path d="M41.3941 73.4869C42.8924 80.4815 41.7374 109.855 38.6516 118.303C40.3474 118.471 46.4394 118.276 48.3016 118.12C49.4768 118.021 51.7376 115.791 53.0822 114.2C52.2377 113.358 51.794 112.793 51.877 112.241C51.9074 112.037 52.0263 111.752 52.4188 111.553C53.3524 111.082 56.7181 110.808 60.702 110.651C59.1473 105.247 48.4943 68.2062 47.19 63.3716C44.7795 64.4938 40.3617 66.5971 37.0859 68.3001C37.4972 68.3592 37.925 68.4699 38.354 68.6827C39.8466 69.424 40.8694 71.0406 41.3941 73.4869Z" fill="#171717"/>
<path d="M128.671 81.3505C128.393 80.7114 128.124 80.092 127.878 79.5762C127.549 83.4488 126.648 93.5268 126.041 95.2469C125.827 95.854 125.553 96.4286 125.288 96.9844C124.63 98.3645 124.009 99.6691 124.249 101.434C124.568 103.771 123.785 106.611 123.516 107.492C124.072 108.149 124.434 108.971 124.524 109.874C125.071 115.312 126.263 128.403 125.755 134.411C128.069 135.152 136.594 133.435 142.011 132.029C146.252 130.294 149.997 128.168 150.032 127.474C149.711 125.651 134.309 91.1536 131.962 87.7511C130.577 85.7424 129.52 83.3073 128.671 81.3505Z" fill="#171717"/>
<path d="M72.5684 153.026L72.6951 158.831C73.597 158.776 75.6542 158.668 78.5054 158.614C78.7947 158.613 79.0157 158.713 79.2173 158.916C80.2268 159.933 80.2032 163.895 80.0597 169.382C80.0355 170.288 80.0105 171.278 80.002 172.173C82.3465 172.256 84.6723 172.407 86.9222 172.559C92.0652 172.906 96.9275 173.228 101.69 172.697C102.279 170.855 102.951 168.835 103.725 166.598L104.053 165.645L104.376 165.538C104.377 165.537 104.379 165.538 104.38 165.538C104.383 165.537 104.384 165.536 104.387 165.535L111.302 164.173C111.408 164.152 111.512 164.159 111.616 164.161L116.217 162.98C116.263 162.114 116.446 159.932 117.13 158.63C117.559 157.816 117.05 156.609 116.608 155.855C115.814 156.212 113.982 156.363 111.47 156.363C101.018 156.363 78.9802 153.8 72.5684 153.026Z" fill="#171717"/>
<path d="M22.8693 148.054C24.9077 149.351 28.8527 150.61 29.0017 150.638C29.3296 150.708 37.042 152.346 38.8277 152.996C40.3383 153.545 40.3656 154.518 40.4025 155.865C40.4196 156.485 40.4411 157.257 40.5925 158.215C40.7759 159.377 40.822 160.058 40.86 160.604C40.9194 161.475 40.9525 161.955 41.5387 163.616C41.9764 164.856 42.0966 165.921 42.2015 166.86C42.333 168.032 42.4283 168.878 43.0579 169.586C44.1337 170.797 46.0915 170.255 46.1113 170.249L46.4686 170.146L46.6596 170.465C46.7389 170.593 47.4952 171.725 48.9956 171.222L49.3369 171.109L49.5459 171.404C49.5497 171.41 49.9316 171.946 50.6039 172.396C51.2383 172.819 52.7189 173.023 52.7479 173.031C53.7642 173.32 54.9801 170.871 55.691 168.482C55.762 168.244 55.9574 168.067 56.2007 168.023C56.4456 167.975 56.6895 168.073 56.8405 168.27C57.4616 169.078 58.9514 171.029 59.3541 171.665C59.7275 172.258 60.2625 173.773 60.7353 175.111C60.9102 175.606 61.0663 176.047 61.1825 176.349C62.1752 178.92 63.0242 179.465 63.442 179.561C63.5581 179.588 63.9137 179.67 64.4231 179.194C64.8088 178.834 65.1805 177.343 63.3415 171.392L63.2886 171.22C63.0751 170.525 62.592 169.193 62.0813 167.782C61.4384 166.008 60.7739 164.174 60.5027 163.224C60.0159 161.522 59.6093 159.038 59.5923 158.933C59.5489 158.669 59.7282 158.42 59.9923 158.378C60.2502 158.33 60.5037 158.512 60.5471 158.778C60.5485 158.786 60.5925 159.053 60.6666 159.464L62.1295 159.249C61.5012 154.25 53.3144 148.239 52.3558 147.552C51.5342 146.964 51.281 146.447 50.9869 145.849C50.7392 145.346 50.4594 144.775 49.7458 143.919C48.9772 142.997 46.2849 141.177 43.4347 139.251C40.561 137.308 37.3034 135.107 35.2772 133.323C32.0923 130.521 31.6202 128.994 31.6489 128.296L27.9659 124.844C25.2244 122.273 18.9936 120.744 13.4953 119.394C12.9449 119.259 12.4059 119.126 11.876 118.994L9.76448 125.122C9.72007 125.302 9.05664 128.078 9.05664 131.038C9.05664 134.075 9.74501 135.177 10.6448 136.302C11.5611 137.446 20.2423 146.382 22.8693 148.054Z" fill="#171717"/>
<path d="M125.761 196.317C126.009 195.269 126.588 192.771 127.045 190.402C127.34 188.876 128.194 187.449 129.098 185.939C130.112 184.246 131.262 182.327 131.767 179.966C132.283 177.554 131.797 173.831 130.987 169.727C129.455 168.467 125.522 165.465 123.75 165.103C122.023 164.752 120.965 165.806 120.686 166.13C120.549 167.363 119.448 176.634 117.13 180.73C117.126 180.745 117.129 180.76 117.123 180.775C117.022 181.043 116.793 181.646 116.508 182.37C116.688 183.326 117.694 188.785 117.694 191.288C117.694 193.2 117.694 193.401 117.762 193.906C118.696 193.833 119.862 194.124 120.497 194.405C121.624 194.906 124.582 195.918 125.761 196.317Z" fill="#171717"/>
<path d="M9.01653 124.325L10.9354 118.756C9.86614 118.484 8.85324 118.213 7.94795 117.935C3.82666 116.674 2.32183 116.952 1.86133 117.132C2.44686 118.341 7.14583 123.238 9.01653 124.325Z" fill="#171717"/>
<path d="M28.9928 165.236C29.591 165.446 32.0127 166.029 41.3136 167.577C41.288 167.379 41.2637 167.177 41.2401 166.969C41.1407 166.081 41.0283 165.075 40.6266 163.938C39.997 162.153 39.9584 161.595 39.8949 160.671C39.859 160.143 39.8135 159.486 39.6369 158.367C39.4764 157.346 39.4535 156.539 39.4357 155.892C39.3978 154.521 39.3602 154.219 38.498 153.905C37.0406 153.375 31.1822 152.097 29.36 151.704L28.4551 162.275C28.5412 162.744 28.7325 163.785 28.9928 165.236Z" fill="#171717"/>
<path d="M35.4163 183.9C38.1431 182.2 42.9172 179.986 50.2712 179.018C53.5265 178.594 58.6593 177.954 60.7709 177.836C60.6045 177.487 60.4395 177.116 60.2779 176.697C60.1597 176.39 59.9998 175.939 59.8211 175.432C59.4119 174.272 58.8503 172.682 58.5346 172.182C58.2159 171.678 57.0995 170.203 56.4378 169.337C55.7371 171.482 54.4184 174.367 52.5956 173.981C52.5782 173.982 50.8431 173.719 50.0662 173.201C49.5576 172.862 49.1869 172.484 48.9707 172.234C47.5697 172.564 46.5421 171.86 46.0392 171.254C45.2935 171.388 43.5027 171.545 42.3334 170.229C41.8848 169.724 41.646 169.178 41.4964 168.589C33.7522 167.304 30.5421 166.664 29.1797 166.289C29.9118 170.406 31.0255 176.879 31.9242 182.983C32.0383 183.015 32.1699 183.053 32.3403 183.103C33.1103 183.326 34.3658 183.689 35.4163 183.9Z" fill="#171717"/>
<path d="M84.8729 206.811L89.4673 206.535C89.6375 206.525 89.7925 206.45 89.9039 206.324C90.0136 206.199 90.0686 206.038 90.057 205.872C89.8749 203.111 89.3843 195.669 88.933 188.79C88.5969 183.667 88.2826 178.856 88.1343 176.525C88.1162 176.239 87.9878 175.981 87.7743 175.797C87.5608 175.613 87.2806 175.525 87.0002 175.551C85.1264 175.716 82.3596 175.874 79.8156 175.716C78.9913 175.665 78.9496 174.708 79.0907 169.357C79.1699 166.323 79.3356 160.01 78.5055 159.578C74.6684 159.656 72.2805 159.828 72.2566 159.83L71.749 159.867L70.7279 113.088C70.6862 112.157 69.9254 111.42 68.9733 111.436C66.1078 111.463 63.5481 111.518 61.3508 111.597C61.347 111.597 61.3433 111.599 61.3395 111.599C61.3385 111.599 61.3374 111.598 61.3364 111.598C56.6105 111.769 53.5738 112.055 52.8561 112.417C52.8626 112.657 53.7703 113.528 54.571 114.298C57.2018 116.825 61.6046 121.054 63.0575 128.021C65.3009 138.775 67.5177 159.263 67.5395 159.468L67.5952 159.987L62.7173 160.142L60.8472 160.416C61.0061 161.223 61.2131 162.184 61.4335 162.957C61.6962 163.875 62.3551 165.694 62.9912 167.452C63.5064 168.874 63.9932 170.217 64.2135 170.934L64.2665 171.105C65.8519 176.237 66.1044 178.949 65.0843 179.901C64.6259 180.33 64.1268 180.55 63.6218 180.55C63.4903 180.55 63.3581 180.535 63.2259 180.505C62.5276 180.344 61.8813 179.77 61.2722 178.773C60.1623 178.783 55.1265 179.361 50.3985 179.978C41.6691 181.126 36.6938 184.05 34.5043 185.692C34.0138 186.059 33.816 186.696 34.0128 187.275L37.5202 197.609C37.7415 198.262 38.4285 198.62 39.0885 198.425C44.6265 196.788 58.1874 193.451 64.5412 197.835C64.9675 198.129 65.2418 198.632 65.2746 199.18L67.5587 236.832C67.5604 236.862 67.5501 236.889 67.5467 236.918C67.5467 236.918 68.4547 251.292 68.4622 251.31C68.536 251.489 68.6949 251.616 68.9029 251.599L70.9608 251.562C70.9694 251.562 70.979 251.562 70.9882 251.562C71.7455 251.562 72.3714 252.148 72.4175 252.908L74.2031 281.961C74.2089 282.046 74.2807 282.114 74.3668 282.114H76.6536C76.7113 282.114 76.7499 282.086 76.7718 282.063C76.7899 282.045 76.8199 282.004 76.8172 281.943L75.4692 248.853C75.4542 248.461 75.6014 248.075 75.8747 247.795C76.148 247.514 76.5391 247.366 76.9194 247.361L82.3617 247.424L82.4515 247.333L82.2387 239.047C82.2377 238.998 82.1991 238.96 82.1499 238.96H79.9785L79.3992 216.27C79.3858 215.74 79.5826 215.242 79.9539 214.866C80.3256 214.491 80.8087 214.324 81.3484 214.292L82.5926 214.305C82.7931 214.323 82.9387 214.239 83.0644 214.109C83.1891 213.981 83.2543 213.812 83.2468 213.633L83.0623 208.809C83.0217 207.77 83.8337 206.874 84.8729 206.811Z" fill="#171717"/>
<path d="M96.2091 173.952C93.1643 173.952 90.0644 173.742 86.8559 173.525C84.6245 173.374 82.3189 173.225 80 173.143C80.0072 173.879 80.0355 174.475 80.1025 174.762C82.5273 174.897 85.1328 174.741 86.9157 174.586C87.4688 174.536 87.9915 174.707 88.4045 175.061C88.8185 175.417 89.0652 175.913 89.1011 176.461C89.2452 178.724 89.5455 183.322 89.87 188.274C90.4709 188.254 91.0459 188.237 91.5853 188.222C93.8929 188.16 95.7483 188.105 98.0767 187.778C98.1826 185.378 99.0189 181.178 101.373 173.691C99.6629 173.865 97.9452 173.952 96.2091 173.952Z" fill="#171717"/>
<path d="M65.5847 82.4818C65.46 82.1224 65.3381 81.7736 65.2284 81.4457C64.4434 79.1185 60.7935 70.1825 57.4863 69.2837L63.8859 94.655L66.6482 86.5306C66.8193 86.0288 66.0463 83.8079 65.5847 82.4818Z" fill="#171717"/>
<path d="M61.7007 110.614C63.3921 110.557 65.1593 110.518 66.8852 110.493L54.0031 59.4209L48.0664 62.9006C48.818 65.774 57.1521 94.8081 61.7007 110.614Z" fill="#171717"/>
<path d="M66.5215 159.053C66.4091 158.036 66.1358 155.605 65.7515 152.446L58.5977 151.633C60.7816 153.881 62.8033 156.592 63.1183 159.161L66.5215 159.053Z" fill="#171717"/>
<path d="M35.916 132.598C37.8964 134.34 41.1267 136.523 43.9761 138.449C47.0118 140.501 49.633 142.272 50.4888 143.299C51.2772 144.244 51.5976 144.897 51.8556 145.422C52.1295 145.98 52.2963 146.318 52.919 146.765C53.6238 147.27 55.515 148.673 57.4827 150.531L65.6286 151.457C64.7722 144.501 63.4446 134.62 62.1096 128.219C60.7171 121.544 56.4497 117.445 53.9002 114.996C53.8564 114.954 53.8189 114.917 53.7765 114.876C52.8125 116.009 50.1622 118.935 48.383 119.083C48.3205 119.089 44.4824 119.341 41.4034 119.341C40.0878 119.341 38.9236 119.293 38.2397 119.162L32.6074 128.331C32.6095 128.4 32.5425 129.629 35.916 132.598Z" fill="#171717"/>
<path d="M150.99 127.334C150.717 125.557 135.208 90.7528 132.759 87.201C131.428 85.2705 130.392 82.8826 129.559 80.9644C128.873 79.3834 128.374 78.237 127.893 77.7303C127.89 77.7262 127.886 77.7228 127.883 77.7187C127.877 77.7119 127.87 77.702 127.863 77.6952C126.869 76.7017 115.161 69.9753 113.015 69.345C112.031 69.0546 108.548 65.9086 105.75 63.3807C103.004 60.9002 101.4 59.4773 100.46 58.8382C101.475 58.1406 103.383 56.5616 103.561 53.6237C103.692 51.4626 104.211 50.6116 104.713 49.7894C105.101 49.154 105.502 48.497 105.616 47.3502C105.69 46.6137 105.936 46.5409 106.427 46.3974C107.339 46.1289 108.139 45.6968 107.916 43.3837C107.764 41.8286 107.388 40.1817 107.056 38.7288C106.627 36.854 106.182 34.9153 106.536 34.2081C106.729 33.8225 106.934 33.6561 107.171 33.4641C107.859 32.9062 108.359 32.3166 108.522 29.7876L108.735 26.4845C109.311 26.4534 110.248 26.3133 110.744 25.7548C111.023 25.4409 111.132 25.0401 111.057 24.595C111.042 24.5035 111.03 24.3227 111.012 24.0655C109.92 9.06333 100.966 0.832031 85.7721 0.832031C85.5699 0.832031 85.3666 0.834081 85.1623 0.836814C59.5915 1.20166 58.0771 27.5326 58.0648 27.7905C57.9616 29.4183 57.5117 37.6192 58.7815 39.1421C59.3401 39.8134 59.8395 39.99 60.1692 40.1065C60.4548 40.2077 60.5398 40.2381 60.4848 41.3487C60.3403 44.2302 60.6919 49.1799 64.6615 49.9551C67.2735 50.4654 68.2379 51.2105 68.5317 51.5053L66.8413 56.3645C65.274 55.8692 60.1302 54.7053 54.0679 58.2591L47.0913 62.3517C46.0142 62.8501 38.2222 66.473 34.3951 68.6552C34.3934 68.6559 34.3848 68.6593 34.3838 68.66C34.3801 68.6617 34.378 68.6652 34.3746 68.6669C33.4283 69.207 23.8661 78.0467 19.4865 85.2459C19.465 85.2726 19.4493 85.3023 19.4339 85.3337C18.5901 86.7269 17.7928 88.1787 17.0887 89.6921C14.2905 95.7083 9.19492 103.463 5.47504 109.125C2.10532 114.253 0.993348 116.009 0.845427 116.799C0.83552 116.835 0.833814 117.074 0.838255 117.096C1.09549 118.381 6.48486 124.081 8.73749 125.271C8.53799 126.183 8.08911 128.519 8.08911 131.038C8.08911 134.384 8.90386 135.676 9.88909 136.907C10.8354 138.089 19.575 147.105 22.3496 148.871C24.5684 150.283 27.3929 151.347 28.3877 151.7L27.8053 158.504C27.0848 154.737 26.3947 152.724 25.7474 152.508C24.7075 152.164 20.1168 152.707 19.6488 154.104C19.3027 155.143 19.6782 158.572 20.7577 167.385C21.6643 174.794 26.1699 197.53 26.7948 198.555C27.6871 200.023 29.128 200.769 30.6404 200.531C31.3871 200.418 32.0396 200.08 32.5029 199.597C32.5179 201.57 32.3563 205.042 32.0584 206.43C31.7797 207.732 31.7332 212.017 31.7448 212.51C31.7421 212.521 31.7414 212.535 31.739 212.546C31.6673 212.834 31.0715 213.519 30.4419 214.242C28.811 216.115 26.0828 219.251 25.2804 223.379C24.7433 226.142 25.0611 228.489 25.3039 229.344C25.6869 230.693 25.6886 231.339 25.4949 232.723C24.4608 240.117 22.4063 257.877 25.7142 263.157C26.1672 263.677 27.4537 264.352 29.2131 263.447C29.2008 263.475 29.1875 263.503 29.1752 263.532C28.6204 264.758 27.6919 266.811 27.6919 269.131C27.6919 273.326 26.5526 278.802 25.2831 284.515C24.6631 287.306 24.6289 290.203 24.592 293.271C24.5524 296.665 24.5107 300.176 23.6703 303.873C22.8091 307.662 22.7213 312.928 22.6369 318.021C22.5642 322.41 22.4951 326.556 21.8987 328.867C21.3654 330.933 20.0751 333.205 18.8262 335.401C17.0754 338.483 15.4209 341.395 15.9258 343.615C16.2244 344.93 16.5414 345.907 16.8202 346.769C17.2872 348.209 17.6247 349.25 17.5284 350.902C17.4026 353.036 18.6458 354.348 19.5542 354.897C19.3027 355.852 18.3271 358.608 15.2501 359.84C11.1493 361.479 9.6216 365.438 9.6216 367.549C9.6216 368.208 9.35787 369.07 9.10268 369.904C8.68215 371.276 8.28485 372.573 8.92778 373.344C9.90071 374.512 13.6083 376.612 18.0968 376.612C18.3985 376.612 18.7039 376.602 19.011 376.582C20.5746 376.481 22.5201 376.476 24.4014 376.471C29.7491 376.455 33.0655 376.368 34.0231 375.291C34.9769 374.218 36.357 374.269 37.4679 374.31C37.7884 374.323 47.3913 374.249 47.848 372.169C48.0127 371.42 47.7309 370.516 47.433 369.557C47.174 368.727 46.9065 367.868 47.0387 367.342C47.3062 366.27 45.4618 358.044 45.2746 356.363C45.2066 355.747 46.0924 354.347 46.8741 353.113C47.67 351.856 48.4927 350.556 48.8083 349.45C49.456 347.186 49.646 344.508 49.3047 342.461C49.0891 341.165 51.4015 338.222 52.0445 337.845C53.6299 336.919 55.8002 335.65 57.207 329.089C57.6098 327.206 58.0908 325.035 58.5957 322.754C60.5678 313.849 62.8024 303.755 62.5376 301.504C62.3835 300.191 61.7379 284.684 61.5678 283.578C61.2275 281.368 60.2887 274.405 60.4418 272.724C60.5108 271.962 60.9088 269.694 61.37 267.067C61.976 263.612 64.1285 251.284 64.586 249.768C65.1059 248.046 65.4813 246.802 65.2316 245.333C64.9716 243.802 65.9511 240.892 66.7037 238.965C66.7037 238.965 67.5488 256.522 68.5293 259.464C69.4615 262.261 69.864 265.064 69.5551 266.606C69.2224 268.271 69.1524 277.349 69.661 279.044C69.8387 279.639 70.2094 280.491 70.6015 281.393C71.2783 282.951 72.1217 284.892 72.0988 285.831C72.0818 286.56 71.5731 288.576 70.9852 290.911C70.3262 293.523 69.5804 296.483 69.1626 298.993C68.7428 301.514 68.795 302.916 68.8364 304.042C68.8743 305.07 64.6495 319.138 64.2751 321.753C63.8952 324.411 64.7516 325.544 65.508 326.544C65.6802 326.772 66.2349 327.748 66.0402 328.094C65.8332 328.464 66.321 335.177 65.6754 336.253C64.7065 337.869 63.6882 341.285 64.3 342.961C64.6744 343.987 65.4222 346.716 64.298 349.894C64.091 350.48 63.8696 351.084 63.6486 351.689C62.6644 354.381 61.7341 356.924 61.7341 358.445C61.7341 359.165 61.4127 359.823 61.1025 360.459C60.7103 361.261 60.3055 362.09 60.6365 362.971C61.0799 364.154 61.0799 364.837 60.6365 366.019C60.3017 366.911 60.3991 367.873 60.8965 368.591C61.3618 369.262 62.4081 370.061 64.7544 370.061C66.2527 370.061 67.7596 369.862 69.2166 369.668C71.444 369.375 73.55 369.094 75.3254 369.561C75.68 369.655 76.0882 369.766 76.5402 369.889C80.1012 370.858 86.0618 372.481 91.2592 372.481C96.021 372.481 109.022 370.77 109.48 368.714C109.815 367.203 109.502 364.017 109.486 363.866C109.459 363.656 108.759 358.705 105.274 357.659C104.359 357.384 95.7901 355.235 95.1963 354.444C94.4865 353.498 93.0732 349.367 92.4682 347.484C93.0998 346.943 99.1649 334.7 99.1649 333.115C99.1649 332.512 97.725 324.892 98.0297 322.861C98.2453 321.424 100.256 316.223 100.611 313.825C100.859 312.157 105.021 288.727 105.191 288.403C105.422 287.966 105.683 287.47 105.938 285.087C106.206 282.591 106.229 280.297 106.249 278.454C106.265 276.926 106.278 275.607 106.42 274.617C106.74 272.374 109.816 263.438 111.301 261.805C111.594 261.483 111.92 261.183 112.264 260.865C113.85 259.404 115.824 257.584 116.903 252.053C118.14 245.712 119.837 237.026 119.164 233.32C118.654 230.52 117.449 224.57 117.224 222.354C116.927 219.418 116.62 216.382 116.238 215.333C116.13 215.037 117.786 194.943 117.764 194.939C117.955 194.73 118.962 194.783 120.103 195.289C121.325 195.831 124.486 196.909 125.581 197.278C125.486 198.051 125.258 199.839 124.987 201.378C124.47 204.307 124.04 207.197 124.392 208.487C124.623 209.337 125.311 209.967 126.143 210.094C126.948 210.215 127.7 209.843 128.171 209.103C129.054 207.715 130.049 203.709 130.18 202.504C130.181 202.497 130.182 202.488 130.183 202.48V207.391C130.183 209.552 129.745 210.572 129.375 211.435C129.271 211.678 128.961 212.096 128.633 212.538C127.895 213.529 127.06 214.653 127.161 215.552C127.282 216.651 129.824 217.871 132.303 217.034L132.485 216.96C134.397 216.173 134.975 215.935 136.912 214.266L138.723 212.705C139.447 212.661 141.527 212.466 142.171 211.694C142.619 211.156 144.824 208.011 144.824 207.027C144.824 206.774 144.948 205.991 145.068 205.234C145.325 203.607 145.501 202.414 145.424 201.877C145.306 201.05 144.228 189.314 144.219 189.236C144.218 189.111 144.14 176.644 145.43 171.077C146.658 165.778 147.055 155.816 146.396 146.852C145.879 139.82 143.565 134.345 142.82 132.74C146.187 131.341 151.24 128.953 150.99 127.334ZM143.253 189.285C143.298 189.771 144.345 201.166 144.466 202.015C144.528 202.449 144.287 203.972 144.111 205.085C143.953 206.085 143.856 206.715 143.856 207.027C143.834 207.541 142.173 210.181 141.428 211.075C141.138 211.422 139.688 211.694 138.51 211.749L138.343 211.756L136.28 213.533C134.461 215.101 134.011 215.286 132.116 216.066L131.934 216.141C130.237 216.837 128.197 216.12 128.123 215.445C128.065 214.925 128.873 213.837 129.409 213.115C129.788 212.606 130.115 212.164 130.283 211.774C130.648 210.92 131.15 209.751 131.15 207.391V198.842L130.284 199.955C130.246 200.003 129.351 201.166 129.217 202.401C129.1 203.476 128.138 207.352 127.354 208.584C127.086 209.005 126.702 209.197 126.287 209.137C125.834 209.069 125.457 208.713 125.325 208.232C124.982 206.974 125.653 203.171 125.94 201.547C126.279 199.622 126.552 197.322 126.586 197.031C126.653 196.751 127.419 193.567 127.996 190.584C128.258 189.225 129.032 187.933 129.928 186.437C130.981 184.678 132.174 182.685 132.713 180.167C133.539 176.302 132 169.531 130.511 162.983C130.213 161.673 129.918 160.376 129.646 159.119C128.473 153.694 128.333 150.515 128.198 147.441C128.148 146.303 128.101 145.227 128.002 144.052C127.685 140.24 126.037 138.272 125.478 137.707C125.528 136.992 125.593 136.211 125.67 135.383C126.145 135.493 126.731 135.547 127.421 135.547C131.811 135.547 139.802 133.589 141.897 133.057C142.544 134.452 144.919 139.971 145.43 146.925C146.083 155.802 145.694 165.644 144.486 170.859C143.172 176.538 143.248 188.729 143.253 189.285ZM112.971 258.788C112.95 257.266 112.948 254.425 113.131 251.305C113.233 249.579 113.168 247.979 113.099 246.287C112.98 243.366 112.846 240.055 113.54 235.111C114.063 231.385 113.74 227.756 113.298 224.697C114.415 225.494 115.947 225.851 116.644 225.98C116.738 226.724 117.708 230.729 118.211 233.494C118.852 237.02 117.108 245.955 115.952 251.868C115.232 255.563 114.098 257.491 112.971 258.788ZM115.171 214.718C115.195 215.095 115.241 215.424 115.329 215.665C115.669 216.601 115.984 219.71 116.262 222.453C116.351 223.335 116.438 224.195 116.525 224.972C115.247 224.7 113.201 224.003 112.99 222.721C112.99 222.719 112.988 222.718 112.988 222.716C112.94 222.429 112.893 222.136 112.847 221.865C112.538 220.019 112.27 218.422 112.454 217.862C112.788 216.836 114.169 215.537 115.171 214.718ZM115.17 213.489C114.436 214.039 112.072 215.91 111.533 217.561C111.277 218.348 111.522 219.811 111.892 222.024C112.468 225.459 113.256 230.165 112.581 234.977C111.875 240.007 112.011 243.364 112.131 246.326C112.199 247.994 112.263 249.57 112.165 251.248C111.927 255.286 111.999 258.871 112.022 259.769C111.882 259.901 111.743 260.03 111.608 260.155C111.242 260.492 110.896 260.813 110.585 261.156C108.84 263.075 105.77 272.32 105.462 274.481C105.311 275.535 105.297 276.884 105.281 278.444C105.261 280.361 105.238 282.535 104.976 284.984C104.74 287.183 104.515 287.609 104.335 287.952C104.082 288.431 99.9048 311.992 99.6541 313.684C99.3139 315.975 97.3031 321.176 97.0725 322.718C96.7435 324.91 98.1964 332.603 98.1964 333.115C98.1964 334.503 91.8276 346.769 91.6538 346.897C90.1322 347.764 84.0305 345.936 79.5741 344.6C77.0151 343.831 74.5988 343.106 73.0502 342.848C69.685 342.29 66.9568 343.528 65.6863 344.471C65.5476 343.668 65.3539 343.028 65.2087 342.63C64.7626 341.406 65.5613 338.323 66.5048 336.752C67.3281 335.379 66.6996 328.898 66.884 328.568C67.1761 328.047 66.469 326.211 66.28 325.961C65.5756 325.029 64.9102 324.149 65.2337 321.89C65.5958 319.356 69.8442 305.088 69.8035 304.006C69.7639 302.923 69.7136 301.577 70.1174 299.152C70.5294 296.68 71.2697 293.741 71.9229 291.148C72.5505 288.658 73.0468 286.691 73.0667 285.853C73.094 284.701 72.2413 282.738 71.4887 281.006C71.1088 280.131 70.7494 279.305 70.5868 278.766C70.1284 277.237 70.2097 268.269 70.5035 266.796C70.8485 265.075 70.444 262.148 69.4475 259.158C68.8084 257.241 68.5675 254.234 68.478 252.505C68.6102 252.545 68.7496 252.567 68.8934 252.567C68.902 252.567 68.9105 252.567 68.918 252.567L70.978 252.53C71.2475 252.55 71.4354 252.717 71.4508 252.967L73.2364 282.021C73.2743 282.616 73.7707 283.082 74.3661 283.082H76.653C76.9638 283.082 77.2532 282.959 77.4687 282.735C77.6843 282.51 77.796 282.216 77.7844 281.904L76.4364 248.815C76.4305 248.685 76.478 248.562 76.5679 248.47C76.6588 248.377 76.7974 248.367 76.9071 248.329L82.3494 248.392C82.6603 248.432 82.9148 248.28 83.1153 248.077C83.3186 247.87 83.4262 247.598 83.4187 247.308L83.2059 239.023C83.1915 238.445 82.7276 237.992 82.1489 237.992H80.9208L80.366 216.245C80.3595 215.982 80.4576 215.733 80.642 215.546C80.8234 215.361 81.0656 215.26 81.3246 215.26C81.3283 215.26 81.3321 215.26 81.3369 215.26L82.5821 215.273C82.5879 215.273 82.5934 215.273 82.5992 215.273C83.0399 215.273 83.4501 215.101 83.7572 214.784C84.0681 214.464 84.2307 214.043 84.214 213.596L84.0295 208.771C84.0097 208.254 84.4142 207.808 84.9314 207.777L89.5258 207.501C89.9542 207.475 90.3464 207.284 90.6299 206.963C90.9118 206.643 91.0515 206.233 91.0231 205.807C90.8455 203.115 90.3747 195.972 89.9327 189.24C90.5203 189.221 91.0833 189.205 91.6111 189.191C93.9043 189.127 95.7576 189.074 98.0734 188.755C98.136 189.978 98.4526 190.543 98.8089 190.856C98.9326 190.964 99.1823 191.136 99.5257 191.136C99.5509 191.136 105.741 190.81 107.496 189.256C107.509 189.256 107.517 189.257 107.532 189.257C108.544 189.257 112.498 189.096 114.553 186.678C114.826 186.356 115.331 185.24 115.826 184.053C116.18 186.094 116.725 189.523 116.725 191.287C116.726 193.413 115.245 212.009 115.17 213.489ZM104.996 358.586C107.881 359.452 108.521 363.95 108.526 363.98C108.529 364.011 108.836 367.146 108.546 368.472C107.923 369.519 97.4841 371.514 91.2592 371.514C86.1913 371.514 80.3083 369.912 76.7944 368.956C76.3397 368.832 75.9294 368.72 75.5711 368.626C73.6112 368.112 71.4153 368.403 69.0888 368.709C67.6633 368.898 66.1895 369.094 64.7544 369.094C63.2287 369.094 62.1697 368.73 61.6924 368.04C61.2227 367.363 61.4588 366.583 61.5421 366.36C62.0648 364.967 62.0648 364.026 61.5421 362.632C61.3672 362.165 61.5913 361.663 61.9722 360.885C62.3145 360.184 62.7019 359.39 62.7019 358.445C62.7019 357.097 63.6455 354.517 64.5576 352.023C64.7797 351.414 65.0021 350.807 65.2108 350.218C65.8137 348.512 65.92 346.926 65.8267 345.618C65.827 345.617 65.8277 345.617 65.8281 345.616C66.125 345.258 68.8494 343.131 72.8917 343.803C74.3788 344.05 76.7677 344.768 79.2964 345.526C84.1754 346.99 88.0483 348.085 90.3939 348.085C90.8598 348.084 91.2575 348.036 91.5984 347.944C92.0975 349.488 93.5613 353.879 94.4212 355.025C95.1663 356.018 104.103 358.319 104.996 358.586ZM60.4162 266.9C59.9321 269.657 59.5502 271.835 59.4774 272.638C59.3008 274.577 60.3895 282.288 60.6109 283.726C60.7725 284.779 61.4174 300.268 61.576 301.617C61.8219 303.707 59.5095 314.152 57.6508 322.546C57.1452 324.829 56.6638 327.002 56.2593 328.887C54.9434 335.031 53.0649 336.128 51.5563 337.011C50.8604 337.417 48.0868 341.042 48.3495 342.62C48.6683 344.536 48.4875 347.05 47.8778 349.184C47.5997 350.157 46.8153 351.397 46.0559 352.595C45.3525 353.706 44.7246 354.707 44.4516 355.536C33.9202 347.396 25.1755 348.902 22.7076 349.574C20.731 350.114 19.9952 352.573 19.7438 353.84C19.1801 353.397 18.4032 352.504 18.4941 350.959C18.6017 349.125 18.2218 347.953 17.7405 346.471C17.4672 345.628 17.158 344.673 16.869 343.402C16.4475 341.546 18.0121 338.794 19.6683 335.88C20.9473 333.629 22.27 331.3 22.8361 329.109C23.4609 326.687 23.5309 322.485 23.6047 318.037C23.6881 312.994 23.7749 307.779 24.6135 304.089C25.4775 300.29 25.5192 296.727 25.5598 293.282C25.5957 290.267 25.6298 287.417 26.228 284.725C27.5091 278.958 28.6593 273.424 28.6593 269.132C28.6593 267.021 29.5339 265.087 30.0565 263.93C30.3155 263.358 30.4935 262.964 30.4989 262.668C34.6626 255.484 33.6367 242.729 32.9511 234.262C32.7119 231.307 32.5227 228.974 32.6183 227.651C32.9285 223.338 32.7762 215.247 32.7143 212.57C32.8277 211.955 32.7499 207.825 33.005 206.633C33.0805 206.278 33.8587 200.014 33.3152 198.091C33.3163 198.084 33.3207 198.078 33.3217 198.071C33.6049 195.924 32.9722 190.256 32.0765 184.034C32.6457 184.2 33.4751 184.439 34.3022 184.642C34.1696 184.736 34.0398 184.83 33.923 184.918C33.0959 185.537 32.7632 186.61 33.0949 187.588L36.6023 197.922C36.9917 199.069 38.2017 199.697 39.3626 199.355C43.5768 198.107 57.811 194.37 63.9898 198.633C64.1733 198.76 64.2925 198.986 64.3075 199.24L66.5824 236.741C66.2657 237.441 63.8382 242.919 64.2765 245.497C64.4883 246.741 64.1583 247.834 63.6591 249.489C63.1925 251.038 61.0202 263.454 60.4162 266.9ZM46.5082 369.847C46.7559 370.641 47.0121 371.464 46.9024 371.962C46.7986 372.434 37.8157 373.356 37.5038 373.344C36.3286 373.299 34.5563 373.235 33.2988 374.649C32.5596 375.481 28.0342 375.493 24.3983 375.504C22.502 375.51 20.5421 375.514 18.9485 375.617C14.3086 375.915 10.4838 373.699 9.67079 372.724C9.36436 372.356 9.73229 371.154 10.0281 370.187C10.3042 369.286 10.5897 368.353 10.5897 367.549C10.5897 366.304 11.5125 362.377 15.6095 360.738C19.8493 359.043 20.5585 354.894 20.5869 354.718L20.6463 354.346L20.6381 354.343C20.8216 353.166 21.4652 350.917 22.9632 350.509C25.3552 349.856 33.9418 348.386 44.3352 356.674C44.4926 358.045 45.2415 362.878 45.3388 363.177C45.6576 364.164 46.322 366.216 46.0989 367.109C45.9011 367.897 46.2103 368.888 46.5082 369.847ZM26.4883 262.582C26.4883 262.582 26.4883 262.582 26.4883 262.583C23.3082 257.495 25.6575 238.545 26.4535 232.858C26.6615 231.369 26.6595 230.575 26.2352 229.08C26.0138 228.302 25.7286 226.147 26.2314 223.565C26.984 219.691 29.5041 216.795 31.1719 214.879C31.3981 214.619 31.5983 214.387 31.78 214.171C31.8449 217.645 31.9139 223.965 31.6533 227.581C31.5532 228.98 31.7448 231.345 31.987 234.34C32.66 242.659 33.6657 255.173 29.703 262.108C29.4737 262.169 29.2445 262.309 29.0518 262.428C27.3779 263.458 26.5006 262.582 26.4883 262.582ZM30.4959 199.575C29.3767 199.745 28.3044 199.175 27.6314 198.07C27.1531 197.052 22.7052 175.323 21.7183 167.267C20.9346 160.867 20.2579 155.34 20.566 154.415C20.8421 153.848 24.4854 153.109 25.3733 153.39C25.8874 153.859 32.865 193.271 32.3737 197.809C32.3146 197.91 32.262 198.03 32.2234 198.186C32.0482 198.887 31.354 199.444 30.4959 199.575ZM30.5215 73.1243C30.8583 73.0491 32.4127 73.2623 33.9677 74.1167C34.9027 74.6308 36.0861 75.5272 36.4182 76.8742C36.7253 78.1259 34.0603 82.1246 30.0815 86.3815C25.8266 90.9325 22.3117 93.4479 21.321 93.3044C21.0183 93.2504 20.7727 93.0813 20.5705 92.7865C19.5453 91.2926 20.0222 87.298 20.3143 85.7474C23.6666 80.2371 27.8411 75.7674 30.5215 73.1243ZM19.0499 87.954C18.9003 89.7598 18.9167 92.0865 19.7714 93.3334C20.124 93.8475 20.5893 94.1577 21.1543 94.2571C21.226 94.2705 21.3019 94.2759 21.3811 94.2759C23.9504 94.2759 30.0784 87.8023 30.7893 87.0422C31.9956 85.7519 37.9814 79.1843 37.3576 76.6433C36.8018 74.3811 34.5198 73.2042 33.2093 72.7031C32.7741 72.5371 32.0963 72.3259 31.4555 72.2166C31.8145 71.8723 33.9664 70.0094 34.8026 69.5332C34.8634 69.5045 36.4294 68.8107 37.9237 69.5493C39.1385 70.1526 39.9874 71.5457 40.4469 73.689C41.8878 80.4127 40.7007 110.843 37.579 118.389L32.0663 127.361L28.6272 124.137C25.7006 121.393 19.3393 119.832 13.7258 118.454C11.7103 117.959 9.80745 117.492 8.23054 117.009C5.05895 116.039 3.2494 115.912 2.21395 116.054C2.97576 114.69 4.65037 112.142 6.28296 109.656C10.0199 103.97 15.1381 96.1812 17.9656 90.1007C18.3059 89.3703 18.6724 88.6577 19.0499 87.954ZM60.4927 39.1944C60.2215 39.0981 59.914 38.9891 59.5245 38.5221C58.7333 37.5731 58.8023 31.4725 59.0309 27.8435C59.0432 27.5862 60.5057 2.15751 85.1757 1.80462C85.3731 1.80189 85.5678 1.80086 85.7636 1.80086C100.38 1.80086 108.996 9.71445 110.046 24.1355C110.068 24.4362 110.084 24.6469 110.103 24.7539C110.136 24.9513 110.08 25.0449 110.021 25.1112C109.709 25.4631 108.741 25.5351 108.314 25.5225C106.059 25.3179 86.6094 23.5835 84.7472 24.3333C83.5629 24.8068 81.6286 25.0699 80.5802 25.1843C80.2126 25.225 79.8853 25.4255 79.6841 25.7353C79.4829 26.0455 79.4317 26.4264 79.5441 26.779L87.3839 51.2266C87.4549 51.3967 88.2007 52.9254 92.5256 54.2847C94.0523 54.765 95.2322 54.9239 96.1812 54.9239C97.2703 54.9239 98.055 54.7148 98.7109 54.5399C99.127 54.4292 99.486 54.3339 99.8471 54.3056C100.842 54.2294 101.882 54.1587 102.513 54.1166C102.122 56.5944 100.291 57.802 99.5636 58.2704C99.4519 58.3421 99.3531 58.4125 99.2667 58.4873C98.7461 58.6018 96.8009 58.9154 92.6055 58.4245C87.733 57.8581 85.4992 53.6438 85.4776 53.6011L85.3311 53.3186L85.0144 53.3405C80.1525 53.6743 75.0446 50.7702 73.0776 49.5051C72.3913 49.0645 71.5177 49.0826 70.8533 49.5543L69.1544 50.7657C68.6447 50.2837 67.4648 49.5171 64.8466 49.005C61.5937 48.3696 61.3232 43.9661 61.4509 41.3979C61.5298 39.8428 61.2678 39.4684 60.4927 39.1944ZM106.561 32.7122C106.292 32.9305 105.956 33.2028 105.67 33.7757C105.161 34.793 105.581 36.6258 106.112 38.9457C106.439 40.3696 106.808 41.9841 106.952 43.4769C107.117 45.1861 106.734 45.2988 106.154 45.4689C106.036 45.5038 105.904 45.5448 105.769 45.5984C105.642 43.5412 105.333 38.6834 105.174 37.4279C105.067 36.5762 104.888 36.0836 104.744 35.6884C104.615 35.3321 104.53 35.0967 104.53 34.7052C104.53 34.5293 104.534 34.4271 104.539 34.3687C104.658 34.3018 104.837 34.189 105.059 33.9338C105.449 33.4867 105.461 32.8881 105.477 32.0583C105.49 31.3816 105.506 30.5392 105.729 29.4805C105.972 28.3282 105.817 27.1582 105.533 26.2512C106.306 26.3171 107.054 26.3824 107.767 26.4462L107.556 29.7261C107.407 32.0266 107.015 32.3443 106.561 32.7122ZM80.4671 26.4842C80.434 26.381 80.4709 26.3017 80.4965 26.2628C80.5211 26.2249 80.5788 26.1579 80.6864 26.1466C82.0259 26.0001 83.8809 25.723 85.107 25.2314C86.1773 24.8075 96.3636 25.4859 104.465 26.1606C104.79 26.9638 105.026 28.1263 104.782 29.2813C104.541 30.4288 104.523 31.3591 104.509 32.0389C104.498 32.6411 104.488 33.1157 104.33 33.2981C104.194 33.4532 104.112 33.4986 104.033 33.542C103.606 33.7774 103.562 34.077 103.562 34.7049C103.562 35.2675 103.694 35.6324 103.835 36.018C103.968 36.3867 104.121 36.8045 104.214 37.5485C104.396 38.9836 104.795 45.5178 104.853 46.4623C104.759 46.6745 104.687 46.931 104.654 47.2546C104.56 48.1821 104.264 48.6689 103.887 49.2862C103.384 50.1101 102.823 51.0523 102.633 53.1389C102.038 53.1782 100.882 53.2561 99.774 53.3419C99.3231 53.376 98.9053 53.4874 98.4619 53.6056C97.2867 53.9165 95.8235 54.3062 92.8173 53.3627C89.0065 52.165 88.2994 50.8925 88.2919 50.8925C88.2919 50.8925 88.2919 50.8925 88.2929 50.8935L80.4671 26.4842ZM123.29 101.565C123.54 103.393 123.023 105.652 122.716 106.768C122.32 106.486 121.878 106.261 121.39 106.121L117.962 105.135C117.161 104.904 116.546 104.288 116.319 103.489C115.031 98.9425 111.277 85.6877 110.472 82.8082C110.388 82.5055 110.366 82.1936 110.408 81.8807L112.008 69.9042C112.293 70.0784 112.549 70.2168 112.743 70.2735C114.658 70.8368 125.369 76.9511 127.018 78.2441C126.593 83.4753 125.678 93.3683 125.128 94.9254C124.931 95.4832 124.68 96.0097 124.414 96.5685C123.724 98.016 123.011 99.5133 123.29 101.565ZM69.4824 51.7209L71.4152 50.3428C71.7538 50.1016 72.2027 50.0941 72.5546 50.3202C74.5626 51.6105 79.7033 54.545 84.7749 54.3237C85.3905 55.3523 87.802 58.8405 92.4948 59.3868C94.0584 59.5679 95.3094 59.6389 96.3189 59.6529C95.9001 61.6647 93.7813 68.4776 84.379 67.3786C74.606 66.2359 72.8869 64.5486 72.683 64.2996C72.6827 64.2989 72.6823 64.2986 72.682 64.2979C71.9943 60.55 68.7021 57.6244 67.7101 56.8168L69.4824 51.7209ZM84.2652 68.3413C84.9922 68.4253 85.6785 68.466 86.3269 68.466C94.937 68.466 96.9297 61.4471 97.298 59.6495C98.5503 59.6157 99.2568 59.4859 99.5513 59.4151C99.7306 59.4917 100.044 59.711 100.45 60.0311C99.84 62.3408 96.1696 76.2733 95.9421 78.2096C95.9127 78.4573 95.8902 78.6852 95.8741 78.8959C95.8003 79.8186 94.9883 80.5097 94.0922 80.4862L79.46 79.986C78.7833 79.9625 78.195 79.5587 77.9238 78.9318C77.7478 78.5236 77.6184 78.0696 77.5278 77.5042C77.2525 75.5816 76.3509 70.9297 73.7133 66.0644C75.391 66.7985 78.498 67.6663 84.2652 68.3413ZM66.9018 57.4102C67.3715 57.7771 71.0374 60.7499 71.7446 64.5422C71.7459 64.551 71.7487 64.5589 71.7504 64.5678C71.7545 64.5896 71.7613 64.6108 71.7651 64.633C71.7821 64.6815 71.8167 64.7553 71.885 64.8496C75.308 70.3018 76.3356 76.0123 76.5693 77.6419L76.5843 77.7392C76.6758 78.3036 76.8272 78.8338 77.0352 79.3161C77.4503 80.2747 78.388 80.9176 79.4269 80.9545L94.0601 81.4547C94.0912 81.4557 94.1216 81.4557 94.1527 81.4557C95.5557 81.4557 96.7268 80.3816 96.8385 78.9721C96.8546 78.7726 96.8754 78.5581 96.9027 78.3237C97.1094 76.5688 100.432 63.8999 101.273 60.7068C102.392 61.6531 103.833 62.9553 105.101 64.1001C107.694 66.4429 109.715 68.2412 111.114 69.2896L109.449 81.7529C109.39 82.1963 109.42 82.6387 109.54 83.0688C110.345 85.9493 114.099 99.2058 115.387 103.754C115.707 104.878 116.569 105.742 117.695 106.066L121.123 107.051C122.464 107.437 123.422 108.584 123.562 109.972C124.117 115.49 125.345 128.945 124.764 134.688C124.764 134.689 124.764 134.691 124.764 134.692C124.547 136.835 124.446 138.639 124.365 140.089C124.158 143.769 124.054 145.615 122.601 147.331C121.892 148.167 120.877 148.959 119.894 149.725C117.902 151.279 115.843 152.884 116.174 155.035C114.274 156.299 92.5061 154.465 72.5467 152.05L71.6954 113.056C71.6301 111.6 70.4437 110.469 68.9898 110.469C68.9823 110.469 68.9737 110.469 68.9652 110.469C68.6075 110.472 68.2437 110.476 67.8781 110.48L64.3216 96.3796C64.3222 96.3776 64.3246 96.3765 64.3253 96.3745L67.5659 86.8434C67.8238 86.0822 67.3117 84.4971 66.4997 82.1639C66.3757 81.8086 66.2558 81.4625 66.1461 81.138C66.1034 81.0099 61.8363 68.7294 57.2296 68.2627L54.8744 58.9256C61.1493 55.4107 66.3965 57.2206 66.9018 57.4102ZM120.636 164.871C120.355 163.559 119.355 162.927 118.856 162.696C118.505 162.533 118.097 162.496 117.713 162.596L117.203 162.727C117.269 161.799 117.459 160.084 117.986 159.08C118.82 157.495 117.499 155.408 117.142 154.893C116.898 153.298 118.638 151.932 120.489 150.488C121.51 149.691 122.567 148.868 123.339 147.955C125.001 145.992 125.118 143.914 125.33 140.143C125.348 139.819 125.368 139.48 125.388 139.136C126.007 140.033 126.831 141.65 127.038 144.133C127.135 145.288 127.181 146.355 127.231 147.483C127.368 150.598 127.51 153.819 128.701 159.323C128.974 160.584 129.269 161.884 129.568 163.197C129.952 164.884 130.338 166.586 130.686 168.246C129.008 166.933 125.74 164.519 123.942 164.152C122.436 163.848 121.323 164.363 120.636 164.871ZM91.5851 188.223C91.0457 188.238 90.4707 188.255 89.8698 188.274C89.5449 183.323 89.245 178.725 89.1008 176.462C89.065 175.914 88.8183 175.417 88.4043 175.062C87.9913 174.708 87.4682 174.536 86.9155 174.587C85.1326 174.742 82.5271 174.898 80.1023 174.763C80.0353 174.475 80.0073 173.88 79.9998 173.143C82.3184 173.226 84.6239 173.375 86.8557 173.526C90.0642 173.743 93.164 173.952 96.2089 173.952C97.945 173.952 99.6627 173.866 101.373 173.691C99.0187 181.179 98.1824 185.379 98.0765 187.779C95.7484 188.106 93.8931 188.161 91.5851 188.223ZM83.2462 213.634C83.2537 213.813 83.1885 213.982 83.0638 214.11C82.938 214.239 82.7925 214.323 82.592 214.306L81.3478 214.293C80.8081 214.324 80.325 214.491 79.9533 214.867C79.5816 215.243 79.3852 215.741 79.3985 216.271L79.9779 238.961H82.1492C82.1984 238.961 82.237 238.999 82.2381 239.048L82.4509 247.334L82.361 247.425L76.9187 247.362C76.5389 247.366 76.1473 247.515 75.8741 247.796C75.6008 248.076 75.4535 248.462 75.4685 248.854L76.8166 281.943C76.8193 282.005 76.7893 282.045 76.7712 282.064C76.7493 282.087 76.7107 282.115 76.653 282.115H74.3661C74.2801 282.115 74.2083 282.047 74.2025 281.961L72.4169 252.909C72.3704 252.149 71.7446 251.563 70.9875 251.563C70.978 251.563 70.9688 251.563 70.9602 251.563L68.9023 251.599C68.6943 251.617 68.5354 251.49 68.4616 251.311C68.4541 251.293 67.5461 236.918 67.5461 236.918C67.5495 236.89 67.5598 236.863 67.5581 236.833L65.274 199.18C65.2408 198.633 64.9669 198.13 64.5405 197.836C58.1868 193.452 44.6259 196.789 39.0879 198.426C38.4279 198.621 37.7409 198.263 37.5195 197.609L34.0121 187.276C33.8154 186.696 34.0132 186.06 34.5037 185.692C36.6932 184.051 41.6685 181.127 50.3979 179.979C55.1259 179.361 60.1617 178.784 61.2716 178.774C61.881 179.771 62.527 180.345 63.2253 180.506C63.3575 180.536 63.49 180.551 63.6212 180.551C64.1261 180.551 64.6252 180.331 65.0837 179.902C66.1038 178.949 65.8513 176.237 64.2659 171.106L64.2129 170.935C63.9926 170.218 63.5058 168.875 62.9906 167.453C62.3545 165.695 61.6955 163.876 61.4328 162.958C61.2121 162.185 61.0051 161.224 60.8466 160.417L62.7166 160.143L67.5946 159.988L67.5389 159.469C67.517 159.264 65.3003 138.775 63.0569 128.022C61.604 121.055 57.2012 116.825 54.5704 114.299C53.7696 113.529 52.8623 112.657 52.8555 112.418C53.5732 112.056 56.6098 111.77 61.3358 111.599C61.3368 111.599 61.3379 111.6 61.3389 111.6C61.3426 111.6 61.3464 111.598 61.3501 111.598C63.5474 111.518 66.1072 111.463 68.9727 111.437C69.9248 111.421 70.6856 112.158 70.7272 113.089L71.7483 159.867L72.256 159.83C72.2795 159.828 74.6674 159.657 78.5049 159.579C79.335 160.011 79.1693 166.324 79.09 169.358C78.9493 174.709 78.9906 175.665 79.815 175.716C82.359 175.875 85.1261 175.716 86.9995 175.552C87.2804 175.526 87.5601 175.614 87.7737 175.797C87.9872 175.982 88.116 176.24 88.1337 176.525C88.282 178.857 88.5966 183.668 88.9324 188.791C89.3837 195.67 89.8746 203.112 90.0563 205.872C90.0676 206.039 90.013 206.2 89.9033 206.324C89.7916 206.451 89.6368 206.526 89.4667 206.536L84.8723 206.812C83.8334 206.875 83.0214 207.771 83.061 208.811L83.2462 213.634ZM29.1803 166.289C30.543 166.665 33.7532 167.305 41.497 168.59C41.6466 169.179 41.8858 169.725 42.334 170.229C43.5033 171.545 45.2937 171.388 46.0398 171.255C46.5427 171.86 47.5703 172.564 48.9713 172.234C49.1879 172.484 49.5582 172.862 50.0668 173.201C50.844 173.719 52.5791 173.982 52.5962 173.982C54.419 174.368 55.7377 171.483 56.4384 169.338C57.1001 170.204 58.2165 171.678 58.5352 172.182C58.8509 172.682 59.4125 174.272 59.8217 175.433C60.0004 175.939 60.1603 176.39 60.2785 176.698C60.4401 177.116 60.6051 177.487 60.7715 177.836C58.6599 177.955 53.5271 178.594 50.2718 179.018C42.9174 179.986 38.1433 182.2 35.4169 183.901C34.3664 183.689 33.1109 183.327 32.3406 183.103C32.1701 183.053 32.0386 183.015 31.9245 182.984C31.0264 176.879 29.9124 170.407 29.1803 166.289ZM38.4972 153.906C39.3595 154.22 39.3971 154.521 39.435 155.892C39.4531 156.54 39.4756 157.346 39.6362 158.367C39.8128 159.486 39.8582 160.143 39.8941 160.671C39.9573 161.595 39.9963 162.153 40.6259 163.938C41.0276 165.075 41.14 166.081 41.2394 166.969C41.263 167.177 41.2872 167.379 41.3129 167.578C32.012 166.029 29.5902 165.447 28.9921 165.236C28.7321 163.785 28.5404 162.744 28.454 162.276L29.359 151.705C31.1815 152.097 37.0399 153.376 38.4972 153.906ZM38.2403 119.162C38.9246 119.294 40.0885 119.342 41.4041 119.342C44.4831 119.342 48.3212 119.089 48.3837 119.084C50.1628 118.935 52.8128 116.009 53.7772 114.877C53.8195 114.918 53.8571 114.954 53.9008 114.996C56.4503 117.446 60.7178 121.545 62.1103 128.22C63.4453 134.621 64.7728 144.501 65.6292 151.457L57.4834 150.532C55.5157 148.673 53.6244 147.27 52.9197 146.766C52.2966 146.318 52.1302 145.981 51.8562 145.422C51.5983 144.898 51.2775 144.244 50.4894 143.299C49.634 142.273 47.0124 140.501 43.9768 138.45C41.1274 136.523 37.8974 134.34 35.9167 132.598C32.5428 129.629 32.6101 128.401 32.6081 128.332L38.2403 119.162ZM65.7502 152.446C66.1345 155.605 66.4078 158.036 66.5202 159.053L63.117 159.161C62.802 156.591 60.7807 153.881 58.5964 151.633L65.7502 152.446ZM66.884 110.493C65.1582 110.519 63.391 110.557 61.6996 110.615C57.151 94.8082 48.8168 65.774 48.0653 62.9007L54.0019 59.4206L66.884 110.493ZM57.4868 69.2838C60.794 70.1826 64.4438 79.1187 65.2289 81.4458C65.3385 81.7737 65.4605 82.1225 65.5852 82.4819C66.0464 83.8081 66.8198 86.0289 66.6486 86.5308L63.8863 94.6551L57.4868 69.2838ZM116.607 155.856C117.049 156.609 117.558 157.816 117.129 158.631C116.445 159.932 116.262 162.114 116.215 162.981L111.615 164.161C111.511 164.159 111.407 164.152 111.301 164.173L104.386 165.535C104.383 165.536 104.381 165.538 104.379 165.539C104.377 165.539 104.376 165.538 104.375 165.538L104.051 165.645L103.723 166.598C102.949 168.836 102.277 170.856 101.688 172.697C96.9263 173.228 92.064 172.907 86.921 172.56C84.6711 172.407 82.3453 172.256 80.0008 172.173C80.0093 171.278 80.0346 170.289 80.0585 169.382C80.2024 163.895 80.2259 159.933 79.2161 158.916C79.0149 158.713 78.7935 158.613 78.5042 158.614C75.653 158.669 73.5958 158.777 72.6939 158.831L72.5672 153.027C78.979 153.801 101.017 156.364 111.468 156.364C113.981 156.364 115.813 156.213 116.607 155.856ZM107.502 184.095C106.709 184.436 106.072 184.465 105.611 184.175C104.892 183.723 104.654 182.549 104.608 182.005C106.435 176.455 107.799 170.239 107.36 169.263C106.859 168.148 106.012 167.022 105.431 166.316L111.492 165.122C111.696 165.079 111.901 165.174 111.997 165.359C113.012 167.285 113.648 168.874 113.699 169.609C113.804 171.155 110.943 182.613 107.502 184.095ZM99.0224 188.322C99.0385 188.26 99.043 188.194 99.0324 188.128C99.0313 188.121 99.0272 188.116 99.0259 188.11C99.0891 185.498 100.212 179.711 104.638 166.915L104.648 166.888C105.194 167.547 106.009 168.621 106.475 169.657C106.99 171.067 102.373 188.265 99.7197 190.082C99.5383 190.207 99.4939 190.171 99.4484 190.129C99.2411 189.947 99.0197 189.48 99.0224 188.322ZM104.036 183.675C104.253 184.176 104.584 184.672 105.092 184.993C105.463 185.226 105.882 185.344 106.345 185.344C106.814 185.344 107.328 185.224 107.885 184.984C108.307 184.802 108.716 184.505 109.109 184.127C108.423 185.892 107.604 187.732 106.958 188.445C106.117 189.375 103.129 189.852 101.061 190.052C102.022 188.76 103.07 186.384 104.036 183.675ZM111.205 181.131C111.476 180.61 111.734 180.062 111.978 179.496C112.11 180.455 112.412 181.455 113.062 182.076C113.48 182.476 114.011 182.682 114.614 182.682C114.756 182.682 114.901 182.671 115.049 182.648C115.165 182.63 115.279 182.597 115.391 182.554C114.736 184.189 114.057 185.766 113.816 186.051C112.371 187.752 109.687 188.166 108.27 188.261C109.61 186.036 111.059 181.583 111.205 181.131ZM116.324 180.265C116.279 180.312 116.242 180.368 116.217 180.432C116.21 180.452 116.202 180.474 116.194 180.494C115.781 181.187 115.348 181.624 114.904 181.692C114.413 181.763 114.031 181.663 113.732 181.377C112.803 180.49 112.807 178.104 112.895 177.124C114.065 173.754 114.725 170.417 114.666 169.543C114.584 168.345 113.495 166.125 112.854 164.908C112.843 164.887 112.825 164.873 112.813 164.853L117.955 163.534C118.124 163.491 118.3 163.506 118.451 163.575C119.113 163.881 119.874 164.531 119.739 165.888C119.334 169.959 118.002 177.2 116.324 180.265ZM47.1904 63.3714C48.4947 68.206 59.1477 105.247 60.7024 110.651C56.7185 110.808 53.3529 111.082 52.4192 111.553C52.0271 111.751 51.9078 112.037 51.8774 112.241C51.7944 112.792 52.2382 113.358 53.0826 114.2C51.738 115.79 49.4776 118.021 48.302 118.12C46.4395 118.276 40.3478 118.47 38.652 118.303C41.7375 109.854 42.8928 80.4814 41.3945 73.4868C40.8698 71.0401 39.847 69.4235 38.3541 68.6826C37.925 68.4697 37.4973 68.3591 37.086 68.3C40.3621 66.597 44.7799 64.4936 47.1904 63.3714ZM7.94733 117.935C8.85262 118.212 9.86518 118.483 10.9348 118.756L9.01591 124.325C7.14521 123.238 2.44659 118.341 1.86106 117.132C2.32122 116.952 3.82605 116.674 7.94733 117.935ZM9.76475 125.122L11.8763 118.994C12.4061 119.126 12.9452 119.259 13.4956 119.394C18.9936 120.744 25.2243 122.274 27.9662 124.844L31.6492 128.296C31.6205 128.994 32.0926 130.522 35.2775 133.324C37.3033 135.108 40.561 137.308 43.435 139.251C46.2851 141.178 48.9778 142.998 49.7461 143.919C50.4597 144.776 50.7395 145.346 50.9872 145.85C51.2813 146.447 51.5344 146.964 52.356 147.552C53.3146 148.239 61.5015 154.25 62.1297 159.249L60.6669 159.464C60.5928 159.053 60.5487 158.786 60.5473 158.778C60.504 158.512 60.2505 158.33 59.9925 158.378C59.7288 158.421 59.5491 158.669 59.5925 158.933C59.6096 159.038 60.0161 161.523 60.5029 163.224C60.7742 164.174 61.439 166.008 62.0816 167.783C62.5919 169.193 63.075 170.525 63.2888 171.22L63.3418 171.392C65.1804 177.343 64.809 178.834 64.4234 179.194C63.9137 179.671 63.5584 179.588 63.4422 179.562C63.0244 179.465 62.1755 178.921 61.1828 176.349C61.0666 176.048 60.9105 175.606 60.7356 175.111C60.2628 173.773 59.7278 172.258 59.3544 171.665C58.9516 171.029 57.4619 169.079 56.8408 168.27C56.6895 168.073 56.4455 167.976 56.2009 168.023C55.958 168.067 55.7623 168.244 55.6912 168.482C54.9803 170.871 53.7645 173.321 52.7482 173.031C52.7192 173.023 51.2386 172.819 50.6042 172.396C49.9319 171.947 49.55 171.41 49.5462 171.404L49.3371 171.109L48.9959 171.223C47.4955 171.726 46.7395 170.593 46.6599 170.465L46.4689 170.147L46.1116 170.249C46.0918 170.255 44.1339 170.797 43.0582 169.586C42.4286 168.878 42.3333 168.032 42.2018 166.861C42.0969 165.921 41.9766 164.856 41.539 163.616C40.9528 161.955 40.9197 161.475 40.8602 160.605C40.8223 160.058 40.7762 159.377 40.5927 158.216C40.4414 157.257 40.4199 156.486 40.4028 155.866C40.3659 154.519 40.3386 153.546 38.8279 152.996C37.0423 152.346 29.3299 150.708 29.002 150.638C28.8527 150.61 24.908 149.352 22.8696 148.054C20.2425 146.382 11.5613 137.447 10.6451 136.301C9.74527 135.177 9.0569 134.075 9.0569 131.038C9.05725 128.078 9.72068 125.302 9.76475 125.122ZM117.762 193.905C117.694 193.401 117.694 193.199 117.694 191.288C117.694 188.784 116.688 183.326 116.508 182.369C116.793 181.645 117.022 181.042 117.123 180.774C117.129 180.76 117.126 180.745 117.13 180.73C119.448 176.634 120.549 167.362 120.686 166.129C120.965 165.805 122.023 164.751 123.75 165.102C125.522 165.464 129.455 168.466 130.987 169.726C131.797 173.83 132.283 177.554 131.767 179.965C131.262 182.327 130.112 184.246 129.098 185.939C128.194 187.448 127.341 188.875 127.045 190.401C126.588 192.77 126.009 195.269 125.761 196.317C124.581 195.918 121.624 194.905 120.497 194.404C119.862 194.123 118.696 193.832 117.762 193.905ZM142.011 132.029C136.594 133.436 128.07 135.152 125.755 134.411C126.263 128.403 125.072 115.311 124.524 109.874C124.433 108.971 124.072 108.149 123.516 107.492C123.785 106.61 124.568 103.771 124.249 101.434C124.009 99.6694 124.63 98.3648 125.288 96.9843C125.554 96.4285 125.827 95.8535 126.041 95.2468C126.648 93.5268 127.55 83.4487 127.878 79.5761C128.124 80.0916 128.393 80.711 128.671 81.3505C129.52 83.3073 130.577 85.7427 131.963 87.7514C134.309 91.1535 149.711 125.652 150.033 127.474C149.997 128.168 146.253 130.293 142.011 132.029Z" fill="white"/>
<path d="M83.3341 50.6905C83.371 50.6943 83.4079 50.6963 83.4448 50.6963C83.7304 50.6963 84.0027 50.5696 84.1878 50.3455C84.3986 50.0913 84.4666 49.7507 84.3685 49.4351C82.8852 44.677 79.2852 33.4596 77.888 32.0635L77.6424 31.8291L77.3438 31.9538C76.9763 32.1079 76.9763 32.1513 76.9855 34.4336C76.9998 37.6752 77.0299 44.4201 75.5572 46.118C75.3737 46.3298 75.2876 46.6161 75.3218 46.9027C75.3566 47.206 75.5175 47.4804 75.7625 47.6563C78.8879 49.9024 81.8477 50.5214 83.3341 50.6905ZM77.9529 34.4288C77.9529 34.3011 77.9519 34.1736 77.9519 34.0479C79.2972 36.952 81.6151 43.8589 83.4434 49.7285C82.051 49.5707 79.2743 48.9883 76.3268 46.8699L76.2882 46.7527C77.9984 44.7795 77.969 38.0466 77.9529 34.4288Z" fill="white"/>
<path d="M75.4134 96.8814L102.79 97.9128C102.807 97.9128 102.824 97.9138 102.841 97.9138C103.221 97.9138 103.586 97.756 103.846 97.4752C104.118 97.1841 104.249 96.7899 104.206 96.3936L103.334 88.3307C103.26 87.6519 102.712 87.1378 102.031 87.1063L74.8944 85.9028C74.5077 85.9028 74.1118 86.0398 73.8375 86.3281C73.5655 86.6144 73.4303 87.0035 73.4668 87.3974C73.655 89.4215 73.9697 93.8127 74.0954 95.6068C74.1456 96.3075 74.7117 96.8548 75.4134 96.8814ZM74.4309 87.3079C74.4196 87.1918 74.4582 87.08 74.5385 86.996C74.616 86.9147 74.7199 86.8703 74.8326 86.8703C74.8391 86.8703 74.8459 86.8703 74.8514 86.8713L101.987 88.0738C102.188 88.0834 102.35 88.2354 102.371 88.4349L103.243 96.4978C103.26 96.6577 103.184 96.7663 103.137 96.8165C103.092 96.8657 102.993 96.946 102.841 96.946C102.836 96.946 102.831 96.946 102.825 96.945L75.4489 95.9136C75.2429 95.9061 75.0755 95.7452 75.0611 95.5392C74.9344 93.7419 74.6198 89.3416 74.4305 87.3089V87.3079H74.4309Z" fill="white"/>
</svg>
