<svg width="196" height="343" viewBox="0 0 196 343" fill="none" xmlns="http://www.w3.org/2000/svg">
<path d="M58.3999 315.584L58.3999 315.584C58.3057 314.625 57.9552 314.165 57.4988 313.898C56.9915 313.601 56.2793 313.496 55.3575 313.437C52.1862 313.235 49.0126 312.969 45.8448 312.703C43.979 312.547 42.1151 312.39 40.2549 312.247C36.9736 311.995 33.6901 311.749 30.4061 311.503C25.4438 311.132 20.4801 310.76 15.5203 310.366C14.9724 310.323 14.6034 310.371 14.3132 310.51C14.0289 310.645 13.7569 310.899 13.4667 311.394C12.7061 312.693 11.6012 313.473 10.3428 313.688C9.09286 313.902 7.75542 313.549 6.53145 312.71C5.07642 311.712 4.21944 310.481 3.83358 309.1C3.45092 307.731 3.54257 306.255 3.90888 304.776L4.39422 304.896L3.90888 304.776C4.62246 301.895 4.65459 299.014 4.6876 296.055C4.69715 295.199 4.70678 294.337 4.73299 293.466C4.85579 289.389 4.42397 285.387 3.98794 281.346C3.79992 279.604 3.61112 277.854 3.46567 276.088L3.96398 276.047L3.46567 276.088C3.3447 274.619 3.27994 273.131 3.21569 271.655C3.17747 270.777 3.13942 269.903 3.08982 269.039C2.95577 266.704 2.73625 264.401 2.2059 262.135C0.651783 255.498 0.365554 248.773 0.548837 242.027C0.647256 238.404 1.75354 235.161 4.00005 232.318C6.45191 229.215 9.22358 226.392 11.9705 223.594C12.7604 222.79 13.5483 221.988 14.3259 221.181L14.6858 221.528L14.3259 221.181C15.6081 219.852 16.2226 218.636 16.058 216.989L16.058 216.989C15.5785 212.183 15.5858 207.365 15.5931 202.574C15.5947 201.533 15.5963 200.494 15.5929 199.457C15.5911 198.917 15.5925 198.379 15.5939 197.842C15.5997 195.596 15.6054 193.377 15.3815 191.155C15.2722 190.069 15.155 188.981 15.0376 187.891C14.4932 182.836 13.9437 177.735 14.1458 172.601C14.2764 169.287 13.8968 166.31 12.2816 163.332C11.1348 161.218 10.9984 159.289 11.9014 157.808C12.7939 156.344 14.6023 155.487 16.9637 155.273M58.3999 315.584L71.951 123.017L71.454 122.963C71.454 122.963 71.454 122.963 71.454 122.963C71.2706 124.646 70.5376 125.985 69.5698 127.228C69.0838 127.853 68.5435 128.447 67.9852 129.05C67.9161 129.125 67.8466 129.2 67.777 129.275C67.2884 129.802 66.7898 130.339 66.3241 130.897C61.9875 136.094 56.6963 140.205 51.3583 144.352C50.0966 145.332 48.8322 146.314 47.5772 147.313L47.5772 147.313C45.3804 149.062 42.8656 149.786 39.8926 149.753C33.7685 149.685 27.5274 150.074 22.2253 154.244M58.3999 315.584C58.4154 315.741 58.4647 315.876 58.5025 315.97C58.5241 316.024 58.5396 316.059 58.5524 316.089C58.5685 316.126 58.5804 316.154 58.5948 316.195M58.3999 315.584L82.4942 137.913L82.8697 138.244C78.2685 143.477 72.3358 146.876 66.5065 150.216C65.2509 150.935 64.0001 151.652 62.7684 152.383L62.5131 151.953L62.7684 152.383C60.6556 153.638 58.4731 154.798 56.3029 155.951C55.0585 156.612 53.818 157.271 52.597 157.945C49.2286 159.804 45.9648 161.795 43.0078 164.318C42.0176 165.163 41.4116 165.925 41.0876 166.734C40.7657 167.538 40.7012 168.441 40.8893 169.606C41.3919 172.719 41.6838 175.89 41.5747 179.061C41.5508 179.755 41.5238 180.448 41.4968 181.139C41.3813 184.101 41.2668 187.037 41.4047 189.98C41.5234 192.513 41.7144 195.06 41.9061 197.615C42.2362 202.016 42.5681 206.442 42.5354 210.864C42.528 211.871 42.6667 212.87 42.8107 213.908C42.8584 214.252 42.9067 214.599 42.9505 214.953L42.4543 215.015L42.9505 214.953C43.0222 215.533 43.1905 215.907 43.4334 216.145C43.6713 216.377 44.0485 216.544 44.6807 216.567C46.151 216.62 47.623 216.773 49.0746 216.925C49.529 216.972 49.9815 217.019 50.4312 217.063C51.6177 217.179 52.8053 217.292 53.9936 217.405C57.5695 217.747 61.1509 218.088 64.7229 218.496C65.2881 218.561 65.7638 218.635 66.1444 218.756C66.5307 218.878 66.8692 219.063 67.1041 219.382C67.3365 219.697 67.4172 220.076 67.4333 220.48C67.4492 220.882 67.4029 221.366 67.3305 221.933C67.1851 223.075 66.9611 224.212 66.7411 225.329C66.6748 225.666 66.6088 226 66.5455 226.333C66.4443 226.864 66.3423 227.395 66.2404 227.925C64.9101 234.847 63.5959 241.685 64.3117 248.719L64.3143 248.744L64.3143 248.77C64.3147 249.361 64.3155 249.952 64.3163 250.544C64.3187 252.385 64.3212 254.228 64.3137 256.07C64.3076 257.616 64.4723 259.088 65.0469 260.481C65.3399 261.191 65.7297 261.565 66.0516 261.64C66.3041 261.699 66.769 261.616 67.3737 260.693C68.4063 259.118 69.6535 257.663 70.8753 256.238C71.3589 255.674 71.8385 255.114 72.2994 254.554C72.3146 254.535 72.3314 254.514 72.3495 254.492C72.4628 254.351 72.629 254.145 72.8224 253.994C73.0745 253.798 73.4285 253.647 73.8635 253.764C74.0848 253.824 74.2732 253.936 74.4131 254.105C74.5486 254.268 74.6106 254.451 74.6408 254.607C74.6704 254.76 74.6737 254.912 74.6736 255.029C74.6736 255.078 74.6731 255.118 74.6727 255.155C74.6719 255.222 74.6712 255.274 74.6739 255.33C74.7 255.886 74.7039 256.45 74.7078 257.003C74.7094 257.239 74.711 257.472 74.7144 257.702C74.7257 258.481 74.7562 259.236 74.8659 259.972C75.9548 267.282 76.0793 274.618 75.7808 281.955C75.593 286.566 74.782 291.113 72.1543 295.14C69.4919 299.22 67.7563 303.276 68.8993 308.248C69.6305 311.429 68.2967 314.459 66.7051 317.052L66.279 316.79L66.7051 317.052C65.8437 318.454 64.494 319.855 62.4624 319.7C60.3011 319.534 59.2059 317.926 58.5948 316.195M16.9637 155.273L17.0089 155.771M16.9637 155.273L17.0089 155.771M16.9637 155.273C17.4005 155.234 17.8483 155.217 18.2831 155.201C18.3291 155.199 18.375 155.198 18.4207 155.196C18.9043 155.178 19.3726 155.157 19.8277 155.105C20.7364 155.002 21.5459 154.778 22.2253 154.244M17.0089 155.771C17.4315 155.733 17.8657 155.717 18.3027 155.701C19.7961 155.645 21.3228 155.589 22.5343 154.637M17.0089 155.771C12.4421 156.185 10.5233 159.041 12.7211 163.093C14.3935 166.177 14.7781 169.252 14.6454 172.621C14.4449 177.714 14.9894 182.772 15.5335 187.825C15.6512 188.918 15.7689 190.011 15.879 191.104C16.1057 193.355 16.0998 195.606 16.0939 197.854C16.0926 198.388 16.0912 198.922 16.0929 199.455C16.0963 200.498 16.0947 201.541 16.0932 202.583C16.0859 207.373 16.0787 212.161 16.5555 216.939L47.8886 147.704C45.5859 149.538 42.953 150.287 39.8871 150.253C33.7719 150.185 27.6894 150.583 22.5343 154.637M22.2253 154.244L22.5343 154.637M22.2253 154.244L22.5343 154.637M58.5948 316.195L59.0663 316.028L58.5949 316.195C58.5949 316.195 58.5948 316.195 58.5948 316.195ZM32.1449 216.766C30.6435 216.887 29.1365 216.875 27.6048 216.863C27.1351 216.859 26.6631 216.855 26.1882 216.855C25.5234 216.855 25.1591 216.684 24.9378 216.44C24.7014 216.179 24.5427 215.743 24.4942 215.036C24.4625 214.574 24.4309 214.112 24.3993 213.65C23.9682 207.346 23.5363 201.032 22.919 194.736C22.6794 192.293 22.6014 189.842 22.5227 187.372C22.5155 187.146 22.5083 186.92 22.501 186.693C22.4137 184 22.3082 181.287 21.9703 178.581L21.4741 178.643L21.9703 178.581C21.8734 177.805 21.7713 177.032 21.6695 176.262C21.2246 172.894 20.7848 169.565 20.8057 166.188C20.8083 165.754 20.8428 165.406 20.9061 165.138C20.9703 164.867 21.0557 164.713 21.1331 164.631C21.2276 164.531 21.4493 164.401 22.1265 164.703C22.7458 164.978 23.3657 165.248 23.9838 165.517C26.1731 166.469 28.3411 167.411 30.3899 168.575L30.3899 168.575C32.5018 169.774 32.9677 171.947 32.9189 174.43C32.8282 179.042 33.1867 183.635 33.5429 188.201C33.5655 188.49 33.5881 188.779 33.6105 189.068C33.9878 193.929 34.3306 198.76 34.1097 203.607L34.1092 203.618V203.63C34.1092 204.71 34.1128 205.789 34.1164 206.868C34.1251 209.442 34.1337 212.012 34.0929 214.583C34.0767 215.603 33.9549 216.05 33.739 216.292C33.5309 216.526 33.1278 216.686 32.1449 216.766ZM32.1449 216.766L32.1852 217.264M32.1449 216.766C32.1449 216.766 32.1448 216.766 32.1448 216.766L32.1852 217.264M32.1852 217.264C34.1465 217.105 34.5607 216.609 34.5928 214.591C34.6337 212.014 34.6251 209.438 34.6164 206.861C34.6128 205.784 34.6092 204.707 34.6092 203.63L23.9954 215.07C24.0984 216.572 24.6867 217.355 26.1882 217.355C26.6537 217.355 27.1196 217.359 27.5857 217.363C29.122 217.375 30.6595 217.388 32.1852 217.264Z" fill="#171717" stroke="white"/>
<path d="M87.3955 128.19L87.3954 128.19C87.3601 127.803 87.2965 127.616 87.2202 127.524C87.1796 127.475 87.0739 127.377 86.675 127.409C84.4589 127.584 82.6095 126.573 81.0556 125.386C78.71 123.595 76.1899 122.094 73.5079 121.014C71.6022 120.246 70.0372 119.269 69.1031 117.875C68.1605 116.468 67.9117 114.715 68.4644 112.513C68.4881 112.018 68.4909 111.53 68.4937 111.03C68.4954 110.72 68.4972 110.406 68.504 110.082C68.5217 109.241 68.5742 108.379 68.764 107.535L68.764 107.535C70.3193 100.641 70.7751 93.6264 71.2343 86.5594L71.2466 86.3707C71.5858 81.1497 73.8411 76.9041 78.7401 74.6639L78.7401 74.6639C82.3816 72.9989 86.1616 71.6258 89.9143 70.2627C90.6619 69.9911 91.4083 69.72 92.1524 69.447C92.6635 69.2594 93.0959 69.1101 93.4435 69.0416C93.7749 68.9764 94.1784 68.9523 94.5034 69.2065C94.8169 69.4517 94.91 69.8445 94.9499 70.1878C94.9924 70.5529 94.9895 71.0295 94.9763 71.604V71.604C94.8745 76.0399 95.6396 80.2964 97.1361 84.4811L87.3955 128.19ZM87.3955 128.19C87.5003 129.334 87.6575 130.482 87.813 131.617C87.8884 132.167 87.9634 132.715 88.0318 133.257C88.243 134.932 88.3958 136.588 88.3311 138.256C88.2967 139.143 88.316 140.031 88.3357 140.9L88.3357 140.9M87.3955 128.19L88.3357 140.9M88.3357 140.9C88.4254 144.831 89.3521 148.447 92.5549 151.313C93.6874 152.326 94.6728 153.493 95.6847 154.697L95.7315 154.752C96.7213 155.93 97.7388 157.14 98.9172 158.213C101.105 160.204 103.54 161.757 105.996 163.257C108.235 164.624 110.689 165.091 113.179 164.276C117.002 163.024 120.819 162.581 124.763 163.257L124.848 162.765M88.3357 140.9L124.848 162.765M124.848 162.765L124.763 163.257C126.356 163.53 127.493 162.597 128.424 161.783M124.848 162.765L128.424 161.783M146.129 109.122L146.129 109.123C146.04 109.485 145.952 109.851 145.864 110.219C145.627 111.207 145.386 112.211 145.095 113.193C143.363 119.034 141.914 124.912 141.391 130.959L141.374 131.16C141.087 134.477 140.809 137.69 141.809 140.856C142.033 141.565 142.139 142.308 142.238 143.003C142.243 143.04 142.248 143.076 142.253 143.113C142.359 143.855 142.465 144.542 142.689 145.178C143.128 146.422 143.104 147.516 142.726 148.497C142.354 149.464 141.656 150.276 140.83 151L146.129 109.122ZM146.129 109.122C146.962 105.759 146.832 102.517 144.455 99.5592L144.065 99.8724M146.129 109.122L144.065 99.8724M144.065 99.8724L144.455 99.5592C143.989 98.9795 143.678 98.2884 143.406 97.5236C143.29 97.1976 143.184 96.8663 143.075 96.5264C143.056 96.4672 143.037 96.4078 143.018 96.348C142.89 95.9493 142.756 95.541 142.602 95.1414L142.136 95.3213M144.065 99.8724L142.136 95.3213M142.136 95.3213L142.602 95.1414C142.03 93.6574 141.207 92.3516 139.743 91.4544L139.482 91.8807L139.743 91.4544C139.508 91.3107 139.251 91.1711 139.004 91.0376C138.913 90.9882 138.823 90.9395 138.736 90.8918C138.404 90.7086 138.101 90.5295 137.845 90.3295C137.351 89.9434 137.068 89.5148 137.119 88.8605C137.252 87.1493 137.79 85.4368 138.978 84.2021C139.726 83.4251 140.404 82.6283 140.923 81.6222C141.618 80.2744 142.539 79.2742 144.017 78.8301C144.455 78.6987 145.021 78.5121 145.483 78.1899C145.965 77.8547 146.368 77.3462 146.387 76.5974C146.404 75.9441 146.062 75.4628 145.694 75.1105C145.442 74.8689 145.122 74.6411 144.852 74.4489C144.751 74.3766 144.656 74.3093 144.575 74.2483L144.575 74.2482C143.582 73.5007 142.438 73.0585 141.247 72.8586L141.165 73.3515L141.247 72.8586C137.225 72.1839 133.278 71.2664 129.426 69.9438C128.925 69.7718 128.495 69.6432 128.141 69.5966C127.793 69.5509 127.401 69.5675 127.094 69.8324C126.798 70.0878 126.707 70.4694 126.674 70.8197C126.64 71.1843 126.659 71.6455 126.7 72.1897C126.761 72.9988 126.833 73.7994 126.905 74.5952C127.122 76.9914 127.335 79.3441 127.208 81.7524C126.936 86.9317 124.975 91.5298 122.722 96.1538C121.934 97.7692 120.92 99.2136 119.88 100.695C119.426 101.342 118.967 101.996 118.519 102.675L118.519 102.675C118.174 103.198 117.709 103.672 117.209 104.144C115.822 105.45 114.87 106.01 113.976 106.048C113.086 106.085 112.1 105.611 110.63 104.394C107.217 101.57 104.33 98.315 102.364 94.3383L101.916 94.5599M142.136 95.3213L101.916 94.5599M101.916 94.5599L102.364 94.3383C101.713 93.0216 100.959 91.756 100.217 90.5097M101.916 94.5599L100.217 90.5097M128.424 161.783L128.095 161.406M128.424 161.783L128.095 161.406M128.095 161.406L128.424 161.783C129.558 160.791 130.654 159.755 131.742 158.727M128.095 161.406L131.742 158.727M131.742 158.727C132.046 158.44 132.349 158.153 132.652 157.869C134.046 156.559 135.445 155.281 136.939 154.115L136.631 153.721M131.742 158.727L136.631 153.721M136.631 153.721L136.939 154.115C137.209 153.904 137.481 153.694 137.754 153.483M136.631 153.721L137.754 153.483M137.754 153.483C138.788 152.682 139.836 151.87 140.83 151L137.754 153.483ZM100.217 90.5097C100.002 90.1497 99.789 89.7914 99.5793 89.4339M100.217 90.5097L99.5793 89.4339M99.5793 89.4339C98.6367 87.827 97.7582 86.2204 97.1361 84.4811L99.5793 89.4339Z" fill="#171717" stroke="white"/>
<path d="M172.724 158.251L172.724 158.251C173.411 157.981 174.007 157.789 174.521 157.711C175.038 157.633 175.522 157.662 175.944 157.89C176.368 158.121 176.65 158.509 176.852 158.985C177.051 159.455 177.19 160.053 177.305 160.766C177.464 161.752 177.597 162.742 177.728 163.725C177.741 163.819 177.754 163.914 177.766 164.008C177.911 165.086 178.058 166.155 178.241 167.215C178.388 168.068 178.53 168.919 178.672 169.769C179.634 175.531 180.583 181.216 183.002 186.555C184.172 189.137 185.276 191.736 186.377 194.33C188.948 200.383 191.504 206.402 194.848 212.075C195.254 212.765 195.436 213.431 195.357 214.105C195.28 214.771 194.955 215.375 194.482 215.959C192.871 217.947 190.901 219.53 188.673 220.664C184.535 222.769 180.552 225.149 176.556 227.546L176.296 227.701C172.39 230.043 168.469 232.395 164.398 234.495C157.386 238.112 150.049 240.499 142.152 241.015C139.906 241.484 137.929 240.981 136.112 239.634C135.364 239.08 134.536 238.591 133.783 238.508C132.072 238.319 130.912 237.631 130.135 236.588C129.376 235.572 129.019 234.265 128.798 232.905L128.798 232.905C128.589 231.618 128.655 230.361 128.885 229.104L129.376 229.193L128.885 229.104C129.131 227.75 129.383 226.399 129.635 225.05C131.553 214.76 133.458 204.545 132.902 194.021C132.712 190.417 133.691 186.841 135.593 183.738L136.019 183.999L135.593 183.738C137.682 180.33 139.111 176.671 140.253 172.851C140.802 171.016 141.805 169.429 143.483 168.437C144.436 167.873 145.03 167.21 145.394 166.439C145.764 165.659 145.916 164.734 145.925 163.624C145.966 158.85 145.128 154.206 144.281 149.503C144.14 148.726 144 147.947 143.863 147.165C143.817 146.905 143.758 146.649 143.694 146.377C143.678 146.309 143.662 146.24 143.646 146.17C143.567 145.827 143.488 145.462 143.449 145.085L143.449 145.085C143.411 144.716 143.495 144.277 143.858 144.032C144.243 143.771 144.693 143.89 145.024 144.115L145.024 144.115C145.141 144.194 145.259 144.273 145.377 144.352C146.716 145.245 148.114 146.179 148.569 148.402L148.569 148.402C149.285 151.898 150.272 155.329 151.264 158.782C151.643 160.098 152.022 161.418 152.388 162.746L152.388 162.746C152.408 162.819 152.426 162.889 152.444 162.957C152.482 163.099 152.516 163.23 152.559 163.363C152.621 163.554 152.683 163.689 152.749 163.778C152.808 163.857 152.856 163.884 152.909 163.895C152.976 163.909 153.117 163.911 153.379 163.804C153.379 163.804 153.379 163.804 153.379 163.804L153.568 164.266C156.041 163.254 158.613 162.602 161.186 161.949C162.234 161.683 163.281 161.417 164.322 161.127L172.724 158.251ZM172.724 158.251C172.38 158.386 172.049 158.543 171.734 158.699L171.733 158.699C171.398 158.864 171.226 158.847 171.143 158.813C171.058 158.779 170.92 158.669 170.788 158.316C169.806 155.698 168.654 153.145 167.51 150.61C167.204 149.931 166.899 149.254 166.597 148.577C165.164 145.36 163.815 142.139 162.877 138.759C162.32 136.752 161.421 134.913 160.318 133.186L160.318 133.185C160.308 133.17 160.298 133.153 160.286 133.135C160.191 132.983 160.038 132.739 159.831 132.567C159.703 132.461 159.54 132.367 159.336 132.328C159.132 132.289 158.924 132.313 158.718 132.388C158.359 132.518 158.173 132.784 158.075 133.032C158.012 133.192 157.972 133.393 157.946 133.523C157.939 133.559 157.933 133.589 157.928 133.611L157.928 133.611C157.843 133.988 157.758 134.364 157.674 134.739C157.454 135.722 157.234 136.699 156.996 137.674L156.996 137.674C156.798 138.481 156.835 139.263 157.271 140.048C159.058 143.263 160.282 146.689 161.522 150.16C161.978 151.438 162.437 152.722 162.927 154.004C162.927 154.004 162.927 154.004 162.927 154.004L163.394 153.825L172.724 158.251ZM171.955 159.147C172.267 158.993 172.583 158.843 172.906 158.716L171.955 159.147ZM171.955 159.147C171.162 159.539 170.63 159.32 170.32 158.492M171.955 159.147L170.32 158.492M170.32 158.492C169.344 155.891 168.201 153.357 167.058 150.823M170.32 158.492L167.058 150.823M167.058 150.823C165.301 146.928 163.544 143.033 162.395 138.893M167.058 150.823L162.395 138.893M162.395 138.893C161.854 136.944 160.98 135.151 159.897 133.455L162.395 138.893Z" fill="#171717" stroke="white"/>
<path d="M106.03 177.468L106.03 177.468C105.856 177.427 105.756 177.47 105.646 177.579C105.505 177.719 105.387 177.94 105.255 178.215C105.255 178.215 105.255 178.215 105.255 178.215L104.804 177.999L106.03 177.468ZM106.03 177.468C106.195 177.507 106.264 177.56 106.294 177.591C106.323 177.622 106.349 177.667 106.365 177.754C106.382 177.846 106.382 177.967 106.368 178.125C106.359 178.228 106.347 178.321 106.333 178.422C106.325 178.488 106.315 178.557 106.306 178.636L106.03 177.468ZM79.3866 245.039L79.3866 245.039C77.845 247.441 75.9632 249.543 74.0666 251.583C73.8079 251.861 73.5492 252.138 73.2909 252.414C71.6468 254.174 70.0236 255.911 68.5906 257.81C68.5058 257.923 68.4196 258.051 68.3206 258.199C68.2887 258.247 68.2554 258.297 68.2204 258.349C68.0841 258.551 67.927 258.776 67.7531 258.974C67.4317 259.341 66.8797 259.807 66.1632 259.541L79.3866 245.039ZM79.3866 245.039C79.5082 244.85 79.6366 244.665 79.7705 244.471L79.7752 244.464C79.9091 244.271 80.0487 244.07 80.1813 243.862C80.4476 243.444 80.6981 242.981 80.8538 242.437L80.3731 242.299L79.3866 245.039ZM113.634 218.959L113.634 218.958C113.625 218.953 113.618 218.95 113.614 218.949C113.61 218.95 113.603 218.952 113.592 218.957C113.564 218.97 113.525 218.994 113.47 219.037C113.429 219.068 113.393 219.099 113.349 219.135C113.329 219.152 113.307 219.17 113.282 219.19L113.282 219.191C113.092 219.348 112.919 219.519 112.728 219.709C112.672 219.764 112.615 219.82 112.556 219.878C112.051 220.373 111.596 220.761 111.178 221.008C110.761 221.253 110.311 221.399 109.853 221.285C109.397 221.171 109.065 220.831 108.807 220.417C108.548 220 108.319 219.439 108.094 218.755C107.76 217.74 107.511 216.682 107.362 215.623L107.857 215.553L107.362 215.623C107.096 213.743 106.696 211.896 106.121 210.107L106.597 209.954L106.121 210.107C104.764 205.886 104.047 201.567 104.467 197.485C104.291 193.208 104.624 189.386 105.436 185.578C105.436 185.578 105.436 185.578 105.436 185.578L105.925 185.682C106.267 184.075 106.427 182.429 106.586 180.783L113.634 218.959ZM113.634 218.959C113.661 218.974 113.671 218.986 113.677 218.993C113.683 219.002 113.691 219.017 113.699 219.046C113.716 219.116 113.718 219.221 113.701 219.386C113.507 221.185 113.202 222.954 112.736 224.699C112.395 225.976 112.137 227.283 111.958 228.59L113.634 218.959ZM65.2779 255.686C65.2726 255.95 65.2672 256.214 65.262 256.478L89.241 149.38C88.3954 148.447 87.7559 148.573 87.4207 149.762L86.9395 149.626C86.9395 149.626 86.9395 149.626 86.9395 149.626C86.4325 151.425 86.5453 153.283 86.7072 155.003C87.0661 158.815 86.7177 162.479 85.4905 166.117L85.4905 166.117C84.8426 168.038 84.4506 170.122 84.3831 172.152C84.1879 178.023 82.2284 183.44 79.9122 188.764L80.3707 188.963L79.9122 188.764C78.659 191.644 77.6179 194.607 76.5843 197.549C76.3924 198.095 76.2008 198.64 76.0081 199.184C74.7743 202.667 73.4946 206.102 71.8163 209.372L72.2611 209.6L71.8163 209.372C69.5586 213.77 68.5362 218.455 67.8764 223.263L68.3717 223.331L67.8764 223.263C67.5673 225.514 67.1365 227.745 66.7025 229.991C66.5921 230.563 66.4814 231.136 66.3724 231.711C65.8373 234.535 65.3467 237.389 65.1501 240.296C65.1296 240.598 65.0999 240.884 65.0691 241.178C65.0465 241.395 65.0233 241.616 65.0029 241.854C64.9571 242.388 64.932 242.946 64.994 243.505L65.4909 243.45L64.994 243.505C65.4422 247.547 65.3605 251.595 65.2779 255.686ZM104.087 163.059L103.804 163.471L111.958 228.591C111.843 229.426 111.961 230.181 112.372 230.799C112.781 231.416 113.436 231.829 114.264 232.071C115.519 232.438 116.779 232.821 118.042 233.205C119.865 233.759 121.694 234.316 123.523 234.826C124.17 235.007 124.735 235.126 125.223 235.153C125.713 235.18 126.166 235.115 126.553 234.887C126.947 234.654 127.21 234.29 127.39 233.844C127.566 233.405 127.674 232.861 127.746 232.22C128.2 228.214 128.951 224.256 129.705 220.276C129.794 219.809 129.882 219.343 129.97 218.876C130.809 214.431 131.608 209.954 131.945 205.397C132.097 203.343 132.093 201.275 132.089 199.23C132.087 198.225 132.085 197.226 132.101 196.236C132.105 196.028 132.108 195.821 132.111 195.615C132.138 193.726 132.165 191.897 132.547 190.093L132.547 190.093C132.77 189.041 132.647 188.026 132.462 187.052C131.753 183.313 130.694 179.672 129.642 176.054L129.593 175.887C129.394 175.201 129.311 174.67 129.323 174.272C129.335 173.878 129.438 173.659 129.566 173.529C129.697 173.397 129.926 173.284 130.339 173.253C130.754 173.222 131.306 173.278 132.016 173.436L132.016 173.436C132.673 173.582 133.323 173.777 133.991 173.979L134.091 174.01C134.722 174.201 135.37 174.398 136.029 174.554C136.803 174.737 137.576 174.763 138.235 174.441C138.915 174.109 139.367 173.461 139.604 172.535C140.156 170.379 141.512 168.77 143.41 167.564C144.004 167.186 144.436 166.724 144.724 166.168C145.01 165.617 145.141 165.002 145.177 164.336C145.343 161.24 144.884 158.188 144.433 155.195C144.274 154.141 144.117 153.094 143.988 152.056C143.947 151.726 143.872 151.429 143.732 151.196C143.58 150.942 143.347 150.757 143.038 150.714C142.761 150.675 142.497 150.761 142.284 150.866C142.063 150.974 141.836 151.129 141.612 151.305C137.487 154.533 133.503 157.936 129.757 161.603C128.748 162.59 127.761 163.314 126.683 163.715C125.615 164.113 124.423 164.205 122.979 163.872C120.626 163.329 118.156 163.529 115.765 164.431C111.672 165.973 107.844 165.641 104.087 163.059ZM118.567 201.465L118.567 201.465C118.375 200.725 118.19 199.976 118.005 199.222C117.566 197.434 117.122 195.624 116.546 193.868C115.352 190.228 114.701 186.564 115 182.501L115.002 182.482V182.464C115.002 182.06 114.993 181.64 114.984 181.208C114.964 180.205 114.942 179.141 115.024 178.069L114.526 178.031L115.024 178.069C115.176 176.075 115.43 174.178 116.512 172.584C117.073 171.757 117.631 171.489 118.064 171.51C118.501 171.53 119.035 171.852 119.525 172.712L119.525 172.712C120.261 174.004 120.337 175.443 120.358 177.028C120.404 180.594 120.069 184.142 119.732 187.722C119.686 188.215 119.639 188.708 119.594 189.201C119.218 193.272 118.907 197.383 119.237 201.532C119.255 201.755 119.231 201.938 119.178 202.047C119.155 202.095 119.132 202.118 119.112 202.132C119.093 202.144 119.053 202.166 118.967 202.17C118.887 202.174 118.855 202.158 118.844 202.152C118.829 202.144 118.804 202.125 118.771 202.072C118.691 201.943 118.643 201.757 118.569 201.472L118.567 201.465Z" fill="#171717" stroke="white"/>
<path d="M119.097 55.6861L119.097 55.6862C118.349 59.5444 119.252 63.1151 122.121 65.3906C125.239 67.8634 125.705 70.6923 126.172 74.1078C127.391 83.0228 125.169 90.931 120.563 98.3179L120.139 98.0534L120.563 98.3179C120.393 98.5917 120.222 98.8711 120.05 99.1537C119.009 100.863 117.898 102.686 116.214 104.032C115.368 104.708 114.633 105.143 113.831 105.153C113.03 105.163 112.289 104.747 111.435 104.1C110.316 103.252 109.321 102.269 108.351 101.309C108.209 101.168 108.067 101.028 107.926 100.889C106.357 99.3465 105.176 97.571 104.112 95.7623C103.71 95.0789 103.329 94.3985 102.95 93.7234C102.315 92.5886 101.687 91.4689 100.984 90.3754C97.3279 84.6917 95.6992 78.4759 95.7113 71.79C95.7113 71.5702 95.7113 71.3503 95.7112 71.1303C95.7112 70.4799 95.7111 69.8292 95.7116 69.1788L95.7116 69.1782C95.7116 69.1517 95.7109 69.1178 95.71 69.0788C95.7069 68.9471 95.7025 68.7567 95.7242 68.592L96.2199 68.6572L95.7242 68.592C95.8714 67.4735 96.3146 66.5798 97.1091 66.1776C97.914 65.7701 98.8764 65.9674 99.823 66.5658C101.276 67.4841 102.785 68.1292 104.453 68.3614C106.612 68.6619 108.312 67.7099 109.911 66.2239C110.079 66.0675 110.162 65.9348 110.184 65.8463C110.192 65.8119 110.19 65.7878 110.182 65.764C110.173 65.7375 110.148 65.6835 110.066 65.6072L119.097 55.6861ZM119.097 55.6861C119.298 54.6477 119.452 53.6024 119.591 52.5651C119.69 51.8368 119.798 51.4098 120.25 51.1536C121.944 50.1927 122.531 48.571 122.906 46.9777L122.419 46.8632M119.097 55.6861L122.419 46.8632M122.419 46.8632L122.906 46.9777C123.046 46.3815 123.207 45.7948 123.37 45.1983C123.447 44.9142 123.526 44.6279 123.603 44.3372C123.838 43.4473 124.057 42.5358 124.179 41.604C124.336 40.4087 124.195 39.3738 123.463 38.8522C123.098 38.5913 122.652 38.5141 122.185 38.5573C121.722 38.6002 121.209 38.7633 120.659 39.02L120.659 39.0201M122.419 46.8632L120.659 39.0201M120.659 39.0201C120.11 39.2764 119.708 39.4429 119.397 39.5249C119.087 39.6067 118.937 39.5851 118.852 39.5483C118.768 39.5121 118.651 39.4193 118.503 39.1368C118.354 38.8524 118.206 38.4394 118.029 37.8498L118.029 37.8497M120.659 39.0201L118.029 37.8497M118.029 37.8497C117.204 35.108 115.967 32.5737 114.527 30.1555C113.475 28.3894 111.968 26.9637 110.196 26.2303C108.411 25.492 106.382 25.4666 104.344 26.4717L104.344 26.4718L118.029 37.8497ZM95.5528 27.8343L95.5529 27.8341C96.3449 26.9151 97.2584 26.481 98.2271 26.3413C99.174 26.2049 100.155 26.3529 101.088 26.5508C101.088 26.5508 101.088 26.5508 101.088 26.5508L100.984 27.0399L95.5528 27.8343ZM95.5528 27.8343C95.4127 27.997 95.2721 28.101 95.1646 28.1354C95.1192 28.1499 95.0889 28.1493 95.0652 28.1437C95.0417 28.1383 94.9932 28.1206 94.9226 28.0525L94.9225 28.0524M95.5528 27.8343L94.9225 28.0524M94.9225 28.0524C94.816 27.9495 94.7942 27.8856 94.7889 27.8628C94.7843 27.8427 94.7823 27.8124 94.8055 27.7531C94.8315 27.6869 94.8814 27.6046 94.9634 27.4973C95.0181 27.4258 95.0702 27.3638 95.1284 27.2944C95.1639 27.2522 95.2017 27.2073 95.2437 27.1558L95.2438 27.1557M94.9225 28.0524L95.2438 27.1557M95.2438 27.1557C96.2711 25.8969 97.6078 25.4023 99.2043 25.6122L99.2044 25.6122M95.2438 27.1557L99.2044 25.6122M99.2044 25.6122C101.606 25.9277 103.898 25.8097 106.308 25.162C109.29 24.3611 111.803 25.7411 113.911 28.0933C115.71 30.1004 116.754 32.529 117.836 35.0467C117.962 35.3381 118.087 35.6306 118.215 35.9238L118.215 35.9239L99.2044 25.6122ZM122.692 21.8634L122.693 21.8634C122.956 22.2457 123.201 22.6695 123.432 23.0709C123.553 23.2817 123.671 23.4864 123.787 23.6757C126.373 27.917 125.402 32.1413 123.691 36.1417C123.691 36.1417 123.691 36.1417 123.691 36.1417L123.232 35.9451L122.692 21.8634ZM122.692 21.8634C122.029 20.9032 121.593 20.0389 121.466 19.1517C121.341 18.2806 121.507 17.3316 122.161 16.1859L121.727 15.9381M122.692 21.8634L121.727 15.9381M121.727 15.9381L122.161 16.1858C123.565 13.7244 123.197 10.842 121.394 8.4935C119.699 6.28424 117.626 4.47019 115.307 2.96944L115.307 2.96943M121.727 15.9381L115.307 2.96943M115.307 2.96943C114.318 2.32937 113.14 1.78113 111.878 1.75416L115.307 2.96943ZM92.1871 10.8265L92.1871 10.8265C91.9268 9.45323 92.469 8.40463 93.1824 7.53959C93.5323 7.11528 93.9358 6.71988 94.3149 6.34834L94.3217 6.34161C94.7104 5.96068 95.073 5.60479 95.3772 5.23484C97.157 3.07016 99.5109 2.01859 102.175 1.55587C103.849 1.26525 105.498 1.30267 107.109 1.41641C107.661 1.45536 108.203 1.50265 108.741 1.54952C109.794 1.64131 110.828 1.73147 111.878 1.75416L92.1871 10.8265ZM92.1871 10.8265C92.8146 14.1364 91.3822 16.2746 89.4014 19.0205C86.3742 23.2167 85.1452 28.2815 86.4322 33.585L86.4322 33.585M92.1871 10.8265L86.4322 33.585M86.4322 33.585C86.9769 35.8295 87.4126 38.0927 87.8509 40.3695C88.0371 41.3367 88.2238 42.3064 88.4195 43.2781C89.0734 46.5252 89.8246 49.7736 90.9879 52.9336C91.2259 53.5802 91.4424 54.2199 91.5875 54.8642L91.5876 54.8643M86.4322 33.585L91.5876 54.8643M91.5876 54.8643C92.7491 60.0172 96.401 63.2035 100.315 65.9394C101.679 66.8929 103.127 67.5209 104.624 67.5995C106.135 67.6788 107.643 67.1964 109.107 66.0242L109.108 66.024M91.5876 54.8643L109.108 66.024M109.108 66.024C109.222 65.9323 109.348 65.8467 109.482 65.766L109.482 65.766M109.108 66.024L109.482 65.766M109.482 65.766C109.685 65.644 109.81 65.5773 109.912 65.5561M109.482 65.766L109.912 65.5561M109.912 65.5561C109.952 65.5478 109.973 65.5507 109.984 65.5536M109.912 65.5561L109.984 65.5536M109.984 65.5536C109.994 65.5562 110.021 65.565 110.066 65.6071L109.984 65.5536Z" fill="#171717" stroke="white"/>
<path d="M85.3671 258.018L84.9572 258.304C82.5832 254.903 81.0672 251.34 81.6041 247.311C81.2919 244.006 81.6985 241.032 82.7077 238.153C85.4722 230.266 86.8589 222.053 87.8403 213.775C88.5916 207.438 90.5644 201.791 94.7856 196.893C96.9771 194.351 98.745 191.523 99.7601 188.305C100.215 186.864 101.053 185.649 101.918 184.542L101.918 184.542C102.04 184.387 102.167 184.183 102.313 183.943C102.325 183.924 102.337 183.904 102.349 183.884C102.479 183.669 102.624 183.432 102.774 183.223C102.935 182.999 103.135 182.758 103.379 182.599C103.646 182.425 103.993 182.337 104.363 182.492C104.727 182.645 104.946 182.922 105.035 183.255C105.116 183.555 105.084 183.872 105.032 184.141C104.978 184.417 104.89 184.703 104.813 184.954L104.81 184.963C104.73 185.223 104.662 185.441 104.625 185.628M85.3671 258.018L95.1643 197.22C97.3883 194.64 99.1966 191.754 100.237 188.455C100.664 187.103 101.456 185.946 102.312 184.85C102.466 184.653 102.619 184.402 102.775 184.146C103.195 183.455 103.637 182.73 104.17 182.953C104.823 183.228 104.566 184.06 104.327 184.832C104.251 185.078 104.177 185.317 104.135 185.531M85.3671 258.018L84.9572 258.304C86.6296 260.7 88.5049 262.905 90.4112 265.057C90.9327 265.646 91.4557 266.23 91.9777 266.813C93.3694 268.366 94.7532 269.911 96.0776 271.514L96.463 271.195M85.3671 258.018L96.463 271.195M104.625 185.628L104.135 185.531M104.625 185.628L104.135 185.531M104.625 185.628C102.957 194.071 102.731 202.407 105.461 210.656M104.135 185.531C102.456 194.027 102.221 202.456 104.986 210.813M105.461 210.656L104.986 210.813M105.461 210.656C105.461 210.656 105.461 210.656 105.461 210.656L104.986 210.813M105.461 210.656C105.872 211.897 106.107 213.219 106.334 214.497C106.429 215.031 106.522 215.557 106.627 216.067L106.137 216.167M104.986 210.813C105.385 212.018 105.61 213.282 105.834 214.544C105.931 215.087 106.027 215.63 106.137 216.167M106.137 216.167L106.627 216.067C106.678 216.316 106.726 216.563 106.773 216.808C106.935 217.64 107.091 218.443 107.344 219.205C107.667 220.174 108.132 221.023 108.922 221.685C109.517 222.184 109.859 222.709 109.938 223.309C110.014 223.888 109.832 224.446 109.595 224.978C107.841 228.922 106.844 233.067 105.834 237.263C105.46 238.817 105.084 240.378 104.667 241.938C104.068 244.185 103.835 246.385 104.389 248.649C104.876 250.644 105.174 252.671 105.467 254.672C105.489 254.816 105.51 254.96 105.531 255.104C105.848 257.254 106.176 259.374 106.745 261.448C107.414 263.888 107.334 266.445 107.183 268.884C107.017 271.563 105.536 273.606 103.816 275.3L103.816 275.3C103.021 276.084 102.255 276.57 101.418 276.509C100.595 276.45 99.8887 275.873 99.1798 275.068C98.9134 274.766 98.6444 274.464 98.3746 274.16C97.602 273.292 96.8223 272.415 96.0776 271.514L96.463 271.195M106.137 216.167C106.186 216.404 106.232 216.644 106.279 216.883C106.65 218.8 107.029 220.752 108.601 222.069C109.672 222.966 109.594 223.751 109.139 224.775C107.365 228.764 106.351 232.975 105.338 237.185C104.966 238.73 104.594 240.275 104.184 241.809C103.572 244.103 103.323 246.394 103.903 248.768C104.384 250.738 104.679 252.743 104.974 254.75C105.31 257.041 105.647 259.334 106.263 261.58C106.908 263.932 106.835 266.414 106.684 268.853C106.529 271.351 105.15 273.284 103.465 274.944C101.913 276.473 100.956 276.328 99.5549 274.738C99.2853 274.432 99.0142 274.127 98.7432 273.822C97.9724 272.956 97.2015 272.089 96.463 271.195" fill="#171717" stroke="white"/>
<path d="M111.189 289.767L110.691 289.719C110.956 286.993 111.355 284.281 111.751 281.584C111.854 280.882 111.957 280.181 112.057 279.481C112.545 276.083 112.975 272.698 113.088 269.281C113.104 268.772 113.118 268.26 113.131 267.744C113.2 265.12 113.27 262.425 113.799 259.839C114.638 255.741 114.561 251.659 114.484 248.643C114.298 244.411 114.453 241.343 114.786 238.292M111.189 289.767L115.614 233.749C114.786 234.242 114.702 235.214 114.715 235.982C114.72 236.277 114.742 236.591 114.763 236.89C114.77 237 114.778 237.109 114.785 237.213C114.81 237.616 114.821 237.978 114.786 238.292M111.189 289.767C111.453 287.055 111.849 284.359 112.245 281.662C112.847 277.56 113.45 273.457 113.587 269.297C113.604 268.781 113.618 268.264 113.631 267.745C113.7 265.121 113.769 262.478 114.289 259.939C115.141 255.777 115.061 251.641 114.984 248.625M111.189 289.767C111.086 290.821 111.001 291.878 110.916 292.935C110.68 295.865 110.444 298.797 109.833 301.685M111.189 289.767L110.691 289.719C110.587 290.792 110.501 291.86 110.415 292.923C110.18 295.843 109.948 298.728 109.344 301.582L109.833 301.685M111.189 289.767L114.984 248.625M114.786 238.292L115.283 238.347M114.786 238.292C114.786 238.292 114.786 238.292 114.786 238.292L115.283 238.347M115.283 238.347C114.952 241.374 114.798 244.418 114.984 248.625M115.283 238.347C115.333 237.887 115.297 237.363 115.261 236.842L114.984 248.625M109.833 301.685L109.344 301.582C109.192 302.3 109.31 303.004 109.521 303.643C110.197 305.683 111.77 307.361 113.664 308.426C115.558 309.491 117.819 309.971 119.912 309.562L109.833 301.685ZM135.399 240.088C135.858 240.346 136.242 240.567 136.535 240.784C136.832 241.004 137.08 241.253 137.222 241.586C137.364 241.919 137.372 242.273 137.32 242.648C137.269 243.017 137.153 243.456 137.002 243.983C135.788 248.225 135.293 252.571 134.909 257.002C134.238 264.733 133.2 272.442 130.817 279.93L130.34 279.779L130.817 279.93C128.735 286.471 126.847 293.073 125.149 299.725L124.664 299.602L115.614 233.749C116.421 233.269 117.353 233.443 118.148 233.712C118.557 233.851 118.969 234.029 119.357 234.198C119.384 234.211 119.412 234.223 119.439 234.235C119.803 234.394 120.142 234.542 120.465 234.658C120.513 234.675 120.561 234.693 120.609 234.71C122.804 235.501 124.841 236.235 127.049 235.775M135.399 240.088C135.399 240.088 135.399 240.088 135.399 240.088L135.154 240.524L135.399 240.088ZM135.399 240.088C134.451 239.555 133.459 239.15 132.375 238.89L132.375 238.89C131.081 238.58 129.964 237.983 129.228 236.898M129.228 236.898C129.032 236.608 128.789 236.254 128.446 236.016C128.067 235.753 127.61 235.658 127.049 235.775M129.228 236.898C129.228 236.898 129.228 236.898 129.228 236.898L128.814 237.179L129.228 236.898ZM127.049 235.775C127.049 235.775 127.049 235.775 127.049 235.775L127.151 236.264L127.049 235.775Z" fill="#171717" stroke="white"/>
<path d="M143.83 96.2988C144.299 97.7314 144.896 99.1513 145.828 100.418C147.382 102.529 147.677 104.855 147.216 107.474C146.774 109.981 146.099 112.432 145.406 114.904C145.371 115.031 145.335 115.158 145.299 115.285C144.643 117.625 143.979 119.989 143.508 122.404C142.542 127.36 141.564 132.398 142.657 137.601L143.146 137.498L142.657 137.601C142.997 139.22 143.576 140.707 144.499 142.087C145.616 143.759 147.165 144.697 148.803 144.772C150.443 144.848 152.076 144.056 153.352 142.467C154.517 141.017 155.579 139.357 156.099 137.522L156.099 137.522C157.258 133.428 158.382 129.238 158.349 124.49L158.349 124.459L158.345 124.429C158.146 122.892 158.049 121.299 157.948 119.656C157.917 119.154 157.887 118.647 157.852 118.135C157.707 115.962 157.503 113.723 157.003 111.502C156.375 108.71 156.671 105.877 156.974 102.972C156.997 102.749 157.02 102.526 157.043 102.303L157.043 102.303C157.212 100.659 157.137 99.0632 156.621 97.4639C155.158 92.9244 154.115 88.2951 153.543 83.5604C153.446 82.7524 153.258 81.9382 152.987 81.169L152.987 81.1689C152.451 79.6531 151.52 78.5736 150.304 78.0892C149.087 77.604 147.679 77.7528 146.268 78.5045C146.071 78.6097 145.87 78.7141 145.668 78.8194C143.763 79.8106 141.707 80.8801 140.771 83.4646L140.771 83.4646C140.594 83.9547 140.235 84.3584 139.781 84.8673C139.717 84.9398 139.65 85.0145 139.582 85.0919C139.065 85.6793 138.492 86.3904 138.298 87.384L138.298 87.384C138.191 87.9306 138.102 88.5056 138.222 89.023C138.355 89.5947 138.723 90.0313 139.36 90.3356C141.841 91.5222 142.981 93.7035 143.83 96.2988ZM143.83 96.2988L144.306 96.1433M143.83 96.2988L144.306 96.1433M144.306 96.1433C143.444 93.51 142.246 91.1616 139.575 89.8845C138.53 89.3849 138.572 88.5864 138.788 87.48L146.231 100.122C145.343 98.9157 144.767 97.5522 144.306 96.1433Z" fill="#171717" stroke="white"/>
<path d="M106.444 311.386L106.447 311.345C106.469 311.065 106.486 310.766 106.503 310.455C106.547 309.682 106.594 308.836 106.741 308.028L106.741 308.027C106.912 307.087 107.477 305.979 108.474 305.574L106.444 311.386ZM106.444 311.386L106.447 311.427M106.444 311.386L106.447 311.427M106.447 311.427C106.48 311.814 106.496 312.182 106.512 312.554C106.522 312.768 106.531 312.984 106.544 313.205C106.577 313.793 106.634 314.392 106.783 314.978L106.783 314.978M106.447 311.427L106.783 314.978M106.783 314.978C107.942 319.536 107.452 324.107 106.793 328.749C106.144 333.323 108.136 336.856 110.789 340.049C111.295 340.659 112.05 341.092 112.885 341.376C113.725 341.663 114.682 341.811 115.636 341.825C117.509 341.852 119.53 341.358 120.621 340.177L120.621 340.177M106.783 314.978L120.621 340.177M120.621 340.177C124.403 336.085 126.882 331.6 125.261 325.585L124.779 325.715M120.621 340.177L124.779 325.715M124.779 325.715L125.261 325.585C124.118 321.342 123.336 316.995 122.7 312.617C122.629 312.125 122.557 311.711 122.454 311.383C122.351 311.055 122.2 310.749 121.927 310.536C121.649 310.318 121.321 310.254 120.99 310.249C120.665 310.244 120.278 310.296 119.836 310.366M124.779 325.715L110.709 306.975M110.709 306.975L110.709 306.975C113.246 309.631 116.169 310.952 119.836 310.366M110.709 306.975C110.626 306.888 110.541 306.762 110.429 306.584M110.709 306.975L110.429 306.584M119.836 310.366L119.915 310.86L119.836 310.366ZM110.429 306.584C110.417 306.566 110.406 306.548 110.394 306.529M110.429 306.584L110.394 306.529M110.394 306.529C110.299 306.377 110.183 306.192 110.053 306.032M110.394 306.529L110.053 306.032M110.053 306.032C109.905 305.85 109.703 305.65 109.423 305.542M110.053 306.032L109.423 305.542M109.423 305.542C109.125 305.427 108.803 305.44 108.474 305.574L109.423 305.542Z" fill="#171717" stroke="white"/>
<path d="M102.875 276.89L102.876 276.89C105.048 275.394 106.47 273.621 107.284 271.596C108.099 269.566 108.317 267.25 108.026 264.652C107.869 263.246 107.568 261.869 107.245 260.409C107.234 260.363 107.224 260.317 107.214 260.27C106.902 258.866 106.574 257.388 106.351 255.772C106.219 255.23 106.374 254.708 106.671 254.267C106.971 253.823 107.43 253.434 107.965 253.119L107.966 253.119C109.105 252.448 110.307 252.432 111.449 253.13C112.016 253.477 112.573 253.896 112.962 254.45C113.363 255.02 113.569 255.709 113.466 256.548L102.875 276.89ZM102.875 276.89C102.619 277.067 102.256 277.319 102.061 277.669C101.953 277.863 101.893 278.091 101.921 278.346C101.947 278.593 102.052 278.827 102.207 279.049C103.184 280.443 103.9 281.982 104.623 283.57C104.658 283.647 104.693 283.724 104.728 283.801C105.411 285.305 106.113 286.849 107.048 288.275M102.875 276.89L107.048 288.275M107.048 288.275C107.075 288.316 107.102 288.358 107.13 288.4C107.339 288.721 107.564 289.066 107.82 289.386L107.82 289.386C107.963 289.566 108.122 289.73 108.295 289.852C108.466 289.972 108.689 290.077 108.948 290.068C109.519 290.046 109.812 289.53 109.967 289.059C109.967 289.059 109.967 289.059 109.967 289.059L109.492 288.903M107.048 288.275L112.719 258.108C112.562 259.031 112.405 259.952 112.376 260.878C112.155 267.951 111.284 274.958 110.412 281.964C110.167 283.935 109.922 285.907 109.691 287.88C109.651 288.225 109.599 288.575 109.492 288.903M109.492 288.903C109.193 289.813 108.717 289.709 108.211 289.074L109.492 288.903Z" fill="#171717" stroke="white"/>
<path d="M132.077 174.247L132.134 174.263C132.552 174.381 132.969 174.504 133.388 174.628C134.343 174.912 135.304 175.196 136.291 175.412L132.077 174.247ZM132.077 174.247L132.018 174.245M132.077 174.247L132.018 174.245M132.018 174.245C131.55 174.227 131.057 174.302 130.719 174.622M132.018 174.245L130.719 174.622M137.711 178.146L137.711 178.146C137.295 179.257 136.725 180.273 136.145 181.247C136.012 181.469 135.88 181.689 135.748 181.906C135.297 182.654 134.856 183.384 134.47 184.148L137.711 178.146ZM137.711 178.146C137.93 177.562 138.053 176.949 137.81 176.415M137.711 178.146L137.81 176.415M130.719 174.622C130.344 174.976 130.305 175.479 130.436 175.965L130.719 174.622ZM137.81 176.415C137.556 175.856 136.991 175.565 136.291 175.412L137.81 176.415ZM130.436 175.965C131.156 178.652 131.911 181.329 132.684 184C132.791 184.369 133.054 184.825 133.574 184.819C134.027 184.814 134.321 184.442 134.469 184.148L130.436 175.965Z" fill="#171717" stroke="white"/>
<path d="M117.972 192.898L117.971 192.898C117.776 192.927 117.582 192.905 117.405 192.82C117.232 192.736 117.112 192.61 117.03 192.49C116.901 192.299 116.829 192.06 116.789 191.927C116.783 191.91 116.779 191.895 116.775 191.882L117.972 192.898ZM117.972 192.898C118.161 192.87 118.273 192.753 118.318 192.7C118.369 192.638 118.402 192.575 118.422 192.531C118.464 192.441 118.492 192.34 118.513 192.255C118.554 192.082 118.581 191.876 118.585 191.714L118.585 191.714M117.972 192.898L118.585 191.714M118.585 191.714C118.634 189.614 118.871 187.528 119.111 185.416M118.585 191.714L119.111 185.416M116.021 176.641L116.021 176.641C116.055 176.435 116.084 176.207 116.116 175.959C116.131 175.843 116.147 175.721 116.164 175.595C116.215 175.215 116.277 174.806 116.372 174.434C116.465 174.07 116.6 173.689 116.824 173.398C117.066 173.083 117.427 172.859 117.901 172.894L116.021 176.641ZM116.021 176.641C115.69 178.636 115.546 180.666 115.659 182.32L116.021 176.641ZM119.111 185.416C119.151 185.062 119.192 184.708 119.231 184.352M119.111 185.416L119.231 184.352M119.231 184.352C119.505 181.886 119.74 179.385 119.622 176.853M119.231 184.352L119.622 176.853M119.622 176.853C119.613 176.648 119.612 176.434 119.611 176.202C119.61 176.068 119.609 175.928 119.607 175.78C119.601 175.394 119.583 174.977 119.514 174.59C119.445 174.208 119.319 173.806 119.063 173.484C118.791 173.143 118.402 172.931 117.901 172.894L119.622 176.853ZM116.514 176.723L116.514 176.723L116.514 176.723Z" fill="#171717" stroke="white"/>
</svg>
