<svg width="130" height="130" viewBox="0 0 130 130" fill="none" xmlns="http://www.w3.org/2000/svg">
<path d="M59.1333 66.7333L109.4 16.4667L125 13L121.533 28.6L71.2666 78.8667" fill="#CCCCCC"/>
<path d="M66.0669 73.6667L111.134 28.6H121.534L71.2669 78.8667L66.0669 73.6667Z" fill="#B5B5B5"/>
<path d="M43.5333 78.8667L22.2255 100.175C21.8369 100.563 21.5287 101.024 21.3185 101.532C21.1082 102.04 21 102.584 21 103.133C21 103.683 21.1082 104.227 21.3185 104.735C21.5287 105.242 21.8369 105.704 22.2255 106.092L31.9079 115.775C32.2964 116.163 32.7577 116.471 33.2654 116.682C33.7731 116.892 34.3172 117 34.8667 117C35.4162 117 35.9603 116.892 36.4679 116.682C36.9756 116.471 37.4369 116.163 37.8255 115.775L59.1333 94.4667" fill="#474747"/>
<path d="M33.123 89.2601L38.3227 84.0604L53.9204 99.6582L48.7208 104.858L33.123 89.2601Z" fill="#939393"/>
<path d="M27.9229 94.4601L33.1225 89.2604L48.7202 104.858L43.5206 110.058L27.9229 94.4601Z" fill="#686868"/>
<path d="M48.2256 66.2255L71.7747 89.7745C72.1632 90.1631 72.4714 90.6244 72.6817 91.1321C72.892 91.6397 73.0002 92.1838 73.0002 92.7333C73.0002 93.2828 72.892 93.8269 72.6817 94.3346C72.4714 94.8423 72.1632 95.3036 71.7747 95.6921L69.0256 98.4412C68.6371 98.8297 68.1758 99.1379 67.6681 99.3482C67.1604 99.5585 66.6163 99.6667 66.0668 99.6667C65.5173 99.6667 64.9732 99.5585 64.4655 99.3482C63.9579 99.1379 63.4966 98.8297 63.108 98.4412L39.559 74.8921C39.1704 74.5036 38.8622 74.0423 38.652 73.5346C38.4417 73.0269 38.3335 72.4828 38.3335 71.9333C38.3335 71.3838 38.4417 70.8397 38.652 70.3321C38.8622 69.8244 39.1704 69.3631 39.559 68.9745L42.308 66.2255C42.6966 65.8369 43.1579 65.5287 43.6655 65.3185C44.1732 65.1082 44.7173 65 45.2668 65C45.8163 65 46.3604 65.1082 46.8681 65.3185C47.3758 65.5287 47.8371 65.8369 48.2256 66.2255Z" fill="#939393"/>
<path d="M45.2669 65C44.7174 65 44.1733 65.1082 43.6656 65.3185C43.1579 65.5287 42.6967 65.8369 42.3081 66.2255L40.0669 68.4667L63.1081 91.5079C63.4966 91.8964 63.9579 92.2047 64.4656 92.415C64.9733 92.6253 65.5174 92.7335 66.0669 92.7335C66.6164 92.7335 67.1605 92.6253 67.6682 92.415C68.1759 92.2047 68.6371 91.8964 69.0257 91.5079L71.2669 89.2667L48.2257 66.2255C47.8371 65.8369 47.3758 65.5287 46.8682 65.3185C46.3605 65.1082 45.8164 65 45.2669 65Z" fill="#474747"/>
<path d="M52.2002 70.2L57.4002 65L73.0002 80.6L67.8002 85.8" fill="#474747"/>
<path d="M54.7998 67.6L66.5743 79.3745C66.8994 79.6995 67.3402 79.882 67.7998 79.882C68.2594 79.882 68.7002 79.6995 69.0253 79.3745L70.3998 78L57.3998 65L54.7998 67.6Z" fill="#565656"/>
</svg>
