<svg width="130" height="130" viewBox="0 0 130 130" fill="none" xmlns="http://www.w3.org/2000/svg">
<path d="M85.9077 65.5952L79.2188 72.2841L72.5299 65.5952L69.6577 68.4673L76.3466 75.1562L67.6265 83.8764L70.4987 86.7486L88.7799 68.4673L85.9077 65.5952Z" fill="#686868"/>
<path d="M77.1777 34.5374L85.3029 26.4121L93.4282 34.5374L85.3029 42.6626L77.1777 34.5374Z" fill="#B5B5B5"/>
<path d="M77.1875 34.5312L44.6875 67.0312V73.125L54.8438 83.2812L85.3125 52.8125V42.6562" fill="#939393"/>
<path d="M44.6875 73.125L40.625 83.2812L12.1875 111.719L28.4355 125.938L38.5938 115.781L46.7188 91.4062L54.8438 83.2812" fill="#686868"/>
<path d="M93.4375 34.5312L117.812 10.1562L111.719 4.0625L87.3438 28.4375" fill="#CCCCCC"/>
<path d="M90.3906 25.3906L92.0014 27.0014C92.3823 27.3822 92.8989 27.5961 93.4375 27.5961C93.9761 27.5961 94.4927 27.3822 94.8736 27.0014L114.766 7.10938L111.719 4.0625L90.3906 25.3906Z" fill="#D8D8D8"/>
<path d="M85.3125 52.8125L93.0881 60.5881C93.8427 61.3429 94.7385 61.9416 95.7245 62.3501C96.7105 62.7586 97.7673 62.9688 98.8345 62.9688H111.719V75.1562H98.1378C96.0038 75.1563 93.8907 74.7361 91.9191 73.9195C89.9475 73.1029 88.156 71.906 86.647 70.397L77.1875 60.9375" fill="#474747"/>
<path d="M54.8438 83.2812L58.5569 86.9944C59.3116 87.7489 59.9104 88.6448 60.3188 89.6308C60.7273 90.6167 60.9375 91.6735 60.9375 92.7408V105.625H71.0938V83.2812L62.9688 75.1562" fill="#474747"/>
<path d="M69.0625 42.6562L75.1562 48.75L56.875 67.0312L50.7812 60.9375" fill="#686868"/>
<path d="M53.8281 57.8906L55.4389 59.5014C55.8198 59.8822 56.3364 60.0961 56.875 60.0961C57.4136 60.0961 57.9302 59.8822 58.3111 59.5014L72.1094 45.7031L69.0625 42.6562L53.8281 57.8906Z" fill="#727272"/>
<path d="M87.9272 19.7261L90.7999 16.8535L94.8618 20.9153L91.9891 23.788L87.9272 19.7261Z" fill="#B5B5B5"/>
</svg>
