<svg width="130" height="130" viewBox="0 0 130 130" fill="none" xmlns="http://www.w3.org/2000/svg">
<path d="M66.2445 79.8821H66.6861C69.8625 79.8819 72.909 78.6204 75.1556 76.3749L76.6075 74.9214H76.3247C74.8418 74.9215 73.3733 74.6295 72.0033 74.062C70.6332 73.4946 69.3883 72.6628 68.3396 71.6143L63.3789 76.575L66.2445 79.8821Z" fill="#939393"/>
<path d="M78.2608 58.3857L104.032 32.6131C104.652 31.993 105 31.1519 105 30.275C105 29.3981 104.652 28.557 104.032 27.9368L101.411 25.3143L75.6382 51.0868C75.0182 51.707 74.6699 52.5481 74.6699 53.425C74.6699 54.3019 75.0182 55.143 75.6382 55.7631L78.2608 58.3857Z" fill="#939393"/>
<path d="M101.411 25.3143L75.7808 50.9446L78.2611 53.425L103.891 27.7946L101.411 25.3143Z" fill="#B5B5B5"/>
<path d="M63.379 76.575L81.8494 97.8879C82.6709 98.8359 83.1027 100.06 83.058 101.314C83.0132 102.567 82.4951 103.757 81.608 104.644L73.1996 113.053C72.2046 114.048 70.8549 114.607 69.4477 114.607C68.5944 114.607 67.7539 114.401 66.9971 114.007C66.2404 113.613 65.5897 113.042 65.1004 112.343L55.1112 98.0714C54.4598 97.4199 53.6864 96.903 52.8353 96.5503C51.9841 96.1977 51.0718 96.0162 50.1505 96.0162C49.2291 96.0162 48.3168 96.1977 47.4657 96.5503C46.6145 96.903 45.8411 97.4199 45.1898 98.0714L33.6147 86.4964V76.575L94.7969 15.3928L103.065 23.6607L75.6386 51.0868C75.0186 51.707 74.6703 52.548 74.6703 53.425C74.6703 54.3019 75.0186 55.1429 75.6386 55.7631L79.9148 60.0393L63.379 76.575Z" fill="#686868"/>
<path d="M74.468 89.3191L72.1299 86.9809L80.2969 78.8139C80.6994 78.4115 81.0187 77.9336 81.2366 77.4078C81.4544 76.8819 81.5666 76.3182 81.5666 75.749C81.5666 75.1798 81.4544 74.6162 81.2366 74.0903C81.0187 73.5644 80.6994 73.0866 80.2969 72.6841L73.7835 66.1691L76.1216 63.8309L82.6367 70.3443C84.0693 71.7778 84.8741 73.7215 84.8741 75.7482C84.8741 77.7749 84.0693 79.7186 82.6367 81.1521L74.468 89.3191Z" fill="#474747"/>
<path d="M55.5942 83.6738L43.1924 96.0756L45.1899 98.0714C45.8018 97.4662 46.5206 96.9795 47.3098 96.6361L57.934 86.0119L55.5942 83.6738Z" fill="#B5B5B5"/>
<path d="M45.6631 64.5134L48.0012 62.1753L56.2678 70.4418L53.9296 72.78L45.6631 64.5134Z" fill="#B5B5B5"/>
<path d="M50.624 59.5544L52.9622 57.2162L61.2287 65.4827L58.8906 67.8209L50.624 59.5544Z" fill="#B5B5B5"/>
<path d="M40.7026 69.4741L43.0408 67.136L51.3073 75.4025L48.9692 77.7407L40.7026 69.4741Z" fill="#B5B5B5"/>
<path d="M35.7417 74.4332L38.0799 72.095L46.3464 80.3616L44.0082 82.6997L35.7417 74.4332Z" fill="#B5B5B5"/>
<path d="M64.6426 111.689L74.9526 101.379L65.0312 89.8036L55.791 99.0437" fill="#B5B5B5"/>
<path d="M57.8325 97.0016L62.3865 103.498C62.6633 103.894 63.0235 104.225 63.4418 104.466C63.86 104.708 64.3261 104.855 64.8073 104.897C65.2885 104.94 65.7731 104.876 66.227 104.711C66.681 104.546 67.0932 104.283 67.4348 103.942L72.6684 98.708L65.0322 89.8036L57.8325 97.0016Z" fill="#C4C4C4"/>
<path d="M33.6145 76.575H33.3301C31.8474 76.5755 30.3791 76.2836 29.0092 75.7162C27.6393 75.1487 26.3947 74.3167 25.3467 73.2679V74.9214C25.3467 77.1142 26.2178 79.2172 27.7683 80.7677C29.3188 82.3182 31.4218 83.1893 33.6145 83.1893" fill="#939393"/>
</svg>
