<svg width="130" height="130" viewBox="0 0 130 130" fill="none" xmlns="http://www.w3.org/2000/svg">
<path d="M32.5 103.594L42.6562 113.75L48.75 107.656L38.5938 97.5" fill="#474747"/>
<path d="M35.5317 100.54L38.5782 97.494L45.6879 104.604L42.6415 107.65L35.5317 100.54Z" fill="#939393"/>
<path d="M75.1562 22.3438L69.0625 16.25L62.9688 22.3438V34.5312" fill="#939393"/>
<path d="M76.5924 86.7486L73.7202 83.8764L82.4404 75.1562C82.7072 74.8895 82.9188 74.5729 83.0632 74.2243C83.2076 73.8758 83.2819 73.5023 83.2819 73.125C83.2819 72.7477 83.2076 72.3742 83.0632 72.0257C82.9188 71.6771 82.7072 71.3605 82.4404 71.0937L73.7222 62.3736L76.5944 59.5014L85.3126 68.2216C86.613 69.5221 87.3436 71.2859 87.3436 73.125C87.3436 74.9641 86.613 76.7279 85.3126 78.0284L76.5924 86.7486Z" fill="#686868"/>
<path d="M77.1874 75.1563C75.6322 75.1608 74.0914 74.8567 72.6546 74.2615C71.2177 73.6663 69.9132 72.7919 68.8167 71.6889L66.8931 69.7653L69.7673 66.8931L71.6888 68.8167C72.4091 69.5413 73.266 70.1156 74.2099 70.5065C75.1537 70.8974 76.1658 71.097 77.1874 71.0938V75.1563Z" fill="#474747"/>
<path d="M42.6562 93.4375C45.232 93.4374 47.7825 93.9447 50.1623 94.9303C52.542 95.9159 54.7042 97.3606 56.5256 99.1819L77.1875 119.844L89.9702 107.061C90.4255 106.606 90.7866 106.065 91.0331 105.47C91.2795 104.875 91.4063 104.238 91.4062 103.594C91.4063 102.95 91.2795 102.312 91.0331 101.717C90.7866 101.122 90.4255 100.582 89.9702 100.126L62.9688 73.125" fill="#474747"/>
<path d="M71.0938 113.75L77.1875 107.656L52.8125 83.2812L42.6562 93.4375C45.232 93.4374 47.7825 93.9447 50.1623 94.9303C52.542 95.9159 54.7042 97.3606 56.5256 99.1819L71.0938 113.75Z" fill="#939393"/>
<path d="M89.375 107.656L99.5312 117.812L91.4062 125.938L81.25 115.781" fill="#686868"/>
<path d="M15.6406 86.7344L32.5 103.594L98.0525 40.0156C98.5195 39.5647 98.8911 39.0245 99.1451 38.4271C99.3991 37.8297 99.5304 37.1873 99.5312 36.5381C99.531 35.9018 99.4052 35.2719 99.1613 34.6842C98.9173 34.0966 98.5598 33.5628 98.1094 33.1134L81.25 16.25L15.6934 79.8281C15.228 80.2796 14.8577 80.8197 14.6044 81.4166C14.3511 82.0135 14.22 82.6552 14.2188 83.3036C14.219 84.5905 14.7305 85.8246 15.6406 86.7344Z" fill="#686868"/>
<path d="M87.1528 50.5903L107.656 71.0937L115.781 62.9687L95.4038 42.5912" fill="#939393"/>
<path d="M109.688 56.875L101.562 65L107.656 71.0938L115.781 62.9688L109.688 56.875Z" fill="#686868"/>
<path d="M87.3436 22.3438L52.8123 56.875H46.7186L43.0928 53.2492L81.2498 16.25L87.3436 22.3438Z" fill="#474747"/>
<path d="M40.7609 95.6048L44.6873 91.7739V75.1562L32.7801 63.2491L20.4058 75.2497L40.7487 95.5926L40.7609 95.6048Z" fill="#474747"/>
<path d="M26.4995 73.7019L44.6284 91.8308L44.6873 91.7739V75.1562L34.9962 65.4651L26.4995 73.7019Z" fill="#939393"/>
<path d="M83.2812 18.2812L97.5 4.0625L105.625 12.1875L91.4062 26.4062" fill="#939393"/>
<path d="M86.3281 15.2344L88.5341 17.4403C89.2959 18.2019 90.329 18.6298 91.4062 18.6298C92.4835 18.6298 93.5166 18.2019 94.2784 17.4403L102.578 9.14062L97.5 4.0625L86.3281 15.2344Z" fill="#A5A5A5"/>
</svg>
