<svg width="1868" height="646" viewBox="0 0 1868 646" fill="none" xmlns="http://www.w3.org/2000/svg">
<path fill-rule="evenodd" clip-rule="evenodd" d="M497.542 29.9719C496.686 37.5564 493.985 57.2806 491.539 73.8031C486.871 105.377 483.524 110.404 479.169 92.3823C477.278 84.5641 477.527 81.9875 480.295 80.5982C482.967 79.2573 484.308 69.2983 485.724 40.2402C486.762 19.0214 487.765 1.18745 487.955 0.608562C488.144 0.0296743 490.73 3.29672 493.7 7.86888C498.206 14.805 498.844 18.4657 497.542 29.9719ZM795.715 34.8156C794.771 52.4706 793.894 95.8093 793.77 131.121C793.645 166.434 793.386 203.609 793.196 213.732C792.761 236.875 797.012 238.083 800.962 215.938C803.699 200.603 803.616 189.172 800.636 170.917C799.57 164.381 800.298 163.017 805.974 160.918C809.59 159.582 818.258 158.487 825.241 158.487C835.845 158.487 843.958 155.763 840.446 153.38C839.152 152.502 812.194 155.649 804.832 157.538L798.662 159.121L800.589 80.9161C801.837 30.2392 801.621 2.7136 799.974 2.7136C798.504 2.7136 796.711 16.2259 795.715 34.8156ZM1240.94 4.16398C1243.43 4.69445 1247.52 4.69445 1250.02 4.16398C1252.51 3.63562 1250.47 3.20198 1245.48 3.20198C1240.48 3.20198 1238.44 3.63562 1240.94 4.16398ZM707.252 7.99937C678.229 10.5865 678.468 11.2938 708.549 11.8664L725.409 12.1863L726.221 19.0277C726.825 24.1156 728.298 25.8691 731.966 25.8691C741.366 25.8691 742.295 31.8685 739.675 75.6535C738.3 98.6363 737.154 119.569 737.128 122.175C737.094 125.495 735.53 126.911 731.893 126.911C724.965 126.911 724.387 138.742 731.245 140.196C734.788 140.948 734.55 141.211 730.163 141.403C727.074 141.537 723.956 140.464 723.235 139.015C721.227 134.976 721.881 144.002 724.112 151.119L726.091 157.434L726.4 151.471C726.592 147.709 727.904 145.829 729.948 146.383C731.733 146.865 733.074 148.366 732.931 149.715C732.788 151.067 732.498 156.435 732.282 161.645C731.943 169.924 731.157 171.136 726.057 171.265C720.488 171.406 720.46 171.496 725.409 173.222C735.66 176.797 737.071 175.74 737.341 164.276C737.538 155.835 738.062 154.466 739.561 158.487L741.524 163.75L743.057 158.487C745.69 149.456 746.704 128.888 744.57 127.817C742.528 126.793 743.944 68.3574 746.409 51.8054C747.706 43.0989 747.809 43.021 756.667 44.1872C762.449 44.9493 765.613 44.524 765.613 42.9852C765.613 41.6759 762.083 40.6044 757.767 40.6044C751.049 40.6044 749.687 39.6551 748.294 34.0072C747.257 29.7929 744.009 26.1828 739.299 24.0083C730.677 20.0297 729.738 14.3671 737.081 10.6454C742.894 7.69836 743.97 4.65236 739.026 5.13652C737.245 5.31123 722.945 6.59951 707.252 7.99937ZM1478.92 15.3439C1478.92 21.1328 1480.09 25.8691 1481.52 25.8691C1482.94 25.8691 1484.11 21.1328 1484.11 15.3439C1484.11 9.55501 1482.94 4.81865 1481.52 4.81865C1480.09 4.81865 1478.92 9.55501 1478.92 15.3439ZM749.853 14.003C753.313 17.0553 756.665 19.554 757.303 19.554C759.863 19.554 750.652 10.2476 747.233 9.3824C745.215 8.87087 746.396 10.9485 749.853 14.003ZM584.044 15.3439C584.044 18.1499 582.314 19.554 578.856 19.554C576.003 19.554 573.669 20.8654 573.669 22.4653C573.669 24.0672 576.003 25.8733 578.856 26.4796C584.765 27.7321 585.943 32.1842 580.366 32.1842C578.343 32.1842 574.841 32.7589 572.584 33.462C569.142 34.5335 568.481 32.8347 568.481 22.9368C568.481 11.2264 568.541 11.1338 576.262 11.1338C582.314 11.1338 584.044 12.0684 584.044 15.3439ZM1468.59 22.1853C1468.57 27.6858 1469.71 32.1842 1471.14 32.1842C1474.46 32.1842 1474.46 19.5056 1471.14 15.3439C1469.32 13.0599 1468.61 14.9544 1468.59 22.1853ZM1262.93 18.7204C1262.07 19.4193 1259.83 19.495 1257.96 18.8867C1255.89 18.2152 1256.5 17.7163 1259.53 17.6152C1262.26 17.5247 1263.79 18.0215 1262.93 18.7204ZM1460.77 30.0792C1460.77 35.8681 1461.93 40.6044 1463.36 40.6044C1464.79 40.6044 1465.95 35.8681 1465.95 30.0792C1465.95 24.2903 1464.79 19.554 1463.36 19.554C1461.93 19.554 1460.77 24.2903 1460.77 30.0792ZM1633.28 33.2368C1635.24 48.8562 1636.87 53.6221 1639.76 52.1717C1640.99 51.5549 1642.72 55.5671 1643.6 61.0887C1644.48 66.6102 1645.58 72.7043 1646.06 74.6304C1646.94 78.2132 1640.86 80.5161 1630.39 80.5708C1624.09 80.6045 1564.2 95.0536 1561.28 97.2449C1560.21 98.0469 1563.71 98.71 1569.06 98.7184C1574.41 98.7268 1580.17 97.628 1581.85 96.2766C1585.8 93.1085 1626.49 84.8104 1638.07 84.8104C1648.23 84.8104 1650.48 87.6333 1648.47 97.8449C1646.17 109.545 1652.04 173.692 1655.58 175.464C1659.49 177.428 1663.17 229.031 1662.47 272.16C1661.99 301.866 1663.85 312.178 1668.49 305.455C1671.1 301.662 1672.09 174.216 1669.63 158.487C1668.63 152.119 1663.84 130.145 1658.97 109.656C1654.1 89.1658 1650.12 69.4394 1650.12 65.8208C1650.12 59.2046 1639.08 30.0139 1634.27 23.8904C1632.48 21.6169 1632.18 24.4924 1633.28 33.2368ZM698.173 27.9742C698.173 29.1319 699.411 30.0792 700.92 30.0792C702.43 30.0792 702.946 29.1319 702.064 27.9742C701.182 26.8164 699.948 25.8691 699.317 25.8691C698.687 25.8691 698.173 26.8164 698.173 27.9742ZM1456.08 31.1317C1456.14 34.6051 1456.72 35.7713 1457.38 33.7231C1458.03 31.6749 1457.99 28.833 1457.28 27.4079C1456.57 25.9828 1456.03 27.6584 1456.08 31.1317ZM612.576 30.0792C617.886 31.4601 616.856 31.8032 606.893 31.9737C600.201 32.0895 594.004 31.237 593.122 30.0792C591.239 27.6079 603.065 27.6079 612.576 30.0792ZM685.204 30.0792C685.204 31.237 686.371 32.1842 687.798 32.1842C689.225 32.1842 690.392 31.237 690.392 30.0792C690.392 28.9214 689.225 27.9742 687.798 27.9742C686.371 27.9742 685.204 28.9214 685.204 30.0792ZM699.47 36.3944C700.352 37.5521 701.587 38.4994 702.217 38.4994C702.847 38.4994 703.361 37.5521 703.361 36.3944C703.361 35.2366 702.124 34.2893 700.614 34.2893C699.105 34.2893 698.588 35.2366 699.47 36.3944ZM710.206 35.7502C707.286 38.1205 708.429 40.6044 712.44 40.6044C714.579 40.6044 716.33 39.714 716.33 38.6236C716.33 35.9691 712.279 34.0683 710.206 35.7502ZM1541.17 41.657C1541.17 47.6206 1540.19 49.0246 1535.99 49.0246C1531.79 49.0246 1530.8 47.6206 1530.8 41.657C1530.8 35.6934 1531.79 34.2893 1535.99 34.2893C1540.19 34.2893 1541.17 35.6934 1541.17 41.657ZM583.11 63.5831C582.786 87.7849 584.098 95.9924 587.81 92.9801C588.453 92.458 589.797 79.512 590.791 64.2125L592.601 36.3944L599.348 36.4238C603.057 36.4386 608.841 37.049 612.2 37.7795C617.79 38.9941 618.145 39.8382 616.394 47.749C615.344 52.5022 613.762 66.3386 612.882 78.4953L611.279 100.598L591.825 101.798L572.372 102.998L592.474 103.377C608.405 103.678 612.576 104.41 612.576 106.913C612.576 108.65 613.666 110.071 614.996 110.071C618.236 110.071 621.491 118.365 620.633 124.427C620.251 127.113 621.792 132.479 624.057 136.352C626.321 140.224 628.915 149.158 629.823 156.203L631.472 169.012H619.829C613.424 169.012 597.397 168.391 584.207 167.631L560.232 166.25L561.82 157.632C562.694 152.892 563.789 139.068 564.25 126.911C564.715 114.755 564.637 111.201 564.079 119.017C563.493 127.25 561.892 133.226 560.274 133.226C558.427 133.226 557.963 128.776 558.907 120.07C559.69 112.835 561.659 92.2307 563.283 74.2852C564.906 56.3397 566.704 40.4739 567.277 39.0256C567.848 37.5795 571.728 36.3944 575.897 36.3944H583.473L583.11 63.5831ZM928.904 45.1618C925.867 53.7568 928.1 60.6466 936.19 67.6332L942.675 73.2326L938.444 66.4965C929.734 52.6243 934.704 37.7753 947.365 39.8551L954.028 40.9497L948.174 50.776C944.952 56.1797 943.412 60.9181 944.75 61.3034C946.088 61.6907 947.282 64.5325 947.401 67.6185C947.528 70.9213 948.913 68.4669 950.765 61.6549C956.015 42.339 958.025 40.6023 975.158 40.615L989.982 40.6255L982.999 45.3513C970.108 54.0767 964.126 67.0164 964.082 86.2797L964.043 103.537L956.565 89.9636C952.451 82.4991 947.995 76.3902 946.662 76.3902C943.718 76.3902 946.568 84.6568 951.014 89.0205C952.786 90.7572 954.9 94.3968 955.714 97.1081C957.143 101.859 957.016 101.903 952.189 98.3606C949.437 96.3376 947.183 93.62 947.183 92.3191C947.183 91.0203 945.139 88.4121 942.644 86.5239C929.132 76.306 920.321 63.2484 919.009 51.5002C917.683 39.6361 917.66 39.6088 915.919 47.7321C913.8 57.6174 917.561 69.2583 925.179 76.3902C938.525 88.8837 948.075 101.769 945.526 103.838C944.096 104.998 935.391 106.52 926.183 107.217C912.786 108.233 908.768 107.827 906.065 105.183C904.208 103.368 897.065 100.365 890.191 98.5122C875.033 94.4263 874.638 93.5043 874.592 62.1812L874.555 38.4994H902.906H931.257L928.904 45.1618ZM698.173 42.7095C698.173 43.8673 699.341 44.8145 700.767 44.8145C702.194 44.8145 703.361 43.8673 703.361 42.7095C703.361 41.5517 702.194 40.6044 700.767 40.6044C699.341 40.6044 698.173 41.5517 698.173 42.7095ZM685.204 44.8145C685.204 45.9723 686.371 46.9196 687.798 46.9196C689.225 46.9196 690.392 45.9723 690.392 44.8145C690.392 43.6567 689.225 42.7095 687.798 42.7095C686.371 42.7095 685.204 43.6567 685.204 44.8145ZM711.143 45.867C711.143 47.7974 712.398 49.0352 713.931 48.6205C715.464 48.2058 716.719 46.9659 716.719 45.867C716.719 44.7682 715.464 43.5284 713.931 43.1137C712.398 42.699 711.143 43.9367 711.143 45.867ZM727.274 49.0246C727.396 52.498 728.874 55.3398 730.56 55.3398C732.244 55.3398 733.623 52.498 733.623 49.0246C733.623 45.3324 732.259 42.7095 730.337 42.7095C728.368 42.7095 727.141 45.2377 727.274 49.0246ZM768.207 45.886C768.207 48.6205 782.186 59.293 784.349 58.2068C785.69 57.5332 783.558 54.2451 779.607 50.8981C773.029 45.3261 768.207 43.2063 768.207 45.886ZM1004.74 68.8373L1003.94 92.8706L991.125 95.3651C975.225 98.4616 974.486 100.876 989.738 99.891L1001.17 99.1521L1002.06 112.507C1002.55 119.851 1002.61 143.621 1002.19 165.328L1001.44 204.798H993.605H985.772L987.533 194.799C988.5 189.299 990.321 183.901 991.582 182.8C995.395 179.47 994.165 175.881 988.825 174.746C984.423 173.812 983.795 171.829 983.925 159.241C984.132 138.948 980.978 121.173 975.407 111.216C968.559 98.9816 968.738 72.7548 975.744 61.6086C980.418 54.1757 995.034 45.1998 1002.95 44.903C1004.58 44.8419 1005.25 53.742 1004.74 68.8373ZM1473.03 50.6034C1471.23 53.4179 1474.19 72.1801 1476.44 72.1801C1480.66 72.1801 1481.81 67.8564 1480.08 58.491C1478.48 49.8372 1475.59 46.6038 1473.03 50.6034ZM1255.64 54.582C1256.23 54.9987 1251.85 55.3398 1245.91 55.3398C1235.64 55.3398 1231.37 58.0742 1238.34 60.1751C1240.19 60.7329 1238.62 62.1117 1234.7 63.3789C1230.92 64.6041 1227.06 66.6102 1226.12 67.8395C1224.02 70.5929 1219.54 70.7845 1219.54 68.1195C1219.54 67.0459 1221.29 64.7451 1223.43 63.0085C1225.57 61.2718 1227.32 57.9332 1227.32 55.5903C1227.32 51.6938 1228.49 51.4349 1240.94 52.5758C1248.42 53.2621 1255.04 54.1652 1255.64 54.582ZM1287.16 65.3387C1287.26 73.1548 1288.27 81.4423 1289.41 83.7579C1291.72 88.4774 1278.58 105.53 1266.51 113.475L1259.74 117.931L1259.52 93.9989C1259.3 70.5845 1257.71 64.2294 1253.45 69.8162C1252.29 71.3444 1249.14 72.1696 1246.46 71.6517C1242.56 70.8981 1243.41 70.0309 1250.66 67.3301C1255.66 65.4714 1264.99 61.0697 1271.41 57.5501C1277.83 54.0283 1283.96 51.1444 1285.03 51.1381C1286.1 51.1339 1287.06 57.5227 1287.16 65.3387ZM685.593 57.3396C686.708 60.053 690.265 60.5413 690.586 58.0237C690.693 57.1838 689.38 56.1186 687.668 55.6555C685.956 55.1924 685.023 55.9502 685.593 57.3396ZM697.014 57.2659C696.179 58.3626 696.602 59.813 697.953 60.4908C699.304 61.1687 701.091 60.8255 701.927 59.7288C702.762 58.6321 702.339 57.1817 700.988 56.5039C699.636 55.826 697.849 56.1692 697.014 57.2659ZM710.097 57.1164C709.2 58.2952 709.729 59.893 711.272 60.6676C715.262 62.6674 717.835 59.9288 714.504 57.2259C712.642 55.7144 711.192 55.6787 710.097 57.1164ZM726.706 61.6549C726.706 62.8127 728.457 63.76 730.596 63.76C732.736 63.76 734.487 62.8127 734.487 61.6549C734.487 60.4971 732.736 59.5498 730.596 59.5498C728.457 59.5498 726.706 60.4971 726.706 61.6549ZM1463.36 68.8984C1463.36 74.041 1464.53 78.8321 1465.95 79.5478C1467.55 80.3498 1468.55 76.7628 1468.55 70.1993C1468.55 64.343 1467.38 59.5498 1465.95 59.5498C1464.53 59.5498 1463.36 63.7557 1463.36 68.8984ZM695.58 66.9175C695.58 68.8478 696.835 70.0856 698.368 69.6709C699.901 69.2562 701.156 68.0163 701.156 66.9175C701.156 65.8187 699.901 64.5788 698.368 64.1641C696.835 63.7494 695.58 64.9872 695.58 66.9175ZM709.143 68.3658C710.746 72.2685 716.33 72.9148 716.33 69.1973C716.33 67.3659 714.483 65.865 712.224 65.865C709.965 65.865 708.577 66.9891 709.143 68.3658ZM728.14 67.7911C727.305 68.8878 727.728 70.3382 729.079 71.0161C730.43 71.6939 732.218 71.3508 733.053 70.254C733.888 69.1573 733.465 67.7069 732.114 67.0291C730.763 66.3512 728.975 66.6944 728.14 67.7911ZM661.037 72.5759C660.21 74.2536 659.595 73.7547 659.47 71.3023C659.359 69.0836 659.971 67.8416 660.832 68.5405C661.693 69.2394 661.787 71.056 661.037 72.5759ZM684.317 71.496C679.721 75.2283 683.355 77.9206 692.986 77.9206C700.417 77.9206 703.361 77.0365 703.361 74.8051C703.361 72.6327 701.636 72.0559 697.66 72.9001C694.524 73.5653 690.623 73.2095 688.991 72.1107C687.36 71.0118 685.256 70.734 684.317 71.496ZM727.204 76.5481C727.715 77.7922 729.242 78.811 730.596 78.811C731.951 78.811 733.478 77.7922 733.989 76.5481C734.5 75.304 732.975 74.2852 730.596 74.2852C728.218 74.2852 726.693 75.304 727.204 76.5481ZM684.41 81.9455C682.338 83.6274 684.68 86.9154 687.951 86.9154C689.295 86.9154 690.392 85.4945 690.392 83.7579C690.392 80.5035 687.331 79.5752 684.41 81.9455ZM696.876 82.7054C695.995 83.8631 697.162 84.8104 699.47 84.8104C701.779 84.8104 702.946 83.8631 702.064 82.7054C701.182 81.5476 700.015 80.6003 699.47 80.6003C698.926 80.6003 697.758 81.5476 696.876 82.7054ZM724.654 97.066C725.315 111.164 726.049 113.281 730.513 113.974C734.817 114.641 735.105 114.264 732.35 111.572C729.717 108.995 729.733 108.164 732.433 107.284C734.998 106.45 735.024 106.153 732.542 106.027C730.76 105.937 729.3 104.44 729.3 102.703C729.3 100.967 730.76 99.531 732.542 99.5141C734.739 99.491 734.531 98.7626 731.893 97.2491C728.703 95.4177 728.638 94.8094 731.538 93.8684C734.407 92.938 734.438 92.4012 731.704 91.0308C729.058 89.7047 729.009 88.6837 731.465 86.2797C734.01 83.7916 733.595 83.0064 729.25 82.0844C724.146 81.0024 723.935 81.6887 724.654 97.066ZM1548.96 89.2499C1548.96 94.801 1548.16 95.3356 1539.88 95.3356C1531.34 95.3356 1530.8 94.9252 1530.8 88.3911C1530.8 81.6928 1531.12 81.476 1539.88 82.3054C1547.92 83.0674 1548.96 83.8631 1548.96 89.2499ZM708.549 86.9154C708.549 88.0732 709.716 89.0205 711.143 89.0205C712.569 89.0205 713.736 88.0732 713.736 86.9154C713.736 85.7577 712.569 84.8104 711.143 84.8104C709.716 84.8104 708.549 85.7577 708.549 86.9154ZM767.58 87.568C766.521 89.6646 764.874 110.364 763.92 133.567L762.182 175.757L751.578 174.601C742.406 173.601 741.913 173.734 747.939 175.569C754.053 177.435 755.103 179.157 756.525 189.667C759.217 209.564 763.113 212.425 762.33 193.928C761.954 185.055 762.537 178.243 763.629 178.79C764.721 179.338 765.613 175.393 765.613 170.021C765.613 164.651 766.853 151.57 768.368 140.952C771.341 120.112 770.767 81.2529 767.58 87.568ZM1484.11 97.5649C1484.11 105.533 1485.08 109.831 1486.7 109.018C1488.13 108.303 1489.3 102.564 1489.3 96.264C1489.3 89.9635 1488.13 84.8104 1486.7 84.8104C1485.26 84.8104 1484.11 90.4646 1484.11 97.5649ZM684.34 90.4246C681.355 92.8454 682.449 95.3356 686.501 95.3356C688.641 95.3356 690.392 93.9147 690.392 92.1781C690.392 88.89 687.323 88.0017 684.34 90.4246ZM695.58 91.1256C695.58 92.2833 697.33 93.2306 699.47 93.2306C701.61 93.2306 703.361 92.2833 703.361 91.1256C703.361 89.9678 701.61 89.0205 699.47 89.0205C697.33 89.0205 695.58 89.9678 695.58 91.1256ZM1620.44 95.4703C1611.72 99.9583 1608.73 102.59 1610.62 104.122C1613.88 106.768 1638.12 94.1042 1635.75 90.995C1633.77 88.3974 1634.73 88.1153 1620.44 95.4703ZM1475.51 92.4938C1472.9 94.6073 1473.35 111.732 1476.04 113.083C1479.14 114.637 1482.55 95.3356 1479.6 92.9422C1478.33 91.9044 1476.48 91.7023 1475.51 92.4938ZM711.143 95.3356C711.143 96.4934 712.31 97.4407 713.736 97.4407C715.163 97.4407 716.33 96.4934 716.33 95.3356C716.33 94.1779 715.163 93.2306 713.736 93.2306C712.31 93.2306 711.143 94.1779 711.143 95.3356ZM501.036 104.802C507.686 112.648 508.768 115.529 507.357 121.642C506.418 125.699 504.828 129.016 503.824 129.016C499.567 129.016 490.665 112.088 490.665 103.996C490.665 99.2321 491.192 95.3356 491.838 95.3356C492.484 95.3356 496.621 99.5963 501.036 104.802ZM697.38 96.6808C695.307 98.3627 697.649 101.651 700.92 101.651C702.264 101.651 703.361 100.23 703.361 98.4932C703.361 95.2388 700.3 94.3105 697.38 96.6808ZM685.204 101.651C685.204 102.809 686.371 103.756 687.798 103.756C689.225 103.756 690.392 102.809 690.392 101.651C690.392 100.493 689.225 99.5458 687.798 99.5458C686.371 99.5458 685.204 100.493 685.204 101.651ZM708.549 102.703C708.549 104.634 709.804 105.871 711.337 105.457C712.87 105.042 714.125 103.802 714.125 102.703C714.125 101.604 712.87 100.365 711.337 99.9499C709.804 99.5352 708.549 100.773 708.549 102.703ZM895.306 107.054C904.107 112.675 917.987 114.595 933.257 112.302C952.498 109.416 952.371 109.406 952.371 113.929C952.371 119.278 955.136 120.996 959.265 118.215C961.179 116.925 962.746 116.586 962.746 117.46C962.746 119.733 952.116 126.909 948.732 126.92C947.167 126.926 936.67 130.715 925.408 135.34C910.848 141.32 901.664 143.752 893.633 143.752C887.421 143.752 882.337 144.699 882.337 145.857C882.337 147.015 888.816 147.962 896.738 147.962C907.987 147.962 914.936 146.394 928.513 140.792C945.593 133.744 957.558 129.999 957.558 131.702C957.558 132.178 955.26 137.99 952.449 144.619C942.397 168.328 917.976 189.505 886.427 201.87C879.403 204.623 873.3 206.585 872.864 206.234C872.431 205.88 873.276 190.019 874.745 170.987C876.215 151.955 877.201 129.279 876.934 120.596C876.257 98.3732 875.925 99.2131 884.282 102.103C888.204 103.459 893.166 105.688 895.306 107.054ZM525.127 113.229C525.148 119.017 525.651 121.135 526.248 117.935C526.842 114.736 526.826 109.999 526.211 107.41C525.597 104.821 525.109 107.44 525.127 113.229ZM662.57 107.701C666.349 110.768 661.82 123.813 655.945 126.789C651.985 128.797 650.146 128.913 649.44 127.198C647.601 122.722 643.702 124.785 643.702 130.235C643.702 135.174 644.408 135.54 651.484 134.279L659.266 132.892V149.675C659.266 167.903 658.36 169.012 643.49 169.012C635.949 169.012 635.921 168.962 635.921 156.104C635.921 146.724 634.453 141.27 630.552 136.144C627.597 132.267 626.015 128 627.032 126.663C628.121 125.234 630.832 128.395 633.612 134.342C638.987 145.834 643.702 150.882 643.702 145.141C643.702 143.127 641.298 137.655 638.362 132.982C634.857 127.408 633.861 123.636 635.467 122.015C639.057 118.392 642.224 105.053 639.127 106.606C637.731 107.305 635.885 110.74 635.023 114.237C633.003 122.434 630.17 122.289 625.667 113.755C623.681 109.993 621.515 106.052 620.853 105.002C619.336 102.585 659.468 105.183 662.57 107.701ZM697.981 104.282C694.832 112.879 697.577 118.234 703.587 115.22C705.483 114.268 705.55 113.111 703.789 111.681C702.349 110.513 701.789 108.252 702.544 106.657C703.299 105.061 702.624 103.756 701.045 103.756C699.465 103.756 698.088 103.994 697.981 104.282ZM1465.95 110.999C1465.95 114.984 1467.12 118.828 1468.55 119.544C1470.11 120.329 1471.14 117.46 1471.14 112.3C1471.14 107.602 1469.97 103.756 1468.55 103.756C1467.12 103.756 1465.95 107.014 1465.95 110.999ZM709.047 110.229C709.558 111.473 711.086 112.492 712.44 112.492C713.794 112.492 715.321 111.473 715.832 110.229C716.343 108.985 714.818 107.966 712.44 107.966C710.061 107.966 708.536 108.985 709.047 110.229ZM684.54 111.65C683.674 113.062 683.728 116.157 684.88 131.121C685.059 133.443 687.041 135.332 689.3 135.332C692.503 135.332 693.025 133.953 691.686 129.012C690.164 123.379 690.604 122.75 695.735 123.223C698.902 123.514 702.01 122.571 702.643 121.122C703.317 119.579 701.631 118.491 698.565 118.491C695.613 118.491 692.617 116.658 691.689 114.281C690.036 110.056 686.353 108.701 684.54 111.65ZM1233.8 112.176C1231.76 114.864 1240.35 114.864 1245.48 112.176C1248.52 110.58 1247.85 110.128 1242.39 110.103C1238.55 110.086 1234.69 111.018 1233.8 112.176ZM1541.17 117.317C1523.34 121.135 1501.61 125.434 1492.89 126.867C1476.76 129.515 1468.93 132.132 1471.32 134.071C1474.65 136.78 1586.23 116.449 1591.5 112.174C1596.62 108.021 1573.58 110.376 1541.17 117.317ZM975.547 138.809C976.59 151.37 976.652 162.398 975.684 163.318C974.717 164.24 973.158 155.241 972.224 143.32C971.288 131.401 969.781 119.281 968.875 116.386C967.586 112.264 967.923 111.65 970.44 113.549C972.349 114.988 974.424 125.253 975.547 138.809ZM783.275 116.386C781.117 120.682 775.755 180.249 774.274 216.376C773.416 237.281 773.854 244.929 775.784 242.689C777.281 240.952 778.52 233.934 778.544 227.095C778.565 220.253 780.409 195.468 782.642 172.016C786.507 131.456 786.756 109.45 783.275 116.386ZM745.368 121.649C745.42 125.122 746.001 126.288 746.66 124.24C747.319 122.192 747.275 119.35 746.564 117.925C745.854 116.5 745.317 118.175 745.368 121.649ZM709.835 120.611C708.946 121.777 710.095 123.316 712.388 124.03C717.352 125.575 720.12 123.872 717.734 120.737C715.581 117.908 711.936 117.851 709.835 120.611ZM728.003 120.596C727.121 121.754 728.221 122.701 730.443 122.701C732.666 122.701 734.487 121.754 734.487 120.596C734.487 119.438 733.39 118.491 732.046 118.491C730.703 118.491 728.885 119.438 728.003 120.596ZM1227.79 127.964C1220.54 137.327 1217.59 143.752 1220.56 143.752C1223.19 143.752 1238.03 122.478 1237.05 120.114C1236.44 118.643 1232.28 122.175 1227.79 127.964ZM386.872 122.175C386.691 129.359 373.48 131.187 371.836 124.257C371.164 121.421 372.764 120.596 378.94 120.596C383.324 120.596 386.893 121.308 386.872 122.175ZM1268.82 122.373C1268.82 123.543 1269.97 131.437 1271.38 139.916C1272.79 148.393 1274.38 172.919 1274.9 194.418L1275.86 233.507L1268.3 236.222C1262.03 238.477 1260.98 239.874 1262.13 244.495C1262.88 247.554 1264.15 256.637 1264.95 264.682C1267.02 285.682 1268.82 284.4 1268.82 261.933C1268.82 242.784 1268.89 242.56 1275.95 240.295C1279.88 239.037 1287.17 237.875 1292.17 237.717C1303.48 237.355 1303.1 233.58 1291.62 232.164C1283.22 231.128 1283.08 230.932 1282.73 219.533C1282.38 208.316 1282.43 208.217 1284.52 216.376C1287.18 226.794 1285.88 201.285 1281.78 162.697C1278.47 131.551 1276.29 122.265 1272 121.103C1270.25 120.632 1268.82 121.202 1268.82 122.373ZM696.174 129.412C697.777 133.315 703.361 133.961 703.361 130.244C703.361 128.41 701.514 126.911 699.255 126.911C696.996 126.911 695.608 128.035 696.174 129.412ZM709.957 128.871C708.038 131.391 712.917 133.885 716.372 132.153C719.274 130.698 717.368 126.911 713.736 126.911C712.478 126.911 710.777 127.793 709.957 128.871ZM387.902 137.773C388.805 141.432 388.885 144.956 388.086 145.606C386.11 147.21 381.739 141.226 383.345 139.116C384.048 138.192 383.386 137.437 381.877 137.437C380.367 137.437 379.13 136.016 379.13 134.279C379.13 128.292 386.265 131.136 387.902 137.773ZM961.294 146.135C954.918 157.611 953.637 154.734 959.312 141.682C961.981 135.544 964.435 132.359 964.943 134.376C965.439 136.342 963.797 141.634 961.294 146.135ZM698.173 139.542C698.173 140.699 699.341 141.647 700.767 141.647C702.194 141.647 703.361 140.699 703.361 139.542C703.361 138.384 702.194 137.437 700.767 137.437C699.341 137.437 698.173 138.384 698.173 139.542ZM685.853 141.935C681.962 145.126 681.568 153.506 685.222 155.338C688.651 157.058 690.994 151.846 689.938 144.848C689.261 140.373 688.457 139.798 685.853 141.935ZM708.549 142.699C708.549 144.436 710.3 145.857 712.44 145.857C714.579 145.857 716.33 144.436 716.33 142.699C716.33 140.963 714.579 139.542 712.44 139.542C710.3 139.542 708.549 140.963 708.549 142.699ZM695.58 146.909C695.58 148.646 697.33 150.067 699.47 150.067C701.61 150.067 703.361 148.646 703.361 146.909C703.361 145.173 701.61 143.752 699.47 143.752C697.33 143.752 695.58 145.173 695.58 146.909ZM966.977 167.471C966.03 179.359 964.074 192.557 962.629 196.799C960.116 204.186 959.418 204.569 946.011 205.928C928.489 207.705 924.227 205.96 931.143 199.841C939.414 192.517 951.434 175.302 958.915 160.066C962.751 152.252 966.523 145.857 967.296 145.857C968.066 145.857 967.924 155.584 966.977 167.471ZM1623.94 154.085C1620.89 162.356 1621.85 169.465 1626.8 175.327C1631.6 181.005 1639.74 170.343 1639.74 158.378C1639.74 144.878 1635.93 143.352 1635.58 156.713C1635.26 168.955 1630.59 174.759 1627.94 166.196C1627 163.154 1627.52 157.666 1629.1 153.999C1632.57 145.907 1632.57 145.857 1629.47 145.857C1628.1 145.857 1625.61 149.56 1623.94 154.085ZM712.577 151.993C711.742 153.09 712.165 154.54 713.516 155.218C714.867 155.896 716.655 155.553 717.49 154.456C718.325 153.359 717.902 151.909 716.551 151.231C715.199 150.553 713.412 150.896 712.577 151.993ZM695.58 156.382C695.58 157.54 696.747 158.487 698.173 158.487C699.6 158.487 700.767 157.54 700.767 156.382C700.767 155.224 699.6 154.277 698.173 154.277C696.747 154.277 695.58 155.224 695.58 156.382ZM387.609 157.841C390.133 158.375 393.635 158.34 395.391 157.763C397.147 157.186 395.082 156.75 390.802 156.792C386.522 156.835 385.085 157.306 387.609 157.841ZM712.8 159.948C709.879 162.318 711.023 164.802 715.033 164.802C717.173 164.802 718.924 163.912 718.924 162.821C718.924 160.167 714.873 158.266 712.8 159.948ZM950.431 165.328C927.42 197.075 922.547 203.106 918.464 204.88C915.901 205.992 908.182 206.886 901.313 206.867L888.821 206.832L897.9 202.272C913.842 194.266 934.707 178.992 943.92 168.583C954.155 157.022 957.753 155.222 950.431 165.328ZM696.228 167.96C696.228 170.854 697.639 173.222 699.361 173.222C704.118 173.222 705.527 171.298 704.074 166.785C702.168 160.87 696.228 161.758 696.228 167.96ZM685.204 167.96C685.204 169.89 686.46 171.128 687.992 170.713C689.525 170.298 690.781 169.059 690.781 167.96C690.781 166.861 689.525 165.621 687.992 165.206C686.46 164.792 685.204 166.029 685.204 167.96ZM542.693 171.239C545.629 173.622 554.676 177.209 562.795 179.209C575.58 182.356 577.668 183.611 578.379 188.558C579.108 193.624 578.34 194.273 571.609 194.273C567.433 194.273 558.66 193.677 552.114 192.949C540.753 191.686 540.024 191.187 536.187 182.049C529.622 166.41 531.959 162.529 542.693 171.239ZM654.078 179.388C654.078 181.918 661.52 187.958 664.638 187.958C668.51 187.958 667.423 184.676 662.303 180.916C656.988 177.011 654.078 176.47 654.078 179.388ZM1429.64 179.413C1429.64 180.504 1428.61 181.912 1427.35 182.544C1423.06 184.693 1419.25 216.287 1419.02 251.635C1418.84 278.085 1417.98 286.895 1415.59 286.895C1410.09 286.895 1400.91 296.546 1400.35 302.914C1399.69 310.368 1394.55 313.715 1381.1 315.46L1370.8 316.797L1371.98 305.529C1372.63 299.334 1374.2 293.947 1375.46 293.561C1376.73 293.174 1377.76 273.576 1377.76 250.008V207.156L1397.35 196.167C1408.12 190.124 1418.08 183.438 1419.48 181.306C1422.12 177.306 1429.64 175.904 1429.64 179.413ZM642.704 185.326C640.971 190.614 639.059 192.168 634.3 192.168C629.807 192.168 628.139 193.342 628.139 196.51C628.139 199.805 629.548 200.693 633.976 200.194C638.354 199.7 639.812 200.588 639.812 203.746C639.812 206.552 638.082 207.956 634.624 207.956C628.684 207.956 624.438 212.166 626.995 215.523C627.947 216.774 630.995 217.313 633.773 216.723C637.967 215.835 638.686 216.603 638.019 221.276C637.449 225.28 635.724 226.901 632.03 226.901C624.876 226.901 625.45 233.056 632.679 233.89C639.008 234.618 640.53 240.211 635.511 244.285C633.239 246.129 633.291 247.484 635.726 249.867C640.782 254.81 638.066 260.582 630.684 260.582C625.979 260.582 624.249 261.712 624.249 264.79C624.249 267.103 625.999 269.09 628.139 269.204C637.135 269.686 638.515 270.202 638.515 273.082C638.515 275.077 636.084 275.974 631.382 275.713C622.28 275.208 621.626 280.94 630.591 282.657C635.039 283.51 637.706 286.051 639.521 291.172C641.752 297.458 642.406 294.812 644.216 272.16C646.932 238.209 645.845 175.753 642.704 185.326ZM1441.27 184.516C1445.35 186.939 1446.05 189.991 1445.73 203.988C1445.52 213.117 1446.27 223.901 1447.39 227.954C1449.11 234.117 1450.46 235.226 1455.66 234.74C1459.07 234.42 1464.54 232.124 1467.8 229.638L1473.73 225.114V249.431C1473.73 269.002 1472.94 274.286 1469.65 276.502C1466.31 278.75 1465.18 278.757 1463.49 276.536C1459.56 271.383 1440.01 279.609 1440.01 286.415C1440.01 288.577 1438.28 289.114 1434.18 288.221C1430.97 287.524 1427.35 286.939 1426.13 286.924C1424.09 286.897 1424.71 266.72 1428.64 205.324C1430.21 180.687 1431.43 178.677 1441.27 184.516ZM603.288 185.577C606.102 189.271 624.801 190.126 632.406 186.907C639.586 183.87 639.233 183.773 620.853 183.76C610.426 183.754 602.523 184.571 603.288 185.577ZM696.988 185.707C695.216 188.033 699.307 190.547 701.704 188.602C704.168 186.6 703.709 183.748 700.92 183.748C699.577 183.748 697.808 184.63 696.988 185.707ZM705.994 194.448C706.017 200.721 707.073 207.181 708.341 208.808C709.786 210.661 710.32 206.84 709.771 198.599C708.671 182.118 705.942 179.119 705.994 194.448ZM1468.55 186.85C1468.55 188.509 1452.6 194.662 1451.22 193.54C1450.51 192.966 1453.24 191.04 1457.29 189.259C1464.92 185.905 1468.55 185.129 1468.55 186.85ZM157.355 203.293C177.434 213.915 178.132 214.561 178.903 223.217C179.344 228.137 179.271 232.164 178.742 232.164C178.215 232.164 173.188 230.389 167.57 228.223C161.952 226.055 152.687 223.019 146.98 221.476C141.274 219.935 135.86 218.157 134.95 217.525C134.039 216.894 132.473 209.863 131.466 201.901C129.949 189.884 130.229 187.84 133.121 189.869C135.038 191.214 145.943 197.254 157.355 203.293ZM586.638 196.378C586.638 198.693 587.805 200.588 589.232 200.588C590.658 200.588 591.825 198.693 591.825 196.378C591.825 194.062 590.658 192.168 589.232 192.168C587.805 192.168 586.638 194.062 586.638 196.378ZM600.904 194.273C599.013 196.757 601.467 200.588 604.948 200.588C606.291 200.588 607.389 198.693 607.389 196.378C607.389 191.938 603.615 190.713 600.904 194.273ZM611.279 194.273C609.388 196.757 611.842 200.588 615.323 200.588C616.667 200.588 617.764 198.693 617.764 196.378C617.764 191.938 613.99 190.713 611.279 194.273ZM978.862 198.483C978.042 203.015 976.296 204.798 972.681 204.798C967.789 204.798 967.776 204.613 972.237 198.483C974.766 195.01 977.547 192.168 978.418 192.168C979.292 192.168 979.489 195.01 978.862 198.483ZM656.672 196.342C656.672 199.363 682.063 209.326 683.832 207C684.657 205.92 680.237 202.613 674.014 199.653C662.049 193.963 656.672 192.936 656.672 196.342ZM1612.52 217.952C1612.52 230.979 1613.07 253.665 1613.73 268.366C1614.39 283.068 1614.22 295.679 1613.34 296.393C1609.41 299.58 1539.08 302.152 1521.72 299.746L1506.16 297.586L1526.91 298.546C1538.33 299.075 1552.33 298.447 1558.03 297.151C1563.74 295.854 1577.65 293.719 1588.95 292.408C1600.7 291.044 1609.95 288.903 1610.57 287.406C1611.16 285.967 1609.83 284.79 1607.62 284.79C1604.22 284.79 1603.77 282.224 1604.76 268.476C1605.4 259.504 1606.51 240.02 1607.22 225.181C1608.33 202.125 1609.55 194.279 1612.01 194.271C1612.28 194.271 1612.51 204.926 1612.52 217.952ZM1280.99 204.232C1280.33 206.28 1279.75 205.114 1279.7 201.64C1279.65 198.167 1280.19 196.492 1280.9 197.917C1281.61 199.342 1281.65 202.184 1280.99 204.232ZM1452.25 212.663C1451.66 215.862 1451.15 213.744 1451.13 207.956C1451.11 202.167 1451.6 199.548 1452.22 202.137C1452.83 204.726 1452.85 209.463 1452.25 212.663ZM1457.65 228.236C1455.45 229.353 1453.95 228.718 1453.34 226.4C1452.82 224.449 1453.69 222.499 1455.28 222.07C1456.87 221.638 1458.4 215.919 1458.68 209.36C1459.18 197.702 1459.21 197.763 1460.1 211.976C1460.75 222.299 1460.04 227.021 1457.65 228.236ZM691.78 214.022C692.861 219.876 692.444 223.767 690.641 224.672C687.458 226.267 687.269 259.729 690.306 283.737L692.169 298.473L692.578 277.226C692.801 265.541 693.748 244.463 694.682 230.389C695.969 210.957 695.618 204.798 693.224 204.798C690.973 204.798 690.56 207.429 691.78 214.022ZM585.797 209.854C584.332 212.953 586.01 215.323 589.665 215.323C590.853 215.323 591.825 213.429 591.825 211.113C591.825 206.286 587.875 205.461 585.797 209.854ZM736.381 208.299C731.543 214.936 728.296 257.064 732.319 260.999C734.179 262.815 734.127 279.9 732.155 316.264C730.583 345.213 729.3 374.574 729.3 381.51C729.3 391.351 728.516 393.875 725.728 393.008C723.401 392.282 721.583 393.953 720.501 397.81C712.242 427.293 709.545 431.324 698.822 430.196C694.35 429.724 694.729 433.72 700.951 452.644C708.624 475.976 713.023 483.131 718.781 481.65C722.135 480.784 723.899 481.778 724.983 485.144C725.819 487.731 726.254 490.009 725.953 490.204C725.655 490.4 710.235 493.579 691.689 497.267C673.143 500.957 653.3 505.247 647.593 506.803C632.367 510.952 584.327 519.814 551.621 524.508C535.928 526.761 512.583 530.148 499.744 532.036C486.904 533.924 461.809 536.345 443.976 537.414C426.143 538.486 398.13 540.267 381.724 541.372C365.317 542.479 335.553 543.896 315.58 544.521C258.194 546.319 173.598 549.864 134.011 552.131C114.038 553.276 79.6048 554.278 57.4922 554.358C10.6136 554.528 0.42753 555.539 0.42753 560.014C0.42753 562.833 8.62409 563.073 68.5161 562.005C105.966 561.338 155.28 559.835 178.106 558.665C200.932 557.497 256.959 555.524 302.611 554.284C348.263 553.046 392.618 551.11 401.177 549.984C416.678 547.942 478.368 543.797 479.686 544.706C480.067 544.969 470.145 548.335 457.638 552.188C425.002 562.237 415.381 566.39 416.969 569.748C418.712 573.434 441.421 575.989 470.558 575.781C494.26 575.608 504.096 573.8 525.682 565.645C532.815 562.949 553.242 556.526 571.075 551.369C612.76 539.315 628.139 533.867 628.139 531.156C628.139 529.956 626.627 528.975 624.778 528.975C618.796 528.975 505.079 567.464 500.063 571.186C498.813 572.114 494.753 571.937 491.044 570.792C487.335 569.649 476.684 568.975 467.38 569.299C458.074 569.622 444.041 569.659 436.194 569.384L421.928 568.881L442.679 562.887C454.092 559.591 476.853 552.907 493.259 548.034C528.344 537.616 523.234 538.741 560.699 533.217C596.289 527.969 631.431 521.507 652.781 516.282C661.341 514.185 683.518 509.434 702.064 505.721C720.61 502.007 746.066 495.699 758.633 491.701C771.201 487.704 788.709 482.721 797.541 480.626C806.373 478.534 823.521 473.81 835.647 470.131C871.274 459.321 882.147 456.549 883.766 457.862C884.606 458.544 882.876 462.944 879.924 467.64C873.998 477.069 872.524 485.154 877.463 481.146C882.824 476.795 893.213 454.368 895.773 441.616C897.166 434.669 900.87 425.67 904.003 421.618C907.137 417.566 910.934 412.356 912.441 410.04C913.948 407.725 919.636 403.462 925.078 400.567L934.976 395.305L926.165 394.633C920.64 394.214 915.177 391.932 911.518 388.518C904.491 381.961 904.304 380.378 910.221 377.58C916.194 374.757 911.99 374.671 905.51 377.486C899.023 380.304 899.109 388.044 905.7 394.846C911.297 400.62 910.379 405.424 901.596 416.3C898.087 420.647 896.494 421.155 892.212 419.296C885.958 416.58 871.961 420.544 871.961 425.03C871.961 429.028 870.293 428.684 863.695 423.329C860.043 420.365 859.117 418.427 861.101 417.89C862.795 417.431 864.18 413.381 864.18 408.887C864.18 402.843 862.815 400.123 858.938 398.439C850.777 394.894 848.209 397.93 848.915 410.288C849.278 416.629 848.274 422.738 846.658 424.049C843.445 426.657 831.627 427.725 801.123 428.16C784.528 428.398 781.13 429.006 782.318 431.522C783.117 433.21 783.77 434.989 783.77 435.473C783.77 435.957 789.957 436.353 797.515 436.353H811.26L807.273 449.72L803.289 463.087L790.935 463.441C778.964 463.786 778.583 463.609 778.583 457.757C778.583 454.435 779.872 448.714 781.449 445.043C785.244 436.208 781.086 432.143 768.251 432.143C762.918 432.143 753.14 431.541 746.523 430.804C735.058 429.529 734.5 429.154 734.747 422.91C734.993 416.629 735.086 416.574 736.983 421.618C739.133 427.337 741.34 425.001 742.79 415.467C744.167 406.415 750.05 407.743 750.05 417.109C750.05 421.767 751.218 426.165 752.644 426.88C754.071 427.596 755.238 427.209 755.238 426.017C755.238 424.828 757.168 424.455 759.528 425.192C763.372 426.388 763.671 424.75 762.379 409.474C761.261 396.223 759.744 391.377 755.58 387.752L750.224 383.083L747.016 389.194L743.807 395.305L742.826 387.945C742.287 383.897 740.894 379.635 739.735 378.473C738.573 377.311 738.565 360.729 739.716 341.626C740.868 322.523 742.204 289.608 742.689 268.484L743.566 230.073L750.05 229.856L756.535 229.64L750.05 228.187C744.738 226.998 743.418 225.227 742.744 218.399C741.919 210.014 738.772 205.021 736.381 208.299ZM1471.91 215.85C1473.05 221.874 1472.53 223.743 1469.68 223.743C1465.48 223.743 1465.28 222.777 1467.59 213.408C1469.56 205.419 1469.97 205.651 1471.91 215.85ZM599.607 213.182C599.607 217.597 603.065 220.234 605.869 217.961C606.857 217.159 610.229 216.475 613.362 216.439C623.73 216.323 620.052 210.105 609.334 209.623C601.319 209.263 599.607 209.89 599.607 213.182ZM1079.47 210.692C1079.47 211.618 1080.72 213.389 1082.24 214.627C1084.21 216.226 1084.19 222.912 1082.14 237.677C1080.56 249.118 1078.66 272.549 1077.92 289.751C1076.77 316.448 1077.18 321.567 1080.7 324.731C1084.1 327.775 1084.37 330.084 1082.22 337.662C1079.48 347.305 1078.42 385.832 1080.9 385.832C1086.3 385.832 1097.63 378.742 1097.63 375.362C1097.63 373.134 1100.39 368.897 1103.76 365.944C1108.5 361.788 1112.47 360.557 1121.27 360.504C1131.99 360.441 1132.34 360.254 1127.46 357.248C1124.6 355.494 1118.77 354.341 1114.49 354.684L1106.7 355.309L1104.68 333.206C1102.78 312.492 1103.02 303.594 1106.87 253.559C1108.13 237.163 1107.71 233.5 1104.31 231.456C1102.06 230.109 1099.96 226.301 1099.64 222.994C1099.3 219.573 1096.35 215.264 1092.8 212.995C1086.38 208.899 1079.47 207.705 1079.47 210.692ZM1196.19 223.743V234.269H1179.33H1162.47V225.977V217.687L1174.79 216.372C1186.15 215.159 1193.94 214.067 1195.54 213.462C1195.9 213.328 1196.19 217.955 1196.19 223.743ZM660.853 218.333C662.124 221.024 674.676 225.848 680.403 225.848C686.003 225.848 681.708 221.116 673.615 218.374C662.285 214.532 659.05 214.521 660.853 218.333ZM1095.52 226.375C1096.04 230.76 1097.73 233.216 1100.22 233.216C1104.95 233.216 1107.28 252.538 1102.97 256.035C1101.22 257.454 1100.22 273.092 1100.22 298.967C1100.22 339.016 1100.14 339.633 1095.03 337.416C1091.88 336.048 1089.84 333.008 1089.84 329.68C1089.84 326.666 1088.1 323.146 1085.98 321.86C1082.71 319.887 1082.5 316.57 1084.61 300.578C1085.99 290.158 1087.85 267.661 1088.75 250.583C1089.65 233.505 1091.36 219.533 1092.54 219.533C1093.73 219.533 1095.07 222.611 1095.52 226.375ZM460.068 225.322C455.047 228.857 454.891 230.747 456.248 271.764C457.288 303.131 458.432 313.896 460.546 312.178C462.465 310.621 463.43 296.096 463.43 268.802C463.43 228.004 463.464 227.762 469.266 226.581C472.477 225.926 475.102 224.548 475.102 223.516C475.102 220.308 465.565 221.453 460.068 225.322ZM587.675 226.691C586.726 228.699 587.232 231.383 588.801 232.656C590.876 234.34 592.126 233.976 593.382 231.322C594.331 229.313 593.825 226.63 592.256 225.356C590.181 223.672 588.931 224.036 587.675 226.691ZM1369.33 227.01C1373.06 227.943 1373.45 242.131 1370.87 283.211L1369.18 310.05H1357.93H1346.68L1348.09 301.104C1348.86 296.184 1349.94 277.475 1350.49 259.529C1351.03 241.584 1351.56 226.173 1351.65 225.282C1351.8 223.853 1359.84 224.638 1369.33 227.01ZM160.922 233.387C165.736 235.61 171.889 238.369 174.594 239.525C178.822 241.327 179.307 243.253 178.041 253.208C177.23 259.578 176.33 274.926 176.039 287.31L175.512 309.827L154.982 308.975C142.041 308.436 133.666 307.116 132.325 305.402C129.76 302.118 129.562 281.394 131.801 249.869L133.458 226.524L142.814 227.937C147.958 228.714 156.108 231.166 160.922 233.387ZM476.677 229.179C475.81 231.01 475.094 245.455 475.084 261.281C475.074 277.104 474.321 296.448 473.411 304.262L471.759 318.471H463.054C453.926 318.471 452.035 320.605 457.749 324.453C460.195 326.101 463.726 326.099 470.358 324.447L479.571 322.152L481.211 305.051C483.659 279.54 483.224 225.848 480.567 225.848C479.294 225.848 477.543 227.347 476.677 229.179ZM598.134 228.185C596.51 230.318 599.724 236.374 602.478 236.374C603.752 236.374 604.795 235.311 604.795 234.012C604.795 232.347 605.913 232.402 608.571 234.193C613.23 237.329 617.764 235.332 617.764 230.143C617.764 227.061 615.865 226.31 608.517 226.478C603.433 226.596 598.759 227.362 598.134 228.185ZM937.456 229.233L975.715 230.696V237.746C975.715 243.39 974.683 244.794 970.528 244.794C963.475 244.794 963.945 250.414 971.176 252.547C979.012 254.856 931.394 256.757 894.658 255.601L866.774 254.723L866.81 245.021C866.828 239.687 867.588 233.069 868.493 230.317C870.05 225.604 870.986 225.385 884.671 226.543C892.66 227.219 916.412 228.429 937.456 229.233ZM710.315 229.532C709.69 230.402 708.391 238.689 707.423 247.952C706.456 257.214 705.006 268.107 704.199 272.16C703.016 278.106 703.374 279.035 706.061 276.976C708.186 275.347 709.83 266.434 710.6 252.351C711.721 231.926 712.222 230.214 717.313 229.404C722.747 228.537 722.747 228.524 717.132 228.24C714.006 228.082 710.938 228.663 710.315 229.532ZM1506.16 230.059C1507.04 231.216 1506.52 232.164 1505.01 232.164C1503.5 232.164 1502.27 231.216 1502.27 230.059C1502.27 228.901 1502.78 227.954 1503.41 227.954C1504.04 227.954 1505.28 228.901 1506.16 230.059ZM1001.65 240.584C1001.65 245.215 1001.95 249.713 1002.3 250.583C1002.66 251.452 999.449 252.437 995.169 252.772C987.536 253.372 987.375 253.183 986.656 242.773C985.933 232.233 985.979 232.164 993.789 232.164C1001.24 232.164 1001.65 232.612 1001.65 240.584ZM70.4615 240.258L84.7277 243.882L87.4901 272.231C89.0101 287.821 91.189 302.257 92.3303 304.308C94.2367 307.737 93.1758 307.912 79.1924 306.447C70.822 305.571 60.1847 304.84 55.5469 304.821C47.2958 304.788 47.1168 304.588 47.0883 295.315C47.0727 290.105 46.5203 282.053 45.864 277.422C45.008 271.41 45.5942 272.313 47.9106 280.58C53.5081 300.569 54.7635 288.859 49.6095 264.708C46.9016 252.018 44.6501 240.453 44.6034 239.005C44.4945 235.46 53.2643 235.885 70.4615 240.258ZM585.367 244.76C583.455 247.272 585.883 251.109 589.385 251.109C592.541 251.109 592.562 245.411 589.411 243.832C588.083 243.165 586.264 243.584 585.367 244.76ZM597.013 246.648C597.013 251.68 600.953 254.096 605.443 251.814C607.228 250.909 610.436 250.143 612.576 250.111C614.716 250.082 616.467 248.636 616.467 246.899C616.467 244.771 613.3 243.529 606.74 243.089C598.471 242.533 597.013 243.066 597.013 246.648ZM1239.41 245.196C1234.19 246.741 1231.21 246.693 1229.17 245.032C1227.05 243.312 1229 242.733 1236.53 242.855C1246.66 243.019 1246.69 243.045 1239.41 245.196ZM624.752 246.139C622.679 247.821 625.022 251.109 628.292 251.109C629.636 251.109 630.733 249.688 630.733 247.952C630.733 244.697 627.672 243.769 624.752 246.139ZM1197.83 252.688C1196.97 255.871 1195.5 264.398 1194.56 271.633C1193.39 280.62 1191.73 284.79 1189.33 284.79C1186.89 284.79 1185.76 281.731 1185.64 274.791C1185.54 269.29 1185.25 260.765 1184.99 255.843C1184.54 247.307 1184.86 246.897 1191.96 246.897C1198.72 246.899 1199.25 247.425 1197.83 252.688ZM1169.11 253.214C1174.05 253.214 1174.9 254.721 1176.37 266.154C1179.18 288.019 1179.08 288.396 1170.46 287.368C1163.48 286.537 1162.76 285.617 1161.27 275.629C1160.39 269.669 1159.01 261.003 1158.21 256.372C1157.02 249.49 1157.37 248.431 1160.13 250.583C1161.99 252.031 1166.03 253.214 1169.11 253.214ZM1225.43 267.11C1224.22 280.072 1224.63 282.685 1227.87 282.685C1230.81 282.685 1232.13 279.056 1233.3 267.701C1234.15 259.458 1235.21 252.427 1235.64 252.071C1236.08 251.717 1239.93 251.12 1244.2 250.743C1252.98 249.966 1252.93 249.699 1248.97 274.265C1246.93 286.969 1246.31 287.949 1240.29 287.975C1236.72 287.99 1232.37 287.179 1230.62 286.175C1228.77 285.118 1224.12 285.282 1219.59 286.564L1211.76 288.781V269.257V249.732L1219.32 250.633L1226.88 251.534L1225.43 267.11ZM585.341 283.392C585.341 299.942 584.49 305.836 582.099 305.838C579.699 305.84 578.856 299.771 578.856 282.51C578.856 264.775 579.634 259.39 582.099 260.064C584.423 260.698 585.341 267.314 585.341 283.392ZM307.742 272.212C317.759 273.269 336.461 274.153 349.3 274.176C362.14 274.197 386.942 275.33 404.42 276.692L436.194 279.169V305.287V331.404L421.28 330.042C413.078 329.295 399.945 327.849 392.099 326.83C371.164 324.112 339.924 323.651 309.744 325.615C284.828 327.236 283.147 327.099 283.012 323.434C281.417 280.815 282.05 267.966 285.694 269.099C287.803 269.753 297.724 271.155 307.742 272.212ZM612.576 294.262C612.576 302.946 611.7 310.052 610.631 310.055C609.562 310.059 609.069 302.954 609.539 294.267C610.008 285.581 610.883 278.475 611.484 278.475C612.086 278.475 612.576 285.579 612.576 294.262ZM798.734 288.082C797.93 288.735 793.65 289.354 789.225 289.455C783.35 289.591 781.177 290.644 781.177 293.355C781.177 295.397 780.056 297.384 778.687 297.772C777.317 298.157 775.4 306.286 774.422 315.839C773.348 326.354 771.517 333.17 769.779 333.113C768.202 333.063 762.241 331.657 756.535 329.987C742.723 325.95 740.609 326.122 745.887 330.857C748.32 333.037 755.396 335.978 761.614 337.391C771.546 339.647 773.123 340.835 774.586 347.167C775.501 351.13 777.273 353.861 778.523 353.233C779.773 352.608 782.222 357.555 783.968 364.228C787.002 375.818 787.241 376.077 789.324 370.044C790.634 366.251 790.333 358.847 788.566 351.503C786.855 344.369 786.593 338.561 787.941 337.559C789.215 336.616 795.305 335.33 801.479 334.703L812.705 333.564L810.871 349.438C809.367 362.462 809.68 365.139 812.617 364.348C814.744 363.773 817.052 358.426 818.31 351.164C820.933 336.029 816.863 296.012 812.352 292.566C809.704 290.541 809.338 294.05 810.474 310.577L811.888 331.101H800.423H788.958L788.922 316.892C788.904 309.078 788.203 300.611 787.365 298.081C786.061 294.126 787.158 293.279 795.183 292.059C800.319 291.275 804.521 289.794 804.521 288.766C804.521 286.674 800.986 286.257 798.734 288.082ZM597.013 291.105C597.013 292.263 595.262 293.21 593.122 293.21C590.982 293.21 589.232 292.263 589.232 291.105C589.232 289.947 590.982 289 593.122 289C595.262 289 597.013 289.947 597.013 291.105ZM971.412 296.368C971.187 299.841 970.133 316.136 969.07 332.579L967.14 362.474L956.513 356.37C950.669 353.012 942.384 349.688 938.105 348.981C933.825 348.274 924.106 346.219 916.506 344.413C903.324 341.283 881.128 341.344 871.961 344.537C868.597 345.708 868.177 342.245 868.857 318.889L869.642 291.888L901.204 291.383C918.562 291.105 933.332 290.417 934.024 289.855C934.717 289.292 943.505 289.107 953.554 289.442L971.825 290.052L971.412 296.368ZM1192.9 292.376C1192.03 293.075 1189.8 293.151 1187.93 292.543C1185.86 291.871 1186.47 291.372 1189.49 291.271C1192.23 291.181 1193.76 291.677 1192.9 292.376ZM1415.9 300.563C1415.44 308.836 1414.64 310.023 1409.54 310.036C1402.02 310.055 1401.82 304.139 1409.08 296.652C1412.03 293.602 1414.9 291.105 1415.44 291.105C1415.98 291.105 1416.19 295.361 1415.9 300.563ZM1029 299.374C1027.04 301.95 1029.49 303.043 1041.23 304.832L1050.94 306.31L1050.96 323.441C1050.98 346.24 1053.75 368.992 1056.5 368.992C1057.72 368.992 1058.72 354.783 1058.72 337.416C1058.72 312.802 1059.47 305.84 1062.11 305.84C1063.98 305.84 1067.77 304.392 1070.54 302.624C1075.16 299.677 1074.09 299.5 1057.87 300.506C1048.13 301.108 1037.98 300.66 1035.33 299.506C1032.37 298.222 1029.92 298.169 1029 299.374ZM599.607 306.893C599.607 314.517 596.157 316.761 593.4 310.93C590.606 305.021 591.722 299.525 595.716 299.525C598.435 299.525 599.607 301.748 599.607 306.893ZM648.89 301.426C648.89 302.516 652.835 304.466 657.655 305.756C662.477 307.046 668.549 310.012 671.148 312.345C675.82 316.534 675.786 316.557 668.22 314.214C664.007 312.909 656.804 311.448 652.21 310.968C647.617 310.486 642.948 309.97 641.835 309.823C640.722 309.674 637.187 309.663 633.976 309.802C626.759 310.109 626.158 314.26 633.327 314.26C637.132 314.26 638.515 315.664 638.515 319.523C638.515 326.217 643.088 326.432 644.18 319.788C644.872 315.559 645.897 315.062 650.836 316.563C655.375 317.94 656.672 319.988 656.672 325.771C656.672 329.859 657.839 333.206 659.266 333.206C660.692 333.206 661.859 329.886 661.859 325.83C661.859 318.803 662.256 318.479 670.289 318.988C677.679 319.458 678.719 318.889 678.719 314.378C678.719 310.854 676.268 308.116 670.938 305.682C661.086 301.188 648.89 298.835 648.89 301.426ZM573.669 307.017C573.669 308.686 572.501 310.05 571.075 310.05C569.648 310.05 568.481 308.099 568.481 305.716C568.481 303.333 569.648 301.967 571.075 302.683C572.501 303.398 573.669 305.348 573.669 307.017ZM563.293 311.983C563.293 316.519 564.063 321.86 565.002 323.849C566.193 326.367 565.622 327.171 563.125 326.495C559.016 325.384 555.076 312.911 557.099 307.419C559.54 300.788 563.293 303.554 563.293 311.983ZM1616.43 308.472C1616.51 318.936 1619.31 322.681 1627.08 322.681C1633.66 322.681 1634.55 323.438 1634.55 328.996C1634.55 334.82 1633.8 335.34 1624.83 335.696C1619.48 335.907 1611.89 335.904 1607.97 335.688C1603.13 335.422 1600.83 336.315 1600.83 338.46C1600.83 340.201 1600.23 341.626 1599.48 341.626C1598.74 341.626 1589.45 334.324 1578.84 325.4C1568.23 316.475 1558.76 309.812 1557.8 310.593C1556.84 311.374 1563.07 318.441 1571.65 326.297L1587.26 340.582L1566.48 339.816C1552.6 339.304 1546.25 339.774 1547.36 341.228C1548.27 342.426 1552.5 344.028 1556.77 344.788C1564.2 346.114 1564.45 346.518 1562.83 354.745C1560.71 365.457 1565.73 364.049 1568.23 353.227C1569.26 348.798 1571.46 345.836 1573.71 345.836C1577.82 345.836 1578.28 349.057 1575.86 360.917C1574.29 368.619 1574.27 368.632 1559.68 369.375C1541.23 370.314 1537.94 367.998 1538.96 354.774C1539.7 345.213 1539.42 344.754 1532.44 344.099C1526.41 343.533 1525.39 342.622 1526.53 338.837C1527.29 336.319 1528.72 329.24 1529.71 323.108C1531.06 314.702 1532.48 312.111 1535.47 312.583C1538.34 313.035 1539.49 316.046 1539.65 323.548C1539.9 335.071 1546.36 340.485 1546.36 329.171C1546.36 325.6 1547.24 322.689 1548.31 322.702C1549.38 322.712 1555.48 326.093 1561.87 330.212C1569.34 335.035 1573.86 336.78 1574.54 335.111C1575.68 332.355 1561.12 321.506 1553.5 319.426C1550.68 318.658 1548.96 316.041 1548.96 312.541C1548.96 302.919 1561.22 305.209 1579.86 318.311C1600.02 332.488 1606.19 331.288 1586.86 316.949C1572.36 306.196 1572.31 306.116 1579.42 305.245C1583.35 304.76 1593.28 304.224 1601.48 304.051C1615.33 303.758 1616.4 304.076 1616.43 308.472ZM1485.71 308.347C1486.76 309.726 1486.25 311.227 1484.57 311.68C1482.89 312.134 1481.52 315.742 1481.52 319.698V326.891H1466.26C1450.35 326.891 1447.95 325.219 1447.83 314.088C1447.78 308.739 1482.06 303.546 1485.71 308.347ZM1590.46 311.035C1590.46 312.357 1617.71 328.996 1619.87 328.996C1624.81 328.996 1620.2 324.003 1609.26 317.492C1598.26 310.939 1590.46 308.261 1590.46 311.035ZM83.4308 315.056C83.4308 316.65 81.6799 319.134 79.54 320.576C77.4 322.018 75.6492 324.691 75.6492 326.516C75.6492 331.238 71.4757 327.028 69.5459 320.361C68.6743 317.351 68.7184 314.271 69.6444 313.52C72.8115 310.949 83.4308 312.132 83.4308 315.056ZM1634.55 314.26C1637.59 315.85 1636.87 316.309 1631.31 316.334C1627.39 316.351 1624.18 315.418 1624.18 314.26C1624.18 311.6 1629.48 311.6 1634.55 314.26ZM1290.75 330.575C1289.75 338.388 1288.66 345.047 1288.32 345.369C1287.78 345.876 1275.58 346.617 1234.6 348.636C1229.33 348.895 1224.17 349.792 1223.14 350.629C1218.71 354.227 1217.3 351.24 1216.5 336.517L1215.65 320.883L1236.4 318.917C1247.81 317.837 1265.12 316.82 1274.86 316.658L1292.58 316.366L1290.75 330.575ZM1683.84 321.752C1683.84 323.563 1682.58 324.405 1681.04 323.632C1679.5 322.86 1675.12 321.464 1671.31 320.531C1664.87 318.953 1665.07 318.82 1674.11 318.652C1681.29 318.519 1683.84 319.331 1683.84 321.752ZM593.613 332.68C592.962 334.705 592.427 333.048 592.427 328.996C592.427 324.944 592.962 323.287 593.613 325.312C594.266 327.337 594.266 330.655 593.613 332.68ZM1680.23 327.562C1682.29 326.922 1683.88 331.482 1685.13 341.613C1686.15 349.861 1686.57 356.894 1686.06 357.241C1685.55 357.591 1678.13 357.046 1669.57 356.035C1661.01 355.025 1651.44 354.195 1648.3 354.193C1640.3 354.191 1638.77 351.017 1643.25 343.723C1645.43 340.165 1646.07 336.936 1644.72 336.258C1643.41 335.601 1642.33 332.391 1642.33 329.128V323.194L1659.76 325.851C1669.35 327.314 1678.56 328.082 1680.23 327.562ZM93.1032 326.057C92.2421 326.756 90.0036 326.832 88.1334 326.223C86.0635 325.552 86.6783 325.053 89.7001 324.952C92.434 324.861 93.9644 325.358 93.1032 326.057ZM217.65 326.023C214.918 328.242 215.235 362.676 217.987 362.676C222.775 362.676 225.008 340.104 221.284 329.356C220.347 326.661 218.713 325.16 217.65 326.023ZM1328.48 335.376C1328.48 340.035 1323.64 342.394 1316.39 341.262C1312.3 340.622 1312.49 340.012 1318.03 335.82C1325.76 329.975 1328.48 329.859 1328.48 335.376ZM1466.6 333.517C1471.32 333.465 1472.22 337.098 1469.51 345.31C1468.36 348.783 1466.02 350.046 1460.72 350.046C1454.02 350.046 1453.44 349.36 1452.57 340.46C1451.7 331.659 1452.06 330.983 1456.84 332.221C1459.71 332.962 1464.11 333.547 1466.6 333.517ZM226.635 335.837C227.169 337.285 232.588 340.363 238.673 342.679L249.741 346.889L249.043 362.06C248.662 370.402 249.144 377.875 250.117 378.664C253.079 381.068 257.219 369.331 257.219 358.527C257.219 347.581 256.179 348.07 273.275 350.981C279.082 351.968 280.426 353.488 281.29 360.054C282.187 366.88 282.597 367.303 284.343 363.203C286.177 358.892 288.016 358.464 304.86 358.435C315.036 358.416 325.113 357.483 327.253 356.361C329.953 354.945 325.121 354.311 311.443 354.288C295.229 354.263 290.931 353.528 287.16 350.147C284.636 347.882 276.009 344.942 267.952 343.596C259.909 342.255 247.492 339.367 240.359 337.182C224.975 332.469 225.403 332.509 226.635 335.837ZM373.942 335.307C427.007 340.422 423.552 339.765 422.709 344.563C421.946 348.888 420.976 348.975 381.724 348.209C359.611 347.777 338.816 346.594 335.514 345.577C332.212 344.563 325.499 343.731 320.599 343.731C313.526 343.731 311.69 342.893 311.69 339.668C311.69 337.128 313.876 335.262 317.526 334.692C327.774 333.09 353.881 333.374 373.942 335.307ZM1343.58 343.133C1342.06 344.619 1339.79 345.836 1338.54 345.836C1335 345.836 1335.86 337.881 1339.5 336.854C1344.08 335.568 1346.89 339.898 1343.58 343.133ZM1461.27 342.679C1461.32 346.152 1461.9 347.318 1462.56 345.27C1463.22 343.222 1463.18 340.38 1462.47 338.955C1461.76 337.53 1461.22 339.205 1461.27 342.679ZM1091.34 374.595C1090.61 376.145 1088.82 377.412 1087.37 377.412C1084.55 377.412 1086.26 347.411 1089.4 341.626C1091.41 337.936 1093.32 370.417 1091.34 374.595ZM1634.01 343.205C1633.32 345.95 1630.69 346.832 1623.7 346.668C1618.54 346.546 1612.16 345.647 1609.52 344.672C1605.87 343.321 1607.82 342.573 1617.69 341.54C1624.83 340.792 1631.62 340.035 1632.8 339.852C1633.97 339.671 1634.52 341.18 1634.01 343.205ZM1144.32 348.994C1144.32 351.888 1143.15 354.256 1141.72 354.256C1140.3 354.256 1139.13 351.888 1139.13 348.994C1139.13 346.099 1140.3 343.731 1141.72 343.731C1143.15 343.731 1144.32 346.099 1144.32 348.994ZM459.539 357.273C459.539 369.482 460.351 370.168 471.86 367.665C479.833 365.931 479.232 362.676 470.934 362.676C465.834 362.676 464.558 361.858 465.746 359.346C466.613 357.515 467.321 355.147 467.321 354.084C467.321 353.021 469.946 352.122 473.157 352.088C477.696 352.038 478.129 351.627 475.102 350.238C472.962 349.255 468.586 347.798 465.375 347.002C459.809 345.619 459.539 346.093 459.539 357.273ZM1320.7 350.446C1320.7 353.214 1314.8 351.482 1313.51 348.335C1312.88 346.796 1314.06 346.327 1316.59 347.112C1318.85 347.817 1320.7 349.316 1320.7 350.446ZM1310.29 351.071C1314.91 355.582 1311.56 360.571 1303.92 360.571C1298.35 360.571 1297.35 359.609 1297.35 354.256C1297.35 349.482 1298.54 347.941 1302.22 347.941C1304.9 347.941 1308.53 349.349 1310.29 351.071ZM1530.93 352.924C1531 354.235 1531.68 359.233 1532.44 364.026C1534.16 374.941 1530.67 376.913 1520.48 370.798C1511.48 365.398 1511.37 365.003 1516.32 355.393C1519.24 349.724 1521.12 348.482 1525.4 349.392C1528.37 350.021 1530.86 351.61 1530.93 352.924ZM1551.81 356.888C1552.03 364.487 1552.38 365.043 1554.14 360.571C1557.13 352.995 1557.13 347.941 1554.14 347.941C1552.72 347.941 1551.67 351.968 1551.81 356.888ZM1589 359.816C1587.7 368.267 1588 371.278 1590.04 370.255C1591.61 369.465 1593.67 364.108 1594.61 358.351C1596.94 344.087 1602.47 347.767 1601.21 362.744L1600.29 373.696L1589.97 372.574C1577.11 371.175 1576.74 370.853 1580.01 363.885C1581.48 360.755 1582.68 355.886 1582.68 353.067C1582.68 349.81 1584.16 347.941 1586.75 347.941C1590.2 347.941 1590.55 349.794 1589 359.816ZM99.3181 351.772C102.547 352.869 102.996 354.37 101.238 358.18C99.3388 362.3 98.2754 362.708 95.0771 360.555C91.1241 357.892 89.6482 349.926 93.1577 350.194C94.229 350.276 96.9992 350.985 99.3181 351.772ZM1282.96 351.953C1284.51 352.08 1284.51 352.829 1282.96 353.991C1279.64 356.467 1235.14 358.41 1228.62 356.363C1223.77 354.846 1223.85 354.656 1229.91 353.48C1240.52 351.421 1266.81 350.665 1282.96 351.953ZM1620.69 354.227C1622.4 354.244 1623.11 356.054 1622.34 358.443C1621.6 360.746 1619.96 362.11 1618.69 361.477C1617.43 360.841 1616.4 363.695 1616.4 367.815C1616.4 373.903 1615.42 375.307 1611.21 375.307C1606.64 375.307 1606.02 373.903 1606.02 363.483C1606.02 352.25 1606.31 351.724 1611.86 352.93C1615.07 353.627 1619.04 354.212 1620.69 354.227ZM572.403 356.321C571.539 357.456 571.635 367.876 572.621 379.477C573.915 394.741 573.591 400.567 571.446 400.567C569.801 400.567 568.481 397.366 568.481 393.374C568.481 389.419 567.137 385.819 565.495 385.375C563.853 384.931 561.957 379.168 561.283 372.57C560.609 365.971 559.034 360.571 557.784 360.571C556.534 360.571 555.512 361.818 555.512 363.34C555.512 364.862 551.426 367.689 546.433 369.621C540.491 371.92 537.355 374.599 537.355 377.378C537.355 379.713 536.27 381.622 534.948 381.622C532.686 381.622 530.922 390.688 528.751 413.467C528.006 421.285 525.623 425.325 516.682 433.932C510.552 439.831 502.659 446.188 499.137 448.059C494.224 450.672 493.036 452.764 494.024 457.065C495.433 463.203 507.523 488.154 511.525 493.189C512.908 494.926 516.578 500.34 519.685 505.222C524.624 512.981 526.66 514.24 535.884 515.233C572.683 519.193 596.982 517.174 598.554 510.03C599.908 503.875 609.848 470.924 613.668 459.919C617.821 447.956 618.342 450.23 606.092 426.809C603.952 422.717 602.201 416.616 602.201 413.25C602.201 409.884 601.034 406.546 599.607 405.83C598.18 405.114 597.013 402.272 597.013 399.515C597.013 396.757 595.846 393.915 594.419 393.2C592.993 392.484 591.825 388.64 591.825 384.655C591.825 380.67 590.658 377.412 589.232 377.412C587.805 377.412 586.638 375.145 586.638 372.374C586.638 369.604 584.858 366.783 582.682 366.106C579.912 365.243 579.219 363.287 580.371 359.565C581.595 355.601 580.994 354.256 577.992 354.256C575.783 354.256 573.266 355.185 572.403 356.321ZM1380.36 359.294C1380.36 362.535 1373.39 365.438 1369.86 363.668C1368.62 363.049 1368.27 361.15 1369.08 359.452C1370.93 355.519 1380.36 355.389 1380.36 359.294ZM1396.6 357.62C1399.51 359.976 1395.38 364.782 1390.45 364.782C1385.68 364.782 1383.78 360.597 1387.27 357.765C1389.42 356.02 1394.54 355.94 1396.6 357.62ZM1631.96 363.729C1631.96 367.781 1633.13 371.097 1634.55 371.097C1635.98 371.097 1637.15 368.154 1637.15 364.556C1637.15 359.458 1638.05 358.298 1641.25 359.294C1643.51 359.997 1646.43 360.571 1647.74 360.571C1650.94 360.571 1650.76 368.297 1647.43 373.341C1645.39 376.433 1641.96 377.412 1633.17 377.412C1626.8 377.412 1621.58 376.883 1621.58 376.239C1621.58 371.697 1627.83 356.361 1629.67 356.361C1630.93 356.361 1631.96 359.677 1631.96 363.729ZM1257.73 362.83L1282.1 362.462L1281.3 371.269C1280.53 379.62 1280.02 380.121 1271.41 380.917C1266.42 381.378 1255.33 381.782 1246.77 381.814C1225.82 381.891 1220.88 383.123 1225.07 387.221C1227.65 389.745 1227.55 390.739 1224.56 392.276C1219.22 395.016 1216.94 394.694 1216.94 391.194C1216.94 385.325 1222.73 377.73 1226.34 378.856C1231.12 380.342 1230.9 376.486 1226.02 373.202C1223.88 371.76 1222.13 367.821 1222.13 364.449C1222.13 358.814 1222.59 358.515 1227.75 360.759C1231.07 362.201 1243.33 363.049 1257.73 362.83ZM575.386 367.413C574.667 368.861 574.078 367.676 574.078 364.782C574.078 361.887 574.667 360.704 575.386 362.15C576.107 363.599 576.107 365.967 575.386 367.413ZM776.643 370.044C776.671 374.675 777.203 376.321 777.823 373.703C778.443 371.084 778.419 367.295 777.771 365.283C777.122 363.27 776.614 365.413 776.643 370.044ZM1430.94 364.177C1428.08 364.735 1424.64 366.045 1423.28 367.091C1420.11 369.537 1430.35 369.491 1443.57 367C1456.67 364.535 1458.79 365.384 1465.95 375.93C1473.48 387.03 1472.88 386.508 1476.14 384.876C1479.81 383.032 1470.18 367.745 1463.52 364.851C1458.48 362.664 1440.59 362.293 1430.94 364.177ZM1324.66 373.134C1322.18 375.359 1316.48 377.553 1312 378.01C1306.05 378.618 1307.18 378.934 1316.16 379.18C1325.25 379.428 1328.48 378.736 1328.48 376.534C1328.48 374.894 1329.88 373.174 1331.59 372.709C1333.71 372.137 1333.82 371.425 1331.94 370.48C1330.42 369.716 1327.14 370.911 1324.66 373.134ZM1441.7 372.692C1441.03 373.568 1439.73 378.069 1438.8 382.691C1437.44 389.501 1437.69 390.366 1440.1 387.255C1444.5 381.588 1447.79 371.097 1445.17 371.097C1443.93 371.097 1442.37 371.814 1441.7 372.692ZM578.06 383.161C577.401 385.209 576.82 384.043 576.768 380.569C576.716 377.096 577.253 375.42 577.964 376.846C578.675 378.271 578.719 381.112 578.06 383.161ZM665.942 379.911C665.353 381.43 663.021 389.678 660.76 398.237C658.389 407.213 654.804 414.894 652.291 416.387C648.216 418.806 648.229 419.605 652.516 428.716C657.891 440.136 663.208 441.805 661.131 431.419L659.722 424.38L671.166 424.577C680.024 424.731 682.61 425.569 682.61 428.287C682.61 435.174 679.391 438.458 672.606 438.49C665.372 438.523 657.177 441.677 659.476 443.542C660.223 444.148 665.283 444.058 670.72 443.342C678.795 442.279 681.264 440.761 684.2 435.054C689.575 424.62 688.924 417.408 682.61 417.408C678.286 417.408 677.423 416.004 677.423 408.988C677.423 404.356 678.59 400.567 680.016 400.567C681.443 400.567 682.61 402.405 682.61 404.653C682.61 406.901 683.777 409.324 685.204 410.04C688.169 411.526 688.296 407.373 685.658 395.305C684.646 390.674 682.379 386.767 680.621 386.621C678.862 386.476 676.255 386.24 674.829 386.095C673.402 385.95 672.235 384.468 672.235 382.799C672.235 378.713 667.283 376.439 665.942 379.911ZM867.075 390.568C866.909 397.227 867.679 402.672 868.786 402.672C869.894 402.672 870.418 398.645 869.949 393.726C868.54 378.98 867.394 377.721 867.075 390.568ZM991.266 384.769C994.612 387.657 1002.9 392.269 1009.7 395.016C1018.89 398.736 1021.3 400.622 1019.12 402.395C1015.6 405.249 1004.42 405.47 999.2 402.786C996.907 401.609 993.628 401.651 990.77 402.893C982.249 406.594 985.904 408.988 1000.08 408.988C1010.12 408.988 1014.49 409.878 1015.56 412.145C1016.38 413.882 1018.17 415.303 1019.54 415.303C1020.91 415.303 1023.78 413.882 1025.92 412.145C1028.06 410.408 1032.15 408.988 1035 408.988C1040.18 408.988 1048.34 403.898 1048.34 400.675C1048.34 396.959 1040.62 394.2 1025.54 392.526C1015.29 391.389 1006.19 388.788 999.706 385.144C987.146 378.079 983.326 377.911 991.266 384.769ZM157.309 385.71C159.052 390.17 156.538 442.439 154.448 445.186C153.74 446.116 151.768 446.878 150.069 446.878C147.836 446.878 146.98 439.233 146.98 419.313V391.747L139.199 386.695L131.417 381.643L143.564 381.632C153.317 381.624 156.025 382.428 157.309 385.71ZM560.466 395.7C556.855 401.218 556.798 401.228 555.945 396.505C555.47 393.873 555.895 389.211 556.886 386.144L558.694 380.569L561.407 385.339C563.428 388.889 563.187 391.543 560.466 395.7ZM875.123 387.659C872.527 392.419 872.491 394.983 874.952 399.763C877.922 405.531 878.124 405.596 879.094 401.062C879.655 398.441 881.198 396.839 882.521 397.502C885.213 398.852 885.794 390.109 883.356 384.952C881.066 380.108 878.843 380.839 875.123 387.659ZM550.324 398.852C550.324 418.174 562.73 438.913 565.42 424.085C566.333 419.045 567.858 418.584 573.669 421.59C576.587 423.1 576.877 424.489 574.833 427.154C569.077 434.65 550.324 431.874 550.324 423.525C550.324 421.182 549.157 419.85 547.73 420.565C546.303 421.281 545.136 424.077 545.136 426.779C545.136 431.72 538.511 435.955 537.881 431.417C537.697 430.08 536.784 424.609 535.853 419.26C534.761 412.974 535.186 409.023 537.056 408.085C538.646 407.287 539.964 403.611 539.985 399.917C540.003 396.223 540.729 391.048 541.598 388.419C544.379 379.999 550.324 387.108 550.324 398.852ZM768.596 403.199C768.809 413.907 769.468 420.079 770.062 416.913L771.138 411.156L780.204 418.3C788.771 425.053 789.653 425.285 796.247 422.493C800.086 420.868 804.5 419.534 806.059 419.525C807.904 419.517 808.3 416.762 807.195 411.619C806.241 407.181 804.148 403.954 802.415 404.251C800.721 404.54 799.334 403.424 799.334 401.769C799.334 393.109 782.349 388.724 780.414 396.884C779.695 399.911 779.161 398.854 778.935 393.951C778.629 387.297 775.263 383.727 769.292 383.727C768.695 383.727 768.381 392.49 768.596 403.199ZM137.484 391.042C141.403 394.069 141.743 397.467 141.014 426.354C140.529 445.527 140.145 446.878 135.163 446.878C130.366 446.878 129.897 445.758 130.52 435.827C130.901 429.75 130.968 420.338 130.667 414.915C130.164 405.855 129.544 405.003 122.987 404.39C117.325 403.862 115.68 402.493 115.011 397.759C113.608 387.8 116.038 385.308 125.578 386.929C130.216 387.716 135.575 389.566 137.484 391.042ZM1242.88 387.937C1242.88 389.095 1241.78 390.042 1240.44 390.042C1239.1 390.042 1237.28 389.095 1236.4 387.937C1235.52 386.779 1236.62 385.832 1238.84 385.832C1241.06 385.832 1242.88 386.779 1242.88 387.937ZM584.005 393.85C583.969 396.917 583.616 396.974 581.45 394.252C578.166 390.131 578.166 387.343 581.45 388.99C582.877 389.705 584.026 391.892 584.005 393.85ZM830.46 394.292C830.46 397.719 829.261 398.298 824.284 397.283C818.64 396.134 817.83 396.953 814.938 406.741C811.312 419.012 812.624 423.723 819.672 423.723C823.438 423.723 825.083 421.599 826.61 414.776C827.941 408.819 829.005 407.236 829.788 410.04C831.604 416.538 835.476 418.923 838.309 415.286C842.166 410.333 841.32 399.064 836.988 397.715C834.799 397.033 833.801 395.122 834.672 393.28C835.513 391.499 834.911 390.042 833.331 390.042C831.751 390.042 830.46 391.956 830.46 394.292ZM1250.66 392.343C1250.66 393.814 1255.8 394.383 1264.93 393.922C1277.2 393.301 1279.2 393.724 1279.2 396.936C1279.19 402.155 1267.18 405.388 1253.36 403.887C1238.9 402.319 1236.69 400.565 1241.76 394.692C1246.02 389.75 1250.66 388.524 1250.66 392.343ZM1235.1 393.349C1235.1 396.113 1227.14 400.727 1224.59 399.447C1222.82 398.561 1223.52 397.012 1226.51 395.17C1231.48 392.116 1235.1 391.347 1235.1 393.349ZM1291.57 409.116C1291.19 409.922 1288.24 409.779 1285.03 408.8C1279.27 407.04 1279.25 406.927 1283.7 399.361L1288.2 391.705L1290.24 399.679C1291.36 404.064 1291.96 408.312 1291.57 409.116ZM1346.3 401.094C1337.03 408.855 1336.54 408.988 1317.11 408.988C1300.04 408.988 1297.35 408.487 1297.32 405.304C1297.3 403.279 1296.55 399.416 1295.67 396.721L1294.05 391.823L1324.89 392.511L1355.73 393.2L1346.3 401.094ZM1042.77 399.62C1043.27 399.986 1043.03 401.14 1042.23 402.182C1039.91 405.23 1025 402.569 1025 399.109C1025 396.73 1026.93 396.359 1033.43 397.488C1038.07 398.294 1042.27 399.254 1042.77 399.62ZM1386.9 408.444C1383.3 413.934 1380.36 419.637 1380.36 421.115C1380.36 422.98 1378.17 423.378 1373.22 422.413C1369.3 421.651 1365.67 420.742 1365.17 420.397C1364.66 420.052 1368.03 415.494 1372.65 410.267C1380.07 401.885 1383.71 399.647 1391.44 398.706C1392.55 398.572 1390.51 402.954 1386.9 408.444ZM1712.04 400.854C1715.79 401.009 1710.1 401.898 1699.4 402.826C1688.7 403.754 1672.06 404.152 1662.42 403.708L1644.89 402.904L1639.72 411.124C1633.23 421.449 1633.17 424.249 1639.6 417.467L1644.52 412.265L1644.08 419.389L1643.63 426.512L1698.1 427.293C1767.18 428.282 1761.65 427.832 1770.73 433.227C1775.01 435.77 1783.47 439.902 1789.54 442.407C1795.6 444.914 1800.56 447.518 1800.56 448.196C1800.56 449.577 1764.7 447.773 1729.23 444.607C1713.48 443.201 1699.74 443.232 1686.99 444.704C1666.07 447.118 1665.02 446.826 1642.92 432.448C1636.82 428.48 1631.03 425.881 1630.05 426.672C1627.85 428.463 1650.1 444.561 1654.95 444.683C1657.71 444.754 1657.49 446.017 1653.96 450.387C1649.63 455.751 1649.64 456.126 1654.16 458.808C1656.76 460.351 1663.69 461.614 1669.55 461.614C1675.41 461.614 1681.32 462.519 1682.68 463.626C1685.71 466.083 1751.31 469.004 1784.56 468.165C1808.6 467.556 1808.76 467.586 1807.9 472.457C1806.88 478.279 1797.95 482.169 1781.38 484.013L1769.43 485.342V478.74V472.139H1755.04C1743.02 472.139 1739.66 473.006 1734.63 477.414C1724.82 485.999 1690.26 488.451 1663.58 482.454C1653.26 480.136 1652.43 479.431 1652.93 473.408C1654.31 456.583 1649.13 453.798 1646.48 469.948C1644.89 479.726 1641.33 484.66 1637.9 481.873C1637.08 481.205 1636.41 475.467 1636.41 469.122V457.585L1614.73 451.219C1602.81 447.718 1590.35 444.302 1587.03 443.628C1583.16 442.839 1579.69 439.626 1577.31 434.64C1575.28 430.373 1573.23 426.171 1572.75 425.302C1572.26 424.432 1574.12 423.723 1576.88 423.723C1579.63 423.723 1584.69 421.744 1588.12 419.323C1593.23 415.713 1594.49 415.494 1595.15 418.109C1596.08 421.805 1608.7 425.828 1619.38 425.828C1627.96 425.828 1629.21 422.216 1621.44 419.881L1616.1 418.279L1621.44 414.36C1626.66 410.522 1626.77 410.533 1626.77 414.852C1626.77 417.279 1627.94 419.85 1629.37 420.565C1630.93 421.35 1631.96 418.481 1631.96 413.322V404.777H1621.43C1615.22 404.777 1611.55 405.624 1612.47 406.838C1614.66 409.707 1609.18 417.408 1604.95 417.408C1603.04 417.408 1600.13 416.096 1598.49 414.492C1596.1 412.164 1597.48 410.573 1605.3 406.598C1614.04 402.157 1619.15 401.487 1652.71 400.388C1673.4 399.711 1693.68 399.473 1697.78 399.862C1701.88 400.249 1708.3 400.696 1712.04 400.854ZM726.706 415.303C726.706 427.457 725.972 430.038 722.522 430.038C719.176 430.038 718.68 428.663 720.05 423.197C721.972 415.528 723.585 407.154 723.902 403.199C724.016 401.752 724.695 400.567 725.409 400.567C726.122 400.567 726.706 407.198 726.706 415.303ZM1372.33 404.251C1364.36 412.69 1355.82 417.039 1351.18 415.025C1346.22 412.869 1344.57 416.124 1349.4 418.544C1351.26 419.477 1350.94 421.068 1348.44 423.405C1346.39 425.316 1344.08 428.301 1343.29 430.038C1342.5 431.775 1341.76 429.785 1341.65 425.615C1341.2 408.813 1349.17 401.001 1367.05 400.71C1374.99 400.58 1375.48 400.908 1372.33 404.251ZM1582.67 407.927C1589.61 413.926 1588.84 415.242 1577.22 417.17C1566.43 418.961 1562.08 424.272 1566.58 430.133C1569.83 434.353 1569.76 434.372 1563.32 430.947C1559.69 429.019 1553.13 427.213 1548.73 426.933C1542.11 426.51 1539.46 424.596 1533.22 415.747C1524.33 403.106 1524.02 403.285 1555.64 402.917C1574.82 402.693 1577.1 403.117 1582.67 407.927ZM563.293 413.198C563.293 417.829 562.126 421.618 560.699 421.618C559.273 421.618 558.105 417.829 558.105 413.198C558.105 408.566 559.273 404.777 560.699 404.777C562.126 404.777 563.293 408.566 563.293 413.198ZM951.549 409.383C950.721 411.061 950.106 410.562 949.982 408.11C949.87 405.891 950.482 404.649 951.344 405.348C952.205 406.047 952.298 407.863 951.549 409.383ZM1223.77 409.514C1222.91 412.12 1222.19 415.435 1222.17 416.881C1222.15 418.33 1221.2 419.513 1220.06 419.513C1218.92 419.513 1218.46 416.197 1219.04 412.145C1219.63 408.093 1221.28 404.777 1222.72 404.777C1224.16 404.777 1224.63 406.897 1223.77 409.514ZM362.703 408.287C361.751 409.057 360.835 412.61 360.667 416.18L360.358 422.67L358.664 416.355C356.293 407.508 352.595 413.042 353.567 423.982C354.275 431.935 353.705 432.77 345.682 435.507C340.925 437.13 336.583 438.458 336.033 438.458C335.483 438.458 335.034 433.431 335.034 427.287C335.034 417.058 335.636 415.922 342.167 413.827L349.3 411.541L339.789 411.316L330.277 411.093L331.626 425.302C332.368 433.116 333.914 440.323 335.063 441.317C338.282 444.102 356.278 438.435 357.64 434.206C358.776 430.684 359.305 430.665 366.254 433.901C373.265 437.168 374.038 437.117 380.932 432.958C386.512 429.587 388.395 426.527 389.007 419.822C389.715 412.053 389.049 410.848 383.002 408.981C375.195 406.573 365.234 406.232 362.703 408.287ZM1242.88 415.303C1242.88 421.384 1241.8 423.723 1238.99 423.723C1236.85 423.723 1235.1 424.67 1235.1 425.828C1235.1 426.986 1233.93 427.933 1232.51 427.933C1229.65 427.933 1228.88 410.528 1231.64 408.287C1232.59 407.514 1235.51 406.882 1238.13 406.882C1241.95 406.882 1242.88 408.541 1242.88 415.303ZM1491.89 408.952C1491.89 411.436 1515.93 421.618 1521.79 421.618C1528.71 421.618 1523.64 417.953 1508.86 412.278C1493.17 406.255 1491.89 406.003 1491.89 408.952ZM1740.5 411.981C1765.42 422.228 1763.82 422.67 1701.77 422.67C1670.5 422.67 1644.93 422.542 1644.93 422.384C1644.93 422.228 1646.66 419.387 1648.78 416.069L1652.62 410.04L1687.03 408.895C1705.96 408.263 1722.94 407.554 1724.78 407.316C1726.61 407.076 1733.68 409.177 1740.5 411.981ZM1269.11 412.756C1267.56 415.109 1263.14 416.715 1257.35 417.033C1249.55 417.458 1248.07 416.858 1248.07 413.263C1248.07 409.594 1249.74 408.988 1259.83 408.988C1270.34 408.988 1271.33 409.392 1269.11 412.756ZM667.047 415.427C667.047 416.517 665.88 417.408 664.453 417.408C663.027 417.408 661.859 415.93 661.859 414.126C661.859 412.322 663.027 411.429 664.453 412.145C665.88 412.861 667.047 414.336 667.047 415.427ZM274.39 414.808C276.201 415.77 277.741 427.209 278.473 445.083L279.65 473.812L265.408 476.132C257.574 477.41 248.389 478.454 244.997 478.454C239.474 478.454 238.976 477.736 240.245 471.613C245.03 448.495 246.807 435.997 246.823 425.302L246.843 413.198L259.164 413.229C265.939 413.248 272.792 413.958 274.39 414.808ZM382.743 416.528C385.824 423.045 384.284 427.449 378.481 428.712C369.138 430.743 368.754 430.463 368.754 421.618C368.754 414.141 369.449 413.198 374.961 413.198C378.375 413.198 381.877 414.696 382.743 416.528ZM1155.38 416.338C1153.56 418.972 1146.11 420.153 1121.92 421.643C1104.8 422.698 1089.12 424.005 1087.07 424.55C1082.31 425.817 1014.6 428.821 998.412 428.482C986.975 428.244 981.842 430.621 989.333 432.686C991.118 433.179 986.739 434.259 979.606 435.086C962.839 437.033 957.558 438.332 957.558 440.506C957.558 442.868 985.92 441.031 1006.84 437.315C1016.11 435.667 1039.46 433.349 1058.72 432.166C1077.98 430.981 1100.74 429.076 1109.3 427.931C1117.86 426.788 1131.14 425.847 1138.81 425.841L1152.76 425.828L1150.67 434.774C1149.52 439.694 1148.76 447.274 1148.98 451.615L1149.38 459.509H1137.94C1120.91 459.509 1114.15 462.348 1110.64 470.975C1105.84 482.772 1109.37 484.815 1115.38 473.718L1120.79 463.719H1136.23C1146.15 463.719 1152.14 462.778 1152.98 461.087C1153.97 459.107 1154.98 459.237 1157.05 461.614C1158.56 463.35 1160.1 465.403 1160.49 466.177C1161.34 467.912 1175.46 465.847 1175.39 463.999C1175.36 463.266 1170.59 459.942 1164.79 456.614C1156.44 451.815 1154.59 449.636 1155.87 446.089C1156.75 443.628 1158.18 436.642 1159.04 430.564C1159.9 424.487 1161.13 419.513 1161.78 419.513C1162.42 419.513 1165.94 421.42 1169.59 423.752C1178.24 429.272 1180.4 427.304 1173.71 420.005C1167.54 413.276 1158.71 411.509 1155.38 416.338ZM1297.34 415.829C1297.35 416.698 1296.19 417.408 1294.76 417.408C1293.33 417.408 1292.17 419.269 1292.17 421.544C1292.17 426.443 1300.89 430.716 1310.43 430.497C1316.02 430.368 1318.27 432.046 1322.9 439.77C1326 444.956 1329.7 448.621 1331.1 447.916C1332.51 447.209 1333.67 447.634 1333.67 448.859C1333.67 450.2 1326.94 451.088 1316.81 451.088C1302.27 451.088 1299.95 450.564 1299.95 447.28C1299.95 445.186 1298.2 441.635 1296.06 439.387C1292.24 435.379 1292.09 435.376 1288.35 439.296C1285.21 442.601 1283.86 442.83 1280.57 440.618C1278.39 439.147 1276.6 436.164 1276.6 433.991C1276.6 431.817 1275.43 430.038 1274.01 430.038C1271.14 430.038 1270.52 421.748 1272.99 416.524C1274.16 414.061 1277.53 413.328 1285.95 413.72C1292.21 414.012 1297.33 414.96 1297.34 415.829ZM1330.56 414.553C1340.46 416.705 1337.04 424.175 1325.74 425.104C1318.21 425.723 1315.15 424.704 1309.05 419.53L1301.57 413.198L1313.08 413.227C1319.41 413.242 1327.28 413.84 1330.56 414.553ZM1823.17 419.311C1820.72 422.674 1818.75 426.699 1818.8 428.257C1818.91 432.055 1831.69 420.136 1831.69 416.237C1831.69 411.368 1827.97 412.709 1823.17 419.311ZM961.786 422.144C960.928 424.75 960.207 427.59 960.189 428.459C960.168 429.329 958.401 430.038 956.262 430.038C953.668 430.038 952.371 427.933 952.371 423.723C952.371 418.696 953.489 417.408 957.862 417.408C962.29 417.408 963.05 418.323 961.786 422.144ZM1302.59 422.719C1305.33 425.398 1305.17 425.708 1301.61 424.599C1299.27 423.868 1297.35 422.426 1297.35 421.393C1297.35 418.685 1298.85 419.067 1302.59 422.719ZM69.1957 433.764C66.8612 446.4 65.4372 448.983 60.802 448.983C57.9488 448.983 57.3651 447.699 58.6517 444.247C59.6218 441.641 61.0666 435.56 61.8629 430.728C62.9497 424.133 64.2596 422.241 67.1232 423.133C70.0802 424.053 70.5471 426.451 69.1957 433.764ZM891.864 431.156C889.434 436.85 886.285 439.845 881.315 441.191C877.419 442.245 873.844 442.771 873.37 442.361C872.895 441.95 873.276 437.827 874.218 433.196C875.769 425.561 876.77 424.668 884.97 423.626C889.942 422.995 894.305 422.603 894.668 422.757C895.031 422.912 893.768 426.691 891.864 431.156ZM913.626 425.828C913.388 433.322 921.535 466.487 924.202 468.876C929.218 473.372 923.034 439.317 916.386 425.828L913.792 420.565L913.626 425.828ZM1261.04 423.723C1261.04 424.881 1258.12 425.828 1254.55 425.828C1250.99 425.828 1248.07 424.881 1248.07 423.723C1248.07 422.565 1250.99 421.618 1254.55 421.618C1258.12 421.618 1261.04 422.565 1261.04 423.723ZM597.413 430.758C599.77 433.396 602.105 438.326 602.6 441.713C603.384 447.083 602.504 448.042 595.716 449.23C584.581 451.177 532.776 451.149 520.495 449.19L510.119 447.535L517.001 445.232C520.785 443.965 524.756 441.778 525.828 440.374C527.249 438.504 528.696 438.848 531.223 441.652C534.071 444.813 535.767 445.076 540.942 443.163C544.387 441.889 549.66 441.367 552.656 442.003C556.534 442.826 558.105 442.178 558.105 439.757C558.105 437.14 560.733 436.353 569.479 436.353C578.75 436.353 581.639 435.381 585.102 431.09C590.29 424.664 591.924 424.62 597.413 430.758ZM1333.63 430.564C1333.6 432.013 1332.56 434.507 1331.31 436.111C1329.49 438.452 1328.47 438.174 1326.18 434.703C1324.04 431.444 1324.13 430.118 1326.55 429.322C1332.01 427.535 1333.67 427.826 1333.63 430.564ZM723.463 435.416C727.03 436.3 728.298 472.166 724.76 472.107C718.929 472.01 714.914 466.655 709.54 451.813C706.253 442.731 703.517 434.614 703.462 433.774C703.371 432.398 715.218 433.372 723.463 435.416ZM836.63 437.932C831.266 456.094 829.503 458.342 819.576 459.65C811.008 460.78 810.248 460.521 812.427 457.216C813.768 455.181 816.136 448.708 817.69 442.83C820.419 432.503 820.813 432.143 829.427 432.143C837.837 432.143 838.244 432.471 836.63 437.932ZM866.737 433.722C866.589 440.313 862.297 445.283 854.144 448.306C848.964 450.225 843.722 452.232 842.498 452.762C840.389 453.673 842.726 437.088 845.177 433.722C845.81 432.852 850.928 432.143 856.551 432.143C862.175 432.143 866.758 432.852 866.737 433.722ZM764.472 441.862C763.536 444.891 762.291 449.863 761.707 452.914C757.152 476.665 758.649 474.541 746.956 473.833L736.37 473.191L736.077 455.917L735.784 438.645L743.566 437.835C764.739 435.635 766.306 435.936 764.472 441.862ZM1391.41 439.115C1392.76 442.487 1413.34 451.638 1417.21 450.592C1418.91 450.131 1413.58 446.798 1405.35 443.186C1397.13 439.572 1390.86 437.74 1391.41 439.115ZM1341.45 445.022C1341.45 446.18 1340.28 446.542 1338.85 445.826C1337.43 445.11 1336.26 443.578 1336.26 442.42C1336.26 441.262 1337.43 440.9 1338.85 441.616C1340.28 442.331 1341.45 443.864 1341.45 445.022ZM1463.36 451.027C1459.79 451.808 1448.82 452.004 1438.98 451.461C1425.95 450.745 1421.59 451.133 1422.92 452.888C1423.93 454.214 1430.97 455.299 1438.57 455.299C1450.48 455.299 1452.58 455.915 1453.82 459.782C1455.22 464.112 1454.65 464.23 1437.04 463.207C1421.8 462.323 1419.38 462.611 1422.29 464.971C1426.28 468.209 1430.65 468.727 1450.05 468.261C1463.25 467.946 1463.9 467.67 1462.78 462.883C1461.72 458.403 1462.74 457.686 1471.78 456.513C1484.14 454.909 1535.99 457.393 1535.99 459.591C1535.99 462.557 1522.85 463.822 1506.34 462.449C1486.59 460.807 1465.21 462.959 1466.64 466.445C1467.94 469.609 1539.9 471.305 1542.24 468.228C1543.28 466.87 1546.4 467.188 1550.95 469.112C1562 473.791 1577.49 472.573 1577.49 467.024C1577.49 465.352 1572.41 464.354 1562.86 464.15C1546.47 463.801 1545.63 463.515 1547.75 459.029C1548.89 456.608 1552.02 456.096 1560.78 456.896C1567.6 457.521 1572.3 457.092 1572.3 455.846C1572.3 453.29 1547.98 450.737 1546.88 453.175C1546.45 454.124 1542.36 454.13 1537.8 453.191C1526.52 450.87 1471.4 449.268 1463.36 451.027ZM1705.36 454.311L1710.02 459.509H1699.84C1694.24 459.509 1685.58 458.126 1680.59 456.435C1675.61 454.743 1670.87 453.892 1670.07 454.541C1669.27 455.189 1667.08 454.915 1665.2 453.93C1662.94 452.743 1665.71 451.716 1673.46 450.878C1696.39 448.398 1700.44 448.836 1705.36 454.311ZM1754.52 452.356C1767 453.135 1777.18 454.353 1777.13 455.063C1777.09 455.77 1775.59 457.913 1773.79 459.824C1770.97 462.835 1767.16 463.089 1745.17 461.74C1722.09 460.323 1719.18 459.656 1712.84 454.341L1705.88 448.499L1718.85 449.718C1725.99 450.39 1742.04 451.575 1754.52 452.356ZM57.6193 455.299H64.4879L62.1638 467.327C60.885 473.943 59.365 479.74 58.7866 480.21C58.2081 480.681 55.054 480.509 51.778 479.831C46.3932 478.715 45.7577 477.233 45.174 464.424C44.6708 453.406 45.2207 450.813 47.6382 452.775C49.3475 454.162 53.8401 455.299 57.6193 455.299ZM605.736 458.982C604.774 462.165 601.817 469.933 599.163 476.242C596.513 482.551 593.613 492.76 592.718 498.93C591.825 505.1 590.321 510.537 589.374 511.011C588.43 511.484 578.382 511.12 567.044 510.202C555.683 509.28 545.134 509.35 543.536 510.358C540.12 512.514 536.252 509.165 533.43 501.61C531.84 497.349 523.721 480.641 512.057 457.616C510.83 455.195 512.827 454.989 523.311 456.452C542.327 459.109 592.225 458.658 598.31 455.778C606.203 452.04 607.648 452.663 605.736 458.982ZM1374.23 461.744C1387.01 466.184 1388.06 467.299 1386.34 474.614L1385.02 480.222L1369.09 471.4C1360.34 466.548 1352.76 460.847 1352.26 458.734C1351.24 454.44 1354.5 454.886 1374.23 461.744ZM1810.3 458.982C1811.07 460.873 1807.47 461.595 1797.53 461.546C1784.62 461.485 1784.04 461.268 1788.89 458.296C1794.85 454.638 1808.73 455.082 1810.3 458.982ZM848.617 458.21C848.617 458.654 846.28 459.513 843.426 460.119C840.571 460.725 838.887 460.361 839.689 459.313C841.084 457.479 848.617 456.549 848.617 458.21ZM817.835 467.154C806.267 471.251 778.487 476.972 776.801 475.606C773.597 473.004 779.628 470.179 790.963 468.971C797.707 468.253 805.559 466.843 808.412 465.834C811.265 464.828 816.518 464.018 820.084 464.032C825.998 464.06 825.801 464.333 817.835 467.154ZM80.1417 494.196C78.8215 495.524 76.5181 495.448 73.6312 493.979C68.2463 491.24 65.9249 482.292 70.822 483.14C72.7856 483.479 75.2575 480.26 76.845 475.296L79.54 466.876L80.8602 479.507C81.5865 486.453 81.2623 493.063 80.1417 494.196ZM1405.68 492.385C1408.16 493.911 1411.65 495.191 1413.43 495.227C1417.3 495.307 1417.86 503.715 1413.99 503.715C1412.51 503.715 1407.85 500.839 1403.61 497.328C1396.79 491.663 1395.95 489.575 1396.22 478.909L1396.53 466.876L1398.85 478.241C1400.18 484.75 1403.1 490.796 1405.68 492.385ZM1233.8 473.101C1238.82 473.924 1243.67 476.97 1247.44 481.677C1250.75 485.796 1255.46 488.979 1258.25 488.979C1260.97 488.979 1263.72 490.164 1264.36 491.611C1265 493.078 1266.53 493.448 1267.82 492.45C1269.12 491.432 1265.12 487.154 1258.55 482.54C1252.19 478.075 1247.81 473.749 1248.83 472.928C1250.49 471.577 1273.75 490.798 1274.85 494.429C1275.48 496.517 1226.71 497.863 1223.17 495.856C1221.6 494.968 1219.54 488.727 1218.59 481.984C1217.02 470.912 1217.3 469.828 1221.44 470.775C1223.96 471.352 1229.52 472.398 1233.8 473.101ZM768.207 478.679C768.207 479.713 765.909 480.559 763.1 480.559C759.728 480.559 758.48 479.532 759.425 477.534C760.906 474.404 768.207 475.355 768.207 478.679ZM1761.65 477.928C1761.65 478.797 1756.33 479.599 1749.82 479.711C1742.61 479.837 1739.32 479.231 1741.39 478.166C1745.64 475.976 1761.65 475.789 1761.65 477.928ZM747.241 483.432C746.647 483.853 743.535 485.308 740.323 486.664C735.486 488.706 734.487 488.573 734.487 485.895C734.487 483.799 736.915 482.664 741.405 482.664C745.208 482.664 747.835 483.009 747.241 483.432ZM1806.93 491.611C1805.92 495.374 1804.09 498.974 1802.86 499.612C1799.04 501.595 1782.4 499.174 1782.45 496.644C1782.49 494.844 1800.49 486.575 1807.9 484.957C1808.37 484.853 1807.93 487.847 1806.93 491.611ZM885.579 488.573C873.961 489.257 871.616 492.034 878.975 496.4C883.123 498.862 883.099 499.551 878.581 507.683C874.013 515.903 873.191 516.345 862.489 516.345C856.287 516.345 851.211 517.292 851.211 518.45C851.211 519.608 855.319 520.555 860.338 520.555C868.932 520.555 869.378 520.894 867.956 526.344C866.499 531.933 866.766 531.846 875.694 523.883C880.78 519.345 886.915 512.004 889.327 507.569C893.542 499.812 894.191 499.505 906.333 499.505C915.725 499.505 918.466 500.178 917.04 502.136C915.987 503.584 912.332 508.409 908.919 512.859C905.505 517.311 903.305 521.433 904.027 522.02C904.75 522.605 909.074 517.717 913.639 511.154C918.381 504.336 922.907 500.012 924.204 501.064C925.454 502.079 928.847 508.384 931.744 515.076L937.015 527.243L924.591 535.945C917.756 540.732 903.412 551.348 892.712 559.54C882.013 567.731 868.869 577.446 863.505 581.13C851.563 589.329 849.818 588.891 905.681 591.682C934.738 593.133 947.326 593.036 951.074 591.329C955.395 589.363 953.014 588.752 936.808 587.666C926.108 586.948 908.016 586.224 896.603 586.054C868.844 585.643 866.426 584.029 880.915 575.585C887.312 571.857 902.533 560.555 914.737 550.47C932.657 535.663 937.407 532.741 939.422 535.29C943.795 540.829 942.218 543.544 933.565 545.363C928.927 546.338 925.135 548.497 925.135 550.16C925.135 552.535 929.423 553.162 945.147 553.082C956.153 553.025 965.939 552.345 966.896 551.571C969.433 549.512 963.441 514.543 958.562 502.917C952.962 489.583 950.957 491.981 956.054 505.912C958.277 511.981 960.858 524.388 961.792 533.486L963.493 550.026L952.096 549.994C944.242 549.971 941.858 549.367 944.426 548.047C947.57 546.432 946.849 542.902 939.798 525.449C935.205 514.074 930.378 503.367 929.07 501.658C927.218 499.235 929.016 497.839 937.205 495.343C942.984 493.579 947.564 491.19 947.383 490.032C947.04 487.84 943.829 487.859 916.415 490.211C907.339 490.987 899.168 490.792 898.258 489.775C897.347 488.758 891.641 488.217 885.579 488.573ZM1152.5 502.795L1174.96 504.06L1170.71 510.066C1168.37 513.37 1167.36 516.804 1168.46 517.698C1169.57 518.593 1178.3 520.393 1187.87 521.7L1205.27 524.077L1167.19 525.685C1146.24 526.569 1127.86 526.67 1126.34 525.908C1124.82 525.148 1117.74 524.487 1110.6 524.443C1103.46 524.397 1097.63 523.742 1097.64 522.984C1097.64 522.226 1099.98 518.507 1102.82 514.716C1105.67 510.924 1108 506.068 1108 503.923C1108 500.618 1109.69 500.136 1119.03 500.776C1125.09 501.191 1140.15 502.1 1152.5 502.795ZM1303.81 516.871L1313.27 525.818L1299.47 526.523C1291.89 526.912 1267.59 526.521 1245.48 525.653C1212.02 524.344 1206.75 523.717 1214.1 521.919C1219.31 520.646 1224.63 517.334 1227.07 513.855L1231.21 507.952L1262.78 507.937L1294.35 507.925L1303.81 516.871ZM739.675 516.343L733.19 517.635L739.675 519.067C743.242 519.854 755.497 520.572 766.91 520.66L787.661 520.824L778.583 524.218C757.051 532.263 670.188 567.605 662.37 571.499C657.66 573.846 654.438 576.28 655.211 576.907C655.984 577.534 673.262 571.426 693.606 563.332C713.952 555.238 746.647 542.603 766.262 535.255C785.879 527.908 801.927 521.163 801.927 520.269C801.927 516.743 753.114 513.667 739.675 516.343ZM717.962 519.932C716.958 520.747 713.555 521.534 710.398 521.681C707.241 521.829 694.737 525.807 682.61 530.524C670.484 535.242 647.723 542.614 632.03 546.904C594.86 557.065 559.882 568.756 557.566 571.792C554.352 576.002 558.72 577.046 589.232 579.359C605.638 580.602 625.19 582.22 632.679 582.955C641.983 583.868 646.296 583.546 646.296 581.934C646.296 580.637 643.671 579.168 640.46 578.671C624.658 576.217 600.473 573.398 597.013 573.609C594.873 573.739 587.286 573.661 580.153 573.436L567.184 573.028L580.153 567.999C587.286 565.232 610.047 558.269 630.733 552.524C651.419 546.78 677.199 538.783 688.021 534.751C698.843 530.722 711.957 526.283 717.166 524.889C722.371 523.494 727.302 521.475 728.119 520.401C729.842 518.141 720.691 517.72 717.962 519.932ZM832.096 524.026C826.577 526.956 799.689 538.587 772.345 549.87C745.003 561.155 719.334 572.141 715.303 574.284C708.466 577.92 708.318 578.282 713.101 579.717C723.316 582.784 799.336 586.651 802.291 584.254C805.714 581.475 781.252 579.056 746.027 578.692C727.707 578.503 722.607 577.846 724.555 575.924C725.961 574.539 740.152 568.399 756.089 562.279C796.95 546.59 838.739 528.998 844.015 525.266C848.155 522.338 848.098 518.286 843.924 518.574C842.939 518.642 837.616 521.096 832.096 524.026ZM896.912 526.811C895.073 528.579 890.946 533.581 887.74 537.922C881.037 547.003 880.739 547.1 874.97 542.033C872.602 539.951 871.707 539.5 872.981 541.031C876.664 545.458 872.802 546.609 864.089 543.679C858.253 541.719 856.984 540.494 859.467 539.218C861.778 538.029 860.574 537.45 855.75 537.427C846.49 537.385 846.752 538.61 856.917 542.875C866.478 546.889 867.451 545.841 839.551 561.603C831.355 566.234 821.578 572.154 817.828 574.758L811.006 579.492L818.821 576.863C823.122 575.417 836.874 568.733 849.387 562.01C865.425 553.392 873.64 550.175 877.237 551.101C880.176 551.857 882.337 551.442 882.337 550.122C882.337 545.563 896.102 531.08 900.437 531.08C902.88 531.08 906.991 529.184 909.577 526.866C914.171 522.746 914.119 522.662 907.266 523.123C903.409 523.382 898.751 525.041 896.912 526.811ZM969.76 523.986C965.055 527.803 969.503 528.975 988.685 528.975C1000.79 528.975 1009.44 529.853 1009.44 531.08C1009.44 532.238 1008.4 532.947 1007.13 532.659C1003.73 531.882 974.089 561.925 965.226 575.135C957.198 587.096 956.119 590.022 959.737 590.022C963.187 590.022 1013.33 531.373 1013.33 527.34C1013.33 524.258 1010.19 523.622 992.456 523.108C980.976 522.776 970.764 523.169 969.76 523.986ZM1416.02 533.827C1409.25 535.021 1403.7 536.842 1403.7 537.877C1403.7 538.94 1409.06 539.071 1416.02 538.181C1422.8 537.311 1437.36 536.682 1448.39 536.781C1467.22 536.947 1469.45 537.482 1485.29 545.597C1494.56 550.348 1503.78 554.236 1505.8 554.236C1511.2 554.236 1522.39 558.511 1540.25 567.392C1548.98 571.735 1556.97 575.286 1558 575.286C1559.04 575.286 1564.14 577.958 1569.33 581.222C1574.53 584.487 1583.45 589.39 1589.16 592.116L1599.54 597.073L1593.05 591.249C1587.54 586.296 1545.74 562.656 1542.5 562.656C1541.9 562.656 1535.46 559.814 1528.21 556.341C1520.95 552.867 1513.39 550.026 1511.4 550.026C1509.42 550.026 1501.86 547.032 1494.62 543.374C1473.82 532.88 1442.81 529.114 1416.02 533.827ZM1552.85 533.743C1513.5 536.055 1512.64 536.145 1512.64 537.894C1512.64 540.469 1533.61 550.474 1551.55 556.465C1574.57 564.151 1589.83 570.276 1620.29 584.064C1634.55 590.525 1650.89 596.461 1656.6 597.257C1665.97 598.564 1664.48 597.461 1641.26 585.896C1627.11 578.85 1612.52 572.527 1608.83 571.842C1605.15 571.158 1585.3 563.991 1564.74 555.916C1526.53 540.911 1522.4 537.195 1545.87 538.943C1552.56 539.441 1563.16 538.894 1569.41 537.728C1579.93 535.77 1582.4 536.221 1601.84 543.641C1632.74 555.438 1657.33 563.791 1673.46 567.973C1681.31 570.009 1698.39 575.802 1711.41 580.848C1724.44 585.893 1736.52 590.022 1738.25 590.022C1739.99 590.022 1745.63 591.645 1750.78 593.63C1759.96 597.166 1760.02 597.267 1753.77 598.682C1750.26 599.477 1731.69 600.22 1712.5 600.336C1686.32 600.494 1678.35 601.149 1680.58 602.953C1687.9 608.897 1778.91 607.637 1778.3 601.599C1778.05 599.147 1743.96 583.871 1738.51 583.774C1734.07 583.694 1670.14 562.313 1650.12 554.211C1633.86 547.634 1597.54 535.522 1587.86 533.453C1584.3 532.691 1568.54 532.819 1552.85 533.743ZM1616.89 534.899C1612.73 537.162 1662.44 539.921 1673.89 538.063C1681.73 536.791 1687.28 537.886 1751.28 553.36C1800.4 565.237 1806.06 566.807 1830.39 575.284C1860.06 585.624 1868 587.295 1868 583.195C1868 581.193 1862.08 578.821 1851.03 576.393C1841.7 574.343 1825.07 569.478 1814.07 565.582C1803.07 561.686 1792.32 558.482 1790.18 558.465C1788.04 558.446 1776.96 555.495 1765.54 551.908C1754.13 548.321 1740.12 544.395 1734.42 543.184C1728.71 541.974 1719.96 539.467 1714.96 537.614C1708.07 535.059 1695.57 534.103 1663.09 533.651C1639.55 533.322 1618.76 533.884 1616.89 534.899ZM1763.8 535.139C1740.32 536.265 1730.24 538.305 1738.58 540.237C1740.57 540.698 1755.04 544.498 1770.73 548.683C1815.23 560.549 1868 571.592 1868 569.036C1868 567.051 1858.81 564.043 1839.47 559.696C1799.29 550.666 1788.01 547.74 1778.51 543.881L1768.14 539.669L1786.29 539.608C1804.3 539.547 1818.18 542.077 1838.17 549.066C1849.15 552.901 1868 554.76 1868 552.004C1868 547.754 1864.45 543.711 1860.72 543.711C1857.51 543.711 1857.28 543.148 1859.7 541.184C1864.82 537.031 1863.35 536.189 1852.44 537.035C1845.35 537.583 1842.06 538.844 1842.06 541.02C1842.06 543.077 1840.46 543.803 1837.52 543.073C1809.64 536.139 1796.04 533.248 1792.79 533.56C1790.64 533.766 1777.6 534.478 1763.8 535.139ZM1408.89 543.561C1408.89 544.774 1420.27 551.838 1434.19 559.26C1448.1 566.681 1461.7 574.745 1464.42 577.179C1467.13 579.61 1470.55 581.601 1472.03 581.601C1477.2 581.601 1459.76 569.009 1437.68 556.795C1409.39 541.151 1408.89 540.917 1408.89 543.561ZM1643.34 543.325C1644.36 544.664 1651.84 547.314 1659.98 549.215C1668.1 551.114 1680.3 554.932 1687.08 557.699C1693.85 560.465 1699.4 562.33 1699.4 561.845C1699.4 560.206 1721.34 566.327 1738.31 572.697C1747.58 576.181 1762.03 580.751 1770.42 582.856C1778.81 584.959 1791.02 589.436 1797.57 592.807C1804.12 596.175 1813.93 599.277 1819.37 599.705C1824.82 600.13 1831.49 601.441 1834.2 602.618C1836.91 603.795 1841.1 604.757 1843.51 604.757C1847.1 604.757 1847.31 604.195 1844.66 601.599C1842.88 599.863 1840.19 598.442 1838.67 598.442C1837.16 598.442 1831.17 596.638 1825.37 594.434C1802.48 585.734 1789.1 581.614 1739.39 567.967C1710.97 560.17 1686.56 553.091 1685.13 552.236C1683.71 551.383 1675.01 549.013 1665.82 546.971C1656.62 544.929 1647.38 542.727 1645.29 542.075C1642.85 541.317 1642.15 541.765 1643.34 543.325ZM8.85754 574.703C-1.67868 575.764 -2.71622 581.492 7.56062 581.85C11.4851 581.989 15.8609 581.85 17.2876 581.542C19.7413 581.014 205.931 578.078 207.269 578.545C207.617 578.667 200.691 581.062 191.882 583.868C175.046 589.23 167.306 595.718 181.094 592.912C190.868 590.922 215.248 581.818 217.014 579.496C217.782 578.486 213.427 577.078 207.336 576.366C190.24 574.364 49.6796 574.017 38.4326 575.947C31.5563 577.126 28.9806 576.962 30.1557 575.421C31.8754 573.162 26.0963 572.969 8.85754 574.703ZM0.42753 590.569C0.42753 594.888 52.4861 597.227 114.798 595.707C159.796 594.608 169.028 593.564 169.028 589.571C169.028 588.413 167.396 587.973 165.402 588.596C159.62 590.396 42.6736 590.653 20.5299 588.914C3.34043 587.565 0.42753 587.805 0.42753 590.569ZM130.418 605.138C120.764 608.733 112.731 609.453 77.2444 609.902C-1.86543 610.904 0.42753 610.769 0.42753 614.371C0.42753 616.541 1.98384 617.284 4.96677 616.543C7.46465 615.922 33.4343 615.299 62.6799 615.156C119.503 614.882 136.389 612.68 142.488 604.755C146.415 599.652 145.027 599.696 130.418 605.138ZM1526.26 602.601C1523.05 603.713 1520.42 604.889 1520.42 605.216C1520.42 605.542 1527.72 605.809 1536.64 605.809C1545.55 605.809 1565.39 606.479 1580.73 607.298C1604.44 608.565 1608.61 608.321 1608.61 605.673C1608.61 603.144 1604.84 602.667 1588.51 603.128C1577.45 603.439 1560.24 602.993 1550.25 602.138C1539.72 601.235 1529.65 601.431 1526.26 602.601ZM1855.09 602.894C1850.44 604.399 1849.59 605.437 1852.02 606.651C1856.88 609.089 1868 606.868 1868 603.458C1868 600.107 1864.21 599.94 1855.09 602.894ZM0.941112 621.818C1.81783 623.968 9.03393 625.037 27.8705 625.807C55.4664 626.936 55.4483 627.595 27.663 634.326C21.9565 635.709 16.18 637.673 14.8234 638.692C13.4694 639.709 9.67461 640.543 6.39339 640.543C3.11216 640.543 0.42753 641.38 0.42753 642.401C0.42753 645.167 9.69795 646.62 13.7573 644.492C15.7001 643.473 25.4582 640.642 35.4445 638.2C45.4308 635.76 57.0305 632.329 61.2248 630.577L68.8455 627.394L62.4335 624.666C58.9059 623.168 43.3584 621.252 27.8808 620.41C4.37537 619.132 -0.0601141 619.364 0.941112 621.818Z" fill="#111111"/>
</svg>
