<svg width="521" height="295" viewBox="0 0 521 295" fill="none" xmlns="http://www.w3.org/2000/svg">
<path fill-rule="evenodd" clip-rule="evenodd" d="M0 1.59453C0 3.08654 14.4583 8.07114 43.8049 16.6967L58.6312 21.054L58.9951 49.5196C59.1946 65.1748 59.1164 77.9837 58.8212 77.9837C58.5247 77.9837 54.9866 76.4728 50.9565 74.626C37.0886 68.2722 17.0677 67.974 5.36846 73.9488L0 76.69V85.3318C0 92.4276 0.421875 94.0842 2.35872 94.5914C4.33871 95.1094 4.36701 95.2335 2.5299 95.3644C0.878793 95.4831 0.311352 97.0088 0.219698 101.591L0.0983925 107.662L5.10293 107.566C7.85658 107.514 15.5676 106.981 22.2394 106.383C34.7487 105.261 37.0738 105.537 33.657 107.735C32.4116 108.537 32.1757 109.387 33.0221 110.023C33.8619 110.653 34.0896 116.889 33.6273 126.548L32.886 142.062L32.6164 128.314C32.4695 120.753 31.8293 114.245 31.1945 113.853C30.5596 113.46 26.8585 113.517 22.9699 113.977C12.2815 115.245 10.7827 117.557 10.7827 132.783V145.255L7.07617 145.817C3.63109 146.34 3.67826 146.393 7.75549 146.581L12.1427 146.783L11.2909 162.634C10.8218 171.353 9.95517 179.015 9.36481 179.664C8.75559 180.333 6.48043 180.212 4.10688 179.384C-0.0579572 177.931 -0.0754792 177.944 0.227785 182.449L0.532398 186.973L23.8272 192.086C36.6398 194.897 46.8847 197.436 46.5936 197.727C46.3024 198.019 38.0725 196.644 28.3047 194.673C18.5369 192.702 10.311 191.324 10.0253 191.61C9.73951 191.894 29.7927 196.613 54.5876 202.093C79.3825 207.573 99.4384 212.289 99.1554 212.571C98.8737 212.853 81.5472 209.655 60.6529 205.465C39.7587 201.275 22.4281 198.082 22.141 198.37C21.8539 198.657 36.4659 202.156 54.6146 206.145C72.7619 210.136 87.6098 213.806 87.6098 214.304C87.6098 214.802 89.2771 214.981 91.3163 214.702C94.5862 214.257 94.7048 214.359 92.3272 215.579C90.2152 216.662 90.7988 216.801 95.0229 216.222C98.1189 215.797 99.7026 215.965 98.743 216.616C95.4893 218.822 294.958 261.135 299.815 259.269C300.971 258.826 301.917 259.052 301.917 259.773C301.917 260.492 304.192 261.099 306.971 261.12C309.752 261.142 333.772 265.511 360.351 270.832C386.931 276.152 408.902 280.279 409.178 280.002C409.454 279.726 392.046 275.61 370.492 270.856C348.938 266.102 331.827 262.038 332.468 261.824C333.109 261.61 354.826 265.688 380.732 270.886C425.119 279.792 440.069 282.367 423.223 278.207C419.145 277.199 362.225 264.993 296.733 251.081C231.241 237.169 178.181 225.612 178.82 225.398C179.459 225.185 246.689 238.934 328.221 255.951C481.329 287.906 513.424 294.379 514.322 293.48C515.016 292.787 487.455 286.561 435.353 275.645C324.524 252.423 330.077 253.717 338.982 253.175C343.864 252.876 348.582 253.385 350.884 254.457C353.79 255.811 365.143 256.238 398.569 256.252C425.89 256.262 443.594 256.797 445.501 257.665C447.185 258.433 449.651 261.48 450.983 264.436C454.482 272.2 461.027 276.747 468.875 276.867C476.568 276.983 481.152 274.266 486.237 266.574C489.315 261.917 490.022 259.191 490.421 250.419C490.81 241.844 491.316 239.821 493.116 239.626C494.335 239.496 491.086 238.996 485.897 238.516L476.462 237.643L484.212 237.406C488.619 237.27 491.963 236.551 491.963 235.739C491.963 234.953 492.627 234.721 493.44 235.223C494.358 235.791 494.734 235.183 494.433 233.617C493.971 231.211 491.123 231.066 431.966 230.402L369.983 229.707L429.288 229.255C461.906 229.007 490.109 228.318 491.963 227.724C493.903 227.102 483.432 226.587 467.269 226.51C441.755 226.387 439.397 226.182 441.323 224.256C442.487 223.089 443.37 220.51 443.284 218.522C443.163 215.725 442.981 215.518 442.479 217.606C441.245 222.742 439.806 223.013 416.078 222.565C396.34 222.193 392.637 221.794 391.157 219.873C388.563 216.507 389.173 98.8421 391.798 96.6635C393.791 95.0069 432.323 95.6706 435.134 97.4081C436.286 98.1204 436.701 113.715 436.701 156.218C436.701 198.793 437.135 215.061 438.347 217.856C439.898 221.435 440.04 221.109 440.805 212.21C441.479 204.371 441.673 203.798 441.95 208.838C442.489 218.684 444.539 211.363 444.97 198.046C445.299 187.903 445.427 188.642 446.077 204.46C447.024 227.554 449.375 228.177 449.883 205.469C450.19 191.7 450.624 188.603 452.242 188.603C453.331 188.603 454.223 189.513 454.223 190.626C454.223 191.739 455.133 192.65 456.245 192.65C457.357 192.65 458.267 191.739 458.267 190.626C458.267 189.513 459.112 188.603 460.144 188.603C461.177 188.603 462.371 189.513 462.798 190.626C463.224 191.739 464.198 192.65 464.964 192.65C465.728 192.65 466.354 191.739 466.354 190.626C466.354 189.513 467.263 188.603 468.375 188.603C469.487 188.603 470.397 189.513 470.397 190.626C470.397 191.739 471.307 192.65 472.419 192.65C473.531 192.65 474.441 191.739 474.441 190.626C474.441 189.513 475.35 188.603 476.462 188.603C477.574 188.603 478.484 189.513 478.484 190.626C478.484 191.739 479.394 192.65 480.506 192.65C481.618 192.65 482.528 191.739 482.528 190.626C482.528 189.513 483.437 188.603 484.549 188.603C485.661 188.603 486.571 189.513 486.571 190.626C486.571 191.739 487.178 192.65 487.919 192.65C488.706 192.65 489.346 197.837 489.458 205.128C489.598 214.295 489.888 216.175 490.55 212.21L491.45 206.814L492.362 211.536C492.863 214.133 493.44 218.079 493.643 220.305C494.689 231.724 497.619 179.17 498.318 136.467L499.116 87.7033L491.859 80.0234C482.315 69.9234 463.892 57.7269 452.581 54.0185C446.058 51.8803 437.258 50.6244 421.111 49.5276C395.152 47.7658 381.429 48.6022 318.765 55.7641C223.757 66.621 189.48 71.0322 177.241 73.9731C174.276 74.6854 150.015 77.7058 123.328 80.6844C96.6403 83.663 71.5098 86.7024 67.4811 87.4376C56.6957 89.4085 54.9192 88.8406 63.3486 86.1156L70.7617 83.7197L65.2342 82.7349L59.7054 81.7502L60.9292 75.4826C61.6032 72.0359 61.9832 58.2881 61.7757 44.9329L61.3983 20.6507L52.6023 17.5142C27.2992 8.49203 0 0.229334 0 1.59453ZM155.002 7.83372C87.665 16.2543 64.3474 19.5728 70.7469 19.8197C75.6975 20.0126 117.26 15.2654 186.676 6.58183C224.656 1.83061 236.25 0.00404858 228.459 1.54778e-06C222.529 -0.00269648 189.473 3.52227 155.002 7.83372ZM441.158 55.694C446.205 56.7637 453.483 59.1852 457.332 61.0738C462.408 63.5628 463.221 64.2858 460.288 63.7031C446.003 60.8634 439.692 60.3184 412.44 59.5683C381.237 58.709 365.558 59.9852 360.332 63.8096C358.412 65.2167 359.514 65.1627 365.268 63.5736C381.93 58.9707 432.469 59.9447 458.94 65.3785C470.748 67.8014 474.685 70.1257 486.908 81.8918L494.658 89.3518L494.484 116.381C494.389 131.248 493.89 152.517 493.375 163.646C492.579 180.882 492.382 176.984 492.042 137.34C491.654 91.9676 490.026 80.59 489.147 117.105L488.709 135.317L487.977 116.431C487.282 98.4792 487.096 97.4783 484.212 96.2129C482.544 95.4804 481.18 93.8103 481.18 92.5031C481.18 91.1946 480.205 90.1248 479.014 90.1248C477.642 90.1248 477.132 90.8668 477.624 92.1483C478.151 93.5243 477.551 94.1719 475.747 94.1719C473.955 94.1719 473.093 93.2572 473.093 91.3619C473.093 89.6823 472.415 88.8001 471.408 89.1697C470.482 89.5097 469.875 90.4702 470.06 91.3052C470.246 92.1402 469.157 92.8228 467.642 92.8228C465.766 92.8228 465.014 92.0701 465.283 90.4621C465.502 89.163 464.922 88.1013 463.995 88.1013C463.069 88.1013 462.334 88.7084 462.363 89.4503C462.392 90.1923 460.42 91.1029 457.982 91.4738L453.549 92.1483L453.185 120.753C452.753 154.767 451.517 152.621 470.491 150.785C477.483 150.109 483.979 149.538 484.93 149.518C485.88 149.498 487.206 148.115 487.877 146.446C488.687 144.429 489.124 150.374 489.182 164.167L489.267 184.923L483.013 184.065C479.575 183.592 470.931 183.207 463.806 183.207H450.853V133.626V84.0475L456.245 84.4225C461.584 84.7949 479.447 86.9384 487.245 88.1431C490.972 88.7191 490.907 88.6207 486.408 86.8791C464.557 78.4221 349.702 76.8654 337.056 84.8542C335.54 85.8107 336.471 85.978 340.33 85.441C362.576 82.3478 423.161 80.5387 429.029 82.7929C431.745 83.8357 430.284 88.7758 427.258 88.7758C425.945 88.7758 424.955 88.0177 425.057 87.0895C425.161 86.1628 424.638 85.4033 423.897 85.4033C423.155 85.4033 422.626 86.1142 422.719 86.983C422.938 89.0402 418.99 87.563 416.916 84.8124C415.493 82.9224 415.234 82.9494 414.413 85.066C413.297 87.9502 409.744 88.2065 409.744 85.4033C409.744 84.2903 408.834 83.3798 407.722 83.3798C406.61 83.3798 405.701 84.2903 405.701 85.4033C405.701 86.5162 404.791 87.4268 403.679 87.4268C402.567 87.4268 401.657 86.5162 401.657 85.4033C401.657 84.2903 400.747 83.3798 399.635 83.3798C398.523 83.3798 397.614 84.1811 397.614 85.1605C397.614 86.1385 395.643 87.8086 393.233 88.8702C389.099 90.6914 388.804 91.2917 387.999 99.5679C387.53 104.391 387.075 124.981 386.989 145.322C386.902 165.664 386.54 182.017 386.185 181.661C385.829 181.306 385.499 159.047 385.449 132.198C385.371 89.4962 385.104 83.3798 383.316 83.3798C382.174 83.3798 381.376 84.4239 381.51 85.7405C381.642 87.0396 381.679 89.9063 381.594 92.1119L381.439 96.1212L379.341 93.1237C378.015 91.227 375.842 90.1248 373.433 90.1248C370.696 90.1248 369.415 89.3276 368.883 87.2905C368.023 84.0003 365.005 85.1362 365.566 88.5397C365.864 90.3447 364.645 90.883 359.511 91.2121C355.095 91.4954 353.198 91.1258 353.446 90.0317C353.646 89.1549 352.958 88.1296 351.919 87.7519C350.55 87.2541 350.237 87.8558 350.783 89.944C351.396 92.294 350.939 92.8228 348.291 92.8228C346.507 92.8228 345.2 92.1402 345.385 91.3052C345.571 90.4702 344.964 89.5097 344.037 89.1697C343.111 88.8298 342.352 89.5663 342.352 90.8074C342.352 92.0499 341.182 94.0734 339.751 95.305C337.436 97.2975 337.052 100.145 336.268 121.152C335.539 140.664 335.725 145.21 337.337 147.354C338.996 149.561 341.86 150.111 356.468 151.033C367.268 151.714 374.563 151.626 376.114 150.795C377.639 149.978 378.783 147.541 379.11 144.419C379.4 141.638 379.74 148.926 379.865 160.611L380.092 181.858H357.178H334.265V138.159C334.265 100.561 334.547 94.3526 336.287 93.6835C338.796 92.7203 338.954 90.1248 336.504 90.1248C332.224 90.1248 331.569 96.6756 331.569 139.427V181.858H326.005H320.442L321.362 161.96C321.869 151.017 322.506 128.85 322.779 112.701L323.275 83.3406L328.809 78.7122C339.716 69.5915 361.866 57.7984 373.046 55.1584C381.685 53.1187 430.838 53.5059 441.158 55.694ZM354.483 56.9459C354.483 57.2453 351.097 59.4038 346.959 61.7403C342.822 64.0781 336.841 68.3855 333.668 71.3128C327.915 76.6185 327.864 76.6347 316.707 76.6347C302.285 76.6347 178.847 86.8791 166.459 89.105L157.024 90.7993L164.489 91.1959C171.223 91.5521 310.771 80.2244 322.134 78.3979L326.852 77.6397L323.718 81.0419C321.161 83.8168 319.671 84.3268 315.631 83.8074C309.97 83.0789 174.311 92.0701 159.18 94.1759C153.693 94.9394 148.965 95.3239 148.67 95.0298C147.938 94.296 165.016 83.5916 171.691 80.6021C175.414 78.9334 179.022 78.3844 183.239 78.8471C188.881 79.4649 318.763 64.816 332.917 61.9642C348.08 58.91 326.364 60.8459 266.319 67.9025C231.426 72.0035 201.962 75.167 200.842 74.9322C198.94 74.5329 238.574 69.5173 314.721 60.5194C348.012 56.5857 354.483 56.0042 354.483 56.9459ZM248.677 75.341C213.835 78.9078 181.992 82.4017 177.915 83.1046L170.502 84.3821L178.967 84.5561C187.756 84.7355 318.71 71.9347 328.2 69.9679C342.738 66.9555 306.952 69.373 248.677 75.341ZM356.06 71.445C351.366 72.1182 345.604 73.5549 343.255 74.6382C340.904 75.7201 340.195 76.3231 341.678 75.9764C365.73 70.351 431.307 70.3996 467.556 76.0695C474.519 77.1595 480.478 77.7868 480.798 77.4657C482.386 75.8779 464.645 72.8642 444.256 71.2589C423.402 69.6158 368.003 69.7332 356.06 71.445ZM25.3152 74.7488C29.6728 76.6293 29.9814 77.0407 27.6793 77.9028C25.2788 78.8039 25.3624 78.9779 28.5837 79.7873C30.5367 80.2784 32.9399 80.4956 33.9265 80.273C34.9118 80.049 34.3538 80.4699 32.6852 81.2092C31.0166 81.9471 29.6525 83.0412 29.6525 83.6401C29.6525 84.2391 28.7064 84.7288 27.5513 84.7288C26.3962 84.7288 25.8247 84.1217 26.2829 83.3798C26.7614 82.6041 25.5066 82.0213 23.3298 82.0105C20.3551 81.9943 19.9764 81.7002 21.5655 80.6413C22.9875 79.6943 21.7879 79.5324 17.522 80.0976C13.0309 80.6912 11.981 80.5266 13.4784 79.4622C15.1551 78.271 14.9813 78.0215 12.4675 78.0039C8.55611 77.9783 8.55611 75.5528 12.4675 73.9785C16.9478 72.1762 19.7392 72.3435 25.3152 74.7488ZM197.122 76.1787C196.196 76.5538 194.68 76.5538 193.752 76.1787C192.826 75.8051 193.584 75.4988 195.437 75.4988C197.29 75.4988 198.049 75.8051 197.122 76.1787ZM188.333 77.4495C187.885 77.8974 186.722 77.9459 185.75 77.5561C184.675 77.1257 184.994 76.806 186.564 76.7413C187.985 76.6833 188.78 77.0016 188.333 77.4495ZM163.089 79.7536C163.089 79.9856 161.139 81.618 158.754 83.3825C155.843 85.5355 152.911 86.4879 149.83 86.2801C147.307 86.1102 132.262 87.2555 116.397 88.8257C100.533 90.396 86.8779 91.4549 86.0517 91.1784C85.2254 90.9032 99.9466 88.9633 118.765 86.867C137.584 84.7706 154.8 82.2668 157.024 81.3036C161.18 79.504 163.089 79.0157 163.089 79.7536ZM56.972 82.9157C56.0595 83.2853 54.2399 83.3083 52.9284 82.9656C51.617 82.623 52.3637 82.3208 54.5876 82.2938C56.8116 82.2668 57.8845 82.5461 56.972 82.9157ZM389.527 85.4033C389.527 86.5162 390.436 87.4268 391.548 87.4268C392.66 87.4268 393.57 86.5162 393.57 85.4033C393.57 84.2903 392.66 83.3798 391.548 83.3798C390.436 83.3798 389.527 84.2903 389.527 85.4033ZM438.91 85.066C438.808 85.9941 439.329 86.7523 440.071 86.7523C440.812 86.7523 441.335 85.9941 441.231 85.066C441.127 84.1258 442.502 83.3798 444.343 83.3798C446.292 83.3798 447.287 83.9558 446.773 84.7881C446.295 85.5625 446.635 87.0774 447.527 88.1526C448.526 89.3572 448.748 91.2809 448.105 93.1534C447.531 94.8261 446.671 115.925 446.194 140.038L445.329 183.881L445.058 140.286C444.756 91.5548 444.281 88.8594 435.979 88.796C434.14 88.7825 433.236 87.8855 433.236 86.0778C433.236 84.2067 434.133 83.3798 436.166 83.3798C437.778 83.3798 439.013 84.1393 438.91 85.066ZM328.279 86.7091C331.701 89.3006 333.704 89.3262 331.569 86.7523C330.646 85.6394 328.94 84.7288 327.776 84.7288C326.085 84.7288 326.185 85.124 328.279 86.7091ZM373.661 86.3314C374.494 88.8325 377.396 89.2466 377.396 86.8643C377.396 85.6893 376.436 84.7288 375.262 84.7288C374.088 84.7288 373.367 85.4492 373.661 86.3314ZM320.218 90.4621C319.316 94.8315 316.879 151.996 316.79 170.886L316.743 180.823L313.036 180.035C310.999 179.601 297.733 178.195 283.56 176.909L257.79 174.572L257.951 136.952L258.112 99.3332L254.742 96.5933C251.634 94.0666 250.172 93.9223 235.872 94.725C200.366 96.7201 197.811 97.0695 194.495 100.388C191.43 103.456 191.394 103.873 191.394 136.048V168.604L174.883 167.474C165.802 166.853 155.106 166.344 151.113 166.344H143.857L144.704 153.528C145.171 146.48 145.556 130.78 145.56 118.642L145.567 96.569L150.28 97.454C154.902 98.3228 288.74 89.824 305.96 87.5698C321.572 85.526 321.252 85.4599 320.218 90.4621ZM357.91 87.3337C356.913 88.9485 359.448 90.5471 361.243 89.4368C362.752 88.5047 361.761 86.0778 359.874 86.0778C359.22 86.0778 358.336 86.643 357.91 87.3337ZM454.223 88.2133C454.223 89.3883 454.943 90.11 455.824 89.8159C458.323 88.9822 458.737 86.0778 456.357 86.0778C455.183 86.0778 454.223 87.0396 454.223 88.2133ZM151.131 89.2412C150.094 90.4931 144.289 91.3295 132.434 91.9338C122.977 92.4168 110.692 93.0926 105.132 93.4353C97.6606 93.8967 129.595 89.828 150.786 87.6197C152.186 87.474 152.271 87.8679 151.131 89.2412ZM80.5498 92.4006C79.2612 92.7378 76.8351 92.75 75.1584 92.4276C73.4817 92.1052 74.5357 91.8286 77.501 91.8138C80.4662 91.7989 81.8383 92.0633 80.5498 92.4006ZM310.903 92.3736C309.351 93.925 309.92 95.5209 312.026 95.5209C313.138 95.5209 314.047 94.6103 314.047 93.4973C314.047 91.3902 312.453 90.8209 310.903 92.3736ZM485.223 93.4973C485.223 94.6103 486.133 95.5209 487.245 95.5209C488.357 95.5209 489.267 94.6103 489.267 93.4973C489.267 92.3844 488.357 91.4738 487.245 91.4738C486.133 91.4738 485.223 92.3844 485.223 93.4973ZM46.4642 94.6642C44.8468 95.7839 38.2612 96.7984 29.6525 97.2557L15.5002 98.0058L29.4948 96.1414C37.1924 95.1162 44.1675 93.9978 44.995 93.6565C48.1827 92.3426 49.0035 92.9051 46.4642 94.6642ZM67.3921 93.5675C66.2802 93.8063 62.3377 94.4538 58.6312 95.0069L51.8919 96.0133L56.6094 96.9387L61.3268 97.8641L57.1148 98.0408C54.7979 98.1393 50.8555 98.6479 48.3539 99.174L43.8049 100.128L47.8484 100.955C51.4674 101.694 51.2261 101.842 45.5517 102.366C38.1952 103.044 38.4998 102.489 48.5237 96.9603C54.1765 93.8413 57.5354 92.9024 62.6747 93.0036C66.3813 93.0765 68.5041 93.3301 67.3921 93.5675ZM146.032 94.246C145.244 95.0352 137.155 95.8837 127.904 96.1482L111.197 96.6257L126.697 94.9381C148.388 92.5773 147.674 92.603 146.032 94.246ZM286.604 93.7591C285.086 95.278 285.681 96.8699 287.764 96.8699C288.876 96.8699 289.786 96.2992 289.786 95.6005C289.786 93.8994 287.681 92.6812 286.604 93.7591ZM293.83 94.8464C293.83 95.9593 294.74 96.8699 295.851 96.8699C296.963 96.8699 297.873 95.9593 297.873 94.8464C297.873 93.7334 296.963 92.8228 295.851 92.8228C294.74 92.8228 293.83 93.7334 293.83 94.8464ZM302.176 94.273C302.441 95.0703 303.235 95.7232 303.939 95.7232C304.642 95.7232 305.436 95.0703 305.702 94.273C305.967 93.4758 305.174 92.8228 303.939 92.8228C302.703 92.8228 301.91 93.4758 302.176 94.273ZM377.089 120.38C377.289 135.167 376.986 147.728 376.415 148.293C374.63 150.056 340.944 147.519 339.714 145.527C338.455 143.489 339.027 98.4064 340.329 97.0803C341.356 96.0335 366.842 93.0751 372.678 93.3247L376.722 93.4973L377.089 120.38ZM90.6613 95.1216C89.0034 95.4413 85.9708 95.4494 83.9221 95.1404C81.8734 94.8302 83.2293 94.5685 86.9359 94.5577C90.6424 94.5482 92.3191 94.8018 90.6613 95.1216ZM261.481 96.1954C261.481 97.4324 262.134 98.2256 262.93 97.9599C263.727 97.6941 264.379 96.9009 264.379 96.1954C264.379 95.4898 263.727 94.6966 262.93 94.4309C262.134 94.1651 261.481 94.9583 261.481 96.1954ZM269.569 96.1954C269.569 97.4324 270.221 98.2256 271.017 97.9599C271.814 97.6941 272.466 96.9009 272.466 96.1954C272.466 95.4898 271.814 94.6966 271.017 94.4309C270.221 94.1651 269.569 94.9583 269.569 96.1954ZM277.914 95.622C278.18 96.4193 278.974 97.0722 279.677 97.0722C280.381 97.0722 281.175 96.4193 281.44 95.622C281.706 94.8248 280.913 94.1719 279.677 94.1719C278.441 94.1719 277.649 94.8248 277.914 95.622ZM472.8 96.0429C478.941 97.0426 484.324 98.2189 484.764 98.6573C485.202 99.0971 485.761 109.482 486.005 121.735C486.356 139.294 486.056 144.408 484.597 145.869C482.89 147.577 457.684 150.114 455.549 148.793C454.515 148.154 453.968 97.025 454.979 95.3887C455.987 93.7564 459.554 93.8872 472.8 96.0429ZM75.1584 96.4476C73.8699 96.7849 71.4437 96.797 69.767 96.4746C68.0903 96.1522 69.1443 95.8757 72.1096 95.8608C75.0748 95.846 76.4469 96.1104 75.1584 96.4476ZM107.515 97.8344C105.489 98.142 101.85 98.1474 99.4277 97.8479C97.0056 97.5471 98.6621 97.2948 103.11 97.2881C107.558 97.28 109.541 97.5255 107.515 97.8344ZM12.4675 99.1713C10.7989 99.4924 8.07088 99.4924 6.40225 99.1713C4.73362 98.8489 6.09899 98.5858 9.4349 98.5858C12.7708 98.5858 14.1362 98.8489 12.4675 99.1713ZM35.7178 99.6448C32.7526 100.259 27.5971 100.697 24.2612 100.619L18.1959 100.477L25.609 99.5679C29.6862 99.0674 34.8417 98.629 37.0657 98.5939C40.3625 98.5413 40.1131 98.7356 35.7178 99.6448ZM87.9467 99.1713C86.2795 99.4924 83.5487 99.4924 81.8814 99.1713C80.2142 98.8489 81.5782 98.5858 84.9141 98.5858C88.25 98.5858 89.614 98.8489 87.9467 99.1713ZM142.37 104.627C141.953 108.15 141.218 123.393 140.734 138.499L139.852 165.962L134.91 165.172C132.19 164.736 124.681 163.974 118.223 163.477L106.48 162.574V134.712C106.48 114.843 106.943 106.389 108.097 105.234C109.355 103.975 109.355 103.615 108.097 103.615C107.207 103.615 106.48 104.343 106.48 105.234C106.48 106.492 106.12 106.492 104.862 105.234C103.873 104.244 98.5071 103.545 91.0468 103.436C80.7034 103.283 82.5365 102.986 103.11 101.485C116.454 100.511 129.494 99.4789 132.089 99.1929C143.898 97.8897 143.206 97.5241 142.37 104.627ZM188.095 99.4532C187.661 100.156 187.881 101.086 188.583 101.52C189.286 101.954 190.214 101.734 190.648 101.032C191.082 100.329 190.863 99.3993 190.16 98.9649C189.458 98.5305 188.529 98.7504 188.095 99.4532ZM396.178 100.349C393.935 103.052 392.713 146.412 394.793 149.481C395.834 151.021 399.642 151.607 410.704 151.933C431.501 152.542 430.524 153.82 431.109 125.275C431.454 108.457 431.136 101.658 429.934 100.209C427.456 97.2206 398.672 97.3407 396.178 100.349ZM464.506 101.022C462.547 102.563 460.298 105.034 459.507 106.514C458.12 109.109 458.187 109.126 461.443 106.99C464.415 105.041 469.973 98.2189 468.588 98.2189C468.3 98.2189 466.463 99.4802 464.506 101.022ZM467.982 103.521C464.295 106.437 459.876 110.796 458.16 113.208C454.944 117.728 455.951 117.517 463.07 112.173C466.961 109.252 476.631 98.2189 475.299 98.2189C474.96 98.2189 471.667 100.605 467.982 103.521ZM71.0704 100.383C70.6229 100.831 69.4597 100.879 68.4879 100.489C67.4124 100.059 67.7318 99.7392 69.302 99.6745C70.7227 99.6165 71.5179 99.9348 71.0704 100.383ZM163.875 100.736C163.294 101.676 163.183 102.81 163.628 103.255C164.834 104.462 166.15 102.687 165.498 100.731C165.042 99.3602 164.724 99.3602 163.875 100.736ZM171.176 100.917C171.176 101.659 171.783 102.266 172.524 102.266C173.265 102.266 173.872 101.659 173.872 100.917C173.872 100.175 173.265 99.5679 172.524 99.5679C171.783 99.5679 171.176 100.175 171.176 100.917ZM179.263 100.917C179.263 101.659 179.833 102.266 180.531 102.266C181.23 102.266 182.174 101.659 182.633 100.917C183.091 100.175 182.519 99.5679 181.364 99.5679C180.209 99.5679 179.263 100.175 179.263 100.917ZM351.807 101.931C342.554 106.577 338.228 121.333 342.863 132.435C348.731 146.493 366.828 146.187 372.525 131.935C377.295 120.001 373.708 106.012 364.792 101.778C358.949 99.0027 357.607 99.0189 351.807 101.931ZM13.8154 101.869C12.1468 102.19 9.41873 102.19 7.7501 101.869C6.08147 101.547 7.44683 101.284 10.7827 101.284C14.1187 101.284 15.484 101.547 13.8154 101.869ZM146.915 102.266C146.915 103.008 147.521 103.615 148.263 103.615C149.004 103.615 149.611 103.008 149.611 102.266C149.611 101.524 149.004 100.917 148.263 100.917C147.521 100.917 146.915 101.524 146.915 102.266ZM155.002 102.266C155.002 103.008 155.608 103.615 156.35 103.615C157.091 103.615 157.698 103.008 157.698 102.266C157.698 101.524 157.091 100.917 156.35 100.917C155.608 100.917 155.002 101.524 155.002 102.266ZM428.308 125.536L428.676 149.481H414.603C406.863 149.481 399.571 149.113 398.398 148.663C396.566 147.96 396.266 144.528 396.266 124.337V100.832L412.103 101.211L427.94 101.591L428.308 125.536ZM33.3591 103.232C31.3212 103.541 27.9853 103.541 25.946 103.232C23.908 102.923 25.5753 102.671 29.6525 102.671C33.7298 102.671 35.3984 102.923 33.3591 103.232ZM122.654 103.615C122.654 104.357 123.26 104.964 124.002 104.964C124.743 104.964 125.349 104.357 125.349 103.615C125.349 102.873 124.743 102.266 124.002 102.266C123.26 102.266 122.654 102.873 122.654 103.615ZM130.741 103.615C130.741 104.357 131.347 104.964 132.089 104.964C132.83 104.964 133.436 104.357 133.436 103.615C133.436 102.873 132.83 102.266 132.089 102.266C131.347 102.266 130.741 102.873 130.741 103.615ZM138.828 103.695C138.828 104.48 139.434 104.748 140.176 104.289C140.917 103.831 141.523 103.189 141.523 102.861C141.523 102.533 140.917 102.266 140.176 102.266C139.434 102.266 138.828 102.909 138.828 103.695ZM255.151 103.278C256.414 105.526 252.983 209.57 251.59 211.331C250.483 212.728 247.787 212.931 239.978 212.208C234.384 211.688 229.201 210.87 228.459 210.388C227.665 209.873 227.436 206.466 227.903 202.093C228.338 198.012 228.792 195.735 228.914 197.034C229.198 200.087 233.177 200.13 233.177 197.079C233.177 195.805 232.179 192.149 230.961 188.955C229.741 185.76 229.029 182.861 229.379 182.512C230.639 181.249 241.086 187.282 241.656 189.6C241.978 190.907 242.106 190.613 241.94 188.948C241.776 187.283 242.466 185.237 243.474 184.399C245.584 182.647 245.977 175.113 243.96 175.113C243.218 175.113 242.612 176.226 242.612 177.585C242.612 181.225 241.475 181.792 237.184 180.294C227.63 176.961 229.29 172.013 239.555 173.22C246.872 174.082 247.383 171.209 240.621 167.215C236.24 164.629 235.824 164.598 234.219 166.746C233.275 168.009 231.442 169.876 230.144 170.893C227.911 172.647 227.785 170.873 227.785 137.505V102.266H241.184C248.554 102.266 254.839 102.722 255.151 103.278ZM268.443 103.534C265.23 104.066 262.054 105.365 261.387 106.42C260.72 107.473 260.175 118.96 260.175 131.944C260.175 147.678 260.611 154.877 261.481 153.528C262.2 152.415 262.797 142.019 262.809 130.423C262.824 114.195 263.257 108.987 264.684 107.801C265.866 106.819 274.403 106.148 288.256 105.95C301.99 105.753 309.816 105.142 309.543 104.289C309.029 102.692 277.076 102.104 268.443 103.534ZM381.078 118.791C380.795 121.944 380.562 119.365 380.562 113.058C380.562 106.751 380.795 104.171 381.078 107.325C381.363 110.477 381.363 115.637 381.078 118.791ZM17.185 104.581C15.1471 104.89 11.8111 104.89 9.77186 104.581C7.73392 104.272 9.4012 104.02 13.4784 104.02C17.5557 104.02 19.2243 104.272 17.185 104.581ZM74.1313 104.513C63.9713 106.115 64.9067 103.479 64.4417 131.84C64.2112 145.874 63.7031 157.675 63.3122 158.065C62.92 158.455 56.5514 158.352 49.1599 157.837L35.7178 156.901L36.4538 139.364C37.1722 122.233 37.1991 122.107 37.6237 133.968C37.9418 142.839 38.3353 145.019 39.0874 142.062C40.5418 136.343 40.6671 117.898 39.2627 116.363C38.6184 115.659 37.7504 112.827 37.3339 110.073L36.5778 105.062L48.9523 104.619C67.3638 103.959 77.9336 103.914 74.1313 104.513ZM114.567 105.044C114.567 105.829 115.173 106.097 115.914 105.638C116.656 105.18 117.262 104.538 117.262 104.21C117.262 103.882 116.656 103.615 115.914 103.615C115.173 103.615 114.567 104.258 114.567 105.044ZM225.09 133.482C225.09 159.726 224.819 163.546 222.858 164.983C220.922 166.398 220.833 167.442 222.184 172.811C223.041 176.217 223.742 179.95 223.742 181.106C223.742 184.672 221.387 183.428 219.865 179.057C218.743 175.837 217.844 175.092 215.846 175.726C213.859 176.358 213.064 175.717 212.363 172.919C211.545 169.657 211.247 169.502 209.379 171.372C207.763 172.989 207.632 174.06 208.784 176.216C211.348 181.012 210.404 182.461 206.876 179.143C201.657 174.236 199.907 177.193 203.046 185.613C205.609 192.493 208.277 194.269 208.196 189.041C208.135 185.036 210.11 186.572 212.615 192.477C213.757 195.168 214.949 196.647 215.261 195.761C215.573 194.876 216.783 194.517 217.949 194.965C219.665 195.623 219.95 194.981 219.453 191.587C219.115 189.283 219.334 187.703 219.942 188.079C220.549 188.454 221.073 190.092 221.107 191.718C221.159 194.263 221.425 194.111 223.019 190.626C224.761 186.821 224.877 187.293 224.981 198.552L225.09 210.524L220.82 209.669C218.47 209.199 212.327 208.422 207.166 207.942L197.782 207.069L198.622 198.173C199.083 193.28 199.466 170.958 199.471 148.565C199.479 113.363 199.768 107.568 201.598 105.734C203.168 104.164 206.485 103.615 214.403 103.615H225.09V133.482ZM235.199 106.117L231.155 107.012L230.788 130.754C230.509 148.707 230.84 154.845 232.138 155.923C234.418 157.817 249.029 158.437 250.753 156.712C251.592 155.872 251.968 145.881 251.741 130.497L251.373 105.638L245.307 105.431C241.971 105.316 237.422 105.625 235.199 106.117ZM57.2833 107.662C57.7416 108.404 58.3832 109.011 58.7107 109.011C59.0382 109.011 59.3051 108.404 59.3051 107.662C59.3051 106.92 58.6622 106.313 57.8777 106.313C57.0933 106.313 56.825 106.92 57.2833 107.662ZM202.91 107.568C201.26 110.237 200.412 146.28 201.936 148.908C203.093 150.903 203.451 146.607 203.484 130.383L203.524 109.261L211.274 108.717C215.536 108.417 219.383 108.513 219.821 108.929C220.26 109.346 220.34 119.853 220 132.281L219.382 154.877H212.397C208.554 154.877 204.608 154.119 203.625 153.191C202.184 151.83 201.958 151.895 202.451 153.528C203.182 155.949 218.094 157.832 220.709 155.834C221.936 154.898 222.394 148.564 222.394 132.563C222.394 120.474 222.026 109.621 221.576 108.447C220.949 106.812 218.762 106.313 212.221 106.313C207.525 106.313 203.336 106.877 202.91 107.568ZM159.465 108.869C155.619 109.351 151.98 110.237 151.378 110.84C149.628 112.594 150.209 151.969 152.011 153.773C154.464 156.228 184.169 158.308 186.705 156.203C188.428 154.771 188.701 150.767 188.392 131.415L188.024 108.336L177.241 108.165C171.311 108.069 163.311 108.386 159.465 108.869ZM250.699 127.729C250.699 138.765 250.304 149.769 249.823 152.182L248.945 156.568L240.834 155.719C236.371 155.252 232.609 154.721 232.473 154.537C232.337 154.353 232.518 143.731 232.874 130.932L233.522 107.662H242.11H250.699V127.729ZM365.032 111.446C365.273 113.157 364.779 115.392 363.931 116.414C362.76 117.827 362.865 119.023 364.37 121.399C365.74 123.56 365.985 125.472 365.166 127.592C363.002 133.191 354.431 134.192 351.741 129.16C350.077 126.048 352.477 124.262 354.194 127.333C355.933 130.443 360.459 129.171 360.991 125.424C361.316 123.138 360.641 122.096 358.461 121.526L355.488 120.747L358.565 118.424C360.525 116.946 361.336 115.303 360.8 113.905C359.745 111.149 356.003 111.039 354.971 113.733C353.98 116.315 351.787 116.367 351.787 113.809C351.787 107.974 364.226 105.753 365.032 111.446ZM0 111.597C0 113.019 0.617312 114.388 1.3721 114.64C2.1269 114.891 2.96391 118.129 3.23213 121.835C3.50035 125.54 3.44239 127.054 3.10408 125.199C2.76577 123.344 1.8762 121.22 1.1268 120.478C-0.153654 119.208 0.903055 174.933 2.1862 176.35C2.46655 176.659 2.76712 167.249 2.85473 155.44C2.94234 143.631 3.39791 135.746 3.86561 137.919C4.67701 141.684 4.82932 141.76 7.07617 139.509C8.37415 138.21 9.41603 136.432 9.39177 135.558C9.36885 134.683 8.41863 135.182 7.28105 136.666C5.38328 139.143 5.2485 138.395 5.63937 127.557C5.8739 121.063 5.60972 115.751 5.05441 115.753C4.49775 115.755 4.04353 115.083 4.04353 114.26C4.04353 113.344 5.8739 112.977 8.76098 113.314C12.6091 113.764 13.4784 113.418 13.4784 111.438C13.4784 109.425 12.3287 109.011 6.73921 109.011C0.996056 109.011 0 109.393 0 111.597ZM86.2619 150.306V191.602L81.2075 190.73C78.4283 190.251 74.6368 189.562 72.7835 189.199L69.4139 188.538L69.8061 151.135C70.0218 130.564 70.4436 113.008 70.7456 112.123C71.0461 111.238 74.2055 110.284 77.7665 110.005C81.3275 109.726 84.6944 109.387 85.2511 109.254C85.8077 109.12 86.2619 127.594 86.2619 150.306ZM104.652 117.105C104.76 121.186 104.566 123.158 104.222 121.489C103.878 119.821 103.032 118.454 102.342 118.454C101.639 118.454 101.088 125.441 101.088 134.34V150.227L95.6591 149.709L90.2286 149.191L90.6047 131.461L90.9794 113.733H96.7091C99.8617 113.733 102.439 113.244 102.437 112.647C102.437 112.05 99.5544 111.747 96.0338 111.972L89.6315 112.384V131.218V150.055L94.9056 151.303C99.3589 152.357 100.459 152.167 101.982 150.084C103.514 147.987 103.784 150.867 103.784 169.293C103.784 194.072 103.603 194.518 94.2466 192.92L88.2837 191.901L87.9265 150.392L87.5707 108.881L96.0136 109.283L104.458 109.685L104.652 117.105ZM186.674 133.355L185.679 155.224L170.022 154.26C161.411 153.728 153.902 153.008 153.336 152.657C151.585 151.574 152.093 113.349 153.874 112.247C156.046 110.904 185.059 109.393 186.498 110.548C187.147 111.068 187.225 121.234 186.674 133.355ZM308.492 115.419C308.401 118.942 307.946 130.325 307.481 140.713L306.634 159.599L289.786 159.152C280.52 158.907 270.361 158.227 267.21 157.64C260.933 156.473 259.394 158.197 264.858 160.276C269.961 162.217 308.066 163.67 309.12 161.964C309.597 161.191 310.389 148.961 310.883 134.785C311.547 115.641 311.376 109.011 310.217 109.011C309.276 109.011 308.59 111.558 308.492 115.419ZM109.445 111.979C108.338 113.086 107.827 119.672 107.827 132.841C107.827 149.987 108.092 152.227 110.252 153.383C111.585 154.098 118.409 154.877 125.415 155.118L138.154 155.552L139.251 137.526C139.855 127.613 139.88 118.507 139.31 117.291C138.732 116.061 137.918 123.288 137.475 133.583C137.035 143.759 136.267 152.494 135.767 152.994C135.267 153.495 129.231 153.365 122.353 152.704L109.849 151.505L110.193 132.619L110.535 113.733L120.976 112.687C126.717 112.111 133.082 111.855 135.121 112.115C137.161 112.377 138.828 112.089 138.828 111.476C138.828 109.653 111.297 110.125 109.445 111.979ZM49.8702 112.792C45.0516 113.016 40.6415 113.668 40.0687 114.238C39.4972 114.809 44.1971 115.003 50.5145 114.671L62.0008 114.068V121.454C62.0008 125.516 61.6085 133.477 61.1301 139.145L60.2593 149.45L54.7278 148.738C51.6857 148.345 46.7701 147.714 43.8049 147.335C40.2075 146.875 38.8623 147.095 39.7614 147.996C40.5027 148.738 45.9614 149.529 51.8919 149.751L62.6747 150.156L63.0507 132.35C63.4874 111.623 63.8365 112.141 49.8702 112.792ZM72.3347 112.609C71.84 113.103 71.5583 120.843 71.7066 129.809L71.9775 146.109L72.7175 129.921L73.4574 113.733H78.5132C81.2938 113.733 83.5676 113.277 83.5676 112.721C83.5662 111.469 73.572 111.369 72.3347 112.609ZM410.36 115.448C408.845 116.731 406.788 118.856 405.788 120.171C404.179 122.289 404.263 122.458 406.521 121.642C408.758 120.832 408.698 121.129 406.038 124.058C404.369 125.894 403.005 127.863 403.005 128.434C403.005 130.192 413.559 121.217 416.723 116.768C419.678 112.614 418.326 112.694 413.254 116.973C410.827 119.021 410.779 118.977 412.292 116.093C414.189 112.473 413.966 112.397 410.36 115.448ZM9.18285 116.677C10.1546 117.067 11.3178 117.019 11.7653 116.571C12.2128 116.123 11.4176 115.805 9.99695 115.863C8.42671 115.927 8.10727 116.247 9.18285 116.677ZM30.9856 126.885C30.9775 133.006 30.5826 140.365 30.1095 143.235L29.2468 148.456L21.7178 147.57C16.1013 146.91 14.5769 147.073 15.7185 148.216C16.6216 149.12 20.3389 149.554 24.8003 149.276L32.3523 148.807L32.3496 153.166L32.3482 157.524L25.946 156.788C13.0512 155.306 13.0956 155.332 14.0877 149.758C14.5769 147.009 15.2778 138.993 15.6444 131.944C16.011 124.896 16.565 118.37 16.875 117.442C17.2254 116.391 19.9925 115.756 24.2194 115.756H31.0004L30.9856 126.885ZM83.2293 117.887C82.6726 118.446 82.2184 125.783 82.2184 134.193C82.2184 142.601 81.7601 149.481 81.1981 149.481C80.6374 149.481 78.2113 148.916 75.8067 148.227C73.4035 147.536 71.4357 147.466 71.4357 148.069C71.4357 149.349 76.1868 150.786 80.508 150.811C82.5122 150.824 83.7671 149.819 84.2712 147.795C85.3616 143.412 84.4316 116.677 83.2293 117.887ZM413.127 122.488C411.004 124.705 409.568 126.821 409.934 127.189C410.302 127.556 412.651 125.741 415.156 123.155C417.659 120.569 419.096 118.454 418.347 118.454C417.599 118.454 415.25 120.268 413.127 122.488ZM174.512 121.207C174.035 121.979 172.605 122.28 171.332 121.877C169.831 121.399 167.413 122.801 164.442 125.868C158.698 131.8 160.004 132.002 166.748 126.227L171.85 121.859L166.122 128.221C162.97 131.719 160.393 134.993 160.393 135.496C160.393 137.219 173.581 125.489 175.383 122.164C176.74 119.659 175.982 118.826 174.512 121.207ZM209.049 123.034C204.245 128.152 208.356 129.079 213.413 124.019C217.197 120.232 217.342 119.803 214.853 119.803C213.328 119.803 210.716 121.257 209.049 123.034ZM76.1949 123.804C72.6528 127.722 74.3618 129.936 77.966 126.096C79.675 124.275 80.5026 122.432 79.8044 122.001C79.1062 121.569 77.4821 122.381 76.1949 123.804ZM47.5775 125.499C46.3766 126.827 45.7889 128.31 46.2728 128.793C46.7553 129.277 46.475 130.487 45.6501 131.483C43.0595 134.607 46.568 133.45 49.362 130.258C55.3667 123.4 55.7036 122.636 52.613 122.868C51.0442 122.987 48.7784 124.17 47.5775 125.499ZM282.599 130.742C272.512 139.739 269.507 144.888 277.843 138.889C283.666 134.699 291.916 125.532 290.837 124.453C290.529 124.144 286.822 126.974 282.599 130.742ZM21.521 131.341C18.2794 136.592 18.4735 138.239 22.0291 135.638C24.0509 134.158 26.5983 126.548 25.0712 126.548C24.7464 126.548 23.1492 128.705 21.521 131.341ZM120.737 132.187C115.916 137.825 114.424 141.132 117.599 139.141C118.527 138.561 120.118 138.07 121.137 138.05C123.611 138.003 127.747 131.944 125.305 131.944C124.148 131.944 124.383 131.059 126.023 129.246C127.364 127.762 127.809 126.548 127.011 126.548C126.213 126.548 123.39 129.086 120.737 132.187ZM283.658 136.156C280.727 139.215 279.543 141.088 281.025 140.319C284.486 138.525 292.059 130.595 290.312 130.595C289.583 130.595 286.588 133.098 283.658 136.156ZM475.788 136.666C473.273 139.263 471.823 141.387 472.564 141.387C473.306 141.387 475.969 139.263 478.484 136.666C480.999 134.069 482.449 131.944 481.708 131.944C480.967 131.944 478.304 134.069 475.788 136.666ZM95.0148 138.697C93.6697 140.187 92.9648 141.801 93.45 142.287C94.4339 143.271 99.7404 138.92 99.7404 137.131C99.7404 135.162 97.5582 135.885 95.0148 138.697ZM239.242 141.387C235.728 145.058 235.62 145.434 238.082 145.434C241.077 145.434 247.215 139.7 245.768 138.252C244.236 136.718 243.264 137.185 239.242 141.387ZM21.0708 159.262C20.8444 160.19 20.9145 160.492 21.2245 159.936C21.5358 159.38 24.2517 158.924 27.2615 158.924H32.7337L31.9816 169.903C31.5031 176.881 30.5745 181.298 29.4301 182.024C27.7952 183.061 28.7994 183.768 31.3373 183.366C31.894 183.278 32.3482 184.117 32.3482 185.23C32.3482 187.621 33.5087 187.671 17.522 184.589C10.4795 183.232 6.38473 182.063 8.42402 181.99C10.4633 181.917 12.14 181.1 12.1508 180.171C12.167 178.936 12.4365 178.902 13.1617 180.046C13.7062 180.904 13.9407 176.2 13.682 169.591L13.2102 157.575H17.3454C19.9737 157.575 21.331 158.189 21.0708 159.262ZM37.7194 161.96C37.7302 161.033 39.2559 160.273 41.1092 160.273C42.9625 160.273 44.4788 160.881 44.4788 161.622C44.4788 162.364 45.1217 162.971 45.9062 162.971C46.6906 162.971 47.0128 162.452 46.6205 161.817C46.2283 161.183 47.4063 160.949 49.2367 161.3C51.0684 161.651 52.5659 162.474 52.5659 163.129C52.5659 163.784 53.2088 164.32 53.9932 164.32C54.7777 164.32 55.0459 163.713 54.5876 162.971C54.0876 162.161 55.8047 161.631 58.8886 161.643C62.2959 161.656 63.4052 162.055 62.1854 162.828C60.8511 163.674 60.7877 164.141 61.9549 164.53C62.9469 164.861 63.8473 169.441 64.3069 176.497C65.1075 188.767 66.1629 191.301 70.4773 191.301C71.9923 191.301 72.8792 191.654 72.4479 192.086C72.0166 192.519 65.6251 191.912 58.247 190.737C50.8676 189.563 42.2495 188.603 39.0955 188.603C33.3901 188.603 33.3632 188.58 34.2015 184.387C34.6652 182.068 35.0533 175.543 35.0641 169.885C35.079 162.746 35.4847 160.218 36.3918 161.622C37.2625 162.971 37.7046 163.083 37.7194 161.96ZM370.043 164.934C371.863 166.755 373.334 169.031 373.312 169.993C373.289 170.954 372.583 170.526 371.742 169.042C368.632 163.553 364.408 162.765 362.703 167.356C360.9 172.212 362.388 174.081 367.574 173.474L372.195 172.934L369.066 175.409L365.939 177.885L369.678 176.267C371.735 175.378 373.773 173.232 374.207 171.499C375.115 167.878 371.606 161.622 368.665 161.622C367.365 161.622 367.816 162.703 370.043 164.934ZM464.15 165.768C466.103 167.305 467.662 169.582 467.617 170.827C467.557 172.4 467.149 172.137 466.278 169.963C464.689 165.999 457.893 166.232 457.125 170.278C456.688 172.583 461.303 177.696 463.899 177.781C465.758 177.842 469.049 173.488 469.049 170.97C469.049 168.134 464.582 162.971 462.128 162.971C461.287 162.971 462.197 164.23 464.15 165.768ZM128.284 167.004L139.979 167.019L139.74 185.884C139.514 203.837 139.376 204.711 136.907 203.93C135.48 203.48 126.079 201.721 116.016 200.022C105.953 198.322 98.7362 196.88 99.9816 196.816C105.21 196.542 106.48 193.038 106.48 178.887V165.316L111.534 166.152C114.315 166.612 121.852 166.996 128.284 167.004ZM109.175 168.368C109.175 169.109 109.782 169.717 110.523 169.717C111.264 169.717 111.871 169.109 111.871 168.368C111.871 167.626 111.264 167.019 110.523 167.019C109.782 167.019 109.175 167.626 109.175 168.368ZM117.262 169.717C117.262 170.459 117.869 171.066 118.61 171.066C119.351 171.066 119.958 170.459 119.958 169.717C119.958 168.975 119.351 168.368 118.61 168.368C117.869 168.368 117.262 168.975 117.262 169.717ZM126.023 169.717C125.565 170.459 125.833 171.066 126.618 171.066C127.402 171.066 128.045 170.459 128.045 169.717C128.045 168.975 127.778 168.368 127.451 168.368C127.123 168.368 126.482 168.975 126.023 169.717ZM157.698 170.676C158.068 171.014 158.372 171.847 158.372 172.527C158.372 173.208 158.978 173.611 159.719 173.426C160.461 173.242 160.897 172.578 160.688 171.953C160.325 170.861 180.037 171.826 187.687 173.275L191.394 173.978L191.414 187.023C191.429 195.945 191.848 199.43 192.742 198.046C193.793 196.418 194.052 196.631 194.069 199.137C194.083 201.176 193.543 201.915 192.512 201.277C191.452 200.621 191.217 201.037 191.797 202.546C192.27 203.78 192.019 204.791 191.239 204.791C189.523 204.791 190.427 208.124 192.179 208.258C192.86 208.309 195.842 209.031 198.807 209.86C207.658 212.339 246.634 217.273 250.786 216.442C252.905 216.019 255.006 216.268 255.457 216.998C256.388 218.505 258.786 217.427 258.786 215.503C258.786 214.805 257.854 214.234 256.717 214.234C255.152 214.234 254.961 213.65 255.927 211.839C256.632 210.523 257.393 202.631 257.62 194.302C257.848 185.974 258.364 179.16 258.768 179.16C259.174 179.16 270.716 180.109 284.418 181.271C298.12 182.432 310.918 183.07 312.859 182.69L316.387 181.997L316.228 207.567C316.1 228.189 315.724 233.005 314.283 232.458C310.019 230.835 162.693 207.183 152.643 206.507C142.541 205.828 141.523 205.983 141.523 208.198C141.523 209.539 141.138 210.252 140.668 209.781C140.197 209.31 140.651 206.932 141.678 204.497C142.704 202.062 143.582 198.552 143.629 196.697C143.675 194.842 143.827 187.672 143.966 180.764L144.219 168.202L150.621 169.132C154.142 169.644 157.327 170.338 157.698 170.676ZM133.436 171.066C133.436 171.808 134.043 172.415 134.784 172.415C135.526 172.415 136.132 171.808 136.132 171.066C136.132 170.324 135.526 169.717 134.784 169.717C134.043 169.717 133.436 170.324 133.436 171.066ZM149.611 172.415C149.611 173.157 150.217 173.764 150.958 173.764C151.7 173.764 152.306 173.157 152.306 172.415C152.306 171.673 151.7 171.066 150.958 171.066C150.217 171.066 149.611 171.673 149.611 172.415ZM166.459 173.764C166 174.506 166.607 175.113 167.806 175.113C169.006 175.113 169.613 174.506 169.154 173.764C168.696 173.022 168.089 172.415 167.806 172.415C167.523 172.415 166.917 173.022 166.459 173.764ZM174.559 175.134C175.025 175.888 175.97 176.157 176.66 175.729C178.53 174.573 178.182 173.764 175.814 173.764C174.659 173.764 174.094 174.38 174.559 175.134ZM182.704 174.998C182.27 175.701 182.49 176.63 183.192 177.065C183.894 177.499 184.823 177.279 185.257 176.576C185.691 175.873 185.471 174.944 184.769 174.51C184.067 174.075 183.138 174.295 182.704 174.998ZM465.68 175.113C465.221 175.855 464.124 176.452 463.241 176.441C462.276 176.428 462.443 175.898 463.658 175.113C466.247 173.437 466.713 173.437 465.68 175.113ZM264.177 183.881C264.177 184.994 264.784 185.905 265.525 185.905C266.266 185.905 266.873 184.994 266.873 183.881C266.873 182.768 266.266 181.858 265.525 181.858C264.784 181.858 264.177 182.768 264.177 183.881ZM272.264 183.881C272.264 184.994 272.871 185.905 273.612 185.905C274.353 185.905 274.96 184.994 274.96 183.881C274.96 182.768 274.353 181.858 273.612 181.858C272.871 181.858 272.264 182.768 272.264 183.881ZM37.0657 184.556C37.5239 185.298 38.1655 185.905 38.493 185.905C38.8206 185.905 39.0874 185.298 39.0874 184.556C39.0874 183.814 38.4445 183.207 37.6601 183.207C36.8756 183.207 36.6074 183.814 37.0657 184.556ZM280.351 185.23C280.351 186.467 281.004 187.26 281.8 186.995C282.597 186.729 283.249 185.934 283.249 185.23C283.249 184.526 282.597 183.731 281.8 183.466C281.004 183.2 280.351 183.993 280.351 185.23ZM288.438 185.118C288.438 186.292 289.399 187.254 290.572 187.254C292.952 187.254 292.538 184.349 290.04 183.516C289.158 183.222 288.438 183.943 288.438 185.118ZM329.884 185.3C331.081 185.67 331.645 190.23 331.831 201.039L332.091 216.257L332.842 203.442C333.414 193.637 334.04 190.626 335.501 190.626C338.384 190.626 338.807 187.571 336.024 186.849C334.686 186.502 340.775 186.148 349.555 186.061C364.558 185.914 365.561 186.071 366.237 188.658C366.966 191.452 370.266 191.561 369.646 188.771C369.461 187.936 370.522 187.254 372.005 187.254C373.565 187.254 374.7 188.153 374.7 189.389C374.7 190.564 375.459 191.247 376.385 190.907C377.312 190.567 377.918 189.606 377.733 188.771C377.547 187.936 377.985 187.254 378.703 187.254C379.461 187.254 380.17 194.499 380.388 204.454C380.756 221.249 380.837 221.655 383.789 221.691C385.451 221.713 387.855 222.775 389.132 224.052C391.327 226.25 390.547 226.367 374.652 226.235C365.412 226.157 349.845 225.702 340.057 225.223C328.192 224.642 322.711 224.801 323.612 225.701C324.354 226.443 333.879 227.398 344.777 227.823L364.591 228.596L345.808 228.834C329.224 229.045 326.697 229.382 324.222 231.709C319.308 236.331 318.389 233.684 319.559 218.281C320.15 210.49 320.669 199.4 320.711 193.636L320.787 183.155L324.493 183.968C326.531 184.415 328.959 185.014 329.884 185.3ZM352.814 184.133C351.525 184.471 349.099 184.483 347.423 184.16C345.746 183.838 346.8 183.561 349.765 183.547C352.73 183.532 354.103 183.796 352.814 184.133ZM6.73921 185.863C6.73921 186.581 5.82942 186.819 4.71745 186.393C3.60548 185.965 2.69569 185.377 2.69569 185.086C2.69569 184.794 3.60548 184.556 4.71745 184.556C5.82942 184.556 6.73921 185.144 6.73921 185.863ZM296.525 186.579C296.525 187.816 297.178 188.609 297.974 188.344C298.771 188.078 299.423 187.283 299.423 186.579C299.423 185.875 298.771 185.08 297.974 184.815C297.178 184.549 296.525 185.342 296.525 186.579ZM305.286 185.905C304.749 186.776 304.914 188.095 305.656 188.837C306.555 189.737 307.33 189.659 307.982 188.603C308.52 187.731 308.354 186.412 307.613 185.67C306.714 184.77 305.939 184.848 305.286 185.905ZM459.951 185.508C458.283 185.829 455.555 185.829 453.886 185.508C452.217 185.186 453.583 184.923 456.919 184.923C460.255 184.923 461.62 185.186 459.951 185.508ZM61.3268 187.254C60.8686 187.996 61.1368 188.603 61.9212 188.603C62.7057 188.603 63.3486 187.996 63.3486 187.254C63.3486 186.512 63.0817 185.905 62.7542 185.905C62.4267 185.905 61.7851 186.512 61.3268 187.254ZM33.6961 189.606C36.784 190.808 37.4754 190.95 41.1092 191.132C42.9625 191.225 44.4788 191.978 44.4788 192.808C44.4788 193.744 43.3318 193.964 41.4462 193.389C39.7775 192.88 36.0359 192.134 33.1286 191.731C30.2227 191.326 25.3704 190.193 22.3459 189.212L16.848 187.429L24.2612 188.125C28.3384 188.507 32.5841 189.175 33.6961 189.606ZM342.352 189.389C342.352 190.564 343.072 191.286 343.953 190.992C346.452 190.158 346.866 187.254 344.486 187.254C343.313 187.254 342.352 188.216 342.352 189.389ZM350.439 189.277C350.439 190.514 351.091 191.307 351.888 191.042C352.685 190.776 353.337 189.981 353.337 189.277C353.337 188.573 352.685 187.778 351.888 187.513C351.091 187.247 350.439 188.04 350.439 189.277ZM358.526 189.277C358.526 190.514 359.179 191.307 359.975 191.042C360.772 190.776 361.424 189.981 361.424 189.277C361.424 188.573 360.772 187.778 359.975 187.513C359.179 187.247 358.526 188.04 358.526 189.277ZM492.883 190.205C492.453 191.281 492.134 190.961 492.069 189.389C492.011 187.967 492.329 187.171 492.777 187.619C493.224 188.067 493.273 189.231 492.883 190.205ZM3.70657 190.845C4.63388 191.22 6.15021 191.22 7.07617 190.845C8.00349 190.471 7.24465 190.165 5.39137 190.165C3.53809 190.165 2.7806 190.471 3.70657 190.845ZM78.5118 193.543C77.5859 193.918 76.0695 193.918 75.1422 193.543C74.2163 193.169 74.9737 192.863 76.827 192.863C78.6803 192.863 79.4392 193.169 78.5118 193.543ZM109.907 193.906C109.48 194.596 109.748 195.542 110.502 196.009C111.255 196.474 111.871 195.909 111.871 194.753C111.871 192.383 111.062 192.035 109.907 193.906ZM370.043 195.962C374.227 200.148 374.192 201.443 369.786 205.53C367.825 207.349 366.915 208.838 367.764 208.838C370.267 208.838 374.7 203.664 374.7 200.744C374.7 197.969 370.312 192.65 368.022 192.65C367.314 192.65 368.224 194.14 370.043 195.962ZM463.995 195.503C468.397 198.79 468.653 201.14 465.006 204.791C462.966 206.832 462.791 207.489 464.285 207.489C466.449 207.489 469.049 203.488 469.049 200.158C469.049 197.614 464.328 192.632 461.973 192.693C461.047 192.716 461.957 193.981 463.995 195.503ZM71.0987 196.149C74.9913 196.641 78.1749 197.609 78.1749 198.299C78.1749 198.989 78.7814 199.179 79.5227 198.72C80.264 198.262 80.88 198.681 80.8908 199.652C80.9083 201.107 81.1091 201.107 82.0297 199.654C83.4598 197.398 90.3055 198.951 90.3055 201.53C90.3055 203.459 83.9046 202.916 79.3623 200.601C78.1627 199.99 76.8729 199.8 76.4941 200.177C75.6099 201.062 63.8824 198.146 58.6312 195.735L54.5876 193.879L59.3051 194.567C61.8997 194.944 67.2061 195.657 71.0987 196.149ZM86.5989 194.892C85.6729 195.267 84.1566 195.267 83.2293 194.892C82.3033 194.518 83.0608 194.212 84.9141 194.212C86.7674 194.212 87.5262 194.518 86.5989 194.892ZM117.936 195.348C117.478 196.09 117.746 196.697 118.531 196.697C119.315 196.697 119.958 196.09 119.958 195.348C119.958 194.606 119.691 193.999 119.364 193.999C119.036 193.999 118.395 194.606 117.936 195.348ZM94.686 196.241C93.76 196.616 92.2437 196.616 91.3163 196.241C90.3904 195.867 91.1479 195.561 93.0011 195.561C94.8544 195.561 95.6133 195.867 94.686 196.241ZM126.023 196.697C125.565 197.439 125.833 198.046 126.618 198.046C127.402 198.046 128.045 197.439 128.045 196.697C128.045 195.955 127.778 195.348 127.451 195.348C127.123 195.348 126.482 195.955 126.023 196.697ZM134.11 198.046C133.652 198.788 133.92 199.395 134.705 199.395C135.489 199.395 136.132 198.788 136.132 198.046C136.132 197.304 135.865 196.697 135.538 196.697C135.21 196.697 134.569 197.304 134.11 198.046ZM363.469 197.597C362.252 198.815 362.328 203.133 363.581 203.907C364.137 204.251 364.591 202.77 364.591 200.616C364.591 198.46 364.54 196.697 364.48 196.697C364.418 196.697 363.962 197.102 363.469 197.597ZM52.9028 198.939C51.9769 199.314 50.4605 199.314 49.5332 198.939C48.6073 198.565 49.3647 198.259 51.218 198.259C53.0713 198.259 53.8301 198.565 52.9028 198.939ZM457.513 199.524C457.01 200.338 457.699 202.007 459.044 203.234C461.326 205.317 461.375 205.313 459.761 203.164C458.811 201.897 458.426 200.229 458.904 199.454C459.383 198.68 459.47 198.046 459.099 198.046C458.729 198.046 458.014 198.711 457.513 199.524ZM59.642 200.288C58.7161 200.663 57.1997 200.663 56.2724 200.288C55.3465 199.914 56.104 199.608 57.9572 199.608C59.8105 199.608 60.5694 199.914 59.642 200.288ZM149.611 200.744C149.611 201.486 150.181 202.093 150.879 202.093C151.577 202.093 152.522 201.486 152.98 200.744C153.438 200.002 152.867 199.395 151.712 199.395C150.557 199.395 149.611 200.002 149.611 200.744ZM386.183 219.22C386.126 219.364 385.44 219.061 384.658 218.545C383.762 217.953 383.516 214.119 383.994 208.163L384.75 198.72L385.518 208.838C385.94 214.403 386.239 219.074 386.183 219.22ZM66.3813 201.637C65.4553 202.012 63.939 202.012 63.0116 201.637C62.0857 201.263 62.8432 200.957 64.6964 200.957C66.5497 200.957 67.3086 201.263 66.3813 201.637ZM115.152 203.42C119.55 204.174 123.322 204.791 123.532 204.791C123.744 204.791 123.586 205.853 123.183 207.152C122.518 209.295 122.584 209.306 123.895 207.28C125.011 205.554 126.646 205.217 131.074 205.796C137.143 206.588 138.774 207.914 138.808 212.082C138.826 214.513 138.69 214.528 136.291 212.353C134.512 210.743 132.655 210.331 130.076 210.98C126.699 211.827 126.472 211.641 127.286 208.684C128.036 205.966 127.944 205.832 126.695 207.826C124.659 211.075 122.288 210.817 109.849 205.993C94.0188 199.853 94.105 199.812 115.152 203.42ZM157.698 202.093C157.698 202.835 158.268 203.442 158.966 203.442C159.664 203.442 160.609 202.835 161.067 202.093C161.525 201.351 160.954 200.744 159.799 200.744C158.644 200.744 157.698 201.351 157.698 202.093ZM166.417 202.16C165.136 204.235 166.89 205.573 168.621 203.841C169.588 202.873 169.611 202.118 168.691 201.549C167.936 201.082 166.913 201.358 166.417 202.16ZM72.4182 202.908C71.9708 203.356 70.8076 203.404 69.8358 203.014C68.7602 202.584 69.0796 202.264 70.6499 202.199C72.0705 202.141 72.8657 202.46 72.4182 202.908ZM174.617 203.327C174.183 204.03 174.403 204.96 175.105 205.394C175.807 205.828 176.736 205.608 177.17 204.906C177.604 204.203 177.384 203.273 176.682 202.839C175.98 202.404 175.051 202.624 174.617 203.327ZM79.1575 204.257C78.71 204.705 77.5468 204.753 76.575 204.363C75.4994 203.933 75.8188 203.613 77.3891 203.548C78.8097 203.49 79.6049 203.809 79.1575 204.257ZM182.161 204.723C182.457 205.614 183.139 206.296 183.677 206.241C185.289 206.074 184.977 204.224 183.239 203.644C182.35 203.347 181.864 203.833 182.161 204.723ZM196.785 204.791C196.785 205.533 196.518 206.14 196.191 206.14C195.863 206.14 195.222 205.533 194.763 204.791C194.305 204.049 194.573 203.442 195.358 203.442C196.142 203.442 196.785 204.049 196.785 204.791ZM85.8967 205.606C85.4492 206.054 84.286 206.102 83.3142 205.712C82.2386 205.282 82.5581 204.962 84.1283 204.897C85.5489 204.839 86.3442 205.158 85.8967 205.606ZM92.6359 206.955C92.1884 207.403 91.0252 207.451 90.0534 207.061C88.9778 206.631 89.2973 206.311 90.8675 206.246C92.2881 206.188 93.0834 206.507 92.6359 206.955ZM98.7295 208.382C97.8035 208.757 96.2872 208.757 95.3599 208.382C94.4339 208.008 95.1914 207.702 97.0447 207.702C98.898 207.702 99.6568 208.008 98.7295 208.382ZM104.766 209.653C104.319 210.101 103.156 210.149 102.184 209.759C101.108 209.329 101.428 209.009 102.998 208.944C104.419 208.886 105.214 209.205 104.766 209.653ZM163.442 211.695C171.725 213.206 172.478 213.612 171.699 216.156C171.227 217.696 170.71 219.112 170.548 219.304C170.388 219.495 165.155 217.199 158.923 214.2C152.689 211.203 149.105 209.038 150.958 209.391C152.812 209.743 158.429 210.78 163.442 211.695ZM111.506 211.002C111.058 211.45 109.895 211.498 108.923 211.108C107.848 210.678 108.167 210.358 109.737 210.293C111.158 210.235 111.953 210.554 111.506 211.002ZM117.599 212.429C116.673 212.804 115.157 212.804 114.23 212.429C113.304 212.055 114.061 211.749 115.914 211.749C117.768 211.749 118.527 212.055 117.599 212.429ZM156.238 216.429C156.547 216.705 155.94 216.918 154.89 216.902C153.84 216.886 151.464 215.634 149.611 214.123L146.241 211.374L150.958 213.65C153.553 214.902 155.929 216.152 156.238 216.429ZM105.469 213.778C104.543 214.153 103.026 214.153 102.099 213.778C101.173 213.404 101.931 213.098 103.784 213.098C105.637 213.098 106.396 213.404 105.469 213.778ZM124.338 213.778C123.413 214.153 121.896 214.153 120.969 213.778C120.043 213.404 120.8 213.098 122.654 213.098C124.507 213.098 125.266 213.404 124.338 213.778ZM111.506 215.049C111.058 215.497 109.895 215.545 108.923 215.155C107.848 214.725 108.167 214.405 109.737 214.341C111.158 214.283 111.953 214.601 111.506 215.049ZM131.078 215.127C130.152 215.502 128.635 215.502 127.708 215.127C126.782 214.753 127.54 214.447 129.393 214.447C131.246 214.447 132.005 214.753 131.078 215.127ZM175.817 217.269C174.662 221.029 174.358 221.38 172.772 220.782C171.083 220.145 173.335 214.234 175.267 214.234C176.182 214.234 176.392 215.395 175.817 217.269ZM186.82 215.583C189.145 215.583 190.514 216.638 191.477 219.175C193.277 223.913 190.968 226.468 188.485 222.487C186.617 219.494 182.708 218.675 181.285 220.979C179.887 223.241 176.567 222.482 176.567 219.9C176.567 216.731 179.37 213.986 181.695 214.879C182.703 215.266 185.009 215.583 186.82 215.583ZM118.245 216.398C117.797 216.846 116.634 216.894 115.662 216.504C114.587 216.074 114.906 215.754 116.477 215.69C117.897 215.632 118.692 215.95 118.245 216.398ZM137.115 216.398C136.667 216.846 135.504 216.894 134.532 216.504C133.457 216.074 133.776 215.754 135.346 215.69C136.767 215.632 137.562 215.95 137.115 216.398ZM263.088 217.033C263.354 217.83 264.148 218.483 264.851 218.483C265.555 218.483 266.349 217.83 266.614 217.033C266.88 216.236 266.087 215.583 264.851 215.583C263.615 215.583 262.823 216.236 263.088 217.033ZM106.114 217.747C105.667 218.195 104.504 218.243 103.532 217.853C102.456 217.423 102.776 217.103 104.346 217.039C105.767 216.981 106.562 217.299 106.114 217.747ZM143.208 217.825C142.282 218.2 140.766 218.2 139.839 217.825C138.913 217.451 139.67 217.145 141.523 217.145C143.377 217.145 144.136 217.451 143.208 217.825ZM195.018 223.34C194.68 224.639 194.402 223.576 194.402 220.979C194.402 218.382 194.68 217.319 195.018 218.618C195.358 219.917 195.358 222.041 195.018 223.34ZM271.175 218.382C271.441 219.179 272.235 219.832 272.938 219.832C273.642 219.832 274.436 219.179 274.701 218.382C274.967 217.585 274.174 216.932 272.938 216.932C271.702 216.932 270.91 217.585 271.175 218.382ZM279.865 217.868C278.347 219.387 278.941 220.979 281.025 220.979C282.137 220.979 283.047 220.408 283.047 219.71C283.047 218.008 280.942 216.79 279.865 217.868ZM149.947 219.174C149.022 219.549 147.505 219.549 146.578 219.174C145.652 218.8 146.409 218.494 148.263 218.494C150.116 218.494 150.875 218.8 149.947 219.174ZM212.067 219.77C221.252 221.137 222.019 221.494 221.464 224.155C220.925 226.741 221.022 226.797 222.368 224.689C223.197 223.39 224.737 222.328 225.788 222.328C227.021 222.328 227.412 223.167 226.888 224.689C226.133 226.882 226.207 226.889 227.94 224.79C229.547 222.846 230.871 222.721 237.429 223.89C245.206 225.278 246.584 226.71 246.636 233.457C246.665 237.079 241.546 236.478 241.021 232.796C240.485 229.038 235.965 227.974 233.702 231.072C231.652 233.877 226.512 232.663 226.281 229.32C226.141 227.29 226.06 227.299 225.509 229.41C224.78 232.203 222.596 232.518 221.62 229.973C221.24 228.983 220.198 228.15 219.303 228.122C216.659 228.037 197.323 218.281 199.8 218.281C201.047 218.281 206.566 218.951 212.067 219.77ZM287.952 219.217C286.434 220.736 287.029 222.328 289.112 222.328C290.224 222.328 291.134 221.757 291.134 221.059C291.134 219.358 289.029 218.139 287.952 219.217ZM334.265 220.193C334.265 221.366 335.226 222.328 336.399 222.328C337.573 222.328 338.294 221.608 338 220.727C337.167 218.224 334.265 217.81 334.265 220.193ZM342.352 220.193C342.352 221.366 343.313 222.328 344.486 222.328C346.866 222.328 346.452 219.424 343.953 218.59C343.072 218.296 342.352 219.018 342.352 220.193ZM350.439 220.193C350.439 221.366 351.399 222.328 352.573 222.328C354.953 222.328 354.539 219.424 352.04 218.59C351.159 218.296 350.439 219.018 350.439 220.193ZM358.526 220.193C358.526 221.366 359.486 222.328 360.66 222.328C363.04 222.328 362.626 219.424 360.127 218.59C359.246 218.296 358.526 219.018 358.526 220.193ZM366.613 220.193C366.613 221.366 367.573 222.328 368.747 222.328C369.921 222.328 370.642 221.608 370.348 220.727C369.515 218.224 366.613 217.81 366.613 220.193ZM374.7 220.305C374.7 221.542 375.353 222.335 376.149 222.069C376.946 221.803 377.598 221.009 377.598 220.305C377.598 219.6 376.946 218.806 376.149 218.54C375.353 218.274 374.7 219.067 374.7 220.305ZM454.897 219.63C454.359 220.501 454.525 221.821 455.266 222.563C456.165 223.463 456.94 223.384 457.593 222.328C458.13 221.457 457.965 220.137 457.223 219.395C456.324 218.495 455.549 218.574 454.897 219.63ZM462.984 219.63C462.446 220.501 462.612 221.821 463.353 222.563C464.252 223.463 465.027 223.384 465.68 222.328C466.217 221.457 466.052 220.137 465.31 219.395C464.411 218.495 463.636 218.574 462.984 219.63ZM471.071 219.63C470.533 220.501 470.699 221.821 471.44 222.563C472.339 223.463 473.114 223.384 473.767 222.328C474.305 221.457 474.139 220.137 473.397 219.395C472.498 218.495 471.723 218.574 471.071 219.63ZM479.158 219.63C478.62 220.501 478.786 221.821 479.527 222.563C480.426 223.463 481.201 223.384 481.854 222.328C482.392 221.457 482.226 220.137 481.484 219.395C480.585 218.495 479.81 218.574 479.158 219.63ZM163.763 221.622C167.469 222.576 169.289 223.371 167.806 223.387C166.324 223.405 162.078 222.638 158.372 221.685C154.665 220.731 152.845 219.936 154.328 219.92C155.811 219.902 160.056 220.669 163.763 221.622ZM295.178 221.654C295.178 222.766 296.087 223.677 297.199 223.677C298.311 223.677 299.221 222.766 299.221 221.654C299.221 220.541 298.311 219.63 297.199 219.63C296.087 219.63 295.178 220.541 295.178 221.654ZM486.83 221.08C487.095 221.877 487.889 222.53 488.593 222.53C489.297 222.53 490.09 221.877 490.356 221.08C490.621 220.283 489.829 219.63 488.593 219.63C487.357 219.63 486.564 220.283 486.83 221.08ZM185.328 222.328C185.787 223.07 185.518 223.677 184.734 223.677C183.95 223.677 183.307 223.07 183.307 222.328C183.307 221.586 183.573 220.979 183.901 220.979C184.229 220.979 184.87 221.586 185.328 222.328ZM303.265 223.003C303.265 224.115 304.174 225.026 305.286 225.026C306.398 225.026 307.308 224.115 307.308 223.003C307.308 221.89 306.398 220.979 305.286 220.979C304.174 220.979 303.265 221.89 303.265 223.003ZM206.631 227.354C204.586 228.046 199.481 225.362 199.481 223.595C199.481 222.86 201.453 223.283 203.861 224.535C206.27 225.786 207.517 227.055 206.631 227.354ZM175.557 224.57C174.631 224.945 173.114 224.945 172.187 224.57C171.261 224.196 172.018 223.89 173.872 223.89C175.725 223.89 176.484 224.196 175.557 224.57ZM250.699 231.771C250.699 234.739 250.459 237.167 250.166 237.167C249.874 237.167 249.402 234.739 249.12 231.771C248.837 228.803 249.077 226.375 249.653 226.375C250.228 226.375 250.699 228.803 250.699 231.771ZM286.361 235.682C285.717 239.002 285.752 239.027 287.016 236.155C287.802 234.371 289.54 233.12 291.235 233.12C293.46 233.12 293.892 233.658 293.126 235.481C292.582 236.78 291.914 239.359 291.646 241.214C291.317 243.482 291.602 243.172 292.514 240.269C293.261 237.894 294.505 235.559 295.279 235.082C296.052 234.603 300.856 234.631 305.952 235.142C314.747 236.027 315.294 236.285 316.655 240.194C318.852 246.502 318.484 250.661 315.732 250.637C312.487 250.609 310.899 249.262 308.994 244.924C307.03 240.451 302.657 240.008 300.488 244.065C299.182 246.506 298.181 246.788 293.493 246.038C290.483 245.557 287.357 244.747 286.545 244.239C285.733 243.73 284.406 243.212 283.596 243.089C282.784 242.965 279.73 241.353 276.806 239.505C273.883 237.658 267.722 234.243 263.116 231.917C258.511 229.59 254.742 227.493 254.742 227.259C254.742 227.025 262.01 228.034 270.892 229.502L287.041 232.172L286.361 235.682ZM322.134 229.912C322.134 231.705 322.5 231.798 324.156 230.422C325.268 229.498 326.178 228.513 326.178 228.234C326.178 227.953 325.268 227.724 324.156 227.724C323.044 227.724 322.134 228.709 322.134 229.912ZM238.568 232.446C238.568 233.559 237.658 234.469 236.546 234.469C234.441 234.469 233.872 232.873 235.424 231.322C236.974 229.769 238.568 230.338 238.568 232.446ZM268.895 240.14C270.912 242.033 262.836 239.889 258.449 237.368C256.411 236.196 254.742 234.399 254.742 233.375C254.742 232.049 256.581 232.571 261.145 235.195C264.666 237.218 268.153 239.444 268.895 240.14ZM335.248 236.633C334.8 237.081 333.637 237.129 332.665 236.74C331.59 236.309 331.909 235.989 333.479 235.925C334.9 235.867 335.695 236.185 335.248 236.633ZM322.895 243.339C323.449 247.041 323.265 250.065 322.435 250.896C321.489 251.843 320.904 249.89 320.582 244.722C320.017 235.631 321.598 234.685 322.895 243.339ZM486.058 248.75C484.992 257.833 482.664 262.658 477.081 267.359C469.885 273.419 458.717 271.203 454.238 262.827C453.135 260.764 453.355 260.478 455.594 261.065C457.064 261.449 458.267 262.284 458.267 262.921C458.267 264.78 465.882 268.194 470.03 268.194C478.274 268.194 484.191 259.992 484.359 248.332C484.416 244.417 485.021 241.214 485.702 241.214C486.415 241.214 486.566 244.421 486.058 248.75ZM481.18 246.653C481.18 255.999 474.734 264.312 467.738 263.991C465.217 263.875 464.981 263.667 466.832 263.19C469.041 262.62 468.815 262.009 464.883 257.95C460.842 253.778 460.695 253.355 463.283 253.355C467.873 253.355 470.397 251.896 470.397 249.244C470.397 245.725 469.491 245.445 457.171 245.148C439.207 244.715 444.606 242.563 463.658 242.563H481.18V246.653ZM307.035 246.857C307.355 248.527 306.76 248.912 304.691 248.371C303.165 247.971 301.917 246.76 301.917 245.679C301.917 242.983 306.491 244.035 307.035 246.857ZM460.962 257.514C465.131 260.365 465.973 261.363 463.658 260.709C457.85 259.067 446.136 254.537 446.136 253.933C446.136 253.616 448.106 253.358 450.516 253.361C453.186 253.365 457.266 254.986 460.962 257.514ZM316.378 258.217C315.93 258.665 314.767 258.714 313.795 258.324C312.72 257.893 313.039 257.574 314.609 257.509C316.03 257.451 316.825 257.769 316.378 258.217ZM323.117 259.566C322.669 260.014 321.506 260.063 320.535 259.673C319.459 259.242 319.778 258.923 321.349 258.858C322.769 258.8 323.564 259.118 323.117 259.566ZM329.211 260.993C328.285 261.368 326.768 261.368 325.841 260.993C324.915 260.62 325.672 260.314 327.526 260.314C329.379 260.314 330.138 260.62 329.211 260.993ZM412.103 281.229C413.03 281.604 414.547 281.604 415.473 281.229C416.4 280.855 415.641 280.549 413.788 280.549C411.934 280.549 411.177 280.855 412.103 281.229ZM432.321 281.229C433.248 281.604 434.764 281.604 435.69 281.229C436.617 280.855 435.859 280.549 434.005 280.549C432.152 280.549 431.395 280.855 432.321 281.229ZM418.927 282.606C419.899 282.996 421.062 282.947 421.509 282.499C421.957 282.052 421.162 281.733 419.741 281.791C418.171 281.856 417.851 282.176 418.927 282.606ZM439.145 282.606C440.116 282.996 441.28 282.947 441.727 282.499C442.175 282.052 441.379 281.733 439.959 281.791C438.389 281.856 438.069 282.176 439.145 282.606ZM517.235 294.719C518.162 295.094 519.678 295.094 520.604 294.719C521.532 294.345 520.773 294.039 518.919 294.039C517.066 294.039 516.309 294.345 517.235 294.719Z" fill="white"/>
</svg>
