<svg width="58" height="46" viewBox="0 0 58 46" fill="none" xmlns="http://www.w3.org/2000/svg">
<path fill-rule="evenodd" clip-rule="evenodd" d="M0 14.5498V29.0996H28.6667H57.3333V14.5498V0H28.6667H0V14.5498ZM18.878 5.37326C18.878 8.44129 18.8618 10.6333 18.8393 10.6149C18.8064 10.588 12.7682 1.57748 12.0443 0.474994L11.798 0.0999987H15.3381H18.878V5.37326ZM45.1188 0.241664C45.0854 0.319562 44.2887 2.36317 43.3485 4.78297C42.4082 7.20277 41.6324 9.18748 41.6246 9.19348C41.6167 9.19945 41.5898 9.15458 41.5647 9.09378C41.3699 8.62239 38.062 0.161098 38.062 0.134365C38.062 0.111032 39.2062 0.0999987 41.6208 0.0999987H45.1797L45.1188 0.241664ZM57.2022 14.5498V28.9996H51.7835C47.057 28.9996 46.3648 28.9934 46.3648 28.9509C46.3648 28.8927 46.4839 28.6583 46.6533 28.383C46.7577 28.2134 46.7792 28.1297 46.7946 27.833C46.8167 27.4051 46.815 26.8339 46.7906 26.5026C46.7806 26.3667 46.79 26.1942 46.8116 26.1193C46.8331 26.0443 46.8572 25.6315 46.8651 25.2019C46.878 24.5044 46.8711 24.4081 46.8013 24.302C46.7584 24.2365 46.7107 24.1276 46.6954 24.0598C46.6723 23.9573 46.6826 23.9305 46.757 23.9002C46.8264 23.8718 46.8401 23.8436 46.8182 23.7734C46.8027 23.7237 46.7613 23.6577 46.7261 23.6268C46.691 23.5959 46.6765 23.5529 46.6939 23.5314C46.7113 23.5099 46.7003 23.4803 46.6694 23.4658C46.6255 23.4451 46.6434 23.3733 46.7512 23.1378C46.9099 22.7913 46.9314 22.5811 46.8113 22.552C46.7684 22.5416 46.6985 22.4881 46.6559 22.4331C46.5796 22.3346 46.5302 22.3194 46.3289 22.332C46.2592 22.3364 46.2201 22.317 46.204 22.2702C46.1911 22.2326 46.1446 22.1932 46.1006 22.1825C45.9776 22.1528 45.753 21.94 45.753 21.8532C45.753 21.8088 45.7054 21.7488 45.6414 21.7127C45.4806 21.622 45.3598 21.4588 45.3598 21.3325C45.3598 21.2724 45.4271 21.0717 45.5095 20.8865C45.641 20.5906 46.7785 17.9581 48.4274 14.1331C48.7159 13.464 48.988 12.834 49.0321 12.7332C49.0763 12.6323 49.3023 12.0998 49.5343 11.5498C49.7664 10.9999 50.159 10.0849 50.4067 9.51654C50.6544 8.94822 50.9979 8.14573 51.17 7.73323C51.3421 7.32074 51.5323 6.87824 51.5927 6.74991C51.7187 6.48215 52.2093 5.31 52.4018 4.8166C52.4733 4.63327 52.632 4.26091 52.7544 3.98915C52.9579 3.53742 53.0023 3.47022 53.2731 3.20582C53.436 3.04676 53.669 2.86413 53.791 2.79996C53.913 2.7358 54.0832 2.64263 54.1693 2.59297C54.2553 2.54327 54.3634 2.4935 54.4093 2.48237C54.495 2.46163 54.5278 2.36664 54.4492 2.36664C54.4252 2.36664 54.4055 2.34414 54.4055 2.31664C54.4055 2.28914 54.376 2.26664 54.3399 2.26664C54.3039 2.26664 54.2744 2.2584 54.2744 2.2483C54.2744 2.16767 54.6523 1.22305 54.7237 1.12499C54.8336 0.974254 54.835 0.974188 55.5294 1.08522C55.6045 1.09725 55.643 1.07635 55.7006 0.99202C55.7414 0.932254 55.787 0.838322 55.8019 0.783323C55.8193 0.719524 55.872 0.667592 55.9476 0.639825C56.0817 0.590593 56.0843 0.583192 56.0178 0.437594C55.9631 0.318029 56.0196 0.23333 56.1541 0.23333C56.2476 0.23333 56.2946 0.353462 56.257 0.496727C56.23 0.599726 56.2305 0.599993 56.4211 0.598893C56.5911 0.597926 56.6297 0.582193 56.7693 0.457228C56.8557 0.379929 56.9538 0.28293 56.9874 0.241664C57.021 0.200397 57.0732 0.166664 57.1035 0.166664C57.1338 0.166664 57.1585 0.151665 57.1585 0.133332C57.1585 0.114999 57.1684 0.0999987 57.1804 0.0999987C57.1924 0.0999987 57.2022 6.60241 57.2022 14.5498ZM31.8817 0.849989C31.9003 1.62831 31.9034 2.18454 31.8937 3.02763C31.8866 3.64779 31.8966 3.81092 31.9434 3.83295C31.9853 3.85268 31.9991 3.92875 31.9919 4.09908C31.986 4.23821 32.0022 4.35638 32.0309 4.38271C32.0878 4.43501 32.0747 5.28096 32.0155 5.37446C31.9879 5.41816 32.0041 5.44103 32.0817 5.46786C32.4009 5.57823 32.4342 5.60276 32.4118 5.71163C32.3999 5.76936 32.3771 5.84716 32.3611 5.88452C32.3406 5.93246 32.3663 5.98066 32.4485 6.04832C32.5419 6.12515 32.5603 6.16625 32.5413 6.25539C32.5283 6.31655 32.5292 6.42042 32.5431 6.48622C32.5649 6.58858 32.5829 6.60375 32.6675 6.59141C32.7549 6.57865 32.7689 6.59291 32.7871 6.71345C32.7984 6.78851 32.7865 7.2136 32.7607 7.6581L32.7139 8.46629L32.8097 8.53439C32.8919 8.59285 32.9055 8.63802 32.9055 8.85425C32.9055 9.05555 32.923 9.12301 32.9929 9.19078C33.0611 9.25691 33.0803 9.32601 33.0803 9.50541C33.0803 9.68384 33.0957 9.73981 33.1491 9.75544C33.1961 9.76921 33.2098 9.80021 33.1922 9.85351C33.1705 9.9196 33.1949 9.94237 33.3529 10.0035C33.5743 10.0891 33.6124 10.1266 33.5574 10.205C33.526 10.2498 33.5371 10.2723 33.6041 10.2996C33.6525 10.3194 33.6921 10.362 33.6921 10.3944C33.6921 10.4267 33.7138 10.4698 33.7405 10.4901C33.7671 10.5104 33.8022 10.5772 33.8185 10.6384C33.8424 10.7285 33.8896 10.7669 34.065 10.8387C34.3858 10.9701 34.3913 10.9768 34.3913 11.2345C34.3913 11.4443 34.3997 11.4665 34.4787 11.4665C34.5267 11.4665 34.5661 11.486 34.5661 11.5099C34.5661 11.5337 34.5907 11.593 34.6207 11.6416C34.6621 11.7086 34.7124 11.7325 34.8283 11.74L34.9812 11.7498L34.9932 12.3084L35.0051 12.8669L35.1977 12.936L35.3903 13.005L35.4062 13.3108C35.4149 13.4789 35.4268 14.0705 35.4327 14.6253C35.4385 15.1802 35.4545 15.6566 35.4684 15.6839C35.4821 15.7113 35.5396 15.7426 35.596 15.7534C35.6525 15.7642 35.7186 15.7914 35.743 15.8138C35.7715 15.84 35.7951 16.6167 35.8089 17.9855C35.8208 19.1575 35.8411 20.7614 35.854 21.5497C35.867 22.338 35.8886 24.3368 35.902 25.9913L35.9265 28.9996H31.8596H27.7927V22.1997C27.7927 18.4598 27.7878 15.3887 27.7818 15.3751C27.7757 15.3615 27.8364 15.3268 27.9166 15.2979L28.0624 15.2454L28.0569 13.8925L28.0513 12.5396L28.1733 12.4746C28.2403 12.4388 28.3493 12.3996 28.4154 12.3874L28.5356 12.3652V11.7633V11.1613L28.6994 11.1723L28.8633 11.1832L28.8852 11.0332C28.9026 10.9137 28.9226 10.8852 28.9835 10.893C29.0491 10.9014 29.06 10.875 29.06 10.7077C29.06 10.5973 29.0853 10.4861 29.1185 10.4516C29.1507 10.418 29.3129 10.336 29.479 10.2694C29.7434 10.1634 29.7812 10.1365 29.7827 10.0532C29.7839 9.99077 29.8252 9.9333 29.9029 9.88607C29.9681 9.84644 30.0213 9.79767 30.0213 9.77767C30.0213 9.75767 30.0803 9.72264 30.1524 9.69987C30.2461 9.67027 30.2835 9.63584 30.2835 9.57918C30.2835 9.53554 30.3032 9.49988 30.3272 9.49988C30.3513 9.49988 30.3709 9.52238 30.3709 9.54988C30.3709 9.57738 30.3965 9.59987 30.4277 9.59987C30.5304 9.59987 30.5894 9.52208 30.591 9.38488C30.5918 9.31065 30.6206 9.21238 30.655 9.16655C30.6904 9.11935 30.7181 8.99195 30.719 8.87269C30.7204 8.67395 30.7704 8.54182 30.8612 8.49649C30.8841 8.48506 30.9013 8.0796 30.9011 7.55484L30.9008 6.63325H31.0019C31.1172 6.63325 31.1575 6.53695 31.1575 6.26125C31.1575 6.16549 31.1874 6.06285 31.2294 6.01389C31.285 5.94909 31.2907 5.91366 31.2545 5.85676C31.1486 5.69026 31.1557 5.49993 31.2678 5.49993C31.2993 5.49993 31.3365 5.4812 31.3505 5.45826C31.3709 5.42493 31.3811 5.42493 31.4015 5.45826C31.4155 5.4812 31.4548 5.49993 31.4889 5.49993C31.5374 5.49993 31.5508 5.43936 31.5508 5.22067C31.5508 5.00647 31.5669 4.93124 31.6201 4.89757C31.6865 4.85554 31.687 4.8095 31.6233 4.60814C31.6102 4.56684 31.5868 4.51741 31.5714 4.49834C31.5559 4.47927 31.5671 4.44184 31.5961 4.41514C31.6373 4.37731 31.6373 4.35594 31.5963 4.31828C31.541 4.26748 31.551 4.04001 31.6323 3.49995C31.6558 3.34412 31.6765 2.57787 31.6784 1.79721C31.6803 1.01652 31.6957 0.367261 31.7125 0.354395C31.7294 0.341529 31.7717 0.335295 31.8065 0.340495C31.8577 0.348195 31.872 0.445328 31.8817 0.849989ZM6.35662 11.2308C6.39769 11.2914 6.41264 11.3674 6.39599 11.4308C6.36662 11.5428 6.40145 11.5565 6.52853 11.4832C6.57415 11.4569 6.62676 11.4425 6.64542 11.4514C6.71499 11.4841 6.90469 11.3862 7.01267 11.2618C7.13651 11.119 7.18956 11.1023 7.22168 11.1959C7.26023 11.3083 7.14801 11.5454 6.95389 11.7618C6.84932 11.8783 6.74414 12.0278 6.72015 12.094C6.6962 12.1602 6.61934 12.2674 6.54937 12.3321C6.43934 12.434 6.43112 12.4548 6.48854 12.4868C6.52503 12.5072 6.55488 12.5484 6.55488 12.5785C6.55488 12.6759 6.70778 12.7598 6.86685 12.7498C6.9476 12.7447 7.04815 12.7388 7.09019 12.7368C7.13223 12.7348 7.16667 12.7107 7.16667 12.6832C7.16667 12.6557 7.16177 12.6329 7.15574 12.6327C7.14971 12.6324 7.06616 12.6092 6.97002 12.5811C6.79619 12.5304 6.79605 12.5302 6.94529 12.5487C7.16055 12.5754 7.25577 12.6516 7.22422 12.772C7.19953 12.8661 7.20359 12.8691 7.3246 12.8461C7.43861 12.8244 7.44494 12.8274 7.39076 12.8776C7.33788 12.9266 7.34247 12.9332 7.42939 12.9332C7.52649 12.9332 7.52622 12.9343 7.41291 13.0023C7.26844 13.0889 7.26783 13.1742 7.4102 13.3781L7.52264 13.5392L7.41095 13.668C7.31551 13.7779 7.25289 13.8078 6.98068 13.8733C6.66539 13.9491 6.66251 13.9509 6.70385 14.0405C6.73697 14.1124 6.72889 14.1452 6.66469 14.1993C6.61453 14.2416 6.57633 14.3364 6.5641 14.4489C6.54496 14.6249 6.55077 14.6364 6.76136 14.84C7.07123 15.1396 7.29296 15.4603 7.32341 15.6528C7.41479 16.231 7.78064 17.1689 8.12836 17.7164C8.51164 18.32 8.84673 19.0112 8.89746 19.3028C8.92547 19.464 8.93295 19.472 9.04101 19.4563C9.10368 19.4471 9.46961 19.4058 9.85417 19.3645C10.2387 19.3231 10.5762 19.2729 10.6042 19.2529C10.6321 19.2328 10.6846 19.1611 10.7209 19.0936L10.7869 18.9707L9.85338 18.511C9.33996 18.2582 8.92486 18.0475 8.93093 18.0429C8.93701 18.0383 9.40725 18.1917 9.97596 18.3838C10.5447 18.5759 11.0277 18.7331 11.0495 18.7331C11.0809 18.7331 11.57 18.5746 11.6129 18.5505C11.6188 18.5472 11.4858 18.2621 11.3173 17.9171C11.1487 17.572 11.0176 17.2845 11.0259 17.2782C11.0341 17.2719 11.2623 17.536 11.533 17.865C11.8037 18.194 12.0488 18.4782 12.0777 18.4965C12.1066 18.5148 12.2597 18.5399 12.4179 18.5523L12.7055 18.5748L13.1537 18.0527C13.4002 17.7656 13.6076 17.535 13.6145 17.5403C13.6215 17.5456 13.5207 17.7974 13.3907 18.0999C13.2606 18.4023 13.1541 18.6593 13.1538 18.6709C13.1536 18.6825 13.2707 18.7452 13.4139 18.8103L13.6743 18.9286L14.536 18.6646C15.0099 18.5194 15.4038 18.4052 15.4112 18.4108C15.4255 18.4218 15.0052 18.6485 14.3498 18.9835C13.9759 19.1745 13.9549 19.1912 14.0141 19.2518C14.0488 19.2873 14.0922 19.3364 14.1106 19.3607C14.1368 19.3954 14.3292 19.4044 14.9925 19.4021C15.4592 19.4005 15.9884 19.3915 16.1687 19.3821C16.6708 19.3561 16.4412 19.4099 15.3805 19.5669L14.4393 19.7062L14.4556 19.978C14.4645 20.1274 14.4751 20.3022 14.4791 20.3664C14.4847 20.4572 14.4705 20.4811 14.4154 20.4743C14.3515 20.4663 14.3501 20.4838 14.4011 20.6512C14.4323 20.7534 14.4916 20.8764 14.533 20.9245C14.5743 20.9727 14.6155 21.088 14.6244 21.1809C14.6334 21.2738 14.6467 21.4097 14.654 21.4831C14.6613 21.5564 14.7013 21.6659 14.7429 21.7263C14.812 21.8268 14.8126 21.8449 14.7505 21.9399C14.6848 22.0405 14.6876 22.0507 14.8405 22.2634C15.0786 22.5947 15.1362 22.6428 15.3614 22.6985C15.5344 22.7412 15.5767 22.7685 15.6174 22.8633C15.6592 22.9607 15.6993 22.9851 15.8983 23.0343C16.1672 23.1008 16.4887 23.341 16.6772 23.6164C16.7399 23.708 16.8546 23.8505 16.9319 23.933C17.1587 24.1749 17.4462 24.5971 17.5673 24.8663C17.6792 25.1151 17.6815 25.1172 18.0252 25.2913C18.2152 25.3876 18.3874 25.4663 18.4078 25.4663C18.4283 25.4663 18.522 25.3386 18.6161 25.1826C18.7102 25.0265 18.811 24.9027 18.8402 24.9076C18.8693 24.9124 18.9166 24.8563 18.9453 24.783C18.9911 24.6658 19.0121 24.6505 19.1191 24.6566C19.2863 24.6662 19.6135 24.8431 20.0774 25.1747L20.4682 25.4541L20.3723 25.5725C20.3196 25.6376 20.2764 25.7283 20.2764 25.774C20.2764 25.8197 20.1978 25.9851 20.1016 26.1416C20.0055 26.2981 19.9268 26.4457 19.9268 26.4697C19.9268 26.4936 19.9882 26.5614 20.0632 26.6205C20.1497 26.6885 20.2123 26.7805 20.2344 26.872C20.2812 27.0654 20.2536 27.7968 20.1894 28.0657C20.1609 28.1852 20.1507 28.3603 20.1665 28.4573C20.1862 28.5775 20.1733 28.6906 20.1254 28.8162L20.0555 28.9996H14.1823H8.30914L8.27322 28.808C8.22375 28.544 8.2383 27.961 8.30083 27.6996C8.39112 27.3225 8.65034 26.7871 8.94015 26.3791C9.09437 26.162 9.22053 25.965 9.22053 25.9412C9.22053 25.9175 9.1753 25.8849 9.11998 25.8689C9.0647 25.8528 8.96323 25.7749 8.89449 25.6957C8.79433 25.5802 8.76309 25.4974 8.73687 25.2782C8.71891 25.1278 8.68395 24.9549 8.65913 24.8939C8.61648 24.7889 8.51741 24.424 8.44469 24.104C8.41576 23.9767 8.39278 23.9536 8.26299 23.9207C8.18123 23.9 8.07635 23.8439 8.02981 23.796C7.93962 23.7032 7.90929 23.4981 7.9675 23.3747C7.99664 23.3129 7.98742 23.2997 7.91506 23.2997C7.86681 23.2997 7.81477 23.2842 7.79948 23.2653C7.78335 23.2454 7.70889 23.24 7.62241 23.2523C7.26202 23.3039 7.19477 23.2263 7.14364 22.6997C7.10112 22.2616 7.17576 21.9058 7.43052 21.3325L7.65548 20.8263L7.52032 20.5154C7.44599 20.3444 7.38516 20.1709 7.38516 20.1298C7.38516 20.0886 7.35711 20.0313 7.3228 20.0024C7.25747 19.9472 7.14132 19.7281 6.85304 19.1164C6.68567 18.7612 6.47478 17.9613 6.39822 17.3914C6.38161 17.2677 6.36064 17.1664 6.35159 17.1664C6.34259 17.1664 6.29736 17.1845 6.25108 17.2065C6.09158 17.2825 5.86203 17.126 5.89284 16.9622C5.89847 16.9324 5.87273 16.8991 5.83568 16.8882C5.79862 16.8774 5.76829 16.8298 5.76829 16.7824C5.76829 16.7351 5.72555 16.6397 5.67333 16.5704C5.60931 16.4856 5.58961 16.4237 5.6129 16.3805C5.66765 16.279 5.6892 16.0315 5.65944 15.8452C5.6389 15.7164 5.59485 15.6407 5.48171 15.5399C5.30058 15.3785 5.28625 15.2764 5.44055 15.2468C5.58065 15.22 5.58227 15.1665 5.44304 15.1665C5.38256 15.1665 5.30705 15.1347 5.2689 15.0931C5.20698 15.0257 5.20868 15.0139 5.2897 14.9481C5.36949 14.8833 5.37129 14.8723 5.30866 14.8326C5.20663 14.768 5.24128 14.5913 5.36408 14.5502C5.50702 14.5024 5.48792 14.4574 5.2415 14.2613C5.07378 14.1279 5.02637 14.0681 5.0445 14.013C5.06487 13.9511 5.04533 13.9372 4.91157 13.918C4.73594 13.8929 4.45714 13.7033 4.45758 13.6093C4.45775 13.5766 4.48537 13.5096 4.51902 13.4604C4.64059 13.2826 4.64632 13.1779 4.53755 13.1197C4.48271 13.0905 4.45583 13.0665 4.47781 13.0665C4.49975 13.0665 4.47956 13.0438 4.43289 13.016C4.35218 12.968 4.35445 12.966 4.47917 12.9744C4.58658 12.9816 4.60769 12.9718 4.59606 12.9203C4.58518 12.8722 4.59995 12.8627 4.65916 12.8801C4.7307 12.901 4.73044 12.8976 4.65567 12.8346C4.57954 12.7704 4.57915 12.7629 4.64907 12.7039C4.72782 12.6376 5.16424 12.5185 5.24941 12.5401C5.27716 12.5472 5.17726 12.579 5.02742 12.6108C4.81552 12.6557 4.76068 12.6801 4.78091 12.7202C4.7952 12.7487 4.80752 12.797 4.80831 12.8276C4.80958 12.8789 4.81403 12.8788 4.86621 12.8264C4.90956 12.7829 4.97021 12.7731 5.12587 12.7842C5.29311 12.7961 5.33694 12.7874 5.37382 12.7349C5.43373 12.6495 5.40581 12.481 5.31968 12.4084C5.20886 12.3151 5.1565 12.1764 5.1565 11.9765C5.1565 11.7991 5.16568 11.784 5.36486 11.6345C5.47949 11.5484 5.59542 11.4837 5.62256 11.4906C5.64969 11.4975 5.71354 11.4585 5.7644 11.404C5.81907 11.3455 5.91473 11.2953 5.99833 11.2813C6.07611 11.2682 6.16543 11.2296 6.19685 11.1954C6.2714 11.1142 6.27866 11.1158 6.35662 11.2308ZM6.45293 12.5554C6.40757 12.59 6.41867 12.6998 6.46748 12.6998C6.49151 12.6998 6.51118 12.6623 6.51118 12.6165C6.51118 12.5292 6.50108 12.5186 6.45293 12.5554ZM5.30945 12.8998C5.29459 12.9182 5.31426 12.9332 5.35315 12.9332C5.39204 12.9332 5.41171 12.9182 5.39685 12.8998C5.38199 12.8815 5.36233 12.8665 5.35315 12.8665C5.34397 12.8665 5.32431 12.8815 5.30945 12.8998ZM6.64228 12.8979C6.64228 12.9537 6.7198 12.9676 6.74558 12.9163C6.76079 12.8861 6.74545 12.8665 6.70647 12.8665C6.67116 12.8665 6.64228 12.8806 6.64228 12.8979ZM6.47342 13.0582C6.47853 13.1368 6.48207 13.1391 6.49833 13.0748C6.51939 12.9913 6.59858 12.9716 6.59858 13.0498C6.59858 13.0773 6.61824 13.0998 6.64228 13.0998C6.70153 13.0998 6.69734 13.0552 6.63354 13.0065C6.54203 12.9367 6.46713 12.9609 6.47342 13.0582ZM6.88262 13.0665C6.86776 13.0848 6.87646 13.0998 6.90189 13.0998C6.92733 13.0998 6.94817 13.0848 6.94817 13.0665C6.94817 13.0482 6.93952 13.0332 6.9289 13.0332C6.91828 13.0332 6.89748 13.0482 6.88262 13.0665ZM5.1128 13.0998C5.1128 13.1182 5.13365 13.1332 5.15908 13.1332C5.18451 13.1332 5.19321 13.1182 5.17835 13.0998C5.1635 13.0815 5.1427 13.0665 5.13208 13.0665C5.12146 13.0665 5.1128 13.0815 5.1128 13.0998ZM8.95833 19.5982C8.95833 19.6783 9.06749 19.7997 9.13951 19.7997C9.18417 19.7997 9.27022 19.8584 9.33498 19.9331C9.3986 20.0064 9.47014 20.0664 9.494 20.0664C9.51781 20.0664 9.76594 20.0122 10.0454 19.9461C10.3248 19.8799 10.58 19.8198 10.6125 19.8124C10.6461 19.8049 10.6603 19.7765 10.6453 19.7467C10.6308 19.7179 10.6189 19.6655 10.6189 19.6303C10.6189 19.5696 10.578 19.5664 9.78862 19.5664C9.29154 19.5664 8.95833 19.5791 8.95833 19.5982ZM10.5534 20.1165C10.5293 20.1229 10.3092 20.1458 10.0641 20.1674L9.61863 20.2068L9.70362 20.3278C9.75038 20.3943 9.78875 20.479 9.78888 20.5159C9.78905 20.5528 9.82017 20.6281 9.8581 20.6831C9.89599 20.7381 9.93571 20.849 9.94628 20.9295C9.96315 21.0578 9.99929 21.1004 10.2376 21.2732C10.5206 21.4784 10.6988 21.5846 10.7234 21.5626C10.8037 21.4905 11.221 20.8148 11.2007 20.7896C11.1847 20.7699 11.1521 20.7788 11.1209 20.8114C11.0592 20.8757 10.9008 20.8843 10.8534 20.8259C10.8267 20.7929 10.7976 20.4639 10.7943 20.1581C10.7937 20.1034 10.6784 20.0835 10.5534 20.1165ZM0 31.3163V32.8996H1.81343H3.62681L3.63787 39.4412L3.64888 45.9827L5.95401 45.9914L8.25915 46V39.4498V32.8996H10.0727H11.8862V31.3163V29.7329H5.94309H0V31.3163ZM13.1535 37.8662V45.9994H15.4695H17.7856V37.8662V29.7329H15.4695H13.1535V37.8662ZM19.0528 37.8662V46L21.358 45.9914L23.6631 45.9827L23.685 43.0565L23.7068 40.1302L24.1773 41.1398C24.436 41.6951 24.7728 42.4194 24.9255 42.7494L25.2033 43.3494L26.7978 43.3582L28.3923 43.3669L28.625 42.8582C28.753 42.5784 29.0991 41.8395 29.3942 41.2161L29.9307 40.0828L29.9432 43.0328L29.9558 45.9827H32.25H34.5442L34.5552 37.8575L34.5662 29.7323L32.31 29.741L30.0539 29.7496L29.684 30.5496C28.7862 32.4914 27.919 34.3731 27.4068 35.4908C27.1023 36.1552 26.8405 36.699 26.8251 36.6992C26.7843 36.6997 26.9959 37.148 24.8509 32.5162C24.5027 31.7646 24.0707 30.8346 23.8908 30.4496L23.5637 29.7496L21.3083 29.741L19.0528 29.7323V37.8662ZM35.877 37.8662V45.9994H40.0066H44.1362V44.4161V42.8328H42.3227H40.5091V41.0495V39.2662H42.2134H43.9177V37.7495V36.2329H42.2134H40.5091V34.5662V32.8996H42.3227H44.1362V31.3163V29.7329H40.0066H35.877V37.8662ZM48.7817 29.7815C47.9044 29.9055 47.1823 30.1825 46.5675 30.6309C46.2019 30.8976 45.9362 31.1753 45.7336 31.5026C45.4142 32.0183 45.4253 31.9065 45.4253 34.5995V37.0162L45.5696 37.3328C45.7617 37.7547 46.0013 38.0542 46.4035 38.3754C46.9816 38.8372 47.6107 39.1182 48.4534 39.2911C48.8738 39.3774 48.8944 39.3783 50.7675 39.3916L52.6575 39.405V41.1022V42.7994H51.3465H50.0356V41.7328V40.6661H47.7195H45.4035V42.0175C45.4035 43.5178 45.4242 43.6759 45.681 44.1329C45.882 44.4906 46.1126 44.7443 46.5153 45.0505C47.0759 45.4768 47.7041 45.7378 48.5786 45.9076C48.9555 45.9807 49.022 45.9826 51.3028 45.9827C53.8265 45.9827 53.9232 45.9774 54.6048 45.8006C55.949 45.4518 56.9583 44.6299 57.2236 43.6678C57.3183 43.3245 57.3205 38.8994 57.2262 38.56C56.9743 37.6535 56.0477 36.8516 54.8288 36.4852C54.0707 36.2573 54.0429 36.255 51.9474 36.2408L50.0356 36.2279V34.5638V32.8996H51.3465H52.6575V33.9662V35.0329H54.9761H57.2946L57.2812 33.5579L57.2678 32.0829L57.1447 31.8163C56.6973 30.8468 55.6545 30.1243 54.2962 29.8426L53.8592 29.752L51.4776 29.7446C49.6456 29.7388 49.0235 29.7474 48.7817 29.7815Z" fill="white"/>
</svg>
